<svg width="16" height="16" viewBox="0 0 16 16" fill="none"
  xmlns="http://www.w3.org/2000/svg">
  <g clip-path="url(#clip0_6603_1103)">
    <path d="M0 3.00037C0 1.34351 1.34315 0.000366211 3 0.000366211H13C14.6569 0.000366211 16 1.34351 16 3.00037V13.0004C16 14.6572 14.6569 16.0004 13 16.0004H3C1.34315 16.0004 0 14.6572 0 13.0004V3.00037Z" fill="url(#paint0_linear_6603_1103)"/>
    <path d="M4.45 13.3508C4.0634 13.3508 3.75 13.0374 3.75 12.6508V3.35076C3.75 2.96416 4.0634 2.65076 4.45 2.65076H9.59573C9.86958 2.65076 10.1224 2.75266 10.3541 2.95647L11.8708 4.17933C12.1236 4.38314 12.25 4.58695 12.25 4.79076V11.2108C12.25 11.4146 12.1236 11.6184 11.8708 11.8222L10.3541 13.045C10.1224 13.2489 9.86958 13.3508 9.59573 13.3508H5.59473L7.44974 11.8513H9.03258C9.20978 11.8513 9.37335 11.7779 9.52329 11.6313L10.5047 10.7513C10.6683 10.6046 10.7501 10.4579 10.7501 10.3113V5.69127C10.7501 5.54461 10.6683 5.39794 10.5047 5.25127L9.52329 4.37127C9.37335 4.22461 9.20978 4.15127 9.03258 4.15127H5.25005L5.25071 13.3508H4.45Z" fill="white"/>
  </g>
  <defs>
    <linearGradient id="paint0_linear_6603_1103" x1="0" y1="8.00037" x2="16" y2="8.00037" gradientUnits="userSpaceOnUse">
      <stop stop-color="#00DBDE"/>
      <stop offset="1" stop-color="#FC00FF"/>
    </linearGradient>
    <clipPath id="clip0_6603_1103">
      <rect width="16" height="16" fill="white"/>
    </clipPath>
  </defs>
</svg>
