<svg width="16" height="16" viewBox="0 0 16 16" fill="none" xmlns="http://www.w3.org/2000/svg">
<g clip-path="url(#clip0_1664_7162)">
<path d="M0 3C0 1.34315 1.34315 0 3 0H13C14.6569 0 16 1.34315 16 3V13C16 14.6569 14.6569 16 13 16H3C1.34315 16 0 14.6569 0 13V3Z" fill="url(#paint0_linear_1664_7162)"/>
<path d="M4.45 13.3504C4.0634 13.3504 3.75 13.037 3.75 12.6504V3.35039C3.75 2.96379 4.0634 2.65039 4.45 2.65039H9.59573C9.86958 2.65039 10.1224 2.7523 10.3541 2.95611L11.8708 4.17896C12.1236 4.38277 12.25 4.58658 12.25 4.79039V11.2104C12.25 11.4142 12.1236 11.618 11.8708 11.8218L10.3541 13.0447C10.1224 13.2485 9.86958 13.3504 9.59573 13.3504H5.59472L7.44974 11.8509H9.03258C9.20978 11.8509 9.37335 11.7776 9.52329 11.6309L10.5047 10.7509C10.6683 10.6042 10.7501 10.4576 10.7501 10.3109V5.69091C10.7501 5.54424 10.6683 5.39757 10.5047 5.25091L9.52329 4.37091C9.37335 4.22424 9.20978 4.15091 9.03258 4.15091H5.25005L5.25071 13.3504H4.45Z" fill="white"/>
</g>
<defs>
<linearGradient id="paint0_linear_1664_7162" x1="0" y1="8" x2="16" y2="8" gradientUnits="userSpaceOnUse">
<stop stop-color="#00DBDE"/>
<stop offset="1" stop-color="#FC00FF"/>
</linearGradient>
<clipPath id="clip0_1664_7162">
<rect width="16" height="16" fill="white"/>
</clipPath>
</defs>
</svg>
