<svg width="110" height="20" viewBox="0 0 110 20" fill="none" xmlns="http://www.w3.org/2000/svg">
<g clip-path="url(#clip0_1_2)">
<path d="M61 16V0H69.4641C69.8606 0 70.2266 0.152381 70.5621 0.457144L72.7582 2.28571C73.1242 2.59048 73.3072 2.89524 73.3072 3.2V12.8C73.3072 13.1048 73.1242 13.4095 72.7582 13.7143L70.5621 15.5429C70.2266 15.8476 69.8606 16 69.4641 16H61ZM71.3856 12.1143V3.88571C71.3856 3.58095 71.2026 3.27619 70.8366 2.97143L69.7386 2.05714C69.4031 1.75238 69.0371 1.6 68.6405 1.6H62.9216V14.4H68.6405C69.0371 14.4 69.4031 14.2476 69.7386 13.9429L70.8366 13.0286C71.2026 12.7238 71.3856 12.419 71.3856 12.1143Z" fill="url(#paint0_linear_1_2)"/>
<path d="M77.308 0H79.2296V16H77.308V0Z" fill="url(#paint1_linear_1_2)"/>
<path d="M82.6651 16L88.1553 0H90.8546L96.4592 16H94.5376L93.3481 12.6857H85.7304L84.5866 16H82.6651ZM89.5507 1.37143H89.4592C89.4592 1.55429 89.4058 1.77524 89.2991 2.03429L86.2108 11.2H92.8677L89.7108 2.03429C89.6041 1.77524 89.5507 1.55429 89.5507 1.37143Z" fill="url(#paint2_linear_1_2)"/>
<path d="M109.776 14.4V16H99.8935V0H101.815V14.4H109.776Z" fill="url(#paint3_linear_1_2)"/>
<mask id="mask0_1_2" style="mask-type:luminance" maskUnits="userSpaceOnUse" x="0" y="0" width="54" height="20">
<path d="M53.6803 0H0V20H53.6803V0Z" fill="white"/>
</mask>
<g mask="url(#mask0_1_2)">
<path d="M10.0763 6.7968H13.0292V3.46346C13.0292 2.53254 12.5976 2.06206 11.7147 2.06206H11.3811C10.5079 2.06206 10.0665 2.53254 10.0665 3.46346V6.7968H10.0763ZM10.0763 8.92893L10.0861 12.5926C10.0861 13.5235 10.5276 13.984 11.4007 13.984H11.7833C12.6564 13.984 13.0979 13.5235 13.0979 12.5926V10.7908H15.109V12.5025C15.109 14.8548 13.9906 16.0561 11.7735 16.0561H11.3321C9.1149 16.0561 7.99658 14.8648 7.99658 12.7828V3.82383C7.99658 1.19119 9.1149 0 11.3321 0H11.7735C13.9906 0 15.109 1.19119 15.109 3.54355L15.0992 8.91892H10.0763V8.92893Z" fill="url(#paint4_linear_1_2)"/>
<path d="M18.5315 13.1429C19.1005 13.6634 19.7577 13.9537 20.4444 13.9537C21.2096 13.9537 21.6511 13.5733 21.6511 12.6724V3.36312C21.6511 2.46222 21.2096 2.08184 20.4444 2.08184C19.7577 2.08184 19.1005 2.37213 18.5315 2.89265V13.1429ZM16.4517 0.179936H18.5315V1.20096C19.0219 0.650406 19.8656 0.00976562 21.0723 0.00976562C22.8479 0.00976562 23.721 1.26102 23.721 3.12288V12.9527C23.721 14.8146 22.8479 16.0658 21.0723 16.0658C19.8656 16.0658 19.0219 15.4552 18.5315 14.9347V19.9997H16.4517V0.179936Z" fill="url(#paint5_linear_1_2)"/>
<path d="M29.9508 13.233V8.05781L28.0673 8.81858C27.3021 9.13893 27.0568 9.54929 27.0568 10.4502V12.8326C27.0568 13.5934 27.41 13.9637 28.0673 13.9637C28.6952 13.9637 29.2739 13.7335 29.9508 13.233ZM24.9771 10.4102C24.9771 8.45821 25.5755 7.67743 27.1647 7.09685L29.9508 6.07583V3.46322C29.9508 2.53228 29.5094 2.04179 28.6363 2.04179H28.3027C27.4297 2.04179 26.9882 2.53228 26.9882 3.46322V5.68544H24.9673V3.55331C24.9673 1.20096 26.0857 0.00976562 28.3027 0.00976562H28.6952C30.9122 0.00976562 32.0306 1.20096 32.0306 3.55331V15.8857H29.9508V14.8947C29.3819 15.4752 28.6069 16.0558 27.41 16.0558C25.7423 16.0558 24.9771 15.0347 24.9771 13.293V10.4102Z" fill="url(#paint6_linear_1_2)"/>
<path d="M40.4295 15.8859H38.3497V3.23324C38.3497 2.45245 37.9966 2.1021 37.3687 2.1021C36.7997 2.1021 36.1915 2.33234 35.4557 2.88288V15.8859H33.376V0.18018H35.4557V1.2012C36.064 0.590591 36.8487 0 37.9966 0C39.0658 0 39.7722 0.470471 40.1548 1.28128C40.9003 0.610611 41.7735 0 42.9703 0C44.5791 0 45.4032 1.05105 45.4032 2.76276V15.8759H43.3235V3.23324C43.3235 2.45245 42.9703 2.1021 42.3424 2.1021C41.7735 2.1021 41.1653 2.33234 40.4295 2.88288V15.8859Z" fill="url(#paint7_linear_1_2)"/>
<path d="M0 7.02845V9.15054L5.33673 14.4859V11.533L1.84431 8.05948L5.33673 4.51594V1.62305L0 7.02845Z" fill="url(#paint8_linear_1_2)"/>
<path d="M48.04 4.51594L51.5324 8.05948L48.04 11.543V14.4859L53.3768 9.15054V7.02845L48.04 1.62305V4.51594Z" fill="url(#paint9_linear_1_2)"/>
</g>
</g>
<defs>
<linearGradient id="paint0_linear_1_2" x1="61" y1="8" x2="109.776" y2="8" gradientUnits="userSpaceOnUse">
<stop stop-color="#00DBDE"/>
<stop offset="1" stop-color="#FC00FF"/>
</linearGradient>
<linearGradient id="paint1_linear_1_2" x1="61" y1="8" x2="109.776" y2="8" gradientUnits="userSpaceOnUse">
<stop stop-color="#00DBDE"/>
<stop offset="1" stop-color="#FC00FF"/>
</linearGradient>
<linearGradient id="paint2_linear_1_2" x1="61" y1="8" x2="109.776" y2="8" gradientUnits="userSpaceOnUse">
<stop stop-color="#00DBDE"/>
<stop offset="1" stop-color="#FC00FF"/>
</linearGradient>
<linearGradient id="paint3_linear_1_2" x1="61" y1="8" x2="109.776" y2="8" gradientUnits="userSpaceOnUse">
<stop stop-color="#00DBDE"/>
<stop offset="1" stop-color="#FC00FF"/>
</linearGradient>
<linearGradient id="paint4_linear_1_2" x1="11.5528" y1="0" x2="11.5528" y2="16.0561" gradientUnits="userSpaceOnUse">
<stop stop-color="#6B6B6B"/>
<stop offset="1" stop-color="#9F9E9E"/>
</linearGradient>
<linearGradient id="paint5_linear_1_2" x1="20.0863" y1="0.00976562" x2="20.0863" y2="19.9997" gradientUnits="userSpaceOnUse">
<stop stop-color="#6B6B6B"/>
<stop offset="1" stop-color="#9F9E9E"/>
</linearGradient>
<linearGradient id="paint6_linear_1_2" x1="28.4989" y1="0.00976562" x2="28.4989" y2="16.0558" gradientUnits="userSpaceOnUse">
<stop stop-color="#6B6B6B"/>
<stop offset="1" stop-color="#9F9E9E"/>
</linearGradient>
<linearGradient id="paint7_linear_1_2" x1="39.3896" y1="0" x2="39.3896" y2="15.8859" gradientUnits="userSpaceOnUse">
<stop stop-color="#6B6B6B"/>
<stop offset="1" stop-color="#9F9E9E"/>
</linearGradient>
<linearGradient id="paint8_linear_1_2" x1="2.66837" y1="1.62305" x2="2.66837" y2="14.4859" gradientUnits="userSpaceOnUse">
<stop stop-color="#6B6B6B"/>
<stop offset="1" stop-color="#9F9E9E"/>
</linearGradient>
<linearGradient id="paint9_linear_1_2" x1="50.7084" y1="1.62305" x2="50.7084" y2="14.4859" gradientUnits="userSpaceOnUse">
<stop stop-color="#6B6B6B"/>
<stop offset="1" stop-color="#9F9E9E"/>
</linearGradient>
<clipPath id="clip0_1_2">
<rect width="110" height="20" fill="white"/>
</clipPath>
</defs>
</svg>
