<svg width="360" height="50" viewBox="0 0 360 50" fill="none" xmlns="http://www.w3.org/2000/svg">
<rect width="50" height="50" fill="#38A4D4"/>
<path d="M27.5071 17.4545V32H24.4318V20.3736H24.3466L21.0156 22.4616V19.7344L24.6165 17.4545H27.5071Z" fill="white"/>
<rect width="50" height="50" transform="translate(54)" fill="#3956B7"/>
<path d="M73.679 32V29.7841L78.8565 24.9901C79.2969 24.5639 79.6662 24.1804 79.9645 23.8395C80.2675 23.4986 80.4972 23.1648 80.6534 22.8381C80.8097 22.5066 80.8878 22.1491 80.8878 21.7656C80.8878 21.3395 80.7907 20.9725 80.5966 20.6648C80.4025 20.3523 80.1373 20.1132 79.8011 19.9474C79.465 19.777 79.0838 19.6918 78.6577 19.6918C78.2126 19.6918 77.8243 19.7817 77.4929 19.9616C77.1615 20.1416 76.9058 20.3996 76.7259 20.7358C76.5459 21.072 76.456 21.4721 76.456 21.9361H73.5369C73.5369 20.9844 73.7524 20.1581 74.1832 19.4574C74.6141 18.7566 75.2178 18.2145 75.9943 17.831C76.7708 17.4474 77.6657 17.2557 78.679 17.2557C79.7206 17.2557 80.6274 17.4403 81.3991 17.8097C82.1757 18.1742 82.7794 18.6809 83.2102 19.3295C83.6411 19.9782 83.8565 20.7216 83.8565 21.5597C83.8565 22.1089 83.7476 22.651 83.5298 23.1861C83.3168 23.7211 82.9356 24.3153 82.3864 24.9688C81.8371 25.6174 81.063 26.3963 80.0639 27.3054L77.9403 29.3864V29.4858H84.0483V32H73.679Z" fill="white"/>
<rect width="198" height="50" transform="translate(108)" fill="#4B7EDE"/>
<path d="M172.264 32V17.4545H175.339V23.456H181.582V17.4545H184.651V32H181.582V25.9915H175.339V32H172.264ZM192.101 32.2131C190.979 32.2131 190.013 31.9858 189.203 31.5312C188.398 31.072 187.778 30.4233 187.342 29.5852C186.907 28.7424 186.689 27.7457 186.689 26.5952C186.689 25.473 186.907 24.4882 187.342 23.6406C187.778 22.7931 188.391 22.1326 189.182 21.6591C189.977 21.1856 190.91 20.9489 191.98 20.9489C192.7 20.9489 193.37 21.0649 193.99 21.2969C194.615 21.5241 195.16 21.8674 195.624 22.3267C196.092 22.786 196.457 23.3636 196.717 24.0597C196.978 24.7509 197.108 25.5606 197.108 26.4886V27.3196H187.896V25.4446H194.26C194.26 25.009 194.165 24.6231 193.976 24.2869C193.786 23.9508 193.524 23.688 193.188 23.4986C192.856 23.3045 192.47 23.2074 192.03 23.2074C191.571 23.2074 191.163 23.3139 190.808 23.527C190.458 23.7353 190.183 24.017 189.984 24.3722C189.786 24.7225 189.684 25.1132 189.679 25.544V27.3267C189.679 27.8665 189.778 28.3329 189.977 28.7259C190.181 29.1188 190.467 29.4219 190.837 29.6349C191.206 29.848 191.644 29.9545 192.151 29.9545C192.487 29.9545 192.795 29.9072 193.074 29.8125C193.353 29.7178 193.592 29.5758 193.791 29.3864C193.99 29.197 194.142 28.965 194.246 28.6903L197.044 28.875C196.902 29.5473 196.611 30.1345 196.17 30.6364C195.735 31.1335 195.171 31.5218 194.48 31.8011C193.794 32.0758 193 32.2131 192.101 32.2131ZM202.193 32.206C201.497 32.206 200.877 32.0852 200.332 31.8438C199.788 31.5975 199.357 31.2353 199.04 30.7571C198.727 30.2741 198.571 29.6728 198.571 28.9531C198.571 28.3471 198.682 27.8381 198.905 27.4261C199.127 27.0142 199.43 26.6828 199.814 26.4318C200.197 26.1809 200.633 25.9915 201.121 25.8636C201.613 25.7358 202.129 25.6458 202.669 25.5938C203.304 25.5275 203.815 25.4659 204.203 25.4091C204.591 25.3475 204.873 25.2576 205.048 25.1392C205.223 25.0208 205.311 24.8456 205.311 24.6136V24.571C205.311 24.1212 205.169 23.7732 204.885 23.527C204.606 23.2808 204.208 23.1577 203.692 23.1577C203.147 23.1577 202.714 23.2784 202.392 23.5199C202.07 23.7566 201.857 24.0549 201.753 24.4148L198.955 24.1875C199.097 23.5246 199.376 22.9517 199.793 22.4688C200.209 21.9811 200.747 21.607 201.405 21.3466C202.068 21.0814 202.835 20.9489 203.706 20.9489C204.312 20.9489 204.892 21.0199 205.446 21.1619C206.005 21.304 206.5 21.5241 206.93 21.8224C207.366 22.1207 207.709 22.5043 207.96 22.973C208.211 23.437 208.337 23.9934 208.337 24.642V32H205.467V30.4872H205.382C205.207 30.8281 204.973 31.1288 204.679 31.3892C204.385 31.6449 204.033 31.8461 203.621 31.9929C203.209 32.1349 202.733 32.206 202.193 32.206ZM203.06 30.1179C203.505 30.1179 203.898 30.0303 204.239 29.8551C204.58 29.6752 204.847 29.4337 205.041 29.1307C205.235 28.8277 205.332 28.4844 205.332 28.1009V26.9432C205.238 27.0047 205.107 27.0616 204.942 27.1136C204.781 27.161 204.598 27.206 204.395 27.2486C204.191 27.2865 203.988 27.322 203.784 27.3551C203.58 27.3835 203.396 27.4096 203.23 27.4332C202.875 27.4853 202.565 27.5682 202.3 27.6818C202.035 27.7955 201.829 27.9493 201.682 28.1435C201.535 28.3329 201.462 28.5696 201.462 28.8537C201.462 29.2656 201.611 29.5805 201.909 29.7983C202.212 30.0114 202.596 30.1179 203.06 30.1179ZM214.704 32.1776C213.875 32.1776 213.125 31.9645 212.452 31.5384C211.785 31.1075 211.254 30.4754 210.862 29.642C210.473 28.804 210.279 27.7765 210.279 26.5597C210.279 25.3097 210.48 24.2704 210.883 23.4418C211.285 22.6084 211.82 21.9858 212.488 21.5739C213.16 21.1572 213.897 20.9489 214.697 20.9489C215.308 20.9489 215.817 21.053 216.224 21.2614C216.636 21.465 216.967 21.7206 217.218 22.0284C217.474 22.3314 217.668 22.6297 217.8 22.9233H217.893V17.4545H220.911V32H217.928V30.2528H217.8C217.658 30.5559 217.457 30.8565 217.197 31.1548C216.941 31.4484 216.607 31.6922 216.195 31.8864C215.788 32.0805 215.291 32.1776 214.704 32.1776ZM215.663 29.7699C216.15 29.7699 216.562 29.6373 216.898 29.3722C217.239 29.1023 217.5 28.7259 217.68 28.2429C217.864 27.7599 217.957 27.1941 217.957 26.5455C217.957 25.8968 217.867 25.3333 217.687 24.8551C217.507 24.3769 217.246 24.0076 216.906 23.7472C216.565 23.4867 216.15 23.3565 215.663 23.3565C215.165 23.3565 214.746 23.4915 214.406 23.7614C214.065 24.0312 213.807 24.4053 213.631 24.8835C213.456 25.3617 213.369 25.9157 213.369 26.5455C213.369 27.1799 213.456 27.741 213.631 28.2287C213.811 28.7116 214.069 29.0904 214.406 29.3651C214.746 29.6349 215.165 29.7699 215.663 29.7699ZM228.37 32.2131C227.248 32.2131 226.282 31.9858 225.473 31.5312C224.668 31.072 224.047 30.4233 223.612 29.5852C223.176 28.7424 222.958 27.7457 222.958 26.5952C222.958 25.473 223.176 24.4882 223.612 23.6406C224.047 22.7931 224.661 22.1326 225.451 21.6591C226.247 21.1856 227.18 20.9489 228.25 20.9489C228.969 20.9489 229.639 21.0649 230.26 21.2969C230.885 21.5241 231.429 21.8674 231.893 22.3267C232.362 22.786 232.726 23.3636 232.987 24.0597C233.247 24.7509 233.377 25.5606 233.377 26.4886V27.3196H224.166V25.4446H230.529C230.529 25.009 230.435 24.6231 230.245 24.2869C230.056 23.9508 229.793 23.688 229.457 23.4986C229.126 23.3045 228.74 23.2074 228.299 23.2074C227.84 23.2074 227.433 23.3139 227.078 23.527C226.727 23.7353 226.453 24.017 226.254 24.3722C226.055 24.7225 225.953 25.1132 225.949 25.544V27.3267C225.949 27.8665 226.048 28.3329 226.247 28.7259C226.45 29.1188 226.737 29.4219 227.106 29.6349C227.475 29.848 227.913 29.9545 228.42 29.9545C228.756 29.9545 229.064 29.9072 229.343 29.8125C229.623 29.7178 229.862 29.5758 230.061 29.3864C230.26 29.197 230.411 28.965 230.515 28.6903L233.314 28.875C233.172 29.5473 232.88 30.1345 232.44 30.6364C232.004 31.1335 231.441 31.5218 230.75 31.8011C230.063 32.0758 229.27 32.2131 228.37 32.2131ZM235.352 32V21.0909H238.285V22.9943H238.399C238.598 22.3172 238.931 21.8059 239.4 21.4602C239.869 21.1098 240.409 20.9347 241.02 20.9347C241.171 20.9347 241.334 20.9441 241.51 20.9631C241.685 20.982 241.839 21.008 241.971 21.0412V23.7259C241.829 23.6832 241.633 23.6454 241.382 23.6122C241.131 23.5791 240.901 23.5625 240.693 23.5625C240.248 23.5625 239.85 23.6596 239.5 23.8537C239.154 24.0431 238.879 24.3082 238.676 24.6491C238.477 24.9901 238.377 25.383 238.377 25.8281V32H235.352Z" fill="white"/>
<rect width="50" height="50" transform="translate(310)" fill="#9B30B9"/>
<path d="M334.555 32.1989C333.495 32.1989 332.55 32.0166 331.722 31.652C330.898 31.2827 330.247 30.776 329.768 30.1321C329.295 29.4834 329.051 28.7353 329.037 27.8878H332.134C332.152 28.2429 332.268 28.5554 332.482 28.8253C332.699 29.0904 332.988 29.2964 333.348 29.4432C333.708 29.59 334.113 29.6634 334.562 29.6634C335.031 29.6634 335.446 29.5805 335.805 29.4148C336.165 29.2491 336.447 29.0194 336.651 28.7259C336.854 28.4323 336.956 28.0937 336.956 27.7102C336.956 27.322 336.847 26.9787 336.629 26.6804C336.416 26.3774 336.108 26.1406 335.706 25.9702C335.308 25.7997 334.835 25.7145 334.286 25.7145H332.929V23.456H334.286C334.75 23.456 335.159 23.3755 335.514 23.2145C335.874 23.0535 336.153 22.831 336.352 22.5469C336.551 22.258 336.651 21.9219 336.651 21.5384C336.651 21.1738 336.563 20.8542 336.388 20.5795C336.217 20.3002 335.976 20.0824 335.663 19.9261C335.356 19.7699 334.996 19.6918 334.584 19.6918C334.167 19.6918 333.786 19.7675 333.44 19.919C333.095 20.0658 332.818 20.2765 332.609 20.5511C332.401 20.8258 332.29 21.1477 332.276 21.517H329.328C329.342 20.679 329.581 19.9403 330.045 19.3011C330.509 18.6619 331.134 18.1624 331.92 17.8026C332.711 17.438 333.604 17.2557 334.598 17.2557C335.602 17.2557 336.48 17.438 337.233 17.8026C337.986 18.1671 338.571 18.6596 338.987 19.2798C339.409 19.8954 339.617 20.5866 339.612 21.3537C339.617 22.1681 339.364 22.8475 338.852 23.392C338.346 23.9366 337.685 24.2822 336.871 24.429V24.5426C337.941 24.6799 338.755 25.0516 339.314 25.6577C339.877 26.259 340.157 27.0118 340.152 27.9162C340.157 28.7448 339.918 29.4811 339.435 30.125C338.956 30.7689 338.296 31.2756 337.453 31.6449C336.61 32.0142 335.644 32.1989 334.555 32.1989Z" fill="white"/>
</svg>
