<svg width="1920" height="1080" viewBox="0 0 1920 1080" fill="none" xmlns="http://www.w3.org/2000/svg">
<g clip-path="url(#clip0_23186_122720)">
<rect width="1920" height="1080" fill="white"/>
<rect width="65" height="1080" fill="#00C0C3"/>
<path d="M22.1364 621.197H42.5V624.916L29.6832 633.776V633.925H42.5V638.23H22.1364V634.452L34.9432 625.662V625.483H22.1364V621.197ZM42.7884 613.365C42.7884 614.339 42.6193 615.208 42.2812 615.97C41.9366 616.732 41.4295 617.335 40.7599 617.779C40.0838 618.217 39.242 618.436 38.2344 618.436C37.3859 618.436 36.6733 618.28 36.0966 617.968C35.5199 617.657 35.0559 617.233 34.7045 616.696C34.3532 616.159 34.0881 615.549 33.9091 614.866C33.7301 614.177 33.6042 613.454 33.5312 612.699C33.4384 611.81 33.3523 611.094 33.2727 610.551C33.1866 610.007 33.0606 609.613 32.8949 609.368C32.7292 609.122 32.4839 609 32.1591 609H32.0994C31.4697 609 30.9825 609.199 30.6378 609.596C30.2931 609.987 30.1207 610.544 30.1207 611.267C30.1207 612.029 30.2898 612.636 30.6278 613.086C30.9593 613.537 31.3769 613.835 31.8807 613.981L31.5625 617.899C30.6345 617.7 29.8324 617.309 29.1562 616.725C28.4735 616.142 27.9498 615.39 27.5852 614.468C27.214 613.54 27.0284 612.467 27.0284 611.247C27.0284 610.398 27.1278 609.586 27.3267 608.811C27.5256 608.029 27.8338 607.336 28.2514 606.733C28.669 606.123 29.206 605.642 29.8622 605.291C30.5118 604.94 31.2907 604.764 32.1989 604.764H42.5V608.781H40.3821V608.9C40.8594 609.145 41.2803 609.474 41.6449 609.885C42.0028 610.296 42.2846 610.789 42.4901 611.366C42.6889 611.943 42.7884 612.609 42.7884 613.365ZM39.8651 612.152C39.8651 611.529 39.7424 610.978 39.4972 610.501C39.2453 610.024 38.9072 609.649 38.483 609.377C38.0587 609.106 37.5781 608.97 37.0412 608.97H35.4205C35.5066 609.102 35.5862 609.285 35.6591 609.517C35.7254 609.742 35.7884 609.997 35.848 610.282C35.901 610.567 35.9508 610.852 35.9972 611.137C36.0369 611.422 36.0734 611.681 36.1065 611.913C36.1795 612.41 36.2955 612.844 36.4545 613.216C36.6136 613.587 36.8291 613.875 37.1009 614.081C37.366 614.286 37.6974 614.389 38.0952 614.389C38.6719 614.389 39.1127 614.18 39.4176 613.762C39.7159 613.338 39.8651 612.801 39.8651 612.152ZM27.2273 587.786L42.5 593.125V597.898L27.2273 603.238V598.763L38.1548 595.591V595.432L27.2273 592.27V587.786ZM42.5 585.618H27.2273V581.382H42.5V585.618ZM25.2585 583.49C25.2585 584.12 25.0497 584.66 24.6321 585.111C24.2079 585.555 23.7008 585.777 23.1108 585.777C22.5275 585.777 22.027 585.555 21.6094 585.111C21.1851 584.66 20.973 584.12 20.973 583.49C20.973 582.861 21.1851 582.324 21.6094 581.88C22.027 581.429 22.5275 581.203 23.1108 581.203C23.7008 581.203 24.2079 581.429 24.6321 581.88C25.0497 582.324 25.2585 582.861 25.2585 583.49ZM48.5455 571.109C48.5455 572.481 48.3565 573.657 47.9787 574.638C47.6075 575.613 47.1004 576.388 46.4574 576.965C45.8144 577.542 45.0919 577.916 44.2898 578.089L43.7628 574.171C44.0677 574.052 44.3527 573.863 44.6179 573.604C44.883 573.346 45.0952 573.004 45.2543 572.58C45.42 572.149 45.5028 571.626 45.5028 571.009C45.5028 570.088 45.2775 569.329 44.8267 568.732C44.3826 568.129 43.6368 567.827 42.5895 567.827H39.7955V568.006C40.2197 568.192 40.6207 568.47 40.9986 568.842C41.3764 569.213 41.6847 569.69 41.9233 570.273C42.1619 570.857 42.2812 571.553 42.2812 572.362C42.2812 573.508 42.0161 574.552 41.4858 575.494C40.9489 576.428 40.1302 577.174 39.0298 577.731C37.9228 578.281 36.5241 578.556 34.8338 578.556C33.1037 578.556 31.6586 578.274 30.4986 577.711C29.3385 577.147 28.4702 576.398 27.8935 575.464C27.3168 574.522 27.0284 573.492 27.0284 572.371C27.0284 571.516 27.1742 570.8 27.4659 570.224C27.7509 569.647 28.1089 569.183 28.5398 568.832C28.964 568.474 29.3816 568.199 29.7926 568.006V567.847H27.2273V563.641H42.6491C43.9484 563.641 45.0355 563.96 45.9105 564.596C46.7855 565.232 47.4418 566.114 47.8793 567.241C48.3234 568.361 48.5455 569.65 48.5455 571.109ZM39.0994 571.019C39.0994 570.336 38.9304 569.76 38.5923 569.289C38.2476 568.812 37.7571 568.447 37.1207 568.195C36.4777 567.937 35.7088 567.808 34.8139 567.808C33.919 567.808 33.1435 567.933 32.4872 568.185C31.8243 568.437 31.3106 568.802 30.946 569.279C30.5814 569.756 30.3991 570.336 30.3991 571.019C30.3991 571.715 30.5881 572.302 30.9659 572.779C31.3371 573.256 31.8542 573.618 32.517 573.863C33.1799 574.108 33.9455 574.231 34.8139 574.231C35.6955 574.231 36.4579 574.108 37.1009 573.863C37.7372 573.611 38.2311 573.25 38.5824 572.779C38.9271 572.302 39.0994 571.715 39.0994 571.019ZM42.7884 555.915C42.7884 556.89 42.6193 557.758 42.2812 558.521C41.9366 559.283 41.4295 559.886 40.7599 560.33C40.0838 560.768 39.242 560.987 38.2344 560.987C37.3859 560.987 36.6733 560.831 36.0966 560.519C35.5199 560.208 35.0559 559.783 34.7045 559.246C34.3532 558.71 34.0881 558.1 33.9091 557.417C33.7301 556.728 33.6042 556.005 33.5313 555.249C33.4384 554.361 33.3523 553.645 33.2727 553.102C33.1866 552.558 33.0606 552.164 32.8949 551.918C32.7292 551.673 32.4839 551.55 32.1591 551.55H32.0994C31.4697 551.55 30.9825 551.749 30.6378 552.147C30.2931 552.538 30.1207 553.095 30.1207 553.817C30.1207 554.58 30.2898 555.186 30.6278 555.637C30.9593 556.088 31.3769 556.386 31.8807 556.532L31.5625 560.45C30.6345 560.251 29.8324 559.86 29.1563 559.276C28.4735 558.693 27.9498 557.941 27.5852 557.019C27.214 556.091 27.0284 555.017 27.0284 553.798C27.0284 552.949 27.1278 552.137 27.3267 551.362C27.5256 550.579 27.8338 549.887 28.2514 549.283C28.669 548.674 29.206 548.193 29.8622 547.842C30.5118 547.49 31.2907 547.315 32.1989 547.315H42.5V551.332H40.3821V551.451C40.8594 551.696 41.2803 552.024 41.6449 552.435C42.0028 552.846 42.2846 553.34 42.4901 553.917C42.6889 554.494 42.7884 555.16 42.7884 555.915ZM39.8651 554.702C39.8651 554.079 39.7424 553.529 39.4972 553.052C39.2453 552.575 38.9072 552.2 38.483 551.928C38.0587 551.656 37.5781 551.521 37.0412 551.521H35.4205C35.5066 551.653 35.5862 551.835 35.6591 552.067C35.7254 552.293 35.7884 552.548 35.848 552.833C35.901 553.118 35.9508 553.403 35.9972 553.688C36.0369 553.973 36.0734 554.232 36.1065 554.464C36.1795 554.961 36.2955 555.395 36.4545 555.766C36.6136 556.138 36.8291 556.426 37.1009 556.631C37.366 556.837 37.6974 556.94 38.0952 556.94C38.6719 556.94 39.1127 556.731 39.4176 556.313C39.7159 555.889 39.8651 555.352 39.8651 554.702ZM27.2273 535.905H30.4091V545.102H27.2273V535.905ZM23.5682 543.014V538.778H37.8068C38.1979 538.778 38.5028 538.719 38.7216 538.599C38.9337 538.48 39.0829 538.314 39.169 538.102C39.2552 537.884 39.2983 537.632 39.2983 537.347C39.2983 537.148 39.2817 536.949 39.2486 536.75C39.2088 536.551 39.179 536.399 39.1591 536.293L42.3111 535.626C42.3774 535.839 42.4536 536.137 42.5398 536.521C42.6326 536.906 42.6889 537.373 42.7088 537.923C42.7486 538.944 42.6127 539.839 42.3011 540.608C41.9896 541.37 41.5057 541.964 40.8494 542.388C40.1932 542.812 39.3646 543.021 38.3636 543.014H23.5682ZM42.5 533.146H27.2273V528.91H42.5V533.146ZM25.2585 531.018C25.2585 531.647 25.0497 532.188 24.6321 532.638C24.2079 533.083 23.7008 533.305 23.1108 533.305C22.5275 533.305 22.027 533.083 21.6094 532.638C21.1851 532.188 20.973 531.647 20.973 531.018C20.973 530.388 21.1851 529.851 21.6094 529.407C22.027 528.956 22.5275 528.731 23.1108 528.731C23.7008 528.731 24.2079 528.956 24.6321 529.407C25.0497 529.851 25.2585 530.388 25.2585 531.018ZM42.7983 518.616C42.7983 520.161 42.4702 521.496 41.8139 522.623C41.151 523.743 40.2296 524.609 39.0497 525.218C37.8632 525.828 36.4877 526.133 34.9233 526.133C33.3456 526.133 31.9669 525.828 30.7869 525.218C29.6004 524.609 28.679 523.743 28.0227 522.623C27.3598 521.496 27.0284 520.161 27.0284 518.616C27.0284 517.072 27.3598 515.739 28.0227 514.619C28.679 513.492 29.6004 512.624 30.7869 512.014C31.9669 511.404 33.3456 511.099 34.9233 511.099C36.4877 511.099 37.8632 511.404 39.0497 512.014C40.2296 512.624 41.151 513.492 41.8139 514.619C42.4702 515.739 42.7983 517.072 42.7983 518.616ZM39.517 518.596C39.517 517.894 39.3182 517.307 38.9205 516.836C38.5161 516.366 37.9659 516.011 37.2699 515.772C36.5739 515.527 35.7817 515.404 34.8935 515.404C34.0052 515.404 33.2131 515.527 32.517 515.772C31.821 516.011 31.2708 516.366 30.8665 516.836C30.4621 517.307 30.2599 517.894 30.2599 518.596C30.2599 519.306 30.4621 519.902 30.8665 520.386C31.2708 520.863 31.821 521.225 32.517 521.47C33.2131 521.708 34.0052 521.828 34.8935 521.828C35.7817 521.828 36.5739 521.708 37.2699 521.47C37.9659 521.225 38.5161 520.863 38.9205 520.386C39.3182 519.902 39.517 519.306 39.517 518.596ZM33.6705 504.109H42.5V508.345H27.2273V504.308H29.9219V504.129C29.0336 503.791 28.331 503.224 27.8139 502.429C27.2902 501.633 27.0284 500.669 27.0284 499.535C27.0284 498.475 27.2604 497.55 27.7244 496.761C28.1884 495.972 28.8513 495.359 29.7131 494.922C30.5682 494.484 31.589 494.265 32.7756 494.265H42.5L42.5 498.501H33.5313C32.5966 498.494 31.8674 498.733 31.3438 499.217C30.8134 499.701 30.5483 500.367 30.5483 501.216C30.5483 501.786 30.6709 502.289 30.9162 502.727C31.1615 503.158 31.5194 503.496 31.9901 503.741C32.4541 503.98 33.0142 504.102 33.6705 504.109ZM42.5 484.367H22.1364V480.131H29.7926V480.002C29.3816 479.816 28.964 479.548 28.5398 479.196C28.1089 478.838 27.7509 478.374 27.4659 477.804C27.1742 477.228 27.0284 476.512 27.0284 475.657C27.0284 474.543 27.3201 473.516 27.9034 472.574C28.4801 471.633 29.3518 470.881 30.5185 470.317C31.6785 469.754 33.1335 469.472 34.8835 469.472C36.5871 469.472 38.0256 469.747 39.1989 470.297C40.3655 470.841 41.2505 471.583 41.8537 472.525C42.4503 473.459 42.7486 474.507 42.7486 475.667C42.7486 476.489 42.6127 477.188 42.3409 477.765C42.0691 478.335 41.7277 478.802 41.3168 479.167C40.8991 479.531 40.4782 479.81 40.054 480.002V480.191H42.5V484.367ZM34.8636 480.221C35.7718 480.221 36.5639 480.095 37.2401 479.843C37.9162 479.591 38.4432 479.226 38.821 478.749C39.1922 478.272 39.3778 477.692 39.3778 477.009C39.3778 476.319 39.1889 475.736 38.8111 475.259C38.4266 474.782 37.8963 474.42 37.2202 474.175C36.5374 473.923 35.7519 473.797 34.8636 473.797C33.982 473.797 33.2064 473.92 32.5369 474.165C31.8674 474.41 31.3437 474.772 30.9659 475.249C30.5881 475.726 30.3991 476.313 30.3991 477.009C30.3991 477.698 30.5814 478.282 30.946 478.759C31.3106 479.23 31.8277 479.591 32.4972 479.843C33.1667 480.095 33.9555 480.221 34.8636 480.221ZM42.7884 462.29C42.7884 463.265 42.6193 464.133 42.2813 464.896C41.9366 465.658 41.4295 466.261 40.7599 466.705C40.0838 467.143 39.242 467.362 38.2344 467.362C37.3859 467.362 36.6733 467.206 36.0966 466.894C35.5199 466.583 35.0559 466.158 34.7045 465.621C34.3532 465.085 34.0881 464.475 33.9091 463.792C33.7301 463.103 33.6042 462.38 33.5313 461.624C33.4384 460.736 33.3523 460.02 33.2727 459.477C33.1866 458.933 33.0606 458.539 32.8949 458.293C32.7292 458.048 32.4839 457.925 32.1591 457.925H32.0994C31.4697 457.925 30.9825 458.124 30.6378 458.522C30.2931 458.913 30.1207 459.47 30.1207 460.192C30.1207 460.955 30.2898 461.561 30.6278 462.012C30.9593 462.463 31.3769 462.761 31.8807 462.907L31.5625 466.825C30.6345 466.626 29.8324 466.235 29.1563 465.651C28.4735 465.068 27.9498 464.316 27.5852 463.394C27.214 462.466 27.0284 461.392 27.0284 460.173C27.0284 459.324 27.1278 458.512 27.3267 457.737C27.5256 456.954 27.8338 456.262 28.2514 455.658C28.669 455.049 29.206 454.568 29.8622 454.217C30.5118 453.865 31.2907 453.69 32.1989 453.69H42.5V457.707H40.3821V457.826C40.8594 458.071 41.2803 458.399 41.6449 458.81C42.0028 459.221 42.2846 459.715 42.4901 460.292C42.6889 460.869 42.7884 461.535 42.7884 462.29ZM39.8651 461.077C39.8651 460.454 39.7424 459.904 39.4972 459.427C39.2453 458.95 38.9072 458.575 38.483 458.303C38.0587 458.031 37.5781 457.896 37.0412 457.896H35.4205C35.5066 458.028 35.5862 458.21 35.6591 458.442C35.7254 458.668 35.7884 458.923 35.848 459.208C35.901 459.493 35.9508 459.778 35.9972 460.063C36.0369 460.348 36.0734 460.607 36.1065 460.839C36.1795 461.336 36.2955 461.77 36.4545 462.141C36.6136 462.513 36.8291 462.801 37.1009 463.006C37.366 463.212 37.6974 463.315 38.0952 463.315C38.6719 463.315 39.1127 463.106 39.4176 462.688C39.7159 462.264 39.8651 461.727 39.8651 461.077ZM42.5 450.403H27.2273V446.297H29.892V446.138C28.9441 445.859 28.2282 445.392 27.7443 444.736C27.2538 444.08 27.0085 443.324 27.0085 442.469C27.0085 442.257 27.0218 442.028 27.0483 441.783C27.0748 441.537 27.1113 441.322 27.1577 441.136H30.9162C30.8565 441.335 30.8035 441.61 30.7571 441.962C30.7107 442.313 30.6875 442.634 30.6875 442.926C30.6875 443.549 30.8234 444.106 31.0952 444.597C31.3603 445.08 31.7315 445.465 32.2088 445.75C32.6861 446.028 33.2363 446.168 33.8594 446.168H42.5V450.403Z" fill="white"/>
<rect width="1587" height="65" transform="translate(69)" fill="#4B7EDE"/>
<path d="M814.27 42.5V22.1364H818.575V30.5384H827.315V22.1364H831.611V42.5H827.315V34.0881H818.575V42.5H814.27ZM842.041 42.7983C840.47 42.7983 839.118 42.4801 837.984 41.8438C836.857 41.2008 835.989 40.2926 835.379 39.1193C834.769 37.9394 834.464 36.544 834.464 34.9332C834.464 33.3622 834.769 31.9834 835.379 30.7969C835.989 29.6103 836.848 28.6856 837.955 28.0227C839.068 27.3598 840.374 27.0284 841.872 27.0284C842.88 27.0284 843.818 27.1908 844.686 27.5156C845.561 27.8338 846.323 28.3144 846.973 28.9574C847.629 29.6004 848.14 30.4091 848.504 31.3835C848.869 32.3513 849.051 33.4848 849.051 34.7841V35.9474H836.155V33.3224H845.064C845.064 32.7126 844.931 32.1723 844.666 31.7017C844.401 31.2311 844.033 30.8632 843.562 30.598C843.098 30.3262 842.558 30.1903 841.942 30.1903C841.299 30.1903 840.729 30.3395 840.232 30.6378C839.741 30.9295 839.357 31.3239 839.078 31.821C838.8 32.3116 838.657 32.8584 838.651 33.4616V35.9574C838.651 36.7131 838.79 37.366 839.068 37.9162C839.353 38.4664 839.754 38.8906 840.271 39.1889C840.788 39.4872 841.402 39.6364 842.111 39.6364C842.581 39.6364 843.012 39.5701 843.403 39.4375C843.795 39.3049 844.129 39.1061 844.408 38.8409C844.686 38.5758 844.898 38.2509 845.044 37.8665L848.962 38.125C848.763 39.0663 848.355 39.8883 847.739 40.5909C847.129 41.2869 846.34 41.8305 845.372 42.2216C844.411 42.6061 843.301 42.7983 842.041 42.7983ZM856.17 42.7884C855.196 42.7884 854.328 42.6193 853.565 42.2812C852.803 41.9366 852.2 41.4295 851.756 40.7599C851.318 40.0838 851.099 39.242 851.099 38.2344C851.099 37.3859 851.255 36.6733 851.567 36.0966C851.878 35.5199 852.303 35.0559 852.839 34.7045C853.376 34.3532 853.986 34.0881 854.669 33.9091C855.358 33.7301 856.081 33.6042 856.837 33.5312C857.725 33.4384 858.441 33.3523 858.984 33.2727C859.528 33.1866 859.922 33.0606 860.168 32.8949C860.413 32.7292 860.536 32.4839 860.536 32.1591V32.0994C860.536 31.4697 860.337 30.9825 859.939 30.6378C859.548 30.2931 858.991 30.1207 858.268 30.1207C857.506 30.1207 856.9 30.2898 856.449 30.6278C855.998 30.9593 855.7 31.3769 855.554 31.8807L851.636 31.5625C851.835 30.6345 852.226 29.8324 852.81 29.1562C853.393 28.4735 854.145 27.9498 855.067 27.5852C855.995 27.214 857.069 27.0284 858.288 27.0284C859.137 27.0284 859.949 27.1278 860.724 27.3267C861.507 27.5256 862.199 27.8338 862.803 28.2514C863.412 28.669 863.893 29.206 864.244 29.8622C864.596 30.5118 864.771 31.2907 864.771 32.1989V42.5H860.754V40.3821H860.635C860.39 40.8594 860.062 41.2803 859.651 41.6449C859.24 42.0028 858.746 42.2846 858.169 42.4901C857.592 42.6889 856.926 42.7884 856.17 42.7884ZM857.384 39.8651C858.007 39.8651 858.557 39.7424 859.034 39.4972C859.511 39.2453 859.886 38.9072 860.158 38.483C860.429 38.0587 860.565 37.5781 860.565 37.0412V35.4205C860.433 35.5066 860.25 35.5862 860.018 35.6591C859.793 35.7254 859.538 35.7884 859.253 35.848C858.968 35.901 858.683 35.9508 858.398 35.9972C858.113 36.0369 857.854 36.0734 857.622 36.1065C857.125 36.1795 856.691 36.2955 856.32 36.4545C855.948 36.6136 855.66 36.8291 855.455 37.1009C855.249 37.366 855.146 37.6974 855.146 38.0952C855.146 38.6719 855.355 39.1127 855.773 39.4176C856.197 39.7159 856.734 39.8651 857.384 39.8651ZM873.685 42.7486C872.525 42.7486 871.475 42.4503 870.533 41.8537C869.599 41.2505 868.856 40.3655 868.306 39.1989C867.763 38.0256 867.491 36.5871 867.491 34.8835C867.491 33.1335 867.772 31.6785 868.336 30.5185C868.899 29.3518 869.648 28.4801 870.583 27.9034C871.524 27.3201 872.555 27.0284 873.675 27.0284C874.531 27.0284 875.243 27.1742 875.813 27.4659C876.39 27.7509 876.854 28.1089 877.205 28.5398C877.563 28.964 877.835 29.3816 878.021 29.7926H878.15V22.1364H882.376V42.5H878.2V40.054H878.021C877.822 40.4782 877.54 40.8991 877.175 41.3168C876.817 41.7277 876.35 42.0691 875.773 42.3409C875.203 42.6127 874.507 42.7486 873.685 42.7486ZM875.028 39.3778C875.71 39.3778 876.287 39.1922 876.758 38.821C877.235 38.4432 877.6 37.9162 877.852 37.2401C878.11 36.5639 878.239 35.7718 878.239 34.8636C878.239 33.9555 878.113 33.1667 877.862 32.4972C877.61 31.8277 877.245 31.3106 876.768 30.946C876.29 30.5814 875.71 30.3991 875.028 30.3991C874.332 30.3991 873.745 30.5881 873.268 30.9659C872.79 31.3437 872.429 31.8674 872.184 32.5369C871.939 33.2064 871.816 33.982 871.816 34.8636C871.816 35.7519 871.939 36.5374 872.184 37.2202C872.436 37.8963 872.797 38.4266 873.268 38.8111C873.745 39.1889 874.332 39.3778 875.028 39.3778ZM892.819 42.7983C891.248 42.7983 889.895 42.4801 888.762 41.8438C887.635 41.2008 886.766 40.2926 886.157 39.1193C885.547 37.9394 885.242 36.544 885.242 34.9332C885.242 33.3622 885.547 31.9834 886.157 30.7969C886.766 29.6103 887.625 28.6856 888.732 28.0227C889.846 27.3598 891.151 27.0284 892.65 27.0284C893.657 27.0284 894.595 27.1908 895.463 27.5156C896.338 27.8338 897.101 28.3144 897.75 28.9574C898.407 29.6004 898.917 30.4091 899.282 31.3835C899.646 32.3513 899.828 33.4848 899.828 34.7841V35.9474H886.932V33.3224H895.841C895.841 32.7126 895.709 32.1723 895.444 31.7017C895.178 31.2311 894.81 30.8632 894.34 30.598C893.876 30.3262 893.336 30.1903 892.719 30.1903C892.076 30.1903 891.506 30.3395 891.009 30.6378C890.518 30.9295 890.134 31.3239 889.855 31.821C889.577 32.3116 889.435 32.8584 889.428 33.4616V35.9574C889.428 36.7131 889.567 37.366 889.846 37.9162C890.131 38.4664 890.532 38.8906 891.049 39.1889C891.566 39.4872 892.179 39.6364 892.888 39.6364C893.359 39.6364 893.79 39.5701 894.181 39.4375C894.572 39.3049 894.907 39.1061 895.185 38.8409C895.463 38.5758 895.676 38.2509 895.821 37.8665L899.739 38.125C899.54 39.0663 899.132 39.8883 898.516 40.5909C897.906 41.2869 897.117 41.8305 896.15 42.2216C895.188 42.6061 894.078 42.7983 892.819 42.7983ZM902.593 42.5V27.2273H906.699V29.892H906.858C907.137 28.9441 907.604 28.2282 908.26 27.7443C908.917 27.2538 909.672 27.0085 910.527 27.0085C910.739 27.0085 910.968 27.0218 911.213 27.0483C911.459 27.0748 911.674 27.1113 911.86 27.1577V30.9162C911.661 30.8565 911.386 30.8035 911.034 30.7571C910.683 30.7107 910.362 30.6875 910.07 30.6875C909.447 30.6875 908.89 30.8234 908.4 31.0952C907.916 31.3603 907.531 31.7315 907.246 32.2088C906.968 32.6861 906.828 33.2363 906.828 33.8594V42.5H902.593Z" fill="white"/>
<rect width="1587" height="827" transform="translate(69 69)" fill="#7366D9"/>
<path d="M815.737 479.266H811.382C811.303 478.702 811.14 478.202 810.895 477.764C810.65 477.32 810.335 476.942 809.95 476.631C809.566 476.319 809.122 476.08 808.618 475.915C808.121 475.749 807.58 475.666 806.997 475.666C805.943 475.666 805.025 475.928 804.243 476.452C803.461 476.969 802.854 477.724 802.423 478.719C801.992 479.706 801.777 480.906 801.777 482.318C801.777 483.77 801.992 484.99 802.423 485.977C802.861 486.965 803.471 487.711 804.253 488.214C805.035 488.718 805.94 488.97 806.967 488.97C807.544 488.97 808.078 488.894 808.568 488.741C809.065 488.589 809.506 488.367 809.891 488.075C810.275 487.777 810.593 487.416 810.845 486.991C811.104 486.567 811.283 486.083 811.382 485.54L815.737 485.56C815.625 486.494 815.343 487.396 814.892 488.264C814.448 489.126 813.848 489.898 813.092 490.581C812.343 491.257 811.448 491.794 810.408 492.192C809.374 492.583 808.204 492.778 806.898 492.778C805.081 492.778 803.457 492.367 802.026 491.545C800.6 490.723 799.473 489.534 798.645 487.976C797.823 486.418 797.412 484.532 797.412 482.318C797.412 480.098 797.83 478.208 798.665 476.651C799.5 475.093 800.634 473.906 802.065 473.091C803.497 472.269 805.108 471.858 806.898 471.858C808.078 471.858 809.171 472.024 810.179 472.355C811.193 472.687 812.091 473.17 812.874 473.807C813.656 474.437 814.292 475.209 814.783 476.124C815.28 477.038 815.598 478.086 815.737 479.266ZM822.981 483.67V492.5H818.745V472.136H822.862V479.922H823.04C823.385 479.02 823.942 478.314 824.711 477.804C825.48 477.287 826.444 477.028 827.604 477.028C828.665 477.028 829.59 477.26 830.379 477.724C831.174 478.182 831.79 478.841 832.228 479.703C832.672 480.558 832.891 481.582 832.884 482.776V492.5H828.648V483.531C828.655 482.59 828.416 481.857 827.933 481.334C827.455 480.81 826.786 480.548 825.924 480.548C825.347 480.548 824.837 480.671 824.393 480.916C823.955 481.161 823.611 481.519 823.359 481.99C823.113 482.454 822.987 483.014 822.981 483.67ZM840.573 492.788C839.598 492.788 838.73 492.619 837.968 492.281C837.205 491.937 836.602 491.429 836.158 490.76C835.721 490.084 835.502 489.242 835.502 488.234C835.502 487.386 835.658 486.673 835.969 486.097C836.281 485.52 836.705 485.056 837.242 484.705C837.779 484.353 838.389 484.088 839.071 483.909C839.761 483.73 840.483 483.604 841.239 483.531C842.127 483.438 842.843 483.352 843.387 483.273C843.93 483.187 844.325 483.061 844.57 482.895C844.815 482.729 844.938 482.484 844.938 482.159V482.099C844.938 481.47 844.739 480.982 844.341 480.638C843.95 480.293 843.393 480.121 842.671 480.121C841.908 480.121 841.302 480.29 840.851 480.628C840.4 480.959 840.102 481.377 839.956 481.881L836.039 481.562C836.238 480.634 836.629 479.832 837.212 479.156C837.795 478.473 838.548 477.95 839.469 477.585C840.397 477.214 841.471 477.028 842.691 477.028C843.539 477.028 844.351 477.128 845.127 477.327C845.909 477.526 846.602 477.834 847.205 478.251C847.815 478.669 848.295 479.206 848.647 479.862C848.998 480.512 849.174 481.291 849.174 482.199V492.5H845.157V490.382H845.037C844.792 490.859 844.464 491.28 844.053 491.645C843.642 492.003 843.148 492.285 842.571 492.49C841.995 492.689 841.328 492.788 840.573 492.788ZM841.786 489.865C842.409 489.865 842.959 489.742 843.436 489.497C843.914 489.245 844.288 488.907 844.56 488.483C844.832 488.059 844.968 487.578 844.968 487.041V485.42C844.835 485.507 844.653 485.586 844.421 485.659C844.195 485.725 843.94 485.788 843.655 485.848C843.37 485.901 843.085 485.951 842.8 485.997C842.515 486.037 842.257 486.073 842.025 486.107C841.527 486.179 841.093 486.295 840.722 486.455C840.351 486.614 840.062 486.829 839.857 487.101C839.651 487.366 839.549 487.697 839.549 488.095C839.549 488.672 839.757 489.113 840.175 489.418C840.599 489.716 841.136 489.865 841.786 489.865ZM860.583 477.227V480.409H851.386V477.227H860.583ZM853.474 473.568H857.71V487.807C857.71 488.198 857.77 488.503 857.889 488.722C858.008 488.934 858.174 489.083 858.386 489.169C858.605 489.255 858.857 489.298 859.142 489.298C859.341 489.298 859.539 489.282 859.738 489.249C859.937 489.209 860.09 489.179 860.196 489.159L860.862 492.311C860.65 492.377 860.351 492.454 859.967 492.54C859.583 492.633 859.115 492.689 858.565 492.709C857.544 492.749 856.649 492.613 855.88 492.301C855.118 491.99 854.525 491.506 854.1 490.849C853.676 490.193 853.467 489.365 853.474 488.364V473.568ZM874.178 492.788C873.204 492.788 872.335 492.619 871.573 492.281C870.811 491.937 870.208 491.429 869.763 490.76C869.326 490.084 869.107 489.242 869.107 488.234C869.107 487.386 869.263 486.673 869.575 486.097C869.886 485.52 870.31 485.056 870.847 484.705C871.384 484.353 871.994 484.088 872.677 483.909C873.366 483.73 874.089 483.604 874.844 483.531C875.733 483.438 876.449 483.352 876.992 483.273C877.536 483.187 877.93 483.061 878.175 482.895C878.421 482.729 878.543 482.484 878.543 482.159V482.099C878.543 481.47 878.344 480.982 877.947 480.638C877.556 480.293 876.999 480.121 876.276 480.121C875.514 480.121 874.907 480.29 874.457 480.628C874.006 480.959 873.708 481.377 873.562 481.881L869.644 481.562C869.843 480.634 870.234 479.832 870.817 479.156C871.401 478.473 872.153 477.95 873.075 477.585C874.003 477.214 875.076 477.028 876.296 477.028C877.145 477.028 877.957 477.128 878.732 477.327C879.514 477.526 880.207 477.834 880.81 478.251C881.42 478.669 881.901 479.206 882.252 479.862C882.603 480.512 882.779 481.291 882.779 482.199V492.5H878.762V490.382H878.643C878.397 490.859 878.069 491.28 877.658 491.645C877.247 492.003 876.754 492.285 876.177 492.49C875.6 492.689 874.934 492.788 874.178 492.788ZM875.391 489.865C876.014 489.865 876.565 489.742 877.042 489.497C877.519 489.245 877.894 488.907 878.165 488.483C878.437 488.059 878.573 487.578 878.573 487.041V485.42C878.441 485.507 878.258 485.586 878.026 485.659C877.801 485.725 877.546 485.788 877.261 485.848C876.976 485.901 876.691 485.951 876.406 485.997C876.121 486.037 875.862 486.073 875.63 486.107C875.133 486.179 874.699 486.295 874.327 486.455C873.956 486.614 873.668 486.829 873.462 487.101C873.257 487.366 873.154 487.697 873.154 488.095C873.154 488.672 873.363 489.113 873.781 489.418C874.205 489.716 874.742 489.865 875.391 489.865ZM886.065 492.5V477.227H890.172V479.892H890.331C890.609 478.944 891.077 478.228 891.733 477.744C892.389 477.254 893.145 477.009 894 477.009C894.212 477.009 894.441 477.022 894.686 477.048C894.931 477.075 895.147 477.111 895.332 477.158V480.916C895.134 480.857 894.858 480.804 894.507 480.757C894.156 480.711 893.834 480.688 893.543 480.688C892.92 480.688 892.363 480.823 891.872 481.095C891.388 481.36 891.004 481.732 890.719 482.209C890.44 482.686 890.301 483.236 890.301 483.859V492.5H886.065ZM903.772 492.798C902.201 492.798 900.848 492.48 899.715 491.844C898.588 491.201 897.72 490.293 897.11 489.119C896.5 487.939 896.195 486.544 896.195 484.933C896.195 483.362 896.5 481.983 897.11 480.797C897.72 479.61 898.578 478.686 899.685 478.023C900.799 477.36 902.105 477.028 903.603 477.028C904.61 477.028 905.548 477.191 906.417 477.516C907.292 477.834 908.054 478.314 908.703 478.957C909.36 479.6 909.87 480.409 910.235 481.384C910.599 482.351 910.782 483.485 910.782 484.784V485.947H897.885V483.322H906.794C906.794 482.713 906.662 482.172 906.397 481.702C906.132 481.231 905.764 480.863 905.293 480.598C904.829 480.326 904.289 480.19 903.672 480.19C903.029 480.19 902.459 480.339 901.962 480.638C901.471 480.929 901.087 481.324 900.809 481.821C900.53 482.312 900.388 482.858 900.381 483.462V485.957C900.381 486.713 900.52 487.366 900.799 487.916C901.084 488.466 901.485 488.891 902.002 489.189C902.519 489.487 903.132 489.636 903.841 489.636C904.312 489.636 904.743 489.57 905.134 489.438C905.525 489.305 905.86 489.106 906.138 488.841C906.417 488.576 906.629 488.251 906.775 487.866L910.692 488.125C910.493 489.066 910.086 489.888 909.469 490.591C908.859 491.287 908.07 491.83 907.103 492.222C906.141 492.606 905.031 492.798 903.772 492.798ZM917.901 492.788C916.926 492.788 916.058 492.619 915.296 492.281C914.533 491.937 913.93 491.429 913.486 490.76C913.049 490.084 912.83 489.242 912.83 488.234C912.83 487.386 912.986 486.673 913.297 486.097C913.609 485.52 914.033 485.056 914.57 484.705C915.107 484.353 915.717 484.088 916.4 483.909C917.089 483.73 917.811 483.604 918.567 483.531C919.455 483.438 920.171 483.352 920.715 483.273C921.258 483.187 921.653 483.061 921.898 482.895C922.143 482.729 922.266 482.484 922.266 482.159V482.099C922.266 481.47 922.067 480.982 921.669 480.638C921.278 480.293 920.721 480.121 919.999 480.121C919.237 480.121 918.63 480.29 918.179 480.628C917.729 480.959 917.43 481.377 917.284 481.881L913.367 481.562C913.566 480.634 913.957 479.832 914.54 479.156C915.123 478.473 915.876 477.95 916.797 477.585C917.725 477.214 918.799 477.028 920.019 477.028C920.867 477.028 921.679 477.128 922.455 477.327C923.237 477.526 923.93 477.834 924.533 478.251C925.143 478.669 925.623 479.206 925.975 479.862C926.326 480.512 926.502 481.291 926.502 482.199V492.5H922.485V490.382H922.365C922.12 490.859 921.792 491.28 921.381 491.645C920.97 492.003 920.476 492.285 919.9 492.49C919.323 492.689 918.657 492.788 917.901 492.788ZM919.114 489.865C919.737 489.865 920.287 489.742 920.765 489.497C921.242 489.245 921.616 488.907 921.888 488.483C922.16 488.059 922.296 487.578 922.296 487.041V485.42C922.163 485.507 921.981 485.586 921.749 485.659C921.524 485.725 921.268 485.788 920.983 485.848C920.698 485.901 920.413 485.951 920.128 485.997C919.843 486.037 919.585 486.073 919.353 486.107C918.855 486.179 918.421 486.295 918.05 486.455C917.679 486.614 917.391 486.829 917.185 487.101C916.98 487.366 916.877 487.697 916.877 488.095C916.877 488.672 917.086 489.113 917.503 489.418C917.927 489.716 918.464 489.865 919.114 489.865Z" fill="white"/>
<rect width="1587" height="180" transform="translate(69 900)" fill="#8656C8"/>
<path d="M820.737 986.766H816.382C816.303 986.202 816.14 985.702 815.895 985.264C815.65 984.82 815.335 984.442 814.95 984.131C814.566 983.819 814.122 983.58 813.618 983.415C813.121 983.249 812.58 983.166 811.997 983.166C810.943 983.166 810.025 983.428 809.243 983.952C808.461 984.469 807.854 985.224 807.423 986.219C806.992 987.206 806.777 988.406 806.777 989.818C806.777 991.27 806.992 992.49 807.423 993.477C807.861 994.465 808.471 995.211 809.253 995.714C810.035 996.218 810.94 996.47 811.967 996.47C812.544 996.47 813.078 996.394 813.568 996.241C814.065 996.089 814.506 995.867 814.891 995.575C815.275 995.277 815.593 994.916 815.845 994.491C816.104 994.067 816.283 993.583 816.382 993.04L820.737 993.06C820.625 993.994 820.343 994.896 819.892 995.764C819.448 996.626 818.848 997.398 818.092 998.081C817.343 998.757 816.448 999.294 815.408 999.692C814.374 1000.08 813.204 1000.28 811.898 1000.28C810.081 1000.28 808.457 999.867 807.026 999.045C805.6 998.223 804.473 997.034 803.645 995.476C802.823 993.918 802.412 992.032 802.412 989.818C802.412 987.598 802.83 985.708 803.665 984.151C804.5 982.593 805.634 981.406 807.065 980.591C808.497 979.769 810.108 979.358 811.898 979.358C813.078 979.358 814.171 979.524 815.179 979.855C816.193 980.187 817.091 980.67 817.874 981.307C818.656 981.937 819.292 982.709 819.783 983.624C820.28 984.538 820.598 985.586 820.737 986.766ZM827.981 991.17V1000H823.745V979.636H827.862V987.422H828.04C828.385 986.52 828.942 985.814 829.711 985.304C830.48 984.787 831.444 984.528 832.604 984.528C833.665 984.528 834.59 984.76 835.379 985.224C836.174 985.682 836.79 986.341 837.228 987.203C837.672 988.058 837.891 989.082 837.884 990.276V1000H833.648V991.031C833.655 990.09 833.416 989.357 832.933 988.834C832.455 988.31 831.786 988.048 830.924 988.048C830.347 988.048 829.837 988.171 829.393 988.416C828.955 988.661 828.611 989.019 828.359 989.49C828.113 989.954 827.987 990.514 827.981 991.17ZM845.573 1000.29C844.598 1000.29 843.73 1000.12 842.968 999.781C842.205 999.437 841.602 998.929 841.158 998.26C840.721 997.584 840.502 996.742 840.502 995.734C840.502 994.886 840.658 994.173 840.969 993.597C841.281 993.02 841.705 992.556 842.242 992.205C842.779 991.853 843.389 991.588 844.071 991.409C844.761 991.23 845.483 991.104 846.239 991.031C847.127 990.938 847.843 990.852 848.387 990.773C848.93 990.687 849.325 990.561 849.57 990.395C849.815 990.229 849.938 989.984 849.938 989.659V989.599C849.938 988.97 849.739 988.482 849.341 988.138C848.95 987.793 848.393 987.621 847.671 987.621C846.908 987.621 846.302 987.79 845.851 988.128C845.4 988.459 845.102 988.877 844.956 989.381L841.039 989.062C841.238 988.134 841.629 987.332 842.212 986.656C842.795 985.973 843.548 985.45 844.469 985.085C845.397 984.714 846.471 984.528 847.691 984.528C848.539 984.528 849.351 984.628 850.127 984.827C850.909 985.026 851.602 985.334 852.205 985.751C852.815 986.169 853.295 986.706 853.647 987.362C853.998 988.012 854.174 988.791 854.174 989.699V1000H850.157V997.882H850.037C849.792 998.359 849.464 998.78 849.053 999.145C848.642 999.503 848.148 999.785 847.571 999.99C846.995 1000.19 846.328 1000.29 845.573 1000.29ZM846.786 997.365C847.409 997.365 847.959 997.242 848.436 996.997C848.914 996.745 849.288 996.407 849.56 995.983C849.832 995.559 849.968 995.078 849.968 994.541V992.92C849.835 993.007 849.653 993.086 849.421 993.159C849.195 993.225 848.94 993.288 848.655 993.348C848.37 993.401 848.085 993.451 847.8 993.497C847.515 993.537 847.257 993.573 847.025 993.607C846.527 993.679 846.093 993.795 845.722 993.955C845.351 994.114 845.062 994.329 844.857 994.601C844.651 994.866 844.549 995.197 844.549 995.595C844.549 996.172 844.757 996.613 845.175 996.918C845.599 997.216 846.136 997.365 846.786 997.365ZM865.583 984.727V987.909H856.386V984.727H865.583ZM858.474 981.068H862.71V995.307C862.71 995.698 862.77 996.003 862.889 996.222C863.008 996.434 863.174 996.583 863.386 996.669C863.605 996.755 863.857 996.798 864.142 996.798C864.341 996.798 864.539 996.782 864.738 996.749C864.937 996.709 865.09 996.679 865.196 996.659L865.862 999.811C865.65 999.877 865.351 999.954 864.967 1000.04C864.583 1000.13 864.115 1000.19 863.565 1000.21C862.544 1000.25 861.649 1000.11 860.88 999.801C860.118 999.49 859.525 999.006 859.1 998.349C858.676 997.693 858.467 996.865 858.474 995.864V981.068ZM874.903 1000V979.636H879.138V987.293H879.268C879.453 986.882 879.722 986.464 880.073 986.04C880.431 985.609 880.895 985.251 881.465 984.966C882.042 984.674 882.758 984.528 883.613 984.528C884.727 984.528 885.754 984.82 886.695 985.403C887.637 985.98 888.389 986.852 888.952 988.018C889.516 989.179 889.798 990.634 889.798 992.384C889.798 994.087 889.522 995.526 888.972 996.699C888.429 997.866 887.686 998.75 886.745 999.354C885.81 999.95 884.763 1000.25 883.603 1000.25C882.781 1000.25 882.082 1000.11 881.505 999.841C880.935 999.569 880.468 999.228 880.103 998.817C879.738 998.399 879.46 997.978 879.268 997.554H879.079V1000H874.903ZM879.049 992.364C879.049 993.272 879.175 994.064 879.427 994.74C879.679 995.416 880.043 995.943 880.521 996.321C880.998 996.692 881.578 996.878 882.261 996.878C882.95 996.878 883.533 996.689 884.011 996.311C884.488 995.927 884.849 995.396 885.094 994.72C885.346 994.037 885.472 993.252 885.472 992.364C885.472 991.482 885.35 990.706 885.104 990.037C884.859 989.367 884.498 988.844 884.021 988.466C883.543 988.088 882.957 987.899 882.261 987.899C881.571 987.899 880.988 988.081 880.511 988.446C880.04 988.811 879.679 989.328 879.427 989.997C879.175 990.667 879.049 991.455 879.049 992.364ZM899.525 1000.3C897.98 1000.3 896.644 999.97 895.517 999.314C894.397 998.651 893.532 997.73 892.922 996.55C892.312 995.363 892.007 993.988 892.007 992.423C892.007 990.846 892.312 989.467 892.922 988.287C893.532 987.1 894.397 986.179 895.517 985.523C896.644 984.86 897.98 984.528 899.525 984.528C901.069 984.528 902.401 984.86 903.522 985.523C904.649 986.179 905.517 987.1 906.127 988.287C906.737 989.467 907.042 990.846 907.042 992.423C907.042 993.988 906.737 995.363 906.127 996.55C905.517 997.73 904.649 998.651 903.522 999.314C902.401 999.97 901.069 1000.3 899.525 1000.3ZM899.544 997.017C900.247 997.017 900.834 996.818 901.304 996.42C901.775 996.016 902.13 995.466 902.368 994.77C902.614 994.074 902.736 993.282 902.736 992.393C902.736 991.505 902.614 990.713 902.368 990.017C902.13 989.321 901.775 988.771 901.304 988.366C900.834 987.962 900.247 987.76 899.544 987.76C898.835 987.76 898.239 987.962 897.755 988.366C897.277 988.771 896.916 989.321 896.671 990.017C896.432 990.713 896.313 991.505 896.313 992.393C896.313 993.282 896.432 994.074 896.671 994.77C896.916 995.466 897.277 996.016 897.755 996.42C898.239 996.818 898.835 997.017 899.544 997.017ZM912.789 984.727L915.593 990.067L918.466 984.727H922.811L918.387 992.364L922.931 1000H918.605L915.593 994.72L912.63 1000H908.255L912.789 992.364L908.414 984.727H912.789Z" fill="white"/>
<rect width="260" height="1080" transform="translate(1660)" fill="#9B30B9"/>
<path d="M1733.77 550V529.636H1741.8C1743.35 529.636 1744.66 529.931 1745.75 530.521C1746.84 531.105 1747.67 531.917 1748.24 532.957C1748.81 533.991 1749.1 535.185 1749.1 536.537C1749.1 537.889 1748.81 539.082 1748.23 540.116C1747.64 541.151 1746.8 541.956 1745.69 542.533C1744.59 543.109 1743.26 543.398 1741.69 543.398H1736.57V539.947H1741C1741.83 539.947 1742.51 539.805 1743.05 539.52C1743.59 539.228 1743.99 538.827 1744.26 538.317C1744.53 537.8 1744.67 537.206 1744.67 536.537C1744.67 535.861 1744.53 535.271 1744.26 534.767C1743.99 534.257 1743.59 533.862 1743.05 533.584C1742.5 533.299 1741.81 533.156 1740.98 533.156H1738.08V550H1733.77ZM1751.82 550V534.727H1755.93V537.392H1756.08C1756.36 536.444 1756.83 535.728 1757.49 535.244C1758.14 534.754 1758.9 534.509 1759.75 534.509C1759.97 534.509 1760.19 534.522 1760.44 534.548C1760.69 534.575 1760.9 534.611 1761.09 534.658V538.416C1760.89 538.357 1760.61 538.304 1760.26 538.257C1759.91 538.211 1759.59 538.188 1759.3 538.188C1758.67 538.188 1758.12 538.323 1757.63 538.595C1757.14 538.86 1756.76 539.232 1756.47 539.709C1756.19 540.186 1756.06 540.736 1756.06 541.359V550H1751.82ZM1769.47 550.298C1767.92 550.298 1766.59 549.97 1765.46 549.314C1764.34 548.651 1763.47 547.73 1762.86 546.55C1762.25 545.363 1761.95 543.988 1761.95 542.423C1761.95 540.846 1762.25 539.467 1762.86 538.287C1763.47 537.1 1764.34 536.179 1765.46 535.523C1766.59 534.86 1767.92 534.528 1769.47 534.528C1771.01 534.528 1772.34 534.86 1773.46 535.523C1774.59 536.179 1775.46 537.1 1776.07 538.287C1776.68 539.467 1776.98 540.846 1776.98 542.423C1776.98 543.988 1776.68 545.363 1776.07 546.55C1775.46 547.73 1774.59 548.651 1773.46 549.314C1772.34 549.97 1771.01 550.298 1769.47 550.298ZM1769.49 547.017C1770.19 547.017 1770.78 546.818 1771.25 546.42C1771.72 546.016 1772.07 545.466 1772.31 544.77C1772.55 544.074 1772.68 543.282 1772.68 542.393C1772.68 541.505 1772.55 540.713 1772.31 540.017C1772.07 539.321 1771.72 538.771 1771.25 538.366C1770.78 537.962 1770.19 537.76 1769.49 537.76C1768.78 537.76 1768.18 537.962 1767.7 538.366C1767.22 538.771 1766.86 539.321 1766.61 540.017C1766.37 540.713 1766.25 541.505 1766.25 542.393C1766.25 543.282 1766.37 544.074 1766.61 544.77C1766.86 545.466 1767.22 546.016 1767.7 546.42C1768.18 546.818 1768.78 547.017 1769.49 547.017ZM1779.74 550V534.727H1783.77V537.422H1783.95C1784.27 536.527 1784.8 535.821 1785.54 535.304C1786.29 534.787 1787.17 534.528 1788.21 534.528C1789.26 534.528 1790.15 534.79 1790.88 535.314C1791.62 535.831 1792.11 536.534 1792.36 537.422H1792.51C1792.83 536.547 1793.39 535.848 1794.2 535.324C1795.03 534.794 1796 534.528 1797.12 534.528C1798.54 534.528 1799.7 534.982 1800.59 535.891C1801.48 536.792 1801.93 538.071 1801.93 539.729V550H1797.7V540.564C1797.7 539.715 1797.48 539.079 1797.03 538.655C1796.58 538.231 1796.01 538.018 1795.34 538.018C1794.57 538.018 1793.97 538.264 1793.54 538.754C1793.11 539.238 1792.89 539.878 1792.89 540.673V550H1788.79V540.474C1788.79 539.725 1788.57 539.129 1788.14 538.685C1787.71 538.241 1787.15 538.018 1786.46 538.018C1785.99 538.018 1785.56 538.138 1785.19 538.376C1784.81 538.608 1784.52 538.937 1784.3 539.361C1784.08 539.778 1783.97 540.269 1783.97 540.832V550H1779.74ZM1805.28 555.727V534.727H1809.45V537.293H1809.64C1809.83 536.882 1810.1 536.464 1810.45 536.04C1810.8 535.609 1811.27 535.251 1811.84 534.966C1812.42 534.674 1813.13 534.528 1813.99 534.528C1815.1 534.528 1816.13 534.82 1817.07 535.403C1818.01 535.98 1818.76 536.852 1819.33 538.018C1819.89 539.179 1820.17 540.634 1820.17 542.384C1820.17 544.087 1819.9 545.526 1819.35 546.699C1818.8 547.866 1818.06 548.75 1817.12 549.354C1816.18 549.95 1815.14 550.249 1813.98 550.249C1813.15 550.249 1812.46 550.113 1811.88 549.841C1811.31 549.569 1810.84 549.228 1810.48 548.817C1810.11 548.399 1809.83 547.978 1809.64 547.554H1809.51V555.727H1805.28ZM1809.42 542.364C1809.42 543.272 1809.55 544.064 1809.8 544.74C1810.05 545.416 1810.42 545.943 1810.89 546.321C1811.37 546.692 1811.95 546.878 1812.63 546.878C1813.32 546.878 1813.91 546.689 1814.38 546.311C1814.86 545.927 1815.22 545.396 1815.47 544.72C1815.72 544.037 1815.85 543.252 1815.85 542.364C1815.85 541.482 1815.72 540.706 1815.48 540.037C1815.23 539.367 1814.87 538.844 1814.39 538.466C1813.92 538.088 1813.33 537.899 1812.63 537.899C1811.94 537.899 1811.36 538.081 1810.88 538.446C1810.41 538.811 1810.05 539.328 1809.8 539.997C1809.55 540.667 1809.42 541.455 1809.42 542.364ZM1831.12 534.727V537.909H1821.92V534.727H1831.12ZM1824.01 531.068H1828.25V545.307C1828.25 545.698 1828.3 546.003 1828.42 546.222C1828.54 546.434 1828.71 546.583 1828.92 546.669C1829.14 546.755 1829.39 546.798 1829.68 546.798C1829.88 546.798 1830.07 546.782 1830.27 546.749C1830.47 546.709 1830.62 546.679 1830.73 546.659L1831.4 549.811C1831.18 549.877 1830.89 549.954 1830.5 550.04C1830.12 550.133 1829.65 550.189 1829.1 550.209C1828.08 550.249 1827.18 550.113 1826.42 549.801C1825.65 549.49 1825.06 549.006 1824.64 548.349C1824.21 547.693 1824 546.865 1824.01 545.864V531.068ZM1846.39 539.082L1842.52 539.321C1842.45 538.99 1842.31 538.691 1842.09 538.426C1841.87 538.154 1841.58 537.939 1841.22 537.78C1840.87 537.614 1840.45 537.531 1839.96 537.531C1839.3 537.531 1838.75 537.67 1838.3 537.949C1837.85 538.221 1837.62 538.585 1837.62 539.043C1837.62 539.407 1837.77 539.715 1838.06 539.967C1838.35 540.219 1838.85 540.421 1839.56 540.574L1842.33 541.131C1843.81 541.436 1844.92 541.926 1845.65 542.602C1846.38 543.278 1846.74 544.167 1846.74 545.267C1846.74 546.268 1846.45 547.146 1845.86 547.902C1845.27 548.658 1844.47 549.248 1843.45 549.672C1842.44 550.089 1841.27 550.298 1839.94 550.298C1837.92 550.298 1836.31 549.877 1835.11 549.036C1833.92 548.187 1833.22 547.034 1833.01 545.575L1837.18 545.357C1837.3 545.973 1837.61 546.444 1838.09 546.768C1838.58 547.087 1839.19 547.246 1839.95 547.246C1840.69 547.246 1841.29 547.103 1841.74 546.818C1842.2 546.527 1842.43 546.152 1842.44 545.695C1842.43 545.31 1842.27 544.995 1841.95 544.75C1841.63 544.498 1841.14 544.306 1840.48 544.173L1837.83 543.646C1836.34 543.348 1835.23 542.831 1834.5 542.095C1833.78 541.359 1833.42 540.421 1833.42 539.281C1833.42 538.3 1833.68 537.455 1834.21 536.746C1834.75 536.036 1835.5 535.49 1836.47 535.105C1837.44 534.721 1838.59 534.528 1839.89 534.528C1841.82 534.528 1843.34 534.936 1844.44 535.751C1845.56 536.567 1846.21 537.677 1846.39 539.082Z" fill="white"/>
</g>
<defs>
<clipPath id="clip0_23186_122720">
<rect width="1920" height="1080" fill="white"/>
</clipPath>
</defs>
</svg>
