<svg width="1342" height="709" viewBox="0 0 1342 709" fill="none" xmlns="http://www.w3.org/2000/svg">
<rect y="4" width="1342" height="39" fill="#3F99DA"/>
<path d="M636.6 30V15.4545H639.675V21.456H645.918V15.4545H648.987V30H645.918V23.9915H639.675V30H636.6ZM656.437 30.2131C655.315 30.2131 654.349 29.9858 653.539 29.5312C652.734 29.072 652.114 28.4233 651.678 27.5852C651.243 26.7424 651.025 25.7457 651.025 24.5952C651.025 23.473 651.243 22.4882 651.678 21.6406C652.114 20.7931 652.727 20.1326 653.518 19.6591C654.313 19.1856 655.246 18.9489 656.316 18.9489C657.036 18.9489 657.706 19.0649 658.326 19.2969C658.951 19.5241 659.496 19.8674 659.96 20.3267C660.428 20.786 660.793 21.3636 661.053 22.0597C661.314 22.7509 661.444 23.5606 661.444 24.4886V25.3196H652.232V23.4446H658.596C658.596 23.009 658.501 22.6231 658.312 22.2869C658.122 21.9508 657.86 21.688 657.523 21.4986C657.192 21.3045 656.806 21.2074 656.366 21.2074C655.906 21.2074 655.499 21.3139 655.144 21.527C654.794 21.7353 654.519 22.017 654.32 22.3722C654.121 22.7225 654.02 23.1132 654.015 23.544V25.3267C654.015 25.8665 654.114 26.3329 654.313 26.7259C654.517 27.1188 654.803 27.4219 655.173 27.6349C655.542 27.848 655.98 27.9545 656.487 27.9545C656.823 27.9545 657.13 27.9072 657.41 27.8125C657.689 27.7178 657.928 27.5758 658.127 27.3864C658.326 27.197 658.478 26.965 658.582 26.6903L661.38 26.875C661.238 27.5473 660.947 28.1345 660.506 28.6364C660.071 29.1335 659.507 29.5218 658.816 29.8011C658.129 30.0758 657.336 30.2131 656.437 30.2131ZM666.529 30.206C665.833 30.206 665.213 30.0852 664.668 29.8438C664.124 29.5975 663.693 29.2353 663.376 28.7571C663.063 28.2741 662.907 27.6728 662.907 26.9531C662.907 26.3471 663.018 25.8381 663.241 25.4261C663.463 25.0142 663.766 24.6828 664.15 24.4318C664.533 24.1809 664.969 23.9915 665.457 23.8636C665.949 23.7358 666.465 23.6458 667.005 23.5938C667.639 23.5275 668.151 23.4659 668.539 23.4091C668.927 23.3475 669.209 23.2576 669.384 23.1392C669.559 23.0208 669.647 22.8456 669.647 22.6136V22.571C669.647 22.1212 669.505 21.7732 669.221 21.527C668.942 21.2808 668.544 21.1577 668.028 21.1577C667.483 21.1577 667.05 21.2784 666.728 21.5199C666.406 21.7566 666.193 22.0549 666.089 22.4148L663.29 22.1875C663.433 21.5246 663.712 20.9517 664.129 20.4688C664.545 19.9811 665.083 19.607 665.741 19.3466C666.404 19.0814 667.171 18.9489 668.042 18.9489C668.648 18.9489 669.228 19.0199 669.782 19.1619C670.341 19.304 670.835 19.5241 671.266 19.8224C671.702 20.1207 672.045 20.5043 672.296 20.973C672.547 21.437 672.673 21.9934 672.673 22.642V30H669.803V28.4872H669.718C669.543 28.8281 669.308 29.1288 669.015 29.3892C668.721 29.6449 668.369 29.8461 667.957 29.9929C667.545 30.1349 667.069 30.206 666.529 30.206ZM667.396 28.1179C667.841 28.1179 668.234 28.0303 668.575 27.8551C668.915 27.6752 669.183 27.4337 669.377 27.1307C669.571 26.8277 669.668 26.4844 669.668 26.1009V24.9432C669.574 25.0047 669.443 25.0616 669.278 25.1136C669.117 25.161 668.934 25.206 668.731 25.2486C668.527 25.2865 668.324 25.322 668.12 25.3551C667.916 25.3835 667.732 25.4096 667.566 25.4332C667.211 25.4853 666.901 25.5682 666.636 25.6818C666.371 25.7955 666.165 25.9493 666.018 26.1435C665.871 26.3329 665.798 26.5696 665.798 26.8537C665.798 27.2656 665.947 27.5805 666.245 27.7983C666.548 28.0114 666.932 28.1179 667.396 28.1179ZM679.04 30.1776C678.211 30.1776 677.461 29.9645 676.788 29.5384C676.121 29.1075 675.59 28.4754 675.197 27.642C674.809 26.804 674.615 25.7765 674.615 24.5597C674.615 23.3097 674.816 22.2704 675.219 21.4418C675.621 20.6084 676.156 19.9858 676.824 19.5739C677.496 19.1572 678.232 18.9489 679.033 18.9489C679.643 18.9489 680.152 19.053 680.56 19.2614C680.972 19.465 681.303 19.7206 681.554 20.0284C681.81 20.3314 682.004 20.6297 682.136 20.9233H682.229V15.4545H685.247V30H682.264V28.2528H682.136C681.994 28.5559 681.793 28.8565 681.533 29.1548C681.277 29.4484 680.943 29.6922 680.531 29.8864C680.124 30.0805 679.627 30.1776 679.04 30.1776ZM679.999 27.7699C680.486 27.7699 680.898 27.6373 681.234 27.3722C681.575 27.1023 681.836 26.7259 682.016 26.2429C682.2 25.7599 682.293 25.1941 682.293 24.5455C682.293 23.8968 682.203 23.3333 682.023 22.8551C681.843 22.3769 681.582 22.0076 681.241 21.7472C680.901 21.4867 680.486 21.3565 679.999 21.3565C679.501 21.3565 679.082 21.4915 678.741 21.7614C678.401 22.0312 678.143 22.4053 677.967 22.8835C677.792 23.3617 677.705 23.9157 677.705 24.5455C677.705 25.1799 677.792 25.741 677.967 26.2287C678.147 26.7116 678.405 27.0904 678.741 27.3651C679.082 27.6349 679.501 27.7699 679.999 27.7699ZM692.706 30.2131C691.584 30.2131 690.618 29.9858 689.809 29.5312C689.004 29.072 688.383 28.4233 687.948 27.5852C687.512 26.7424 687.294 25.7457 687.294 24.5952C687.294 23.473 687.512 22.4882 687.948 21.6406C688.383 20.7931 688.997 20.1326 689.787 19.6591C690.583 19.1856 691.516 18.9489 692.586 18.9489C693.305 18.9489 693.975 19.0649 694.596 19.2969C695.221 19.5241 695.765 19.8674 696.229 20.3267C696.698 20.786 697.062 21.3636 697.323 22.0597C697.583 22.7509 697.713 23.5606 697.713 24.4886V25.3196H688.502V23.4446H694.865C694.865 23.009 694.771 22.6231 694.581 22.2869C694.392 21.9508 694.129 21.688 693.793 21.4986C693.462 21.3045 693.076 21.2074 692.635 21.2074C692.176 21.2074 691.769 21.3139 691.414 21.527C691.063 21.7353 690.789 22.017 690.59 22.3722C690.391 22.7225 690.289 23.1132 690.284 23.544V25.3267C690.284 25.8665 690.384 26.3329 690.583 26.7259C690.786 27.1188 691.073 27.4219 691.442 27.6349C691.811 27.848 692.249 27.9545 692.756 27.9545C693.092 27.9545 693.4 27.9072 693.679 27.8125C693.959 27.7178 694.198 27.5758 694.397 27.3864C694.596 27.197 694.747 26.965 694.851 26.6903L697.65 26.875C697.507 27.5473 697.216 28.1345 696.776 28.6364C696.34 29.1335 695.777 29.5218 695.086 29.8011C694.399 30.0758 693.606 30.2131 692.706 30.2131ZM699.688 30V19.0909H702.621V20.9943H702.735C702.934 20.3172 703.267 19.8059 703.736 19.4602C704.205 19.1098 704.745 18.9347 705.355 18.9347C705.507 18.9347 705.67 18.9441 705.846 18.9631C706.021 18.982 706.175 19.008 706.307 19.0412V21.7259C706.165 21.6832 705.969 21.6454 705.718 21.6122C705.467 21.5791 705.237 21.5625 705.029 21.5625C704.584 21.5625 704.186 21.6596 703.836 21.8537C703.49 22.0431 703.215 22.3082 703.012 22.6491C702.813 22.9901 702.713 23.383 702.713 23.8281V30H699.688Z" fill="white"/>
<rect y="53" width="183" height="656" fill="#3F6ADA"/>
<path d="M32.1722 373.547H29.0614C29.0046 373.144 28.8886 372.787 28.7134 372.474C28.5382 372.157 28.3133 371.887 28.0387 371.665C27.7641 371.442 27.4469 371.272 27.087 371.153C26.7319 371.035 26.346 370.976 25.9293 370.976C25.1765 370.976 24.5207 371.163 23.962 371.537C23.4033 371.906 22.9701 372.446 22.6623 373.156C22.3545 373.862 22.2006 374.719 22.2006 375.727C22.2006 376.764 22.3545 377.635 22.6623 378.341C22.9748 379.046 23.4104 379.579 23.9691 379.939C24.5278 380.299 25.1741 380.479 25.908 380.479C26.32 380.479 26.7011 380.424 27.0515 380.315C27.4066 380.206 27.7215 380.048 27.9961 379.839C28.2707 379.626 28.498 379.368 28.6779 379.065C28.8626 378.762 28.9904 378.417 29.0614 378.028L32.1722 378.043C32.0917 378.71 31.8905 379.354 31.5685 379.974C31.2513 380.59 30.8228 381.142 30.283 381.629C29.748 382.112 29.1088 382.496 28.3654 382.78C27.6268 383.059 26.7911 383.199 25.8583 383.199C24.561 383.199 23.4009 382.905 22.3782 382.318C21.3602 381.731 20.5553 380.881 19.9634 379.768C19.3763 378.656 19.0827 377.309 19.0827 375.727C19.0827 374.141 19.381 372.792 19.9776 371.679C20.5742 370.566 21.3839 369.719 22.4066 369.136C23.4293 368.549 24.5799 368.256 25.8583 368.256C26.7011 368.256 27.4824 368.374 28.2021 368.611C28.9265 368.848 29.5681 369.193 30.1268 369.648C30.6855 370.098 31.14 370.649 31.4904 371.303C31.8455 371.956 32.0728 372.704 32.1722 373.547ZM39.2496 383.213C38.1464 383.213 37.1924 382.979 36.3874 382.51C35.5872 382.036 34.9693 381.378 34.5337 380.536C34.0981 379.688 33.8803 378.705 33.8803 377.588C33.8803 376.461 34.0981 375.476 34.5337 374.634C34.9693 373.786 35.5872 373.128 36.3874 372.659C37.1924 372.186 38.1464 371.949 39.2496 371.949C40.3529 371.949 41.3046 372.186 42.1048 372.659C42.9097 373.128 43.5299 373.786 43.9656 374.634C44.4012 375.476 44.619 376.461 44.619 377.588C44.619 378.705 44.4012 379.688 43.9656 380.536C43.5299 381.378 42.9097 382.036 42.1048 382.51C41.3046 382.979 40.3529 383.213 39.2496 383.213ZM39.2638 380.869C39.7657 380.869 40.1848 380.727 40.521 380.443C40.8571 380.154 41.1104 379.761 41.2809 379.264C41.4561 378.767 41.5437 378.201 41.5437 377.567C41.5437 376.932 41.4561 376.366 41.2809 375.869C41.1104 375.372 40.8571 374.979 40.521 374.69C40.1848 374.402 39.7657 374.257 39.2638 374.257C38.7572 374.257 38.3311 374.402 37.9854 374.69C37.6445 374.979 37.3865 375.372 37.2113 375.869C37.0408 376.366 36.9556 376.932 36.9556 377.567C36.9556 378.201 37.0408 378.767 37.2113 379.264C37.3865 379.761 37.6445 380.154 37.9854 380.443C38.3311 380.727 38.7572 380.869 39.2638 380.869ZM49.6119 376.693V383H46.5863V372.091H49.4698V374.016H49.5977C49.8391 373.381 50.244 372.879 50.8121 372.51C51.3803 372.136 52.0692 371.949 52.8789 371.949C53.6365 371.949 54.297 372.115 54.8604 372.446C55.4239 372.777 55.8619 373.251 56.1744 373.866C56.4869 374.477 56.6431 375.206 56.6431 376.054V383H53.6175V376.594C53.6223 375.926 53.4518 375.405 53.1062 375.031C52.7605 374.652 52.2847 374.463 51.6786 374.463C51.2714 374.463 50.9116 374.551 50.5991 374.726C50.2913 374.901 50.0498 375.157 49.8746 375.493C49.7042 375.824 49.6166 376.224 49.6119 376.693ZM68.8075 372.091L64.9936 383H61.5845L57.7706 372.091H60.9666L63.2322 379.896H63.3459L65.6044 372.091H68.8075ZM74.9759 383.213C73.8537 383.213 72.8878 382.986 72.0781 382.531C71.2732 382.072 70.6529 381.423 70.2173 380.585C69.7817 379.742 69.5639 378.746 69.5639 377.595C69.5639 376.473 69.7817 375.488 70.2173 374.641C70.6529 373.793 71.2661 373.133 72.0568 372.659C72.8523 372.186 73.785 371.949 74.8551 371.949C75.5748 371.949 76.2448 372.065 76.8651 372.297C77.4901 372.524 78.0346 372.867 78.4986 373.327C78.9673 373.786 79.3319 374.364 79.5923 375.06C79.8527 375.751 79.983 376.561 79.983 377.489V378.32H70.7713V376.445H77.1349C77.1349 376.009 77.0402 375.623 76.8509 375.287C76.6615 374.951 76.3987 374.688 76.0625 374.499C75.7311 374.304 75.3452 374.207 74.9048 374.207C74.4455 374.207 74.0384 374.314 73.6832 374.527C73.3329 374.735 73.0582 375.017 72.8594 375.372C72.6605 375.723 72.5587 376.113 72.554 376.544V378.327C72.554 378.866 72.6534 379.333 72.8523 379.726C73.0559 380.119 73.3423 380.422 73.7116 380.635C74.081 380.848 74.5189 380.955 75.0256 380.955C75.3617 380.955 75.6695 380.907 75.9489 380.812C76.2282 380.718 76.4673 380.576 76.6662 380.386C76.8651 380.197 77.0166 379.965 77.1207 379.69L79.919 379.875C79.777 380.547 79.4858 381.134 79.0455 381.636C78.6098 382.134 78.0464 382.522 77.3551 382.801C76.6686 383.076 75.8755 383.213 74.9759 383.213ZM81.9574 383V372.091H84.8906V373.994H85.0043C85.2031 373.317 85.5369 372.806 86.0057 372.46C86.4744 372.11 87.0142 371.935 87.625 371.935C87.7765 371.935 87.9399 371.944 88.1151 371.963C88.2902 371.982 88.4441 372.008 88.5767 372.041V374.726C88.4347 374.683 88.2382 374.645 87.9872 374.612C87.7363 374.579 87.5066 374.562 87.2983 374.562C86.8532 374.562 86.4555 374.66 86.1051 374.854C85.7595 375.043 85.4848 375.308 85.2812 375.649C85.0824 375.99 84.983 376.383 84.983 376.828V383H81.9574ZM99.2177 375.202L96.4478 375.372C96.4004 375.135 96.2987 374.922 96.1424 374.733C95.9862 374.539 95.7802 374.385 95.5245 374.271C95.2736 374.153 94.9729 374.094 94.6225 374.094C94.1538 374.094 93.7584 374.193 93.4364 374.392C93.1145 374.586 92.9535 374.847 92.9535 375.173C92.9535 375.434 93.0576 375.654 93.266 375.834C93.4743 376.014 93.8318 376.158 94.3384 376.267L96.3129 376.665C97.3735 376.883 98.1642 377.233 98.685 377.716C99.2058 378.199 99.4663 378.833 99.4663 379.619C99.4663 380.334 99.2556 380.962 98.8342 381.501C98.4175 382.041 97.8446 382.463 97.1154 382.766C96.391 383.064 95.5553 383.213 94.6083 383.213C93.1642 383.213 92.0136 382.912 91.1566 382.311C90.3043 381.705 89.8048 380.881 89.658 379.839L92.6339 379.683C92.7238 380.124 92.9416 380.46 93.2873 380.692C93.6329 380.919 94.0756 381.033 94.6154 381.033C95.1457 381.033 95.5719 380.931 95.8938 380.727C96.2205 380.519 96.3862 380.251 96.391 379.925C96.3862 379.65 96.2702 379.425 96.043 379.25C95.8157 379.07 95.4653 378.933 94.9918 378.838L93.1026 378.462C92.0373 378.249 91.2442 377.879 90.7234 377.354C90.2073 376.828 89.9492 376.158 89.9492 375.344C89.9492 374.643 90.1386 374.039 90.5174 373.533C90.9009 373.026 91.4383 372.635 92.1296 372.361C92.8256 372.086 93.64 371.949 94.5728 371.949C95.9506 371.949 97.0349 372.24 97.8256 372.822C98.6211 373.405 99.0851 374.198 99.2177 375.202ZM104.482 383.206C103.786 383.206 103.166 383.085 102.621 382.844C102.077 382.598 101.646 382.235 101.329 381.757C101.016 381.274 100.86 380.673 100.86 379.953C100.86 379.347 100.971 378.838 101.194 378.426C101.416 378.014 101.719 377.683 102.103 377.432C102.487 377.181 102.922 376.991 103.41 376.864C103.902 376.736 104.418 376.646 104.958 376.594C105.593 376.527 106.104 376.466 106.492 376.409C106.88 376.348 107.162 376.258 107.337 376.139C107.513 376.021 107.6 375.846 107.6 375.614V375.571C107.6 375.121 107.458 374.773 107.174 374.527C106.895 374.281 106.497 374.158 105.981 374.158C105.436 374.158 105.003 374.278 104.681 374.52C104.359 374.757 104.146 375.055 104.042 375.415L101.244 375.188C101.386 374.525 101.665 373.952 102.082 373.469C102.498 372.981 103.036 372.607 103.694 372.347C104.357 372.081 105.124 371.949 105.995 371.949C106.601 371.949 107.181 372.02 107.735 372.162C108.294 372.304 108.789 372.524 109.219 372.822C109.655 373.121 109.998 373.504 110.249 373.973C110.5 374.437 110.626 374.993 110.626 375.642V383H107.756V381.487H107.671C107.496 381.828 107.262 382.129 106.968 382.389C106.674 382.645 106.322 382.846 105.91 382.993C105.498 383.135 105.022 383.206 104.482 383.206ZM105.349 381.118C105.794 381.118 106.187 381.03 106.528 380.855C106.869 380.675 107.136 380.434 107.33 380.131C107.524 379.828 107.621 379.484 107.621 379.101V377.943C107.527 378.005 107.397 378.062 107.231 378.114C107.07 378.161 106.888 378.206 106.684 378.249C106.48 378.286 106.277 378.322 106.073 378.355C105.87 378.384 105.685 378.41 105.519 378.433C105.164 378.485 104.854 378.568 104.589 378.682C104.324 378.795 104.118 378.949 103.971 379.143C103.824 379.333 103.751 379.57 103.751 379.854C103.751 380.266 103.9 380.58 104.198 380.798C104.501 381.011 104.885 381.118 105.349 381.118ZM118.776 372.091V374.364H112.206V372.091H118.776ZM113.697 369.477H116.723V379.648C116.723 379.927 116.766 380.145 116.851 380.301C116.936 380.453 117.054 380.559 117.206 380.621C117.362 380.682 117.542 380.713 117.746 380.713C117.888 380.713 118.03 380.701 118.172 380.678C118.314 380.649 118.423 380.628 118.499 380.614L118.974 382.865C118.823 382.912 118.61 382.967 118.335 383.028C118.061 383.095 117.727 383.135 117.334 383.149C116.605 383.178 115.965 383.08 115.416 382.858C114.872 382.635 114.448 382.29 114.145 381.821C113.842 381.352 113.693 380.76 113.697 380.045V369.477ZM120.746 383V372.091H123.772V383H120.746ZM122.266 370.685C121.817 370.685 121.431 370.536 121.109 370.237C120.791 369.934 120.633 369.572 120.633 369.151C120.633 368.734 120.791 368.376 121.109 368.078C121.431 367.775 121.817 367.624 122.266 367.624C122.716 367.624 123.1 367.775 123.417 368.078C123.739 368.376 123.9 368.734 123.9 369.151C123.9 369.572 123.739 369.934 123.417 370.237C123.1 370.536 122.716 370.685 122.266 370.685ZM131.125 383.213C130.021 383.213 129.067 382.979 128.262 382.51C127.462 382.036 126.844 381.378 126.409 380.536C125.973 379.688 125.755 378.705 125.755 377.588C125.755 376.461 125.973 375.476 126.409 374.634C126.844 373.786 127.462 373.128 128.262 372.659C129.067 372.186 130.021 371.949 131.125 371.949C132.228 371.949 133.18 372.186 133.98 372.659C134.785 373.128 135.405 373.786 135.841 374.634C136.276 375.476 136.494 376.461 136.494 377.588C136.494 378.705 136.276 379.688 135.841 380.536C135.405 381.378 134.785 382.036 133.98 382.51C133.18 382.979 132.228 383.213 131.125 383.213ZM131.139 380.869C131.641 380.869 132.06 380.727 132.396 380.443C132.732 380.154 132.985 379.761 133.156 379.264C133.331 378.767 133.419 378.201 133.419 377.567C133.419 376.932 133.331 376.366 133.156 375.869C132.985 375.372 132.732 374.979 132.396 374.69C132.06 374.402 131.641 374.257 131.139 374.257C130.632 374.257 130.206 374.402 129.86 374.69C129.52 374.979 129.261 375.372 129.086 375.869C128.916 376.366 128.831 376.932 128.831 377.567C128.831 378.201 128.916 378.767 129.086 379.264C129.261 379.761 129.52 380.154 129.86 380.443C130.206 380.727 130.632 380.869 131.139 380.869ZM141.487 376.693V383H138.461V372.091H141.345V374.016H141.473C141.714 373.381 142.119 372.879 142.687 372.51C143.255 372.136 143.944 371.949 144.754 371.949C145.511 371.949 146.172 372.115 146.735 372.446C147.299 372.777 147.737 373.251 148.049 373.866C148.362 374.477 148.518 375.206 148.518 376.054V383H145.493V376.594C145.497 375.926 145.327 375.405 144.981 375.031C144.636 374.652 144.16 374.463 143.554 374.463C143.146 374.463 142.787 374.551 142.474 374.726C142.166 374.901 141.925 375.157 141.75 375.493C141.579 375.824 141.492 376.224 141.487 376.693ZM159.979 375.202L157.21 375.372C157.162 375.135 157.06 374.922 156.904 374.733C156.748 374.539 156.542 374.385 156.286 374.271C156.035 374.153 155.735 374.094 155.384 374.094C154.915 374.094 154.52 374.193 154.198 374.392C153.876 374.586 153.715 374.847 153.715 375.173C153.715 375.434 153.819 375.654 154.028 375.834C154.236 376.014 154.594 376.158 155.1 376.267L157.075 376.665C158.135 376.883 158.926 377.233 159.447 377.716C159.968 378.199 160.228 378.833 160.228 379.619C160.228 380.334 160.017 380.962 159.596 381.501C159.179 382.041 158.606 382.463 157.877 382.766C157.153 383.064 156.317 383.213 155.37 383.213C153.926 383.213 152.775 382.912 151.918 382.311C151.066 381.705 150.567 380.881 150.42 379.839L153.396 379.683C153.486 380.124 153.703 380.46 154.049 380.692C154.395 380.919 154.837 381.033 155.377 381.033C155.907 381.033 156.334 380.931 156.656 380.727C156.982 380.519 157.148 380.251 157.153 379.925C157.148 379.65 157.032 379.425 156.805 379.25C156.577 379.07 156.227 378.933 155.754 378.838L153.864 378.462C152.799 378.249 152.006 377.879 151.485 377.354C150.969 376.828 150.711 376.158 150.711 375.344C150.711 374.643 150.9 374.039 151.279 373.533C151.663 373.026 152.2 372.635 152.891 372.361C153.587 372.086 154.402 371.949 155.335 371.949C156.712 371.949 157.797 372.24 158.587 372.822C159.383 373.405 159.847 374.198 159.979 375.202Z" fill="white"/>
<rect x="1159" y="53" width="183" height="656" fill="#7D58E9"/>
<path d="M1210.44 383V368.455H1216.17C1217.28 368.455 1218.22 368.665 1218.99 369.087C1219.77 369.503 1220.36 370.083 1220.77 370.827C1221.18 371.565 1221.39 372.418 1221.39 373.384C1221.39 374.349 1221.18 375.202 1220.76 375.94C1220.35 376.679 1219.74 377.254 1218.95 377.666C1218.17 378.078 1217.21 378.284 1216.1 378.284H1212.44V375.82H1215.6C1216.19 375.82 1216.68 375.718 1217.06 375.514C1217.45 375.306 1217.74 375.019 1217.93 374.655C1218.12 374.286 1218.22 373.862 1218.22 373.384C1218.22 372.901 1218.12 372.479 1217.93 372.119C1217.74 371.755 1217.45 371.473 1217.06 371.274C1216.67 371.071 1216.18 370.969 1215.59 370.969H1213.51V383H1210.44ZM1223.33 383V372.091H1226.26V373.994H1226.38C1226.57 373.317 1226.91 372.806 1227.38 372.46C1227.85 372.11 1228.39 371.935 1229 371.935C1229.15 371.935 1229.31 371.944 1229.49 371.963C1229.66 371.982 1229.82 372.008 1229.95 372.041V374.726C1229.81 374.683 1229.61 374.645 1229.36 374.612C1229.11 374.579 1228.88 374.562 1228.67 374.562C1228.22 374.562 1227.83 374.66 1227.48 374.854C1227.13 375.043 1226.86 375.308 1226.65 375.649C1226.45 375.99 1226.35 376.383 1226.35 376.828V383H1223.33ZM1235.93 383.213C1234.83 383.213 1233.88 382.979 1233.07 382.51C1232.27 382.036 1231.65 381.378 1231.22 380.536C1230.78 379.688 1230.56 378.705 1230.56 377.588C1230.56 376.461 1230.78 375.476 1231.22 374.634C1231.65 373.786 1232.27 373.128 1233.07 372.659C1233.88 372.186 1234.83 371.949 1235.93 371.949C1237.04 371.949 1237.99 372.186 1238.79 372.659C1239.59 373.128 1240.21 373.786 1240.65 374.634C1241.08 375.476 1241.3 376.461 1241.3 377.588C1241.3 378.705 1241.08 379.688 1240.65 380.536C1240.21 381.378 1239.59 382.036 1238.79 382.51C1237.99 382.979 1237.04 383.213 1235.93 383.213ZM1235.95 380.869C1236.45 380.869 1236.87 380.727 1237.2 380.443C1237.54 380.154 1237.79 379.761 1237.96 379.264C1238.14 378.767 1238.23 378.201 1238.23 377.567C1238.23 376.932 1238.14 376.366 1237.96 375.869C1237.79 375.372 1237.54 374.979 1237.2 374.69C1236.87 374.402 1236.45 374.257 1235.95 374.257C1235.44 374.257 1235.01 374.402 1234.67 374.69C1234.33 374.979 1234.07 375.372 1233.89 375.869C1233.72 376.366 1233.64 376.932 1233.64 377.567C1233.64 378.201 1233.72 378.767 1233.89 379.264C1234.07 379.761 1234.33 380.154 1234.67 380.443C1235.01 380.727 1235.44 380.869 1235.95 380.869ZM1243.27 383V372.091H1246.15V374.016H1246.28C1246.51 373.376 1246.89 372.872 1247.42 372.503C1247.95 372.134 1248.58 371.949 1249.32 371.949C1250.07 371.949 1250.71 372.136 1251.23 372.51C1251.76 372.879 1252.11 373.381 1252.28 374.016H1252.4C1252.62 373.391 1253.02 372.891 1253.6 372.517C1254.19 372.138 1254.88 371.949 1255.68 371.949C1256.7 371.949 1257.53 372.273 1258.16 372.922C1258.8 373.566 1259.12 374.48 1259.12 375.663V383H1256.1V376.26C1256.1 375.654 1255.94 375.199 1255.62 374.896C1255.3 374.593 1254.9 374.442 1254.41 374.442C1253.86 374.442 1253.44 374.617 1253.13 374.967C1252.82 375.313 1252.67 375.77 1252.67 376.338V383H1249.73V376.196C1249.73 375.661 1249.58 375.235 1249.27 374.918C1248.97 374.6 1248.57 374.442 1248.07 374.442C1247.73 374.442 1247.43 374.527 1247.16 374.697C1246.9 374.863 1246.69 375.098 1246.53 375.401C1246.37 375.699 1246.3 376.049 1246.3 376.452V383H1243.27ZM1261.51 387.091V372.091H1264.5V373.923H1264.63C1264.76 373.63 1264.95 373.331 1265.21 373.028C1265.46 372.721 1265.79 372.465 1266.2 372.261C1266.61 372.053 1267.12 371.949 1267.73 371.949C1268.53 371.949 1269.26 372.157 1269.94 372.574C1270.61 372.986 1271.15 373.608 1271.55 374.442C1271.95 375.27 1272.15 376.31 1272.15 377.56C1272.15 378.777 1271.95 379.804 1271.56 380.642C1271.17 381.475 1270.64 382.107 1269.97 382.538C1269.3 382.964 1268.56 383.178 1267.73 383.178C1267.14 383.178 1266.64 383.08 1266.23 382.886C1265.82 382.692 1265.49 382.448 1265.23 382.155C1264.97 381.857 1264.77 381.556 1264.63 381.253H1264.54V387.091H1261.51ZM1264.47 377.545C1264.47 378.194 1264.56 378.76 1264.74 379.243C1264.92 379.726 1265.18 380.102 1265.52 380.372C1265.87 380.637 1266.28 380.77 1266.77 380.77C1267.26 380.77 1267.68 380.635 1268.02 380.365C1268.36 380.09 1268.62 379.712 1268.79 379.229C1268.97 378.741 1269.06 378.18 1269.06 377.545C1269.06 376.916 1268.97 376.362 1268.8 375.884C1268.62 375.405 1268.37 375.031 1268.02 374.761C1267.68 374.491 1267.26 374.357 1266.77 374.357C1266.28 374.357 1265.86 374.487 1265.52 374.747C1265.18 375.008 1264.92 375.377 1264.74 375.855C1264.56 376.333 1264.47 376.897 1264.47 377.545ZM1279.97 372.091V374.364H1273.4V372.091H1279.97ZM1274.89 369.477H1277.92V379.648C1277.92 379.927 1277.96 380.145 1278.05 380.301C1278.13 380.453 1278.25 380.559 1278.4 380.621C1278.56 380.682 1278.74 380.713 1278.94 380.713C1279.08 380.713 1279.23 380.701 1279.37 380.678C1279.51 380.649 1279.62 380.628 1279.69 380.614L1280.17 382.865C1280.02 382.912 1279.81 382.967 1279.53 383.028C1279.26 383.095 1278.92 383.135 1278.53 383.149C1277.8 383.178 1277.16 383.08 1276.61 382.858C1276.07 382.635 1275.64 382.29 1275.34 381.821C1275.04 381.352 1274.89 380.76 1274.89 380.045V369.477ZM1290.88 375.202L1288.11 375.372C1288.06 375.135 1287.96 374.922 1287.81 374.733C1287.65 374.539 1287.44 374.385 1287.19 374.271C1286.94 374.153 1286.64 374.094 1286.29 374.094C1285.82 374.094 1285.42 374.193 1285.1 374.392C1284.78 374.586 1284.62 374.847 1284.62 375.173C1284.62 375.434 1284.72 375.654 1284.93 375.834C1285.14 376.014 1285.5 376.158 1286 376.267L1287.98 376.665C1289.04 376.883 1289.83 377.233 1290.35 377.716C1290.87 378.199 1291.13 378.833 1291.13 379.619C1291.13 380.334 1290.92 380.962 1290.5 381.501C1290.08 382.041 1289.51 382.463 1288.78 382.766C1288.06 383.064 1287.22 383.213 1286.27 383.213C1284.83 383.213 1283.68 382.912 1282.82 382.311C1281.97 381.705 1281.47 380.881 1281.32 379.839L1284.3 379.683C1284.39 380.124 1284.61 380.46 1284.95 380.692C1285.3 380.919 1285.74 381.033 1286.28 381.033C1286.81 381.033 1287.24 380.931 1287.56 380.727C1287.88 380.519 1288.05 380.251 1288.06 379.925C1288.05 379.65 1287.93 379.425 1287.71 379.25C1287.48 379.07 1287.13 378.933 1286.66 378.838L1284.77 378.462C1283.7 378.249 1282.91 377.879 1282.39 377.354C1281.87 376.828 1281.61 376.158 1281.61 375.344C1281.61 374.643 1281.8 374.039 1282.18 373.533C1282.56 373.026 1283.1 372.635 1283.79 372.361C1284.49 372.086 1285.3 371.949 1286.24 371.949C1287.61 371.949 1288.7 372.24 1289.49 372.822C1290.29 373.405 1290.75 374.198 1290.88 375.202Z" fill="white"/>
<rect x="193" y="561" width="956" height="148" fill="#6086E9"/>
<path d="M641.299 632.547H638.188C638.132 632.144 638.016 631.787 637.84 631.474C637.665 631.157 637.44 630.887 637.166 630.665C636.891 630.442 636.574 630.272 636.214 630.153C635.859 630.035 635.473 629.976 635.056 629.976C634.303 629.976 633.648 630.163 633.089 630.537C632.53 630.906 632.097 631.446 631.789 632.156C631.481 632.862 631.328 633.719 631.328 634.727C631.328 635.764 631.481 636.635 631.789 637.341C632.102 638.046 632.537 638.579 633.096 638.939C633.655 639.299 634.301 639.479 635.035 639.479C635.447 639.479 635.828 639.424 636.178 639.315C636.534 639.206 636.848 639.048 637.123 638.839C637.398 638.626 637.625 638.368 637.805 638.065C637.99 637.762 638.117 637.417 638.188 637.028L641.299 637.043C641.219 637.71 641.017 638.354 640.695 638.974C640.378 639.59 639.95 640.142 639.41 640.629C638.875 641.112 638.236 641.496 637.492 641.78C636.754 642.059 635.918 642.199 634.985 642.199C633.688 642.199 632.528 641.905 631.505 641.318C630.487 640.731 629.682 639.881 629.09 638.768C628.503 637.656 628.21 636.309 628.21 634.727C628.21 633.141 628.508 631.792 629.105 630.679C629.701 629.566 630.511 628.719 631.534 628.136C632.556 627.549 633.707 627.256 634.985 627.256C635.828 627.256 636.609 627.374 637.329 627.611C638.053 627.848 638.695 628.193 639.254 628.648C639.812 629.098 640.267 629.649 640.617 630.303C640.972 630.956 641.2 631.704 641.299 632.547ZM646.473 635.693V642H643.448V627.455H646.388V633.016H646.516C646.762 632.372 647.16 631.867 647.709 631.503C648.258 631.134 648.947 630.949 649.776 630.949C650.533 630.949 651.194 631.115 651.757 631.446C652.325 631.773 652.766 632.244 653.078 632.859C653.396 633.47 653.552 634.202 653.547 635.054V642H650.521V635.594C650.526 634.921 650.356 634.398 650.01 634.024C649.669 633.65 649.191 633.463 648.575 633.463C648.164 633.463 647.799 633.551 647.482 633.726C647.169 633.901 646.923 634.157 646.743 634.493C646.568 634.824 646.478 635.224 646.473 635.693ZM659.039 642.206C658.343 642.206 657.723 642.085 657.178 641.844C656.634 641.598 656.203 641.235 655.885 640.757C655.573 640.274 655.417 639.673 655.417 638.953C655.417 638.347 655.528 637.838 655.751 637.426C655.973 637.014 656.276 636.683 656.66 636.432C657.043 636.181 657.479 635.991 657.966 635.864C658.459 635.736 658.975 635.646 659.515 635.594C660.149 635.527 660.661 635.466 661.049 635.409C661.437 635.348 661.719 635.258 661.894 635.139C662.069 635.021 662.157 634.846 662.157 634.614V634.571C662.157 634.121 662.015 633.773 661.731 633.527C661.451 633.281 661.054 633.158 660.537 633.158C659.993 633.158 659.56 633.278 659.238 633.52C658.916 633.757 658.703 634.055 658.599 634.415L655.8 634.188C655.942 633.525 656.222 632.952 656.638 632.469C657.055 631.981 657.592 631.607 658.251 631.347C658.913 631.081 659.68 630.949 660.552 630.949C661.158 630.949 661.738 631.02 662.292 631.162C662.85 631.304 663.345 631.524 663.776 631.822C664.212 632.121 664.555 632.504 664.806 632.973C665.057 633.437 665.182 633.993 665.182 634.642V642H662.313V640.487H662.228C662.053 640.828 661.818 641.129 661.525 641.389C661.231 641.645 660.878 641.846 660.466 641.993C660.055 642.135 659.579 642.206 659.039 642.206ZM659.905 640.118C660.35 640.118 660.743 640.03 661.084 639.855C661.425 639.675 661.693 639.434 661.887 639.131C662.081 638.828 662.178 638.484 662.178 638.101V636.943C662.083 637.005 661.953 637.062 661.787 637.114C661.626 637.161 661.444 637.206 661.241 637.249C661.037 637.286 660.833 637.322 660.63 637.355C660.426 637.384 660.242 637.41 660.076 637.433C659.721 637.485 659.411 637.568 659.145 637.682C658.88 637.795 658.674 637.949 658.528 638.143C658.381 638.333 658.307 638.57 658.307 638.854C658.307 639.266 658.456 639.58 658.755 639.798C659.058 640.011 659.441 640.118 659.905 640.118ZM673.332 631.091V633.364H666.763V631.091H673.332ZM668.254 628.477H671.28V638.648C671.28 638.927 671.322 639.145 671.407 639.301C671.493 639.453 671.611 639.559 671.763 639.621C671.919 639.682 672.099 639.713 672.302 639.713C672.444 639.713 672.586 639.701 672.729 639.678C672.871 639.649 672.979 639.628 673.055 639.614L673.531 641.865C673.38 641.912 673.166 641.967 672.892 642.028C672.617 642.095 672.283 642.135 671.89 642.149C671.161 642.178 670.522 642.08 669.973 641.858C669.428 641.635 669.005 641.29 668.702 640.821C668.398 640.352 668.249 639.76 668.254 639.045V628.477ZM679.989 642V627.455H683.014V632.923H683.107C683.239 632.63 683.431 632.331 683.682 632.028C683.938 631.721 684.269 631.465 684.676 631.261C685.088 631.053 685.6 630.949 686.21 630.949C687.006 630.949 687.74 631.157 688.412 631.574C689.084 631.986 689.622 632.608 690.024 633.442C690.427 634.27 690.628 635.31 690.628 636.56C690.628 637.777 690.432 638.804 690.039 639.642C689.65 640.475 689.12 641.107 688.448 641.538C687.78 641.964 687.032 642.178 686.203 642.178C685.616 642.178 685.117 642.08 684.705 641.886C684.298 641.692 683.964 641.448 683.703 641.155C683.443 640.857 683.244 640.556 683.107 640.253H682.972V642H679.989ZM682.95 636.545C682.95 637.194 683.04 637.76 683.22 638.243C683.4 638.726 683.661 639.102 684.002 639.372C684.343 639.637 684.757 639.77 685.244 639.77C685.737 639.77 686.154 639.635 686.494 639.365C686.835 639.09 687.093 638.712 687.269 638.229C687.449 637.741 687.539 637.18 687.539 636.545C687.539 635.916 687.451 635.362 687.276 634.884C687.101 634.405 686.843 634.031 686.502 633.761C686.161 633.491 685.742 633.357 685.244 633.357C684.752 633.357 684.335 633.487 683.994 633.747C683.658 634.008 683.4 634.377 683.22 634.855C683.04 635.333 682.95 635.897 682.95 636.545ZM697.576 642.213C696.473 642.213 695.519 641.979 694.714 641.51C693.913 641.036 693.296 640.378 692.86 639.536C692.424 638.688 692.206 637.705 692.206 636.588C692.206 635.461 692.424 634.476 692.86 633.634C693.296 632.786 693.913 632.128 694.714 631.659C695.519 631.186 696.473 630.949 697.576 630.949C698.679 630.949 699.631 631.186 700.431 631.659C701.236 632.128 701.856 632.786 702.292 633.634C702.727 634.476 702.945 635.461 702.945 636.588C702.945 637.705 702.727 638.688 702.292 639.536C701.856 640.378 701.236 641.036 700.431 641.51C699.631 641.979 698.679 642.213 697.576 642.213ZM697.59 639.869C698.092 639.869 698.511 639.727 698.847 639.443C699.183 639.154 699.437 638.761 699.607 638.264C699.782 637.767 699.87 637.201 699.87 636.567C699.87 635.932 699.782 635.366 699.607 634.869C699.437 634.372 699.183 633.979 698.847 633.69C698.511 633.402 698.092 633.257 697.59 633.257C697.083 633.257 696.657 633.402 696.312 633.69C695.971 633.979 695.713 634.372 695.537 634.869C695.367 635.366 695.282 635.932 695.282 636.567C695.282 637.201 695.367 637.767 695.537 638.264C695.713 638.761 695.971 639.154 696.312 639.443C696.657 639.727 697.083 639.869 697.59 639.869ZM707.05 631.091L709.053 634.905L711.106 631.091H714.209L711.049 636.545L714.295 642H711.205L709.053 638.229L706.937 642H703.812L707.05 636.545L703.925 631.091H707.05Z" fill="white"/>
<rect x="193" y="53" width="956" height="498" fill="#30B5BE"/>
<path d="M637.92 299.547H634.809C634.753 299.144 634.637 298.787 634.461 298.474C634.286 298.157 634.061 297.887 633.787 297.665C633.512 297.442 633.195 297.272 632.835 297.153C632.48 297.035 632.094 296.976 631.677 296.976C630.925 296.976 630.269 297.163 629.71 297.537C629.151 297.906 628.718 298.446 628.41 299.156C628.103 299.862 627.949 300.719 627.949 301.727C627.949 302.764 628.103 303.635 628.41 304.341C628.723 305.046 629.158 305.579 629.717 305.939C630.276 306.299 630.922 306.479 631.656 306.479C632.068 306.479 632.449 306.424 632.8 306.315C633.155 306.206 633.47 306.048 633.744 305.839C634.019 305.626 634.246 305.368 634.426 305.065C634.611 304.762 634.738 304.417 634.809 304.028L637.92 304.043C637.84 304.71 637.639 305.354 637.317 305.974C636.999 306.59 636.571 307.142 636.031 307.629C635.496 308.112 634.857 308.496 634.113 308.78C633.375 309.059 632.539 309.199 631.606 309.199C630.309 309.199 629.149 308.905 628.126 308.318C627.108 307.731 626.303 306.881 625.711 305.768C625.124 304.656 624.831 303.309 624.831 301.727C624.831 300.141 625.129 298.792 625.726 297.679C626.322 296.566 627.132 295.719 628.155 295.136C629.177 294.549 630.328 294.256 631.606 294.256C632.449 294.256 633.23 294.374 633.95 294.611C634.675 294.848 635.316 295.193 635.875 295.648C636.434 296.098 636.888 296.649 637.238 297.303C637.594 297.956 637.821 298.704 637.92 299.547ZM643.094 302.693V309H640.069V294.455H643.009V300.016H643.137C643.383 299.372 643.781 298.867 644.33 298.503C644.879 298.134 645.568 297.949 646.397 297.949C647.154 297.949 647.815 298.115 648.378 298.446C648.947 298.773 649.387 299.244 649.699 299.859C650.017 300.47 650.173 301.202 650.168 302.054V309H647.143V302.594C647.147 301.921 646.977 301.398 646.631 301.024C646.29 300.65 645.812 300.463 645.197 300.463C644.785 300.463 644.42 300.551 644.103 300.726C643.79 300.901 643.544 301.157 643.364 301.493C643.189 301.824 643.099 302.224 643.094 302.693ZM655.66 309.206C654.964 309.206 654.344 309.085 653.799 308.844C653.255 308.598 652.824 308.235 652.507 307.757C652.194 307.274 652.038 306.673 652.038 305.953C652.038 305.347 652.149 304.838 652.372 304.426C652.594 304.014 652.897 303.683 653.281 303.432C653.664 303.181 654.1 302.991 654.588 302.864C655.08 302.736 655.596 302.646 656.136 302.594C656.77 302.527 657.282 302.466 657.67 302.409C658.058 302.348 658.34 302.258 658.515 302.139C658.69 302.021 658.778 301.846 658.778 301.614V301.571C658.778 301.121 658.636 300.773 658.352 300.527C658.072 300.281 657.675 300.158 657.159 300.158C656.614 300.158 656.181 300.278 655.859 300.52C655.537 300.757 655.324 301.055 655.22 301.415L652.421 301.188C652.563 300.525 652.843 299.952 653.259 299.469C653.676 298.981 654.213 298.607 654.872 298.347C655.535 298.081 656.302 297.949 657.173 297.949C657.779 297.949 658.359 298.02 658.913 298.162C659.472 298.304 659.966 298.524 660.397 298.822C660.833 299.121 661.176 299.504 661.427 299.973C661.678 300.437 661.803 300.993 661.803 301.642V309H658.934V307.487H658.849C658.674 307.828 658.439 308.129 658.146 308.389C657.852 308.645 657.499 308.846 657.088 308.993C656.676 309.135 656.2 309.206 655.66 309.206ZM656.526 307.118C656.972 307.118 657.365 307.03 657.705 306.855C658.046 306.675 658.314 306.434 658.508 306.131C658.702 305.828 658.799 305.484 658.799 305.101V303.943C658.704 304.005 658.574 304.062 658.409 304.114C658.248 304.161 658.065 304.206 657.862 304.249C657.658 304.286 657.454 304.322 657.251 304.355C657.047 304.384 656.863 304.41 656.697 304.433C656.342 304.485 656.032 304.568 655.767 304.682C655.501 304.795 655.295 304.949 655.149 305.143C655.002 305.333 654.928 305.57 654.928 305.854C654.928 306.266 655.078 306.58 655.376 306.798C655.679 307.011 656.062 307.118 656.526 307.118ZM669.953 298.091V300.364H663.384V298.091H669.953ZM664.875 295.477H667.901V305.648C667.901 305.927 667.943 306.145 668.029 306.301C668.114 306.453 668.232 306.559 668.384 306.621C668.54 306.682 668.72 306.713 668.923 306.713C669.066 306.713 669.208 306.701 669.35 306.678C669.492 306.649 669.601 306.628 669.676 306.614L670.152 308.865C670.001 308.912 669.788 308.967 669.513 309.028C669.238 309.095 668.905 309.135 668.512 309.149C667.782 309.178 667.143 309.08 666.594 308.858C666.049 308.635 665.626 308.29 665.323 307.821C665.02 307.352 664.87 306.76 664.875 306.045V295.477ZM679.664 309.206C678.968 309.206 678.348 309.085 677.803 308.844C677.259 308.598 676.828 308.235 676.51 307.757C676.198 307.274 676.042 306.673 676.042 305.953C676.042 305.347 676.153 304.838 676.376 304.426C676.598 304.014 676.901 303.683 677.285 303.432C677.668 303.181 678.104 302.991 678.591 302.864C679.084 302.736 679.6 302.646 680.14 302.594C680.774 302.527 681.286 302.466 681.674 302.409C682.062 302.348 682.344 302.258 682.519 302.139C682.694 302.021 682.782 301.846 682.782 301.614V301.571C682.782 301.121 682.64 300.773 682.356 300.527C682.076 300.281 681.679 300.158 681.162 300.158C680.618 300.158 680.185 300.278 679.863 300.52C679.541 300.757 679.328 301.055 679.224 301.415L676.425 301.188C676.567 300.525 676.847 299.952 677.263 299.469C677.68 298.981 678.217 298.607 678.876 298.347C679.538 298.081 680.305 297.949 681.177 297.949C681.783 297.949 682.363 298.02 682.917 298.162C683.475 298.304 683.97 298.524 684.401 298.822C684.837 299.121 685.18 299.504 685.431 299.973C685.682 300.437 685.807 300.993 685.807 301.642V309H682.938V307.487H682.853C682.678 307.828 682.443 308.129 682.15 308.389C681.856 308.645 681.503 308.846 681.091 308.993C680.68 309.135 680.204 309.206 679.664 309.206ZM680.53 307.118C680.975 307.118 681.368 307.03 681.709 306.855C682.05 306.675 682.318 306.434 682.512 306.131C682.706 305.828 682.803 305.484 682.803 305.101V303.943C682.708 304.005 682.578 304.062 682.412 304.114C682.251 304.161 682.069 304.206 681.866 304.249C681.662 304.286 681.458 304.322 681.255 304.355C681.051 304.384 680.867 304.41 680.701 304.433C680.346 304.485 680.036 304.568 679.77 304.682C679.505 304.795 679.299 304.949 679.153 305.143C679.006 305.333 678.932 305.57 678.932 305.854C678.932 306.266 679.081 306.58 679.38 306.798C679.683 307.011 680.066 307.118 680.53 307.118ZM688.155 309V298.091H691.088V299.994H691.202C691.4 299.317 691.734 298.806 692.203 298.46C692.672 298.11 693.211 297.935 693.822 297.935C693.974 297.935 694.137 297.944 694.312 297.963C694.488 297.982 694.641 298.008 694.774 298.041V300.726C694.632 300.683 694.435 300.645 694.184 300.612C693.934 300.579 693.704 300.562 693.496 300.562C693.05 300.562 692.653 300.66 692.302 300.854C691.957 301.043 691.682 301.308 691.479 301.649C691.28 301.99 691.18 302.383 691.18 302.828V309H688.155ZM700.802 309.213C699.68 309.213 698.714 308.986 697.904 308.531C697.099 308.072 696.479 307.423 696.044 306.585C695.608 305.742 695.39 304.746 695.39 303.595C695.39 302.473 695.608 301.488 696.044 300.641C696.479 299.793 697.092 299.133 697.883 298.659C698.678 298.186 699.611 297.949 700.681 297.949C701.401 297.949 702.071 298.065 702.691 298.297C703.316 298.524 703.861 298.867 704.325 299.327C704.794 299.786 705.158 300.364 705.419 301.06C705.679 301.751 705.809 302.561 705.809 303.489V304.32H696.597V302.445H702.961C702.961 302.009 702.866 301.623 702.677 301.287C702.488 300.951 702.225 300.688 701.889 300.499C701.557 300.304 701.171 300.207 700.731 300.207C700.272 300.207 699.865 300.314 699.509 300.527C699.159 300.735 698.884 301.017 698.686 301.372C698.487 301.723 698.385 302.113 698.38 302.544V304.327C698.38 304.866 698.48 305.333 698.678 305.726C698.882 306.119 699.169 306.422 699.538 306.635C699.907 306.848 700.345 306.955 700.852 306.955C701.188 306.955 701.496 306.907 701.775 306.812C702.054 306.718 702.294 306.576 702.492 306.386C702.691 306.197 702.843 305.965 702.947 305.69L705.745 305.875C705.603 306.547 705.312 307.134 704.872 307.636C704.436 308.134 703.873 308.522 703.181 308.801C702.495 309.076 701.702 309.213 700.802 309.213ZM710.894 309.206C710.198 309.206 709.578 309.085 709.034 308.844C708.489 308.598 708.058 308.235 707.741 307.757C707.428 307.274 707.272 306.673 707.272 305.953C707.272 305.347 707.383 304.838 707.606 304.426C707.829 304.014 708.132 303.683 708.515 303.432C708.899 303.181 709.334 302.991 709.822 302.864C710.314 302.736 710.83 302.646 711.37 302.594C712.005 302.527 712.516 302.466 712.904 302.409C713.293 302.348 713.574 302.258 713.749 302.139C713.925 302.021 714.012 301.846 714.012 301.614V301.571C714.012 301.121 713.87 300.773 713.586 300.527C713.307 300.281 712.909 300.158 712.393 300.158C711.848 300.158 711.415 300.278 711.093 300.52C710.771 300.757 710.558 301.055 710.454 301.415L707.656 301.188C707.798 300.525 708.077 299.952 708.494 299.469C708.91 298.981 709.448 298.607 710.106 298.347C710.769 298.081 711.536 297.949 712.407 297.949C713.013 297.949 713.593 298.02 714.147 298.162C714.706 298.304 715.201 298.524 715.632 298.822C716.067 299.121 716.41 299.504 716.661 299.973C716.912 300.437 717.038 300.993 717.038 301.642V309H714.169V307.487H714.083C713.908 307.828 713.674 308.129 713.38 308.389C713.087 308.645 712.734 308.846 712.322 308.993C711.91 309.135 711.434 309.206 710.894 309.206ZM711.761 307.118C712.206 307.118 712.599 307.03 712.94 306.855C713.281 306.675 713.548 306.434 713.742 306.131C713.936 305.828 714.034 305.484 714.034 305.101V303.943C713.939 304.005 713.809 304.062 713.643 304.114C713.482 304.161 713.3 304.206 713.096 304.249C712.892 304.286 712.689 304.322 712.485 304.355C712.282 304.384 712.097 304.41 711.931 304.433C711.576 304.485 711.266 304.568 711.001 304.682C710.736 304.795 710.53 304.949 710.383 305.143C710.236 305.333 710.163 305.57 710.163 305.854C710.163 306.266 710.312 306.58 710.61 306.798C710.913 307.011 711.297 307.118 711.761 307.118ZM551.322 359.169C551.322 357.408 551.557 355.786 552.025 354.304C552.499 352.822 553.221 351.449 554.192 350.185H557.082C556.713 350.653 556.37 351.226 556.052 351.903C555.735 352.576 555.458 353.314 555.221 354.119C554.985 354.924 554.8 355.758 554.667 356.619C554.535 357.476 554.469 358.326 554.469 359.169C554.469 360.291 554.582 361.425 554.809 362.571C555.041 363.712 555.354 364.773 555.747 365.753C556.145 366.733 556.59 367.536 557.082 368.161H554.192C553.221 366.896 552.499 365.523 552.025 364.041C551.557 362.559 551.322 360.935 551.322 359.169ZM558.838 365V354.091H561.864V365H558.838ZM560.358 352.685C559.908 352.685 559.522 352.536 559.2 352.237C558.883 351.934 558.725 351.572 558.725 351.151C558.725 350.734 558.883 350.376 559.2 350.078C559.522 349.775 559.908 349.624 560.358 349.624C560.808 349.624 561.191 349.775 561.509 350.078C561.831 350.376 561.992 350.734 561.992 351.151C561.992 351.572 561.831 351.934 561.509 352.237C561.191 352.536 560.808 352.685 560.358 352.685ZM567.313 358.693V365H564.287V354.091H567.171V356.016H567.299C567.54 355.381 567.945 354.879 568.513 354.51C569.081 354.136 569.77 353.949 570.58 353.949C571.338 353.949 571.998 354.115 572.562 354.446C573.125 354.777 573.563 355.251 573.876 355.866C574.188 356.477 574.344 357.206 574.344 358.054V365H571.319V358.594C571.323 357.926 571.153 357.405 570.807 357.031C570.462 356.652 569.986 356.463 569.38 356.463C568.973 356.463 568.613 356.551 568.3 356.726C567.992 356.901 567.751 357.157 567.576 357.493C567.405 357.824 567.318 358.224 567.313 358.693ZM581.658 365.213C580.54 365.213 579.579 364.976 578.774 364.503C577.974 364.025 577.359 363.362 576.928 362.514C576.502 361.667 576.289 360.691 576.289 359.588C576.289 358.471 576.504 357.491 576.935 356.648C577.37 355.8 577.988 355.14 578.789 354.666C579.589 354.188 580.54 353.949 581.644 353.949C582.595 353.949 583.429 354.122 584.144 354.467C584.859 354.813 585.424 355.298 585.841 355.923C586.258 356.548 586.487 357.282 586.53 358.125H583.675C583.594 357.58 583.381 357.143 583.036 356.811C582.695 356.475 582.247 356.307 581.693 356.307C581.225 356.307 580.815 356.435 580.465 356.69C580.119 356.941 579.849 357.308 579.655 357.791C579.461 358.274 579.364 358.859 579.364 359.545C579.364 360.241 579.459 360.833 579.648 361.321C579.842 361.809 580.114 362.18 580.465 362.436C580.815 362.692 581.225 362.82 581.693 362.82C582.039 362.82 582.349 362.749 582.624 362.607C582.903 362.464 583.133 362.259 583.313 361.989C583.497 361.714 583.618 361.385 583.675 361.001H586.53C586.483 361.835 586.255 362.569 585.848 363.203C585.446 363.833 584.889 364.325 584.179 364.68C583.469 365.036 582.628 365.213 581.658 365.213ZM591.493 350.455V365H588.467V350.455H591.493ZM595.685 365.185C595.216 365.185 594.814 365.019 594.477 364.688C594.146 364.351 593.98 363.949 593.98 363.48C593.98 363.016 594.146 362.618 594.477 362.287C594.814 361.955 595.216 361.79 595.685 361.79C596.139 361.79 596.537 361.955 596.878 362.287C597.219 362.618 597.389 363.016 597.389 363.48C597.389 363.793 597.309 364.079 597.148 364.339C596.992 364.595 596.786 364.801 596.53 364.957C596.274 365.109 595.993 365.185 595.685 365.185ZM611.766 354.638C611.709 354.065 611.465 353.62 611.035 353.303C610.604 352.985 610.019 352.827 609.28 352.827C608.778 352.827 608.355 352.898 608.009 353.04C607.663 353.177 607.398 353.369 607.214 353.615C607.034 353.861 606.944 354.141 606.944 354.453C606.934 354.714 606.989 354.941 607.107 355.135C607.23 355.329 607.398 355.497 607.611 355.639C607.824 355.777 608.071 355.897 608.35 356.001C608.629 356.101 608.928 356.186 609.245 356.257L610.552 356.57C611.186 356.712 611.769 356.901 612.299 357.138C612.829 357.375 613.288 357.666 613.677 358.011C614.065 358.357 614.366 358.764 614.579 359.233C614.796 359.702 614.908 360.239 614.912 360.845C614.908 361.735 614.68 362.507 614.231 363.161C613.786 363.809 613.142 364.313 612.299 364.673C611.461 365.028 610.45 365.206 609.266 365.206C608.092 365.206 607.069 365.026 606.198 364.666C605.331 364.306 604.654 363.774 604.167 363.068C603.684 362.358 603.43 361.48 603.407 360.433H606.383C606.416 360.921 606.555 361.328 606.802 361.655C607.053 361.977 607.386 362.221 607.803 362.386C608.224 362.547 608.7 362.628 609.231 362.628C609.751 362.628 610.204 362.552 610.587 362.401C610.975 362.249 611.276 362.038 611.489 361.768C611.702 361.499 611.809 361.188 611.809 360.838C611.809 360.511 611.712 360.237 611.518 360.014C611.328 359.792 611.049 359.602 610.68 359.446C610.315 359.29 609.867 359.148 609.337 359.02L607.753 358.622C606.527 358.324 605.559 357.857 604.849 357.223C604.138 356.589 603.786 355.734 603.79 354.659C603.786 353.778 604.02 353.009 604.493 352.351C604.972 351.693 605.627 351.179 606.461 350.81C607.294 350.44 608.241 350.256 609.302 350.256C610.381 350.256 611.323 350.44 612.128 350.81C612.938 351.179 613.568 351.693 614.018 352.351C614.467 353.009 614.699 353.771 614.714 354.638H611.766ZM622.727 354.091V356.364H616.157V354.091H622.727ZM617.649 351.477H620.674V361.648C620.674 361.927 620.717 362.145 620.802 362.301C620.887 362.453 621.006 362.559 621.157 362.621C621.313 362.682 621.493 362.713 621.697 362.713C621.839 362.713 621.981 362.701 622.123 362.678C622.265 362.649 622.374 362.628 622.45 362.614L622.926 364.865C622.774 364.912 622.561 364.967 622.286 365.028C622.012 365.095 621.678 365.135 621.285 365.149C620.556 365.178 619.917 365.08 619.367 364.858C618.823 364.635 618.399 364.29 618.096 363.821C617.793 363.352 617.644 362.76 617.649 362.045V351.477ZM627.808 365.206C627.112 365.206 626.492 365.085 625.948 364.844C625.403 364.598 624.972 364.235 624.655 363.757C624.343 363.274 624.186 362.673 624.186 361.953C624.186 361.347 624.298 360.838 624.52 360.426C624.743 360.014 625.046 359.683 625.429 359.432C625.813 359.181 626.248 358.991 626.736 358.864C627.228 358.736 627.744 358.646 628.284 358.594C628.919 358.527 629.43 358.466 629.818 358.409C630.207 358.348 630.488 358.258 630.664 358.139C630.839 358.021 630.926 357.846 630.926 357.614V357.571C630.926 357.121 630.784 356.773 630.5 356.527C630.221 356.281 629.823 356.158 629.307 356.158C628.762 356.158 628.329 356.278 628.007 356.52C627.685 356.757 627.472 357.055 627.368 357.415L624.57 357.188C624.712 356.525 624.991 355.952 625.408 355.469C625.825 354.981 626.362 354.607 627.02 354.347C627.683 354.081 628.45 353.949 629.321 353.949C629.927 353.949 630.507 354.02 631.061 354.162C631.62 354.304 632.115 354.524 632.546 354.822C632.981 355.121 633.325 355.504 633.575 355.973C633.826 356.437 633.952 356.993 633.952 357.642V365H631.083V363.487H630.997C630.822 363.828 630.588 364.129 630.294 364.389C630.001 364.645 629.648 364.846 629.236 364.993C628.824 365.135 628.348 365.206 627.808 365.206ZM628.675 363.118C629.12 363.118 629.513 363.03 629.854 362.855C630.195 362.675 630.462 362.434 630.656 362.131C630.851 361.828 630.948 361.484 630.948 361.101V359.943C630.853 360.005 630.723 360.062 630.557 360.114C630.396 360.161 630.214 360.206 630.01 360.249C629.807 360.286 629.603 360.322 629.399 360.355C629.196 360.384 629.011 360.41 628.845 360.433C628.49 360.485 628.18 360.568 627.915 360.682C627.65 360.795 627.444 360.949 627.297 361.143C627.15 361.333 627.077 361.57 627.077 361.854C627.077 362.266 627.226 362.58 627.524 362.798C627.827 363.011 628.211 363.118 628.675 363.118ZM636.299 365V354.091H639.232V355.994H639.346C639.545 355.317 639.879 354.806 640.347 354.46C640.816 354.11 641.356 353.935 641.967 353.935C642.118 353.935 642.282 353.944 642.457 353.963C642.632 353.982 642.786 354.008 642.919 354.041V356.726C642.776 356.683 642.58 356.645 642.329 356.612C642.078 356.579 641.848 356.562 641.64 356.562C641.195 356.562 640.797 356.66 640.447 356.854C640.101 357.043 639.827 357.308 639.623 357.649C639.424 357.99 639.325 358.383 639.325 358.828V365H636.299ZM650.832 354.091V356.364H644.263V354.091H650.832ZM645.754 351.477H648.78V361.648C648.78 361.927 648.822 362.145 648.907 362.301C648.993 362.453 649.111 362.559 649.263 362.621C649.419 362.682 649.599 362.713 649.802 362.713C649.944 362.713 650.086 362.701 650.229 362.678C650.371 362.649 650.479 362.628 650.555 362.614L651.031 364.865C650.88 364.912 650.666 364.967 650.392 365.028C650.117 365.095 649.783 365.135 649.39 365.149C648.661 365.178 648.022 365.08 647.473 364.858C646.928 364.635 646.505 364.29 646.202 363.821C645.898 363.352 645.749 362.76 645.754 362.045V351.477ZM670.323 355.547H667.212C667.155 355.144 667.039 354.787 666.864 354.474C666.689 354.157 666.464 353.887 666.189 353.665C665.914 353.442 665.597 353.272 665.237 353.153C664.882 353.035 664.496 352.976 664.08 352.976C663.327 352.976 662.671 353.163 662.112 353.537C661.554 353.906 661.12 354.446 660.813 355.156C660.505 355.862 660.351 356.719 660.351 357.727C660.351 358.764 660.505 359.635 660.813 360.341C661.125 361.046 661.561 361.579 662.119 361.939C662.678 362.299 663.325 362.479 664.058 362.479C664.47 362.479 664.852 362.424 665.202 362.315C665.557 362.206 665.872 362.048 666.146 361.839C666.421 361.626 666.648 361.368 666.828 361.065C667.013 360.762 667.141 360.417 667.212 360.028L670.323 360.043C670.242 360.71 670.041 361.354 669.719 361.974C669.402 362.59 668.973 363.142 668.433 363.629C667.898 364.112 667.259 364.496 666.516 364.78C665.777 365.059 664.941 365.199 664.009 365.199C662.711 365.199 661.551 364.905 660.529 364.318C659.511 363.731 658.706 362.881 658.114 361.768C657.527 360.656 657.233 359.309 657.233 357.727C657.233 356.141 657.531 354.792 658.128 353.679C658.725 352.566 659.534 351.719 660.557 351.136C661.58 350.549 662.73 350.256 664.009 350.256C664.852 350.256 665.633 350.374 666.352 350.611C667.077 350.848 667.718 351.193 668.277 351.648C668.836 352.098 669.29 352.649 669.641 353.303C669.996 353.956 670.223 354.704 670.323 355.547ZM675.497 358.693V365H672.471V350.455H675.411V356.016H675.539C675.785 355.372 676.183 354.867 676.732 354.503C677.282 354.134 677.971 353.949 678.799 353.949C679.557 353.949 680.217 354.115 680.781 354.446C681.349 354.773 681.789 355.244 682.102 355.859C682.419 356.47 682.575 357.202 682.57 358.054V365H679.545V358.594C679.55 357.921 679.379 357.398 679.034 357.024C678.693 356.65 678.214 356.463 677.599 356.463C677.187 356.463 676.822 356.551 676.505 356.726C676.193 356.901 675.946 357.157 675.767 357.493C675.591 357.824 675.501 358.224 675.497 358.693ZM688.062 365.206C687.366 365.206 686.746 365.085 686.202 364.844C685.657 364.598 685.226 364.235 684.909 363.757C684.596 363.274 684.44 362.673 684.44 361.953C684.44 361.347 684.551 360.838 684.774 360.426C684.997 360.014 685.3 359.683 685.683 359.432C686.067 359.181 686.502 358.991 686.99 358.864C687.482 358.736 687.998 358.646 688.538 358.594C689.173 358.527 689.684 358.466 690.072 358.409C690.461 358.348 690.742 358.258 690.917 358.139C691.093 358.021 691.18 357.846 691.18 357.614V357.571C691.18 357.121 691.038 356.773 690.754 356.527C690.475 356.281 690.077 356.158 689.561 356.158C689.016 356.158 688.583 356.278 688.261 356.52C687.939 356.757 687.726 357.055 687.622 357.415L684.824 357.188C684.966 356.525 685.245 355.952 685.662 355.469C686.078 354.981 686.616 354.607 687.274 354.347C687.937 354.081 688.704 353.949 689.575 353.949C690.181 353.949 690.761 354.02 691.315 354.162C691.874 354.304 692.369 354.524 692.8 354.822C693.235 355.121 693.578 355.504 693.829 355.973C694.08 356.437 694.206 356.993 694.206 357.642V365H691.336V363.487H691.251C691.076 363.828 690.842 364.129 690.548 364.389C690.255 364.645 689.902 364.846 689.49 364.993C689.078 365.135 688.602 365.206 688.062 365.206ZM688.929 363.118C689.374 363.118 689.767 363.03 690.108 362.855C690.449 362.675 690.716 362.434 690.91 362.131C691.104 361.828 691.202 361.484 691.202 361.101V359.943C691.107 360.005 690.977 360.062 690.811 360.114C690.65 360.161 690.468 360.206 690.264 360.249C690.06 360.286 689.857 360.322 689.653 360.355C689.45 360.384 689.265 360.41 689.099 360.433C688.744 360.485 688.434 360.568 688.169 360.682C687.904 360.795 687.698 360.949 687.551 361.143C687.404 361.333 687.331 361.57 687.331 361.854C687.331 362.266 687.48 362.58 687.778 362.798C688.081 363.011 688.465 363.118 688.929 363.118ZM702.356 354.091V356.364H695.786V354.091H702.356ZM697.278 351.477H700.303V361.648C700.303 361.927 700.346 362.145 700.431 362.301C700.516 362.453 700.635 362.559 700.786 362.621C700.942 362.682 701.122 362.713 701.326 362.713C701.468 362.713 701.61 362.701 701.752 362.678C701.894 362.649 702.003 362.628 702.079 362.614L702.555 364.865C702.403 364.912 702.19 364.967 701.915 365.028C701.641 365.095 701.307 365.135 700.914 365.149C700.185 365.178 699.546 365.08 698.996 364.858C698.452 364.635 698.028 364.29 697.725 363.821C697.422 363.352 697.273 362.76 697.278 362.045V351.477ZM711.107 365L708.139 354.091H711.2L712.89 361.42H712.99L714.751 354.091H717.755L719.545 361.378H719.637L721.299 354.091H724.353L721.392 365H718.188L716.313 358.139H716.178L714.303 365H711.107ZM725.967 365V354.091H728.993V365H725.967ZM727.487 352.685C727.037 352.685 726.651 352.536 726.329 352.237C726.012 351.934 725.854 351.572 725.854 351.151C725.854 350.734 726.012 350.376 726.329 350.078C726.651 349.775 727.037 349.624 727.487 349.624C727.937 349.624 728.32 349.775 728.638 350.078C728.96 350.376 729.121 350.734 729.121 351.151C729.121 351.572 728.96 351.934 728.638 352.237C728.32 352.536 727.937 352.685 727.487 352.685ZM734.442 358.693V365H731.416V354.091H734.3V356.016H734.428C734.669 355.381 735.074 354.879 735.642 354.51C736.21 354.136 736.899 353.949 737.709 353.949C738.467 353.949 739.127 354.115 739.691 354.446C740.254 354.777 740.692 355.251 741.004 355.866C741.317 356.477 741.473 357.206 741.473 358.054V365H738.448V358.594C738.452 357.926 738.282 357.405 737.936 357.031C737.591 356.652 737.115 356.463 736.509 356.463C736.102 356.463 735.742 356.551 735.429 356.726C735.121 356.901 734.88 357.157 734.705 357.493C734.534 357.824 734.447 358.224 734.442 358.693ZM747.878 365.178C747.049 365.178 746.299 364.964 745.626 364.538C744.959 364.107 744.428 363.475 744.035 362.642C743.647 361.804 743.453 360.777 743.453 359.56C743.453 358.31 743.654 357.27 744.057 356.442C744.459 355.608 744.994 354.986 745.662 354.574C746.334 354.157 747.07 353.949 747.871 353.949C748.481 353.949 748.99 354.053 749.398 354.261C749.809 354.465 750.141 354.721 750.392 355.028C750.648 355.331 750.842 355.63 750.974 355.923H751.067V350.455H754.085V365H751.102V363.253H750.974C750.832 363.556 750.631 363.857 750.371 364.155C750.115 364.448 749.781 364.692 749.369 364.886C748.962 365.08 748.465 365.178 747.878 365.178ZM748.836 362.77C749.324 362.77 749.736 362.637 750.072 362.372C750.413 362.102 750.674 361.726 750.854 361.243C751.038 360.76 751.131 360.194 751.131 359.545C751.131 358.897 751.041 358.333 750.861 357.855C750.681 357.377 750.42 357.008 750.079 356.747C749.738 356.487 749.324 356.357 748.836 356.357C748.339 356.357 747.92 356.491 747.579 356.761C747.238 357.031 746.98 357.405 746.805 357.884C746.63 358.362 746.542 358.916 746.542 359.545C746.542 360.18 746.63 360.741 746.805 361.229C746.985 361.712 747.243 362.09 747.579 362.365C747.92 362.635 748.339 362.77 748.836 362.77ZM761.502 365.213C760.398 365.213 759.444 364.979 758.639 364.51C757.839 364.036 757.221 363.378 756.786 362.536C756.35 361.688 756.132 360.705 756.132 359.588C756.132 358.461 756.35 357.476 756.786 356.634C757.221 355.786 757.839 355.128 758.639 354.659C759.444 354.186 760.398 353.949 761.502 353.949C762.605 353.949 763.557 354.186 764.357 354.659C765.162 355.128 765.782 355.786 766.218 356.634C766.653 357.476 766.871 358.461 766.871 359.588C766.871 360.705 766.653 361.688 766.218 362.536C765.782 363.378 765.162 364.036 764.357 364.51C763.557 364.979 762.605 365.213 761.502 365.213ZM761.516 362.869C762.018 362.869 762.437 362.727 762.773 362.443C763.109 362.154 763.362 361.761 763.533 361.264C763.708 360.767 763.796 360.201 763.796 359.567C763.796 358.932 763.708 358.366 763.533 357.869C763.362 357.372 763.109 356.979 762.773 356.69C762.437 356.402 762.018 356.257 761.516 356.257C761.009 356.257 760.583 356.402 760.237 356.69C759.896 356.979 759.638 357.372 759.463 357.869C759.293 358.366 759.208 358.932 759.208 359.567C759.208 360.201 759.293 360.767 759.463 361.264C759.638 361.761 759.896 362.154 760.237 362.443C760.583 362.727 761.009 362.869 761.516 362.869ZM770.717 365L767.748 354.091H770.809L772.499 361.42H772.599L774.36 354.091H777.365L779.154 361.378H779.247L780.909 354.091H783.963L781.001 365H777.798L775.923 358.139H775.788L773.913 365H770.717ZM790.676 359.169C790.676 360.935 790.439 362.559 789.966 364.041C789.497 365.523 788.777 366.896 787.807 368.161H784.916C785.285 367.692 785.629 367.119 785.946 366.442C786.263 365.765 786.54 365.026 786.777 364.226C787.014 363.421 787.198 362.588 787.331 361.726C787.463 360.864 787.53 360.012 787.53 359.169C787.53 358.047 787.414 356.915 787.182 355.774C786.954 354.628 786.642 353.568 786.244 352.592C785.851 351.612 785.408 350.81 784.916 350.185H787.807C788.777 351.449 789.497 352.822 789.966 354.304C790.439 355.786 790.676 357.408 790.676 359.169Z" fill="white"/>
</svg>
