<svg width="1920" height="1080" viewBox="0 0 1920 1080" fill="none" xmlns="http://www.w3.org/2000/svg">
<g clip-path="url(#clip0_23196_124317)">
<rect width="1920" height="1080" fill="white"/>
<rect width="260" height="1080" fill="#38A4D4"/>
<path d="M50.9389 536.507H47.2202C47.1141 535.897 46.9186 535.357 46.6335 534.886C46.3485 534.409 45.9938 534.005 45.5696 533.673C45.1454 533.342 44.6615 533.093 44.1179 532.928C43.581 532.755 43.0009 532.669 42.3778 532.669C41.2708 532.669 40.2898 532.947 39.4347 533.504C38.5795 534.054 37.91 534.863 37.4261 535.93C36.9422 536.991 36.7003 538.287 36.7003 539.818C36.7003 541.376 36.9422 542.688 37.4261 543.756C37.9167 544.816 38.5862 545.618 39.4347 546.162C40.2898 546.699 41.2675 546.967 42.3679 546.967C42.9777 546.967 43.5478 546.888 44.0781 546.729C44.6151 546.563 45.0956 546.321 45.5199 546.003C45.9508 545.685 46.312 545.294 46.6037 544.83C46.902 544.366 47.1075 543.835 47.2202 543.239L50.9389 543.259C50.7997 544.226 50.4981 545.134 50.0341 545.983C49.5767 546.831 48.9768 547.58 48.2344 548.23C47.492 548.873 46.6236 549.377 45.6293 549.741C44.6349 550.099 43.5313 550.278 42.3182 550.278C40.5284 550.278 38.9309 549.864 37.5256 549.036C36.1203 548.207 35.0133 547.01 34.2045 545.446C33.3958 543.882 32.9915 542.006 32.9915 539.818C32.9915 537.624 33.3991 535.748 34.2145 534.19C35.0298 532.626 36.1402 531.429 37.5455 530.601C38.9508 529.772 40.5417 529.358 42.3182 529.358C43.4517 529.358 44.5057 529.517 45.4801 529.835C46.4545 530.153 47.3229 530.621 48.0852 531.237C48.8475 531.847 49.474 532.596 49.9645 533.484C50.4616 534.366 50.7865 535.374 50.9389 536.507ZM60.82 550.298C59.3285 550.298 58.0359 549.97 56.9421 549.314C55.8484 548.658 54.9999 547.74 54.3967 546.56C53.8001 545.38 53.5018 544.001 53.5018 542.423C53.5018 540.846 53.8001 539.464 54.3967 538.277C54.9999 537.09 55.8484 536.169 56.9421 535.513C58.0359 534.857 59.3285 534.528 60.82 534.528C62.3114 534.528 63.604 534.857 64.6978 535.513C65.7915 536.169 66.6367 537.09 67.2333 538.277C67.8365 539.464 68.1381 540.846 68.1381 542.423C68.1381 544.001 67.8365 545.38 67.2333 546.56C66.6367 547.74 65.7915 548.658 64.6978 549.314C63.604 549.97 62.3114 550.298 60.82 550.298ZM60.8398 547.415C61.6486 547.415 62.3247 547.193 62.8683 546.749C63.4118 546.298 63.8162 545.695 64.0813 544.939C64.3531 544.183 64.489 543.341 64.489 542.413C64.489 541.479 64.3531 540.634 64.0813 539.878C63.8162 539.116 63.4118 538.509 62.8683 538.058C62.3247 537.607 61.6486 537.382 60.8398 537.382C60.0112 537.382 59.3219 537.607 58.7717 538.058C58.2281 538.509 57.8204 539.116 57.5487 539.878C57.2835 540.634 57.1509 541.479 57.1509 542.413C57.1509 543.341 57.2835 544.183 57.5487 544.939C57.8204 545.695 58.2281 546.298 58.7717 546.749C59.3219 547.193 60.0112 547.415 60.8398 547.415ZM74.7926 541.051V550H71.1932V534.727H74.6335V537.322H74.8125C75.1638 536.467 75.724 535.788 76.4929 535.284C77.2685 534.78 78.2263 534.528 79.3665 534.528C80.4205 534.528 81.3385 534.754 82.1207 535.205C82.9096 535.655 83.5194 536.308 83.9503 537.163C84.3878 538.018 84.6032 539.056 84.5966 540.276V550H80.9972V540.832C80.9972 539.812 80.732 539.013 80.2017 538.436C79.678 537.859 78.9522 537.571 78.0241 537.571C77.3944 537.571 76.8343 537.71 76.3438 537.989C75.8598 538.26 75.4787 538.655 75.2003 539.172C74.9285 539.689 74.7926 540.315 74.7926 541.051ZM101.351 534.727L95.9119 550H91.9347L86.4957 534.727H90.3338L93.8438 546.072H94.0028L97.5227 534.727H101.351ZM110.083 550.298C108.552 550.298 107.23 549.98 106.116 549.344C105.009 548.701 104.157 547.793 103.561 546.619C102.964 545.439 102.666 544.051 102.666 542.453C102.666 540.882 102.964 539.503 103.561 538.317C104.164 537.124 105.006 536.196 106.086 535.533C107.167 534.863 108.436 534.528 109.895 534.528C110.836 534.528 111.724 534.681 112.559 534.986C113.401 535.284 114.144 535.748 114.787 536.378C115.436 537.008 115.947 537.81 116.318 538.784C116.689 539.752 116.875 540.905 116.875 542.244V543.348H104.356V540.922H113.424C113.418 540.232 113.269 539.619 112.977 539.082C112.685 538.539 112.278 538.111 111.754 537.8C111.237 537.488 110.634 537.332 109.944 537.332C109.208 537.332 108.562 537.511 108.005 537.869C107.449 538.221 107.014 538.685 106.703 539.261C106.398 539.831 106.242 540.458 106.235 541.141V543.259C106.235 544.147 106.398 544.909 106.723 545.545C107.047 546.175 107.502 546.659 108.085 546.997C108.668 547.329 109.351 547.494 110.133 547.494C110.657 547.494 111.131 547.421 111.555 547.276C111.979 547.123 112.347 546.901 112.659 546.609C112.97 546.318 113.206 545.956 113.365 545.526L116.725 545.903C116.513 546.792 116.109 547.567 115.512 548.23C114.922 548.886 114.167 549.397 113.245 549.761C112.324 550.119 111.27 550.298 110.083 550.298ZM119.92 550V534.727H123.41V537.273H123.569C123.847 536.391 124.325 535.712 125.001 535.234C125.683 534.75 126.462 534.509 127.337 534.509C127.536 534.509 127.758 534.518 128.004 534.538C128.255 534.552 128.464 534.575 128.63 534.608V537.919C128.478 537.866 128.236 537.82 127.904 537.78C127.579 537.733 127.264 537.71 126.96 537.71C126.303 537.71 125.713 537.853 125.19 538.138C124.673 538.416 124.265 538.804 123.967 539.301C123.668 539.798 123.519 540.372 123.519 541.021V550H119.92ZM143.092 538.764L139.811 539.122C139.718 538.791 139.556 538.479 139.324 538.188C139.098 537.896 138.794 537.661 138.409 537.482C138.025 537.303 137.554 537.213 136.997 537.213C136.248 537.213 135.618 537.375 135.108 537.7C134.604 538.025 134.356 538.446 134.362 538.963C134.356 539.407 134.518 539.768 134.849 540.047C135.188 540.325 135.744 540.554 136.52 540.733L139.125 541.29C140.57 541.601 141.644 542.095 142.347 542.771C143.056 543.447 143.414 544.332 143.42 545.426C143.414 546.387 143.132 547.236 142.575 547.972C142.025 548.701 141.259 549.271 140.278 549.682C139.297 550.093 138.17 550.298 136.898 550.298C135.028 550.298 133.524 549.907 132.384 549.125C131.243 548.336 130.564 547.239 130.345 545.834L133.855 545.496C134.014 546.185 134.352 546.705 134.869 547.057C135.386 547.408 136.059 547.584 136.888 547.584C137.743 547.584 138.429 547.408 138.946 547.057C139.47 546.705 139.732 546.271 139.732 545.754C139.732 545.317 139.563 544.955 139.224 544.67C138.893 544.385 138.376 544.167 137.673 544.014L135.068 543.467C133.603 543.162 132.519 542.649 131.817 541.926C131.114 541.197 130.766 540.276 130.773 539.162C130.766 538.221 131.021 537.405 131.538 536.716C132.062 536.02 132.788 535.483 133.716 535.105C134.651 534.721 135.728 534.528 136.947 534.528C138.737 534.528 140.146 534.91 141.173 535.672C142.207 536.434 142.847 537.465 143.092 538.764ZM150.783 550.308C149.816 550.308 148.944 550.136 148.168 549.791C147.399 549.44 146.79 548.923 146.339 548.24C145.895 547.557 145.673 546.715 145.673 545.714C145.673 544.853 145.832 544.14 146.15 543.577C146.468 543.013 146.902 542.562 147.452 542.224C148.003 541.886 148.622 541.631 149.312 541.459C150.008 541.28 150.727 541.151 151.469 541.071C152.364 540.978 153.09 540.895 153.647 540.822C154.204 540.743 154.608 540.624 154.86 540.464C155.119 540.299 155.248 540.044 155.248 539.699V539.639C155.248 538.89 155.026 538.31 154.582 537.899C154.138 537.488 153.498 537.283 152.663 537.283C151.781 537.283 151.082 537.475 150.565 537.859C150.054 538.244 149.71 538.698 149.531 539.222L146.17 538.744C146.435 537.816 146.872 537.041 147.482 536.418C148.092 535.788 148.838 535.317 149.719 535.006C150.601 534.688 151.576 534.528 152.643 534.528C153.379 534.528 154.111 534.615 154.84 534.787C155.569 534.959 156.236 535.244 156.839 535.642C157.442 536.033 157.926 536.567 158.29 537.243C158.662 537.919 158.847 538.764 158.847 539.778V550H155.387V547.902H155.268C155.049 548.326 154.741 548.724 154.343 549.095C153.952 549.46 153.458 549.755 152.862 549.98C152.272 550.199 151.579 550.308 150.783 550.308ZM151.718 547.663C152.441 547.663 153.067 547.521 153.597 547.236C154.128 546.944 154.535 546.56 154.82 546.082C155.112 545.605 155.258 545.085 155.258 544.521V542.722C155.145 542.814 154.953 542.901 154.681 542.98C154.416 543.06 154.118 543.129 153.786 543.189C153.455 543.249 153.127 543.302 152.802 543.348C152.477 543.394 152.195 543.434 151.957 543.467C151.42 543.54 150.939 543.66 150.515 543.825C150.091 543.991 149.756 544.223 149.511 544.521C149.265 544.813 149.143 545.191 149.143 545.655C149.143 546.318 149.385 546.818 149.869 547.156C150.353 547.494 150.969 547.663 151.718 547.663ZM170.093 534.727V537.511H161.313V534.727H170.093ZM163.481 531.068H167.08V545.406C167.08 545.89 167.153 546.261 167.299 546.52C167.451 546.772 167.65 546.944 167.896 547.037C168.141 547.13 168.413 547.176 168.711 547.176C168.936 547.176 169.142 547.16 169.327 547.126C169.52 547.093 169.665 547.063 169.765 547.037L170.371 549.851C170.179 549.917 169.904 549.99 169.546 550.07C169.195 550.149 168.764 550.196 168.254 550.209C167.352 550.235 166.54 550.099 165.817 549.801C165.095 549.496 164.522 549.026 164.097 548.389C163.68 547.753 163.474 546.957 163.481 546.003V531.068ZM173.103 550V534.727H176.703V550H173.103ZM174.913 532.56C174.343 532.56 173.852 532.371 173.441 531.993C173.03 531.608 172.825 531.148 172.825 530.611C172.825 530.067 173.03 529.607 173.441 529.229C173.852 528.844 174.343 528.652 174.913 528.652C175.49 528.652 175.98 528.844 176.385 529.229C176.796 529.607 177.001 530.067 177.001 530.611C177.001 531.148 176.796 531.608 176.385 531.993C175.98 532.371 175.49 532.56 174.913 532.56ZM187.066 550.298C185.575 550.298 184.282 549.97 183.188 549.314C182.094 548.658 181.246 547.74 180.643 546.56C180.046 545.38 179.748 544.001 179.748 542.423C179.748 540.846 180.046 539.464 180.643 538.277C181.246 537.09 182.094 536.169 183.188 535.513C184.282 534.857 185.575 534.528 187.066 534.528C188.558 534.528 189.85 534.857 190.944 535.513C192.038 536.169 192.883 537.09 193.479 538.277C194.083 539.464 194.384 540.846 194.384 542.423C194.384 544.001 194.083 545.38 193.479 546.56C192.883 547.74 192.038 548.658 190.944 549.314C189.85 549.97 188.558 550.298 187.066 550.298ZM187.086 547.415C187.895 547.415 188.571 547.193 189.114 546.749C189.658 546.298 190.062 545.695 190.327 544.939C190.599 544.183 190.735 543.341 190.735 542.413C190.735 541.479 190.599 540.634 190.327 539.878C190.062 539.116 189.658 538.509 189.114 538.058C188.571 537.607 187.895 537.382 187.086 537.382C186.257 537.382 185.568 537.607 185.018 538.058C184.474 538.509 184.067 539.116 183.795 539.878C183.53 540.634 183.397 541.479 183.397 542.413C183.397 543.341 183.53 544.183 183.795 544.939C184.067 545.695 184.474 546.298 185.018 546.749C185.568 547.193 186.257 547.415 187.086 547.415ZM201.039 541.051V550H197.439V534.727H200.88V537.322H201.059C201.41 536.467 201.97 535.788 202.739 535.284C203.515 534.78 204.472 534.528 205.613 534.528C206.667 534.528 207.585 534.754 208.367 535.205C209.156 535.655 209.766 536.308 210.196 537.163C210.634 538.018 210.849 539.056 210.843 540.276V550H207.243V540.832C207.243 539.812 206.978 539.013 206.448 538.436C205.924 537.859 205.198 537.571 204.27 537.571C203.641 537.571 203.08 537.71 202.59 537.989C202.106 538.26 201.725 538.655 201.446 539.172C201.175 539.689 201.039 540.315 201.039 541.051ZM226.573 538.764L223.292 539.122C223.199 538.791 223.036 538.479 222.804 538.188C222.579 537.896 222.274 537.661 221.89 537.482C221.505 537.303 221.034 537.213 220.478 537.213C219.729 537.213 219.099 537.375 218.588 537.7C218.085 538.025 217.836 538.446 217.843 538.963C217.836 539.407 217.998 539.768 218.33 540.047C218.668 540.325 219.225 540.554 220 540.733L222.605 541.29C224.051 541.601 225.124 542.095 225.827 542.771C226.536 543.447 226.894 544.332 226.901 545.426C226.894 546.387 226.613 547.236 226.056 547.972C225.506 548.701 224.74 549.271 223.759 549.682C222.778 550.093 221.651 550.298 220.378 550.298C218.509 550.298 217.004 549.907 215.864 549.125C214.724 548.336 214.044 547.239 213.826 545.834L217.336 545.496C217.495 546.185 217.833 546.705 218.35 547.057C218.867 547.408 219.54 547.584 220.368 547.584C221.223 547.584 221.909 547.408 222.426 547.057C222.95 546.705 223.212 546.271 223.212 545.754C223.212 545.317 223.043 544.955 222.705 544.67C222.373 544.385 221.856 544.167 221.154 544.014L218.549 543.467C217.084 543.162 216 542.649 215.297 541.926C214.595 541.197 214.247 540.276 214.253 539.162C214.247 538.221 214.502 537.405 215.019 536.716C215.542 536.02 216.268 535.483 217.196 535.105C218.131 534.721 219.208 534.528 220.428 534.528C222.218 534.528 223.626 534.91 224.654 535.672C225.688 536.434 226.328 537.465 226.573 538.764Z" fill="white"/>
<rect width="1392" height="65" transform="translate(264)" fill="#4B7EDE"/>
<path d="M911.77 42.5V22.1364H916.075V30.5384H924.815V22.1364H929.111V42.5H924.815V34.0881H916.075V42.5H911.77ZM939.541 42.7983C937.97 42.7983 936.618 42.4801 935.484 41.8438C934.357 41.2008 933.489 40.2926 932.879 39.1193C932.269 37.9394 931.964 36.544 931.964 34.9332C931.964 33.3622 932.269 31.9834 932.879 30.7969C933.489 29.6103 934.348 28.6856 935.455 28.0227C936.568 27.3598 937.874 27.0284 939.372 27.0284C940.38 27.0284 941.318 27.1908 942.186 27.5156C943.061 27.8338 943.823 28.3144 944.473 28.9574C945.129 29.6004 945.64 30.4091 946.004 31.3835C946.369 32.3513 946.551 33.4848 946.551 34.7841V35.9474H933.655V33.3224H942.564C942.564 32.7126 942.431 32.1723 942.166 31.7017C941.901 31.2311 941.533 30.8632 941.062 30.598C940.598 30.3262 940.058 30.1903 939.442 30.1903C938.799 30.1903 938.229 30.3395 937.732 30.6378C937.241 30.9295 936.857 31.3239 936.578 31.821C936.3 32.3116 936.157 32.8584 936.151 33.4616V35.9574C936.151 36.7131 936.29 37.366 936.568 37.9162C936.853 38.4664 937.254 38.8906 937.771 39.1889C938.288 39.4872 938.902 39.6364 939.611 39.6364C940.081 39.6364 940.512 39.5701 940.903 39.4375C941.295 39.3049 941.629 39.1061 941.908 38.8409C942.186 38.5758 942.398 38.2509 942.544 37.8665L946.462 38.125C946.263 39.0663 945.855 39.8883 945.239 40.5909C944.629 41.2869 943.84 41.8305 942.872 42.2216C941.911 42.6061 940.801 42.7983 939.541 42.7983ZM953.67 42.7884C952.696 42.7884 951.828 42.6193 951.065 42.2812C950.303 41.9366 949.7 41.4295 949.256 40.7599C948.818 40.0838 948.599 39.242 948.599 38.2344C948.599 37.3859 948.755 36.6733 949.067 36.0966C949.378 35.5199 949.803 35.0559 950.339 34.7045C950.876 34.3532 951.486 34.0881 952.169 33.9091C952.858 33.7301 953.581 33.6042 954.337 33.5312C955.225 33.4384 955.941 33.3523 956.484 33.2727C957.028 33.1866 957.422 33.0606 957.668 32.8949C957.913 32.7292 958.036 32.4839 958.036 32.1591V32.0994C958.036 31.4697 957.837 30.9825 957.439 30.6378C957.048 30.2931 956.491 30.1207 955.768 30.1207C955.006 30.1207 954.4 30.2898 953.949 30.6278C953.498 30.9593 953.2 31.3769 953.054 31.8807L949.136 31.5625C949.335 30.6345 949.726 29.8324 950.31 29.1562C950.893 28.4735 951.645 27.9498 952.567 27.5852C953.495 27.214 954.569 27.0284 955.788 27.0284C956.637 27.0284 957.449 27.1278 958.224 27.3267C959.007 27.5256 959.699 27.8338 960.303 28.2514C960.912 28.669 961.393 29.206 961.744 29.8622C962.096 30.5118 962.271 31.2907 962.271 32.1989V42.5H958.254V40.3821H958.135C957.89 40.8594 957.562 41.2803 957.151 41.6449C956.74 42.0028 956.246 42.2846 955.669 42.4901C955.092 42.6889 954.426 42.7884 953.67 42.7884ZM954.884 39.8651C955.507 39.8651 956.057 39.7424 956.534 39.4972C957.011 39.2453 957.386 38.9072 957.658 38.483C957.929 38.0587 958.065 37.5781 958.065 37.0412V35.4205C957.933 35.5066 957.75 35.5862 957.518 35.6591C957.293 35.7254 957.038 35.7884 956.753 35.848C956.468 35.901 956.183 35.9508 955.898 35.9972C955.613 36.0369 955.354 36.0734 955.122 36.1065C954.625 36.1795 954.191 36.2955 953.82 36.4545C953.448 36.6136 953.16 36.8291 952.955 37.1009C952.749 37.366 952.646 37.6974 952.646 38.0952C952.646 38.6719 952.855 39.1127 953.273 39.4176C953.697 39.7159 954.234 39.8651 954.884 39.8651ZM971.185 42.7486C970.025 42.7486 968.975 42.4503 968.033 41.8537C967.099 41.2505 966.356 40.3655 965.806 39.1989C965.263 38.0256 964.991 36.5871 964.991 34.8835C964.991 33.1335 965.272 31.6785 965.836 30.5185C966.399 29.3518 967.148 28.4801 968.083 27.9034C969.024 27.3201 970.055 27.0284 971.175 27.0284C972.031 27.0284 972.743 27.1742 973.313 27.4659C973.89 27.7509 974.354 28.1089 974.705 28.5398C975.063 28.964 975.335 29.3816 975.521 29.7926H975.65V22.1364H979.876V42.5H975.7V40.054H975.521C975.322 40.4782 975.04 40.8991 974.675 41.3168C974.317 41.7277 973.85 42.0691 973.273 42.3409C972.703 42.6127 972.007 42.7486 971.185 42.7486ZM972.528 39.3778C973.21 39.3778 973.787 39.1922 974.258 38.821C974.735 38.4432 975.1 37.9162 975.352 37.2401C975.61 36.5639 975.739 35.7718 975.739 34.8636C975.739 33.9555 975.613 33.1667 975.362 32.4972C975.11 31.8277 974.745 31.3106 974.268 30.946C973.79 30.5814 973.21 30.3991 972.528 30.3991C971.832 30.3991 971.245 30.5881 970.768 30.9659C970.29 31.3437 969.929 31.8674 969.684 32.5369C969.439 33.2064 969.316 33.982 969.316 34.8636C969.316 35.7519 969.439 36.5374 969.684 37.2202C969.936 37.8963 970.297 38.4266 970.768 38.8111C971.245 39.1889 971.832 39.3778 972.528 39.3778ZM990.319 42.7983C988.748 42.7983 987.395 42.4801 986.262 41.8438C985.135 41.2008 984.266 40.2926 983.657 39.1193C983.047 37.9394 982.742 36.544 982.742 34.9332C982.742 33.3622 983.047 31.9834 983.657 30.7969C984.266 29.6103 985.125 28.6856 986.232 28.0227C987.346 27.3598 988.651 27.0284 990.15 27.0284C991.157 27.0284 992.095 27.1908 992.963 27.5156C993.838 27.8338 994.601 28.3144 995.25 28.9574C995.907 29.6004 996.417 30.4091 996.782 31.3835C997.146 32.3513 997.328 33.4848 997.328 34.7841V35.9474H984.432V33.3224H993.341C993.341 32.7126 993.209 32.1723 992.944 31.7017C992.678 31.2311 992.31 30.8632 991.84 30.598C991.376 30.3262 990.836 30.1903 990.219 30.1903C989.576 30.1903 989.006 30.3395 988.509 30.6378C988.018 30.9295 987.634 31.3239 987.355 31.821C987.077 32.3116 986.935 32.8584 986.928 33.4616V35.9574C986.928 36.7131 987.067 37.366 987.346 37.9162C987.631 38.4664 988.032 38.8906 988.549 39.1889C989.066 39.4872 989.679 39.6364 990.388 39.6364C990.859 39.6364 991.29 39.5701 991.681 39.4375C992.072 39.3049 992.407 39.1061 992.685 38.8409C992.963 38.5758 993.176 38.2509 993.321 37.8665L997.239 38.125C997.04 39.0663 996.632 39.8883 996.016 40.5909C995.406 41.2869 994.617 41.8305 993.65 42.2216C992.688 42.6061 991.578 42.7983 990.319 42.7983ZM1000.09 42.5V27.2273H1004.2V29.892H1004.36C1004.64 28.9441 1005.1 28.2282 1005.76 27.7443C1006.42 27.2538 1007.17 27.0085 1008.03 27.0085C1008.24 27.0085 1008.47 27.0218 1008.71 27.0483C1008.96 27.0748 1009.17 27.1113 1009.36 27.1577V30.9162C1009.16 30.8565 1008.89 30.8035 1008.53 30.7571C1008.18 30.7107 1007.86 30.6875 1007.57 30.6875C1006.95 30.6875 1006.39 30.8234 1005.9 31.0952C1005.42 31.3603 1005.03 31.7315 1004.75 32.2088C1004.47 32.6861 1004.33 33.2363 1004.33 33.8594V42.5H1000.09Z" fill="white"/>
<rect width="1392" height="827" transform="translate(264 69)" fill="#7366D9"/>
<path d="M913.237 479.266H908.882C908.803 478.702 908.64 478.202 908.395 477.764C908.15 477.32 907.835 476.942 907.45 476.631C907.066 476.319 906.622 476.08 906.118 475.915C905.621 475.749 905.08 475.666 904.497 475.666C903.443 475.666 902.525 475.928 901.743 476.452C900.961 476.969 900.354 477.724 899.923 478.719C899.492 479.706 899.277 480.906 899.277 482.318C899.277 483.77 899.492 484.99 899.923 485.977C900.361 486.965 900.971 487.711 901.753 488.214C902.535 488.718 903.44 488.97 904.467 488.97C905.044 488.97 905.578 488.894 906.068 488.741C906.565 488.589 907.006 488.367 907.391 488.075C907.775 487.777 908.093 487.416 908.345 486.991C908.604 486.567 908.783 486.083 908.882 485.54L913.237 485.56C913.125 486.494 912.843 487.396 912.392 488.264C911.948 489.126 911.348 489.898 910.592 490.581C909.843 491.257 908.948 491.794 907.908 492.192C906.874 492.583 905.704 492.778 904.398 492.778C902.581 492.778 900.957 492.367 899.526 491.545C898.1 490.723 896.973 489.534 896.145 487.976C895.323 486.418 894.912 484.532 894.912 482.318C894.912 480.098 895.33 478.208 896.165 476.651C897 475.093 898.134 473.906 899.565 473.091C900.997 472.269 902.608 471.858 904.398 471.858C905.578 471.858 906.671 472.024 907.679 472.355C908.693 472.687 909.591 473.17 910.374 473.807C911.156 474.437 911.792 475.209 912.283 476.124C912.78 477.038 913.098 478.086 913.237 479.266ZM920.481 483.67V492.5H916.245V472.136H920.362V479.922H920.54C920.885 479.02 921.442 478.314 922.211 477.804C922.98 477.287 923.944 477.028 925.104 477.028C926.165 477.028 927.09 477.26 927.879 477.724C928.674 478.182 929.29 478.841 929.728 479.703C930.172 480.558 930.391 481.582 930.384 482.776V492.5H926.148V483.531C926.155 482.59 925.916 481.857 925.433 481.334C924.955 480.81 924.286 480.548 923.424 480.548C922.847 480.548 922.337 480.671 921.893 480.916C921.455 481.161 921.111 481.519 920.859 481.99C920.613 482.454 920.487 483.014 920.481 483.67ZM938.073 492.788C937.098 492.788 936.23 492.619 935.468 492.281C934.705 491.937 934.102 491.429 933.658 490.76C933.221 490.084 933.002 489.242 933.002 488.234C933.002 487.386 933.158 486.673 933.469 486.097C933.781 485.52 934.205 485.056 934.742 484.705C935.279 484.353 935.889 484.088 936.571 483.909C937.261 483.73 937.983 483.604 938.739 483.531C939.627 483.438 940.343 483.352 940.887 483.273C941.43 483.187 941.825 483.061 942.07 482.895C942.315 482.729 942.438 482.484 942.438 482.159V482.099C942.438 481.47 942.239 480.982 941.841 480.638C941.45 480.293 940.893 480.121 940.171 480.121C939.408 480.121 938.802 480.29 938.351 480.628C937.9 480.959 937.602 481.377 937.456 481.881L933.539 481.562C933.738 480.634 934.129 479.832 934.712 479.156C935.295 478.473 936.048 477.95 936.969 477.585C937.897 477.214 938.971 477.028 940.191 477.028C941.039 477.028 941.851 477.128 942.627 477.327C943.409 477.526 944.102 477.834 944.705 478.251C945.315 478.669 945.795 479.206 946.147 479.862C946.498 480.512 946.674 481.291 946.674 482.199V492.5H942.657V490.382H942.537C942.292 490.859 941.964 491.28 941.553 491.645C941.142 492.003 940.648 492.285 940.071 492.49C939.495 492.689 938.828 492.788 938.073 492.788ZM939.286 489.865C939.909 489.865 940.459 489.742 940.936 489.497C941.414 489.245 941.788 488.907 942.06 488.483C942.332 488.059 942.468 487.578 942.468 487.041V485.42C942.335 485.507 942.153 485.586 941.921 485.659C941.695 485.725 941.44 485.788 941.155 485.848C940.87 485.901 940.585 485.951 940.3 485.997C940.015 486.037 939.757 486.073 939.525 486.107C939.027 486.179 938.593 486.295 938.222 486.455C937.851 486.614 937.562 486.829 937.357 487.101C937.151 487.366 937.049 487.697 937.049 488.095C937.049 488.672 937.257 489.113 937.675 489.418C938.099 489.716 938.636 489.865 939.286 489.865ZM958.083 477.227V480.409H948.886V477.227H958.083ZM950.974 473.568H955.21V487.807C955.21 488.198 955.27 488.503 955.389 488.722C955.508 488.934 955.674 489.083 955.886 489.169C956.105 489.255 956.357 489.298 956.642 489.298C956.841 489.298 957.039 489.282 957.238 489.249C957.437 489.209 957.59 489.179 957.696 489.159L958.362 492.311C958.15 492.377 957.851 492.454 957.467 492.54C957.083 492.633 956.615 492.689 956.065 492.709C955.044 492.749 954.149 492.613 953.38 492.301C952.618 491.99 952.025 491.506 951.6 490.849C951.176 490.193 950.967 489.365 950.974 488.364V473.568ZM971.678 492.788C970.704 492.788 969.835 492.619 969.073 492.281C968.311 491.937 967.708 491.429 967.263 490.76C966.826 490.084 966.607 489.242 966.607 488.234C966.607 487.386 966.763 486.673 967.075 486.097C967.386 485.52 967.81 485.056 968.347 484.705C968.884 484.353 969.494 484.088 970.177 483.909C970.866 483.73 971.589 483.604 972.344 483.531C973.233 483.438 973.949 483.352 974.492 483.273C975.036 483.187 975.43 483.061 975.675 482.895C975.921 482.729 976.043 482.484 976.043 482.159V482.099C976.043 481.47 975.844 480.982 975.447 480.638C975.056 480.293 974.499 480.121 973.776 480.121C973.014 480.121 972.407 480.29 971.957 480.628C971.506 480.959 971.208 481.377 971.062 481.881L967.144 481.562C967.343 480.634 967.734 479.832 968.317 479.156C968.901 478.473 969.653 477.95 970.575 477.585C971.503 477.214 972.576 477.028 973.796 477.028C974.645 477.028 975.457 477.128 976.232 477.327C977.014 477.526 977.707 477.834 978.31 478.251C978.92 478.669 979.401 479.206 979.752 479.862C980.103 480.512 980.279 481.291 980.279 482.199V492.5H976.262V490.382H976.143C975.897 490.859 975.569 491.28 975.158 491.645C974.747 492.003 974.254 492.285 973.677 492.49C973.1 492.689 972.434 492.788 971.678 492.788ZM972.891 489.865C973.514 489.865 974.065 489.742 974.542 489.497C975.019 489.245 975.394 488.907 975.665 488.483C975.937 488.059 976.073 487.578 976.073 487.041V485.42C975.941 485.507 975.758 485.586 975.526 485.659C975.301 485.725 975.046 485.788 974.761 485.848C974.476 485.901 974.191 485.951 973.906 485.997C973.621 486.037 973.362 486.073 973.13 486.107C972.633 486.179 972.199 486.295 971.827 486.455C971.456 486.614 971.168 486.829 970.962 487.101C970.757 487.366 970.654 487.697 970.654 488.095C970.654 488.672 970.863 489.113 971.281 489.418C971.705 489.716 972.242 489.865 972.891 489.865ZM983.565 492.5V477.227H987.672V479.892H987.831C988.109 478.944 988.577 478.228 989.233 477.744C989.889 477.254 990.645 477.009 991.5 477.009C991.712 477.009 991.941 477.022 992.186 477.048C992.431 477.075 992.647 477.111 992.832 477.158V480.916C992.634 480.857 992.358 480.804 992.007 480.757C991.656 480.711 991.334 480.688 991.043 480.688C990.42 480.688 989.863 480.823 989.372 481.095C988.888 481.36 988.504 481.732 988.219 482.209C987.94 482.686 987.801 483.236 987.801 483.859V492.5H983.565ZM1001.27 492.798C999.701 492.798 998.348 492.48 997.215 491.844C996.088 491.201 995.22 490.293 994.61 489.119C994 487.939 993.695 486.544 993.695 484.933C993.695 483.362 994 481.983 994.61 480.797C995.22 479.61 996.078 478.686 997.185 478.023C998.299 477.36 999.605 477.028 1001.1 477.028C1002.11 477.028 1003.05 477.191 1003.92 477.516C1004.79 477.834 1005.55 478.314 1006.2 478.957C1006.86 479.6 1007.37 480.409 1007.73 481.384C1008.1 482.351 1008.28 483.485 1008.28 484.784V485.947H995.385V483.322H1004.29C1004.29 482.713 1004.16 482.172 1003.9 481.702C1003.63 481.231 1003.26 480.863 1002.79 480.598C1002.33 480.326 1001.79 480.19 1001.17 480.19C1000.53 480.19 999.959 480.339 999.462 480.638C998.971 480.929 998.587 481.324 998.309 481.821C998.03 482.312 997.888 482.858 997.881 483.462V485.957C997.881 486.713 998.02 487.366 998.299 487.916C998.584 488.466 998.985 488.891 999.502 489.189C1000.02 489.487 1000.63 489.636 1001.34 489.636C1001.81 489.636 1002.24 489.57 1002.63 489.438C1003.02 489.305 1003.36 489.106 1003.64 488.841C1003.92 488.576 1004.13 488.251 1004.27 487.866L1008.19 488.125C1007.99 489.066 1007.59 489.888 1006.97 490.591C1006.36 491.287 1005.57 491.83 1004.6 492.222C1003.64 492.606 1002.53 492.798 1001.27 492.798ZM1015.4 492.788C1014.43 492.788 1013.56 492.619 1012.8 492.281C1012.03 491.937 1011.43 491.429 1010.99 490.76C1010.55 490.084 1010.33 489.242 1010.33 488.234C1010.33 487.386 1010.49 486.673 1010.8 486.097C1011.11 485.52 1011.53 485.056 1012.07 484.705C1012.61 484.353 1013.22 484.088 1013.9 483.909C1014.59 483.73 1015.31 483.604 1016.07 483.531C1016.96 483.438 1017.67 483.352 1018.21 483.273C1018.76 483.187 1019.15 483.061 1019.4 482.895C1019.64 482.729 1019.77 482.484 1019.77 482.159V482.099C1019.77 481.47 1019.57 480.982 1019.17 480.638C1018.78 480.293 1018.22 480.121 1017.5 480.121C1016.74 480.121 1016.13 480.29 1015.68 480.628C1015.23 480.959 1014.93 481.377 1014.78 481.881L1010.87 481.562C1011.07 480.634 1011.46 479.832 1012.04 479.156C1012.62 478.473 1013.38 477.95 1014.3 477.585C1015.23 477.214 1016.3 477.028 1017.52 477.028C1018.37 477.028 1019.18 477.128 1019.95 477.327C1020.74 477.526 1021.43 477.834 1022.03 478.251C1022.64 478.669 1023.12 479.206 1023.47 479.862C1023.83 480.512 1024 481.291 1024 482.199V492.5H1019.98V490.382H1019.87C1019.62 490.859 1019.29 491.28 1018.88 491.645C1018.47 492.003 1017.98 492.285 1017.4 492.49C1016.82 492.689 1016.16 492.788 1015.4 492.788ZM1016.61 489.865C1017.24 489.865 1017.79 489.742 1018.26 489.497C1018.74 489.245 1019.12 488.907 1019.39 488.483C1019.66 488.059 1019.8 487.578 1019.8 487.041V485.42C1019.66 485.507 1019.48 485.586 1019.25 485.659C1019.02 485.725 1018.77 485.788 1018.48 485.848C1018.2 485.901 1017.91 485.951 1017.63 485.997C1017.34 486.037 1017.08 486.073 1016.85 486.107C1016.36 486.179 1015.92 486.295 1015.55 486.455C1015.18 486.614 1014.89 486.829 1014.69 487.101C1014.48 487.366 1014.38 487.697 1014.38 488.095C1014.38 488.672 1014.59 489.113 1015 489.418C1015.43 489.716 1015.96 489.865 1016.61 489.865Z" fill="white"/>
<rect width="1392" height="180" transform="translate(264 900)" fill="#8656C8"/>
<path d="M918.237 986.766H913.882C913.803 986.202 913.64 985.702 913.395 985.264C913.15 984.82 912.835 984.442 912.45 984.131C912.066 983.819 911.622 983.58 911.118 983.415C910.621 983.249 910.08 983.166 909.497 983.166C908.443 983.166 907.525 983.428 906.743 983.952C905.961 984.469 905.354 985.224 904.923 986.219C904.492 987.206 904.277 988.406 904.277 989.818C904.277 991.27 904.492 992.49 904.923 993.477C905.361 994.465 905.971 995.211 906.753 995.714C907.535 996.218 908.44 996.47 909.467 996.47C910.044 996.47 910.578 996.394 911.068 996.241C911.565 996.089 912.006 995.867 912.391 995.575C912.775 995.277 913.093 994.916 913.345 994.491C913.604 994.067 913.783 993.583 913.882 993.04L918.237 993.06C918.125 993.994 917.843 994.896 917.392 995.764C916.948 996.626 916.348 997.398 915.592 998.081C914.843 998.757 913.948 999.294 912.908 999.692C911.874 1000.08 910.704 1000.28 909.398 1000.28C907.581 1000.28 905.957 999.867 904.526 999.045C903.1 998.223 901.973 997.034 901.145 995.476C900.323 993.918 899.912 992.032 899.912 989.818C899.912 987.598 900.33 985.708 901.165 984.151C902 982.593 903.134 981.406 904.565 980.591C905.997 979.769 907.608 979.358 909.398 979.358C910.578 979.358 911.671 979.524 912.679 979.855C913.693 980.187 914.591 980.67 915.374 981.307C916.156 981.937 916.792 982.709 917.283 983.624C917.78 984.538 918.098 985.586 918.237 986.766ZM925.481 991.17V1000H921.245V979.636H925.362V987.422H925.54C925.885 986.52 926.442 985.814 927.211 985.304C927.98 984.787 928.944 984.528 930.104 984.528C931.165 984.528 932.09 984.76 932.879 985.224C933.674 985.682 934.29 986.341 934.728 987.203C935.172 988.058 935.391 989.082 935.384 990.276V1000H931.148V991.031C931.155 990.09 930.916 989.357 930.433 988.834C929.955 988.31 929.286 988.048 928.424 988.048C927.847 988.048 927.337 988.171 926.893 988.416C926.455 988.661 926.111 989.019 925.859 989.49C925.613 989.954 925.487 990.514 925.481 991.17ZM943.073 1000.29C942.098 1000.29 941.23 1000.12 940.468 999.781C939.705 999.437 939.102 998.929 938.658 998.26C938.221 997.584 938.002 996.742 938.002 995.734C938.002 994.886 938.158 994.173 938.469 993.597C938.781 993.02 939.205 992.556 939.742 992.205C940.279 991.853 940.889 991.588 941.571 991.409C942.261 991.23 942.983 991.104 943.739 991.031C944.627 990.938 945.343 990.852 945.887 990.773C946.43 990.687 946.825 990.561 947.07 990.395C947.315 990.229 947.438 989.984 947.438 989.659V989.599C947.438 988.97 947.239 988.482 946.841 988.138C946.45 987.793 945.893 987.621 945.171 987.621C944.408 987.621 943.802 987.79 943.351 988.128C942.9 988.459 942.602 988.877 942.456 989.381L938.539 989.062C938.738 988.134 939.129 987.332 939.712 986.656C940.295 985.973 941.048 985.45 941.969 985.085C942.897 984.714 943.971 984.528 945.191 984.528C946.039 984.528 946.851 984.628 947.627 984.827C948.409 985.026 949.102 985.334 949.705 985.751C950.315 986.169 950.795 986.706 951.147 987.362C951.498 988.012 951.674 988.791 951.674 989.699V1000H947.657V997.882H947.537C947.292 998.359 946.964 998.78 946.553 999.145C946.142 999.503 945.648 999.785 945.071 999.99C944.495 1000.19 943.828 1000.29 943.073 1000.29ZM944.286 997.365C944.909 997.365 945.459 997.242 945.936 996.997C946.414 996.745 946.788 996.407 947.06 995.983C947.332 995.559 947.468 995.078 947.468 994.541V992.92C947.335 993.007 947.153 993.086 946.921 993.159C946.695 993.225 946.44 993.288 946.155 993.348C945.87 993.401 945.585 993.451 945.3 993.497C945.015 993.537 944.757 993.573 944.525 993.607C944.027 993.679 943.593 993.795 943.222 993.955C942.851 994.114 942.562 994.329 942.357 994.601C942.151 994.866 942.049 995.197 942.049 995.595C942.049 996.172 942.257 996.613 942.675 996.918C943.099 997.216 943.636 997.365 944.286 997.365ZM963.083 984.727V987.909H953.886V984.727H963.083ZM955.974 981.068H960.21V995.307C960.21 995.698 960.27 996.003 960.389 996.222C960.508 996.434 960.674 996.583 960.886 996.669C961.105 996.755 961.357 996.798 961.642 996.798C961.841 996.798 962.039 996.782 962.238 996.749C962.437 996.709 962.59 996.679 962.696 996.659L963.362 999.811C963.15 999.877 962.851 999.954 962.467 1000.04C962.083 1000.13 961.615 1000.19 961.065 1000.21C960.044 1000.25 959.149 1000.11 958.38 999.801C957.618 999.49 957.025 999.006 956.6 998.349C956.176 997.693 955.967 996.865 955.974 995.864V981.068ZM972.403 1000V979.636H976.638V987.293H976.768C976.953 986.882 977.222 986.464 977.573 986.04C977.931 985.609 978.395 985.251 978.965 984.966C979.542 984.674 980.258 984.528 981.113 984.528C982.227 984.528 983.254 984.82 984.195 985.403C985.137 985.98 985.889 986.852 986.452 988.018C987.016 989.179 987.298 990.634 987.298 992.384C987.298 994.087 987.022 995.526 986.472 996.699C985.929 997.866 985.186 998.75 984.245 999.354C983.31 999.95 982.263 1000.25 981.103 1000.25C980.281 1000.25 979.582 1000.11 979.005 999.841C978.435 999.569 977.968 999.228 977.603 998.817C977.238 998.399 976.96 997.978 976.768 997.554H976.579V1000H972.403ZM976.549 992.364C976.549 993.272 976.675 994.064 976.927 994.74C977.179 995.416 977.543 995.943 978.021 996.321C978.498 996.692 979.078 996.878 979.761 996.878C980.45 996.878 981.033 996.689 981.511 996.311C981.988 995.927 982.349 995.396 982.594 994.72C982.846 994.037 982.972 993.252 982.972 992.364C982.972 991.482 982.85 990.706 982.604 990.037C982.359 989.367 981.998 988.844 981.521 988.466C981.043 988.088 980.457 987.899 979.761 987.899C979.071 987.899 978.488 988.081 978.011 988.446C977.54 988.811 977.179 989.328 976.927 989.997C976.675 990.667 976.549 991.455 976.549 992.364ZM997.025 1000.3C995.48 1000.3 994.144 999.97 993.017 999.314C991.897 998.651 991.032 997.73 990.422 996.55C989.812 995.363 989.507 993.988 989.507 992.423C989.507 990.846 989.812 989.467 990.422 988.287C991.032 987.1 991.897 986.179 993.017 985.523C994.144 984.86 995.48 984.528 997.025 984.528C998.569 984.528 999.901 984.86 1001.02 985.523C1002.15 986.179 1003.02 987.1 1003.63 988.287C1004.24 989.467 1004.54 990.846 1004.54 992.423C1004.54 993.988 1004.24 995.363 1003.63 996.55C1003.02 997.73 1002.15 998.651 1001.02 999.314C999.901 999.97 998.569 1000.3 997.025 1000.3ZM997.044 997.017C997.747 997.017 998.334 996.818 998.804 996.42C999.275 996.016 999.63 995.466 999.868 994.77C1000.11 994.074 1000.24 993.282 1000.24 992.393C1000.24 991.505 1000.11 990.713 999.868 990.017C999.63 989.321 999.275 988.771 998.804 988.366C998.334 987.962 997.747 987.76 997.044 987.76C996.335 987.76 995.739 987.962 995.255 988.366C994.777 988.771 994.416 989.321 994.171 990.017C993.932 990.713 993.813 991.505 993.813 992.393C993.813 993.282 993.932 994.074 994.171 994.77C994.416 995.466 994.777 996.016 995.255 996.42C995.739 996.818 996.335 997.017 997.044 997.017ZM1010.29 984.727L1013.09 990.067L1015.97 984.727H1020.31L1015.89 992.364L1020.43 1000H1016.11L1013.09 994.72L1010.13 1000H1005.75L1010.29 992.364L1005.91 984.727H1010.29Z" fill="white"/>
<rect width="260" height="1080" transform="translate(1660)" fill="#9B30B9"/>
<path d="M1733.77 550V529.636H1741.8C1743.35 529.636 1744.66 529.931 1745.75 530.521C1746.84 531.105 1747.67 531.917 1748.24 532.957C1748.81 533.991 1749.1 535.185 1749.1 536.537C1749.1 537.889 1748.81 539.082 1748.23 540.116C1747.64 541.151 1746.8 541.956 1745.69 542.533C1744.59 543.109 1743.26 543.398 1741.69 543.398H1736.57V539.947H1741C1741.83 539.947 1742.51 539.805 1743.05 539.52C1743.59 539.228 1743.99 538.827 1744.26 538.317C1744.53 537.8 1744.67 537.206 1744.67 536.537C1744.67 535.861 1744.53 535.271 1744.26 534.767C1743.99 534.257 1743.59 533.862 1743.05 533.584C1742.5 533.299 1741.81 533.156 1740.98 533.156H1738.08V550H1733.77ZM1751.82 550V534.727H1755.93V537.392H1756.08C1756.36 536.444 1756.83 535.728 1757.49 535.244C1758.14 534.754 1758.9 534.509 1759.75 534.509C1759.97 534.509 1760.19 534.522 1760.44 534.548C1760.69 534.575 1760.9 534.611 1761.09 534.658V538.416C1760.89 538.357 1760.61 538.304 1760.26 538.257C1759.91 538.211 1759.59 538.188 1759.3 538.188C1758.67 538.188 1758.12 538.323 1757.63 538.595C1757.14 538.86 1756.76 539.232 1756.47 539.709C1756.19 540.186 1756.06 540.736 1756.06 541.359V550H1751.82ZM1769.47 550.298C1767.92 550.298 1766.59 549.97 1765.46 549.314C1764.34 548.651 1763.47 547.73 1762.86 546.55C1762.25 545.363 1761.95 543.988 1761.95 542.423C1761.95 540.846 1762.25 539.467 1762.86 538.287C1763.47 537.1 1764.34 536.179 1765.46 535.523C1766.59 534.86 1767.92 534.528 1769.47 534.528C1771.01 534.528 1772.34 534.86 1773.46 535.523C1774.59 536.179 1775.46 537.1 1776.07 538.287C1776.68 539.467 1776.98 540.846 1776.98 542.423C1776.98 543.988 1776.68 545.363 1776.07 546.55C1775.46 547.73 1774.59 548.651 1773.46 549.314C1772.34 549.97 1771.01 550.298 1769.47 550.298ZM1769.49 547.017C1770.19 547.017 1770.78 546.818 1771.25 546.42C1771.72 546.016 1772.07 545.466 1772.31 544.77C1772.55 544.074 1772.68 543.282 1772.68 542.393C1772.68 541.505 1772.55 540.713 1772.31 540.017C1772.07 539.321 1771.72 538.771 1771.25 538.366C1770.78 537.962 1770.19 537.76 1769.49 537.76C1768.78 537.76 1768.18 537.962 1767.7 538.366C1767.22 538.771 1766.86 539.321 1766.61 540.017C1766.37 540.713 1766.25 541.505 1766.25 542.393C1766.25 543.282 1766.37 544.074 1766.61 544.77C1766.86 545.466 1767.22 546.016 1767.7 546.42C1768.18 546.818 1768.78 547.017 1769.49 547.017ZM1779.74 550V534.727H1783.77V537.422H1783.95C1784.27 536.527 1784.8 535.821 1785.54 535.304C1786.29 534.787 1787.17 534.528 1788.21 534.528C1789.26 534.528 1790.15 534.79 1790.88 535.314C1791.62 535.831 1792.11 536.534 1792.36 537.422H1792.51C1792.83 536.547 1793.39 535.848 1794.2 535.324C1795.03 534.794 1796 534.528 1797.12 534.528C1798.54 534.528 1799.7 534.982 1800.59 535.891C1801.48 536.792 1801.93 538.071 1801.93 539.729V550H1797.7V540.564C1797.7 539.715 1797.48 539.079 1797.03 538.655C1796.58 538.231 1796.01 538.018 1795.34 538.018C1794.57 538.018 1793.97 538.264 1793.54 538.754C1793.11 539.238 1792.89 539.878 1792.89 540.673V550H1788.79V540.474C1788.79 539.725 1788.57 539.129 1788.14 538.685C1787.71 538.241 1787.15 538.018 1786.46 538.018C1785.99 538.018 1785.56 538.138 1785.19 538.376C1784.81 538.608 1784.52 538.937 1784.3 539.361C1784.08 539.778 1783.97 540.269 1783.97 540.832V550H1779.74ZM1805.28 555.727V534.727H1809.45V537.293H1809.64C1809.83 536.882 1810.1 536.464 1810.45 536.04C1810.8 535.609 1811.27 535.251 1811.84 534.966C1812.42 534.674 1813.13 534.528 1813.99 534.528C1815.1 534.528 1816.13 534.82 1817.07 535.403C1818.01 535.98 1818.76 536.852 1819.33 538.018C1819.89 539.179 1820.17 540.634 1820.17 542.384C1820.17 544.087 1819.9 545.526 1819.35 546.699C1818.8 547.866 1818.06 548.75 1817.12 549.354C1816.18 549.95 1815.14 550.249 1813.98 550.249C1813.15 550.249 1812.46 550.113 1811.88 549.841C1811.31 549.569 1810.84 549.228 1810.48 548.817C1810.11 548.399 1809.83 547.978 1809.64 547.554H1809.51V555.727H1805.28ZM1809.42 542.364C1809.42 543.272 1809.55 544.064 1809.8 544.74C1810.05 545.416 1810.42 545.943 1810.89 546.321C1811.37 546.692 1811.95 546.878 1812.63 546.878C1813.32 546.878 1813.91 546.689 1814.38 546.311C1814.86 545.927 1815.22 545.396 1815.47 544.72C1815.72 544.037 1815.85 543.252 1815.85 542.364C1815.85 541.482 1815.72 540.706 1815.48 540.037C1815.23 539.367 1814.87 538.844 1814.39 538.466C1813.92 538.088 1813.33 537.899 1812.63 537.899C1811.94 537.899 1811.36 538.081 1810.88 538.446C1810.41 538.811 1810.05 539.328 1809.8 539.997C1809.55 540.667 1809.42 541.455 1809.42 542.364ZM1831.12 534.727V537.909H1821.92V534.727H1831.12ZM1824.01 531.068H1828.25V545.307C1828.25 545.698 1828.3 546.003 1828.42 546.222C1828.54 546.434 1828.71 546.583 1828.92 546.669C1829.14 546.755 1829.39 546.798 1829.68 546.798C1829.88 546.798 1830.07 546.782 1830.27 546.749C1830.47 546.709 1830.62 546.679 1830.73 546.659L1831.4 549.811C1831.18 549.877 1830.89 549.954 1830.5 550.04C1830.12 550.133 1829.65 550.189 1829.1 550.209C1828.08 550.249 1827.18 550.113 1826.42 549.801C1825.65 549.49 1825.06 549.006 1824.64 548.349C1824.21 547.693 1824 546.865 1824.01 545.864V531.068ZM1846.39 539.082L1842.52 539.321C1842.45 538.99 1842.31 538.691 1842.09 538.426C1841.87 538.154 1841.58 537.939 1841.22 537.78C1840.87 537.614 1840.45 537.531 1839.96 537.531C1839.3 537.531 1838.75 537.67 1838.3 537.949C1837.85 538.221 1837.62 538.585 1837.62 539.043C1837.62 539.407 1837.77 539.715 1838.06 539.967C1838.35 540.219 1838.85 540.421 1839.56 540.574L1842.33 541.131C1843.81 541.436 1844.92 541.926 1845.65 542.602C1846.38 543.278 1846.74 544.167 1846.74 545.267C1846.74 546.268 1846.45 547.146 1845.86 547.902C1845.27 548.658 1844.47 549.248 1843.45 549.672C1842.44 550.089 1841.27 550.298 1839.94 550.298C1837.92 550.298 1836.31 549.877 1835.11 549.036C1833.92 548.187 1833.22 547.034 1833.01 545.575L1837.18 545.357C1837.3 545.973 1837.61 546.444 1838.09 546.768C1838.58 547.087 1839.19 547.246 1839.95 547.246C1840.69 547.246 1841.29 547.103 1841.74 546.818C1842.2 546.527 1842.43 546.152 1842.44 545.695C1842.43 545.31 1842.27 544.995 1841.95 544.75C1841.63 544.498 1841.14 544.306 1840.48 544.173L1837.83 543.646C1836.34 543.348 1835.23 542.831 1834.5 542.095C1833.78 541.359 1833.42 540.421 1833.42 539.281C1833.42 538.3 1833.68 537.455 1834.21 536.746C1834.75 536.036 1835.5 535.49 1836.47 535.105C1837.44 534.721 1838.59 534.528 1839.89 534.528C1841.82 534.528 1843.34 534.936 1844.44 535.751C1845.56 536.567 1846.21 537.677 1846.39 539.082Z" fill="white"/>
</g>
<defs>
<clipPath id="clip0_23196_124317">
<rect width="1920" height="1080" fill="white"/>
</clipPath>
</defs>
</svg>
