<svg width="386" height="368" viewBox="0 0 386 368" fill="none" xmlns="http://www.w3.org/2000/svg">
<rect x="163.715" y="27.3672" width="51.8507" height="51.8507" fill="#D9D9D9"/>
<path d="M183.705 65.5703H178.432L186.466 42.2976H192.807L200.83 65.5703H195.557L189.728 47.6158H189.546L183.705 65.5703ZM183.375 56.4226H195.83V60.2635H183.375V56.4226Z" fill="black"/>
<rect x="24.4805" y="190.602" width="51.8507" height="51.8507" fill="#D9D9D9"/>
<path d="M49.2777 228.805H41.0277V205.532H49.3459C51.6868 205.532 53.702 205.998 55.3914 206.93C57.0808 207.854 58.38 209.183 59.2891 210.918C60.2058 212.653 60.6641 214.729 60.6641 217.146C60.6641 219.57 60.2058 221.653 59.2891 223.396C58.38 225.138 57.0732 226.475 55.3686 227.407C53.6717 228.339 51.6414 228.805 49.2777 228.805ZM45.9482 224.589H49.0732C50.5277 224.589 51.7512 224.331 52.7436 223.816C53.7436 223.293 54.4936 222.487 54.9936 221.396C55.5012 220.297 55.755 218.88 55.755 217.146C55.755 215.426 55.5012 214.021 54.9936 212.93C54.4936 211.839 53.7474 211.036 52.755 210.521C51.7626 210.005 50.5391 209.748 49.0845 209.748H45.9482V224.589Z" fill="black"/>
<rect x="203.078" y="190.602" width="51.8507" height="51.8507" fill="#D9D9D9"/>
<path d="M221.664 228.805V205.532H237.073V209.589H226.585V215.134H236.051V219.191H226.585V228.805H221.664Z" fill="black"/>
<rect x="306.781" y="190.602" width="51.8507" height="51.8507" fill="#D9D9D9"/>
<path d="M338.229 213.055C338.07 212.502 337.846 212.013 337.558 211.589C337.27 211.157 336.918 210.793 336.501 210.498C336.092 210.195 335.623 209.964 335.092 209.805C334.57 209.646 333.99 209.566 333.354 209.566C332.164 209.566 331.119 209.862 330.217 210.452C329.323 211.043 328.626 211.903 328.126 213.032C327.626 214.153 327.376 215.524 327.376 217.146C327.376 218.767 327.623 220.146 328.115 221.282C328.607 222.418 329.304 223.286 330.206 223.884C331.107 224.475 332.172 224.771 333.399 224.771C334.513 224.771 335.464 224.574 336.251 224.18C337.047 223.778 337.653 223.214 338.07 222.487C338.494 221.759 338.706 220.899 338.706 219.907L339.706 220.055H333.706V216.35H343.445V219.282C343.445 221.327 343.013 223.085 342.149 224.555C341.286 226.017 340.096 227.146 338.581 227.941C337.066 228.729 335.331 229.123 333.376 229.123C331.195 229.123 329.278 228.642 327.626 227.68C325.975 226.71 324.687 225.335 323.763 223.555C322.846 221.767 322.388 219.646 322.388 217.191C322.388 215.305 322.661 213.623 323.206 212.146C323.759 210.661 324.532 209.403 325.524 208.373C326.517 207.343 327.672 206.558 328.99 206.021C330.308 205.483 331.736 205.214 333.274 205.214C334.592 205.214 335.82 205.407 336.956 205.793C338.092 206.172 339.1 206.71 339.979 207.407C340.865 208.104 341.589 208.933 342.149 209.896C342.71 210.85 343.07 211.903 343.229 213.055H338.229Z" fill="black"/>
<path d="M163.887 51.5391L107.914 51.5375C105.153 51.5374 102.914 53.776 102.914 56.5375L102.914 114.432" stroke="#D9D9D9" stroke-width="3"/>
<path d="M111.609 142.336L55.6367 142.334C52.8752 142.334 50.6366 144.573 50.6366 147.334L50.6367 205.229" stroke="#D9D9D9" stroke-width="3"/>
<path d="M251.811 141.866L233.273 142.055C230.517 142.083 228.303 144.336 228.324 147.092L228.748 203.309" stroke="#D9D9D9" stroke-width="3"/>
<path d="M255.172 317.828L159.831 317.828C157.07 317.828 154.831 315.59 154.831 312.828L154.831 240.772" stroke="#D9D9D9" stroke-width="3"/>
<path d="M93.6211 142.336L149.594 142.334C152.355 142.334 154.594 144.573 154.594 147.334L154.594 205.229" stroke="#D9D9D9" stroke-width="3"/>
<path d="M299.822 142.351L327.716 142.351C330.477 142.351 332.716 144.589 332.716 147.351L332.716 200.921" stroke="#D9D9D9" stroke-width="3"/>
<path d="M307.024 317.579L327.82 317.578C330.582 317.578 332.82 315.339 332.82 312.578L332.82 239.804" stroke="#D9D9D9" stroke-width="3"/>
<path d="M214.605 51.6016L270.578 51.6C273.34 51.5999 275.578 53.8385 275.578 56.6L275.578 114.495" stroke="#D9D9D9" stroke-width="3"/>
<rect x="76.3359" y="114.266" width="51.8507" height="51.8507" fill="#D9D9D9"/>
<path d="M93.9464 152.469V129.196H103.265C104.977 129.196 106.405 129.45 107.549 129.957C108.693 130.465 109.552 131.17 110.128 132.071C110.704 132.965 110.992 133.995 110.992 135.162C110.992 136.071 110.81 136.87 110.446 137.56C110.083 138.241 109.583 138.802 108.946 139.241C108.318 139.673 107.598 139.98 106.787 140.162V140.389C107.674 140.427 108.503 140.677 109.276 141.139C110.056 141.601 110.689 142.249 111.174 143.082C111.659 143.908 111.901 144.893 111.901 146.037C111.901 147.272 111.594 148.374 110.981 149.344C110.374 150.306 109.477 151.067 108.287 151.628C107.098 152.188 105.632 152.469 103.89 152.469H93.9464ZM98.8669 148.446H102.878C104.249 148.446 105.249 148.185 105.878 147.662C106.507 147.132 106.821 146.427 106.821 145.548C106.821 144.904 106.666 144.336 106.356 143.844C106.045 143.351 105.602 142.965 105.026 142.685C104.458 142.404 103.78 142.264 102.992 142.264H98.8669V148.446ZM98.8669 138.935H102.515C103.189 138.935 103.787 138.817 104.31 138.582C104.84 138.34 105.257 137.999 105.56 137.56C105.871 137.12 106.026 136.594 106.026 135.98C106.026 135.139 105.727 134.461 105.128 133.946C104.537 133.431 103.696 133.173 102.606 133.173H98.8669V138.935Z" fill="black"/>
<rect x="128.184" y="190.602" width="51.8507" height="51.8507" fill="#D9D9D9"/>
<path d="M146.332 228.805V205.532H162.014V209.589H151.252V215.134H161.207V219.191H151.252V224.748H162.059V228.805H146.332Z" fill="black"/>
<rect x="251.094" y="114.266" width="51.8507" height="51.8507" fill="#D9D9D9"/>
<path d="M287.784 137.344H282.807C282.716 136.7 282.53 136.128 282.25 135.628C281.97 135.12 281.61 134.688 281.17 134.332C280.731 133.976 280.223 133.704 279.648 133.514C279.08 133.325 278.462 133.23 277.795 133.23C276.591 133.23 275.542 133.529 274.648 134.128C273.754 134.719 273.061 135.582 272.568 136.719C272.076 137.848 271.83 139.219 271.83 140.832C271.83 142.491 272.076 143.885 272.568 145.014C273.068 146.143 273.765 146.995 274.659 147.571C275.553 148.147 276.587 148.435 277.761 148.435C278.42 148.435 279.03 148.348 279.591 148.173C280.159 147.999 280.663 147.745 281.102 147.412C281.542 147.071 281.905 146.658 282.193 146.173C282.489 145.688 282.693 145.135 282.807 144.514L287.784 144.537C287.655 145.605 287.333 146.635 286.818 147.628C286.311 148.613 285.625 149.495 284.761 150.276C283.905 151.048 282.883 151.662 281.693 152.116C280.511 152.563 279.174 152.787 277.682 152.787C275.606 152.787 273.75 152.317 272.114 151.378C270.485 150.438 269.197 149.079 268.25 147.298C267.311 145.518 266.841 143.363 266.841 140.832C266.841 138.295 267.318 136.135 268.273 134.355C269.227 132.575 270.523 131.219 272.159 130.287C273.795 129.348 275.636 128.878 277.682 128.878C279.03 128.878 280.28 129.067 281.432 129.446C282.591 129.825 283.617 130.378 284.511 131.105C285.405 131.825 286.133 132.707 286.693 133.753C287.261 134.798 287.625 135.995 287.784 137.344Z" fill="black"/>
<rect x="254.934" y="290.461" width="51.8507" height="51.8507" fill="url(#paint0_linear_1795_23553)" fill-opacity="0.6"/>
<path d="M276.058 305.391L280.751 313.323H280.933L285.648 305.391H291.205L284.103 317.028L291.364 328.664H285.705L280.933 320.721H280.751L275.978 328.664H270.342L277.626 317.028L270.478 305.391H276.058Z" fill="#090D13"/>
<defs>
<linearGradient id="paint0_linear_1795_23553" x1="257.334" y1="320.467" x2="306.544" y2="320.467" gradientUnits="userSpaceOnUse">
<stop stop-color="#F604FE"/>
<stop offset="1" stop-color="#00DBDE"/>
</linearGradient>
</defs>
</svg>
