<svg width="386" height="361" viewBox="0 0 386 361" fill="none" xmlns="http://www.w3.org/2000/svg">
<rect x="163" y="27.3672" width="51.8507" height="51.8507" fill="#D9D9D9"/>
<path d="M183.705 65.5703H178.432L186.466 42.2976H192.807L200.83 65.5703H195.557L189.728 47.6158H189.546L183.705 65.5703ZM183.375 56.4226H195.83V60.2635H183.375V56.4226Z" fill="black"/>
<rect x="251" y="203" width="51.8507" height="51.8507" fill="#D9D9D9"/>
<path d="M275.395 241H267.145V217.727H275.463C277.804 217.727 279.819 218.193 281.508 219.125C283.198 220.049 284.497 221.379 285.406 223.114C286.323 224.848 286.781 226.924 286.781 229.341C286.781 231.765 286.323 233.848 285.406 235.591C284.497 237.333 283.19 238.67 281.485 239.602C279.788 240.534 277.758 241 275.395 241ZM272.065 236.784H275.19C276.645 236.784 277.868 236.527 278.86 236.011C279.86 235.489 280.61 234.682 281.11 233.591C281.618 232.492 281.872 231.076 281.872 229.341C281.872 227.621 281.618 226.216 281.11 225.125C280.61 224.034 279.864 223.231 278.872 222.716C277.879 222.201 276.656 221.943 275.201 221.943H272.065V236.784Z" fill="black"/>
<path d="M101.853 113.061C102.439 113.646 103.389 113.646 103.975 113.061L113.52 103.515C114.106 102.929 114.106 101.979 113.52 101.393C112.935 100.808 111.985 100.808 111.399 101.393L102.914 109.879L94.4286 101.393C93.8428 100.808 92.8931 100.808 92.3073 101.393C91.7215 101.979 91.7215 102.929 92.3073 103.515L101.853 113.061ZM107.914 51.5375L107.914 53.0375L107.914 51.5375ZM163.887 50.0391L107.914 50.0375L107.914 53.0375L163.887 53.0391L163.887 50.0391ZM101.414 56.5375L101.414 112L104.414 112L104.414 56.5375L101.414 56.5375ZM107.914 50.0375C104.324 50.0374 101.414 52.9476 101.414 56.5375L104.414 56.5375C104.414 54.6045 105.981 53.0375 107.914 53.0375L107.914 50.0375Z" fill="#D9D9D9"/>
<path d="M191.265 291.059C190.68 291.646 189.731 291.647 189.144 291.062L179.584 281.53C178.998 280.945 178.996 279.995 179.581 279.409C180.166 278.822 181.116 278.821 181.702 279.406L190.2 287.879L198.673 279.381C199.258 278.794 200.208 278.793 200.794 279.378C201.381 279.963 201.382 280.913 200.797 281.499L191.265 291.059ZM191.652 254.998L191.703 289.998L188.703 290.002L188.652 255.002L191.652 254.998Z" fill="#D9D9D9"/>
<path d="M163.061 227.942C163.646 228.527 163.646 229.477 163.061 230.063L153.515 239.609C152.929 240.195 151.979 240.195 151.393 239.609C150.808 239.023 150.808 238.073 151.393 237.488L159.879 229.002L151.393 220.517C150.808 219.931 150.808 218.981 151.393 218.396C151.979 217.81 152.929 217.81 153.515 218.396L163.061 227.942ZM102.742 166.013L102.741 224.002L99.7413 224.002L99.7416 166.013L102.742 166.013ZM106.241 227.502L162 227.502L162 230.502L106.241 230.502L106.241 227.502ZM102.741 224.002C102.741 225.935 104.308 227.502 106.241 227.502L106.241 230.502C102.651 230.502 99.7413 227.592 99.7413 224.002L102.741 224.002Z" fill="#D9D9D9"/>
<path d="M277.798 202.553C277.212 203.138 276.262 203.138 275.676 202.552L266.135 193.001C265.55 192.415 265.55 191.465 266.136 190.88C266.722 190.294 267.672 190.295 268.257 190.881L276.739 199.37L285.228 190.889C285.814 190.304 286.764 190.304 287.349 190.89C287.935 191.476 287.934 192.426 287.348 193.011L277.798 202.553ZM276.745 185.984L278.245 185.983L278.245 185.984L276.745 185.984ZM278.241 165.996L278.245 185.983L275.245 185.984L275.241 165.996L278.241 165.996ZM278.245 185.984L278.238 201.492L275.238 201.491L275.245 185.983L278.245 185.984Z" fill="#D9D9D9"/>
<path d="M215.948 227.931C215.357 228.512 215.35 229.462 215.931 230.052L225.402 239.673C225.983 240.263 226.933 240.271 227.523 239.689C228.114 239.108 228.121 238.159 227.54 237.568L219.121 229.017L227.673 220.598C228.263 220.017 228.271 219.067 227.689 218.477C227.108 217.886 226.159 217.879 225.568 218.46L215.948 227.931ZM230.489 229.106L230.477 230.606L230.478 230.606L230.489 229.106ZM216.988 230.5L230.477 230.606L230.501 227.606L217.012 227.5L216.988 230.5ZM230.478 230.606L250.983 230.76L251.006 227.76L230.5 227.606L230.478 230.606Z" fill="#D9D9D9"/>
<path d="M276.639 113.561C276.053 114.146 275.103 114.146 274.518 113.561L264.972 104.015C264.386 103.429 264.386 102.479 264.972 101.893C265.557 101.308 266.507 101.308 267.093 101.893L275.578 110.379L284.064 101.893C284.649 101.308 285.599 101.308 286.185 101.893C286.771 102.479 286.771 103.429 286.185 104.015L276.639 113.561ZM270.578 51.6L270.578 53.1L270.578 51.6ZM275.578 56.6L274.078 56.6L275.578 56.6ZM214.605 50.1016L270.578 50.1L270.578 53.1L214.606 53.1016L214.605 50.1016ZM277.078 56.6L277.078 112.5L274.078 112.5L274.078 56.6L277.078 56.6ZM270.578 50.1C274.168 50.0999 277.078 53.0101 277.078 56.6L274.078 56.6C274.078 54.667 272.511 53.1 270.578 53.1L270.578 50.1Z" fill="#D9D9D9"/>
<rect x="76.3359" y="114" width="51.8507" height="51.8507" fill="#D9D9D9"/>
<path d="M93.9464 152.469V129.196H103.265C104.977 129.196 106.405 129.45 107.549 129.957C108.693 130.465 109.552 131.17 110.128 132.071C110.704 132.965 110.992 133.995 110.992 135.162C110.992 136.071 110.81 136.87 110.446 137.56C110.083 138.241 109.583 138.802 108.946 139.241C108.318 139.673 107.598 139.98 106.787 140.162V140.389C107.674 140.427 108.503 140.677 109.276 141.139C110.056 141.601 110.689 142.249 111.174 143.082C111.659 143.908 111.901 144.893 111.901 146.037C111.901 147.272 111.594 148.374 110.981 149.344C110.374 150.306 109.477 151.067 108.287 151.628C107.098 152.188 105.632 152.469 103.89 152.469H93.9464ZM98.8669 148.446H102.878C104.249 148.446 105.249 148.185 105.878 147.662C106.507 147.132 106.821 146.427 106.821 145.548C106.821 144.904 106.666 144.336 106.356 143.844C106.045 143.351 105.602 142.965 105.026 142.685C104.458 142.404 103.78 142.264 102.992 142.264H98.8669V148.446ZM98.8669 138.935H102.515C103.189 138.935 103.787 138.817 104.31 138.582C104.84 138.34 105.257 137.999 105.56 137.56C105.871 137.12 106.026 136.594 106.026 135.98C106.026 135.139 105.727 134.461 105.128 133.946C104.537 133.431 103.696 133.173 102.606 133.173H98.8669V138.935Z" fill="black"/>
<rect x="163" y="293" width="51.8507" height="51.8507" fill="#D9D9D9"/>
<path d="M181.828 331.203V307.93H197.51V311.987H186.748V317.533H196.703V321.589H186.748V327.146H197.555V331.203H181.828Z" fill="black"/>
<rect x="251" y="114" width="51.8507" height="51.8507" fill="#D9D9D9"/>
<path d="M287.288 136.875H282.311C282.22 136.231 282.034 135.659 281.754 135.159C281.474 134.652 281.114 134.22 280.674 133.864C280.235 133.508 279.727 133.235 279.152 133.045C278.583 132.856 277.966 132.761 277.299 132.761C276.095 132.761 275.046 133.061 274.152 133.659C273.258 134.25 272.565 135.114 272.072 136.25C271.58 137.379 271.333 138.75 271.333 140.364C271.333 142.023 271.58 143.417 272.072 144.545C272.572 145.674 273.269 146.527 274.163 147.102C275.057 147.678 276.091 147.966 277.265 147.966C277.924 147.966 278.534 147.879 279.095 147.705C279.663 147.53 280.167 147.277 280.606 146.943C281.046 146.602 281.409 146.189 281.697 145.705C281.993 145.22 282.197 144.667 282.311 144.045L287.288 144.068C287.159 145.136 286.837 146.167 286.322 147.159C285.815 148.144 285.129 149.027 284.265 149.807C283.409 150.58 282.386 151.193 281.197 151.648C280.015 152.095 278.678 152.318 277.186 152.318C275.11 152.318 273.254 151.848 271.618 150.909C269.989 149.97 268.701 148.61 267.754 146.83C266.815 145.049 266.345 142.894 266.345 140.364C266.345 137.826 266.822 135.667 267.777 133.886C268.731 132.106 270.027 130.75 271.663 129.818C273.299 128.879 275.14 128.409 277.186 128.409C278.534 128.409 279.784 128.598 280.936 128.977C282.095 129.356 283.121 129.909 284.015 130.636C284.909 131.356 285.636 132.239 286.197 133.284C286.765 134.33 287.129 135.527 287.288 136.875Z" fill="black"/>
<rect x="163" y="203" width="51.8507" height="51.8507" fill="url(#paint0_linear_1811_27488)" fill-opacity="0.6"/>
<path d="M184.199 217.727L188.892 225.659H189.074L193.79 217.727H199.347L192.244 229.364L199.506 241H193.847L189.074 233.057H188.892L184.119 241H178.483L185.767 229.364L178.619 217.727H184.199Z" fill="#090D13"/>
<defs>
<linearGradient id="paint0_linear_1811_27488" x1="165.4" y1="233.006" x2="214.611" y2="233.006" gradientUnits="userSpaceOnUse">
<stop stop-color="#F604FE"/>
<stop offset="1" stop-color="#00DBDE"/>
</linearGradient>
</defs>
</svg>
