<svg width="1367" height="533" viewBox="0 0 1367 533" fill="none" xmlns="http://www.w3.org/2000/svg">
<path d="M591.963 193V178.455H596.877C598.018 178.455 598.951 178.661 599.676 179.072C600.405 179.48 600.945 180.031 601.295 180.727C601.645 181.423 601.82 182.2 601.82 183.057C601.82 183.914 601.645 184.693 601.295 185.393C600.949 186.094 600.414 186.653 599.69 187.07C598.965 187.482 598.037 187.688 596.906 187.688H593.383V186.125H596.849C597.63 186.125 598.258 185.99 598.731 185.72C599.204 185.45 599.548 185.086 599.761 184.626C599.979 184.162 600.088 183.639 600.088 183.057C600.088 182.474 599.979 181.954 599.761 181.494C599.548 181.035 599.202 180.675 598.724 180.415C598.246 180.15 597.611 180.017 596.82 180.017H593.724V193H591.963ZM608.887 193.227C607.836 193.227 606.929 192.995 606.167 192.531C605.41 192.062 604.825 191.409 604.413 190.571C604.006 189.728 603.802 188.748 603.802 187.631C603.802 186.513 604.006 185.528 604.413 184.676C604.825 183.819 605.398 183.152 606.132 182.673C606.87 182.19 607.732 181.949 608.717 181.949C609.285 181.949 609.846 182.044 610.4 182.233C610.954 182.422 611.458 182.73 611.913 183.156C612.367 183.578 612.73 184.136 612.999 184.832C613.269 185.528 613.404 186.385 613.404 187.403V188.114H604.995V186.665H611.7C611.7 186.049 611.577 185.5 611.33 185.017C611.089 184.534 610.743 184.153 610.294 183.874C609.848 183.594 609.323 183.455 608.717 183.455C608.049 183.455 607.472 183.62 606.984 183.952C606.501 184.278 606.129 184.705 605.869 185.23C605.608 185.756 605.478 186.319 605.478 186.92V187.886C605.478 188.71 605.62 189.409 605.904 189.982C606.193 190.55 606.593 190.983 607.105 191.281C607.616 191.575 608.21 191.722 608.887 191.722C609.328 191.722 609.725 191.66 610.08 191.537C610.44 191.409 610.75 191.22 611.011 190.969C611.271 190.713 611.472 190.396 611.615 190.017L613.234 190.472C613.063 191.021 612.777 191.504 612.374 191.92C611.972 192.332 611.475 192.654 610.883 192.886C610.291 193.114 609.626 193.227 608.887 193.227ZM615.954 193V182.091H617.573V183.739H617.687C617.886 183.199 618.246 182.761 618.767 182.425C619.287 182.089 619.874 181.92 620.528 181.92C620.651 181.92 620.805 181.923 620.99 181.928C621.174 181.932 621.314 181.939 621.409 181.949V183.653C621.352 183.639 621.222 183.618 621.018 183.589C620.819 183.556 620.608 183.54 620.386 183.54C619.856 183.54 619.382 183.651 618.965 183.874C618.553 184.091 618.227 184.394 617.985 184.783C617.749 185.166 617.63 185.604 617.63 186.097V193H615.954ZM628.845 185.983V187.545H622.481V185.983H628.845ZM631.794 193V182.091H633.413V183.739H633.527C633.726 183.199 634.086 182.761 634.606 182.425C635.127 182.089 635.714 181.92 636.368 181.92C636.491 181.92 636.645 181.923 636.829 181.928C637.014 181.932 637.154 181.939 637.248 181.949V183.653C637.192 183.639 637.061 183.618 636.858 183.589C636.659 183.556 636.448 183.54 636.226 183.54C635.695 183.54 635.222 183.651 634.805 183.874C634.393 184.091 634.067 184.394 633.825 184.783C633.588 185.166 633.47 185.604 633.47 186.097V193H631.794ZM643.477 193.227C642.426 193.227 641.519 192.995 640.757 192.531C639.999 192.062 639.415 191.409 639.003 190.571C638.595 189.728 638.392 188.748 638.392 187.631C638.392 186.513 638.595 185.528 639.003 184.676C639.415 183.819 639.988 183.152 640.721 182.673C641.46 182.19 642.322 181.949 643.307 181.949C643.875 181.949 644.436 182.044 644.99 182.233C645.544 182.422 646.048 182.73 646.503 183.156C646.957 183.578 647.319 184.136 647.589 184.832C647.859 185.528 647.994 186.385 647.994 187.403V188.114H639.585V186.665H646.29C646.29 186.049 646.166 185.5 645.92 185.017C645.679 184.534 645.333 184.153 644.883 183.874C644.438 183.594 643.913 183.455 643.307 183.455C642.639 183.455 642.061 183.62 641.574 183.952C641.091 184.278 640.719 184.705 640.459 185.23C640.198 185.756 640.068 186.319 640.068 186.92V187.886C640.068 188.71 640.21 189.409 640.494 189.982C640.783 190.55 641.183 190.983 641.694 191.281C642.206 191.575 642.8 191.722 643.477 191.722C643.917 191.722 644.315 191.66 644.67 191.537C645.03 191.409 645.34 191.22 645.601 190.969C645.861 190.713 646.062 190.396 646.204 190.017L647.824 190.472C647.653 191.021 647.367 191.504 646.964 191.92C646.562 192.332 646.065 192.654 645.473 192.886C644.881 193.114 644.216 193.227 643.477 193.227ZM657.987 197.091V191.324H657.845C657.722 191.523 657.547 191.774 657.319 192.077C657.092 192.375 656.768 192.643 656.346 192.879C655.925 193.111 655.364 193.227 654.663 193.227C653.754 193.227 652.952 192.998 652.256 192.538C651.559 192.074 651.015 191.421 650.622 190.578C650.229 189.731 650.032 188.729 650.032 187.574C650.032 186.428 650.229 185.434 650.622 184.591C651.015 183.748 651.562 183.097 652.263 182.638C652.963 182.179 653.773 181.949 654.692 181.949C655.402 181.949 655.963 182.067 656.375 182.304C656.791 182.536 657.109 182.801 657.327 183.099C657.549 183.393 657.722 183.634 657.845 183.824H658.044V182.091H659.663V197.091H657.987ZM654.89 191.722C655.563 191.722 656.131 191.546 656.595 191.196C657.059 190.841 657.412 190.351 657.653 189.726C657.895 189.096 658.015 188.369 658.015 187.545C658.015 186.731 657.897 186.018 657.66 185.408C657.424 184.792 657.073 184.314 656.609 183.973C656.145 183.627 655.572 183.455 654.89 183.455C654.18 183.455 653.588 183.637 653.115 184.001C652.646 184.361 652.293 184.851 652.057 185.472C651.825 186.087 651.709 186.778 651.709 187.545C651.709 188.322 651.827 189.027 652.064 189.662C652.305 190.292 652.66 190.794 653.129 191.168C653.603 191.537 654.19 191.722 654.89 191.722ZM669.606 188.54V182.091H671.282V193H669.606V191.153H669.493C669.237 191.707 668.839 192.179 668.3 192.567C667.76 192.95 667.078 193.142 666.254 193.142C665.572 193.142 664.966 192.993 664.436 192.695C663.906 192.392 663.489 191.937 663.186 191.331C662.883 190.72 662.731 189.951 662.731 189.023V182.091H664.407V188.909C664.407 189.705 664.63 190.339 665.075 190.812C665.525 191.286 666.098 191.523 666.794 191.523C667.211 191.523 667.634 191.416 668.065 191.203C668.501 190.99 668.865 190.663 669.159 190.223C669.457 189.783 669.606 189.222 669.606 188.54ZM678.926 193.227C677.875 193.227 676.968 192.995 676.206 192.531C675.449 192.062 674.864 191.409 674.452 190.571C674.045 189.728 673.841 188.748 673.841 187.631C673.841 186.513 674.045 185.528 674.452 184.676C674.864 183.819 675.437 183.152 676.171 182.673C676.909 182.19 677.771 181.949 678.756 181.949C679.324 181.949 679.885 182.044 680.439 182.233C680.993 182.422 681.497 182.73 681.952 183.156C682.406 183.578 682.769 184.136 683.039 184.832C683.308 185.528 683.443 186.385 683.443 187.403V188.114H675.034V186.665H681.739C681.739 186.049 681.616 185.5 681.369 185.017C681.128 184.534 680.782 184.153 680.333 183.874C679.887 183.594 679.362 183.455 678.756 183.455C678.088 183.455 677.511 183.62 677.023 183.952C676.54 184.278 676.168 184.705 675.908 185.23C675.647 185.756 675.517 186.319 675.517 186.92V187.886C675.517 188.71 675.659 189.409 675.943 189.982C676.232 190.55 676.632 190.983 677.144 191.281C677.655 191.575 678.249 191.722 678.926 191.722C679.367 191.722 679.764 191.66 680.119 191.537C680.479 191.409 680.789 191.22 681.05 190.969C681.31 190.713 681.512 190.396 681.654 190.017L683.273 190.472C683.102 191.021 682.816 191.504 682.414 191.92C682.011 192.332 681.514 192.654 680.922 192.886C680.33 193.114 679.665 193.227 678.926 193.227ZM693.72 184.534L692.215 184.96C692.12 184.709 691.98 184.465 691.796 184.229C691.616 183.987 691.369 183.788 691.057 183.632C690.744 183.476 690.344 183.398 689.857 183.398C689.189 183.398 688.633 183.552 688.188 183.859C687.747 184.162 687.527 184.548 687.527 185.017C687.527 185.434 687.679 185.763 687.982 186.004C688.285 186.246 688.758 186.447 689.402 186.608L691.021 187.006C691.997 187.242 692.724 187.605 693.202 188.092C693.68 188.575 693.919 189.198 693.919 189.96C693.919 190.585 693.739 191.144 693.379 191.636C693.024 192.129 692.527 192.517 691.888 192.801C691.249 193.085 690.505 193.227 689.658 193.227C688.545 193.227 687.624 192.986 686.895 192.503C686.166 192.02 685.704 191.314 685.51 190.386L687.101 189.989C687.253 190.576 687.539 191.016 687.96 191.31C688.387 191.603 688.943 191.75 689.629 191.75C690.411 191.75 691.031 191.584 691.49 191.253C691.954 190.917 692.186 190.514 692.186 190.045C692.186 189.667 692.054 189.349 691.789 189.094C691.523 188.833 691.116 188.639 690.567 188.511L688.749 188.085C687.75 187.848 687.016 187.482 686.547 186.984C686.083 186.482 685.851 185.855 685.851 185.102C685.851 184.487 686.024 183.942 686.369 183.469C686.72 182.995 687.196 182.624 687.797 182.354C688.403 182.084 689.09 181.949 689.857 181.949C690.936 181.949 691.784 182.186 692.399 182.659C693.02 183.133 693.46 183.758 693.72 184.534ZM701.187 182.091V183.511H695.533V182.091H701.187ZM697.181 179.477H698.857V189.875C698.857 190.348 698.926 190.704 699.063 190.94C699.205 191.172 699.385 191.329 699.603 191.409C699.825 191.485 700.06 191.523 700.306 191.523C700.491 191.523 700.642 191.513 700.76 191.494C700.879 191.471 700.974 191.452 701.045 191.438L701.385 192.943C701.272 192.986 701.113 193.028 700.91 193.071C700.706 193.118 700.448 193.142 700.135 193.142C699.662 193.142 699.198 193.04 698.743 192.837C698.294 192.633 697.92 192.323 697.621 191.906C697.328 191.49 697.181 190.964 697.181 190.33V179.477ZM710.157 193H708.31L713.651 178.455H715.469L720.81 193H718.964L714.617 180.756H714.503L710.157 193ZM710.839 187.318H718.282V188.881H710.839V187.318ZM723.076 193V178.455H727.991C729.132 178.455 730.064 178.661 730.789 179.072C731.518 179.48 732.058 180.031 732.408 180.727C732.759 181.423 732.934 182.2 732.934 183.057C732.934 183.914 732.759 184.693 732.408 185.393C732.063 186.094 731.528 186.653 730.803 187.07C730.079 187.482 729.151 187.688 728.019 187.688H724.496V186.125H727.962C728.743 186.125 729.371 185.99 729.844 185.72C730.318 185.45 730.661 185.086 730.874 184.626C731.092 184.162 731.201 183.639 731.201 183.057C731.201 182.474 731.092 181.954 730.874 181.494C730.661 181.035 730.315 180.675 729.837 180.415C729.359 180.15 728.724 180.017 727.934 180.017H724.837V193H723.076ZM737.532 178.455V193H735.771V178.455H737.532ZM748.024 189.023L747.996 186.949H748.337L753.11 182.091H755.183L750.098 187.233H749.956L748.024 189.023ZM746.462 193V178.455H748.138V193H746.462ZM753.394 193L749.132 187.602L750.325 186.438L755.524 193H753.394ZM761.465 193.227C760.414 193.227 759.508 192.995 758.745 192.531C757.988 192.062 757.403 191.409 756.991 190.571C756.584 189.728 756.38 188.748 756.38 187.631C756.38 186.513 756.584 185.528 756.991 184.676C757.403 183.819 757.976 183.152 758.71 182.673C759.448 182.19 760.31 181.949 761.295 181.949C761.863 181.949 762.424 182.044 762.978 182.233C763.532 182.422 764.036 182.73 764.491 183.156C764.945 183.578 765.308 184.136 765.578 184.832C765.847 185.528 765.982 186.385 765.982 187.403V188.114H757.573V186.665H764.278C764.278 186.049 764.155 185.5 763.909 185.017C763.667 184.534 763.321 184.153 762.872 183.874C762.427 183.594 761.901 183.455 761.295 183.455C760.627 183.455 760.05 183.62 759.562 183.952C759.079 184.278 758.707 184.705 758.447 185.23C758.186 185.756 758.056 186.319 758.056 186.92V187.886C758.056 188.71 758.198 189.409 758.482 189.982C758.771 190.55 759.171 190.983 759.683 191.281C760.194 191.575 760.788 191.722 761.465 191.722C761.906 191.722 762.303 191.66 762.659 191.537C763.018 191.409 763.329 191.22 763.589 190.969C763.849 190.713 764.051 190.396 764.193 190.017L765.812 190.472C765.642 191.021 765.355 191.504 764.953 191.92C764.55 192.332 764.053 192.654 763.461 192.886C762.869 193.114 762.204 193.227 761.465 193.227ZM769.28 197.091C768.996 197.091 768.742 197.067 768.52 197.02C768.297 196.977 768.143 196.935 768.058 196.892L768.484 195.415C768.891 195.519 769.251 195.557 769.564 195.528C769.876 195.5 770.153 195.36 770.395 195.109C770.641 194.863 770.866 194.463 771.069 193.909L771.382 193.057L767.348 182.091H769.166L772.177 190.784H772.291L775.302 182.091H777.121L772.49 194.591C772.282 195.154 772.023 195.621 771.716 195.99C771.408 196.364 771.05 196.641 770.643 196.821C770.241 197.001 769.786 197.091 769.28 197.091Z" fill="black"/>
<path d="M942.963 335V320.455H947.877C949.018 320.455 949.951 320.661 950.676 321.072C951.405 321.48 951.945 322.031 952.295 322.727C952.645 323.423 952.82 324.2 952.82 325.057C952.82 325.914 952.645 326.693 952.295 327.393C951.949 328.094 951.414 328.653 950.69 329.07C949.965 329.482 949.037 329.688 947.906 329.688H944.383V328.125H947.849C948.63 328.125 949.258 327.99 949.731 327.72C950.204 327.45 950.548 327.086 950.761 326.626C950.979 326.162 951.088 325.639 951.088 325.057C951.088 324.474 950.979 323.954 950.761 323.494C950.548 323.035 950.202 322.675 949.724 322.415C949.246 322.15 948.611 322.017 947.82 322.017H944.724V335H942.963ZM959.887 335.227C958.836 335.227 957.929 334.995 957.167 334.531C956.41 334.062 955.825 333.409 955.413 332.571C955.006 331.728 954.802 330.748 954.802 329.631C954.802 328.513 955.006 327.528 955.413 326.676C955.825 325.819 956.398 325.152 957.132 324.673C957.87 324.19 958.732 323.949 959.717 323.949C960.285 323.949 960.846 324.044 961.4 324.233C961.954 324.422 962.458 324.73 962.913 325.156C963.367 325.578 963.73 326.136 963.999 326.832C964.269 327.528 964.404 328.385 964.404 329.403V330.114H955.995V328.665H962.7C962.7 328.049 962.577 327.5 962.33 327.017C962.089 326.534 961.743 326.153 961.294 325.874C960.848 325.594 960.323 325.455 959.717 325.455C959.049 325.455 958.472 325.62 957.984 325.952C957.501 326.278 957.129 326.705 956.869 327.23C956.608 327.756 956.478 328.319 956.478 328.92V329.886C956.478 330.71 956.62 331.409 956.904 331.982C957.193 332.55 957.593 332.983 958.105 333.281C958.616 333.575 959.21 333.722 959.887 333.722C960.328 333.722 960.725 333.66 961.08 333.537C961.44 333.409 961.75 333.22 962.011 332.969C962.271 332.713 962.472 332.396 962.615 332.017L964.234 332.472C964.063 333.021 963.777 333.504 963.374 333.92C962.972 334.332 962.475 334.654 961.883 334.886C961.291 335.114 960.626 335.227 959.887 335.227ZM966.954 335V324.091H968.573V325.739H968.687C968.886 325.199 969.246 324.761 969.767 324.425C970.287 324.089 970.874 323.92 971.528 323.92C971.651 323.92 971.805 323.923 971.99 323.928C972.174 323.932 972.314 323.939 972.409 323.949V325.653C972.352 325.639 972.222 325.618 972.018 325.589C971.819 325.556 971.608 325.54 971.386 325.54C970.856 325.54 970.382 325.651 969.965 325.874C969.553 326.091 969.227 326.394 968.985 326.783C968.749 327.166 968.63 327.604 968.63 328.097V335H966.954ZM979.845 327.983V329.545H973.481V327.983H979.845ZM982.794 335V324.091H984.413V325.739H984.527C984.726 325.199 985.086 324.761 985.606 324.425C986.127 324.089 986.714 323.92 987.368 323.92C987.491 323.92 987.645 323.923 987.829 323.928C988.014 323.932 988.154 323.939 988.248 323.949V325.653C988.192 325.639 988.061 325.618 987.858 325.589C987.659 325.556 987.448 325.54 987.226 325.54C986.695 325.54 986.222 325.651 985.805 325.874C985.393 326.091 985.067 326.394 984.825 326.783C984.588 327.166 984.47 327.604 984.47 328.097V335H982.794ZM994.477 335.227C993.426 335.227 992.519 334.995 991.757 334.531C990.999 334.062 990.415 333.409 990.003 332.571C989.595 331.728 989.392 330.748 989.392 329.631C989.392 328.513 989.595 327.528 990.003 326.676C990.415 325.819 990.988 325.152 991.721 324.673C992.46 324.19 993.322 323.949 994.307 323.949C994.875 323.949 995.436 324.044 995.99 324.233C996.544 324.422 997.048 324.73 997.503 325.156C997.957 325.578 998.319 326.136 998.589 326.832C998.859 327.528 998.994 328.385 998.994 329.403V330.114H990.585V328.665H997.29C997.29 328.049 997.166 327.5 996.92 327.017C996.679 326.534 996.333 326.153 995.883 325.874C995.438 325.594 994.913 325.455 994.307 325.455C993.639 325.455 993.061 325.62 992.574 325.952C992.091 326.278 991.719 326.705 991.459 327.23C991.198 327.756 991.068 328.319 991.068 328.92V329.886C991.068 330.71 991.21 331.409 991.494 331.982C991.783 332.55 992.183 332.983 992.694 333.281C993.206 333.575 993.8 333.722 994.477 333.722C994.917 333.722 995.315 333.66 995.67 333.537C996.03 333.409 996.34 333.22 996.601 332.969C996.861 332.713 997.062 332.396 997.204 332.017L998.824 332.472C998.653 333.021 998.367 333.504 997.964 333.92C997.562 334.332 997.065 334.654 996.473 334.886C995.881 335.114 995.216 335.227 994.477 335.227ZM1008.99 339.091V333.324H1008.84C1008.72 333.523 1008.55 333.774 1008.32 334.077C1008.09 334.375 1007.77 334.643 1007.35 334.879C1006.93 335.111 1006.36 335.227 1005.66 335.227C1004.75 335.227 1003.95 334.998 1003.26 334.538C1002.56 334.074 1002.01 333.421 1001.62 332.578C1001.23 331.731 1001.03 330.729 1001.03 329.574C1001.03 328.428 1001.23 327.434 1001.62 326.591C1002.01 325.748 1002.56 325.097 1003.26 324.638C1003.96 324.179 1004.77 323.949 1005.69 323.949C1006.4 323.949 1006.96 324.067 1007.37 324.304C1007.79 324.536 1008.11 324.801 1008.33 325.099C1008.55 325.393 1008.72 325.634 1008.84 325.824H1009.04V324.091H1010.66V339.091H1008.99ZM1005.89 333.722C1006.56 333.722 1007.13 333.546 1007.59 333.196C1008.06 332.841 1008.41 332.351 1008.65 331.726C1008.89 331.096 1009.02 330.369 1009.02 329.545C1009.02 328.731 1008.9 328.018 1008.66 327.408C1008.42 326.792 1008.07 326.314 1007.61 325.973C1007.15 325.627 1006.57 325.455 1005.89 325.455C1005.18 325.455 1004.59 325.637 1004.11 326.001C1003.65 326.361 1003.29 326.851 1003.06 327.472C1002.82 328.087 1002.71 328.778 1002.71 329.545C1002.71 330.322 1002.83 331.027 1003.06 331.662C1003.31 332.292 1003.66 332.794 1004.13 333.168C1004.6 333.537 1005.19 333.722 1005.89 333.722ZM1020.61 330.54V324.091H1022.28V335H1020.61V333.153H1020.49C1020.24 333.707 1019.84 334.179 1019.3 334.567C1018.76 334.95 1018.08 335.142 1017.25 335.142C1016.57 335.142 1015.97 334.993 1015.44 334.695C1014.91 334.392 1014.49 333.937 1014.19 333.331C1013.88 332.72 1013.73 331.951 1013.73 331.023V324.091H1015.41V330.909C1015.41 331.705 1015.63 332.339 1016.08 332.812C1016.52 333.286 1017.1 333.523 1017.79 333.523C1018.21 333.523 1018.63 333.416 1019.07 333.203C1019.5 332.99 1019.87 332.663 1020.16 332.223C1020.46 331.783 1020.61 331.222 1020.61 330.54ZM1029.93 335.227C1028.88 335.227 1027.97 334.995 1027.21 334.531C1026.45 334.062 1025.86 333.409 1025.45 332.571C1025.04 331.728 1024.84 330.748 1024.84 329.631C1024.84 328.513 1025.04 327.528 1025.45 326.676C1025.86 325.819 1026.44 325.152 1027.17 324.673C1027.91 324.19 1028.77 323.949 1029.76 323.949C1030.32 323.949 1030.89 324.044 1031.44 324.233C1031.99 324.422 1032.5 324.73 1032.95 325.156C1033.41 325.578 1033.77 326.136 1034.04 326.832C1034.31 327.528 1034.44 328.385 1034.44 329.403V330.114H1026.03V328.665H1032.74C1032.74 328.049 1032.62 327.5 1032.37 327.017C1032.13 326.534 1031.78 326.153 1031.33 325.874C1030.89 325.594 1030.36 325.455 1029.76 325.455C1029.09 325.455 1028.51 325.62 1028.02 325.952C1027.54 326.278 1027.17 326.705 1026.91 327.23C1026.65 327.756 1026.52 328.319 1026.52 328.92V329.886C1026.52 330.71 1026.66 331.409 1026.94 331.982C1027.23 332.55 1027.63 332.983 1028.14 333.281C1028.66 333.575 1029.25 333.722 1029.93 333.722C1030.37 333.722 1030.76 333.66 1031.12 333.537C1031.48 333.409 1031.79 333.22 1032.05 332.969C1032.31 332.713 1032.51 332.396 1032.65 332.017L1034.27 332.472C1034.1 333.021 1033.82 333.504 1033.41 333.92C1033.01 334.332 1032.51 334.654 1031.92 334.886C1031.33 335.114 1030.66 335.227 1029.93 335.227ZM1044.72 326.534L1043.21 326.96C1043.12 326.709 1042.98 326.465 1042.8 326.229C1042.62 325.987 1042.37 325.788 1042.06 325.632C1041.74 325.476 1041.34 325.398 1040.86 325.398C1040.19 325.398 1039.63 325.552 1039.19 325.859C1038.75 326.162 1038.53 326.548 1038.53 327.017C1038.53 327.434 1038.68 327.763 1038.98 328.004C1039.28 328.246 1039.76 328.447 1040.4 328.608L1042.02 329.006C1043 329.242 1043.72 329.605 1044.2 330.092C1044.68 330.575 1044.92 331.198 1044.92 331.96C1044.92 332.585 1044.74 333.144 1044.38 333.636C1044.02 334.129 1043.53 334.517 1042.89 334.801C1042.25 335.085 1041.51 335.227 1040.66 335.227C1039.55 335.227 1038.62 334.986 1037.9 334.503C1037.17 334.02 1036.7 333.314 1036.51 332.386L1038.1 331.989C1038.25 332.576 1038.54 333.016 1038.96 333.31C1039.39 333.603 1039.94 333.75 1040.63 333.75C1041.41 333.75 1042.03 333.584 1042.49 333.253C1042.95 332.917 1043.19 332.514 1043.19 332.045C1043.19 331.667 1043.05 331.349 1042.79 331.094C1042.52 330.833 1042.12 330.639 1041.57 330.511L1039.75 330.085C1038.75 329.848 1038.02 329.482 1037.55 328.984C1037.08 328.482 1036.85 327.855 1036.85 327.102C1036.85 326.487 1037.02 325.942 1037.37 325.469C1037.72 324.995 1038.2 324.624 1038.8 324.354C1039.4 324.084 1040.09 323.949 1040.86 323.949C1041.94 323.949 1042.78 324.186 1043.4 324.659C1044.02 325.133 1044.46 325.758 1044.72 326.534ZM1052.19 324.091V325.511H1046.53V324.091H1052.19ZM1048.18 321.477H1049.86V331.875C1049.86 332.348 1049.93 332.704 1050.06 332.94C1050.21 333.172 1050.39 333.329 1050.6 333.409C1050.83 333.485 1051.06 333.523 1051.31 333.523C1051.49 333.523 1051.64 333.513 1051.76 333.494C1051.88 333.471 1051.97 333.452 1052.04 333.438L1052.39 334.943C1052.27 334.986 1052.11 335.028 1051.91 335.071C1051.71 335.118 1051.45 335.142 1051.14 335.142C1050.66 335.142 1050.2 335.04 1049.74 334.837C1049.29 334.633 1048.92 334.323 1048.62 333.906C1048.33 333.49 1048.18 332.964 1048.18 332.33V321.477ZM1061.16 335H1059.31L1064.65 320.455H1066.47L1071.81 335H1069.96L1065.62 322.756H1065.5L1061.16 335ZM1061.84 329.318H1069.28V330.881H1061.84V329.318ZM1074.08 335V320.455H1078.99C1080.13 320.455 1081.06 320.661 1081.79 321.072C1082.52 321.48 1083.06 322.031 1083.41 322.727C1083.76 323.423 1083.93 324.2 1083.93 325.057C1083.93 325.914 1083.76 326.693 1083.41 327.393C1083.06 328.094 1082.53 328.653 1081.8 329.07C1081.08 329.482 1080.15 329.688 1079.02 329.688H1075.5V328.125H1078.96C1079.74 328.125 1080.37 327.99 1080.84 327.72C1081.32 327.45 1081.66 327.086 1081.87 326.626C1082.09 326.162 1082.2 325.639 1082.2 325.057C1082.2 324.474 1082.09 323.954 1081.87 323.494C1081.66 323.035 1081.32 322.675 1080.84 322.415C1080.36 322.15 1079.72 322.017 1078.93 322.017H1075.84V335H1074.08ZM1088.53 320.455V335H1086.77V320.455H1088.53ZM1099.02 331.023L1099 328.949H1099.34L1104.11 324.091H1106.18L1101.1 329.233H1100.96L1099.02 331.023ZM1097.46 335V320.455H1099.14V335H1097.46ZM1104.39 335L1100.13 329.602L1101.33 328.438L1106.52 335H1104.39ZM1112.47 335.227C1111.41 335.227 1110.51 334.995 1109.75 334.531C1108.99 334.062 1108.4 333.409 1107.99 332.571C1107.58 331.728 1107.38 330.748 1107.38 329.631C1107.38 328.513 1107.58 327.528 1107.99 326.676C1108.4 325.819 1108.98 325.152 1109.71 324.673C1110.45 324.19 1111.31 323.949 1112.29 323.949C1112.86 323.949 1113.42 324.044 1113.98 324.233C1114.53 324.422 1115.04 324.73 1115.49 325.156C1115.95 325.578 1116.31 326.136 1116.58 326.832C1116.85 327.528 1116.98 328.385 1116.98 329.403V330.114H1108.57V328.665H1115.28C1115.28 328.049 1115.15 327.5 1114.91 327.017C1114.67 326.534 1114.32 326.153 1113.87 325.874C1113.43 325.594 1112.9 325.455 1112.29 325.455C1111.63 325.455 1111.05 325.62 1110.56 325.952C1110.08 326.278 1109.71 326.705 1109.45 327.23C1109.19 327.756 1109.06 328.319 1109.06 328.92V329.886C1109.06 330.71 1109.2 331.409 1109.48 331.982C1109.77 332.55 1110.17 332.983 1110.68 333.281C1111.19 333.575 1111.79 333.722 1112.47 333.722C1112.91 333.722 1113.3 333.66 1113.66 333.537C1114.02 333.409 1114.33 333.22 1114.59 332.969C1114.85 332.713 1115.05 332.396 1115.19 332.017L1116.81 332.472C1116.64 333.021 1116.36 333.504 1115.95 333.92C1115.55 334.332 1115.05 334.654 1114.46 334.886C1113.87 335.114 1113.2 335.227 1112.47 335.227ZM1120.28 339.091C1120 339.091 1119.74 339.067 1119.52 339.02C1119.3 338.977 1119.14 338.935 1119.06 338.892L1119.48 337.415C1119.89 337.519 1120.25 337.557 1120.56 337.528C1120.88 337.5 1121.15 337.36 1121.39 337.109C1121.64 336.863 1121.87 336.463 1122.07 335.909L1122.38 335.057L1118.35 324.091H1120.17L1123.18 332.784H1123.29L1126.3 324.091H1128.12L1123.49 336.591C1123.28 337.154 1123.02 337.621 1122.72 337.99C1122.41 338.364 1122.05 338.641 1121.64 338.821C1121.24 339.001 1120.79 339.091 1120.28 339.091Z" fill="black"/>
<path d="M924.994 395L921.67 384.091H923.431L925.789 392.443H925.903L928.233 384.091H930.022L932.324 392.415H932.437L934.795 384.091H936.556L933.233 395H931.585L929.199 386.619H929.028L926.642 395H924.994ZM938.772 395V384.091H940.449V395H938.772ZM939.625 382.273C939.298 382.273 939.016 382.161 938.779 381.939C938.547 381.716 938.431 381.449 938.431 381.136C938.431 380.824 938.547 380.556 938.779 380.334C939.016 380.111 939.298 380 939.625 380C939.951 380 940.231 380.111 940.463 380.334C940.699 380.556 940.818 380.824 940.818 381.136C940.818 381.449 940.699 381.716 940.463 381.939C940.231 382.161 939.951 382.273 939.625 382.273ZM948.263 384.091V385.511H942.609V384.091H948.263ZM944.257 381.477H945.933V391.875C945.933 392.348 946.002 392.704 946.139 392.94C946.281 393.172 946.461 393.329 946.679 393.409C946.902 393.485 947.136 393.523 947.382 393.523C947.567 393.523 947.718 393.513 947.837 393.494C947.955 393.471 948.05 393.452 948.121 393.438L948.462 394.943C948.348 394.986 948.189 395.028 947.986 395.071C947.782 395.118 947.524 395.142 947.212 395.142C946.738 395.142 946.274 395.04 945.82 394.837C945.37 394.633 944.996 394.323 944.697 393.906C944.404 393.49 944.257 392.964 944.257 392.33V381.477ZM952.695 388.438V395H951.018V380.455H952.695V385.795H952.837C953.092 385.232 953.476 384.785 953.987 384.453C954.503 384.117 955.19 383.949 956.047 383.949C956.79 383.949 957.441 384.098 958 384.396C958.559 384.69 958.992 385.142 959.3 385.753C959.612 386.359 959.768 387.131 959.768 388.068V395H958.092V388.182C958.092 387.315 957.867 386.645 957.418 386.172C956.973 385.694 956.355 385.455 955.564 385.455C955.015 385.455 954.522 385.571 954.087 385.803C953.656 386.035 953.315 386.373 953.064 386.818C952.818 387.263 952.695 387.803 952.695 388.438ZM971.67 395.256C970.979 395.256 970.351 395.125 969.788 394.865C969.225 394.6 968.777 394.219 968.446 393.722C968.114 393.22 967.949 392.614 967.949 391.903C967.949 391.278 968.072 390.772 968.318 390.384C968.564 389.991 968.893 389.683 969.305 389.46C969.717 389.238 970.172 389.072 970.669 388.963C971.171 388.849 971.675 388.759 972.181 388.693C972.844 388.608 973.382 388.544 973.794 388.501C974.21 388.454 974.513 388.376 974.703 388.267C974.897 388.158 974.994 387.969 974.994 387.699V387.642C974.994 386.941 974.802 386.397 974.419 386.009C974.04 385.62 973.465 385.426 972.693 385.426C971.893 385.426 971.265 385.601 970.811 385.952C970.356 386.302 970.037 386.676 969.852 387.074L968.261 386.506C968.545 385.843 968.924 385.327 969.397 384.957C969.876 384.583 970.396 384.323 970.96 384.176C971.528 384.025 972.087 383.949 972.636 383.949C972.986 383.949 973.389 383.991 973.843 384.077C974.303 384.157 974.745 384.325 975.172 384.581C975.602 384.837 975.96 385.223 976.244 385.739C976.528 386.255 976.67 386.946 976.67 387.812V395H974.994V393.523H974.909C974.795 393.759 974.606 394.013 974.341 394.283C974.075 394.553 973.723 394.782 973.282 394.972C972.842 395.161 972.305 395.256 971.67 395.256ZM971.926 393.75C972.589 393.75 973.147 393.62 973.602 393.359C974.061 393.099 974.407 392.763 974.639 392.351C974.876 391.939 974.994 391.506 974.994 391.051V389.517C974.923 389.602 974.767 389.68 974.525 389.751C974.288 389.818 974.014 389.877 973.701 389.929C973.394 389.976 973.093 390.019 972.799 390.057C972.511 390.09 972.276 390.118 972.096 390.142C971.661 390.199 971.253 390.291 970.875 390.419C970.501 390.542 970.198 390.729 969.966 390.98C969.738 391.226 969.625 391.562 969.625 391.989C969.625 392.571 969.84 393.011 970.271 393.31C970.707 393.603 971.258 393.75 971.926 393.75ZM984.161 395.227C983.138 395.227 982.258 394.986 981.519 394.503C980.781 394.02 980.212 393.355 979.815 392.507C979.417 391.66 979.218 390.691 979.218 389.602C979.218 388.494 979.422 387.517 979.829 386.669C980.241 385.817 980.814 385.152 981.548 384.673C982.286 384.19 983.148 383.949 984.133 383.949C984.9 383.949 985.591 384.091 986.207 384.375C986.822 384.659 987.326 385.057 987.719 385.568C988.112 386.08 988.356 386.676 988.451 387.358H986.775C986.647 386.861 986.363 386.42 985.923 386.037C985.487 385.649 984.9 385.455 984.161 385.455C983.508 385.455 982.935 385.625 982.442 385.966C981.955 386.302 981.574 386.778 981.299 387.393C981.029 388.004 980.894 388.722 980.894 389.545C980.894 390.388 981.027 391.122 981.292 391.747C981.562 392.372 981.941 392.857 982.428 393.203C982.921 393.549 983.498 393.722 984.161 393.722C984.597 393.722 984.992 393.646 985.347 393.494C985.702 393.343 986.003 393.125 986.249 392.841C986.496 392.557 986.671 392.216 986.775 391.818H988.451C988.356 392.462 988.122 393.042 987.748 393.558C987.379 394.07 986.888 394.477 986.278 394.78C985.672 395.078 984.966 395.227 984.161 395.227ZM995.333 395.227C994.31 395.227 993.43 394.986 992.691 394.503C991.952 394.02 991.384 393.355 990.987 392.507C990.589 391.66 990.39 390.691 990.39 389.602C990.39 388.494 990.594 387.517 991.001 386.669C991.413 385.817 991.986 385.152 992.719 384.673C993.458 384.19 994.32 383.949 995.305 383.949C996.072 383.949 996.763 384.091 997.379 384.375C997.994 384.659 998.498 385.057 998.891 385.568C999.284 386.08 999.528 386.676 999.623 387.358H997.947C997.819 386.861 997.535 386.42 997.094 386.037C996.659 385.649 996.072 385.455 995.333 385.455C994.68 385.455 994.107 385.625 993.614 385.966C993.127 386.302 992.746 386.778 992.471 387.393C992.201 388.004 992.066 388.722 992.066 389.545C992.066 390.388 992.199 391.122 992.464 391.747C992.734 392.372 993.112 392.857 993.6 393.203C994.093 393.549 994.67 393.722 995.333 393.722C995.769 393.722 996.164 393.646 996.519 393.494C996.874 393.343 997.175 393.125 997.421 392.841C997.667 392.557 997.843 392.216 997.947 391.818H999.623C999.528 392.462 999.294 393.042 998.92 393.558C998.55 394.07 998.06 394.477 997.45 394.78C996.844 395.078 996.138 395.227 995.333 395.227ZM1006.65 395.227C1005.6 395.227 1004.69 394.995 1003.93 394.531C1003.17 394.062 1002.58 393.409 1002.17 392.571C1001.77 391.728 1001.56 390.748 1001.56 389.631C1001.56 388.513 1001.77 387.528 1002.17 386.676C1002.58 385.819 1003.16 385.152 1003.89 384.673C1004.63 384.19 1005.49 383.949 1006.48 383.949C1007.04 383.949 1007.61 384.044 1008.16 384.233C1008.71 384.422 1009.22 384.73 1009.67 385.156C1010.13 385.578 1010.49 386.136 1010.76 386.832C1011.03 387.528 1011.16 388.385 1011.16 389.403V390.114H1002.75V388.665H1009.46C1009.46 388.049 1009.34 387.5 1009.09 387.017C1008.85 386.534 1008.5 386.153 1008.05 385.874C1007.61 385.594 1007.08 385.455 1006.48 385.455C1005.81 385.455 1005.23 385.62 1004.74 385.952C1004.26 386.278 1003.89 386.705 1003.63 387.23C1003.37 387.756 1003.24 388.319 1003.24 388.92V389.886C1003.24 390.71 1003.38 391.409 1003.66 391.982C1003.95 392.55 1004.35 392.983 1004.86 393.281C1005.38 393.575 1005.97 393.722 1006.65 393.722C1007.09 393.722 1007.49 393.66 1007.84 393.537C1008.2 393.409 1008.51 393.22 1008.77 392.969C1009.03 392.713 1009.23 392.396 1009.37 392.017L1010.99 392.472C1010.82 393.021 1010.54 393.504 1010.13 393.92C1009.73 394.332 1009.23 394.654 1008.64 394.886C1008.05 395.114 1007.39 395.227 1006.65 395.227ZM1021.44 386.534L1019.94 386.96C1019.84 386.709 1019.7 386.465 1019.52 386.229C1019.34 385.987 1019.09 385.788 1018.78 385.632C1018.47 385.476 1018.07 385.398 1017.58 385.398C1016.91 385.398 1016.35 385.552 1015.91 385.859C1015.47 386.162 1015.25 386.548 1015.25 387.017C1015.25 387.434 1015.4 387.763 1015.7 388.004C1016.01 388.246 1016.48 388.447 1017.12 388.608L1018.74 389.006C1019.72 389.242 1020.44 389.605 1020.92 390.092C1021.4 390.575 1021.64 391.198 1021.64 391.96C1021.64 392.585 1021.46 393.144 1021.1 393.636C1020.75 394.129 1020.25 394.517 1019.61 394.801C1018.97 395.085 1018.23 395.227 1017.38 395.227C1016.27 395.227 1015.34 394.986 1014.62 394.503C1013.89 394.02 1013.42 393.314 1013.23 392.386L1014.82 391.989C1014.97 392.576 1015.26 393.016 1015.68 393.31C1016.11 393.603 1016.66 393.75 1017.35 393.75C1018.13 393.75 1018.75 393.584 1019.21 393.253C1019.67 392.917 1019.91 392.514 1019.91 392.045C1019.91 391.667 1019.77 391.349 1019.51 391.094C1019.24 390.833 1018.84 390.639 1018.29 390.511L1016.47 390.085C1015.47 389.848 1014.74 389.482 1014.27 388.984C1013.8 388.482 1013.57 387.855 1013.57 387.102C1013.57 386.487 1013.74 385.942 1014.09 385.469C1014.44 384.995 1014.92 384.624 1015.52 384.354C1016.12 384.084 1016.81 383.949 1017.58 383.949C1018.66 383.949 1019.5 384.186 1020.12 384.659C1020.74 385.133 1021.18 385.758 1021.44 386.534ZM1031.89 386.534L1030.38 386.96C1030.29 386.709 1030.15 386.465 1029.97 386.229C1029.79 385.987 1029.54 385.788 1029.23 385.632C1028.91 385.476 1028.51 385.398 1028.03 385.398C1027.36 385.398 1026.8 385.552 1026.36 385.859C1025.92 386.162 1025.7 386.548 1025.7 387.017C1025.7 387.434 1025.85 387.763 1026.15 388.004C1026.45 388.246 1026.93 388.447 1027.57 388.608L1029.19 389.006C1030.17 389.242 1030.89 389.605 1031.37 390.092C1031.85 390.575 1032.09 391.198 1032.09 391.96C1032.09 392.585 1031.91 393.144 1031.55 393.636C1031.19 394.129 1030.7 394.517 1030.06 394.801C1029.42 395.085 1028.68 395.227 1027.83 395.227C1026.72 395.227 1025.79 394.986 1025.06 394.503C1024.34 394.02 1023.87 393.314 1023.68 392.386L1025.27 391.989C1025.42 392.576 1025.71 393.016 1026.13 393.31C1026.56 393.603 1027.11 393.75 1027.8 393.75C1028.58 393.75 1029.2 393.584 1029.66 393.253C1030.12 392.917 1030.36 392.514 1030.36 392.045C1030.36 391.667 1030.22 391.349 1029.96 391.094C1029.69 390.833 1029.29 390.639 1028.74 390.511L1026.92 390.085C1025.92 389.848 1025.19 389.482 1024.72 388.984C1024.25 388.482 1024.02 387.855 1024.02 387.102C1024.02 386.487 1024.19 385.942 1024.54 385.469C1024.89 384.995 1025.37 384.624 1025.97 384.354C1026.57 384.084 1027.26 383.949 1028.03 383.949C1029.11 383.949 1029.95 384.186 1030.57 384.659C1031.19 385.133 1031.63 385.758 1031.89 386.534ZM1044.98 384.091V385.511H1039.33V384.091H1044.98ZM1040.98 381.477H1042.65V391.875C1042.65 392.348 1042.72 392.704 1042.86 392.94C1043 393.172 1043.18 393.329 1043.4 393.409C1043.62 393.485 1043.85 393.523 1044.1 393.523C1044.29 393.523 1044.44 393.513 1044.56 393.494C1044.67 393.471 1044.77 393.452 1044.84 393.438L1045.18 394.943C1045.07 394.986 1044.91 395.028 1044.7 395.071C1044.5 395.118 1044.24 395.142 1043.93 395.142C1043.46 395.142 1042.99 395.04 1042.54 394.837C1042.09 394.633 1041.71 394.323 1041.42 393.906C1041.12 393.49 1040.98 392.964 1040.98 392.33V381.477ZM1051.82 395.227C1050.83 395.227 1049.97 394.993 1049.23 394.524C1048.49 394.055 1047.91 393.4 1047.49 392.557C1047.08 391.714 1046.87 390.729 1046.87 389.602C1046.87 388.466 1047.08 387.474 1047.49 386.626C1047.91 385.779 1048.49 385.121 1049.23 384.652C1049.97 384.183 1050.83 383.949 1051.82 383.949C1052.8 383.949 1053.66 384.183 1054.4 384.652C1055.15 385.121 1055.72 385.779 1056.14 386.626C1056.55 387.474 1056.76 388.466 1056.76 389.602C1056.76 390.729 1056.55 391.714 1056.14 392.557C1055.72 393.4 1055.15 394.055 1054.4 394.524C1053.66 394.993 1052.8 395.227 1051.82 395.227ZM1051.82 393.722C1052.57 393.722 1053.18 393.53 1053.66 393.146C1054.15 392.763 1054.5 392.259 1054.74 391.634C1054.97 391.009 1055.08 390.331 1055.08 389.602C1055.08 388.873 1054.97 388.194 1054.74 387.564C1054.5 386.934 1054.15 386.425 1053.66 386.037C1053.18 385.649 1052.57 385.455 1051.82 385.455C1051.07 385.455 1050.45 385.649 1049.97 386.037C1049.49 386.425 1049.13 386.934 1048.9 387.564C1048.67 388.194 1048.55 388.873 1048.55 389.602C1048.55 390.331 1048.67 391.009 1048.9 391.634C1049.13 392.259 1049.49 392.763 1049.97 393.146C1050.45 393.53 1051.07 393.722 1051.82 393.722ZM1065.77 395H1063.92L1069.26 380.455H1071.08L1076.42 395H1074.57L1070.23 382.756H1070.11L1065.77 395ZM1066.45 389.318H1073.89V390.881H1066.45V389.318ZM1078.46 399.091V384.091H1080.08V385.824H1080.28C1080.4 385.634 1080.57 385.393 1080.79 385.099C1081.01 384.801 1081.33 384.536 1081.74 384.304C1082.16 384.067 1082.72 383.949 1083.43 383.949C1084.35 383.949 1085.16 384.179 1085.86 384.638C1086.56 385.097 1087.11 385.748 1087.5 386.591C1087.89 387.434 1088.09 388.428 1088.09 389.574C1088.09 390.729 1087.89 391.731 1087.5 392.578C1087.11 393.421 1086.56 394.074 1085.87 394.538C1085.17 394.998 1084.37 395.227 1083.46 395.227C1082.76 395.227 1082.2 395.111 1081.78 394.879C1081.36 394.643 1081.03 394.375 1080.8 394.077C1080.58 393.774 1080.4 393.523 1080.28 393.324H1080.14V399.091H1078.46ZM1080.11 389.545C1080.11 390.369 1080.23 391.096 1080.47 391.726C1080.71 392.351 1081.06 392.841 1081.53 393.196C1081.99 393.546 1082.56 393.722 1083.23 393.722C1083.93 393.722 1084.52 393.537 1084.99 393.168C1085.46 392.794 1085.82 392.292 1086.05 391.662C1086.29 391.027 1086.41 390.322 1086.41 389.545C1086.41 388.778 1086.3 388.087 1086.06 387.472C1085.83 386.851 1085.47 386.361 1085 386.001C1084.53 385.637 1083.94 385.455 1083.23 385.455C1082.55 385.455 1081.98 385.627 1081.51 385.973C1081.05 386.314 1080.7 386.792 1080.46 387.408C1080.23 388.018 1080.11 388.731 1080.11 389.545ZM1090.65 399.091V384.091H1092.27V385.824H1092.47C1092.59 385.634 1092.76 385.393 1092.98 385.099C1093.2 384.801 1093.52 384.536 1093.93 384.304C1094.35 384.067 1094.91 383.949 1095.62 383.949C1096.54 383.949 1097.35 384.179 1098.05 384.638C1098.75 385.097 1099.3 385.748 1099.69 386.591C1100.08 387.434 1100.28 388.428 1100.28 389.574C1100.28 390.729 1100.08 391.731 1099.69 392.578C1099.3 393.421 1098.75 394.074 1098.06 394.538C1097.36 394.998 1096.56 395.227 1095.65 395.227C1094.95 395.227 1094.39 395.111 1093.96 394.879C1093.54 394.643 1093.22 394.375 1092.99 394.077C1092.76 393.774 1092.59 393.523 1092.47 393.324H1092.32V399.091H1090.65ZM1092.3 389.545C1092.3 390.369 1092.42 391.096 1092.66 391.726C1092.9 392.351 1093.25 392.841 1093.72 393.196C1094.18 393.546 1094.75 393.722 1095.42 393.722C1096.12 393.722 1096.71 393.537 1097.17 393.168C1097.65 392.794 1098 392.292 1098.24 391.662C1098.48 391.027 1098.6 390.322 1098.6 389.545C1098.6 388.778 1098.48 388.087 1098.25 387.472C1098.01 386.851 1097.66 386.361 1097.19 386.001C1096.72 385.637 1096.13 385.455 1095.42 385.455C1094.74 385.455 1094.17 385.627 1093.7 385.973C1093.24 386.314 1092.89 386.792 1092.65 387.408C1092.41 388.018 1092.3 388.731 1092.3 389.545ZM1107.92 380.455V395H1106.16V382.301H1106.07L1102.52 384.659V382.869L1106.16 380.455H1107.92ZM1122.61 384.091V385.511H1116.73V384.091H1122.61ZM1118.5 395V382.585C1118.5 381.96 1118.64 381.439 1118.94 381.023C1119.23 380.606 1119.61 380.294 1120.08 380.085C1120.55 379.877 1121.04 379.773 1121.56 379.773C1121.98 379.773 1122.31 379.806 1122.57 379.872C1122.83 379.938 1123.03 380 1123.15 380.057L1122.67 381.506C1122.59 381.477 1122.47 381.442 1122.32 381.399C1122.17 381.357 1121.98 381.335 1121.73 381.335C1121.18 381.335 1120.78 381.475 1120.53 381.754C1120.29 382.034 1120.17 382.443 1120.17 382.983V395H1118.5ZM1124.96 395V384.091H1126.64V395H1124.96ZM1125.82 382.273C1125.49 382.273 1125.21 382.161 1124.97 381.939C1124.74 381.716 1124.62 381.449 1124.62 381.136C1124.62 380.824 1124.74 380.556 1124.97 380.334C1125.21 380.111 1125.49 380 1125.82 380C1126.14 380 1126.42 380.111 1126.65 380.334C1126.89 380.556 1127.01 380.824 1127.01 381.136C1127.01 381.449 1126.89 381.716 1126.65 381.939C1126.42 382.161 1126.14 382.273 1125.82 382.273ZM1131.39 380.455V395H1129.71V380.455H1131.39ZM1139.03 395.227C1137.98 395.227 1137.07 394.995 1136.31 394.531C1135.55 394.062 1134.97 393.409 1134.56 392.571C1134.15 391.728 1133.94 390.748 1133.94 389.631C1133.94 388.513 1134.15 387.528 1134.56 386.676C1134.97 385.819 1135.54 385.152 1136.27 384.673C1137.01 384.19 1137.87 383.949 1138.86 383.949C1139.43 383.949 1139.99 384.044 1140.54 384.233C1141.1 384.422 1141.6 384.73 1142.06 385.156C1142.51 385.578 1142.87 386.136 1143.14 386.832C1143.41 387.528 1143.55 388.385 1143.55 389.403V390.114H1135.14V388.665H1141.84C1141.84 388.049 1141.72 387.5 1141.47 387.017C1141.23 386.534 1140.89 386.153 1140.44 385.874C1139.99 385.594 1139.47 385.455 1138.86 385.455C1138.19 385.455 1137.61 385.62 1137.13 385.952C1136.64 386.278 1136.27 386.705 1136.01 387.23C1135.75 387.756 1135.62 388.319 1135.62 388.92V389.886C1135.62 390.71 1135.76 391.409 1136.05 391.982C1136.34 392.55 1136.74 392.983 1137.25 393.281C1137.76 393.575 1138.35 393.722 1139.03 393.722C1139.47 393.722 1139.87 393.66 1140.22 393.537C1140.58 393.409 1140.89 393.22 1141.15 392.969C1141.41 392.713 1141.62 392.396 1141.76 392.017L1143.38 392.472C1143.21 393.021 1142.92 393.504 1142.52 393.92C1142.11 394.332 1141.62 394.654 1141.03 394.886C1140.43 395.114 1139.77 395.227 1139.03 395.227ZM1153.82 386.534L1152.32 386.96C1152.22 386.709 1152.08 386.465 1151.9 386.229C1151.72 385.987 1151.47 385.788 1151.16 385.632C1150.85 385.476 1150.45 385.398 1149.96 385.398C1149.29 385.398 1148.74 385.552 1148.29 385.859C1147.85 386.162 1147.63 386.548 1147.63 387.017C1147.63 387.434 1147.78 387.763 1148.09 388.004C1148.39 388.246 1148.86 388.447 1149.51 388.608L1151.12 389.006C1152.1 389.242 1152.83 389.605 1153.31 390.092C1153.78 390.575 1154.02 391.198 1154.02 391.96C1154.02 392.585 1153.84 393.144 1153.48 393.636C1153.13 394.129 1152.63 394.517 1151.99 394.801C1151.35 395.085 1150.61 395.227 1149.76 395.227C1148.65 395.227 1147.73 394.986 1147 394.503C1146.27 394.02 1145.81 393.314 1145.61 392.386L1147.2 391.989C1147.36 392.576 1147.64 393.016 1148.06 393.31C1148.49 393.603 1149.05 393.75 1149.73 393.75C1150.51 393.75 1151.13 393.584 1151.59 393.253C1152.06 392.917 1152.29 392.514 1152.29 392.045C1152.29 391.667 1152.16 391.349 1151.89 391.094C1151.63 390.833 1151.22 390.639 1150.67 390.511L1148.85 390.085C1147.85 389.848 1147.12 389.482 1146.65 388.984C1146.19 388.482 1145.95 387.855 1145.95 387.102C1145.95 386.487 1146.13 385.942 1146.47 385.469C1146.82 384.995 1147.3 384.624 1147.9 384.354C1148.51 384.084 1149.19 383.949 1149.96 383.949C1151.04 383.949 1151.89 384.186 1152.5 384.659C1153.12 385.133 1153.56 385.758 1153.82 386.534Z" fill="black"/>
<path d="M680.847 270C680.691 269.522 680.485 269.093 680.229 268.714C679.978 268.331 679.678 268.004 679.327 267.734C678.982 267.464 678.589 267.259 678.148 267.116C677.708 266.974 677.225 266.903 676.699 266.903C675.838 266.903 675.054 267.126 674.349 267.571C673.643 268.016 673.082 268.672 672.665 269.538C672.249 270.405 672.04 271.468 672.04 272.727C672.04 273.987 672.251 275.05 672.672 275.916C673.094 276.783 673.664 277.438 674.384 277.884C675.104 278.329 675.913 278.551 676.813 278.551C677.646 278.551 678.38 278.374 679.015 278.018C679.654 277.659 680.151 277.152 680.506 276.499C680.866 275.84 681.046 275.066 681.046 274.176L681.586 274.29H677.211V272.727H682.751V274.29C682.751 275.488 682.495 276.529 681.983 277.415C681.477 278.3 680.776 278.987 679.881 279.474C678.991 279.957 677.968 280.199 676.813 280.199C675.525 280.199 674.394 279.896 673.418 279.29C672.448 278.684 671.69 277.822 671.145 276.705C670.606 275.587 670.336 274.261 670.336 272.727C670.336 271.577 670.49 270.542 670.797 269.624C671.11 268.7 671.55 267.914 672.118 267.266C672.687 266.617 673.359 266.12 674.135 265.774C674.912 265.429 675.767 265.256 676.699 265.256C677.466 265.256 678.181 265.372 678.844 265.604C679.512 265.831 680.106 266.155 680.627 266.577C681.153 266.993 681.59 267.493 681.941 268.075C682.291 268.653 682.533 269.295 682.665 270H680.847ZM686.224 280V269.091H687.9V280H686.224ZM687.076 267.273C686.749 267.273 686.467 267.161 686.231 266.939C685.999 266.716 685.883 266.449 685.883 266.136C685.883 265.824 685.999 265.556 686.231 265.334C686.467 265.111 686.749 265 687.076 265C687.403 265 687.682 265.111 687.914 265.334C688.151 265.556 688.269 265.824 688.269 266.136C688.269 266.449 688.151 266.716 687.914 266.939C687.682 267.161 687.403 267.273 687.076 267.273ZM699.89 269.091L695.856 280H694.151L690.117 269.091H691.936L694.947 277.784H695.061L698.072 269.091H699.89ZM706.286 280.227C705.235 280.227 704.328 279.995 703.566 279.531C702.808 279.062 702.223 278.409 701.811 277.571C701.404 276.728 701.2 275.748 701.2 274.631C701.2 273.513 701.404 272.528 701.811 271.676C702.223 270.819 702.796 270.152 703.53 269.673C704.269 269.19 705.13 268.949 706.115 268.949C706.683 268.949 707.244 269.044 707.798 269.233C708.352 269.422 708.857 269.73 709.311 270.156C709.766 270.578 710.128 271.136 710.398 271.832C710.668 272.528 710.803 273.385 710.803 274.403V275.114H702.394V273.665H709.098C709.098 273.049 708.975 272.5 708.729 272.017C708.487 271.534 708.142 271.153 707.692 270.874C707.247 270.594 706.721 270.455 706.115 270.455C705.448 270.455 704.87 270.62 704.382 270.952C703.899 271.278 703.528 271.705 703.267 272.23C703.007 272.756 702.877 273.319 702.877 273.92V274.886C702.877 275.71 703.019 276.409 703.303 276.982C703.592 277.55 703.992 277.983 704.503 278.281C705.014 278.575 705.609 278.722 706.286 278.722C706.726 278.722 707.124 278.66 707.479 278.537C707.839 278.409 708.149 278.22 708.409 277.969C708.67 277.713 708.871 277.396 709.013 277.017L710.632 277.472C710.462 278.021 710.175 278.504 709.773 278.92C709.37 279.332 708.873 279.654 708.281 279.886C707.69 280.114 707.024 280.227 706.286 280.227ZM719.205 280V265.455H724.119C725.256 265.455 726.189 265.649 726.918 266.037C727.647 266.42 728.187 266.948 728.537 267.621C728.887 268.293 729.063 269.058 729.063 269.915C729.063 270.772 728.887 271.532 728.537 272.195C728.187 272.857 727.649 273.378 726.925 273.757C726.2 274.131 725.275 274.318 724.148 274.318H720.171V272.727H724.091C724.868 272.727 725.493 272.614 725.966 272.386C726.444 272.159 726.79 271.837 727.003 271.42C727.221 270.999 727.33 270.497 727.33 269.915C727.33 269.332 727.221 268.823 727.003 268.388C726.785 267.952 726.437 267.616 725.959 267.379C725.481 267.138 724.849 267.017 724.063 267.017H720.966V280H719.205ZM726.051 273.466L729.631 280H727.585L724.063 273.466H726.051ZM731.998 280V265.455H740.776V267.017H733.759V271.932H740.322V273.494H733.759V278.438H740.89V280H731.998ZM744.547 280H742.701L748.042 265.455H749.86L755.201 280H753.354L749.008 267.756H748.894L744.547 280ZM745.229 274.318H752.672V275.881H745.229V274.318ZM761.955 280H757.466V265.455H762.154C763.565 265.455 764.772 265.746 765.776 266.328C766.78 266.906 767.549 267.737 768.084 268.821C768.619 269.901 768.887 271.193 768.887 272.699C768.887 274.214 768.617 275.518 768.077 276.612C767.537 277.701 766.751 278.539 765.719 279.126C764.687 279.709 763.432 280 761.955 280ZM759.228 278.438H761.841C763.044 278.438 764.041 278.205 764.831 277.741C765.622 277.277 766.212 276.617 766.6 275.76C766.988 274.903 767.182 273.883 767.182 272.699C767.182 271.525 766.991 270.514 766.607 269.666C766.224 268.814 765.651 268.161 764.888 267.706C764.126 267.247 763.177 267.017 762.04 267.017H759.228V278.438ZM780.449 280.256C779.758 280.256 779.131 280.125 778.567 279.865C778.004 279.6 777.556 279.219 777.225 278.722C776.894 278.22 776.728 277.614 776.728 276.903C776.728 276.278 776.851 275.772 777.097 275.384C777.343 274.991 777.672 274.683 778.084 274.46C778.496 274.238 778.951 274.072 779.448 273.963C779.95 273.849 780.454 273.759 780.961 273.693C781.624 273.608 782.161 273.544 782.573 273.501C782.99 273.454 783.293 273.376 783.482 273.267C783.676 273.158 783.773 272.969 783.773 272.699V272.642C783.773 271.941 783.581 271.397 783.198 271.009C782.819 270.62 782.244 270.426 781.472 270.426C780.672 270.426 780.045 270.601 779.59 270.952C779.135 271.302 778.816 271.676 778.631 272.074L777.04 271.506C777.324 270.843 777.703 270.327 778.177 269.957C778.655 269.583 779.176 269.323 779.739 269.176C780.307 269.025 780.866 268.949 781.415 268.949C781.766 268.949 782.168 268.991 782.623 269.077C783.082 269.157 783.525 269.325 783.951 269.581C784.382 269.837 784.739 270.223 785.023 270.739C785.307 271.255 785.449 271.946 785.449 272.812V280H783.773V278.523H783.688C783.574 278.759 783.385 279.013 783.12 279.283C782.855 279.553 782.502 279.782 782.062 279.972C781.621 280.161 781.084 280.256 780.449 280.256ZM780.705 278.75C781.368 278.75 781.927 278.62 782.381 278.359C782.84 278.099 783.186 277.763 783.418 277.351C783.655 276.939 783.773 276.506 783.773 276.051V274.517C783.702 274.602 783.546 274.68 783.305 274.751C783.068 274.818 782.793 274.877 782.481 274.929C782.173 274.976 781.872 275.019 781.579 275.057C781.29 275.09 781.055 275.118 780.876 275.142C780.44 275.199 780.033 275.291 779.654 275.419C779.28 275.542 778.977 275.729 778.745 275.98C778.518 276.226 778.404 276.562 778.404 276.989C778.404 277.571 778.619 278.011 779.05 278.31C779.486 278.603 780.037 278.75 780.705 278.75ZM792.941 280.227C791.918 280.227 791.037 279.986 790.298 279.503C789.56 279.02 788.992 278.355 788.594 277.507C788.196 276.66 787.997 275.691 787.997 274.602C787.997 273.494 788.201 272.517 788.608 271.669C789.02 270.817 789.593 270.152 790.327 269.673C791.066 269.19 791.927 268.949 792.912 268.949C793.679 268.949 794.37 269.091 794.986 269.375C795.602 269.659 796.106 270.057 796.499 270.568C796.892 271.08 797.136 271.676 797.23 272.358H795.554C795.426 271.861 795.142 271.42 794.702 271.037C794.266 270.649 793.679 270.455 792.941 270.455C792.287 270.455 791.714 270.625 791.222 270.966C790.734 271.302 790.353 271.778 790.078 272.393C789.808 273.004 789.673 273.722 789.673 274.545C789.673 275.388 789.806 276.122 790.071 276.747C790.341 277.372 790.72 277.857 791.208 278.203C791.7 278.549 792.278 278.722 792.941 278.722C793.376 278.722 793.771 278.646 794.127 278.494C794.482 278.343 794.782 278.125 795.029 277.841C795.275 277.557 795.45 277.216 795.554 276.818H797.23C797.136 277.462 796.901 278.042 796.527 278.558C796.158 279.07 795.668 279.477 795.057 279.78C794.451 280.078 793.745 280.227 792.941 280.227ZM804.112 280.227C803.09 280.227 802.209 279.986 801.47 279.503C800.732 279.02 800.164 278.355 799.766 277.507C799.368 276.66 799.169 275.691 799.169 274.602C799.169 273.494 799.373 272.517 799.78 271.669C800.192 270.817 800.765 270.152 801.499 269.673C802.237 269.19 803.099 268.949 804.084 268.949C804.851 268.949 805.542 269.091 806.158 269.375C806.773 269.659 807.278 270.057 807.671 270.568C808.064 271.08 808.307 271.676 808.402 272.358H806.726C806.598 271.861 806.314 271.42 805.874 271.037C805.438 270.649 804.851 270.455 804.112 270.455C803.459 270.455 802.886 270.625 802.394 270.966C801.906 271.302 801.525 271.778 801.25 272.393C800.98 273.004 800.845 273.722 800.845 274.545C800.845 275.388 800.978 276.122 801.243 276.747C801.513 277.372 801.892 277.857 802.379 278.203C802.872 278.549 803.45 278.722 804.112 278.722C804.548 278.722 804.943 278.646 805.298 278.494C805.654 278.343 805.954 278.125 806.2 277.841C806.447 277.557 806.622 277.216 806.726 276.818H808.402C808.307 277.462 808.073 278.042 807.699 278.558C807.33 279.07 806.84 279.477 806.229 279.78C805.623 280.078 804.917 280.227 804.112 280.227ZM815.426 280.227C814.375 280.227 813.468 279.995 812.706 279.531C811.949 279.062 811.364 278.409 810.952 277.571C810.545 276.728 810.341 275.748 810.341 274.631C810.341 273.513 810.545 272.528 810.952 271.676C811.364 270.819 811.937 270.152 812.671 269.673C813.409 269.19 814.271 268.949 815.256 268.949C815.824 268.949 816.385 269.044 816.939 269.233C817.493 269.422 817.997 269.73 818.452 270.156C818.906 270.578 819.269 271.136 819.539 271.832C819.808 272.528 819.943 273.385 819.943 274.403V275.114H811.534V273.665H818.239C818.239 273.049 818.116 272.5 817.869 272.017C817.628 271.534 817.282 271.153 816.833 270.874C816.387 270.594 815.862 270.455 815.256 270.455C814.588 270.455 814.011 270.62 813.523 270.952C813.04 271.278 812.668 271.705 812.408 272.23C812.147 272.756 812.017 273.319 812.017 273.92V274.886C812.017 275.71 812.159 276.409 812.443 276.982C812.732 277.55 813.132 277.983 813.644 278.281C814.155 278.575 814.749 278.722 815.426 278.722C815.867 278.722 816.264 278.66 816.619 278.537C816.979 278.409 817.289 278.22 817.55 277.969C817.81 277.713 818.012 277.396 818.154 277.017L819.773 277.472C819.602 278.021 819.316 278.504 818.914 278.92C818.511 279.332 818.014 279.654 817.422 279.886C816.83 280.114 816.165 280.227 815.426 280.227ZM830.22 271.534L828.715 271.96C828.62 271.709 828.48 271.465 828.296 271.229C828.116 270.987 827.869 270.788 827.557 270.632C827.244 270.476 826.844 270.398 826.357 270.398C825.689 270.398 825.133 270.552 824.688 270.859C824.247 271.162 824.027 271.548 824.027 272.017C824.027 272.434 824.179 272.763 824.482 273.004C824.785 273.246 825.258 273.447 825.902 273.608L827.521 274.006C828.497 274.242 829.224 274.605 829.702 275.092C830.18 275.575 830.419 276.198 830.419 276.96C830.419 277.585 830.239 278.144 829.879 278.636C829.524 279.129 829.027 279.517 828.388 279.801C827.749 280.085 827.005 280.227 826.158 280.227C825.045 280.227 824.124 279.986 823.395 279.503C822.666 279.02 822.204 278.314 822.01 277.386L823.601 276.989C823.753 277.576 824.039 278.016 824.46 278.31C824.887 278.603 825.443 278.75 826.129 278.75C826.911 278.75 827.531 278.584 827.99 278.253C828.454 277.917 828.686 277.514 828.686 277.045C828.686 276.667 828.554 276.349 828.289 276.094C828.023 275.833 827.616 275.639 827.067 275.511L825.249 275.085C824.25 274.848 823.516 274.482 823.047 273.984C822.583 273.482 822.351 272.855 822.351 272.102C822.351 271.487 822.524 270.942 822.869 270.469C823.22 269.995 823.696 269.624 824.297 269.354C824.903 269.084 825.59 268.949 826.357 268.949C827.436 268.949 828.284 269.186 828.899 269.659C829.52 270.133 829.96 270.758 830.22 271.534ZM840.67 271.534L839.164 271.96C839.069 271.709 838.93 271.465 838.745 271.229C838.565 270.987 838.319 270.788 838.006 270.632C837.694 270.476 837.294 270.398 836.806 270.398C836.138 270.398 835.582 270.552 835.137 270.859C834.697 271.162 834.476 271.548 834.476 272.017C834.476 272.434 834.628 272.763 834.931 273.004C835.234 273.246 835.707 273.447 836.351 273.608L837.971 274.006C838.946 274.242 839.673 274.605 840.151 275.092C840.629 275.575 840.868 276.198 840.868 276.96C840.868 277.585 840.689 278.144 840.329 278.636C839.974 279.129 839.476 279.517 838.837 279.801C838.198 280.085 837.455 280.227 836.607 280.227C835.494 280.227 834.573 279.986 833.844 279.503C833.115 279.02 832.653 278.314 832.459 277.386L834.05 276.989C834.202 277.576 834.488 278.016 834.91 278.31C835.336 278.603 835.892 278.75 836.579 278.75C837.36 278.75 837.98 278.584 838.439 278.253C838.903 277.917 839.135 277.514 839.135 277.045C839.135 276.667 839.003 276.349 838.738 276.094C838.473 275.833 838.065 275.639 837.516 275.511L835.698 275.085C834.699 274.848 833.965 274.482 833.496 273.984C833.032 273.482 832.8 272.855 832.8 272.102C832.8 271.487 832.973 270.942 833.319 270.469C833.669 269.995 834.145 269.624 834.746 269.354C835.352 269.084 836.039 268.949 836.806 268.949C837.885 268.949 838.733 269.186 839.349 269.659C839.969 270.133 840.409 270.758 840.67 271.534ZM703.624 299.091V300.511H697.971V299.091H703.624ZM699.618 296.477H701.295V306.875C701.295 307.348 701.363 307.704 701.501 307.94C701.643 308.172 701.823 308.329 702.04 308.409C702.263 308.485 702.497 308.523 702.743 308.523C702.928 308.523 703.08 308.513 703.198 308.494C703.316 308.471 703.411 308.452 703.482 308.438L703.823 309.943C703.709 309.986 703.551 310.028 703.347 310.071C703.144 310.118 702.885 310.142 702.573 310.142C702.099 310.142 701.635 310.04 701.181 309.837C700.731 309.633 700.357 309.323 700.059 308.906C699.765 308.49 699.618 307.964 699.618 307.33V296.477ZM710.46 310.227C709.475 310.227 708.611 309.993 707.868 309.524C707.129 309.055 706.551 308.4 706.135 307.557C705.723 306.714 705.517 305.729 705.517 304.602C705.517 303.466 705.723 302.474 706.135 301.626C706.551 300.779 707.129 300.121 707.868 299.652C708.611 299.183 709.475 298.949 710.46 298.949C711.445 298.949 712.307 299.183 713.045 299.652C713.789 300.121 714.366 300.779 714.778 301.626C715.195 302.474 715.403 303.466 715.403 304.602C715.403 305.729 715.195 306.714 714.778 307.557C714.366 308.4 713.789 309.055 713.045 309.524C712.307 309.993 711.445 310.227 710.46 310.227ZM710.46 308.722C711.208 308.722 711.824 308.53 712.307 308.146C712.79 307.763 713.147 307.259 713.379 306.634C713.611 306.009 713.727 305.331 713.727 304.602C713.727 303.873 713.611 303.194 713.379 302.564C713.147 301.934 712.79 301.425 712.307 301.037C711.824 300.649 711.208 300.455 710.46 300.455C709.712 300.455 709.096 300.649 708.613 301.037C708.131 301.425 707.773 301.934 707.541 302.564C707.309 303.194 707.193 303.873 707.193 304.602C707.193 305.331 707.309 306.009 707.541 306.634C707.773 307.259 708.131 307.763 708.613 308.146C709.096 308.53 709.712 308.722 710.46 308.722ZM724.411 310H722.564L727.905 295.455H729.723L735.064 310H733.218L728.871 297.756H728.757L724.411 310ZM725.093 304.318H732.536V305.881H725.093V304.318ZM737.102 314.091V299.091H738.722V300.824H738.921C739.044 300.634 739.214 300.393 739.432 300.099C739.655 299.801 739.972 299.536 740.384 299.304C740.8 299.067 741.364 298.949 742.074 298.949C742.993 298.949 743.802 299.179 744.503 299.638C745.204 300.097 745.751 300.748 746.144 301.591C746.537 302.434 746.733 303.428 746.733 304.574C746.733 305.729 746.537 306.731 746.144 307.578C745.751 308.421 745.206 309.074 744.51 309.538C743.814 309.998 743.012 310.227 742.102 310.227C741.402 310.227 740.841 310.111 740.419 309.879C739.998 309.643 739.673 309.375 739.446 309.077C739.219 308.774 739.044 308.523 738.921 308.324H738.779V314.091H737.102ZM738.75 304.545C738.75 305.369 738.871 306.096 739.112 306.726C739.354 307.351 739.707 307.841 740.171 308.196C740.635 308.546 741.203 308.722 741.875 308.722C742.576 308.722 743.161 308.537 743.629 308.168C744.103 307.794 744.458 307.292 744.695 306.662C744.936 306.027 745.057 305.322 745.057 304.545C745.057 303.778 744.939 303.087 744.702 302.472C744.47 301.851 744.117 301.361 743.644 301.001C743.175 300.637 742.585 300.455 741.875 300.455C741.193 300.455 740.62 300.627 740.156 300.973C739.692 301.314 739.342 301.792 739.105 302.408C738.869 303.018 738.75 303.731 738.75 304.545ZM749.29 314.091V299.091H750.909V300.824H751.108C751.231 300.634 751.402 300.393 751.619 300.099C751.842 299.801 752.159 299.536 752.571 299.304C752.988 299.067 753.551 298.949 754.262 298.949C755.18 298.949 755.99 299.179 756.691 299.638C757.391 300.097 757.938 300.748 758.331 301.591C758.724 302.434 758.921 303.428 758.921 304.574C758.921 305.729 758.724 306.731 758.331 307.578C757.938 308.421 757.394 309.074 756.698 309.538C756.002 309.998 755.199 310.227 754.29 310.227C753.589 310.227 753.028 310.111 752.607 309.879C752.185 309.643 751.861 309.375 751.634 309.077C751.406 308.774 751.231 308.523 751.108 308.324H750.966V314.091H749.29ZM750.938 304.545C750.938 305.369 751.058 306.096 751.3 306.726C751.541 307.351 751.894 307.841 752.358 308.196C752.822 308.546 753.39 308.722 754.063 308.722C754.763 308.722 755.348 308.537 755.817 308.168C756.29 307.794 756.646 307.292 756.882 306.662C757.124 306.027 757.244 305.322 757.244 304.545C757.244 303.778 757.126 303.087 756.889 302.472C756.657 301.851 756.305 301.361 755.831 301.001C755.362 300.637 754.773 300.455 754.063 300.455C753.381 300.455 752.808 300.627 752.344 300.973C751.88 301.314 751.53 301.792 751.293 302.408C751.056 303.018 750.938 303.731 750.938 304.545ZM766.563 295.455V310H764.801V297.301H764.716L761.165 299.659V297.869L764.801 295.455H766.563ZM781.257 299.091V300.511H775.377V299.091H781.257ZM777.138 310V297.585C777.138 296.96 777.285 296.439 777.578 296.023C777.872 295.606 778.253 295.294 778.722 295.085C779.191 294.877 779.685 294.773 780.206 294.773C780.618 294.773 780.954 294.806 781.215 294.872C781.475 294.938 781.669 295 781.797 295.057L781.314 296.506C781.229 296.477 781.11 296.442 780.959 296.399C780.812 296.357 780.618 296.335 780.377 296.335C779.823 296.335 779.423 296.475 779.176 296.754C778.935 297.034 778.814 297.443 778.814 297.983V310H777.138ZM783.606 310V299.091H785.282V310H783.606ZM784.459 297.273C784.132 297.273 783.85 297.161 783.613 296.939C783.381 296.716 783.265 296.449 783.265 296.136C783.265 295.824 783.381 295.556 783.613 295.334C783.85 295.111 784.132 295 784.459 295C784.785 295 785.065 295.111 785.297 295.334C785.533 295.556 785.652 295.824 785.652 296.136C785.652 296.449 785.533 296.716 785.297 296.939C785.065 297.161 784.785 297.273 784.459 297.273ZM790.029 295.455V310H788.352V295.455H790.029ZM797.672 310.227C796.621 310.227 795.715 309.995 794.952 309.531C794.195 309.062 793.61 308.409 793.198 307.571C792.791 306.728 792.587 305.748 792.587 304.631C792.587 303.513 792.791 302.528 793.198 301.676C793.61 300.819 794.183 300.152 794.917 299.673C795.655 299.19 796.517 298.949 797.502 298.949C798.07 298.949 798.631 299.044 799.185 299.233C799.739 299.422 800.243 299.73 800.698 300.156C801.153 300.578 801.515 301.136 801.785 301.832C802.055 302.528 802.189 303.385 802.189 304.403V305.114H793.78V303.665H800.485C800.485 303.049 800.362 302.5 800.116 302.017C799.874 301.534 799.528 301.153 799.079 300.874C798.634 300.594 798.108 300.455 797.502 300.455C796.834 300.455 796.257 300.62 795.769 300.952C795.286 301.278 794.914 301.705 794.654 302.23C794.394 302.756 794.263 303.319 794.263 303.92V304.886C794.263 305.71 794.405 306.409 794.689 306.982C794.978 307.55 795.378 307.983 795.89 308.281C796.401 308.575 796.995 308.722 797.672 308.722C798.113 308.722 798.51 308.66 798.866 308.537C799.225 308.409 799.536 308.22 799.796 307.969C800.056 307.713 800.258 307.396 800.4 307.017L802.019 307.472C801.849 308.021 801.562 308.504 801.16 308.92C800.757 309.332 800.26 309.654 799.668 309.886C799.076 310.114 798.411 310.227 797.672 310.227ZM812.466 301.534L810.961 301.96C810.866 301.709 810.726 301.465 810.542 301.229C810.362 300.987 810.116 300.788 809.803 300.632C809.491 300.476 809.09 300.398 808.603 300.398C807.935 300.398 807.379 300.552 806.934 300.859C806.493 301.162 806.273 301.548 806.273 302.017C806.273 302.434 806.425 302.763 806.728 303.004C807.031 303.246 807.504 303.447 808.148 303.608L809.768 304.006C810.743 304.242 811.47 304.605 811.948 305.092C812.426 305.575 812.665 306.198 812.665 306.96C812.665 307.585 812.485 308.144 812.126 308.636C811.77 309.129 811.273 309.517 810.634 309.801C809.995 310.085 809.251 310.227 808.404 310.227C807.291 310.227 806.37 309.986 805.641 309.503C804.912 309.02 804.45 308.314 804.256 307.386L805.847 306.989C805.999 307.576 806.285 308.016 806.706 308.31C807.133 308.603 807.689 308.75 808.376 308.75C809.157 308.75 809.777 308.584 810.236 308.253C810.7 307.917 810.932 307.514 810.932 307.045C810.932 306.667 810.8 306.349 810.535 306.094C810.269 305.833 809.862 305.639 809.313 305.511L807.495 305.085C806.496 304.848 805.762 304.482 805.293 303.984C804.829 303.482 804.597 302.855 804.597 302.102C804.597 301.487 804.77 300.942 805.116 300.469C805.466 299.995 805.942 299.624 806.543 299.354C807.149 299.084 807.836 298.949 808.603 298.949C809.682 298.949 810.53 299.186 811.145 299.659C811.766 300.133 812.206 300.758 812.466 301.534Z" fill="black"/>
<path d="M508.005 191.5L498.005 185.726V197.274L508.005 191.5ZM157.992 191.5V192.5H499.005V191.5V190.5H157.992V191.5Z" fill="#090D13"/>
<path d="M859 216L849 210.226V221.774L859 216ZM515 216V217H850V216V215H515V216Z" fill="#090D13"/>
<path d="M1210 358L1200 352.226V363.774L1210 358ZM866 358V359H1201V358V357H866V358Z" fill="#090D13"/>
<rect width="314" height="93" rx="10" fill="#D9D9D9"/>
<path d="M141.194 35.1818H143.836V49.6278C143.836 51.1193 143.484 52.451 142.781 53.6229C142.085 54.7876 141.101 55.7074 139.83 56.3821C138.559 57.0497 137.067 57.3835 135.356 57.3835C133.644 57.3835 132.152 57.0497 130.881 56.3821C129.61 55.7074 128.623 54.7876 127.919 53.6229C127.223 52.451 126.875 51.1193 126.875 49.6278V35.1818H129.517V49.4148C129.517 50.4801 129.752 51.4283 130.221 52.2592C130.689 53.0831 131.357 53.733 132.223 54.2088C133.097 54.6776 134.141 54.9119 135.356 54.9119C136.57 54.9119 137.614 54.6776 138.488 54.2088C139.361 53.733 140.029 53.0831 140.491 52.2592C140.959 51.4283 141.194 50.4801 141.194 49.4148V35.1818ZM160.362 44.3011L158.103 44.9403C157.961 44.5639 157.752 44.1982 157.475 43.843C157.205 43.4808 156.835 43.1825 156.367 42.9482C155.898 42.7138 155.298 42.5966 154.566 42.5966C153.565 42.5966 152.73 42.8274 152.063 43.2891C151.402 43.7436 151.072 44.3224 151.072 45.0256C151.072 45.6506 151.299 46.1442 151.754 46.5064C152.208 46.8686 152.919 47.1705 153.884 47.4119L156.313 48.0085C157.777 48.3636 158.867 48.907 159.584 49.6385C160.301 50.3629 160.66 51.2969 160.66 52.4403C160.66 53.3778 160.39 54.2159 159.85 54.9545C159.318 55.6932 158.572 56.2756 157.613 56.7017C156.654 57.1278 155.539 57.3409 154.268 57.3409C152.599 57.3409 151.218 56.9787 150.124 56.2543C149.03 55.5298 148.338 54.4716 148.046 53.0795L150.433 52.483C150.66 53.3636 151.09 54.0241 151.722 54.4645C152.361 54.9048 153.196 55.125 154.225 55.125C155.397 55.125 156.328 54.8764 157.017 54.3793C157.713 53.875 158.061 53.2713 158.061 52.5682C158.061 52 157.862 51.5241 157.464 51.1406C157.066 50.75 156.456 50.4588 155.632 50.267L152.904 49.6278C151.406 49.2727 150.305 48.7223 149.602 47.9766C148.906 47.2237 148.558 46.2827 148.558 45.1534C148.558 44.2301 148.817 43.4134 149.335 42.7031C149.861 41.9929 150.575 41.4354 151.477 41.0305C152.386 40.6257 153.416 40.4233 154.566 40.4233C156.186 40.4233 157.457 40.7784 158.38 41.4886C159.311 42.1989 159.971 43.1364 160.362 44.3011ZM171.305 57.3409C169.729 57.3409 168.369 56.9929 167.225 56.2969C166.089 55.5938 165.212 54.6136 164.594 53.3565C163.983 52.0923 163.678 50.6222 163.678 48.946C163.678 47.2699 163.983 45.7926 164.594 44.5142C165.212 43.2287 166.071 42.2273 167.172 41.5099C168.28 40.7855 169.573 40.4233 171.05 40.4233C171.902 40.4233 172.744 40.5653 173.575 40.8494C174.406 41.1335 175.162 41.5952 175.844 42.2344C176.526 42.8665 177.069 43.7045 177.474 44.7486C177.879 45.7926 178.081 47.0781 178.081 48.6051V49.6705H165.467V47.4972H175.524C175.524 46.5739 175.34 45.75 174.97 45.0256C174.608 44.3011 174.09 43.7294 173.415 43.3104C172.747 42.8913 171.959 42.6818 171.05 42.6818C170.048 42.6818 169.182 42.9304 168.45 43.4276C167.726 43.9176 167.168 44.5568 166.778 45.3452C166.387 46.1335 166.192 46.9787 166.192 47.8807V49.3295C166.192 50.5653 166.405 51.6129 166.831 52.4723C167.264 53.3246 167.864 53.9744 168.631 54.4219C169.399 54.8622 170.29 55.0824 171.305 55.0824C171.966 55.0824 172.563 54.9901 173.095 54.8054C173.635 54.6136 174.1 54.3295 174.491 53.9531C174.881 53.5696 175.183 53.0937 175.396 52.5256L177.825 53.2074C177.57 54.0312 177.14 54.7557 176.536 55.3807C175.933 55.9986 175.187 56.4815 174.299 56.8295C173.411 57.1705 172.413 57.3409 171.305 57.3409ZM181.906 57V40.6364H184.335V43.108H184.505C184.803 42.2983 185.343 41.6413 186.124 41.1371C186.906 40.6328 187.786 40.3807 188.766 40.3807C188.951 40.3807 189.182 40.3842 189.459 40.3913C189.736 40.3984 189.945 40.4091 190.087 40.4233V42.9801C190.002 42.9588 189.807 42.9268 189.502 42.8842C189.203 42.8345 188.887 42.8097 188.553 42.8097C187.758 42.8097 187.048 42.9766 186.423 43.3104C185.805 43.6371 185.315 44.0916 184.953 44.674C184.597 45.2493 184.42 45.9062 184.42 46.6449V57H181.906Z" fill="black"/>
<line x1="159.5" y1="93" x2="159.5" y2="533" stroke="#D9D9D9" stroke-width="5"/>
<rect x="351" width="314" height="93" rx="10" fill="#D9D9D9"/>
<path d="M446.654 57H439.921V35.1818H446.953C449.069 35.1818 450.88 35.6186 452.386 36.4922C453.892 37.3587 455.046 38.6051 455.848 40.2315C456.651 41.8509 457.052 43.7898 457.052 46.0483C457.052 48.321 456.647 50.2777 455.838 51.9183C455.028 53.5518 453.849 54.8089 452.301 55.6896C450.752 56.5632 448.87 57 446.654 57ZM442.563 54.6562H446.484C448.288 54.6562 449.783 54.3082 450.969 53.6122C452.155 52.9162 453.039 51.9254 453.622 50.6399C454.204 49.3544 454.495 47.8239 454.495 46.0483C454.495 44.2869 454.208 42.7706 453.632 41.4993C453.057 40.2209 452.198 39.2408 451.054 38.5589C449.911 37.87 448.487 37.5256 446.782 37.5256H442.563V54.6562ZM464.126 35.1818V57H461.484V35.1818H464.126ZM470.318 57H467.548L475.56 35.1818H478.287L486.298 57H483.528L477.009 38.6335H476.838L470.318 57ZM471.341 48.4773H482.506V50.821H471.341V48.4773ZM489.697 57V35.1818H492.339V54.6562H502.481V57H489.697ZM532.566 42H529.924C529.768 41.2401 529.494 40.5724 529.104 39.9972C528.72 39.4219 528.251 38.9389 527.697 38.5483C527.151 38.1506 526.543 37.8523 525.876 37.6534C525.208 37.4545 524.512 37.3551 523.788 37.3551C522.467 37.3551 521.27 37.6889 520.197 38.3565C519.132 39.0241 518.283 40.0078 517.651 41.3075C517.026 42.6072 516.714 44.2017 516.714 46.0909C516.714 47.9801 517.026 49.5746 517.651 50.8743C518.283 52.174 519.132 53.1577 520.197 53.8253C521.27 54.4929 522.467 54.8267 523.788 54.8267C524.512 54.8267 525.208 54.7273 525.876 54.5284C526.543 54.3295 527.151 54.0348 527.697 53.6442C528.251 53.2464 528.72 52.7599 529.104 52.1847C529.494 51.6023 529.768 50.9347 529.924 50.1818H532.566C532.367 51.2969 532.005 52.2947 531.479 53.1754C530.954 54.0561 530.3 54.8054 529.519 55.4233C528.738 56.0341 527.861 56.4993 526.888 56.8189C525.922 57.1385 524.888 57.2983 523.788 57.2983C521.927 57.2983 520.272 56.8438 518.823 55.9347C517.374 55.0256 516.234 53.733 515.403 52.0568C514.572 50.3807 514.157 48.392 514.157 46.0909C514.157 43.7898 514.572 41.8011 515.403 40.125C516.234 38.4489 517.374 37.1562 518.823 36.2472C520.272 35.3381 521.927 34.8835 523.788 34.8835C524.888 34.8835 525.922 35.0433 526.888 35.3629C527.861 35.6825 528.738 36.1513 529.519 36.7692C530.3 37.38 530.954 38.1257 531.479 39.0064C532.005 39.88 532.367 40.8778 532.566 42ZM539.009 47.1562V57H536.494V35.1818H539.009V43.1932H539.222C539.605 42.348 540.181 41.6768 540.948 41.1797C541.722 40.6754 542.752 40.4233 544.037 40.4233C545.152 40.4233 546.129 40.647 546.967 41.0945C547.805 41.5348 548.455 42.2131 548.916 43.1293C549.385 44.0384 549.619 45.196 549.619 46.6023V57H547.105V46.7727C547.105 45.473 546.768 44.468 546.093 43.7578C545.426 43.0405 544.499 42.6818 543.313 42.6818C542.489 42.6818 541.75 42.8558 541.097 43.2038C540.45 43.5518 539.939 44.0597 539.563 44.7273C539.193 45.3949 539.009 46.2045 539.009 47.1562ZM559.034 57.3835C557.998 57.3835 557.056 57.1882 556.211 56.7976C555.366 56.3999 554.695 55.8281 554.198 55.0824C553.701 54.3295 553.452 53.4205 553.452 52.3551C553.452 51.4176 553.637 50.6577 554.006 50.0753C554.375 49.4858 554.869 49.0241 555.487 48.6903C556.105 48.3565 556.787 48.108 557.532 47.9446C558.285 47.7741 559.042 47.6392 559.801 47.5398C560.796 47.4119 561.602 47.3161 562.22 47.2521C562.845 47.1811 563.299 47.0639 563.583 46.9006C563.875 46.7372 564.02 46.4531 564.02 46.0483V45.9631C564.02 44.9119 563.733 44.0952 563.157 43.5128C562.589 42.9304 561.726 42.6392 560.569 42.6392C559.368 42.6392 558.427 42.902 557.745 43.4276C557.064 43.9531 556.584 44.5142 556.307 45.1108L553.921 44.2585C554.347 43.2642 554.915 42.4901 555.625 41.9361C556.343 41.375 557.124 40.9844 557.969 40.7642C558.821 40.5369 559.659 40.4233 560.483 40.4233C561.009 40.4233 561.613 40.4872 562.294 40.6151C562.983 40.7358 563.647 40.9879 564.287 41.3714C564.933 41.755 565.469 42.3338 565.895 43.108C566.321 43.8821 566.534 44.919 566.534 46.2188V57H564.02V54.7841H563.892C563.722 55.1392 563.438 55.5192 563.04 55.924C562.642 56.3288 562.113 56.6733 561.453 56.9574C560.792 57.2415 559.986 57.3835 559.034 57.3835ZM559.418 55.125C560.412 55.125 561.25 54.9297 561.932 54.5391C562.621 54.1484 563.14 53.6442 563.488 53.0263C563.843 52.4084 564.02 51.7585 564.02 51.0767V48.7756C563.914 48.9034 563.679 49.0206 563.317 49.1271C562.962 49.2266 562.55 49.3153 562.081 49.3935C561.62 49.4645 561.169 49.5284 560.728 49.5852C560.295 49.6349 559.944 49.6776 559.674 49.7131C559.02 49.7983 558.409 49.9368 557.841 50.1286C557.28 50.3132 556.826 50.5937 556.478 50.9702C556.137 51.3395 555.966 51.8437 555.966 52.483C555.966 53.3565 556.289 54.017 556.936 54.4645C557.589 54.9048 558.417 55.125 559.418 55.125ZM578.24 40.6364V42.767H569.76V40.6364H578.24ZM572.231 36.7159H574.746V52.3125C574.746 53.0227 574.849 53.5554 575.055 53.9105C575.268 54.2585 575.537 54.4929 575.864 54.6136C576.198 54.7273 576.55 54.7841 576.919 54.7841C577.196 54.7841 577.423 54.7699 577.601 54.7415C577.778 54.706 577.92 54.6776 578.027 54.6562L578.538 56.9148C578.368 56.9787 578.13 57.0426 577.824 57.1065C577.519 57.1776 577.132 57.2131 576.663 57.2131C575.953 57.2131 575.257 57.0604 574.575 56.755C573.9 56.4496 573.339 55.9844 572.892 55.3594C572.452 54.7344 572.231 53.946 572.231 52.9943V36.7159Z" fill="black"/>
<line x1="510.5" y1="93" x2="510.5" y2="533" stroke="#D9D9D9" stroke-width="5"/>
<rect x="702" width="314" height="93" rx="10" fill="#D9D9D9"/>
<path d="M797.405 57H790.672V35.1818H797.704C799.82 35.1818 801.631 35.6186 803.137 36.4922C804.642 37.3587 805.797 38.6051 806.599 40.2315C807.402 41.8509 807.803 43.7898 807.803 46.0483C807.803 48.321 807.398 50.2777 806.589 51.9183C805.779 53.5518 804.6 54.8089 803.052 55.6896C801.503 56.5632 799.621 57 797.405 57ZM793.314 54.6562H797.235C799.039 54.6562 800.534 54.3082 801.72 53.6122C802.906 52.9162 803.79 51.9254 804.373 50.6399C804.955 49.3544 805.246 47.8239 805.246 46.0483C805.246 44.2869 804.959 42.7706 804.383 41.4993C803.808 40.2209 802.949 39.2408 801.805 38.5589C800.662 37.87 799.238 37.5256 797.533 37.5256H793.314V54.6562ZM814.877 35.1818V57H812.235V35.1818H814.877ZM821.069 57H818.299L826.311 35.1818H829.038L837.049 57H834.279L827.759 38.6335H827.589L821.069 57ZM822.092 48.4773H833.257V50.821H822.092V48.4773ZM840.448 57V35.1818H843.09V54.6562H853.232V57H840.448ZM883.317 42H880.675C880.519 41.2401 880.245 40.5724 879.855 39.9972C879.471 39.4219 879.002 38.9389 878.448 38.5483C877.902 38.1506 877.294 37.8523 876.627 37.6534C875.959 37.4545 875.263 37.3551 874.539 37.3551C873.218 37.3551 872.021 37.6889 870.948 38.3565C869.883 39.0241 869.034 40.0078 868.402 41.3075C867.777 42.6072 867.465 44.2017 867.465 46.0909C867.465 47.9801 867.777 49.5746 868.402 50.8743C869.034 52.174 869.883 53.1577 870.948 53.8253C872.021 54.4929 873.218 54.8267 874.539 54.8267C875.263 54.8267 875.959 54.7273 876.627 54.5284C877.294 54.3295 877.902 54.0348 878.448 53.6442C879.002 53.2464 879.471 52.7599 879.855 52.1847C880.245 51.6023 880.519 50.9347 880.675 50.1818H883.317C883.118 51.2969 882.756 52.2947 882.23 53.1754C881.705 54.0561 881.051 54.8054 880.27 55.4233C879.489 56.0341 878.612 56.4993 877.639 56.8189C876.673 57.1385 875.639 57.2983 874.539 57.2983C872.678 57.2983 871.023 56.8438 869.574 55.9347C868.125 55.0256 866.985 53.733 866.154 52.0568C865.323 50.3807 864.908 48.392 864.908 46.0909C864.908 43.7898 865.323 41.8011 866.154 40.125C866.985 38.4489 868.125 37.1562 869.574 36.2472C871.023 35.3381 872.678 34.8835 874.539 34.8835C875.639 34.8835 876.673 35.0433 877.639 35.3629C878.612 35.6825 879.489 36.1513 880.27 36.7692C881.051 37.38 881.705 38.1257 882.23 39.0064C882.756 39.88 883.118 40.8778 883.317 42ZM893.893 57.3409C892.416 57.3409 891.12 56.9893 890.005 56.2862C888.897 55.5831 888.03 54.5994 887.405 53.3352C886.787 52.071 886.478 50.5937 886.478 48.9034C886.478 47.1989 886.787 45.7109 887.405 44.4396C888.03 43.1683 888.897 42.1811 890.005 41.478C891.12 40.7749 892.416 40.4233 893.893 40.4233C895.37 40.4233 896.663 40.7749 897.771 41.478C898.886 42.1811 899.753 43.1683 900.37 44.4396C900.995 45.7109 901.308 47.1989 901.308 48.9034C901.308 50.5937 900.995 52.071 900.37 53.3352C899.753 54.5994 898.886 55.5831 897.771 56.2862C896.663 56.9893 895.37 57.3409 893.893 57.3409ZM893.893 55.0824C895.015 55.0824 895.939 54.7947 896.663 54.2195C897.388 53.6442 897.924 52.8878 898.272 51.9503C898.62 51.0128 898.794 49.9972 898.794 48.9034C898.794 47.8097 898.62 46.7905 898.272 45.8459C897.924 44.9013 897.388 44.1378 896.663 43.5554C895.939 42.973 895.015 42.6818 893.893 42.6818C892.771 42.6818 891.848 42.973 891.123 43.5554C890.399 44.1378 889.863 44.9013 889.515 45.8459C889.167 46.7905 888.993 47.8097 888.993 48.9034C888.993 49.9972 889.167 51.0128 889.515 51.9503C889.863 52.8878 890.399 53.6442 891.123 54.2195C891.848 54.7947 892.771 55.0824 893.893 55.0824ZM905.146 57V40.6364H907.575V43.108H907.745C908.044 42.2983 908.583 41.6413 909.365 41.1371C910.146 40.6328 911.027 40.3807 912.007 40.3807C912.191 40.3807 912.422 40.3842 912.699 40.3913C912.976 40.3984 913.186 40.4091 913.328 40.4233V42.9801C913.242 42.9588 913.047 42.9268 912.742 42.8842C912.443 42.8345 912.127 42.8097 911.794 42.8097C910.998 42.8097 910.288 42.9766 909.663 43.3104C909.045 43.6371 908.555 44.0916 908.193 44.674C907.838 45.2493 907.66 45.9062 907.66 46.6449V57H905.146ZM922.671 57.3409C921.094 57.3409 919.734 56.9929 918.59 56.2969C917.454 55.5938 916.577 54.6136 915.959 53.3565C915.348 52.0923 915.043 50.6222 915.043 48.946C915.043 47.2699 915.348 45.7926 915.959 44.5142C916.577 43.2287 917.436 42.2273 918.537 41.5099C919.645 40.7855 920.938 40.4233 922.415 40.4233C923.267 40.4233 924.109 40.5653 924.94 40.8494C925.771 41.1335 926.527 41.5952 927.209 42.2344C927.891 42.8665 928.434 43.7045 928.839 44.7486C929.244 45.7926 929.446 47.0781 929.446 48.6051V49.6705H916.833V47.4972H926.889C926.889 46.5739 926.705 45.75 926.335 45.0256C925.973 44.3011 925.455 43.7294 924.78 43.3104C924.112 42.8913 923.324 42.6818 922.415 42.6818C921.414 42.6818 920.547 42.9304 919.816 43.4276C919.091 43.9176 918.534 44.5568 918.143 45.3452C917.752 46.1335 917.557 46.9787 917.557 47.8807V49.3295C917.557 50.5653 917.77 51.6129 918.196 52.4723C918.63 53.3246 919.23 53.9744 919.997 54.4219C920.764 54.8622 921.655 55.0824 922.671 55.0824C923.331 55.0824 923.928 54.9901 924.46 54.8054C925 54.6136 925.465 54.3295 925.856 53.9531C926.247 53.5696 926.549 53.0937 926.762 52.5256L929.191 53.2074C928.935 54.0312 928.505 54.7557 927.902 55.3807C927.298 55.9986 926.552 56.4815 925.664 56.8295C924.777 57.1705 923.779 57.3409 922.671 57.3409Z" fill="black"/>
<line x1="861.5" y1="93" x2="861.5" y2="533" stroke="#D9D9D9" stroke-width="5"/>
<rect x="1053" width="314" height="93" rx="10" fill="#D9D9D9"/>
<path d="M1178.65 57H1175.88L1183.89 35.1818H1186.62L1194.63 57H1191.86L1185.34 38.6335H1185.17L1178.65 57ZM1179.67 48.4773H1190.83V50.821H1179.67V48.4773ZM1197.68 63.1364V40.6364H1200.11V43.2358H1200.41C1200.6 42.9517 1200.85 42.5895 1201.18 42.1491C1201.51 41.7017 1201.99 41.304 1202.61 40.956C1203.23 40.6009 1204.08 40.4233 1205.14 40.4233C1206.52 40.4233 1207.73 40.7678 1208.78 41.4567C1209.84 42.1456 1210.66 43.1222 1211.25 44.3864C1211.84 45.6506 1212.13 47.142 1212.13 48.8608C1212.13 50.5938 1211.84 52.0959 1211.25 53.3672C1210.66 54.6314 1209.84 55.6115 1208.8 56.3075C1207.75 56.9964 1206.55 57.3409 1205.18 57.3409C1204.13 57.3409 1203.29 57.1669 1202.66 56.8189C1202.03 56.4638 1201.54 56.0625 1201.2 55.6151C1200.86 55.1605 1200.6 54.7841 1200.41 54.4858H1200.2V63.1364H1197.68ZM1200.16 48.8182C1200.16 50.054 1200.34 51.1442 1200.7 52.0888C1201.06 53.0263 1201.59 53.7614 1202.29 54.294C1202.98 54.8196 1203.83 55.0824 1204.84 55.0824C1205.89 55.0824 1206.77 54.8054 1207.47 54.2514C1208.18 53.6903 1208.72 52.9375 1209.07 51.9929C1209.43 51.0412 1209.62 49.983 1209.62 48.8182C1209.62 47.6676 1209.44 46.6307 1209.08 45.7074C1208.74 44.777 1208.21 44.0419 1207.5 43.5021C1206.79 42.9553 1205.91 42.6818 1204.84 42.6818C1203.82 42.6818 1202.96 42.9411 1202.26 43.4595C1201.57 43.9709 1201.04 44.6882 1200.69 45.6115C1200.33 46.5277 1200.16 47.5966 1200.16 48.8182ZM1215.97 63.1364V40.6364H1218.39V43.2358H1218.69C1218.88 42.9517 1219.13 42.5895 1219.46 42.1491C1219.79 41.7017 1220.27 41.304 1220.89 40.956C1221.51 40.6009 1222.36 40.4233 1223.42 40.4233C1224.8 40.4233 1226.01 40.7678 1227.07 41.4567C1228.12 42.1456 1228.94 43.1222 1229.53 44.3864C1230.12 45.6506 1230.41 47.142 1230.41 48.8608C1230.41 50.5938 1230.12 52.0959 1229.53 53.3672C1228.94 54.6314 1228.12 55.6115 1227.08 56.3075C1226.03 56.9964 1224.83 57.3409 1223.47 57.3409C1222.41 57.3409 1221.57 57.1669 1220.94 56.8189C1220.31 56.4638 1219.82 56.0625 1219.48 55.6151C1219.14 55.1605 1218.88 54.7841 1218.69 54.4858H1218.48V63.1364H1215.97ZM1218.44 48.8182C1218.44 50.054 1218.62 51.1442 1218.98 52.0888C1219.34 53.0263 1219.87 53.7614 1220.57 54.294C1221.26 54.8196 1222.12 55.0824 1223.12 55.0824C1224.18 55.0824 1225.05 54.8054 1225.76 54.2514C1226.47 53.6903 1227 52.9375 1227.35 51.9929C1227.72 51.0412 1227.9 49.983 1227.9 48.8182C1227.9 47.6676 1227.72 46.6307 1227.36 45.7074C1227.02 44.777 1226.49 44.0419 1225.78 43.5021C1225.07 42.9553 1224.19 42.6818 1223.12 42.6818C1222.1 42.6818 1221.24 42.9411 1220.55 43.4595C1219.85 43.9709 1219.32 44.6882 1218.97 45.6115C1218.61 46.5277 1218.44 47.5966 1218.44 48.8182ZM1241.87 35.1818V57H1239.23V37.9517H1239.1L1233.78 41.4886V38.804L1239.23 35.1818H1241.87Z" fill="black"/>
<line x1="1212.5" y1="93" x2="1212.5" y2="533" stroke="#D9D9D9" stroke-width="5"/>
<rect x="855" y="228" width="13" height="119" rx="2" fill="#D9D9D9"/>
</svg>
