<svg width="1521" height="282" viewBox="0 0 1521 282" fill="none" xmlns="http://www.w3.org/2000/svg">
<rect width="1521" height="282" rx="20" fill="#D9D9D9" fill-opacity="0.3"/>
<rect x="46" y="49" width="314" height="185" rx="10" fill="#D9D9D9"/>
<rect x="561" y="49" width="314" height="185" rx="10" fill="#D9D9D9"/>
<rect x="1109" y="47" width="359" height="185" rx="10" fill="#D9D9D9"/>
<path d="M140.654 130H133.921V108.182H140.953C143.069 108.182 144.88 108.619 146.386 109.492C147.892 110.359 149.046 111.605 149.848 113.232C150.651 114.851 151.052 116.79 151.052 119.048C151.052 121.321 150.647 123.278 149.838 124.918C149.028 126.552 147.849 127.809 146.301 128.69C144.752 129.563 142.87 130 140.654 130ZM136.563 127.656H140.484C142.288 127.656 143.783 127.308 144.969 126.612C146.155 125.916 147.039 124.925 147.622 123.64C148.204 122.354 148.495 120.824 148.495 119.048C148.495 117.287 148.208 115.771 147.632 114.499C147.057 113.221 146.198 112.241 145.054 111.559C143.911 110.87 142.487 110.526 140.782 110.526H136.563V127.656ZM158.126 108.182V130H155.484V108.182H158.126ZM164.318 130H161.548L169.56 108.182H172.287L180.298 130H177.528L171.009 111.634H170.838L164.318 130ZM165.341 121.477H176.506V123.821H165.341V121.477ZM183.697 130V108.182H186.339V127.656H196.481V130H183.697ZM226.566 115H223.924C223.768 114.24 223.494 113.572 223.104 112.997C222.72 112.422 222.251 111.939 221.697 111.548C221.151 111.151 220.543 110.852 219.876 110.653C219.208 110.455 218.512 110.355 217.788 110.355C216.467 110.355 215.27 110.689 214.197 111.357C213.132 112.024 212.283 113.008 211.651 114.308C211.026 115.607 210.714 117.202 210.714 119.091C210.714 120.98 211.026 122.575 211.651 123.874C212.283 125.174 213.132 126.158 214.197 126.825C215.27 127.493 216.467 127.827 217.788 127.827C218.512 127.827 219.208 127.727 219.876 127.528C220.543 127.33 221.151 127.035 221.697 126.644C222.251 126.246 222.72 125.76 223.104 125.185C223.494 124.602 223.768 123.935 223.924 123.182H226.566C226.367 124.297 226.005 125.295 225.479 126.175C224.954 127.056 224.3 127.805 223.519 128.423C222.738 129.034 221.861 129.499 220.888 129.819C219.922 130.138 218.888 130.298 217.788 130.298C215.927 130.298 214.272 129.844 212.823 128.935C211.374 128.026 210.234 126.733 209.403 125.057C208.572 123.381 208.157 121.392 208.157 119.091C208.157 116.79 208.572 114.801 209.403 113.125C210.234 111.449 211.374 110.156 212.823 109.247C214.272 108.338 215.927 107.884 217.788 107.884C218.888 107.884 219.922 108.043 220.888 108.363C221.861 108.683 222.738 109.151 223.519 109.769C224.3 110.38 224.954 111.126 225.479 112.006C226.005 112.88 226.367 113.878 226.566 115ZM233.009 120.156V130H230.494V108.182H233.009V116.193H233.222C233.605 115.348 234.181 114.677 234.948 114.18C235.722 113.675 236.752 113.423 238.037 113.423C239.152 113.423 240.129 113.647 240.967 114.094C241.805 114.535 242.455 115.213 242.916 116.129C243.385 117.038 243.619 118.196 243.619 119.602V130H241.105V119.773C241.105 118.473 240.768 117.468 240.093 116.758C239.426 116.04 238.499 115.682 237.313 115.682C236.489 115.682 235.75 115.856 235.097 116.204C234.45 116.552 233.939 117.06 233.563 117.727C233.193 118.395 233.009 119.205 233.009 120.156ZM253.034 130.384C251.998 130.384 251.056 130.188 250.211 129.798C249.366 129.4 248.695 128.828 248.198 128.082C247.701 127.33 247.452 126.42 247.452 125.355C247.452 124.418 247.637 123.658 248.006 123.075C248.375 122.486 248.869 122.024 249.487 121.69C250.105 121.357 250.787 121.108 251.532 120.945C252.285 120.774 253.042 120.639 253.801 120.54C254.796 120.412 255.602 120.316 256.22 120.252C256.845 120.181 257.299 120.064 257.583 119.901C257.875 119.737 258.02 119.453 258.02 119.048V118.963C258.02 117.912 257.733 117.095 257.157 116.513C256.589 115.93 255.726 115.639 254.569 115.639C253.368 115.639 252.427 115.902 251.745 116.428C251.064 116.953 250.584 117.514 250.307 118.111L247.921 117.259C248.347 116.264 248.915 115.49 249.625 114.936C250.343 114.375 251.124 113.984 251.969 113.764C252.821 113.537 253.659 113.423 254.483 113.423C255.009 113.423 255.613 113.487 256.294 113.615C256.983 113.736 257.647 113.988 258.287 114.371C258.933 114.755 259.469 115.334 259.895 116.108C260.321 116.882 260.534 117.919 260.534 119.219V130H258.02V127.784H257.892C257.722 128.139 257.438 128.519 257.04 128.924C256.642 129.329 256.113 129.673 255.453 129.957C254.792 130.241 253.986 130.384 253.034 130.384ZM253.418 128.125C254.412 128.125 255.25 127.93 255.932 127.539C256.621 127.148 257.14 126.644 257.488 126.026C257.843 125.408 258.02 124.759 258.02 124.077V121.776C257.914 121.903 257.679 122.021 257.317 122.127C256.962 122.227 256.55 122.315 256.081 122.393C255.62 122.464 255.169 122.528 254.728 122.585C254.295 122.635 253.944 122.678 253.674 122.713C253.02 122.798 252.409 122.937 251.841 123.129C251.28 123.313 250.826 123.594 250.478 123.97C250.137 124.339 249.966 124.844 249.966 125.483C249.966 126.357 250.289 127.017 250.936 127.464C251.589 127.905 252.417 128.125 253.418 128.125ZM272.24 113.636V115.767H263.76V113.636H272.24ZM266.231 109.716H268.746V125.312C268.746 126.023 268.849 126.555 269.055 126.911C269.268 127.259 269.537 127.493 269.864 127.614C270.198 127.727 270.55 127.784 270.919 127.784C271.196 127.784 271.423 127.77 271.601 127.741C271.778 127.706 271.92 127.678 272.027 127.656L272.538 129.915C272.368 129.979 272.13 130.043 271.824 130.107C271.519 130.178 271.132 130.213 270.663 130.213C269.953 130.213 269.257 130.06 268.575 129.755C267.9 129.45 267.339 128.984 266.892 128.359C266.452 127.734 266.231 126.946 266.231 125.994V109.716ZM186.194 153.182H188.836V167.628C188.836 169.119 188.484 170.451 187.781 171.623C187.085 172.788 186.101 173.707 184.83 174.382C183.559 175.05 182.067 175.384 180.356 175.384C178.644 175.384 177.152 175.05 175.881 174.382C174.61 173.707 173.623 172.788 172.919 171.623C172.223 170.451 171.875 169.119 171.875 167.628V153.182H174.517V167.415C174.517 168.48 174.752 169.428 175.221 170.259C175.689 171.083 176.357 171.733 177.223 172.209C178.097 172.678 179.141 172.912 180.356 172.912C181.57 172.912 182.614 172.678 183.488 172.209C184.361 171.733 185.029 171.083 185.491 170.259C185.959 169.428 186.194 168.48 186.194 167.415V153.182ZM205.362 162.301L203.103 162.94C202.961 162.564 202.752 162.198 202.475 161.843C202.205 161.481 201.835 161.183 201.367 160.948C200.898 160.714 200.298 160.597 199.566 160.597C198.565 160.597 197.73 160.827 197.063 161.289C196.402 161.744 196.072 162.322 196.072 163.026C196.072 163.651 196.299 164.144 196.754 164.506C197.208 164.869 197.919 165.17 198.884 165.412L201.313 166.009C202.777 166.364 203.867 166.907 204.584 167.638C205.301 168.363 205.66 169.297 205.66 170.44C205.66 171.378 205.39 172.216 204.85 172.955C204.318 173.693 203.572 174.276 202.613 174.702C201.654 175.128 200.539 175.341 199.268 175.341C197.599 175.341 196.218 174.979 195.124 174.254C194.03 173.53 193.338 172.472 193.046 171.08L195.433 170.483C195.66 171.364 196.09 172.024 196.722 172.464C197.361 172.905 198.196 173.125 199.225 173.125C200.397 173.125 201.328 172.876 202.017 172.379C202.713 171.875 203.061 171.271 203.061 170.568C203.061 170 202.862 169.524 202.464 169.141C202.066 168.75 201.456 168.459 200.632 168.267L197.904 167.628C196.406 167.273 195.305 166.722 194.602 165.977C193.906 165.224 193.558 164.283 193.558 163.153C193.558 162.23 193.817 161.413 194.335 160.703C194.861 159.993 195.575 159.435 196.477 159.031C197.386 158.626 198.416 158.423 199.566 158.423C201.186 158.423 202.457 158.778 203.38 159.489C204.311 160.199 204.971 161.136 205.362 162.301ZM216.305 175.341C214.729 175.341 213.369 174.993 212.225 174.297C211.089 173.594 210.212 172.614 209.594 171.357C208.983 170.092 208.678 168.622 208.678 166.946C208.678 165.27 208.983 163.793 209.594 162.514C210.212 161.229 211.071 160.227 212.172 159.51C213.28 158.786 214.573 158.423 216.05 158.423C216.902 158.423 217.744 158.565 218.575 158.849C219.406 159.134 220.162 159.595 220.844 160.234C221.526 160.866 222.069 161.705 222.474 162.749C222.879 163.793 223.081 165.078 223.081 166.605V167.67H210.467V165.497H220.524C220.524 164.574 220.34 163.75 219.97 163.026C219.608 162.301 219.09 161.729 218.415 161.31C217.747 160.891 216.959 160.682 216.05 160.682C215.048 160.682 214.182 160.93 213.45 161.428C212.726 161.918 212.168 162.557 211.778 163.345C211.387 164.134 211.192 164.979 211.192 165.881V167.33C211.192 168.565 211.405 169.613 211.831 170.472C212.264 171.325 212.864 171.974 213.631 172.422C214.399 172.862 215.29 173.082 216.305 173.082C216.966 173.082 217.563 172.99 218.095 172.805C218.635 172.614 219.1 172.33 219.491 171.953C219.881 171.57 220.183 171.094 220.396 170.526L222.825 171.207C222.57 172.031 222.14 172.756 221.536 173.381C220.933 173.999 220.187 174.482 219.299 174.83C218.411 175.17 217.413 175.341 216.305 175.341ZM226.906 175V158.636H229.335V161.108H229.505C229.803 160.298 230.343 159.641 231.124 159.137C231.906 158.633 232.786 158.381 233.766 158.381C233.951 158.381 234.182 158.384 234.459 158.391C234.736 158.398 234.945 158.409 235.087 158.423V160.98C235.002 160.959 234.807 160.927 234.502 160.884C234.203 160.835 233.887 160.81 233.553 160.81C232.758 160.81 232.048 160.977 231.423 161.31C230.805 161.637 230.315 162.092 229.953 162.674C229.597 163.249 229.42 163.906 229.42 164.645V175H226.906Z" fill="black"/>
<path d="M631.744 130H628.974L636.985 108.182H639.713L647.724 130H644.954L638.434 111.634H638.264L631.744 130ZM632.767 121.477H643.931V123.821H632.767V121.477ZM650.782 136.136V113.636H653.211V116.236H653.509C653.694 115.952 653.949 115.589 654.276 115.149C654.61 114.702 655.086 114.304 655.703 113.956C656.328 113.601 657.174 113.423 658.239 113.423C659.617 113.423 660.831 113.768 661.882 114.457C662.934 115.146 663.754 116.122 664.343 117.386C664.933 118.651 665.228 120.142 665.228 121.861C665.228 123.594 664.933 125.096 664.343 126.367C663.754 127.631 662.937 128.612 661.893 129.308C660.849 129.996 659.645 130.341 658.282 130.341C657.23 130.341 656.389 130.167 655.757 129.819C655.125 129.464 654.638 129.062 654.297 128.615C653.956 128.161 653.694 127.784 653.509 127.486H653.296V136.136H650.782ZM653.253 121.818C653.253 123.054 653.434 124.144 653.797 125.089C654.159 126.026 654.688 126.761 655.384 127.294C656.08 127.82 656.932 128.082 657.941 128.082C658.992 128.082 659.869 127.805 660.572 127.251C661.282 126.69 661.815 125.937 662.17 124.993C662.532 124.041 662.713 122.983 662.713 121.818C662.713 120.668 662.536 119.631 662.181 118.707C661.833 117.777 661.304 117.042 660.593 116.502C659.89 115.955 659.006 115.682 657.941 115.682C656.918 115.682 656.059 115.941 655.363 116.46C654.667 116.971 654.141 117.688 653.786 118.612C653.431 119.528 653.253 120.597 653.253 121.818ZM669.063 136.136V113.636H671.492V116.236H671.79C671.975 115.952 672.23 115.589 672.557 115.149C672.891 114.702 673.367 114.304 673.985 113.956C674.61 113.601 675.455 113.423 676.52 113.423C677.898 113.423 679.113 113.768 680.164 114.457C681.215 115.146 682.035 116.122 682.625 117.386C683.214 118.651 683.509 120.142 683.509 121.861C683.509 123.594 683.214 125.096 682.625 126.367C682.035 127.631 681.218 128.612 680.174 129.308C679.13 129.996 677.926 130.341 676.563 130.341C675.512 130.341 674.67 130.167 674.038 129.819C673.406 129.464 672.919 129.062 672.578 128.615C672.238 128.161 671.975 127.784 671.79 127.486H671.577V136.136H669.063ZM671.534 121.818C671.534 123.054 671.716 124.144 672.078 125.089C672.44 126.026 672.969 126.761 673.665 127.294C674.361 127.82 675.213 128.082 676.222 128.082C677.273 128.082 678.15 127.805 678.853 127.251C679.564 126.69 680.096 125.937 680.451 124.993C680.814 124.041 680.995 122.983 680.995 121.818C680.995 120.668 680.817 119.631 680.462 118.707C680.114 117.777 679.585 117.042 678.875 116.502C678.172 115.955 677.287 115.682 676.222 115.682C675.199 115.682 674.34 115.941 673.644 116.46C672.948 116.971 672.422 117.688 672.067 118.612C671.712 119.528 671.534 120.597 671.534 121.818ZM689.858 108.182V130H687.344V108.182H689.858ZM694.463 130V113.636H696.977V130H694.463ZM695.742 110.909C695.252 110.909 694.829 110.742 694.474 110.408C694.126 110.075 693.952 109.673 693.952 109.205C693.952 108.736 694.126 108.335 694.474 108.001C694.829 107.667 695.252 107.5 695.742 107.5C696.232 107.5 696.651 107.667 696.999 108.001C697.354 108.335 697.531 108.736 697.531 109.205C697.531 109.673 697.354 110.075 696.999 110.408C696.651 110.742 696.232 110.909 695.742 110.909ZM708.23 130.341C706.696 130.341 705.375 129.979 704.267 129.254C703.159 128.53 702.307 127.532 701.71 126.261C701.114 124.989 700.815 123.537 700.815 121.903C700.815 120.241 701.121 118.775 701.732 117.504C702.349 116.225 703.209 115.227 704.31 114.51C705.418 113.786 706.71 113.423 708.188 113.423C709.338 113.423 710.375 113.636 711.298 114.062C712.222 114.489 712.978 115.085 713.567 115.852C714.157 116.619 714.523 117.514 714.665 118.537H712.151C711.959 117.791 711.533 117.131 710.872 116.555C710.219 115.973 709.338 115.682 708.23 115.682C707.25 115.682 706.391 115.937 705.652 116.449C704.92 116.953 704.349 117.667 703.937 118.59C703.532 119.506 703.33 120.582 703.33 121.818C703.33 123.082 703.528 124.183 703.926 125.121C704.331 126.058 704.899 126.786 705.631 127.305C706.369 127.823 707.236 128.082 708.23 128.082C708.884 128.082 709.477 127.969 710.009 127.741C710.542 127.514 710.993 127.188 711.362 126.761C711.732 126.335 711.994 125.824 712.151 125.227H714.665C714.523 126.193 714.171 127.063 713.61 127.837C713.056 128.604 712.321 129.215 711.405 129.67C710.496 130.117 709.438 130.341 708.23 130.341ZM723.156 130.384C722.119 130.384 721.178 130.188 720.332 129.798C719.487 129.4 718.816 128.828 718.319 128.082C717.822 127.33 717.573 126.42 717.573 125.355C717.573 124.418 717.758 123.658 718.127 123.075C718.496 122.486 718.99 122.024 719.608 121.69C720.226 121.357 720.908 121.108 721.653 120.945C722.406 120.774 723.163 120.639 723.923 120.54C724.917 120.412 725.723 120.316 726.341 120.252C726.966 120.181 727.42 120.064 727.705 119.901C727.996 119.737 728.141 119.453 728.141 119.048V118.963C728.141 117.912 727.854 117.095 727.278 116.513C726.71 115.93 725.847 115.639 724.69 115.639C723.489 115.639 722.548 115.902 721.866 116.428C721.185 116.953 720.705 117.514 720.428 118.111L718.042 117.259C718.468 116.264 719.036 115.49 719.746 114.936C720.464 114.375 721.245 113.984 722.09 113.764C722.942 113.537 723.781 113.423 724.604 113.423C725.13 113.423 725.734 113.487 726.415 113.615C727.104 113.736 727.768 113.988 728.408 114.371C729.054 114.755 729.59 115.334 730.016 116.108C730.442 116.882 730.656 117.919 730.656 119.219V130H728.141V127.784H728.013C727.843 128.139 727.559 128.519 727.161 128.924C726.763 129.329 726.234 129.673 725.574 129.957C724.913 130.241 724.107 130.384 723.156 130.384ZM723.539 128.125C724.533 128.125 725.371 127.93 726.053 127.539C726.742 127.148 727.261 126.644 727.609 126.026C727.964 125.408 728.141 124.759 728.141 124.077V121.776C728.035 121.903 727.8 122.021 727.438 122.127C727.083 122.227 726.671 122.315 726.202 122.393C725.741 122.464 725.29 122.528 724.849 122.585C724.416 122.635 724.065 122.678 723.795 122.713C723.141 122.798 722.531 122.937 721.962 123.129C721.401 123.313 720.947 123.594 720.599 123.97C720.258 124.339 720.087 124.844 720.087 125.483C720.087 126.357 720.411 127.017 721.057 127.464C721.71 127.905 722.538 128.125 723.539 128.125ZM742.361 113.636V115.767H733.881V113.636H742.361ZM736.352 109.716H738.867V125.312C738.867 126.023 738.97 126.555 739.176 126.911C739.389 127.259 739.659 127.493 739.985 127.614C740.319 127.727 740.671 127.784 741.04 127.784C741.317 127.784 741.544 127.77 741.722 127.741C741.899 127.706 742.041 127.678 742.148 127.656L742.659 129.915C742.489 129.979 742.251 130.043 741.945 130.107C741.64 130.178 741.253 130.213 740.784 130.213C740.074 130.213 739.378 130.06 738.696 129.755C738.021 129.45 737.46 128.984 737.013 128.359C736.573 127.734 736.352 126.946 736.352 125.994V109.716ZM746.143 130V113.636H748.657V130H746.143ZM747.421 110.909C746.931 110.909 746.509 110.742 746.154 110.408C745.806 110.075 745.632 109.673 745.632 109.205C745.632 108.736 745.806 108.335 746.154 108.001C746.509 107.667 746.931 107.5 747.421 107.5C747.911 107.5 748.33 107.667 748.678 108.001C749.034 108.335 749.211 108.736 749.211 109.205C749.211 109.673 749.034 110.075 748.678 110.408C748.33 110.742 747.911 110.909 747.421 110.909ZM759.91 130.341C758.433 130.341 757.136 129.989 756.021 129.286C754.913 128.583 754.047 127.599 753.422 126.335C752.804 125.071 752.495 123.594 752.495 121.903C752.495 120.199 752.804 118.711 753.422 117.44C754.047 116.168 754.913 115.181 756.021 114.478C757.136 113.775 758.433 113.423 759.91 113.423C761.387 113.423 762.68 113.775 763.788 114.478C764.903 115.181 765.769 116.168 766.387 117.44C767.012 118.711 767.325 120.199 767.325 121.903C767.325 123.594 767.012 125.071 766.387 126.335C765.769 127.599 764.903 128.583 763.788 129.286C762.68 129.989 761.387 130.341 759.91 130.341ZM759.91 128.082C761.032 128.082 761.955 127.795 762.68 127.219C763.404 126.644 763.94 125.888 764.288 124.95C764.636 124.013 764.81 122.997 764.81 121.903C764.81 120.81 764.636 119.79 764.288 118.846C763.94 117.901 763.404 117.138 762.68 116.555C761.955 115.973 761.032 115.682 759.91 115.682C758.788 115.682 757.864 115.973 757.14 116.555C756.415 117.138 755.879 117.901 755.531 118.846C755.183 119.79 755.009 120.81 755.009 121.903C755.009 122.997 755.183 124.013 755.531 124.95C755.879 125.888 756.415 126.644 757.14 127.219C757.864 127.795 758.788 128.082 759.91 128.082ZM773.677 120.156V130H771.162V113.636H773.591V116.193H773.805C774.188 115.362 774.77 114.695 775.552 114.19C776.333 113.679 777.341 113.423 778.577 113.423C779.685 113.423 780.655 113.651 781.486 114.105C782.317 114.553 782.963 115.234 783.425 116.151C783.886 117.06 784.117 118.21 784.117 119.602V130H781.603V119.773C781.603 118.487 781.269 117.486 780.601 116.768C779.934 116.044 779.018 115.682 777.853 115.682C777.05 115.682 776.333 115.856 775.701 116.204C775.076 116.552 774.582 117.06 774.22 117.727C773.858 118.395 773.677 119.205 773.677 120.156ZM804.777 108.182V130H802.135V110.952H802.007L796.68 114.489V111.804L802.135 108.182H804.777ZM645.7 164.091C645.7 161.406 646.048 158.938 646.744 156.687C647.447 154.428 648.449 152.351 649.748 150.455H651.964C651.453 151.158 650.973 152.024 650.526 153.054C650.086 154.077 649.699 155.202 649.365 156.431C649.031 157.653 648.768 158.917 648.576 160.224C648.392 161.531 648.299 162.82 648.299 164.091C648.299 165.781 648.463 167.496 648.789 169.237C649.116 170.977 649.556 172.592 650.11 174.084C650.664 175.575 651.282 176.79 651.964 177.727H649.748C648.449 175.831 647.447 173.757 646.744 171.506C646.048 169.247 645.7 166.776 645.7 164.091ZM656.91 175H654.14L662.151 153.182H664.879L672.89 175H670.12L663.6 156.634H663.43L656.91 175ZM657.933 166.477H669.097V168.821H657.933V166.477ZM675.948 181.136V158.636H678.377V161.236H678.675C678.86 160.952 679.115 160.589 679.442 160.149C679.776 159.702 680.252 159.304 680.869 158.956C681.494 158.601 682.34 158.423 683.405 158.423C684.783 158.423 685.997 158.768 687.048 159.457C688.1 160.146 688.92 161.122 689.509 162.386C690.099 163.651 690.394 165.142 690.394 166.861C690.394 168.594 690.099 170.096 689.509 171.367C688.92 172.631 688.103 173.612 687.059 174.308C686.015 174.996 684.811 175.341 683.448 175.341C682.396 175.341 681.555 175.167 680.923 174.819C680.291 174.464 679.804 174.062 679.463 173.615C679.122 173.161 678.86 172.784 678.675 172.486H678.462V181.136H675.948ZM678.419 166.818C678.419 168.054 678.6 169.144 678.963 170.089C679.325 171.026 679.854 171.761 680.55 172.294C681.246 172.82 682.098 173.082 683.107 173.082C684.158 173.082 685.035 172.805 685.738 172.251C686.448 171.69 686.981 170.937 687.336 169.993C687.698 169.041 687.879 167.983 687.879 166.818C687.879 165.668 687.702 164.631 687.347 163.707C686.999 162.777 686.47 162.042 685.759 161.502C685.056 160.955 684.172 160.682 683.107 160.682C682.084 160.682 681.225 160.941 680.529 161.46C679.833 161.971 679.307 162.688 678.952 163.612C678.597 164.528 678.419 165.597 678.419 166.818ZM694.229 181.136V158.636H696.658V161.236H696.956C697.141 160.952 697.396 160.589 697.723 160.149C698.057 159.702 698.533 159.304 699.151 158.956C699.776 158.601 700.621 158.423 701.686 158.423C703.064 158.423 704.279 158.768 705.33 159.457C706.381 160.146 707.201 161.122 707.791 162.386C708.38 163.651 708.675 165.142 708.675 166.861C708.675 168.594 708.38 170.096 707.791 171.367C707.201 172.631 706.384 173.612 705.34 174.308C704.296 174.996 703.093 175.341 701.729 175.341C700.678 175.341 699.836 175.167 699.204 174.819C698.572 174.464 698.085 174.062 697.744 173.615C697.404 173.161 697.141 172.784 696.956 172.486H696.743V181.136H694.229ZM696.7 166.818C696.7 168.054 696.882 169.144 697.244 170.089C697.606 171.026 698.135 171.761 698.831 172.294C699.527 172.82 700.379 173.082 701.388 173.082C702.439 173.082 703.316 172.805 704.019 172.251C704.73 171.69 705.262 170.937 705.617 169.993C705.98 169.041 706.161 167.983 706.161 166.818C706.161 165.668 705.983 164.631 705.628 163.707C705.28 162.777 704.751 162.042 704.041 161.502C703.338 160.955 702.453 160.682 701.388 160.682C700.365 160.682 699.506 160.941 698.81 161.46C698.114 161.971 697.588 162.688 697.233 163.612C696.878 164.528 696.7 165.597 696.7 166.818ZM721.289 175V153.182H734.371V155.526H723.931V162.898H733.391V165.241H723.931V175H721.289ZM738.555 175V158.636H741.069V175H738.555ZM739.833 155.909C739.343 155.909 738.921 155.742 738.566 155.408C738.218 155.075 738.044 154.673 738.044 154.205C738.044 153.736 738.218 153.335 738.566 153.001C738.921 152.667 739.343 152.5 739.833 152.5C740.324 152.5 740.743 152.667 741.091 153.001C741.446 153.335 741.623 153.736 741.623 154.205C741.623 154.673 741.446 155.075 741.091 155.408C740.743 155.742 740.324 155.909 739.833 155.909ZM748.188 153.182V175H745.674V153.182H748.188ZM759.654 175.341C758.077 175.341 756.717 174.993 755.574 174.297C754.438 173.594 753.56 172.614 752.942 171.357C752.332 170.092 752.026 168.622 752.026 166.946C752.026 165.27 752.332 163.793 752.942 162.514C753.56 161.229 754.42 160.227 755.521 159.51C756.629 158.786 757.921 158.423 759.398 158.423C760.251 158.423 761.092 158.565 761.923 158.849C762.754 159.134 763.511 159.595 764.192 160.234C764.874 160.866 765.418 161.705 765.822 162.749C766.227 163.793 766.43 165.078 766.43 166.605V167.67H753.816V165.497H763.873C763.873 164.574 763.688 163.75 763.319 163.026C762.957 162.301 762.438 161.729 761.763 161.31C761.096 160.891 760.308 160.682 759.398 160.682C758.397 160.682 757.531 160.93 756.799 161.428C756.075 161.918 755.517 162.557 755.126 163.345C754.736 164.134 754.54 164.979 754.54 165.881V167.33C754.54 168.565 754.754 169.613 755.18 170.472C755.613 171.325 756.213 171.974 756.98 172.422C757.747 172.862 758.638 173.082 759.654 173.082C760.315 173.082 760.911 172.99 761.444 172.805C761.984 172.614 762.449 172.33 762.839 171.953C763.23 171.57 763.532 171.094 763.745 170.526L766.174 171.207C765.918 172.031 765.489 172.756 764.885 173.381C764.281 173.999 763.536 174.482 762.648 174.83C761.76 175.17 760.762 175.341 759.654 175.341ZM781.845 162.301L779.587 162.94C779.445 162.564 779.235 162.198 778.958 161.843C778.688 161.481 778.319 161.183 777.85 160.948C777.381 160.714 776.781 160.597 776.05 160.597C775.048 160.597 774.214 160.827 773.546 161.289C772.886 161.744 772.555 162.322 772.555 163.026C772.555 163.651 772.783 164.144 773.237 164.506C773.692 164.869 774.402 165.17 775.368 165.412L777.797 166.009C779.26 166.364 780.35 166.907 781.067 167.638C781.785 168.363 782.143 169.297 782.143 170.44C782.143 171.378 781.874 172.216 781.334 172.955C780.801 173.693 780.055 174.276 779.097 174.702C778.138 175.128 777.023 175.341 775.751 175.341C774.082 175.341 772.701 174.979 771.607 174.254C770.513 173.53 769.821 172.472 769.53 171.08L771.916 170.483C772.143 171.364 772.573 172.024 773.205 172.464C773.844 172.905 774.679 173.125 775.709 173.125C776.881 173.125 777.811 172.876 778.5 172.379C779.196 171.875 779.544 171.271 779.544 170.568C779.544 170 779.345 169.524 778.947 169.141C778.55 168.75 777.939 168.459 777.115 168.267L774.388 167.628C772.889 167.273 771.788 166.722 771.085 165.977C770.389 165.224 770.041 164.283 770.041 163.153C770.041 162.23 770.3 161.413 770.819 160.703C771.344 159.993 772.058 159.435 772.96 159.031C773.869 158.626 774.899 158.423 776.05 158.423C777.669 158.423 778.94 158.778 779.864 159.489C780.794 160.199 781.455 161.136 781.845 162.301ZM791.297 165.795C791.297 168.48 790.946 170.952 790.243 173.21C789.547 175.462 788.549 177.536 787.249 179.432H785.033C785.545 178.729 786.02 177.862 786.461 176.832C786.908 175.81 787.299 174.687 787.633 173.466C787.966 172.237 788.226 170.969 788.41 169.663C788.602 168.349 788.698 167.06 788.698 165.795C788.698 164.105 788.535 162.39 788.208 160.65C787.881 158.91 787.441 157.294 786.887 155.803C786.333 154.311 785.715 153.097 785.033 152.159H787.249C788.549 154.055 789.547 156.133 790.243 158.391C790.946 160.643 791.297 163.111 791.297 165.795Z" fill="black"/>
<path d="M398.553 122H396.707L402.048 107.455H403.866L409.207 122H407.36L403.013 109.756H402.9L398.553 122ZM399.235 116.318H406.678V117.881H399.235V116.318ZM411.472 122V107.455H416.387C417.528 107.455 418.461 107.661 419.185 108.072C419.915 108.48 420.454 109.031 420.805 109.727C421.155 110.423 421.33 111.2 421.33 112.057C421.33 112.914 421.155 113.693 420.805 114.393C420.459 115.094 419.924 115.653 419.2 116.07C418.475 116.482 417.547 116.688 416.415 116.688H412.893V115.125H416.359C417.14 115.125 417.767 114.99 418.241 114.72C418.714 114.45 419.058 114.086 419.271 113.626C419.488 113.162 419.597 112.639 419.597 112.057C419.597 111.474 419.488 110.954 419.271 110.494C419.058 110.035 418.712 109.675 418.234 109.415C417.755 109.15 417.121 109.017 416.33 109.017H413.234V122H411.472ZM425.929 107.455V122H424.168V107.455H425.929ZM435.086 122V107.455H440C441.137 107.455 442.069 107.649 442.799 108.037C443.528 108.42 444.068 108.948 444.418 109.621C444.768 110.293 444.944 111.058 444.944 111.915C444.944 112.772 444.768 113.532 444.418 114.195C444.068 114.857 443.53 115.378 442.806 115.757C442.081 116.131 441.156 116.318 440.029 116.318H436.051V114.727H439.972C440.748 114.727 441.373 114.614 441.847 114.386C442.325 114.159 442.671 113.837 442.884 113.42C443.102 112.999 443.211 112.497 443.211 111.915C443.211 111.332 443.102 110.823 442.884 110.388C442.666 109.952 442.318 109.616 441.84 109.379C441.362 109.138 440.73 109.017 439.944 109.017H436.847V122H435.086ZM441.932 115.466L445.512 122H443.466L439.944 115.466H441.932ZM452.108 122.227C451.057 122.227 450.15 121.995 449.388 121.531C448.63 121.062 448.045 120.409 447.634 119.571C447.226 118.728 447.023 117.748 447.023 116.631C447.023 115.513 447.226 114.528 447.634 113.676C448.045 112.819 448.618 112.152 449.352 111.673C450.091 111.19 450.953 110.949 451.938 110.949C452.506 110.949 453.067 111.044 453.621 111.233C454.175 111.422 454.679 111.73 455.134 112.156C455.588 112.578 455.95 113.136 456.22 113.832C456.49 114.528 456.625 115.385 456.625 116.403V117.114H448.216V115.665H454.92C454.92 115.049 454.797 114.5 454.551 114.017C454.31 113.534 453.964 113.153 453.514 112.874C453.069 112.594 452.544 112.455 451.938 112.455C451.27 112.455 450.692 112.62 450.205 112.952C449.722 113.278 449.35 113.705 449.089 114.23C448.829 114.756 448.699 115.319 448.699 115.92V116.886C448.699 117.71 448.841 118.409 449.125 118.982C449.414 119.55 449.814 119.983 450.325 120.281C450.837 120.575 451.431 120.722 452.108 120.722C452.548 120.722 452.946 120.66 453.301 120.537C453.661 120.409 453.971 120.22 454.232 119.969C454.492 119.713 454.693 119.396 454.835 119.017L456.455 119.472C456.284 120.021 455.998 120.504 455.595 120.92C455.193 121.332 454.696 121.654 454.104 121.886C453.512 122.114 452.847 122.227 452.108 122.227ZM466.618 126.091V120.324H466.476C466.353 120.523 466.178 120.774 465.95 121.077C465.723 121.375 465.399 121.643 464.977 121.879C464.556 122.111 463.995 122.227 463.294 122.227C462.385 122.227 461.582 121.998 460.886 121.538C460.19 121.074 459.646 120.421 459.253 119.578C458.86 118.731 458.663 117.729 458.663 116.574C458.663 115.428 458.86 114.434 459.253 113.591C459.646 112.748 460.193 112.097 460.893 111.638C461.594 111.179 462.404 110.949 463.322 110.949C464.033 110.949 464.594 111.067 465.006 111.304C465.422 111.536 465.74 111.801 465.957 112.099C466.18 112.393 466.353 112.634 466.476 112.824H466.675V111.091H468.294V126.091H466.618ZM463.521 120.722C464.194 120.722 464.762 120.546 465.226 120.196C465.69 119.841 466.043 119.351 466.284 118.726C466.526 118.096 466.646 117.369 466.646 116.545C466.646 115.731 466.528 115.018 466.291 114.408C466.054 113.792 465.704 113.314 465.24 112.973C464.776 112.627 464.203 112.455 463.521 112.455C462.811 112.455 462.219 112.637 461.746 113.001C461.277 113.361 460.924 113.851 460.688 114.472C460.455 115.087 460.339 115.778 460.339 116.545C460.339 117.322 460.458 118.027 460.695 118.662C460.936 119.292 461.291 119.794 461.76 120.168C462.233 120.537 462.821 120.722 463.521 120.722ZM478.237 117.54V111.091H479.913V122H478.237V120.153H478.124C477.868 120.707 477.47 121.179 476.93 121.567C476.391 121.95 475.709 122.142 474.885 122.142C474.203 122.142 473.597 121.993 473.067 121.695C472.536 121.392 472.12 120.937 471.817 120.331C471.514 119.72 471.362 118.951 471.362 118.023V111.091H473.038V117.909C473.038 118.705 473.261 119.339 473.706 119.812C474.156 120.286 474.729 120.523 475.425 120.523C475.841 120.523 476.265 120.416 476.696 120.203C477.132 119.99 477.496 119.663 477.79 119.223C478.088 118.783 478.237 118.222 478.237 117.54ZM487.557 122.227C486.506 122.227 485.599 121.995 484.837 121.531C484.079 121.062 483.495 120.409 483.083 119.571C482.676 118.728 482.472 117.748 482.472 116.631C482.472 115.513 482.676 114.528 483.083 113.676C483.495 112.819 484.068 112.152 484.801 111.673C485.54 111.19 486.402 110.949 487.387 110.949C487.955 110.949 488.516 111.044 489.07 111.233C489.624 111.422 490.128 111.73 490.583 112.156C491.037 112.578 491.4 113.136 491.669 113.832C491.939 114.528 492.074 115.385 492.074 116.403V117.114H483.665V115.665H490.37C490.37 115.049 490.247 114.5 490 114.017C489.759 113.534 489.413 113.153 488.963 112.874C488.518 112.594 487.993 112.455 487.387 112.455C486.719 112.455 486.141 112.62 485.654 112.952C485.171 113.278 484.799 113.705 484.539 114.23C484.278 114.756 484.148 115.319 484.148 115.92V116.886C484.148 117.71 484.29 118.409 484.574 118.982C484.863 119.55 485.263 119.983 485.775 120.281C486.286 120.575 486.88 120.722 487.557 120.722C487.998 120.722 488.395 120.66 488.75 120.537C489.11 120.409 489.42 120.22 489.681 119.969C489.941 119.713 490.142 119.396 490.284 119.017L491.904 119.472C491.733 120.021 491.447 120.504 491.044 120.92C490.642 121.332 490.145 121.654 489.553 121.886C488.961 122.114 488.296 122.227 487.557 122.227ZM502.351 113.534L500.846 113.96C500.751 113.709 500.611 113.465 500.426 113.229C500.247 112.987 500 112.788 499.688 112.632C499.375 112.476 498.975 112.398 498.488 112.398C497.82 112.398 497.264 112.552 496.819 112.859C496.378 113.162 496.158 113.548 496.158 114.017C496.158 114.434 496.31 114.763 496.613 115.004C496.916 115.246 497.389 115.447 498.033 115.608L499.652 116.006C500.628 116.242 501.355 116.605 501.833 117.092C502.311 117.575 502.55 118.198 502.55 118.96C502.55 119.585 502.37 120.144 502.01 120.636C501.655 121.129 501.158 121.517 500.519 121.801C499.88 122.085 499.136 122.227 498.289 122.227C497.176 122.227 496.255 121.986 495.526 121.503C494.797 121.02 494.335 120.314 494.141 119.386L495.732 118.989C495.883 119.576 496.17 120.016 496.591 120.31C497.017 120.603 497.574 120.75 498.26 120.75C499.042 120.75 499.662 120.584 500.121 120.253C500.585 119.917 500.817 119.514 500.817 119.045C500.817 118.667 500.685 118.349 500.419 118.094C500.154 117.833 499.747 117.639 499.198 117.511L497.38 117.085C496.381 116.848 495.647 116.482 495.178 115.984C494.714 115.482 494.482 114.855 494.482 114.102C494.482 113.487 494.655 112.942 495 112.469C495.351 111.995 495.827 111.624 496.428 111.354C497.034 111.084 497.721 110.949 498.488 110.949C499.567 110.949 500.415 111.186 501.03 111.659C501.65 112.133 502.091 112.758 502.351 113.534ZM509.817 111.091V112.511H504.164V111.091H509.817ZM505.812 108.477H507.488V118.875C507.488 119.348 507.557 119.704 507.694 119.94C507.836 120.172 508.016 120.329 508.234 120.409C508.456 120.485 508.691 120.523 508.937 120.523C509.121 120.523 509.273 120.513 509.391 120.494C509.51 120.471 509.604 120.452 509.675 120.438L510.016 121.943C509.903 121.986 509.744 122.028 509.54 122.071C509.337 122.118 509.079 122.142 508.766 122.142C508.293 122.142 507.829 122.04 507.374 121.837C506.924 121.633 506.55 121.323 506.252 120.906C505.959 120.49 505.812 119.964 505.812 119.33V108.477Z" fill="black"/>
<path d="M418.156 161.455H419.918V171.085C419.918 172.08 419.683 172.967 419.215 173.749C418.751 174.525 418.095 175.138 417.247 175.588C416.4 176.033 415.405 176.256 414.264 176.256C413.123 176.256 412.129 176.033 411.281 175.588C410.434 175.138 409.776 174.525 409.307 173.749C408.843 172.967 408.611 172.08 408.611 171.085V161.455H410.372V170.943C410.372 171.653 410.529 172.286 410.841 172.839C411.154 173.389 411.599 173.822 412.176 174.139C412.759 174.452 413.455 174.608 414.264 174.608C415.074 174.608 415.77 174.452 416.352 174.139C416.935 173.822 417.38 173.389 417.688 172.839C418 172.286 418.156 171.653 418.156 170.943V161.455ZM430.935 167.534L429.43 167.96C429.335 167.709 429.195 167.465 429.01 167.229C428.831 166.987 428.584 166.788 428.272 166.632C427.959 166.476 427.559 166.398 427.072 166.398C426.404 166.398 425.848 166.552 425.403 166.859C424.962 167.162 424.742 167.548 424.742 168.017C424.742 168.434 424.894 168.763 425.197 169.004C425.5 169.246 425.973 169.447 426.617 169.608L428.236 170.006C429.212 170.242 429.939 170.605 430.417 171.092C430.895 171.575 431.134 172.198 431.134 172.96C431.134 173.585 430.954 174.144 430.594 174.636C430.239 175.129 429.742 175.517 429.103 175.801C428.464 176.085 427.72 176.227 426.873 176.227C425.76 176.227 424.839 175.986 424.11 175.503C423.381 175.02 422.919 174.314 422.725 173.386L424.316 172.989C424.467 173.576 424.754 174.016 425.175 174.31C425.601 174.603 426.158 174.75 426.844 174.75C427.626 174.75 428.246 174.584 428.705 174.253C429.169 173.917 429.401 173.514 429.401 173.045C429.401 172.667 429.269 172.349 429.003 172.094C428.738 171.833 428.331 171.639 427.782 171.511L425.964 171.085C424.965 170.848 424.231 170.482 423.762 169.984C423.298 169.482 423.066 168.855 423.066 168.102C423.066 167.487 423.239 166.942 423.584 166.469C423.935 165.995 424.411 165.624 425.012 165.354C425.618 165.084 426.305 164.949 427.072 164.949C428.151 164.949 428.999 165.186 429.614 165.659C430.234 166.133 430.675 166.758 430.935 167.534ZM438.231 176.227C437.18 176.227 436.273 175.995 435.511 175.531C434.753 175.062 434.169 174.409 433.757 173.571C433.349 172.728 433.146 171.748 433.146 170.631C433.146 169.513 433.349 168.528 433.757 167.676C434.169 166.819 434.741 166.152 435.475 165.673C436.214 165.19 437.076 164.949 438.061 164.949C438.629 164.949 439.19 165.044 439.744 165.233C440.298 165.422 440.802 165.73 441.257 166.156C441.711 166.578 442.073 167.136 442.343 167.832C442.613 168.528 442.748 169.385 442.748 170.403V171.114H434.339V169.665H441.044C441.044 169.049 440.92 168.5 440.674 168.017C440.433 167.534 440.087 167.153 439.637 166.874C439.192 166.594 438.667 166.455 438.061 166.455C437.393 166.455 436.815 166.62 436.328 166.952C435.845 167.278 435.473 167.705 435.213 168.23C434.952 168.756 434.822 169.319 434.822 169.92V170.886C434.822 171.71 434.964 172.409 435.248 172.982C435.537 173.55 435.937 173.983 436.448 174.281C436.96 174.575 437.554 174.722 438.231 174.722C438.671 174.722 439.069 174.66 439.424 174.537C439.784 174.409 440.094 174.22 440.355 173.969C440.615 173.713 440.816 173.396 440.958 173.017L442.578 173.472C442.407 174.021 442.121 174.504 441.718 174.92C441.316 175.332 440.819 175.654 440.227 175.886C439.635 176.114 438.97 176.227 438.231 176.227ZM445.298 176V165.091H446.917V166.739H447.031C447.23 166.199 447.589 165.761 448.11 165.425C448.631 165.089 449.218 164.92 449.872 164.92C449.995 164.92 450.149 164.923 450.333 164.928C450.518 164.932 450.658 164.939 450.752 164.949V166.653C450.695 166.639 450.565 166.618 450.362 166.589C450.163 166.556 449.952 166.54 449.73 166.54C449.199 166.54 448.726 166.651 448.309 166.874C447.897 167.091 447.57 167.394 447.329 167.783C447.092 168.166 446.974 168.604 446.974 169.097V176H445.298ZM458.591 176V161.455H467.313V163.017H460.353V167.932H466.66V169.494H460.353V176H458.591ZM470.102 176V165.091H471.779V176H470.102ZM470.955 163.273C470.628 163.273 470.346 163.161 470.11 162.939C469.878 162.716 469.762 162.449 469.762 162.136C469.762 161.824 469.878 161.556 470.11 161.334C470.346 161.111 470.628 161 470.955 161C471.281 161 471.561 161.111 471.793 161.334C472.03 161.556 472.148 161.824 472.148 162.136C472.148 162.449 472.03 162.716 471.793 162.939C471.561 163.161 471.281 163.273 470.955 163.273ZM476.525 161.455V176H474.849V161.455H476.525ZM484.169 176.227C483.117 176.227 482.211 175.995 481.448 175.531C480.691 175.062 480.106 174.409 479.694 173.571C479.287 172.728 479.083 171.748 479.083 170.631C479.083 169.513 479.287 168.528 479.694 167.676C480.106 166.819 480.679 166.152 481.413 165.673C482.151 165.19 483.013 164.949 483.998 164.949C484.566 164.949 485.127 165.044 485.681 165.233C486.235 165.422 486.74 165.73 487.194 166.156C487.649 166.578 488.011 167.136 488.281 167.832C488.551 168.528 488.686 169.385 488.686 170.403V171.114H480.276V169.665H486.981C486.981 169.049 486.858 168.5 486.612 168.017C486.37 167.534 486.025 167.153 485.575 166.874C485.13 166.594 484.604 166.455 483.998 166.455C483.33 166.455 482.753 166.62 482.265 166.952C481.782 167.278 481.41 167.705 481.15 168.23C480.89 168.756 480.759 169.319 480.759 169.92V170.886C480.759 171.71 480.901 172.409 481.186 172.982C481.474 173.55 481.874 173.983 482.386 174.281C482.897 174.575 483.491 174.722 484.169 174.722C484.609 174.722 485.007 174.66 485.362 174.537C485.722 174.409 486.032 174.22 486.292 173.969C486.552 173.713 486.754 173.396 486.896 173.017L488.515 173.472C488.345 174.021 488.058 174.504 487.656 174.92C487.253 175.332 486.756 175.654 486.164 175.886C485.572 176.114 484.907 176.227 484.169 176.227ZM498.963 167.534L497.457 167.96C497.362 167.709 497.222 167.465 497.038 167.229C496.858 166.987 496.612 166.788 496.299 166.632C495.987 166.476 495.587 166.398 495.099 166.398C494.431 166.398 493.875 166.552 493.43 166.859C492.99 167.162 492.769 167.548 492.769 168.017C492.769 168.434 492.921 168.763 493.224 169.004C493.527 169.246 494 169.447 494.644 169.608L496.264 170.006C497.239 170.242 497.966 170.605 498.444 171.092C498.922 171.575 499.161 172.198 499.161 172.96C499.161 173.585 498.981 174.144 498.622 174.636C498.267 175.129 497.769 175.517 497.13 175.801C496.491 176.085 495.748 176.227 494.9 176.227C493.787 176.227 492.866 175.986 492.137 175.503C491.408 175.02 490.946 174.314 490.752 173.386L492.343 172.989C492.495 173.576 492.781 174.016 493.203 174.31C493.629 174.603 494.185 174.75 494.872 174.75C495.653 174.75 496.273 174.584 496.732 174.253C497.196 173.917 497.428 173.514 497.428 173.045C497.428 172.667 497.296 172.349 497.031 172.094C496.766 171.833 496.358 171.639 495.809 171.511L493.991 171.085C492.992 170.848 492.258 170.482 491.789 169.984C491.325 169.482 491.093 168.855 491.093 168.102C491.093 167.487 491.266 166.942 491.612 166.469C491.962 165.995 492.438 165.624 493.039 165.354C493.645 165.084 494.332 164.949 495.099 164.949C496.178 164.949 497.026 165.186 497.642 165.659C498.262 166.133 498.702 166.758 498.963 167.534Z" fill="black"/>
<path d="M921.994 158.455H923.756V168.085C923.756 169.08 923.521 169.967 923.053 170.749C922.589 171.525 921.933 172.138 921.085 172.588C920.238 173.033 919.243 173.256 918.102 173.256C916.961 173.256 915.967 173.033 915.119 172.588C914.272 172.138 913.614 171.525 913.145 170.749C912.681 169.967 912.449 169.08 912.449 168.085V158.455H914.21V167.943C914.21 168.653 914.366 169.286 914.679 169.839C914.991 170.389 915.437 170.822 916.014 171.139C916.597 171.452 917.293 171.608 918.102 171.608C918.912 171.608 919.608 171.452 920.19 171.139C920.773 170.822 921.218 170.389 921.526 169.839C921.838 169.286 921.994 168.653 921.994 167.943V158.455ZM934.773 164.534L933.267 164.96C933.173 164.709 933.033 164.465 932.848 164.229C932.668 163.987 932.422 163.788 932.11 163.632C931.797 163.476 931.397 163.398 930.909 163.398C930.242 163.398 929.685 163.552 929.24 163.859C928.8 164.162 928.58 164.548 928.58 165.017C928.58 165.434 928.731 165.763 929.034 166.004C929.337 166.246 929.811 166.447 930.455 166.608L932.074 167.006C933.05 167.242 933.776 167.605 934.255 168.092C934.733 168.575 934.972 169.198 934.972 169.96C934.972 170.585 934.792 171.144 934.432 171.636C934.077 172.129 933.58 172.517 932.941 172.801C932.301 173.085 931.558 173.227 930.711 173.227C929.598 173.227 928.677 172.986 927.948 172.503C927.219 172.02 926.757 171.314 926.563 170.386L928.154 169.989C928.305 170.576 928.592 171.016 929.013 171.31C929.439 171.603 929.996 171.75 930.682 171.75C931.463 171.75 932.084 171.584 932.543 171.253C933.007 170.917 933.239 170.514 933.239 170.045C933.239 169.667 933.106 169.349 932.841 169.094C932.576 168.833 932.169 168.639 931.62 168.511L929.801 168.085C928.802 167.848 928.069 167.482 927.6 166.984C927.136 166.482 926.904 165.855 926.904 165.102C926.904 164.487 927.077 163.942 927.422 163.469C927.773 162.995 928.248 162.624 928.85 162.354C929.456 162.084 930.142 161.949 930.909 161.949C931.989 161.949 932.837 162.186 933.452 162.659C934.072 163.133 934.513 163.758 934.773 164.534ZM942.069 173.227C941.018 173.227 940.111 172.995 939.349 172.531C938.591 172.062 938.006 171.409 937.594 170.571C937.187 169.728 936.984 168.748 936.984 167.631C936.984 166.513 937.187 165.528 937.594 164.676C938.006 163.819 938.579 163.152 939.313 162.673C940.052 162.19 940.914 161.949 941.898 161.949C942.467 161.949 943.028 162.044 943.582 162.233C944.136 162.422 944.64 162.73 945.094 163.156C945.549 163.578 945.911 164.136 946.181 164.832C946.451 165.528 946.586 166.385 946.586 167.403V168.114H938.177V166.665H944.881C944.881 166.049 944.758 165.5 944.512 165.017C944.271 164.534 943.925 164.153 943.475 163.874C943.03 163.594 942.504 163.455 941.898 163.455C941.231 163.455 940.653 163.62 940.165 163.952C939.683 164.278 939.311 164.705 939.05 165.23C938.79 165.756 938.66 166.319 938.66 166.92V167.886C938.66 168.71 938.802 169.409 939.086 169.982C939.375 170.55 939.775 170.983 940.286 171.281C940.798 171.575 941.392 171.722 942.069 171.722C942.509 171.722 942.907 171.66 943.262 171.537C943.622 171.409 943.932 171.22 944.192 170.969C944.453 170.713 944.654 170.396 944.796 170.017L946.415 170.472C946.245 171.021 945.959 171.504 945.556 171.92C945.154 172.332 944.656 172.654 944.065 172.886C943.473 173.114 942.808 173.227 942.069 173.227ZM949.136 173V162.091H950.755V163.739H950.869C951.067 163.199 951.427 162.761 951.948 162.425C952.469 162.089 953.056 161.92 953.71 161.92C953.833 161.92 953.987 161.923 954.171 161.928C954.356 161.932 954.496 161.939 954.59 161.949V163.653C954.533 163.639 954.403 163.618 954.2 163.589C954.001 163.556 953.79 163.54 953.567 163.54C953.037 163.54 952.564 163.651 952.147 163.874C951.735 164.091 951.408 164.394 951.167 164.783C950.93 165.166 950.812 165.604 950.812 166.097V173H949.136ZM966.463 170.443V161.068H968.054V170.443H966.463ZM962.571 166.551V164.96H971.946V166.551H962.571ZM981.835 173H979.988L985.329 158.455H987.147L992.488 173H990.641L986.295 160.756H986.181L981.835 173ZM982.516 167.318H989.96V168.881H982.516V167.318ZM994.526 177.091V162.091H996.146V163.824H996.344C996.468 163.634 996.638 163.393 996.856 163.099C997.078 162.801 997.396 162.536 997.808 162.304C998.224 162.067 998.788 161.949 999.498 161.949C1000.42 161.949 1001.23 162.179 1001.93 162.638C1002.63 163.097 1003.17 163.748 1003.57 164.591C1003.96 165.434 1004.16 166.428 1004.16 167.574C1004.16 168.729 1003.96 169.731 1003.57 170.578C1003.17 171.421 1002.63 172.074 1001.93 172.538C1001.24 172.998 1000.44 173.227 999.526 173.227C998.826 173.227 998.264 173.111 997.843 172.879C997.422 172.643 997.097 172.375 996.87 172.077C996.643 171.774 996.468 171.523 996.344 171.324H996.202V177.091H994.526ZM996.174 167.545C996.174 168.369 996.295 169.096 996.536 169.726C996.778 170.351 997.13 170.841 997.594 171.196C998.058 171.546 998.627 171.722 999.299 171.722C1000 171.722 1000.58 171.537 1001.05 171.168C1001.53 170.794 1001.88 170.292 1002.12 169.662C1002.36 169.027 1002.48 168.322 1002.48 167.545C1002.48 166.778 1002.36 166.087 1002.13 165.472C1001.89 164.851 1001.54 164.361 1001.07 164.001C1000.6 163.637 1000.01 163.455 999.299 163.455C998.617 163.455 998.044 163.627 997.58 163.973C997.116 164.314 996.766 164.792 996.529 165.408C996.292 166.018 996.174 166.731 996.174 167.545ZM1006.71 177.091V162.091H1008.33V163.824H1008.53C1008.66 163.634 1008.83 163.393 1009.04 163.099C1009.27 162.801 1009.58 162.536 1010 162.304C1010.41 162.067 1010.98 161.949 1011.69 161.949C1012.6 161.949 1013.41 162.179 1014.11 162.638C1014.82 163.097 1015.36 163.748 1015.75 164.591C1016.15 165.434 1016.34 166.428 1016.34 167.574C1016.34 168.729 1016.15 169.731 1015.75 170.578C1015.36 171.421 1014.82 172.074 1014.12 172.538C1013.43 172.998 1012.62 173.227 1011.71 173.227C1011.01 173.227 1010.45 173.111 1010.03 172.879C1009.61 172.643 1009.28 172.375 1009.06 172.077C1008.83 171.774 1008.66 171.523 1008.53 171.324H1008.39V177.091H1006.71ZM1008.36 167.545C1008.36 168.369 1008.48 169.096 1008.72 169.726C1008.97 170.351 1009.32 170.841 1009.78 171.196C1010.25 171.546 1010.81 171.722 1011.49 171.722C1012.19 171.722 1012.77 171.537 1013.24 171.168C1013.71 170.794 1014.07 170.292 1014.31 169.662C1014.55 169.027 1014.67 168.322 1014.67 167.545C1014.67 166.778 1014.55 166.087 1014.31 165.472C1014.08 164.851 1013.73 164.361 1013.25 164.001C1012.79 163.637 1012.2 163.455 1011.49 163.455C1010.8 163.455 1010.23 163.627 1009.77 163.973C1009.3 164.314 1008.95 164.792 1008.72 165.408C1008.48 166.018 1008.36 166.731 1008.36 167.545ZM1024.75 173V158.455H1033.48V160.017H1026.51V164.932H1032.82V166.494H1026.51V173H1024.75ZM1036.26 173V162.091H1037.94V173H1036.26ZM1037.12 160.273C1036.79 160.273 1036.51 160.161 1036.27 159.939C1036.04 159.716 1035.92 159.449 1035.92 159.136C1035.92 158.824 1036.04 158.556 1036.27 158.334C1036.51 158.111 1036.79 158 1037.12 158C1037.44 158 1037.72 158.111 1037.95 158.334C1038.19 158.556 1038.31 158.824 1038.31 159.136C1038.31 159.449 1038.19 159.716 1037.95 159.939C1037.72 160.161 1037.44 160.273 1037.12 160.273ZM1042.69 158.455V173H1041.01V158.455H1042.69ZM1050.33 173.227C1049.28 173.227 1048.37 172.995 1047.61 172.531C1046.85 172.062 1046.27 171.409 1045.86 170.571C1045.45 169.728 1045.25 168.748 1045.25 167.631C1045.25 166.513 1045.45 165.528 1045.86 164.676C1046.27 163.819 1046.84 163.152 1047.57 162.673C1048.31 162.19 1049.18 161.949 1050.16 161.949C1050.73 161.949 1051.29 162.044 1051.84 162.233C1052.4 162.422 1052.9 162.73 1053.36 163.156C1053.81 163.578 1054.17 164.136 1054.44 164.832C1054.71 165.528 1054.85 166.385 1054.85 167.403V168.114H1046.44V166.665H1053.14C1053.14 166.049 1053.02 165.5 1052.77 165.017C1052.53 164.534 1052.19 164.153 1051.74 163.874C1051.29 163.594 1050.77 163.455 1050.16 163.455C1049.49 163.455 1048.91 163.62 1048.43 163.952C1047.94 164.278 1047.57 164.705 1047.31 165.23C1047.05 165.756 1046.92 166.319 1046.92 166.92V167.886C1046.92 168.71 1047.06 169.409 1047.35 169.982C1047.64 170.55 1048.04 170.983 1048.55 171.281C1049.06 171.575 1049.65 171.722 1050.33 171.722C1050.77 171.722 1051.17 171.66 1051.52 171.537C1051.88 171.409 1052.19 171.22 1052.45 170.969C1052.71 170.713 1052.92 170.396 1053.06 170.017L1054.68 170.472C1054.51 171.021 1054.22 171.504 1053.82 171.92C1053.42 172.332 1052.92 172.654 1052.33 172.886C1051.73 173.114 1051.07 173.227 1050.33 173.227ZM1065.12 164.534L1063.62 164.96C1063.52 164.709 1063.38 164.465 1063.2 164.229C1063.02 163.987 1062.77 163.788 1062.46 163.632C1062.15 163.476 1061.75 163.398 1061.26 163.398C1060.59 163.398 1060.04 163.552 1059.59 163.859C1059.15 164.162 1058.93 164.548 1058.93 165.017C1058.93 165.434 1059.08 165.763 1059.39 166.004C1059.69 166.246 1060.16 166.447 1060.81 166.608L1062.43 167.006C1063.4 167.242 1064.13 167.605 1064.61 168.092C1065.08 168.575 1065.32 169.198 1065.32 169.96C1065.32 170.585 1065.14 171.144 1064.78 171.636C1064.43 172.129 1063.93 172.517 1063.29 172.801C1062.65 173.085 1061.91 173.227 1061.06 173.227C1059.95 173.227 1059.03 172.986 1058.3 172.503C1057.57 172.02 1057.11 171.314 1056.91 170.386L1058.51 169.989C1058.66 170.576 1058.94 171.016 1059.36 171.31C1059.79 171.603 1060.35 171.75 1061.03 171.75C1061.81 171.75 1062.44 171.584 1062.89 171.253C1063.36 170.917 1063.59 170.514 1063.59 170.045C1063.59 169.667 1063.46 169.349 1063.19 169.094C1062.93 168.833 1062.52 168.639 1061.97 168.511L1060.15 168.085C1059.15 167.848 1058.42 167.482 1057.95 166.984C1057.49 166.482 1057.26 165.855 1057.26 165.102C1057.26 164.487 1057.43 163.942 1057.77 163.469C1058.12 162.995 1058.6 162.624 1059.2 162.354C1059.81 162.084 1060.49 161.949 1061.26 161.949C1062.34 161.949 1063.19 162.186 1063.8 162.659C1064.42 163.133 1064.86 163.758 1065.12 164.534Z" fill="black"/>
<path d="M933.553 119H931.707L937.048 104.455H938.866L944.207 119H942.36L938.013 106.756H937.9L933.553 119ZM934.235 113.318H941.678V114.881H934.235V113.318ZM946.472 119V104.455H951.387C952.528 104.455 953.461 104.661 954.185 105.072C954.915 105.48 955.454 106.031 955.805 106.727C956.155 107.423 956.33 108.2 956.33 109.057C956.33 109.914 956.155 110.693 955.805 111.393C955.459 112.094 954.924 112.653 954.2 113.07C953.475 113.482 952.547 113.688 951.415 113.688H947.893V112.125H951.359C952.14 112.125 952.767 111.99 953.241 111.72C953.714 111.45 954.058 111.086 954.271 110.626C954.488 110.162 954.597 109.639 954.597 109.057C954.597 108.474 954.488 107.954 954.271 107.494C954.058 107.035 953.712 106.675 953.234 106.415C952.755 106.15 952.121 106.017 951.33 106.017H948.234V119H946.472ZM960.929 104.455V119H959.168V104.455H960.929ZM970.086 119V104.455H975C976.137 104.455 977.069 104.649 977.799 105.037C978.528 105.42 979.068 105.948 979.418 106.621C979.768 107.293 979.944 108.058 979.944 108.915C979.944 109.772 979.768 110.532 979.418 111.195C979.068 111.857 978.53 112.378 977.806 112.757C977.081 113.131 976.156 113.318 975.029 113.318H971.051V111.727H974.972C975.748 111.727 976.373 111.614 976.847 111.386C977.325 111.159 977.671 110.837 977.884 110.42C978.102 109.999 978.211 109.497 978.211 108.915C978.211 108.332 978.102 107.823 977.884 107.388C977.666 106.952 977.318 106.616 976.84 106.379C976.362 106.138 975.73 106.017 974.944 106.017H971.847V119H970.086ZM976.932 112.466L980.512 119H978.466L974.944 112.466H976.932ZM987.108 119.227C986.057 119.227 985.15 118.995 984.388 118.531C983.63 118.062 983.045 117.409 982.634 116.571C982.226 115.728 982.023 114.748 982.023 113.631C982.023 112.513 982.226 111.528 982.634 110.676C983.045 109.819 983.618 109.152 984.352 108.673C985.091 108.19 985.953 107.949 986.938 107.949C987.506 107.949 988.067 108.044 988.621 108.233C989.175 108.422 989.679 108.73 990.134 109.156C990.588 109.578 990.95 110.136 991.22 110.832C991.49 111.528 991.625 112.385 991.625 113.403V114.114H983.216V112.665H989.92C989.92 112.049 989.797 111.5 989.551 111.017C989.31 110.534 988.964 110.153 988.514 109.874C988.069 109.594 987.544 109.455 986.938 109.455C986.27 109.455 985.692 109.62 985.205 109.952C984.722 110.278 984.35 110.705 984.089 111.23C983.829 111.756 983.699 112.319 983.699 112.92V113.886C983.699 114.71 983.841 115.409 984.125 115.982C984.414 116.55 984.814 116.983 985.325 117.281C985.837 117.575 986.431 117.722 987.108 117.722C987.548 117.722 987.946 117.66 988.301 117.537C988.661 117.409 988.971 117.22 989.232 116.969C989.492 116.713 989.693 116.396 989.835 116.017L991.455 116.472C991.284 117.021 990.998 117.504 990.595 117.92C990.193 118.332 989.696 118.654 989.104 118.886C988.512 119.114 987.847 119.227 987.108 119.227ZM1001.62 123.091V117.324H1001.48C1001.35 117.523 1001.18 117.774 1000.95 118.077C1000.72 118.375 1000.4 118.643 999.977 118.879C999.556 119.111 998.995 119.227 998.294 119.227C997.385 119.227 996.582 118.998 995.886 118.538C995.19 118.074 994.646 117.421 994.253 116.578C993.86 115.731 993.663 114.729 993.663 113.574C993.663 112.428 993.86 111.434 994.253 110.591C994.646 109.748 995.193 109.097 995.893 108.638C996.594 108.179 997.404 107.949 998.322 107.949C999.033 107.949 999.594 108.067 1000.01 108.304C1000.42 108.536 1000.74 108.801 1000.96 109.099C1001.18 109.393 1001.35 109.634 1001.48 109.824H1001.67V108.091H1003.29V123.091H1001.62ZM998.521 117.722C999.194 117.722 999.762 117.546 1000.23 117.196C1000.69 116.841 1001.04 116.351 1001.28 115.726C1001.53 115.096 1001.65 114.369 1001.65 113.545C1001.65 112.731 1001.53 112.018 1001.29 111.408C1001.05 110.792 1000.7 110.314 1000.24 109.973C999.776 109.627 999.203 109.455 998.521 109.455C997.811 109.455 997.219 109.637 996.746 110.001C996.277 110.361 995.924 110.851 995.688 111.472C995.455 112.087 995.339 112.778 995.339 113.545C995.339 114.322 995.458 115.027 995.695 115.662C995.936 116.292 996.291 116.794 996.76 117.168C997.233 117.537 997.821 117.722 998.521 117.722ZM1013.24 114.54V108.091H1014.91V119H1013.24V117.153H1013.12C1012.87 117.707 1012.47 118.179 1011.93 118.567C1011.39 118.95 1010.71 119.142 1009.88 119.142C1009.2 119.142 1008.6 118.993 1008.07 118.695C1007.54 118.392 1007.12 117.937 1006.82 117.331C1006.51 116.72 1006.36 115.951 1006.36 115.023V108.091H1008.04V114.909C1008.04 115.705 1008.26 116.339 1008.71 116.812C1009.16 117.286 1009.73 117.523 1010.42 117.523C1010.84 117.523 1011.27 117.416 1011.7 117.203C1012.13 116.99 1012.5 116.663 1012.79 116.223C1013.09 115.783 1013.24 115.222 1013.24 114.54ZM1022.56 119.227C1021.51 119.227 1020.6 118.995 1019.84 118.531C1019.08 118.062 1018.49 117.409 1018.08 116.571C1017.68 115.728 1017.47 114.748 1017.47 113.631C1017.47 112.513 1017.68 111.528 1018.08 110.676C1018.49 109.819 1019.07 109.152 1019.8 108.673C1020.54 108.19 1021.4 107.949 1022.39 107.949C1022.95 107.949 1023.52 108.044 1024.07 108.233C1024.62 108.422 1025.13 108.73 1025.58 109.156C1026.04 109.578 1026.4 110.136 1026.67 110.832C1026.94 111.528 1027.07 112.385 1027.07 113.403V114.114H1018.67V112.665H1025.37C1025.37 112.049 1025.25 111.5 1025 111.017C1024.76 110.534 1024.41 110.153 1023.96 109.874C1023.52 109.594 1022.99 109.455 1022.39 109.455C1021.72 109.455 1021.14 109.62 1020.65 109.952C1020.17 110.278 1019.8 110.705 1019.54 111.23C1019.28 111.756 1019.15 112.319 1019.15 112.92V113.886C1019.15 114.71 1019.29 115.409 1019.57 115.982C1019.86 116.55 1020.26 116.983 1020.77 117.281C1021.29 117.575 1021.88 117.722 1022.56 117.722C1023 117.722 1023.4 117.66 1023.75 117.537C1024.11 117.409 1024.42 117.22 1024.68 116.969C1024.94 116.713 1025.14 116.396 1025.28 116.017L1026.9 116.472C1026.73 117.021 1026.45 117.504 1026.04 117.92C1025.64 118.332 1025.14 118.654 1024.55 118.886C1023.96 119.114 1023.3 119.227 1022.56 119.227ZM1037.35 110.534L1035.85 110.96C1035.75 110.709 1035.61 110.465 1035.43 110.229C1035.25 109.987 1035 109.788 1034.69 109.632C1034.38 109.476 1033.98 109.398 1033.49 109.398C1032.82 109.398 1032.26 109.552 1031.82 109.859C1031.38 110.162 1031.16 110.548 1031.16 111.017C1031.16 111.434 1031.31 111.763 1031.61 112.004C1031.92 112.246 1032.39 112.447 1033.03 112.608L1034.65 113.006C1035.63 113.242 1036.35 113.605 1036.83 114.092C1037.31 114.575 1037.55 115.198 1037.55 115.96C1037.55 116.585 1037.37 117.144 1037.01 117.636C1036.66 118.129 1036.16 118.517 1035.52 118.801C1034.88 119.085 1034.14 119.227 1033.29 119.227C1032.18 119.227 1031.26 118.986 1030.53 118.503C1029.8 118.02 1029.34 117.314 1029.14 116.386L1030.73 115.989C1030.88 116.576 1031.17 117.016 1031.59 117.31C1032.02 117.603 1032.57 117.75 1033.26 117.75C1034.04 117.75 1034.66 117.584 1035.12 117.253C1035.59 116.917 1035.82 116.514 1035.82 116.045C1035.82 115.667 1035.68 115.349 1035.42 115.094C1035.15 114.833 1034.75 114.639 1034.2 114.511L1032.38 114.085C1031.38 113.848 1030.65 113.482 1030.18 112.984C1029.71 112.482 1029.48 111.855 1029.48 111.102C1029.48 110.487 1029.65 109.942 1030 109.469C1030.35 108.995 1030.83 108.624 1031.43 108.354C1032.03 108.084 1032.72 107.949 1033.49 107.949C1034.57 107.949 1035.41 108.186 1036.03 108.659C1036.65 109.133 1037.09 109.758 1037.35 110.534ZM1044.82 108.091V109.511H1039.16V108.091H1044.82ZM1040.81 105.477H1042.49V115.875C1042.49 116.348 1042.56 116.704 1042.69 116.94C1042.84 117.172 1043.02 117.329 1043.23 117.409C1043.46 117.485 1043.69 117.523 1043.94 117.523C1044.12 117.523 1044.27 117.513 1044.39 117.494C1044.51 117.471 1044.6 117.452 1044.68 117.438L1045.02 118.943C1044.9 118.986 1044.74 119.028 1044.54 119.071C1044.34 119.118 1044.08 119.142 1043.77 119.142C1043.29 119.142 1042.83 119.04 1042.37 118.837C1041.92 118.633 1041.55 118.323 1041.25 117.906C1040.96 117.49 1040.81 116.964 1040.81 116.33V105.477Z" fill="black"/>
<path d="M1200.13 128H1197.36L1205.38 106.182H1208.1L1216.11 128H1213.34L1206.82 109.634H1206.65L1200.13 128ZM1201.16 119.477H1212.32V121.821H1201.16V119.477ZM1219.17 134.136V111.636H1221.6V114.236H1221.9C1222.08 113.952 1222.34 113.589 1222.67 113.149C1223 112.702 1223.48 112.304 1224.09 111.956C1224.72 111.601 1225.56 111.423 1226.63 111.423C1228.01 111.423 1229.22 111.768 1230.27 112.457C1231.32 113.146 1232.14 114.122 1232.73 115.386C1233.32 116.651 1233.62 118.142 1233.62 119.861C1233.62 121.594 1233.32 123.096 1232.73 124.367C1232.14 125.631 1231.33 126.612 1230.28 127.308C1229.24 127.996 1228.04 128.341 1226.67 128.341C1225.62 128.341 1224.78 128.167 1224.15 127.819C1223.52 127.464 1223.03 127.062 1222.69 126.615C1222.35 126.161 1222.08 125.784 1221.9 125.486H1221.69V134.136H1219.17ZM1221.64 119.818C1221.64 121.054 1221.82 122.144 1222.19 123.089C1222.55 124.026 1223.08 124.761 1223.77 125.294C1224.47 125.82 1225.32 126.082 1226.33 126.082C1227.38 126.082 1228.26 125.805 1228.96 125.251C1229.67 124.69 1230.21 123.937 1230.56 122.993C1230.92 122.041 1231.1 120.983 1231.1 119.818C1231.1 118.668 1230.93 117.631 1230.57 116.707C1230.22 115.777 1229.69 115.042 1228.98 114.502C1228.28 113.955 1227.4 113.682 1226.33 113.682C1225.31 113.682 1224.45 113.941 1223.75 114.46C1223.06 114.971 1222.53 115.688 1222.18 116.612C1221.82 117.528 1221.64 118.597 1221.64 119.818ZM1237.45 134.136V111.636H1239.88V114.236H1240.18C1240.37 113.952 1240.62 113.589 1240.95 113.149C1241.28 112.702 1241.76 112.304 1242.38 111.956C1243 111.601 1243.85 111.423 1244.91 111.423C1246.29 111.423 1247.5 111.768 1248.55 112.457C1249.61 113.146 1250.43 114.122 1251.02 115.386C1251.6 116.651 1251.9 118.142 1251.9 119.861C1251.9 121.594 1251.6 123.096 1251.02 124.367C1250.43 125.631 1249.61 126.612 1248.56 127.308C1247.52 127.996 1246.32 128.341 1244.95 128.341C1243.9 128.341 1243.06 128.167 1242.43 127.819C1241.8 127.464 1241.31 127.062 1240.97 126.615C1240.63 126.161 1240.37 125.784 1240.18 125.486H1239.97V134.136H1237.45ZM1239.93 119.818C1239.93 121.054 1240.11 122.144 1240.47 123.089C1240.83 124.026 1241.36 124.761 1242.06 125.294C1242.75 125.82 1243.6 126.082 1244.61 126.082C1245.66 126.082 1246.54 125.805 1247.24 125.251C1247.95 124.69 1248.49 123.937 1248.84 122.993C1249.2 122.041 1249.39 120.983 1249.39 119.818C1249.39 118.668 1249.21 117.631 1248.85 116.707C1248.5 115.777 1247.98 115.042 1247.27 114.502C1246.56 113.955 1245.68 113.682 1244.61 113.682C1243.59 113.682 1242.73 113.941 1242.03 114.46C1241.34 114.971 1240.81 115.688 1240.46 116.612C1240.1 117.528 1239.93 118.597 1239.93 119.818ZM1258.25 106.182V128H1255.73V106.182H1258.25ZM1262.85 128V111.636H1265.37V128H1262.85ZM1264.13 108.909C1263.64 108.909 1263.22 108.742 1262.86 108.408C1262.52 108.075 1262.34 107.673 1262.34 107.205C1262.34 106.736 1262.52 106.335 1262.86 106.001C1263.22 105.667 1263.64 105.5 1264.13 105.5C1264.62 105.5 1265.04 105.667 1265.39 106.001C1265.74 106.335 1265.92 106.736 1265.92 107.205C1265.92 107.673 1265.74 108.075 1265.39 108.408C1265.04 108.742 1264.62 108.909 1264.13 108.909ZM1276.62 128.341C1275.09 128.341 1273.77 127.979 1272.66 127.254C1271.55 126.53 1270.7 125.532 1270.1 124.261C1269.5 122.989 1269.21 121.537 1269.21 119.903C1269.21 118.241 1269.51 116.775 1270.12 115.504C1270.74 114.225 1271.6 113.227 1272.7 112.51C1273.81 111.786 1275.1 111.423 1276.58 111.423C1277.73 111.423 1278.77 111.636 1279.69 112.062C1280.61 112.489 1281.37 113.085 1281.96 113.852C1282.55 114.619 1282.91 115.514 1283.06 116.537H1280.54C1280.35 115.791 1279.92 115.131 1279.26 114.555C1278.61 113.973 1277.73 113.682 1276.62 113.682C1275.64 113.682 1274.78 113.937 1274.04 114.449C1273.31 114.953 1272.74 115.667 1272.33 116.59C1271.92 117.506 1271.72 118.582 1271.72 119.818C1271.72 121.082 1271.92 122.183 1272.32 123.121C1272.72 124.058 1273.29 124.786 1274.02 125.305C1274.76 125.823 1275.63 126.082 1276.62 126.082C1277.27 126.082 1277.87 125.969 1278.4 125.741C1278.93 125.514 1279.38 125.188 1279.75 124.761C1280.12 124.335 1280.38 123.824 1280.54 123.227H1283.06C1282.91 124.193 1282.56 125.063 1282 125.837C1281.45 126.604 1280.71 127.215 1279.8 127.67C1278.89 128.117 1277.83 128.341 1276.62 128.341ZM1291.55 128.384C1290.51 128.384 1289.57 128.188 1288.72 127.798C1287.88 127.4 1287.21 126.828 1286.71 126.082C1286.21 125.33 1285.96 124.42 1285.96 123.355C1285.96 122.418 1286.15 121.658 1286.52 121.075C1286.89 120.486 1287.38 120.024 1288 119.69C1288.62 119.357 1289.3 119.108 1290.04 118.945C1290.8 118.774 1291.55 118.639 1292.31 118.54C1293.31 118.412 1294.11 118.316 1294.73 118.252C1295.36 118.181 1295.81 118.064 1296.1 117.901C1296.39 117.737 1296.53 117.453 1296.53 117.048V116.963C1296.53 115.912 1296.24 115.095 1295.67 114.513C1295.1 113.93 1294.24 113.639 1293.08 113.639C1291.88 113.639 1290.94 113.902 1290.26 114.428C1289.58 114.953 1289.1 115.514 1288.82 116.111L1286.43 115.259C1286.86 114.264 1287.43 113.49 1288.14 112.936C1288.85 112.375 1289.64 111.984 1290.48 111.764C1291.33 111.537 1292.17 111.423 1293 111.423C1293.52 111.423 1294.12 111.487 1294.81 111.615C1295.5 111.736 1296.16 111.988 1296.8 112.371C1297.44 112.755 1297.98 113.334 1298.41 114.108C1298.83 114.882 1299.05 115.919 1299.05 117.219V128H1296.53V125.784H1296.4C1296.23 126.139 1295.95 126.519 1295.55 126.924C1295.15 127.329 1294.63 127.673 1293.96 127.957C1293.3 128.241 1292.5 128.384 1291.55 128.384ZM1291.93 126.125C1292.92 126.125 1293.76 125.93 1294.44 125.539C1295.13 125.148 1295.65 124.644 1296 124.026C1296.35 123.408 1296.53 122.759 1296.53 122.077V119.776C1296.43 119.903 1296.19 120.021 1295.83 120.127C1295.47 120.227 1295.06 120.315 1294.59 120.393C1294.13 120.464 1293.68 120.528 1293.24 120.585C1292.81 120.635 1292.46 120.678 1292.19 120.713C1291.53 120.798 1290.92 120.937 1290.35 121.129C1289.79 121.313 1289.34 121.594 1288.99 121.97C1288.65 122.339 1288.48 122.844 1288.48 123.483C1288.48 124.357 1288.8 125.017 1289.45 125.464C1290.1 125.905 1290.93 126.125 1291.93 126.125ZM1310.75 111.636V113.767H1302.27V111.636H1310.75ZM1304.74 107.716H1307.26V123.312C1307.26 124.023 1307.36 124.555 1307.57 124.911C1307.78 125.259 1308.05 125.493 1308.38 125.614C1308.71 125.727 1309.06 125.784 1309.43 125.784C1309.71 125.784 1309.93 125.77 1310.11 125.741C1310.29 125.706 1310.43 125.678 1310.54 125.656L1311.05 127.915C1310.88 127.979 1310.64 128.043 1310.34 128.107C1310.03 128.178 1309.64 128.213 1309.17 128.213C1308.46 128.213 1307.77 128.06 1307.09 127.755C1306.41 127.45 1305.85 126.984 1305.4 126.359C1304.96 125.734 1304.74 124.946 1304.74 123.994V107.716ZM1314.53 128V111.636H1317.05V128H1314.53ZM1315.81 108.909C1315.32 108.909 1314.9 108.742 1314.54 108.408C1314.2 108.075 1314.02 107.673 1314.02 107.205C1314.02 106.736 1314.2 106.335 1314.54 106.001C1314.9 105.667 1315.32 105.5 1315.81 105.5C1316.3 105.5 1316.72 105.667 1317.07 106.001C1317.42 106.335 1317.6 106.736 1317.6 107.205C1317.6 107.673 1317.42 108.075 1317.07 108.408C1316.72 108.742 1316.3 108.909 1315.81 108.909ZM1328.3 128.341C1326.82 128.341 1325.53 127.989 1324.41 127.286C1323.3 126.583 1322.44 125.599 1321.81 124.335C1321.19 123.071 1320.89 121.594 1320.89 119.903C1320.89 118.199 1321.19 116.711 1321.81 115.44C1322.44 114.168 1323.3 113.181 1324.41 112.478C1325.53 111.775 1326.82 111.423 1328.3 111.423C1329.78 111.423 1331.07 111.775 1332.18 112.478C1333.29 113.181 1334.16 114.168 1334.78 115.44C1335.4 116.711 1335.72 118.199 1335.72 119.903C1335.72 121.594 1335.4 123.071 1334.78 124.335C1334.16 125.599 1333.29 126.583 1332.18 127.286C1331.07 127.989 1329.78 128.341 1328.3 128.341ZM1328.3 126.082C1329.42 126.082 1330.35 125.795 1331.07 125.219C1331.79 124.644 1332.33 123.888 1332.68 122.95C1333.03 122.013 1333.2 120.997 1333.2 119.903C1333.2 118.81 1333.03 117.79 1332.68 116.846C1332.33 115.901 1331.79 115.138 1331.07 114.555C1330.35 113.973 1329.42 113.682 1328.3 113.682C1327.18 113.682 1326.25 113.973 1325.53 114.555C1324.81 115.138 1324.27 115.901 1323.92 116.846C1323.57 117.79 1323.4 118.81 1323.4 119.903C1323.4 120.997 1323.57 122.013 1323.92 122.95C1324.27 123.888 1324.81 124.644 1325.53 125.219C1326.25 125.795 1327.18 126.082 1328.3 126.082ZM1342.07 118.156V128H1339.55V111.636H1341.98V114.193H1342.2C1342.58 113.362 1343.16 112.695 1343.94 112.19C1344.72 111.679 1345.73 111.423 1346.97 111.423C1348.08 111.423 1349.05 111.651 1349.88 112.105C1350.71 112.553 1351.35 113.234 1351.82 114.151C1352.28 115.06 1352.51 116.21 1352.51 117.602V128H1349.99V117.773C1349.99 116.487 1349.66 115.486 1348.99 114.768C1348.32 114.044 1347.41 113.682 1346.24 113.682C1345.44 113.682 1344.72 113.856 1344.09 114.204C1343.47 114.552 1342.97 115.06 1342.61 115.727C1342.25 116.395 1342.07 117.205 1342.07 118.156ZM1365.5 128V126.082L1372.7 118.199C1373.54 117.276 1374.24 116.473 1374.79 115.791C1375.33 115.102 1375.74 114.456 1376 113.852C1376.27 113.241 1376.41 112.602 1376.41 111.935C1376.41 111.168 1376.22 110.504 1375.85 109.942C1375.49 109.381 1374.99 108.948 1374.36 108.643C1373.73 108.337 1373.02 108.185 1372.23 108.185C1371.39 108.185 1370.66 108.359 1370.04 108.707C1369.42 109.048 1368.94 109.527 1368.6 110.145C1368.26 110.763 1368.1 111.487 1368.1 112.318H1365.58C1365.58 111.04 1365.88 109.918 1366.47 108.952C1367.06 107.986 1367.86 107.233 1368.87 106.693C1369.9 106.153 1371.04 105.884 1372.31 105.884C1373.59 105.884 1374.73 106.153 1375.71 106.693C1376.7 107.233 1377.47 107.961 1378.04 108.877C1378.6 109.793 1378.88 110.812 1378.88 111.935C1378.88 112.737 1378.73 113.522 1378.44 114.289C1378.16 115.049 1377.66 115.898 1376.95 116.835C1376.25 117.766 1375.27 118.902 1374.02 120.244L1369.12 125.486V125.656H1379.26V128H1365.5ZM1161.03 162.091C1161.03 159.406 1161.38 156.938 1162.08 154.687C1162.78 152.428 1163.78 150.351 1165.08 148.455H1167.3C1166.79 149.158 1166.31 150.024 1165.86 151.054C1165.42 152.077 1165.03 153.202 1164.7 154.431C1164.36 155.653 1164.1 156.917 1163.91 158.224C1163.73 159.531 1163.63 160.82 1163.63 162.091C1163.63 163.781 1163.8 165.496 1164.12 167.237C1164.45 168.977 1164.89 170.592 1165.44 172.084C1166 173.575 1166.62 174.79 1167.3 175.727H1165.08C1163.78 173.831 1162.78 171.757 1162.08 169.506C1161.38 167.247 1161.03 164.776 1161.03 162.091ZM1185.67 151.182H1188.31V165.628C1188.31 167.119 1187.96 168.451 1187.25 169.623C1186.56 170.788 1185.57 171.707 1184.3 172.382C1183.03 173.05 1181.54 173.384 1179.83 173.384C1178.12 173.384 1176.63 173.05 1175.35 172.382C1174.08 171.707 1173.1 170.788 1172.39 169.623C1171.7 168.451 1171.35 167.119 1171.35 165.628V151.182H1173.99V165.415C1173.99 166.48 1174.23 167.428 1174.69 168.259C1175.16 169.083 1175.83 169.733 1176.7 170.209C1177.57 170.678 1178.61 170.912 1179.83 170.912C1181.04 170.912 1182.09 170.678 1182.96 170.209C1183.83 169.733 1184.5 169.083 1184.96 168.259C1185.43 167.428 1185.67 166.48 1185.67 165.415V151.182ZM1204.84 160.301L1202.58 160.94C1202.43 160.564 1202.23 160.198 1201.95 159.843C1201.68 159.481 1201.31 159.183 1200.84 158.948C1200.37 158.714 1199.77 158.597 1199.04 158.597C1198.04 158.597 1197.2 158.827 1196.54 159.289C1195.88 159.744 1195.55 160.322 1195.55 161.026C1195.55 161.651 1195.77 162.144 1196.23 162.506C1196.68 162.869 1197.39 163.17 1198.36 163.412L1200.79 164.009C1202.25 164.364 1203.34 164.907 1204.06 165.638C1204.78 166.363 1205.13 167.297 1205.13 168.44C1205.13 169.378 1204.86 170.216 1204.32 170.955C1203.79 171.693 1203.05 172.276 1202.09 172.702C1201.13 173.128 1200.01 173.341 1198.74 173.341C1197.07 173.341 1195.69 172.979 1194.6 172.254C1193.5 171.53 1192.81 170.472 1192.52 169.08L1194.91 168.483C1195.13 169.364 1195.56 170.024 1196.2 170.464C1196.83 170.905 1197.67 171.125 1198.7 171.125C1199.87 171.125 1200.8 170.876 1201.49 170.379C1202.19 169.875 1202.53 169.271 1202.53 168.568C1202.53 168 1202.34 167.524 1201.94 167.141C1201.54 166.75 1200.93 166.459 1200.11 166.267L1197.38 165.628C1195.88 165.273 1194.78 164.722 1194.08 163.977C1193.38 163.224 1193.03 162.283 1193.03 161.153C1193.03 160.23 1193.29 159.413 1193.81 158.703C1194.33 157.993 1195.05 157.435 1195.95 157.031C1196.86 156.626 1197.89 156.423 1199.04 156.423C1200.66 156.423 1201.93 156.778 1202.85 157.489C1203.78 158.199 1204.44 159.136 1204.84 160.301ZM1215.78 173.341C1214.2 173.341 1212.84 172.993 1211.7 172.297C1210.56 171.594 1209.69 170.614 1209.07 169.357C1208.46 168.092 1208.15 166.622 1208.15 164.946C1208.15 163.27 1208.46 161.793 1209.07 160.514C1209.69 159.229 1210.54 158.227 1211.65 157.51C1212.75 156.786 1214.05 156.423 1215.52 156.423C1216.38 156.423 1217.22 156.565 1218.05 156.849C1218.88 157.134 1219.64 157.595 1220.32 158.234C1221 158.866 1221.54 159.705 1221.95 160.749C1222.35 161.793 1222.55 163.078 1222.55 164.605V165.67H1209.94V163.497H1220C1220 162.574 1219.81 161.75 1219.44 161.026C1219.08 160.301 1218.56 159.729 1217.89 159.31C1217.22 158.891 1216.43 158.682 1215.52 158.682C1214.52 158.682 1213.66 158.93 1212.92 159.428C1212.2 159.918 1211.64 160.557 1211.25 161.345C1210.86 162.134 1210.67 162.979 1210.67 163.881V165.33C1210.67 166.565 1210.88 167.613 1211.3 168.472C1211.74 169.325 1212.34 169.974 1213.11 170.422C1213.87 170.862 1214.76 171.082 1215.78 171.082C1216.44 171.082 1217.04 170.99 1217.57 170.805C1218.11 170.614 1218.57 170.33 1218.96 169.953C1219.36 169.57 1219.66 169.094 1219.87 168.526L1222.3 169.207C1222.04 170.031 1221.61 170.756 1221.01 171.381C1220.41 171.999 1219.66 172.482 1218.77 172.83C1217.88 173.17 1216.89 173.341 1215.78 173.341ZM1226.38 173V156.636H1228.81V159.108H1228.98C1229.28 158.298 1229.82 157.641 1230.6 157.137C1231.38 156.633 1232.26 156.381 1233.24 156.381C1233.42 156.381 1233.66 156.384 1233.93 156.391C1234.21 156.398 1234.42 156.409 1234.56 156.423V158.98C1234.48 158.959 1234.28 158.927 1233.98 158.884C1233.68 158.835 1233.36 158.81 1233.03 158.81C1232.23 158.81 1231.52 158.977 1230.9 159.31C1230.28 159.637 1229.79 160.092 1229.43 160.674C1229.07 161.249 1228.89 161.906 1228.89 162.645V173H1226.38ZM1252.37 169.165V155.102H1254.76V169.165H1252.37ZM1246.53 163.327V160.94H1260.6V163.327H1246.53ZM1275.43 173H1272.66L1280.67 151.182H1283.4L1291.41 173H1288.64L1282.12 154.634H1281.95L1275.43 173ZM1276.45 164.477H1287.62V166.821H1276.45V164.477ZM1294.47 179.136V156.636H1296.89V159.236H1297.19C1297.38 158.952 1297.63 158.589 1297.96 158.149C1298.29 157.702 1298.77 157.304 1299.39 156.956C1300.01 156.601 1300.86 156.423 1301.92 156.423C1303.3 156.423 1304.51 156.768 1305.57 157.457C1306.62 158.146 1307.44 159.122 1308.03 160.386C1308.62 161.651 1308.91 163.142 1308.91 164.861C1308.91 166.594 1308.62 168.096 1308.03 169.367C1307.44 170.631 1306.62 171.612 1305.58 172.308C1304.53 172.996 1303.33 173.341 1301.97 173.341C1300.91 173.341 1300.07 173.167 1299.44 172.819C1298.81 172.464 1298.32 172.062 1297.98 171.615C1297.64 171.161 1297.38 170.784 1297.19 170.486H1296.98V179.136H1294.47ZM1296.94 164.818C1296.94 166.054 1297.12 167.144 1297.48 168.089C1297.84 169.026 1298.37 169.761 1299.07 170.294C1299.76 170.82 1300.62 171.082 1301.62 171.082C1302.68 171.082 1303.55 170.805 1304.26 170.251C1304.97 169.69 1305.5 168.937 1305.85 167.993C1306.22 167.041 1306.4 165.983 1306.4 164.818C1306.4 163.668 1306.22 162.631 1305.86 161.707C1305.52 160.777 1304.99 160.042 1304.28 159.502C1303.57 158.955 1302.69 158.682 1301.62 158.682C1300.6 158.682 1299.74 158.941 1299.05 159.46C1298.35 159.971 1297.82 160.688 1297.47 161.612C1297.11 162.528 1296.94 163.597 1296.94 164.818ZM1312.75 179.136V156.636H1315.18V159.236H1315.47C1315.66 158.952 1315.91 158.589 1316.24 158.149C1316.57 157.702 1317.05 157.304 1317.67 156.956C1318.29 156.601 1319.14 156.423 1320.2 156.423C1321.58 156.423 1322.8 156.768 1323.85 157.457C1324.9 158.146 1325.72 159.122 1326.31 160.386C1326.9 161.651 1327.19 163.142 1327.19 164.861C1327.19 166.594 1326.9 168.096 1326.31 169.367C1325.72 170.631 1324.9 171.612 1323.86 172.308C1322.81 172.996 1321.61 173.341 1320.25 173.341C1319.2 173.341 1318.35 173.167 1317.72 172.819C1317.09 172.464 1316.6 172.062 1316.26 171.615C1315.92 171.161 1315.66 170.784 1315.47 170.486H1315.26V179.136H1312.75ZM1315.22 164.818C1315.22 166.054 1315.4 167.144 1315.76 168.089C1316.12 169.026 1316.65 169.761 1317.35 170.294C1318.04 170.82 1318.9 171.082 1319.91 171.082C1320.96 171.082 1321.83 170.805 1322.54 170.251C1323.25 169.69 1323.78 168.937 1324.13 167.993C1324.5 167.041 1324.68 165.983 1324.68 164.818C1324.68 163.668 1324.5 162.631 1324.15 161.707C1323.8 160.777 1323.27 160.042 1322.56 159.502C1321.86 158.955 1320.97 158.682 1319.91 158.682C1318.88 158.682 1318.02 158.941 1317.33 159.46C1316.63 159.971 1316.11 160.688 1315.75 161.612C1315.4 162.528 1315.22 163.597 1315.22 164.818ZM1338.66 151.182V173H1336.01V153.952H1335.89L1330.56 157.489V154.804L1336.01 151.182H1338.66ZM1360.7 156.636V158.767H1351.88V156.636H1360.7ZM1354.52 173V154.378C1354.52 153.44 1354.74 152.659 1355.18 152.034C1355.62 151.409 1356.19 150.94 1356.89 150.628C1357.6 150.315 1358.34 150.159 1359.12 150.159C1359.74 150.159 1360.24 150.209 1360.63 150.308C1361.02 150.408 1361.32 150.5 1361.51 150.585L1360.78 152.759C1360.65 152.716 1360.48 152.663 1360.25 152.599C1360.03 152.535 1359.74 152.503 1359.38 152.503C1358.55 152.503 1357.95 152.712 1357.58 153.131C1357.21 153.55 1357.03 154.165 1357.03 154.974V173H1354.52ZM1364.22 173V156.636H1366.74V173H1364.22ZM1365.5 153.909C1365.01 153.909 1364.59 153.742 1364.23 153.408C1363.88 153.075 1363.71 152.673 1363.71 152.205C1363.71 151.736 1363.88 151.335 1364.23 151.001C1364.59 150.667 1365.01 150.5 1365.5 150.5C1365.99 150.5 1366.41 150.667 1366.76 151.001C1367.11 151.335 1367.29 151.736 1367.29 152.205C1367.29 152.673 1367.11 153.075 1366.76 153.408C1366.41 153.742 1365.99 153.909 1365.5 153.909ZM1373.85 151.182V173H1371.34V151.182H1373.85ZM1385.32 173.341C1383.74 173.341 1382.38 172.993 1381.24 172.297C1380.1 171.594 1379.23 170.614 1378.61 169.357C1378 168.092 1377.69 166.622 1377.69 164.946C1377.69 163.27 1378 161.793 1378.61 160.514C1379.23 159.229 1380.09 158.227 1381.19 157.51C1382.29 156.786 1383.59 156.423 1385.06 156.423C1385.92 156.423 1386.76 156.565 1387.59 156.849C1388.42 157.134 1389.18 157.595 1389.86 158.234C1390.54 158.866 1391.08 159.705 1391.49 160.749C1391.89 161.793 1392.1 163.078 1392.1 164.605V165.67H1379.48V163.497H1389.54C1389.54 162.574 1389.35 161.75 1388.98 161.026C1388.62 160.301 1388.1 159.729 1387.43 159.31C1386.76 158.891 1385.97 158.682 1385.06 158.682C1384.06 158.682 1383.2 158.93 1382.47 159.428C1381.74 159.918 1381.18 160.557 1380.79 161.345C1380.4 162.134 1380.21 162.979 1380.21 163.881V165.33C1380.21 166.565 1380.42 167.613 1380.85 168.472C1381.28 169.325 1381.88 169.974 1382.65 170.422C1383.41 170.862 1384.3 171.082 1385.32 171.082C1385.98 171.082 1386.58 170.99 1387.11 170.805C1387.65 170.614 1388.11 170.33 1388.51 169.953C1388.9 169.57 1389.2 169.094 1389.41 168.526L1391.84 169.207C1391.58 170.031 1391.15 170.756 1390.55 171.381C1389.95 171.999 1389.2 172.482 1388.31 172.83C1387.43 173.17 1386.43 173.341 1385.32 173.341ZM1407.51 160.301L1405.25 160.94C1405.11 160.564 1404.9 160.198 1404.62 159.843C1404.35 159.481 1403.98 159.183 1403.52 158.948C1403.05 158.714 1402.45 158.597 1401.72 158.597C1400.71 158.597 1399.88 158.827 1399.21 159.289C1398.55 159.744 1398.22 160.322 1398.22 161.026C1398.22 161.651 1398.45 162.144 1398.9 162.506C1399.36 162.869 1400.07 163.17 1401.03 163.412L1403.46 164.009C1404.93 164.364 1406.02 164.907 1406.73 165.638C1407.45 166.363 1407.81 167.297 1407.81 168.44C1407.81 169.378 1407.54 170.216 1407 170.955C1406.47 171.693 1405.72 172.276 1404.76 172.702C1403.8 173.128 1402.69 173.341 1401.42 173.341C1399.75 173.341 1398.37 172.979 1397.27 172.254C1396.18 171.53 1395.49 170.472 1395.2 169.08L1397.58 168.483C1397.81 169.364 1398.24 170.024 1398.87 170.464C1399.51 170.905 1400.34 171.125 1401.37 171.125C1402.55 171.125 1403.48 170.876 1404.17 170.379C1404.86 169.875 1405.21 169.271 1405.21 168.568C1405.21 168 1405.01 167.524 1404.61 167.141C1404.22 166.75 1403.6 166.459 1402.78 166.267L1400.05 165.628C1398.56 165.273 1397.45 164.722 1396.75 163.977C1396.06 163.224 1395.71 162.283 1395.71 161.153C1395.71 160.23 1395.97 159.413 1396.48 158.703C1397.01 157.993 1397.72 157.435 1398.63 157.031C1399.54 156.626 1400.57 156.423 1401.72 156.423C1403.34 156.423 1404.61 156.778 1405.53 157.489C1406.46 158.199 1407.12 159.136 1407.51 160.301ZM1416.96 163.795C1416.96 166.48 1416.61 168.952 1415.91 171.21C1415.21 173.462 1414.21 175.536 1412.92 177.432H1410.7C1411.21 176.729 1411.69 175.862 1412.13 174.832C1412.57 173.81 1412.96 172.687 1413.3 171.466C1413.63 170.237 1413.89 168.969 1414.08 167.663C1414.27 166.349 1414.36 165.06 1414.36 163.795C1414.36 162.105 1414.2 160.39 1413.87 158.65C1413.55 156.91 1413.11 155.294 1412.55 153.803C1412 152.311 1411.38 151.097 1410.7 150.159H1412.92C1414.21 152.055 1415.21 154.133 1415.91 156.391C1416.61 158.643 1416.96 161.111 1416.96 163.795Z" fill="black"/>
<path d="M522 142L512 136.226V147.774L522 142ZM384 142V143H513V142V141H384V142Z" fill="#090D13"/>
<path d="M1069.01 140L1059.01 134.226V145.774L1069.01 140ZM907 140V141H1060.01V140V139H907V140Z" fill="#090D13"/>
</svg>
