<svg width="1567" height="282" viewBox="0 0 1567 282" fill="none" xmlns="http://www.w3.org/2000/svg">
<rect width="1567" height="282" rx="20" fill="#D9D9D9" fill-opacity="0.3"/>
<rect x="617" y="51" width="314" height="185" rx="10" fill="#D9D9D9"/>
<rect x="31" y="51" width="314" height="185" rx="10" fill="#D9D9D9"/>
<rect x="1213" y="51" width="314" height="185" rx="10" fill="#D9D9D9"/>
<path d="M742.146 152H739.376L747.388 130.182H750.115L758.126 152H755.357L748.837 133.634H748.666L742.146 152ZM743.169 143.477H754.334V145.821H743.169V143.477ZM761.184 158.136V135.636H763.613V138.236H763.911C764.096 137.952 764.352 137.589 764.678 137.149C765.012 136.702 765.488 136.304 766.106 135.956C766.731 135.601 767.576 135.423 768.641 135.423C770.019 135.423 771.234 135.768 772.285 136.457C773.336 137.146 774.156 138.122 774.746 139.386C775.335 140.651 775.63 142.142 775.63 143.861C775.63 145.594 775.335 147.096 774.746 148.367C774.156 149.631 773.339 150.612 772.295 151.308C771.251 151.996 770.048 152.341 768.684 152.341C767.633 152.341 766.791 152.167 766.159 151.819C765.527 151.464 765.04 151.062 764.7 150.615C764.359 150.161 764.096 149.784 763.911 149.486H763.698V158.136H761.184ZM763.656 143.818C763.656 145.054 763.837 146.144 764.199 147.089C764.561 148.026 765.09 148.761 765.786 149.294C766.482 149.82 767.335 150.082 768.343 150.082C769.394 150.082 770.271 149.805 770.974 149.251C771.685 148.69 772.217 147.937 772.572 146.993C772.935 146.041 773.116 144.983 773.116 143.818C773.116 142.668 772.938 141.631 772.583 140.707C772.235 139.777 771.706 139.042 770.996 138.502C770.293 137.955 769.408 137.682 768.343 137.682C767.32 137.682 766.461 137.941 765.765 138.46C765.069 138.971 764.543 139.688 764.188 140.612C763.833 141.528 763.656 142.597 763.656 143.818ZM779.465 158.136V135.636H781.894V138.236H782.192C782.377 137.952 782.633 137.589 782.96 137.149C783.293 136.702 783.769 136.304 784.387 135.956C785.012 135.601 785.857 135.423 786.923 135.423C788.3 135.423 789.515 135.768 790.566 136.457C791.617 137.146 792.438 138.122 793.027 139.386C793.616 140.651 793.911 142.142 793.911 143.861C793.911 145.594 793.616 147.096 793.027 148.367C792.438 149.631 791.621 150.612 790.577 151.308C789.533 151.996 788.329 152.341 786.965 152.341C785.914 152.341 785.072 152.167 784.44 151.819C783.808 151.464 783.322 151.062 782.981 150.615C782.64 150.161 782.377 149.784 782.192 149.486H781.979V158.136H779.465ZM781.937 143.818C781.937 145.054 782.118 146.144 782.48 147.089C782.842 148.026 783.371 148.761 784.067 149.294C784.763 149.82 785.616 150.082 786.624 150.082C787.675 150.082 788.553 149.805 789.256 149.251C789.966 148.69 790.499 147.937 790.854 146.993C791.216 146.041 791.397 144.983 791.397 143.818C791.397 142.668 791.219 141.631 790.864 140.707C790.516 139.777 789.987 139.042 789.277 138.502C788.574 137.955 787.69 137.682 786.624 137.682C785.602 137.682 784.742 137.941 784.046 138.46C783.35 138.971 782.825 139.688 782.469 140.612C782.114 141.528 781.937 142.597 781.937 143.818ZM805.374 130.182V152H802.732V132.952H802.604L797.278 136.489V133.804L802.732 130.182H805.374Z" fill="black"/>
<path d="M125.654 132H118.921V110.182H125.953C128.069 110.182 129.88 110.619 131.386 111.492C132.892 112.359 134.046 113.605 134.848 115.232C135.651 116.851 136.052 118.79 136.052 121.048C136.052 123.321 135.647 125.278 134.838 126.918C134.028 128.552 132.849 129.809 131.301 130.69C129.752 131.563 127.87 132 125.654 132ZM121.563 129.656H125.484C127.288 129.656 128.783 129.308 129.969 128.612C131.155 127.916 132.039 126.925 132.622 125.64C133.204 124.354 133.495 122.824 133.495 121.048C133.495 119.287 133.208 117.771 132.632 116.499C132.057 115.221 131.198 114.241 130.054 113.559C128.911 112.87 127.487 112.526 125.782 112.526H121.563V129.656ZM143.126 110.182V132H140.484V110.182H143.126ZM149.318 132H146.548L154.56 110.182H157.287L165.298 132H162.528L156.009 113.634H155.838L149.318 132ZM150.341 123.477H161.506V125.821H150.341V123.477ZM168.697 132V110.182H171.339V129.656H181.481V132H168.697ZM211.566 117H208.924C208.768 116.24 208.494 115.572 208.104 114.997C207.72 114.422 207.251 113.939 206.697 113.548C206.151 113.151 205.543 112.852 204.876 112.653C204.208 112.455 203.512 112.355 202.788 112.355C201.467 112.355 200.27 112.689 199.197 113.357C198.132 114.024 197.283 115.008 196.651 116.308C196.026 117.607 195.714 119.202 195.714 121.091C195.714 122.98 196.026 124.575 196.651 125.874C197.283 127.174 198.132 128.158 199.197 128.825C200.27 129.493 201.467 129.827 202.788 129.827C203.512 129.827 204.208 129.727 204.876 129.528C205.543 129.33 206.151 129.035 206.697 128.644C207.251 128.246 207.72 127.76 208.104 127.185C208.494 126.602 208.768 125.935 208.924 125.182H211.566C211.367 126.297 211.005 127.295 210.479 128.175C209.954 129.056 209.3 129.805 208.519 130.423C207.738 131.034 206.861 131.499 205.888 131.819C204.922 132.138 203.888 132.298 202.788 132.298C200.927 132.298 199.272 131.844 197.823 130.935C196.374 130.026 195.234 128.733 194.403 127.057C193.572 125.381 193.157 123.392 193.157 121.091C193.157 118.79 193.572 116.801 194.403 115.125C195.234 113.449 196.374 112.156 197.823 111.247C199.272 110.338 200.927 109.884 202.788 109.884C203.888 109.884 204.922 110.043 205.888 110.363C206.861 110.683 207.738 111.151 208.519 111.769C209.3 112.38 209.954 113.126 210.479 114.006C211.005 114.88 211.367 115.878 211.566 117ZM218.009 122.156V132H215.494V110.182H218.009V118.193H218.222C218.605 117.348 219.181 116.677 219.948 116.18C220.722 115.675 221.752 115.423 223.037 115.423C224.152 115.423 225.129 115.647 225.967 116.094C226.805 116.535 227.455 117.213 227.916 118.129C228.385 119.038 228.619 120.196 228.619 121.602V132H226.105V121.773C226.105 120.473 225.768 119.468 225.093 118.758C224.426 118.04 223.499 117.682 222.313 117.682C221.489 117.682 220.75 117.856 220.097 118.204C219.45 118.552 218.939 119.06 218.563 119.727C218.193 120.395 218.009 121.205 218.009 122.156ZM238.034 132.384C236.998 132.384 236.056 132.188 235.211 131.798C234.366 131.4 233.695 130.828 233.198 130.082C232.701 129.33 232.452 128.42 232.452 127.355C232.452 126.418 232.637 125.658 233.006 125.075C233.375 124.486 233.869 124.024 234.487 123.69C235.105 123.357 235.787 123.108 236.532 122.945C237.285 122.774 238.042 122.639 238.801 122.54C239.796 122.412 240.602 122.316 241.22 122.252C241.845 122.181 242.299 122.064 242.583 121.901C242.875 121.737 243.02 121.453 243.02 121.048V120.963C243.02 119.912 242.733 119.095 242.157 118.513C241.589 117.93 240.726 117.639 239.569 117.639C238.368 117.639 237.427 117.902 236.745 118.428C236.064 118.953 235.584 119.514 235.307 120.111L232.921 119.259C233.347 118.264 233.915 117.49 234.625 116.936C235.343 116.375 236.124 115.984 236.969 115.764C237.821 115.537 238.659 115.423 239.483 115.423C240.009 115.423 240.613 115.487 241.294 115.615C241.983 115.736 242.647 115.988 243.287 116.371C243.933 116.755 244.469 117.334 244.895 118.108C245.321 118.882 245.534 119.919 245.534 121.219V132H243.02V129.784H242.892C242.722 130.139 242.438 130.519 242.04 130.924C241.642 131.329 241.113 131.673 240.453 131.957C239.792 132.241 238.986 132.384 238.034 132.384ZM238.418 130.125C239.412 130.125 240.25 129.93 240.932 129.539C241.621 129.148 242.14 128.644 242.488 128.026C242.843 127.408 243.02 126.759 243.02 126.077V123.776C242.914 123.903 242.679 124.021 242.317 124.127C241.962 124.227 241.55 124.315 241.081 124.393C240.62 124.464 240.169 124.528 239.728 124.585C239.295 124.635 238.944 124.678 238.674 124.713C238.02 124.798 237.409 124.937 236.841 125.129C236.28 125.313 235.826 125.594 235.478 125.97C235.137 126.339 234.966 126.844 234.966 127.483C234.966 128.357 235.289 129.017 235.936 129.464C236.589 129.905 237.417 130.125 238.418 130.125ZM257.24 115.636V117.767H248.76V115.636H257.24ZM251.231 111.716H253.746V127.312C253.746 128.023 253.849 128.555 254.055 128.911C254.268 129.259 254.537 129.493 254.864 129.614C255.198 129.727 255.55 129.784 255.919 129.784C256.196 129.784 256.423 129.77 256.601 129.741C256.778 129.706 256.92 129.678 257.027 129.656L257.538 131.915C257.368 131.979 257.13 132.043 256.824 132.107C256.519 132.178 256.132 132.213 255.663 132.213C254.953 132.213 254.257 132.06 253.575 131.755C252.9 131.45 252.339 130.984 251.892 130.359C251.452 129.734 251.231 128.946 251.231 127.994V111.716ZM171.194 155.182H173.836V169.628C173.836 171.119 173.484 172.451 172.781 173.623C172.085 174.788 171.101 175.707 169.83 176.382C168.559 177.05 167.067 177.384 165.356 177.384C163.644 177.384 162.152 177.05 160.881 176.382C159.61 175.707 158.623 174.788 157.919 173.623C157.223 172.451 156.875 171.119 156.875 169.628V155.182H159.517V169.415C159.517 170.48 159.752 171.428 160.221 172.259C160.689 173.083 161.357 173.733 162.223 174.209C163.097 174.678 164.141 174.912 165.356 174.912C166.57 174.912 167.614 174.678 168.488 174.209C169.361 173.733 170.029 173.083 170.491 172.259C170.959 171.428 171.194 170.48 171.194 169.415V155.182ZM190.362 164.301L188.103 164.94C187.961 164.564 187.752 164.198 187.475 163.843C187.205 163.481 186.835 163.183 186.367 162.948C185.898 162.714 185.298 162.597 184.566 162.597C183.565 162.597 182.73 162.827 182.063 163.289C181.402 163.744 181.072 164.322 181.072 165.026C181.072 165.651 181.299 166.144 181.754 166.506C182.208 166.869 182.919 167.17 183.884 167.412L186.313 168.009C187.777 168.364 188.867 168.907 189.584 169.638C190.301 170.363 190.66 171.297 190.66 172.44C190.66 173.378 190.39 174.216 189.85 174.955C189.318 175.693 188.572 176.276 187.613 176.702C186.654 177.128 185.539 177.341 184.268 177.341C182.599 177.341 181.218 176.979 180.124 176.254C179.03 175.53 178.338 174.472 178.046 173.08L180.433 172.483C180.66 173.364 181.09 174.024 181.722 174.464C182.361 174.905 183.196 175.125 184.225 175.125C185.397 175.125 186.328 174.876 187.017 174.379C187.713 173.875 188.061 173.271 188.061 172.568C188.061 172 187.862 171.524 187.464 171.141C187.066 170.75 186.456 170.459 185.632 170.267L182.904 169.628C181.406 169.273 180.305 168.722 179.602 167.977C178.906 167.224 178.558 166.283 178.558 165.153C178.558 164.23 178.817 163.413 179.335 162.703C179.861 161.993 180.575 161.435 181.477 161.031C182.386 160.626 183.416 160.423 184.566 160.423C186.186 160.423 187.457 160.778 188.38 161.489C189.311 162.199 189.971 163.136 190.362 164.301ZM201.305 177.341C199.729 177.341 198.369 176.993 197.225 176.297C196.089 175.594 195.212 174.614 194.594 173.357C193.983 172.092 193.678 170.622 193.678 168.946C193.678 167.27 193.983 165.793 194.594 164.514C195.212 163.229 196.071 162.227 197.172 161.51C198.28 160.786 199.573 160.423 201.05 160.423C201.902 160.423 202.744 160.565 203.575 160.849C204.406 161.134 205.162 161.595 205.844 162.234C206.526 162.866 207.069 163.705 207.474 164.749C207.879 165.793 208.081 167.078 208.081 168.605V169.67H195.467V167.497H205.524C205.524 166.574 205.34 165.75 204.97 165.026C204.608 164.301 204.09 163.729 203.415 163.31C202.747 162.891 201.959 162.682 201.05 162.682C200.048 162.682 199.182 162.93 198.45 163.428C197.726 163.918 197.168 164.557 196.778 165.345C196.387 166.134 196.192 166.979 196.192 167.881V169.33C196.192 170.565 196.405 171.613 196.831 172.472C197.264 173.325 197.864 173.974 198.631 174.422C199.399 174.862 200.29 175.082 201.305 175.082C201.966 175.082 202.563 174.99 203.095 174.805C203.635 174.614 204.1 174.33 204.491 173.953C204.881 173.57 205.183 173.094 205.396 172.526L207.825 173.207C207.57 174.031 207.14 174.756 206.536 175.381C205.933 175.999 205.187 176.482 204.299 176.83C203.411 177.17 202.413 177.341 201.305 177.341ZM211.906 177V160.636H214.335V163.108H214.505C214.803 162.298 215.343 161.641 216.124 161.137C216.906 160.633 217.786 160.381 218.766 160.381C218.951 160.381 219.182 160.384 219.459 160.391C219.736 160.398 219.945 160.409 220.087 160.423V162.98C220.002 162.959 219.807 162.927 219.502 162.884C219.203 162.835 218.887 162.81 218.553 162.81C217.758 162.81 217.048 162.977 216.423 163.31C215.805 163.637 215.315 164.092 214.953 164.674C214.597 165.249 214.42 165.906 214.42 166.645V177H211.906Z" fill="black"/>
<path d="M375.002 122V107.455H379.916C381.057 107.455 381.99 107.661 382.715 108.072C383.444 108.48 383.984 109.031 384.334 109.727C384.684 110.423 384.86 111.2 384.86 112.057C384.86 112.914 384.684 113.693 384.334 114.393C383.988 115.094 383.453 115.653 382.729 116.07C382.004 116.482 381.076 116.688 379.945 116.688H376.422V115.125H379.888C380.669 115.125 381.297 114.99 381.77 114.72C382.244 114.45 382.587 114.086 382.8 113.626C383.018 113.162 383.127 112.639 383.127 112.057C383.127 111.474 383.018 110.954 382.8 110.494C382.587 110.035 382.241 109.675 381.763 109.415C381.285 109.15 380.65 109.017 379.86 109.017H376.763V122H375.002ZM391.926 122.227C390.875 122.227 389.968 121.995 389.206 121.531C388.449 121.062 387.864 120.409 387.452 119.571C387.045 118.728 386.841 117.748 386.841 116.631C386.841 115.513 387.045 114.528 387.452 113.676C387.864 112.819 388.437 112.152 389.171 111.673C389.909 111.19 390.771 110.949 391.756 110.949C392.324 110.949 392.885 111.044 393.439 111.233C393.993 111.422 394.497 111.73 394.952 112.156C395.406 112.578 395.769 113.136 396.039 113.832C396.308 114.528 396.443 115.385 396.443 116.403V117.114H388.034V115.665H394.739C394.739 115.049 394.616 114.5 394.369 114.017C394.128 113.534 393.782 113.153 393.333 112.874C392.887 112.594 392.362 112.455 391.756 112.455C391.088 112.455 390.511 112.62 390.023 112.952C389.54 113.278 389.168 113.705 388.908 114.23C388.647 114.756 388.517 115.319 388.517 115.92V116.886C388.517 117.71 388.659 118.409 388.943 118.982C389.232 119.55 389.632 119.983 390.144 120.281C390.655 120.575 391.249 120.722 391.926 120.722C392.367 120.722 392.764 120.66 393.119 120.537C393.479 120.409 393.789 120.22 394.05 119.969C394.31 119.713 394.512 119.396 394.654 119.017L396.273 119.472C396.102 120.021 395.816 120.504 395.414 120.92C395.011 121.332 394.514 121.654 393.922 121.886C393.33 122.114 392.665 122.227 391.926 122.227ZM398.993 122V111.091H400.612V112.739H400.726C400.925 112.199 401.285 111.761 401.806 111.425C402.326 111.089 402.914 110.92 403.567 110.92C403.69 110.92 403.844 110.923 404.029 110.928C404.213 110.932 404.353 110.939 404.448 110.949V112.653C404.391 112.639 404.261 112.618 404.057 112.589C403.858 112.556 403.647 112.54 403.425 112.54C402.895 112.54 402.421 112.651 402.004 112.874C401.593 113.091 401.266 113.394 401.024 113.783C400.788 114.166 400.669 114.604 400.669 115.097V122H398.993ZM411.884 114.983V116.545H405.52V114.983H411.884ZM414.833 122V111.091H416.452V112.739H416.566C416.765 112.199 417.125 111.761 417.645 111.425C418.166 111.089 418.753 110.92 419.407 110.92C419.53 110.92 419.684 110.923 419.868 110.928C420.053 110.932 420.193 110.939 420.287 110.949V112.653C420.231 112.639 420.1 112.618 419.897 112.589C419.698 112.556 419.487 112.54 419.265 112.54C418.734 112.54 418.261 112.651 417.844 112.874C417.432 113.091 417.106 113.394 416.864 113.783C416.627 114.166 416.509 114.604 416.509 115.097V122H414.833ZM426.516 122.227C425.465 122.227 424.558 121.995 423.796 121.531C423.038 121.062 422.454 120.409 422.042 119.571C421.635 118.728 421.431 117.748 421.431 116.631C421.431 115.513 421.635 114.528 422.042 113.676C422.454 112.819 423.027 112.152 423.76 111.673C424.499 111.19 425.361 110.949 426.346 110.949C426.914 110.949 427.475 111.044 428.029 111.233C428.583 111.422 429.087 111.73 429.542 112.156C429.996 112.578 430.358 113.136 430.628 113.832C430.898 114.528 431.033 115.385 431.033 116.403V117.114H422.624V115.665H429.329C429.329 115.049 429.206 114.5 428.959 114.017C428.718 113.534 428.372 113.153 427.922 112.874C427.477 112.594 426.952 112.455 426.346 112.455C425.678 112.455 425.1 112.62 424.613 112.952C424.13 113.278 423.758 113.705 423.498 114.23C423.237 114.756 423.107 115.319 423.107 115.92V116.886C423.107 117.71 423.249 118.409 423.533 118.982C423.822 119.55 424.222 119.983 424.733 120.281C425.245 120.575 425.839 120.722 426.516 120.722C426.956 120.722 427.354 120.66 427.709 120.537C428.069 120.409 428.379 120.22 428.64 119.969C428.9 119.713 429.101 119.396 429.243 119.017L430.863 119.472C430.692 120.021 430.406 120.504 430.003 120.92C429.601 121.332 429.104 121.654 428.512 121.886C427.92 122.114 427.255 122.227 426.516 122.227ZM441.026 126.091V120.324H440.884C440.761 120.523 440.586 120.774 440.358 121.077C440.131 121.375 439.807 121.643 439.385 121.879C438.964 122.111 438.403 122.227 437.702 122.227C436.793 122.227 435.991 121.998 435.295 121.538C434.599 121.074 434.054 120.421 433.661 119.578C433.268 118.731 433.072 117.729 433.072 116.574C433.072 115.428 433.268 114.434 433.661 113.591C434.054 112.748 434.601 112.097 435.302 111.638C436.002 111.179 436.812 110.949 437.731 110.949C438.441 110.949 439.002 111.067 439.414 111.304C439.831 111.536 440.148 111.801 440.366 112.099C440.588 112.393 440.761 112.634 440.884 112.824H441.083V111.091H442.702V126.091H441.026ZM437.93 120.722C438.602 120.722 439.17 120.546 439.634 120.196C440.098 119.841 440.451 119.351 440.692 118.726C440.934 118.096 441.055 117.369 441.055 116.545C441.055 115.731 440.936 115.018 440.699 114.408C440.463 113.792 440.112 113.314 439.648 112.973C439.184 112.627 438.611 112.455 437.93 112.455C437.219 112.455 436.627 112.637 436.154 113.001C435.685 113.361 435.332 113.851 435.096 114.472C434.864 115.087 434.748 115.778 434.748 116.545C434.748 117.322 434.866 118.027 435.103 118.662C435.344 119.292 435.699 119.794 436.168 120.168C436.642 120.537 437.229 120.722 437.93 120.722ZM452.645 117.54V111.091H454.322V122H452.645V120.153H452.532C452.276 120.707 451.878 121.179 451.339 121.567C450.799 121.95 450.117 122.142 449.293 122.142C448.611 122.142 448.005 121.993 447.475 121.695C446.945 121.392 446.528 120.937 446.225 120.331C445.922 119.72 445.77 118.951 445.77 118.023V111.091H447.447V117.909C447.447 118.705 447.669 119.339 448.114 119.812C448.564 120.286 449.137 120.523 449.833 120.523C450.25 120.523 450.673 120.416 451.104 120.203C451.54 119.99 451.904 119.663 452.198 119.223C452.496 118.783 452.645 118.222 452.645 117.54ZM461.965 122.227C460.914 122.227 460.008 121.995 459.245 121.531C458.488 121.062 457.903 120.409 457.491 119.571C457.084 118.728 456.88 117.748 456.88 116.631C456.88 115.513 457.084 114.528 457.491 113.676C457.903 112.819 458.476 112.152 459.21 111.673C459.948 111.19 460.81 110.949 461.795 110.949C462.363 110.949 462.924 111.044 463.478 111.233C464.032 111.422 464.536 111.73 464.991 112.156C465.445 112.578 465.808 113.136 466.078 113.832C466.347 114.528 466.482 115.385 466.482 116.403V117.114H458.073V115.665H464.778C464.778 115.049 464.655 114.5 464.409 114.017C464.167 113.534 463.821 113.153 463.372 112.874C462.927 112.594 462.401 112.455 461.795 112.455C461.127 112.455 460.55 112.62 460.062 112.952C459.579 113.278 459.207 113.705 458.947 114.23C458.686 114.756 458.556 115.319 458.556 115.92V116.886C458.556 117.71 458.698 118.409 458.982 118.982C459.271 119.55 459.671 119.983 460.183 120.281C460.694 120.575 461.288 120.722 461.965 120.722C462.406 120.722 462.803 120.66 463.159 120.537C463.518 120.409 463.829 120.22 464.089 119.969C464.349 119.713 464.551 119.396 464.693 119.017L466.312 119.472C466.142 120.021 465.855 120.504 465.453 120.92C465.05 121.332 464.553 121.654 463.961 121.886C463.369 122.114 462.704 122.227 461.965 122.227ZM476.759 113.534L475.254 113.96C475.159 113.709 475.019 113.465 474.835 113.229C474.655 112.987 474.409 112.788 474.096 112.632C473.784 112.476 473.383 112.398 472.896 112.398C472.228 112.398 471.672 112.552 471.227 112.859C470.786 113.162 470.566 113.548 470.566 114.017C470.566 114.434 470.718 114.763 471.021 115.004C471.324 115.246 471.797 115.447 472.441 115.608L474.061 116.006C475.036 116.242 475.763 116.605 476.241 117.092C476.719 117.575 476.958 118.198 476.958 118.96C476.958 119.585 476.778 120.144 476.419 120.636C476.063 121.129 475.566 121.517 474.927 121.801C474.288 122.085 473.544 122.227 472.697 122.227C471.584 122.227 470.663 121.986 469.934 121.503C469.205 121.02 468.743 120.314 468.549 119.386L470.14 118.989C470.292 119.576 470.578 120.016 470.999 120.31C471.426 120.603 471.982 120.75 472.669 120.75C473.45 120.75 474.07 120.584 474.529 120.253C474.993 119.917 475.225 119.514 475.225 119.045C475.225 118.667 475.093 118.349 474.828 118.094C474.562 117.833 474.155 117.639 473.606 117.511L471.788 117.085C470.789 116.848 470.055 116.482 469.586 115.984C469.122 115.482 468.89 114.855 468.89 114.102C468.89 113.487 469.063 112.942 469.409 112.469C469.759 111.995 470.235 111.624 470.836 111.354C471.442 111.084 472.129 110.949 472.896 110.949C473.975 110.949 474.823 111.186 475.438 111.659C476.059 112.133 476.499 112.758 476.759 113.534ZM484.226 111.091V112.511H478.572V111.091H484.226ZM480.22 108.477H481.896V118.875C481.896 119.348 481.965 119.704 482.102 119.94C482.244 120.172 482.424 120.329 482.642 120.409C482.864 120.485 483.099 120.523 483.345 120.523C483.53 120.523 483.681 120.513 483.8 120.494C483.918 120.471 484.013 120.452 484.084 120.438L484.425 121.943C484.311 121.986 484.152 122.028 483.949 122.071C483.745 122.118 483.487 122.142 483.175 122.142C482.701 122.142 482.237 122.04 481.782 121.837C481.333 121.633 480.959 121.323 480.66 120.906C480.367 120.49 480.22 119.964 480.22 119.33V108.477ZM493.196 122H491.349L496.69 107.455H498.508L503.849 122H502.003L497.656 109.756H497.542L493.196 122ZM493.878 116.318H501.321V117.881H493.878V116.318ZM506.115 122V107.455H511.03C512.171 107.455 513.104 107.661 513.828 108.072C514.557 108.48 515.097 109.031 515.447 109.727C515.798 110.423 515.973 111.2 515.973 112.057C515.973 112.914 515.798 113.693 515.447 114.393C515.102 115.094 514.567 115.653 513.842 116.07C513.118 116.482 512.19 116.688 511.058 116.688H507.535V115.125H511.001C511.782 115.125 512.41 114.99 512.883 114.72C513.357 114.45 513.7 114.086 513.913 113.626C514.131 113.162 514.24 112.639 514.24 112.057C514.24 111.474 514.131 110.954 513.913 110.494C513.7 110.035 513.354 109.675 512.876 109.415C512.398 109.15 511.764 109.017 510.973 109.017H507.876V122H506.115ZM520.572 107.455V122H518.81V107.455H520.572ZM531.063 118.023L531.035 115.949H531.376L536.149 111.091H538.222L533.137 116.233H532.995L531.063 118.023ZM529.501 122V107.455H531.177V122H529.501ZM536.433 122L532.171 116.602L533.365 115.438L538.563 122H536.433ZM544.504 122.227C543.453 122.227 542.547 121.995 541.784 121.531C541.027 121.062 540.442 120.409 540.03 119.571C539.623 118.728 539.419 117.748 539.419 116.631C539.419 115.513 539.623 114.528 540.03 113.676C540.442 112.819 541.015 112.152 541.749 111.673C542.487 111.19 543.349 110.949 544.334 110.949C544.902 110.949 545.463 111.044 546.017 111.233C546.571 111.422 547.075 111.73 547.53 112.156C547.985 112.578 548.347 113.136 548.617 113.832C548.887 114.528 549.021 115.385 549.021 116.403V117.114H540.612V115.665H547.317C547.317 115.049 547.194 114.5 546.948 114.017C546.706 113.534 546.36 113.153 545.911 112.874C545.466 112.594 544.94 112.455 544.334 112.455C543.666 112.455 543.089 112.62 542.601 112.952C542.118 113.278 541.746 113.705 541.486 114.23C541.226 114.756 541.095 115.319 541.095 115.92V116.886C541.095 117.71 541.237 118.409 541.521 118.982C541.81 119.55 542.21 119.983 542.722 120.281C543.233 120.575 543.827 120.722 544.504 120.722C544.945 120.722 545.343 120.66 545.698 120.537C546.057 120.409 546.368 120.22 546.628 119.969C546.888 119.713 547.09 119.396 547.232 119.017L548.851 119.472C548.681 120.021 548.394 120.504 547.992 120.92C547.589 121.332 547.092 121.654 546.5 121.886C545.908 122.114 545.243 122.227 544.504 122.227ZM552.319 126.091C552.035 126.091 551.781 126.067 551.559 126.02C551.336 125.977 551.182 125.935 551.097 125.892L551.523 124.415C551.93 124.519 552.29 124.557 552.603 124.528C552.915 124.5 553.192 124.36 553.434 124.109C553.68 123.863 553.905 123.463 554.108 122.909L554.421 122.057L550.387 111.091H552.205L555.216 119.784H555.33L558.341 111.091H560.16L555.529 123.591C555.321 124.154 555.063 124.621 554.755 124.99C554.447 125.364 554.09 125.641 553.682 125.821C553.28 126.001 552.825 126.091 552.319 126.091ZM573.082 107.455V122H571.321V109.301H571.236L567.684 111.659V109.869L571.321 107.455H573.082Z" fill="black"/>
<path d="M967.095 122V107.455H972.01C973.151 107.455 974.084 107.661 974.808 108.072C975.538 108.48 976.077 109.031 976.428 109.727C976.778 110.423 976.953 111.2 976.953 112.057C976.953 112.914 976.778 113.693 976.428 114.393C976.082 115.094 975.547 115.653 974.823 116.07C974.098 116.482 973.17 116.688 972.039 116.688H968.516V115.125H971.982C972.763 115.125 973.39 114.99 973.864 114.72C974.337 114.45 974.681 114.086 974.894 113.626C975.111 113.162 975.22 112.639 975.22 112.057C975.22 111.474 975.111 110.954 974.894 110.494C974.681 110.035 974.335 109.675 973.857 109.415C973.378 109.15 972.744 109.017 971.953 109.017H968.857V122H967.095ZM984.02 122.227C982.969 122.227 982.062 121.995 981.3 121.531C980.542 121.062 979.958 120.409 979.546 119.571C979.138 118.728 978.935 117.748 978.935 116.631C978.935 115.513 979.138 114.528 979.546 113.676C979.958 112.819 980.53 112.152 981.264 111.673C982.003 111.19 982.865 110.949 983.85 110.949C984.418 110.949 984.979 111.044 985.533 111.233C986.087 111.422 986.591 111.73 987.046 112.156C987.5 112.578 987.862 113.136 988.132 113.832C988.402 114.528 988.537 115.385 988.537 116.403V117.114H980.128V115.665H986.833C986.833 115.049 986.709 114.5 986.463 114.017C986.222 113.534 985.876 113.153 985.426 112.874C984.981 112.594 984.456 112.455 983.85 112.455C983.182 112.455 982.604 112.62 982.117 112.952C981.634 113.278 981.262 113.705 981.002 114.23C980.741 114.756 980.611 115.319 980.611 115.92V116.886C980.611 117.71 980.753 118.409 981.037 118.982C981.326 119.55 981.726 119.983 982.237 120.281C982.749 120.575 983.343 120.722 984.02 120.722C984.46 120.722 984.858 120.66 985.213 120.537C985.573 120.409 985.883 120.22 986.144 119.969C986.404 119.713 986.605 119.396 986.747 119.017L988.367 119.472C988.196 120.021 987.91 120.504 987.507 120.92C987.105 121.332 986.608 121.654 986.016 121.886C985.424 122.114 984.759 122.227 984.02 122.227ZM991.087 122V111.091H992.706V112.739H992.82C993.019 112.199 993.378 111.761 993.899 111.425C994.42 111.089 995.007 110.92 995.661 110.92C995.784 110.92 995.938 110.923 996.122 110.928C996.307 110.932 996.447 110.939 996.541 110.949V112.653C996.485 112.639 996.354 112.618 996.151 112.589C995.952 112.556 995.741 112.54 995.519 112.54C994.988 112.54 994.515 112.651 994.098 112.874C993.686 113.091 993.36 113.394 993.118 113.783C992.881 114.166 992.763 114.604 992.763 115.097V122H991.087ZM1003.98 114.983V116.545H997.614V114.983H1003.98ZM1006.93 122V111.091H1008.55V112.739H1008.66C1008.86 112.199 1009.22 111.761 1009.74 111.425C1010.26 111.089 1010.85 110.92 1011.5 110.92C1011.62 110.92 1011.78 110.923 1011.96 110.928C1012.15 110.932 1012.29 110.939 1012.38 110.949V112.653C1012.32 112.639 1012.19 112.618 1011.99 112.589C1011.79 112.556 1011.58 112.54 1011.36 112.54C1010.83 112.54 1010.35 112.651 1009.94 112.874C1009.53 113.091 1009.2 113.394 1008.96 113.783C1008.72 114.166 1008.6 114.604 1008.6 115.097V122H1006.93ZM1018.61 122.227C1017.56 122.227 1016.65 121.995 1015.89 121.531C1015.13 121.062 1014.55 120.409 1014.14 119.571C1013.73 118.728 1013.52 117.748 1013.52 116.631C1013.52 115.513 1013.73 114.528 1014.14 113.676C1014.55 112.819 1015.12 112.152 1015.85 111.673C1016.59 111.19 1017.45 110.949 1018.44 110.949C1019.01 110.949 1019.57 111.044 1020.12 111.233C1020.68 111.422 1021.18 111.73 1021.64 112.156C1022.09 112.578 1022.45 113.136 1022.72 113.832C1022.99 114.528 1023.13 115.385 1023.13 116.403V117.114H1014.72V115.665H1021.42C1021.42 115.049 1021.3 114.5 1021.05 114.017C1020.81 113.534 1020.47 113.153 1020.02 112.874C1019.57 112.594 1019.05 112.455 1018.44 112.455C1017.77 112.455 1017.19 112.62 1016.71 112.952C1016.22 113.278 1015.85 113.705 1015.59 114.23C1015.33 114.756 1015.2 115.319 1015.2 115.92V116.886C1015.2 117.71 1015.34 118.409 1015.63 118.982C1015.92 119.55 1016.32 119.983 1016.83 120.281C1017.34 120.575 1017.93 120.722 1018.61 120.722C1019.05 120.722 1019.45 120.66 1019.8 120.537C1020.16 120.409 1020.47 120.22 1020.73 119.969C1020.99 119.713 1021.2 119.396 1021.34 119.017L1022.96 119.472C1022.79 120.021 1022.5 120.504 1022.1 120.92C1021.69 121.332 1021.2 121.654 1020.61 121.886C1020.01 122.114 1019.35 122.227 1018.61 122.227ZM1033.12 126.091V120.324H1032.98C1032.85 120.523 1032.68 120.774 1032.45 121.077C1032.22 121.375 1031.9 121.643 1031.48 121.879C1031.06 122.111 1030.5 122.227 1029.8 122.227C1028.89 122.227 1028.08 121.998 1027.39 121.538C1026.69 121.074 1026.15 120.421 1025.75 119.578C1025.36 118.731 1025.17 117.729 1025.17 116.574C1025.17 115.428 1025.36 114.434 1025.75 113.591C1026.15 112.748 1026.69 112.097 1027.4 111.638C1028.1 111.179 1028.91 110.949 1029.82 110.949C1030.53 110.949 1031.1 111.067 1031.51 111.304C1031.92 111.536 1032.24 111.801 1032.46 112.099C1032.68 112.393 1032.85 112.634 1032.98 112.824H1033.18V111.091H1034.8V126.091H1033.12ZM1030.02 120.722C1030.7 120.722 1031.26 120.546 1031.73 120.196C1032.19 119.841 1032.54 119.351 1032.79 118.726C1033.03 118.096 1033.15 117.369 1033.15 116.545C1033.15 115.731 1033.03 115.018 1032.79 114.408C1032.56 113.792 1032.21 113.314 1031.74 112.973C1031.28 112.627 1030.71 112.455 1030.02 112.455C1029.31 112.455 1028.72 112.637 1028.25 113.001C1027.78 113.361 1027.43 113.851 1027.19 114.472C1026.96 115.087 1026.84 115.778 1026.84 116.545C1026.84 117.322 1026.96 118.027 1027.2 118.662C1027.44 119.292 1027.79 119.794 1028.26 120.168C1028.74 120.537 1029.32 120.722 1030.02 120.722ZM1044.74 117.54V111.091H1046.42V122H1044.74V120.153H1044.63C1044.37 120.707 1043.97 121.179 1043.43 121.567C1042.89 121.95 1042.21 122.142 1041.39 122.142C1040.71 122.142 1040.1 121.993 1039.57 121.695C1039.04 121.392 1038.62 120.937 1038.32 120.331C1038.02 119.72 1037.86 118.951 1037.86 118.023V111.091H1039.54V117.909C1039.54 118.705 1039.76 119.339 1040.21 119.812C1040.66 120.286 1041.23 120.523 1041.93 120.523C1042.34 120.523 1042.77 120.416 1043.2 120.203C1043.63 119.99 1044 119.663 1044.29 119.223C1044.59 118.783 1044.74 118.222 1044.74 117.54ZM1054.06 122.227C1053.01 122.227 1052.1 121.995 1051.34 121.531C1050.58 121.062 1050 120.409 1049.58 119.571C1049.18 118.728 1048.97 117.748 1048.97 116.631C1048.97 115.513 1049.18 114.528 1049.58 113.676C1050 112.819 1050.57 112.152 1051.3 111.673C1052.04 111.19 1052.9 110.949 1053.89 110.949C1054.46 110.949 1055.02 111.044 1055.57 111.233C1056.13 111.422 1056.63 111.73 1057.08 112.156C1057.54 112.578 1057.9 113.136 1058.17 113.832C1058.44 114.528 1058.58 115.385 1058.58 116.403V117.114H1050.17V115.665H1056.87C1056.87 115.049 1056.75 114.5 1056.5 114.017C1056.26 113.534 1055.92 113.153 1055.47 112.874C1055.02 112.594 1054.49 112.455 1053.89 112.455C1053.22 112.455 1052.64 112.62 1052.16 112.952C1051.67 113.278 1051.3 113.705 1051.04 114.23C1050.78 114.756 1050.65 115.319 1050.65 115.92V116.886C1050.65 117.71 1050.79 118.409 1051.08 118.982C1051.36 119.55 1051.77 119.983 1052.28 120.281C1052.79 120.575 1053.38 120.722 1054.06 120.722C1054.5 120.722 1054.9 120.66 1055.25 120.537C1055.61 120.409 1055.92 120.22 1056.18 119.969C1056.44 119.713 1056.64 119.396 1056.79 119.017L1058.41 119.472C1058.24 120.021 1057.95 120.504 1057.55 120.92C1057.14 121.332 1056.65 121.654 1056.05 121.886C1055.46 122.114 1054.8 122.227 1054.06 122.227ZM1068.85 113.534L1067.35 113.96C1067.25 113.709 1067.11 113.465 1066.93 113.229C1066.75 112.987 1066.5 112.788 1066.19 112.632C1065.88 112.476 1065.48 112.398 1064.99 112.398C1064.32 112.398 1063.77 112.552 1063.32 112.859C1062.88 113.162 1062.66 113.548 1062.66 114.017C1062.66 114.434 1062.81 114.763 1063.11 115.004C1063.42 115.246 1063.89 115.447 1064.53 115.608L1066.15 116.006C1067.13 116.242 1067.86 116.605 1068.33 117.092C1068.81 117.575 1069.05 118.198 1069.05 118.96C1069.05 119.585 1068.87 120.144 1068.51 120.636C1068.16 121.129 1067.66 121.517 1067.02 121.801C1066.38 122.085 1065.64 122.227 1064.79 122.227C1063.68 122.227 1062.76 121.986 1062.03 121.503C1061.3 121.02 1060.84 120.314 1060.64 119.386L1062.23 118.989C1062.39 119.576 1062.67 120.016 1063.09 120.31C1063.52 120.603 1064.08 120.75 1064.76 120.75C1065.54 120.75 1066.16 120.584 1066.62 120.253C1067.09 119.917 1067.32 119.514 1067.32 119.045C1067.32 118.667 1067.19 118.349 1066.92 118.094C1066.66 117.833 1066.25 117.639 1065.7 117.511L1063.88 117.085C1062.88 116.848 1062.15 116.482 1061.68 115.984C1061.22 115.482 1060.98 114.855 1060.98 114.102C1060.98 113.487 1061.16 112.942 1061.5 112.469C1061.85 111.995 1062.33 111.624 1062.93 111.354C1063.54 111.084 1064.22 110.949 1064.99 110.949C1066.07 110.949 1066.92 111.186 1067.53 111.659C1068.15 112.133 1068.59 112.758 1068.85 113.534ZM1076.32 111.091V112.511H1070.67V111.091H1076.32ZM1072.31 108.477H1073.99V118.875C1073.99 119.348 1074.06 119.704 1074.2 119.94C1074.34 120.172 1074.52 120.329 1074.74 120.409C1074.96 120.485 1075.19 120.523 1075.44 120.523C1075.62 120.523 1075.77 120.513 1075.89 120.494C1076.01 120.471 1076.11 120.452 1076.18 120.438L1076.52 121.943C1076.4 121.986 1076.25 122.028 1076.04 122.071C1075.84 122.118 1075.58 122.142 1075.27 122.142C1074.79 122.142 1074.33 122.04 1073.88 121.837C1073.43 121.633 1073.05 121.323 1072.75 120.906C1072.46 120.49 1072.31 119.964 1072.31 119.33V108.477ZM1085.29 122H1083.44L1088.78 107.455H1090.6L1095.94 122H1094.1L1089.75 109.756H1089.64L1085.29 122ZM1085.97 116.318H1093.41V117.881H1085.97V116.318ZM1098.21 122V107.455H1103.12C1104.26 107.455 1105.2 107.661 1105.92 108.072C1106.65 108.48 1107.19 109.031 1107.54 109.727C1107.89 110.423 1108.07 111.2 1108.07 112.057C1108.07 112.914 1107.89 113.693 1107.54 114.393C1107.2 115.094 1106.66 115.653 1105.94 116.07C1105.21 116.482 1104.28 116.688 1103.15 116.688H1099.63V115.125H1103.09C1103.88 115.125 1104.5 114.99 1104.98 114.72C1105.45 114.45 1105.79 114.086 1106.01 113.626C1106.22 113.162 1106.33 112.639 1106.33 112.057C1106.33 111.474 1106.22 110.954 1106.01 110.494C1105.79 110.035 1105.45 109.675 1104.97 109.415C1104.49 109.15 1103.86 109.017 1103.07 109.017H1099.97V122H1098.21ZM1112.67 107.455V122H1110.9V107.455H1112.67ZM1123.16 118.023L1123.13 115.949H1123.47L1128.24 111.091H1130.32L1125.23 116.233H1125.09L1123.16 118.023ZM1121.59 122V107.455H1123.27V122H1121.59ZM1128.53 122L1124.27 116.602L1125.46 115.438L1130.66 122H1128.53ZM1136.6 122.227C1135.55 122.227 1134.64 121.995 1133.88 121.531C1133.12 121.062 1132.54 120.409 1132.12 119.571C1131.72 118.728 1131.51 117.748 1131.51 116.631C1131.51 115.513 1131.72 114.528 1132.12 113.676C1132.54 112.819 1133.11 112.152 1133.84 111.673C1134.58 111.19 1135.44 110.949 1136.43 110.949C1137 110.949 1137.56 111.044 1138.11 111.233C1138.66 111.422 1139.17 111.73 1139.62 112.156C1140.08 112.578 1140.44 113.136 1140.71 113.832C1140.98 114.528 1141.12 115.385 1141.12 116.403V117.114H1132.71V115.665H1139.41C1139.41 115.049 1139.29 114.5 1139.04 114.017C1138.8 113.534 1138.45 113.153 1138 112.874C1137.56 112.594 1137.03 112.455 1136.43 112.455C1135.76 112.455 1135.18 112.62 1134.69 112.952C1134.21 113.278 1133.84 113.705 1133.58 114.23C1133.32 114.756 1133.19 115.319 1133.19 115.92V116.886C1133.19 117.71 1133.33 118.409 1133.62 118.982C1133.9 119.55 1134.3 119.983 1134.82 120.281C1135.33 120.575 1135.92 120.722 1136.6 120.722C1137.04 120.722 1137.44 120.66 1137.79 120.537C1138.15 120.409 1138.46 120.22 1138.72 119.969C1138.98 119.713 1139.18 119.396 1139.33 119.017L1140.94 119.472C1140.77 120.021 1140.49 120.504 1140.09 120.92C1139.68 121.332 1139.19 121.654 1138.59 121.886C1138 122.114 1137.34 122.227 1136.6 122.227ZM1144.41 126.091C1144.13 126.091 1143.88 126.067 1143.65 126.02C1143.43 125.977 1143.28 125.935 1143.19 125.892L1143.62 124.415C1144.02 124.519 1144.38 124.557 1144.7 124.528C1145.01 124.5 1145.29 124.36 1145.53 124.109C1145.77 123.863 1146 123.463 1146.2 122.909L1146.51 122.057L1142.48 111.091H1144.3L1147.31 119.784H1147.42L1150.44 111.091H1152.25L1147.62 123.591C1147.41 124.154 1147.16 124.621 1146.85 124.99C1146.54 125.364 1146.18 125.641 1145.78 125.821C1145.37 126.001 1144.92 126.091 1144.41 126.091ZM1160.06 122V120.722L1164.86 115.466C1165.43 114.85 1165.89 114.315 1166.26 113.861C1166.62 113.402 1166.89 112.971 1167.07 112.568C1167.25 112.161 1167.34 111.735 1167.34 111.29C1167.34 110.778 1167.21 110.336 1166.97 109.962C1166.72 109.588 1166.39 109.299 1165.97 109.095C1165.55 108.892 1165.08 108.79 1164.55 108.79C1163.99 108.79 1163.5 108.906 1163.09 109.138C1162.68 109.365 1162.36 109.685 1162.13 110.097C1161.91 110.509 1161.8 110.991 1161.8 111.545H1160.12C1160.12 110.693 1160.32 109.945 1160.71 109.301C1161.1 108.657 1161.64 108.155 1162.31 107.795C1163 107.436 1163.76 107.256 1164.61 107.256C1165.46 107.256 1166.22 107.436 1166.87 107.795C1167.53 108.155 1168.05 108.641 1168.42 109.251C1168.8 109.862 1168.98 110.542 1168.98 111.29C1168.98 111.825 1168.89 112.348 1168.69 112.859C1168.5 113.366 1168.17 113.932 1167.7 114.557C1167.23 115.177 1166.58 115.935 1165.74 116.83L1162.48 120.324V120.438H1169.24V122H1160.06Z" fill="black"/>
<path d="M437.557 179H435.711L441.051 164.455H442.87L448.211 179H446.364L442.017 166.756H441.904L437.557 179ZM438.239 173.318H445.682V174.881H438.239V173.318ZM450.249 183.091V168.091H451.868V169.824H452.067C452.19 169.634 452.361 169.393 452.578 169.099C452.801 168.801 453.118 168.536 453.53 168.304C453.947 168.067 454.51 167.949 455.221 167.949C456.139 167.949 456.949 168.179 457.65 168.638C458.35 169.097 458.897 169.748 459.29 170.591C459.683 171.434 459.88 172.428 459.88 173.574C459.88 174.729 459.683 175.731 459.29 176.578C458.897 177.421 458.353 178.074 457.657 178.538C456.961 178.998 456.158 179.227 455.249 179.227C454.548 179.227 453.987 179.111 453.566 178.879C453.144 178.643 452.82 178.375 452.593 178.077C452.365 177.774 452.19 177.523 452.067 177.324H451.925V183.091H450.249ZM451.897 173.545C451.897 174.369 452.017 175.096 452.259 175.726C452.5 176.351 452.853 176.841 453.317 177.196C453.781 177.546 454.349 177.722 455.022 177.722C455.722 177.722 456.307 177.537 456.776 177.168C457.249 176.794 457.605 176.292 457.841 175.662C458.083 175.027 458.203 174.322 458.203 173.545C458.203 172.778 458.085 172.087 457.848 171.472C457.616 170.851 457.264 170.361 456.79 170.001C456.321 169.637 455.732 169.455 455.022 169.455C454.34 169.455 453.767 169.627 453.303 169.973C452.839 170.314 452.489 170.792 452.252 171.408C452.015 172.018 451.897 172.731 451.897 173.545ZM462.436 183.091V168.091H464.056V169.824H464.255C464.378 169.634 464.548 169.393 464.766 169.099C464.989 168.801 465.306 168.536 465.718 168.304C466.134 168.067 466.698 167.949 467.408 167.949C468.327 167.949 469.136 168.179 469.837 168.638C470.538 169.097 471.085 169.748 471.478 170.591C471.871 171.434 472.067 172.428 472.067 173.574C472.067 174.729 471.871 175.731 471.478 176.578C471.085 177.421 470.54 178.074 469.844 178.538C469.148 178.998 468.346 179.227 467.436 179.227C466.736 179.227 466.175 179.111 465.753 178.879C465.332 178.643 465.007 178.375 464.78 178.077C464.553 177.774 464.378 177.523 464.255 177.324H464.113V183.091H462.436ZM464.084 173.545C464.084 174.369 464.205 175.096 464.446 175.726C464.688 176.351 465.041 176.841 465.505 177.196C465.969 177.546 466.537 177.722 467.209 177.722C467.91 177.722 468.495 177.537 468.963 177.168C469.437 176.794 469.792 176.292 470.029 175.662C470.27 175.027 470.391 174.322 470.391 173.545C470.391 172.778 470.273 172.087 470.036 171.472C469.804 170.851 469.451 170.361 468.978 170.001C468.509 169.637 467.919 169.455 467.209 169.455C466.527 169.455 465.954 169.627 465.49 169.973C465.026 170.314 464.676 170.792 464.439 171.408C464.203 172.018 464.084 172.731 464.084 173.545ZM479.709 164.455V179H477.948V166.301H477.863L474.311 168.659V166.869L477.948 164.455H479.709ZM494.404 168.091V169.511H488.523V168.091H494.404ZM490.284 179V166.585C490.284 165.96 490.431 165.439 490.725 165.023C491.018 164.606 491.4 164.294 491.868 164.085C492.337 163.877 492.832 163.773 493.353 163.773C493.765 163.773 494.101 163.806 494.361 163.872C494.622 163.938 494.816 164 494.944 164.057L494.461 165.506C494.375 165.477 494.257 165.442 494.105 165.399C493.959 165.357 493.765 165.335 493.523 165.335C492.969 165.335 492.569 165.475 492.323 165.754C492.081 166.034 491.961 166.443 491.961 166.983V179H490.284ZM496.753 179V168.091H498.429V179H496.753ZM497.605 166.273C497.278 166.273 496.997 166.161 496.76 165.939C496.528 165.716 496.412 165.449 496.412 165.136C496.412 164.824 496.528 164.556 496.76 164.334C496.997 164.111 497.278 164 497.605 164C497.932 164 498.211 164.111 498.443 164.334C498.68 164.556 498.798 164.824 498.798 165.136C498.798 165.449 498.68 165.716 498.443 165.939C498.211 166.161 497.932 166.273 497.605 166.273ZM503.175 164.455V179H501.499V164.455H503.175ZM510.819 179.227C509.768 179.227 508.861 178.995 508.099 178.531C507.341 178.062 506.756 177.409 506.344 176.571C505.937 175.728 505.734 174.748 505.734 173.631C505.734 172.513 505.937 171.528 506.344 170.676C506.756 169.819 507.329 169.152 508.063 168.673C508.802 168.19 509.664 167.949 510.648 167.949C511.217 167.949 511.778 168.044 512.332 168.233C512.886 168.422 513.39 168.73 513.844 169.156C514.299 169.578 514.661 170.136 514.931 170.832C515.201 171.528 515.336 172.385 515.336 173.403V174.114H506.927V172.665H513.631C513.631 172.049 513.508 171.5 513.262 171.017C513.021 170.534 512.675 170.153 512.225 169.874C511.78 169.594 511.254 169.455 510.648 169.455C509.981 169.455 509.403 169.62 508.915 169.952C508.433 170.278 508.061 170.705 507.8 171.23C507.54 171.756 507.41 172.319 507.41 172.92V173.886C507.41 174.71 507.552 175.409 507.836 175.982C508.125 176.55 508.525 176.983 509.036 177.281C509.548 177.575 510.142 177.722 510.819 177.722C511.259 177.722 511.657 177.66 512.012 177.537C512.372 177.409 512.682 177.22 512.942 176.969C513.203 176.713 513.404 176.396 513.546 176.017L515.165 176.472C514.995 177.021 514.709 177.504 514.306 177.92C513.904 178.332 513.406 178.654 512.815 178.886C512.223 179.114 511.558 179.227 510.819 179.227ZM525.613 170.534L524.107 170.96C524.013 170.709 523.873 170.465 523.688 170.229C523.508 169.987 523.262 169.788 522.95 169.632C522.637 169.476 522.237 169.398 521.749 169.398C521.082 169.398 520.525 169.552 520.08 169.859C519.64 170.162 519.42 170.548 519.42 171.017C519.42 171.434 519.571 171.763 519.874 172.004C520.177 172.246 520.651 172.447 521.295 172.608L522.914 173.006C523.889 173.242 524.616 173.605 525.094 174.092C525.573 174.575 525.812 175.198 525.812 175.96C525.812 176.585 525.632 177.144 525.272 177.636C524.917 178.129 524.42 178.517 523.781 178.801C523.141 179.085 522.398 179.227 521.55 179.227C520.438 179.227 519.517 178.986 518.788 178.503C518.058 178.02 517.597 177.314 517.403 176.386L518.994 175.989C519.145 176.576 519.432 177.016 519.853 177.31C520.279 177.603 520.835 177.75 521.522 177.75C522.303 177.75 522.924 177.584 523.383 177.253C523.847 176.917 524.079 176.514 524.079 176.045C524.079 175.667 523.946 175.349 523.681 175.094C523.416 174.833 523.009 174.639 522.46 174.511L520.641 174.085C519.642 173.848 518.908 173.482 518.44 172.984C517.976 172.482 517.744 171.855 517.744 171.102C517.744 170.487 517.916 169.942 518.262 169.469C518.612 168.995 519.088 168.624 519.69 168.354C520.296 168.084 520.982 167.949 521.749 167.949C522.829 167.949 523.676 168.186 524.292 168.659C524.912 169.133 525.353 169.758 525.613 170.534Z" fill="black"/>
<path d="M1023.15 179H1021.3L1026.65 164.455H1028.46L1033.8 179H1031.96L1027.61 166.756H1027.5L1023.15 179ZM1023.83 173.318H1031.28V174.881H1023.83V173.318ZM1035.84 183.091V168.091H1037.46V169.824H1037.66C1037.78 169.634 1037.95 169.393 1038.17 169.099C1038.39 168.801 1038.71 168.536 1039.12 168.304C1039.54 168.067 1040.1 167.949 1040.81 167.949C1041.73 167.949 1042.54 168.179 1043.24 168.638C1043.94 169.097 1044.49 169.748 1044.88 170.591C1045.28 171.434 1045.47 172.428 1045.47 173.574C1045.47 174.729 1045.28 175.731 1044.88 176.578C1044.49 177.421 1043.95 178.074 1043.25 178.538C1042.55 178.998 1041.75 179.227 1040.84 179.227C1040.14 179.227 1039.58 179.111 1039.16 178.879C1038.74 178.643 1038.41 178.375 1038.19 178.077C1037.96 177.774 1037.78 177.523 1037.66 177.324H1037.52V183.091H1035.84ZM1037.49 173.545C1037.49 174.369 1037.61 175.096 1037.85 175.726C1038.09 176.351 1038.45 176.841 1038.91 177.196C1039.37 177.546 1039.94 177.722 1040.62 177.722C1041.32 177.722 1041.9 177.537 1042.37 177.168C1042.84 176.794 1043.2 176.292 1043.44 175.662C1043.68 175.027 1043.8 174.322 1043.8 173.545C1043.8 172.778 1043.68 172.087 1043.44 171.472C1043.21 170.851 1042.86 170.361 1042.38 170.001C1041.92 169.637 1041.33 169.455 1040.62 169.455C1039.93 169.455 1039.36 169.627 1038.9 169.973C1038.43 170.314 1038.08 170.792 1037.85 171.408C1037.61 172.018 1037.49 172.731 1037.49 173.545ZM1048.03 183.091V168.091H1049.65V169.824H1049.85C1049.97 169.634 1050.14 169.393 1050.36 169.099C1050.58 168.801 1050.9 168.536 1051.31 168.304C1051.73 168.067 1052.29 167.949 1053 167.949C1053.92 167.949 1054.73 168.179 1055.43 168.638C1056.13 169.097 1056.68 169.748 1057.07 170.591C1057.46 171.434 1057.66 172.428 1057.66 173.574C1057.66 174.729 1057.46 175.731 1057.07 176.578C1056.68 177.421 1056.13 178.074 1055.44 178.538C1054.74 178.998 1053.94 179.227 1053.03 179.227C1052.33 179.227 1051.77 179.111 1051.35 178.879C1050.93 178.643 1050.6 178.375 1050.37 178.077C1050.15 177.774 1049.97 177.523 1049.85 177.324H1049.71V183.091H1048.03ZM1049.68 173.545C1049.68 174.369 1049.8 175.096 1050.04 175.726C1050.28 176.351 1050.63 176.841 1051.1 177.196C1051.56 177.546 1052.13 177.722 1052.8 177.722C1053.5 177.722 1054.09 177.537 1054.56 177.168C1055.03 176.794 1055.39 176.292 1055.62 175.662C1055.86 175.027 1055.98 174.322 1055.98 173.545C1055.98 172.778 1055.87 172.087 1055.63 171.472C1055.4 170.851 1055.04 170.361 1054.57 170.001C1054.1 169.637 1053.51 169.455 1052.8 169.455C1052.12 169.455 1051.55 169.627 1051.08 169.973C1050.62 170.314 1050.27 170.792 1050.03 171.408C1049.8 172.018 1049.68 172.731 1049.68 173.545ZM1060.19 179V177.722L1064.99 172.466C1065.55 171.85 1066.02 171.315 1066.38 170.861C1066.75 170.402 1067.02 169.971 1067.19 169.568C1067.37 169.161 1067.46 168.735 1067.46 168.29C1067.46 167.778 1067.34 167.336 1067.09 166.962C1066.85 166.588 1066.52 166.299 1066.1 166.095C1065.68 165.892 1065.2 165.79 1064.68 165.79C1064.12 165.79 1063.63 165.906 1063.21 166.138C1062.8 166.365 1062.48 166.685 1062.26 167.097C1062.03 167.509 1061.92 167.991 1061.92 168.545H1060.25C1060.25 167.693 1060.44 166.945 1060.84 166.301C1061.23 165.657 1061.76 165.155 1062.44 164.795C1063.12 164.436 1063.89 164.256 1064.73 164.256C1065.59 164.256 1066.34 164.436 1067 164.795C1067.66 165.155 1068.17 165.641 1068.55 166.251C1068.92 166.862 1069.11 167.542 1069.11 168.29C1069.11 168.825 1069.01 169.348 1068.82 169.859C1068.63 170.366 1068.3 170.932 1067.82 171.557C1067.36 172.177 1066.7 172.935 1065.87 173.83L1062.6 177.324V177.438H1069.37V179H1060.19ZM1082.81 168.091V169.511H1076.93V168.091H1082.81ZM1078.69 179V166.585C1078.69 165.96 1078.84 165.439 1079.13 165.023C1079.42 164.606 1079.81 164.294 1080.27 164.085C1080.74 163.877 1081.24 163.773 1081.76 163.773C1082.17 163.773 1082.51 163.806 1082.77 163.872C1083.03 163.938 1083.22 164 1083.35 164.057L1082.87 165.506C1082.78 165.477 1082.66 165.442 1082.51 165.399C1082.36 165.357 1082.17 165.335 1081.93 165.335C1081.38 165.335 1080.98 165.475 1080.73 165.754C1080.49 166.034 1080.37 166.443 1080.37 166.983V179H1078.69ZM1085.16 179V168.091H1086.84V179H1085.16ZM1086.01 166.273C1085.68 166.273 1085.4 166.161 1085.17 165.939C1084.93 165.716 1084.82 165.449 1084.82 165.136C1084.82 164.824 1084.93 164.556 1085.17 164.334C1085.4 164.111 1085.68 164 1086.01 164C1086.34 164 1086.62 164.111 1086.85 164.334C1087.09 164.556 1087.2 164.824 1087.2 165.136C1087.2 165.449 1087.09 165.716 1086.85 165.939C1086.62 166.161 1086.34 166.273 1086.01 166.273ZM1091.58 164.455V179H1089.91V164.455H1091.58ZM1099.23 179.227C1098.17 179.227 1097.27 178.995 1096.5 178.531C1095.75 178.062 1095.16 177.409 1094.75 176.571C1094.34 175.728 1094.14 174.748 1094.14 173.631C1094.14 172.513 1094.34 171.528 1094.75 170.676C1095.16 169.819 1095.74 169.152 1096.47 168.673C1097.21 168.19 1098.07 167.949 1099.05 167.949C1099.62 167.949 1100.18 168.044 1100.74 168.233C1101.29 168.422 1101.8 168.73 1102.25 169.156C1102.71 169.578 1103.07 170.136 1103.34 170.832C1103.61 171.528 1103.74 172.385 1103.74 173.403V174.114H1095.33V172.665H1102.04C1102.04 172.049 1101.91 171.5 1101.67 171.017C1101.43 170.534 1101.08 170.153 1100.63 169.874C1100.19 169.594 1099.66 169.455 1099.05 169.455C1098.39 169.455 1097.81 169.62 1097.32 169.952C1096.84 170.278 1096.47 170.705 1096.21 171.23C1095.95 171.756 1095.82 172.319 1095.82 172.92V173.886C1095.82 174.71 1095.96 175.409 1096.24 175.982C1096.53 176.55 1096.93 176.983 1097.44 177.281C1097.95 177.575 1098.55 177.722 1099.23 177.722C1099.67 177.722 1100.06 177.66 1100.42 177.537C1100.78 177.409 1101.09 177.22 1101.35 176.969C1101.61 176.713 1101.81 176.396 1101.95 176.017L1103.57 176.472C1103.4 177.021 1103.11 177.504 1102.71 177.92C1102.31 178.332 1101.81 178.654 1101.22 178.886C1100.63 179.114 1099.96 179.227 1099.23 179.227ZM1114.02 170.534L1112.51 170.96C1112.42 170.709 1112.28 170.465 1112.09 170.229C1111.91 169.987 1111.67 169.788 1111.36 169.632C1111.04 169.476 1110.64 169.398 1110.16 169.398C1109.49 169.398 1108.93 169.552 1108.49 169.859C1108.05 170.162 1107.83 170.548 1107.83 171.017C1107.83 171.434 1107.98 171.763 1108.28 172.004C1108.58 172.246 1109.06 172.447 1109.7 172.608L1111.32 173.006C1112.3 173.242 1113.02 173.605 1113.5 174.092C1113.98 174.575 1114.22 175.198 1114.22 175.96C1114.22 176.585 1114.04 177.144 1113.68 177.636C1113.32 178.129 1112.83 178.517 1112.19 178.801C1111.55 179.085 1110.8 179.227 1109.96 179.227C1108.84 179.227 1107.92 178.986 1107.19 178.503C1106.46 178.02 1106 177.314 1105.81 176.386L1107.4 175.989C1107.55 176.576 1107.84 177.016 1108.26 177.31C1108.69 177.603 1109.24 177.75 1109.93 177.75C1110.71 177.75 1111.33 177.584 1111.79 177.253C1112.25 176.917 1112.49 176.514 1112.49 176.045C1112.49 175.667 1112.35 175.349 1112.09 175.094C1111.82 174.833 1111.42 174.639 1110.87 174.511L1109.05 174.085C1108.05 173.848 1107.31 173.482 1106.85 172.984C1106.38 172.482 1106.15 171.855 1106.15 171.102C1106.15 170.487 1106.32 169.942 1106.67 169.469C1107.02 168.995 1107.49 168.624 1108.1 168.354C1108.7 168.084 1109.39 167.949 1110.16 167.949C1111.24 167.949 1112.08 168.186 1112.7 168.659C1113.32 169.133 1113.76 169.758 1114.02 170.534Z" fill="black"/>
<path d="M1336.04 154H1333.27L1341.28 132.182H1344.01L1352.02 154H1349.25L1342.73 135.634H1342.56L1336.04 154ZM1337.06 145.477H1348.22V147.821H1337.06V145.477ZM1355.07 160.136V137.636H1357.5V140.236H1357.8C1357.99 139.952 1358.24 139.589 1358.57 139.149C1358.9 138.702 1359.38 138.304 1360 137.956C1360.62 137.601 1361.47 137.423 1362.53 137.423C1363.91 137.423 1365.12 137.768 1366.18 138.457C1367.23 139.146 1368.05 140.122 1368.64 141.386C1369.23 142.651 1369.52 144.142 1369.52 145.861C1369.52 147.594 1369.23 149.096 1368.64 150.367C1368.05 151.631 1367.23 152.612 1366.19 153.308C1365.14 153.996 1363.94 154.341 1362.57 154.341C1361.52 154.341 1360.68 154.167 1360.05 153.819C1359.42 153.464 1358.93 153.062 1358.59 152.615C1358.25 152.161 1357.99 151.784 1357.8 151.486H1357.59V160.136H1355.07ZM1357.55 145.818C1357.55 147.054 1357.73 148.144 1358.09 149.089C1358.45 150.026 1358.98 150.761 1359.68 151.294C1360.37 151.82 1361.23 152.082 1362.23 152.082C1363.28 152.082 1364.16 151.805 1364.87 151.251C1365.58 150.69 1366.11 149.937 1366.46 148.993C1366.83 148.041 1367.01 146.983 1367.01 145.818C1367.01 144.668 1366.83 143.631 1366.47 142.707C1366.13 141.777 1365.6 141.042 1364.89 140.502C1364.18 139.955 1363.3 139.682 1362.23 139.682C1361.21 139.682 1360.35 139.941 1359.66 140.46C1358.96 140.971 1358.43 141.688 1358.08 142.612C1357.72 143.528 1357.55 144.597 1357.55 145.818ZM1373.36 160.136V137.636H1375.78V140.236H1376.08C1376.27 139.952 1376.52 139.589 1376.85 139.149C1377.18 138.702 1377.66 138.304 1378.28 137.956C1378.9 137.601 1379.75 137.423 1380.81 137.423C1382.19 137.423 1383.41 137.768 1384.46 138.457C1385.51 139.146 1386.33 140.122 1386.92 141.386C1387.51 142.651 1387.8 144.142 1387.8 145.861C1387.8 147.594 1387.51 149.096 1386.92 150.367C1386.33 151.631 1385.51 152.612 1384.47 153.308C1383.42 153.996 1382.22 154.341 1380.86 154.341C1379.8 154.341 1378.96 154.167 1378.33 153.819C1377.7 153.464 1377.21 153.062 1376.87 152.615C1376.53 152.161 1376.27 151.784 1376.08 151.486H1375.87V160.136H1373.36ZM1375.83 145.818C1375.83 147.054 1376.01 148.144 1376.37 149.089C1376.73 150.026 1377.26 150.761 1377.96 151.294C1378.65 151.82 1379.51 152.082 1380.51 152.082C1381.57 152.082 1382.44 151.805 1383.15 151.251C1383.86 150.69 1384.39 149.937 1384.74 148.993C1385.11 148.041 1385.29 146.983 1385.29 145.818C1385.29 144.668 1385.11 143.631 1384.75 142.707C1384.41 141.777 1383.88 141.042 1383.17 140.502C1382.46 139.955 1381.58 139.682 1380.51 139.682C1379.49 139.682 1378.63 139.941 1377.94 140.46C1377.24 140.971 1376.72 141.688 1376.36 142.612C1376 143.528 1375.83 144.597 1375.83 145.818ZM1391.59 154V152.082L1398.8 144.199C1399.64 143.276 1400.34 142.473 1400.88 141.791C1401.43 141.102 1401.84 140.456 1402.1 139.852C1402.37 139.241 1402.5 138.602 1402.5 137.935C1402.5 137.168 1402.32 136.504 1401.95 135.942C1401.59 135.381 1401.09 134.948 1400.46 134.643C1399.83 134.337 1399.12 134.185 1398.33 134.185C1397.49 134.185 1396.76 134.359 1396.13 134.707C1395.51 135.048 1395.04 135.527 1394.69 136.145C1394.36 136.763 1394.19 137.487 1394.19 138.318H1391.68C1391.68 137.04 1391.97 135.918 1392.56 134.952C1393.15 133.986 1393.96 133.233 1394.97 132.693C1395.99 132.153 1397.14 131.884 1398.41 131.884C1399.69 131.884 1400.82 132.153 1401.81 132.693C1402.8 133.233 1403.57 133.961 1404.13 134.877C1404.69 135.793 1404.98 136.812 1404.98 137.935C1404.98 138.737 1404.83 139.522 1404.54 140.289C1404.25 141.049 1403.76 141.898 1403.05 142.835C1402.34 143.766 1401.37 144.902 1400.12 146.244L1395.22 151.486V151.656H1405.36V154H1391.59Z" fill="black"/>
<path d="M577 142L567 136.226V147.774L577 142ZM384 142V143H568V142V141H384V142Z" fill="#090D13"/>
<path d="M1164 142L1154 136.226V147.774L1164 142ZM971 142V143H1155V142V141H971V142Z" fill="#090D13"/>
</svg>
