<svg width="1475" height="790" viewBox="0 0 1475 790" fill="none" xmlns="http://www.w3.org/2000/svg">
<path d="M820.963 464V449.455H825.877C827.018 449.455 827.951 449.661 828.676 450.072C829.405 450.48 829.945 451.031 830.295 451.727C830.645 452.423 830.82 453.2 830.82 454.057C830.82 454.914 830.645 455.693 830.295 456.393C829.949 457.094 829.414 457.653 828.69 458.07C827.965 458.482 827.037 458.688 825.906 458.688H822.383V457.125H825.849C826.63 457.125 827.258 456.99 827.731 456.72C828.204 456.45 828.548 456.086 828.761 455.626C828.979 455.162 829.088 454.639 829.088 454.057C829.088 453.474 828.979 452.954 828.761 452.494C828.548 452.035 828.202 451.675 827.724 451.415C827.246 451.15 826.611 451.017 825.82 451.017H822.724V464H820.963ZM837.887 464.227C836.836 464.227 835.929 463.995 835.167 463.531C834.41 463.062 833.825 462.409 833.413 461.571C833.006 460.728 832.802 459.748 832.802 458.631C832.802 457.513 833.006 456.528 833.413 455.676C833.825 454.819 834.398 454.152 835.132 453.673C835.87 453.19 836.732 452.949 837.717 452.949C838.285 452.949 838.846 453.044 839.4 453.233C839.954 453.422 840.458 453.73 840.913 454.156C841.367 454.578 841.73 455.136 841.999 455.832C842.269 456.528 842.404 457.385 842.404 458.403V459.114H833.995V457.665H840.7C840.7 457.049 840.577 456.5 840.33 456.017C840.089 455.534 839.743 455.153 839.294 454.874C838.848 454.594 838.323 454.455 837.717 454.455C837.049 454.455 836.472 454.62 835.984 454.952C835.501 455.278 835.129 455.705 834.869 456.23C834.608 456.756 834.478 457.319 834.478 457.92V458.886C834.478 459.71 834.62 460.409 834.904 460.982C835.193 461.55 835.593 461.983 836.105 462.281C836.616 462.575 837.21 462.722 837.887 462.722C838.328 462.722 838.725 462.66 839.08 462.537C839.44 462.409 839.75 462.22 840.011 461.969C840.271 461.713 840.472 461.396 840.615 461.017L842.234 461.472C842.063 462.021 841.777 462.504 841.374 462.92C840.972 463.332 840.475 463.654 839.883 463.886C839.291 464.114 838.626 464.227 837.887 464.227ZM844.954 464V453.091H846.573V454.739H846.687C846.886 454.199 847.246 453.761 847.767 453.425C848.287 453.089 848.874 452.92 849.528 452.92C849.651 452.92 849.805 452.923 849.99 452.928C850.174 452.932 850.314 452.939 850.409 452.949V454.653C850.352 454.639 850.222 454.618 850.018 454.589C849.819 454.556 849.608 454.54 849.386 454.54C848.856 454.54 848.382 454.651 847.965 454.874C847.553 455.091 847.227 455.394 846.985 455.783C846.749 456.166 846.63 456.604 846.63 457.097V464H844.954ZM857.845 456.983V458.545H851.481V456.983H857.845ZM860.794 464V453.091H862.413V454.739H862.527C862.726 454.199 863.086 453.761 863.606 453.425C864.127 453.089 864.714 452.92 865.368 452.92C865.491 452.92 865.645 452.923 865.829 452.928C866.014 452.932 866.154 452.939 866.248 452.949V454.653C866.192 454.639 866.061 454.618 865.858 454.589C865.659 454.556 865.448 454.54 865.226 454.54C864.695 454.54 864.222 454.651 863.805 454.874C863.393 455.091 863.067 455.394 862.825 455.783C862.588 456.166 862.47 456.604 862.47 457.097V464H860.794ZM872.477 464.227C871.426 464.227 870.519 463.995 869.757 463.531C868.999 463.062 868.415 462.409 868.003 461.571C867.595 460.728 867.392 459.748 867.392 458.631C867.392 457.513 867.595 456.528 868.003 455.676C868.415 454.819 868.988 454.152 869.721 453.673C870.46 453.19 871.322 452.949 872.307 452.949C872.875 452.949 873.436 453.044 873.99 453.233C874.544 453.422 875.048 453.73 875.503 454.156C875.957 454.578 876.319 455.136 876.589 455.832C876.859 456.528 876.994 457.385 876.994 458.403V459.114H868.585V457.665H875.29C875.29 457.049 875.166 456.5 874.92 456.017C874.679 455.534 874.333 455.153 873.883 454.874C873.438 454.594 872.913 454.455 872.307 454.455C871.639 454.455 871.061 454.62 870.574 454.952C870.091 455.278 869.719 455.705 869.459 456.23C869.198 456.756 869.068 457.319 869.068 457.92V458.886C869.068 459.71 869.21 460.409 869.494 460.982C869.783 461.55 870.183 461.983 870.694 462.281C871.206 462.575 871.8 462.722 872.477 462.722C872.917 462.722 873.315 462.66 873.67 462.537C874.03 462.409 874.34 462.22 874.601 461.969C874.861 461.713 875.062 461.396 875.204 461.017L876.824 461.472C876.653 462.021 876.367 462.504 875.964 462.92C875.562 463.332 875.065 463.654 874.473 463.886C873.881 464.114 873.216 464.227 872.477 464.227ZM886.987 468.091V462.324H886.845C886.722 462.523 886.547 462.774 886.319 463.077C886.092 463.375 885.768 463.643 885.346 463.879C884.925 464.111 884.364 464.227 883.663 464.227C882.754 464.227 881.952 463.998 881.256 463.538C880.559 463.074 880.015 462.421 879.622 461.578C879.229 460.731 879.032 459.729 879.032 458.574C879.032 457.428 879.229 456.434 879.622 455.591C880.015 454.748 880.562 454.097 881.263 453.638C881.963 453.179 882.773 452.949 883.692 452.949C884.402 452.949 884.963 453.067 885.375 453.304C885.791 453.536 886.109 453.801 886.327 454.099C886.549 454.393 886.722 454.634 886.845 454.824H887.044V453.091H888.663V468.091H886.987ZM883.89 462.722C884.563 462.722 885.131 462.546 885.595 462.196C886.059 461.841 886.412 461.351 886.653 460.726C886.895 460.096 887.015 459.369 887.015 458.545C887.015 457.731 886.897 457.018 886.66 456.408C886.424 455.792 886.073 455.314 885.609 454.973C885.145 454.627 884.572 454.455 883.89 454.455C883.18 454.455 882.588 454.637 882.115 455.001C881.646 455.361 881.293 455.851 881.057 456.472C880.825 457.087 880.709 457.778 880.709 458.545C880.709 459.322 880.827 460.027 881.064 460.662C881.305 461.292 881.66 461.794 882.129 462.168C882.603 462.537 883.19 462.722 883.89 462.722ZM898.606 459.54V453.091H900.282V464H898.606V462.153H898.493C898.237 462.707 897.839 463.179 897.3 463.567C896.76 463.95 896.078 464.142 895.254 464.142C894.572 464.142 893.966 463.993 893.436 463.695C892.906 463.392 892.489 462.937 892.186 462.331C891.883 461.72 891.731 460.951 891.731 460.023V453.091H893.407V459.909C893.407 460.705 893.63 461.339 894.075 461.812C894.525 462.286 895.098 462.523 895.794 462.523C896.211 462.523 896.634 462.416 897.065 462.203C897.501 461.99 897.865 461.663 898.159 461.223C898.457 460.783 898.606 460.222 898.606 459.54ZM907.926 464.227C906.875 464.227 905.968 463.995 905.206 463.531C904.449 463.062 903.864 462.409 903.452 461.571C903.045 460.728 902.841 459.748 902.841 458.631C902.841 457.513 903.045 456.528 903.452 455.676C903.864 454.819 904.437 454.152 905.171 453.673C905.909 453.19 906.771 452.949 907.756 452.949C908.324 452.949 908.885 453.044 909.439 453.233C909.993 453.422 910.497 453.73 910.952 454.156C911.406 454.578 911.769 455.136 912.039 455.832C912.308 456.528 912.443 457.385 912.443 458.403V459.114H904.034V457.665H910.739C910.739 457.049 910.616 456.5 910.369 456.017C910.128 455.534 909.782 455.153 909.333 454.874C908.887 454.594 908.362 454.455 907.756 454.455C907.088 454.455 906.511 454.62 906.023 454.952C905.54 455.278 905.168 455.705 904.908 456.23C904.647 456.756 904.517 457.319 904.517 457.92V458.886C904.517 459.71 904.659 460.409 904.943 460.982C905.232 461.55 905.632 461.983 906.144 462.281C906.655 462.575 907.249 462.722 907.926 462.722C908.367 462.722 908.764 462.66 909.119 462.537C909.479 462.409 909.789 462.22 910.05 461.969C910.31 461.713 910.512 461.396 910.654 461.017L912.273 461.472C912.102 462.021 911.816 462.504 911.414 462.92C911.011 463.332 910.514 463.654 909.922 463.886C909.33 464.114 908.665 464.227 907.926 464.227ZM922.72 455.534L921.215 455.96C921.12 455.709 920.98 455.465 920.796 455.229C920.616 454.987 920.369 454.788 920.057 454.632C919.744 454.476 919.344 454.398 918.857 454.398C918.189 454.398 917.633 454.552 917.188 454.859C916.747 455.162 916.527 455.548 916.527 456.017C916.527 456.434 916.679 456.763 916.982 457.004C917.285 457.246 917.758 457.447 918.402 457.608L920.021 458.006C920.997 458.242 921.724 458.605 922.202 459.092C922.68 459.575 922.919 460.198 922.919 460.96C922.919 461.585 922.739 462.144 922.379 462.636C922.024 463.129 921.527 463.517 920.888 463.801C920.249 464.085 919.505 464.227 918.658 464.227C917.545 464.227 916.624 463.986 915.895 463.503C915.166 463.02 914.704 462.314 914.51 461.386L916.101 460.989C916.253 461.576 916.539 462.016 916.96 462.31C917.387 462.603 917.943 462.75 918.629 462.75C919.411 462.75 920.031 462.584 920.49 462.253C920.954 461.917 921.186 461.514 921.186 461.045C921.186 460.667 921.054 460.349 920.789 460.094C920.523 459.833 920.116 459.639 919.567 459.511L917.749 459.085C916.75 458.848 916.016 458.482 915.547 457.984C915.083 457.482 914.851 456.855 914.851 456.102C914.851 455.487 915.024 454.942 915.369 454.469C915.72 453.995 916.196 453.624 916.797 453.354C917.403 453.084 918.09 452.949 918.857 452.949C919.936 452.949 920.784 453.186 921.399 453.659C922.02 454.133 922.46 454.758 922.72 455.534ZM930.187 453.091V454.511H924.533V453.091H930.187ZM926.181 450.477H927.857V460.875C927.857 461.348 927.926 461.704 928.063 461.94C928.205 462.172 928.385 462.329 928.603 462.409C928.825 462.485 929.06 462.523 929.306 462.523C929.491 462.523 929.642 462.513 929.76 462.494C929.879 462.471 929.974 462.452 930.045 462.438L930.385 463.943C930.272 463.986 930.113 464.028 929.91 464.071C929.706 464.118 929.448 464.142 929.135 464.142C928.662 464.142 928.198 464.04 927.743 463.837C927.294 463.633 926.92 463.323 926.621 462.906C926.328 462.49 926.181 461.964 926.181 461.33V450.477ZM939.157 464H937.31L942.651 449.455H944.469L949.81 464H947.964L943.617 451.756H943.503L939.157 464ZM939.839 458.318H947.282V459.881H939.839V458.318ZM952.076 464V449.455H956.991C958.132 449.455 959.064 449.661 959.789 450.072C960.518 450.48 961.058 451.031 961.408 451.727C961.759 452.423 961.934 453.2 961.934 454.057C961.934 454.914 961.759 455.693 961.408 456.393C961.063 457.094 960.528 457.653 959.803 458.07C959.079 458.482 958.151 458.688 957.019 458.688H953.496V457.125H956.962C957.743 457.125 958.371 456.99 958.844 456.72C959.318 456.45 959.661 456.086 959.874 455.626C960.092 455.162 960.201 454.639 960.201 454.057C960.201 453.474 960.092 452.954 959.874 452.494C959.661 452.035 959.315 451.675 958.837 451.415C958.359 451.15 957.724 451.017 956.934 451.017H953.837V464H952.076ZM966.532 449.455V464H964.771V449.455H966.532ZM977.024 460.023L976.996 457.949H977.337L982.11 453.091H984.183L979.098 458.233H978.956L977.024 460.023ZM975.462 464V449.455H977.138V464H975.462ZM982.394 464L978.132 458.602L979.325 457.438L984.524 464H982.394ZM990.465 464.227C989.414 464.227 988.508 463.995 987.745 463.531C986.988 463.062 986.403 462.409 985.991 461.571C985.584 460.728 985.38 459.748 985.38 458.631C985.38 457.513 985.584 456.528 985.991 455.676C986.403 454.819 986.976 454.152 987.71 453.673C988.448 453.19 989.31 452.949 990.295 452.949C990.863 452.949 991.424 453.044 991.978 453.233C992.532 453.422 993.036 453.73 993.491 454.156C993.945 454.578 994.308 455.136 994.578 455.832C994.847 456.528 994.982 457.385 994.982 458.403V459.114H986.573V457.665H993.278C993.278 457.049 993.155 456.5 992.909 456.017C992.667 455.534 992.321 455.153 991.872 454.874C991.427 454.594 990.901 454.455 990.295 454.455C989.627 454.455 989.05 454.62 988.562 454.952C988.079 455.278 987.707 455.705 987.447 456.23C987.186 456.756 987.056 457.319 987.056 457.92V458.886C987.056 459.71 987.198 460.409 987.482 460.982C987.771 461.55 988.171 461.983 988.683 462.281C989.194 462.575 989.788 462.722 990.465 462.722C990.906 462.722 991.303 462.66 991.659 462.537C992.018 462.409 992.329 462.22 992.589 461.969C992.849 461.713 993.051 461.396 993.193 461.017L994.812 461.472C994.642 462.021 994.355 462.504 993.953 462.92C993.55 463.332 993.053 463.654 992.461 463.886C991.869 464.114 991.204 464.227 990.465 464.227ZM998.28 468.091C997.996 468.091 997.742 468.067 997.52 468.02C997.297 467.977 997.143 467.935 997.058 467.892L997.484 466.415C997.891 466.519 998.251 466.557 998.564 466.528C998.876 466.5 999.153 466.36 999.395 466.109C999.641 465.863 999.866 465.463 1000.07 464.909L1000.38 464.057L996.348 453.091H998.166L1001.18 461.784H1001.29L1004.3 453.091H1006.12L1001.49 465.591C1001.28 466.154 1001.02 466.621 1000.72 466.99C1000.41 467.364 1000.05 467.641 999.643 467.821C999.241 468.001 998.786 468.091 998.28 468.091Z" fill="black"/>
<path d="M802.994 524L799.67 513.091H801.431L803.789 521.443H803.903L806.233 513.091H808.022L810.324 521.415H810.437L812.795 513.091H814.556L811.233 524H809.585L807.199 515.619H807.028L804.642 524H802.994ZM816.772 524V513.091H818.449V524H816.772ZM817.625 511.273C817.298 511.273 817.016 511.161 816.779 510.939C816.547 510.716 816.431 510.449 816.431 510.136C816.431 509.824 816.547 509.556 816.779 509.334C817.016 509.111 817.298 509 817.625 509C817.951 509 818.231 509.111 818.463 509.334C818.699 509.556 818.818 509.824 818.818 510.136C818.818 510.449 818.699 510.716 818.463 510.939C818.231 511.161 817.951 511.273 817.625 511.273ZM826.263 513.091V514.511H820.609V513.091H826.263ZM822.257 510.477H823.933V520.875C823.933 521.348 824.002 521.704 824.139 521.94C824.281 522.172 824.461 522.329 824.679 522.409C824.902 522.485 825.136 522.523 825.382 522.523C825.567 522.523 825.718 522.513 825.837 522.494C825.955 522.471 826.05 522.452 826.121 522.438L826.462 523.943C826.348 523.986 826.189 524.028 825.986 524.071C825.782 524.118 825.524 524.142 825.212 524.142C824.738 524.142 824.274 524.04 823.82 523.837C823.37 523.633 822.996 523.323 822.697 522.906C822.404 522.49 822.257 521.964 822.257 521.33V510.477ZM830.695 517.438V524H829.018V509.455H830.695V514.795H830.837C831.092 514.232 831.476 513.785 831.987 513.453C832.503 513.117 833.19 512.949 834.047 512.949C834.79 512.949 835.441 513.098 836 513.396C836.559 513.69 836.992 514.142 837.3 514.753C837.612 515.359 837.768 516.131 837.768 517.068V524H836.092V517.182C836.092 516.315 835.867 515.645 835.418 515.172C834.973 514.694 834.355 514.455 833.564 514.455C833.015 514.455 832.522 514.571 832.087 514.803C831.656 515.035 831.315 515.373 831.064 515.818C830.818 516.263 830.695 516.803 830.695 517.438ZM849.67 524.256C848.979 524.256 848.351 524.125 847.788 523.865C847.225 523.6 846.777 523.219 846.446 522.722C846.114 522.22 845.949 521.614 845.949 520.903C845.949 520.278 846.072 519.772 846.318 519.384C846.564 518.991 846.893 518.683 847.305 518.46C847.717 518.238 848.172 518.072 848.669 517.963C849.171 517.849 849.675 517.759 850.181 517.693C850.844 517.608 851.382 517.544 851.794 517.501C852.21 517.454 852.513 517.376 852.703 517.267C852.897 517.158 852.994 516.969 852.994 516.699V516.642C852.994 515.941 852.802 515.397 852.419 515.009C852.04 514.62 851.465 514.426 850.693 514.426C849.893 514.426 849.265 514.601 848.811 514.952C848.356 515.302 848.037 515.676 847.852 516.074L846.261 515.506C846.545 514.843 846.924 514.327 847.397 513.957C847.876 513.583 848.396 513.323 848.96 513.176C849.528 513.025 850.087 512.949 850.636 512.949C850.986 512.949 851.389 512.991 851.843 513.077C852.303 513.157 852.745 513.325 853.172 513.581C853.602 513.837 853.96 514.223 854.244 514.739C854.528 515.255 854.67 515.946 854.67 516.812V524H852.994V522.523H852.909C852.795 522.759 852.606 523.013 852.341 523.283C852.075 523.553 851.723 523.782 851.282 523.972C850.842 524.161 850.305 524.256 849.67 524.256ZM849.926 522.75C850.589 522.75 851.147 522.62 851.602 522.359C852.061 522.099 852.407 521.763 852.639 521.351C852.876 520.939 852.994 520.506 852.994 520.051V518.517C852.923 518.602 852.767 518.68 852.525 518.751C852.288 518.818 852.014 518.877 851.701 518.929C851.394 518.976 851.093 519.019 850.799 519.057C850.511 519.09 850.276 519.118 850.096 519.142C849.661 519.199 849.253 519.291 848.875 519.419C848.501 519.542 848.198 519.729 847.966 519.98C847.738 520.226 847.625 520.562 847.625 520.989C847.625 521.571 847.84 522.011 848.271 522.31C848.707 522.603 849.258 522.75 849.926 522.75ZM862.161 524.227C861.138 524.227 860.258 523.986 859.519 523.503C858.781 523.02 858.212 522.355 857.815 521.507C857.417 520.66 857.218 519.691 857.218 518.602C857.218 517.494 857.422 516.517 857.829 515.669C858.241 514.817 858.814 514.152 859.548 513.673C860.286 513.19 861.148 512.949 862.133 512.949C862.9 512.949 863.591 513.091 864.207 513.375C864.822 513.659 865.326 514.057 865.719 514.568C866.112 515.08 866.356 515.676 866.451 516.358H864.775C864.647 515.861 864.363 515.42 863.923 515.037C863.487 514.649 862.9 514.455 862.161 514.455C861.508 514.455 860.935 514.625 860.442 514.966C859.955 515.302 859.574 515.778 859.299 516.393C859.029 517.004 858.894 517.722 858.894 518.545C858.894 519.388 859.027 520.122 859.292 520.747C859.562 521.372 859.941 521.857 860.428 522.203C860.921 522.549 861.498 522.722 862.161 522.722C862.597 522.722 862.992 522.646 863.347 522.494C863.702 522.343 864.003 522.125 864.249 521.841C864.496 521.557 864.671 521.216 864.775 520.818H866.451C866.356 521.462 866.122 522.042 865.748 522.558C865.379 523.07 864.888 523.477 864.278 523.78C863.672 524.078 862.966 524.227 862.161 524.227ZM873.333 524.227C872.31 524.227 871.43 523.986 870.691 523.503C869.952 523.02 869.384 522.355 868.987 521.507C868.589 520.66 868.39 519.691 868.39 518.602C868.39 517.494 868.594 516.517 869.001 515.669C869.413 514.817 869.986 514.152 870.719 513.673C871.458 513.19 872.32 512.949 873.305 512.949C874.072 512.949 874.763 513.091 875.379 513.375C875.994 513.659 876.498 514.057 876.891 514.568C877.284 515.08 877.528 515.676 877.623 516.358H875.947C875.819 515.861 875.535 515.42 875.094 515.037C874.659 514.649 874.072 514.455 873.333 514.455C872.68 514.455 872.107 514.625 871.614 514.966C871.127 515.302 870.746 515.778 870.471 516.393C870.201 517.004 870.066 517.722 870.066 518.545C870.066 519.388 870.199 520.122 870.464 520.747C870.734 521.372 871.112 521.857 871.6 522.203C872.093 522.549 872.67 522.722 873.333 522.722C873.769 522.722 874.164 522.646 874.519 522.494C874.874 522.343 875.175 522.125 875.421 521.841C875.667 521.557 875.843 521.216 875.947 520.818H877.623C877.528 521.462 877.294 522.042 876.92 522.558C876.55 523.07 876.06 523.477 875.45 523.78C874.844 524.078 874.138 524.227 873.333 524.227ZM884.647 524.227C883.596 524.227 882.689 523.995 881.927 523.531C881.169 523.062 880.585 522.409 880.173 521.571C879.765 520.728 879.562 519.748 879.562 518.631C879.562 517.513 879.765 516.528 880.173 515.676C880.585 514.819 881.157 514.152 881.891 513.673C882.63 513.19 883.492 512.949 884.477 512.949C885.045 512.949 885.606 513.044 886.16 513.233C886.714 513.422 887.218 513.73 887.673 514.156C888.127 514.578 888.489 515.136 888.759 515.832C889.029 516.528 889.164 517.385 889.164 518.403V519.114H880.755V517.665H887.46C887.46 517.049 887.336 516.5 887.09 516.017C886.849 515.534 886.503 515.153 886.053 514.874C885.608 514.594 885.083 514.455 884.477 514.455C883.809 514.455 883.231 514.62 882.744 514.952C882.261 515.278 881.889 515.705 881.629 516.23C881.368 516.756 881.238 517.319 881.238 517.92V518.886C881.238 519.71 881.38 520.409 881.664 520.982C881.953 521.55 882.353 521.983 882.864 522.281C883.376 522.575 883.97 522.722 884.647 522.722C885.087 522.722 885.485 522.66 885.84 522.537C886.2 522.409 886.51 522.22 886.771 521.969C887.031 521.713 887.232 521.396 887.374 521.017L888.994 521.472C888.823 522.021 888.537 522.504 888.134 522.92C887.732 523.332 887.235 523.654 886.643 523.886C886.051 524.114 885.386 524.227 884.647 524.227ZM899.441 515.534L897.935 515.96C897.841 515.709 897.701 515.465 897.516 515.229C897.336 514.987 897.09 514.788 896.778 514.632C896.465 514.476 896.065 514.398 895.577 514.398C894.91 514.398 894.353 514.552 893.908 514.859C893.468 515.162 893.248 515.548 893.248 516.017C893.248 516.434 893.399 516.763 893.702 517.004C894.005 517.246 894.479 517.447 895.123 517.608L896.742 518.006C897.718 518.242 898.444 518.605 898.923 519.092C899.401 519.575 899.64 520.198 899.64 520.96C899.64 521.585 899.46 522.144 899.1 522.636C898.745 523.129 898.248 523.517 897.609 523.801C896.969 524.085 896.226 524.227 895.379 524.227C894.266 524.227 893.345 523.986 892.616 523.503C891.887 523.02 891.425 522.314 891.231 521.386L892.822 520.989C892.973 521.576 893.26 522.016 893.681 522.31C894.107 522.603 894.664 522.75 895.35 522.75C896.131 522.75 896.752 522.584 897.211 522.253C897.675 521.917 897.907 521.514 897.907 521.045C897.907 520.667 897.774 520.349 897.509 520.094C897.244 519.833 896.837 519.639 896.288 519.511L894.469 519.085C893.47 518.848 892.737 518.482 892.268 517.984C891.804 517.482 891.572 516.855 891.572 516.102C891.572 515.487 891.745 514.942 892.09 514.469C892.441 513.995 892.916 513.624 893.518 513.354C894.124 513.084 894.81 512.949 895.577 512.949C896.657 512.949 897.504 513.186 898.12 513.659C898.74 514.133 899.181 514.758 899.441 515.534ZM909.89 515.534L908.385 515.96C908.29 515.709 908.15 515.465 907.966 515.229C907.786 514.987 907.539 514.788 907.227 514.632C906.914 514.476 906.514 514.398 906.027 514.398C905.359 514.398 904.803 514.552 904.358 514.859C903.917 515.162 903.697 515.548 903.697 516.017C903.697 516.434 903.849 516.763 904.152 517.004C904.455 517.246 904.928 517.447 905.572 517.608L907.191 518.006C908.167 518.242 908.894 518.605 909.372 519.092C909.85 519.575 910.089 520.198 910.089 520.96C910.089 521.585 909.909 522.144 909.549 522.636C909.194 523.129 908.697 523.517 908.058 523.801C907.419 524.085 906.675 524.227 905.828 524.227C904.715 524.227 903.794 523.986 903.065 523.503C902.336 523.02 901.874 522.314 901.68 521.386L903.271 520.989C903.422 521.576 903.709 522.016 904.13 522.31C904.556 522.603 905.113 522.75 905.799 522.75C906.581 522.75 907.201 522.584 907.66 522.253C908.124 521.917 908.356 521.514 908.356 521.045C908.356 520.667 908.224 520.349 907.958 520.094C907.693 519.833 907.286 519.639 906.737 519.511L904.919 519.085C903.92 518.848 903.186 518.482 902.717 517.984C902.253 517.482 902.021 516.855 902.021 516.102C902.021 515.487 902.194 514.942 902.539 514.469C902.89 513.995 903.366 513.624 903.967 513.354C904.573 513.084 905.26 512.949 906.027 512.949C907.106 512.949 907.954 513.186 908.569 513.659C909.19 514.133 909.63 514.758 909.89 515.534ZM922.982 513.091V514.511H917.328V513.091H922.982ZM918.976 510.477H920.652V520.875C920.652 521.348 920.721 521.704 920.858 521.94C921 522.172 921.18 522.329 921.398 522.409C921.62 522.485 921.855 522.523 922.101 522.523C922.286 522.523 922.437 522.513 922.555 522.494C922.674 522.471 922.768 522.452 922.839 522.438L923.18 523.943C923.067 523.986 922.908 524.028 922.705 524.071C922.501 524.118 922.243 524.142 921.93 524.142C921.457 524.142 920.993 524.04 920.538 523.837C920.089 523.633 919.714 523.323 919.416 522.906C919.123 522.49 918.976 521.964 918.976 521.33V510.477ZM929.817 524.227C928.833 524.227 927.969 523.993 927.225 523.524C926.487 523.055 925.909 522.4 925.492 521.557C925.08 520.714 924.874 519.729 924.874 518.602C924.874 517.466 925.08 516.474 925.492 515.626C925.909 514.779 926.487 514.121 927.225 513.652C927.969 513.183 928.833 512.949 929.817 512.949C930.802 512.949 931.664 513.183 932.403 513.652C933.146 514.121 933.724 514.779 934.136 515.626C934.552 516.474 934.761 517.466 934.761 518.602C934.761 519.729 934.552 520.714 934.136 521.557C933.724 522.4 933.146 523.055 932.403 523.524C931.664 523.993 930.802 524.227 929.817 524.227ZM929.817 522.722C930.566 522.722 931.181 522.53 931.664 522.146C932.147 521.763 932.504 521.259 932.737 520.634C932.969 520.009 933.085 519.331 933.085 518.602C933.085 517.873 932.969 517.194 932.737 516.564C932.504 515.934 932.147 515.425 931.664 515.037C931.181 514.649 930.566 514.455 929.817 514.455C929.069 514.455 928.454 514.649 927.971 515.037C927.488 515.425 927.13 515.934 926.898 516.564C926.666 517.194 926.55 517.873 926.55 518.602C926.55 519.331 926.666 520.009 926.898 520.634C927.13 521.259 927.488 521.763 927.971 522.146C928.454 522.53 929.069 522.722 929.817 522.722ZM943.768 524H941.922L947.262 509.455H949.081L954.422 524H952.575L948.228 511.756H948.115L943.768 524ZM944.45 518.318H951.893V519.881H944.45V518.318ZM956.46 528.091V513.091H958.079V514.824H958.278C958.401 514.634 958.572 514.393 958.789 514.099C959.012 513.801 959.329 513.536 959.741 513.304C960.158 513.067 960.721 512.949 961.431 512.949C962.35 512.949 963.16 513.179 963.86 513.638C964.561 514.097 965.108 514.748 965.501 515.591C965.894 516.434 966.091 517.428 966.091 518.574C966.091 519.729 965.894 520.731 965.501 521.578C965.108 522.421 964.564 523.074 963.868 523.538C963.172 523.998 962.369 524.227 961.46 524.227C960.759 524.227 960.198 524.111 959.777 523.879C959.355 523.643 959.031 523.375 958.804 523.077C958.576 522.774 958.401 522.523 958.278 522.324H958.136V528.091H956.46ZM958.108 518.545C958.108 519.369 958.228 520.096 958.47 520.726C958.711 521.351 959.064 521.841 959.528 522.196C959.992 522.546 960.56 522.722 961.233 522.722C961.933 522.722 962.518 522.537 962.987 522.168C963.46 521.794 963.815 521.292 964.052 520.662C964.294 520.027 964.414 519.322 964.414 518.545C964.414 517.778 964.296 517.087 964.059 516.472C963.827 515.851 963.475 515.361 963.001 515.001C962.532 514.637 961.943 514.455 961.233 514.455C960.551 514.455 959.978 514.627 959.514 514.973C959.05 515.314 958.699 515.792 958.463 516.408C958.226 517.018 958.108 517.731 958.108 518.545ZM968.647 528.091V513.091H970.267V514.824H970.466C970.589 514.634 970.759 514.393 970.977 514.099C971.199 513.801 971.517 513.536 971.929 513.304C972.345 513.067 972.909 512.949 973.619 512.949C974.538 512.949 975.347 513.179 976.048 513.638C976.749 514.097 977.296 514.748 977.689 515.591C978.082 516.434 978.278 517.428 978.278 518.574C978.278 519.729 978.082 520.731 977.689 521.578C977.296 522.421 976.751 523.074 976.055 523.538C975.359 523.998 974.556 524.227 973.647 524.227C972.947 524.227 972.386 524.111 971.964 523.879C971.543 523.643 971.218 523.375 970.991 523.077C970.764 522.774 970.589 522.523 970.466 522.324H970.324V528.091H968.647ZM970.295 518.545C970.295 519.369 970.416 520.096 970.657 520.726C970.899 521.351 971.252 521.841 971.716 522.196C972.18 522.546 972.748 522.722 973.42 522.722C974.121 522.722 974.706 522.537 975.174 522.168C975.648 521.794 976.003 521.292 976.24 520.662C976.481 520.027 976.602 519.322 976.602 518.545C976.602 517.778 976.484 517.087 976.247 516.472C976.015 515.851 975.662 515.361 975.189 515.001C974.72 514.637 974.13 514.455 973.42 514.455C972.738 514.455 972.165 514.627 971.701 514.973C971.237 515.314 970.887 515.792 970.65 516.408C970.413 517.018 970.295 517.731 970.295 518.545ZM985.92 509.455V524H984.159V511.301H984.074L980.522 513.659V511.869L984.159 509.455H985.92ZM1000.61 513.091V514.511H994.734V513.091H1000.61ZM996.495 524V511.585C996.495 510.96 996.642 510.439 996.936 510.023C997.229 509.606 997.61 509.294 998.079 509.085C998.548 508.877 999.043 508.773 999.564 508.773C999.975 508.773 1000.31 508.806 1000.57 508.872C1000.83 508.938 1001.03 509 1001.15 509.057L1000.67 510.506C1000.59 510.477 1000.47 510.442 1000.32 510.399C1000.17 510.357 999.975 510.335 999.734 510.335C999.18 510.335 998.78 510.475 998.534 510.754C998.292 511.034 998.172 511.443 998.172 511.983V524H996.495ZM1002.96 524V513.091H1004.64V524H1002.96ZM1003.82 511.273C1003.49 511.273 1003.21 511.161 1002.97 510.939C1002.74 510.716 1002.62 510.449 1002.62 510.136C1002.62 509.824 1002.74 509.556 1002.97 509.334C1003.21 509.111 1003.49 509 1003.82 509C1004.14 509 1004.42 509.111 1004.65 509.334C1004.89 509.556 1005.01 509.824 1005.01 510.136C1005.01 510.449 1004.89 510.716 1004.65 510.939C1004.42 511.161 1004.14 511.273 1003.82 511.273ZM1009.39 509.455V524H1007.71V509.455H1009.39ZM1017.03 524.227C1015.98 524.227 1015.07 523.995 1014.31 523.531C1013.55 523.062 1012.97 522.409 1012.56 521.571C1012.15 520.728 1011.94 519.748 1011.94 518.631C1011.94 517.513 1012.15 516.528 1012.56 515.676C1012.97 514.819 1013.54 514.152 1014.27 513.673C1015.01 513.19 1015.87 512.949 1016.86 512.949C1017.43 512.949 1017.99 513.044 1018.54 513.233C1019.1 513.422 1019.6 513.73 1020.06 514.156C1020.51 514.578 1020.87 515.136 1021.14 515.832C1021.41 516.528 1021.55 517.385 1021.55 518.403V519.114H1013.14V517.665H1019.84C1019.84 517.049 1019.72 516.5 1019.47 516.017C1019.23 515.534 1018.89 515.153 1018.44 514.874C1017.99 514.594 1017.47 514.455 1016.86 514.455C1016.19 514.455 1015.61 514.62 1015.13 514.952C1014.64 515.278 1014.27 515.705 1014.01 516.23C1013.75 516.756 1013.62 517.319 1013.62 517.92V518.886C1013.62 519.71 1013.76 520.409 1014.05 520.982C1014.34 521.55 1014.74 521.983 1015.25 522.281C1015.76 522.575 1016.35 522.722 1017.03 522.722C1017.47 522.722 1017.87 522.66 1018.22 522.537C1018.58 522.409 1018.89 522.22 1019.15 521.969C1019.41 521.713 1019.62 521.396 1019.76 521.017L1021.38 521.472C1021.21 522.021 1020.92 522.504 1020.52 522.92C1020.11 523.332 1019.62 523.654 1019.03 523.886C1018.43 524.114 1017.77 524.227 1017.03 524.227ZM1031.82 515.534L1030.32 515.96C1030.22 515.709 1030.08 515.465 1029.9 515.229C1029.72 514.987 1029.47 514.788 1029.16 514.632C1028.85 514.476 1028.45 514.398 1027.96 514.398C1027.29 514.398 1026.74 514.552 1026.29 514.859C1025.85 515.162 1025.63 515.548 1025.63 516.017C1025.63 516.434 1025.78 516.763 1026.09 517.004C1026.39 517.246 1026.86 517.447 1027.51 517.608L1029.12 518.006C1030.1 518.242 1030.83 518.605 1031.31 519.092C1031.78 519.575 1032.02 520.198 1032.02 520.96C1032.02 521.585 1031.84 522.144 1031.48 522.636C1031.13 523.129 1030.63 523.517 1029.99 523.801C1029.35 524.085 1028.61 524.227 1027.76 524.227C1026.65 524.227 1025.73 523.986 1025 523.503C1024.27 523.02 1023.81 522.314 1023.61 521.386L1025.2 520.989C1025.36 521.576 1025.64 522.016 1026.06 522.31C1026.49 522.603 1027.05 522.75 1027.73 522.75C1028.51 522.75 1029.13 522.584 1029.59 522.253C1030.06 521.917 1030.29 521.514 1030.29 521.045C1030.29 520.667 1030.16 520.349 1029.89 520.094C1029.63 519.833 1029.22 519.639 1028.67 519.511L1026.85 519.085C1025.85 518.848 1025.12 518.482 1024.65 517.984C1024.19 517.482 1023.95 516.855 1023.95 516.102C1023.95 515.487 1024.13 514.942 1024.47 514.469C1024.82 513.995 1025.3 513.624 1025.9 513.354C1026.51 513.084 1027.19 512.949 1027.96 512.949C1029.04 512.949 1029.89 513.186 1030.5 513.659C1031.12 514.133 1031.56 514.758 1031.82 515.534Z" fill="black"/>
<path d="M421.964 394.455V409H420.203V394.455H421.964ZM432.996 400.534L431.49 400.96C431.395 400.709 431.256 400.465 431.071 400.229C430.891 399.987 430.645 399.788 430.332 399.632C430.02 399.476 429.62 399.398 429.132 399.398C428.464 399.398 427.908 399.552 427.463 399.859C427.023 400.162 426.803 400.548 426.803 401.017C426.803 401.434 426.954 401.763 427.257 402.004C427.56 402.246 428.034 402.447 428.678 402.608L430.297 403.006C431.272 403.242 431.999 403.605 432.477 404.092C432.955 404.575 433.195 405.198 433.195 405.96C433.195 406.585 433.015 407.144 432.655 407.636C432.3 408.129 431.803 408.517 431.163 408.801C430.524 409.085 429.781 409.227 428.933 409.227C427.821 409.227 426.9 408.986 426.17 408.503C425.441 408.02 424.98 407.314 424.786 406.386L426.376 405.989C426.528 406.576 426.814 407.016 427.236 407.31C427.662 407.603 428.218 407.75 428.905 407.75C429.686 407.75 430.306 407.584 430.766 407.253C431.23 406.917 431.462 406.514 431.462 406.045C431.462 405.667 431.329 405.349 431.064 405.094C430.799 404.833 430.392 404.639 429.842 404.511L428.024 404.085C427.025 403.848 426.291 403.482 425.822 402.984C425.358 402.482 425.126 401.855 425.126 401.102C425.126 400.487 425.299 399.942 425.645 399.469C425.995 398.995 426.471 398.624 427.072 398.354C427.679 398.084 428.365 397.949 429.132 397.949C430.212 397.949 431.059 398.186 431.675 398.659C432.295 399.133 432.735 399.758 432.996 400.534ZM443.445 400.534L441.939 400.96C441.845 400.709 441.705 400.465 441.52 400.229C441.34 399.987 441.094 399.788 440.782 399.632C440.469 399.476 440.069 399.398 439.581 399.398C438.914 399.398 438.357 399.552 437.912 399.859C437.472 400.162 437.252 400.548 437.252 401.017C437.252 401.434 437.403 401.763 437.706 402.004C438.009 402.246 438.483 402.447 439.127 402.608L440.746 403.006C441.721 403.242 442.448 403.605 442.926 404.092C443.405 404.575 443.644 405.198 443.644 405.96C443.644 406.585 443.464 407.144 443.104 407.636C442.749 408.129 442.252 408.517 441.613 408.801C440.973 409.085 440.23 409.227 439.382 409.227C438.27 409.227 437.349 408.986 436.62 408.503C435.891 408.02 435.429 407.314 435.235 406.386L436.826 405.989C436.977 406.576 437.264 407.016 437.685 407.31C438.111 407.603 438.667 407.75 439.354 407.75C440.135 407.75 440.756 407.584 441.215 407.253C441.679 406.917 441.911 406.514 441.911 406.045C441.911 405.667 441.778 405.349 441.513 405.094C441.248 404.833 440.841 404.639 440.292 404.511L438.473 404.085C437.474 403.848 436.74 403.482 436.272 402.984C435.808 402.482 435.576 401.855 435.576 401.102C435.576 400.487 435.748 399.942 436.094 399.469C436.444 398.995 436.92 398.624 437.522 398.354C438.128 398.084 438.814 397.949 439.581 397.949C440.661 397.949 441.508 398.186 442.124 398.659C442.744 399.133 443.185 399.758 443.445 400.534ZM453.042 404.54V398.091H454.718V409H453.042V407.153H452.928C452.673 407.707 452.275 408.179 451.735 408.567C451.195 408.95 450.513 409.142 449.69 409.142C449.008 409.142 448.402 408.993 447.871 408.695C447.341 408.392 446.924 407.937 446.621 407.331C446.318 406.72 446.167 405.951 446.167 405.023V398.091H447.843V404.909C447.843 405.705 448.066 406.339 448.511 406.812C448.96 407.286 449.533 407.523 450.229 407.523C450.646 407.523 451.07 407.416 451.501 407.203C451.936 406.99 452.301 406.663 452.594 406.223C452.893 405.783 453.042 405.222 453.042 404.54ZM462.362 409.227C461.311 409.227 460.404 408.995 459.642 408.531C458.884 408.062 458.299 407.409 457.887 406.571C457.48 405.728 457.277 404.748 457.277 403.631C457.277 402.513 457.48 401.528 457.887 400.676C458.299 399.819 458.872 399.152 459.606 398.673C460.345 398.19 461.207 397.949 462.191 397.949C462.76 397.949 463.321 398.044 463.875 398.233C464.429 398.422 464.933 398.73 465.387 399.156C465.842 399.578 466.204 400.136 466.474 400.832C466.744 401.528 466.879 402.385 466.879 403.403V404.114H458.47V402.665H465.174C465.174 402.049 465.051 401.5 464.805 401.017C464.564 400.534 464.218 400.153 463.768 399.874C463.323 399.594 462.797 399.455 462.191 399.455C461.524 399.455 460.946 399.62 460.458 399.952C459.975 400.278 459.604 400.705 459.343 401.23C459.083 401.756 458.953 402.319 458.953 402.92V403.886C458.953 404.71 459.095 405.409 459.379 405.982C459.668 406.55 460.068 406.983 460.579 407.281C461.091 407.575 461.685 407.722 462.362 407.722C462.802 407.722 463.2 407.66 463.555 407.537C463.915 407.409 464.225 407.22 464.485 406.969C464.746 406.713 464.947 406.396 465.089 406.017L466.708 406.472C466.538 407.021 466.252 407.504 465.849 407.92C465.447 408.332 464.949 408.654 464.358 408.886C463.766 409.114 463.1 409.227 462.362 409.227ZM478.264 409.256C477.573 409.256 476.945 409.125 476.382 408.865C475.818 408.6 475.371 408.219 475.039 407.722C474.708 407.22 474.542 406.614 474.542 405.903C474.542 405.278 474.665 404.772 474.912 404.384C475.158 403.991 475.487 403.683 475.899 403.46C476.311 403.238 476.765 403.072 477.262 402.963C477.764 402.849 478.269 402.759 478.775 402.693C479.438 402.608 479.975 402.544 480.387 402.501C480.804 402.454 481.107 402.376 481.297 402.267C481.491 402.158 481.588 401.969 481.588 401.699V401.642C481.588 400.941 481.396 400.397 481.012 400.009C480.634 399.62 480.058 399.426 479.287 399.426C478.486 399.426 477.859 399.601 477.404 399.952C476.95 400.302 476.63 400.676 476.446 401.074L474.855 400.506C475.139 399.843 475.518 399.327 475.991 398.957C476.469 398.583 476.99 398.323 477.554 398.176C478.122 398.025 478.681 397.949 479.23 397.949C479.58 397.949 479.983 397.991 480.437 398.077C480.896 398.157 481.339 398.325 481.765 398.581C482.196 398.837 482.554 399.223 482.838 399.739C483.122 400.255 483.264 400.946 483.264 401.812V409H481.588V407.523H481.502C481.389 407.759 481.199 408.013 480.934 408.283C480.669 408.553 480.316 408.782 479.876 408.972C479.436 409.161 478.898 409.256 478.264 409.256ZM478.52 407.75C479.182 407.75 479.741 407.62 480.196 407.359C480.655 407.099 481.001 406.763 481.233 406.351C481.469 405.939 481.588 405.506 481.588 405.051V403.517C481.517 403.602 481.36 403.68 481.119 403.751C480.882 403.818 480.608 403.877 480.295 403.929C479.987 403.976 479.687 404.019 479.393 404.057C479.104 404.09 478.87 404.118 478.69 404.142C478.254 404.199 477.847 404.291 477.468 404.419C477.094 404.542 476.791 404.729 476.559 404.98C476.332 405.226 476.218 405.562 476.218 405.989C476.218 406.571 476.434 407.011 476.865 407.31C477.3 407.603 477.852 407.75 478.52 407.75ZM491.948 413.091V398.091H493.567V399.824H493.766C493.889 399.634 494.06 399.393 494.278 399.099C494.5 398.801 494.817 398.536 495.229 398.304C495.646 398.067 496.21 397.949 496.92 397.949C497.838 397.949 498.648 398.179 499.349 398.638C500.049 399.097 500.596 399.748 500.989 400.591C501.382 401.434 501.579 402.428 501.579 403.574C501.579 404.729 501.382 405.731 500.989 406.578C500.596 407.421 500.052 408.074 499.356 408.538C498.66 408.998 497.857 409.227 496.948 409.227C496.247 409.227 495.686 409.111 495.265 408.879C494.844 408.643 494.519 408.375 494.292 408.077C494.065 407.774 493.889 407.523 493.766 407.324H493.624V413.091H491.948ZM493.596 403.545C493.596 404.369 493.717 405.096 493.958 405.726C494.2 406.351 494.552 406.841 495.016 407.196C495.48 407.546 496.049 407.722 496.721 407.722C497.422 407.722 498.006 407.537 498.475 407.168C498.949 406.794 499.304 406.292 499.54 405.662C499.782 405.027 499.903 404.322 499.903 403.545C499.903 402.778 499.784 402.087 499.548 401.472C499.316 400.851 498.963 400.361 498.489 400.001C498.021 399.637 497.431 399.455 496.721 399.455C496.039 399.455 495.466 399.627 495.002 399.973C494.538 400.314 494.188 400.792 493.951 401.408C493.714 402.018 493.596 402.731 493.596 403.545ZM508.71 409.227C507.658 409.227 506.752 408.995 505.989 408.531C505.232 408.062 504.647 407.409 504.235 406.571C503.828 405.728 503.624 404.748 503.624 403.631C503.624 402.513 503.828 401.528 504.235 400.676C504.647 399.819 505.22 399.152 505.954 398.673C506.692 398.19 507.554 397.949 508.539 397.949C509.107 397.949 509.668 398.044 510.222 398.233C510.776 398.422 511.281 398.73 511.735 399.156C512.19 399.578 512.552 400.136 512.822 400.832C513.092 401.528 513.227 402.385 513.227 403.403V404.114H504.817V402.665H511.522C511.522 402.049 511.399 401.5 511.153 401.017C510.911 400.534 510.566 400.153 510.116 399.874C509.671 399.594 509.145 399.455 508.539 399.455C507.871 399.455 507.294 399.62 506.806 399.952C506.323 400.278 505.951 400.705 505.691 401.23C505.431 401.756 505.3 402.319 505.3 402.92V403.886C505.3 404.71 505.442 405.409 505.727 405.982C506.015 406.55 506.415 406.983 506.927 407.281C507.438 407.575 508.032 407.722 508.71 407.722C509.15 407.722 509.548 407.66 509.903 407.537C510.263 407.409 510.573 407.22 510.833 406.969C511.094 406.713 511.295 406.396 511.437 406.017L513.056 406.472C512.886 407.021 512.599 407.504 512.197 407.92C511.794 408.332 511.297 408.654 510.705 408.886C510.113 409.114 509.448 409.227 508.71 409.227ZM515.776 409V398.091H517.396V399.739H517.509C517.708 399.199 518.068 398.761 518.589 398.425C519.11 398.089 519.697 397.92 520.35 397.92C520.473 397.92 520.627 397.923 520.812 397.928C520.996 397.932 521.136 397.939 521.231 397.949V399.653C521.174 399.639 521.044 399.618 520.84 399.589C520.641 399.556 520.431 399.54 520.208 399.54C519.678 399.54 519.204 399.651 518.788 399.874C518.376 400.091 518.049 400.394 517.808 400.783C517.571 401.166 517.452 401.604 517.452 402.097V409H515.776ZM528.667 401.983V403.545H522.303V401.983H528.667ZM531.616 409V398.091H533.235V399.739H533.349C533.548 399.199 533.908 398.761 534.429 398.425C534.949 398.089 535.537 397.92 536.19 397.92C536.313 397.92 536.467 397.923 536.652 397.928C536.836 397.932 536.976 397.939 537.071 397.949V399.653C537.014 399.639 536.884 399.618 536.68 399.589C536.481 399.556 536.27 399.54 536.048 399.54C535.518 399.54 535.044 399.651 534.627 399.874C534.216 400.091 533.889 400.394 533.647 400.783C533.411 401.166 533.292 401.604 533.292 402.097V409H531.616ZM543.299 409.227C542.248 409.227 541.342 408.995 540.579 408.531C539.822 408.062 539.237 407.409 538.825 406.571C538.418 405.728 538.214 404.748 538.214 403.631C538.214 402.513 538.418 401.528 538.825 400.676C539.237 399.819 539.81 399.152 540.544 398.673C541.282 398.19 542.144 397.949 543.129 397.949C543.697 397.949 544.258 398.044 544.812 398.233C545.366 398.422 545.87 398.73 546.325 399.156C546.779 399.578 547.142 400.136 547.412 400.832C547.681 401.528 547.816 402.385 547.816 403.403V404.114H539.407V402.665H546.112C546.112 402.049 545.989 401.5 545.743 401.017C545.501 400.534 545.155 400.153 544.706 399.874C544.261 399.594 543.735 399.455 543.129 399.455C542.461 399.455 541.884 399.62 541.396 399.952C540.913 400.278 540.541 400.705 540.281 401.23C540.02 401.756 539.89 402.319 539.89 402.92V403.886C539.89 404.71 540.032 405.409 540.316 405.982C540.605 406.55 541.005 406.983 541.517 407.281C542.028 407.575 542.622 407.722 543.299 407.722C543.74 407.722 544.137 407.66 544.493 407.537C544.852 407.409 545.163 407.22 545.423 406.969C545.683 406.713 545.885 406.396 546.027 406.017L547.646 406.472C547.475 407.021 547.189 407.504 546.787 407.92C546.384 408.332 545.887 408.654 545.295 408.886C544.703 409.114 544.038 409.227 543.299 409.227ZM557.809 413.091V407.324H557.667C557.544 407.523 557.369 407.774 557.142 408.077C556.914 408.375 556.59 408.643 556.169 408.879C555.747 409.111 555.186 409.227 554.485 409.227C553.576 409.227 552.774 408.998 552.078 408.538C551.382 408.074 550.837 407.421 550.444 406.578C550.051 405.731 549.855 404.729 549.855 403.574C549.855 402.428 550.051 401.434 550.444 400.591C550.837 399.748 551.384 399.097 552.085 398.638C552.786 398.179 553.595 397.949 554.514 397.949C555.224 397.949 555.785 398.067 556.197 398.304C556.614 398.536 556.931 398.801 557.149 399.099C557.371 399.393 557.544 399.634 557.667 399.824H557.866V398.091H559.485V413.091H557.809ZM554.713 407.722C555.385 407.722 555.953 407.546 556.417 407.196C556.881 406.841 557.234 406.351 557.475 405.726C557.717 405.096 557.838 404.369 557.838 403.545C557.838 402.731 557.719 402.018 557.483 401.408C557.246 400.792 556.895 400.314 556.431 399.973C555.967 399.627 555.395 399.455 554.713 399.455C554.002 399.455 553.411 399.637 552.937 400.001C552.468 400.361 552.116 400.851 551.879 401.472C551.647 402.087 551.531 402.778 551.531 403.545C551.531 404.322 551.649 405.027 551.886 405.662C552.127 406.292 552.483 406.794 552.951 407.168C553.425 407.537 554.012 407.722 554.713 407.722ZM569.429 404.54V398.091H571.105V409H569.429V407.153H569.315C569.059 407.707 568.662 408.179 568.122 408.567C567.582 408.95 566.9 409.142 566.076 409.142C565.395 409.142 564.788 408.993 564.258 408.695C563.728 408.392 563.311 407.937 563.008 407.331C562.705 406.72 562.554 405.951 562.554 405.023V398.091H564.23V404.909C564.23 405.705 564.452 406.339 564.897 406.812C565.347 407.286 565.92 407.523 566.616 407.523C567.033 407.523 567.457 407.416 567.887 407.203C568.323 406.99 568.688 406.663 568.981 406.223C569.279 405.783 569.429 405.222 569.429 404.54ZM578.749 409.227C577.697 409.227 576.791 408.995 576.028 408.531C575.271 408.062 574.686 407.409 574.274 406.571C573.867 405.728 573.663 404.748 573.663 403.631C573.663 402.513 573.867 401.528 574.274 400.676C574.686 399.819 575.259 399.152 575.993 398.673C576.732 398.19 577.593 397.949 578.578 397.949C579.146 397.949 579.707 398.044 580.261 398.233C580.815 398.422 581.32 398.73 581.774 399.156C582.229 399.578 582.591 400.136 582.861 400.832C583.131 401.528 583.266 402.385 583.266 403.403V404.114H574.857V402.665H581.561C581.561 402.049 581.438 401.5 581.192 401.017C580.95 400.534 580.605 400.153 580.155 399.874C579.71 399.594 579.184 399.455 578.578 399.455C577.911 399.455 577.333 399.62 576.845 399.952C576.362 400.278 575.991 400.705 575.73 401.23C575.47 401.756 575.339 402.319 575.339 402.92V403.886C575.339 404.71 575.482 405.409 575.766 405.982C576.054 406.55 576.455 406.983 576.966 407.281C577.477 407.575 578.071 407.722 578.749 407.722C579.189 407.722 579.587 407.66 579.942 407.537C580.302 407.409 580.612 407.22 580.872 406.969C581.133 406.713 581.334 406.396 581.476 406.017L583.095 406.472C582.925 407.021 582.638 407.504 582.236 407.92C581.833 408.332 581.336 408.654 580.744 408.886C580.152 409.114 579.487 409.227 578.749 409.227ZM593.543 400.534L592.037 400.96C591.942 400.709 591.803 400.465 591.618 400.229C591.438 399.987 591.192 399.788 590.879 399.632C590.567 399.476 590.167 399.398 589.679 399.398C589.011 399.398 588.455 399.552 588.01 399.859C587.57 400.162 587.349 400.548 587.349 401.017C587.349 401.434 587.501 401.763 587.804 402.004C588.107 402.246 588.58 402.447 589.224 402.608L590.844 403.006C591.819 403.242 592.546 403.605 593.024 404.092C593.502 404.575 593.741 405.198 593.741 405.96C593.741 406.585 593.562 407.144 593.202 407.636C592.847 408.129 592.349 408.517 591.71 408.801C591.071 409.085 590.328 409.227 589.48 409.227C588.367 409.227 587.446 408.986 586.717 408.503C585.988 408.02 585.527 407.314 585.332 406.386L586.923 405.989C587.075 406.576 587.361 407.016 587.783 407.31C588.209 407.603 588.765 407.75 589.452 407.75C590.233 407.75 590.853 407.584 591.312 407.253C591.777 406.917 592.009 406.514 592.009 406.045C592.009 405.667 591.876 405.349 591.611 405.094C591.346 404.833 590.938 404.639 590.389 404.511L588.571 404.085C587.572 403.848 586.838 403.482 586.369 402.984C585.905 402.482 585.673 401.855 585.673 401.102C585.673 400.487 585.846 399.942 586.192 399.469C586.542 398.995 587.018 398.624 587.619 398.354C588.225 398.084 588.912 397.949 589.679 397.949C590.759 397.949 591.606 398.186 592.222 398.659C592.842 399.133 593.282 399.758 593.543 400.534ZM601.009 398.091V399.511H595.355V398.091H601.009ZM597.003 395.477H598.679V405.875C598.679 406.348 598.748 406.704 598.885 406.94C599.027 407.172 599.207 407.329 599.425 407.409C599.648 407.485 599.882 407.523 600.128 407.523C600.313 407.523 600.464 407.513 600.583 407.494C600.701 407.471 600.796 407.452 600.867 407.438L601.208 408.943C601.094 408.986 600.935 409.028 600.732 409.071C600.528 409.118 600.27 409.142 599.958 409.142C599.484 409.142 599.02 409.04 598.566 408.837C598.116 408.633 597.742 408.323 597.444 407.906C597.15 407.49 597.003 406.964 597.003 406.33V395.477ZM609.979 409H608.132L613.473 394.455H615.292L620.632 409H618.786L614.439 396.756H614.326L609.979 409ZM610.661 403.318H618.104V404.881H610.661V403.318ZM622.898 409V394.455H627.813C628.954 394.455 629.887 394.661 630.611 395.072C631.34 395.48 631.88 396.031 632.23 396.727C632.581 397.423 632.756 398.2 632.756 399.057C632.756 399.914 632.581 400.693 632.23 401.393C631.885 402.094 631.35 402.653 630.625 403.07C629.901 403.482 628.973 403.688 627.841 403.688H624.319V402.125H627.784C628.566 402.125 629.193 401.99 629.667 401.72C630.14 401.45 630.483 401.086 630.696 400.626C630.914 400.162 631.023 399.639 631.023 399.057C631.023 398.474 630.914 397.954 630.696 397.494C630.483 397.035 630.138 396.675 629.659 396.415C629.181 396.15 628.547 396.017 627.756 396.017H624.659V409H622.898ZM637.355 394.455V409H635.593V394.455H637.355ZM647.847 405.023L647.818 402.949H648.159L652.932 398.091H655.006L649.92 403.233H649.778L647.847 405.023ZM646.284 409V394.455H647.96V409H646.284ZM653.216 409L648.955 403.602L650.148 402.438L655.347 409H653.216ZM661.288 409.227C660.237 409.227 659.33 408.995 658.567 408.531C657.81 408.062 657.225 407.409 656.813 406.571C656.406 405.728 656.202 404.748 656.202 403.631C656.202 402.513 656.406 401.528 656.813 400.676C657.225 399.819 657.798 399.152 658.532 398.673C659.271 398.19 660.132 397.949 661.117 397.949C661.685 397.949 662.246 398.044 662.8 398.233C663.354 398.422 663.859 398.73 664.313 399.156C664.768 399.578 665.13 400.136 665.4 400.832C665.67 401.528 665.805 402.385 665.805 403.403V404.114H657.396V402.665H664.1C664.1 402.049 663.977 401.5 663.731 401.017C663.489 400.534 663.144 400.153 662.694 399.874C662.249 399.594 661.723 399.455 661.117 399.455C660.45 399.455 659.872 399.62 659.384 399.952C658.901 400.278 658.53 400.705 658.269 401.23C658.009 401.756 657.879 402.319 657.879 402.92V403.886C657.879 404.71 658.021 405.409 658.305 405.982C658.594 406.55 658.994 406.983 659.505 407.281C660.016 407.575 660.611 407.722 661.288 407.722C661.728 407.722 662.126 407.66 662.481 407.537C662.841 407.409 663.151 407.22 663.411 406.969C663.672 406.713 663.873 406.396 664.015 406.017L665.634 406.472C665.464 407.021 665.177 407.504 664.775 407.92C664.372 408.332 663.875 408.654 663.283 408.886C662.692 409.114 662.026 409.227 661.288 409.227ZM669.102 413.091C668.818 413.091 668.565 413.067 668.342 413.02C668.119 412.977 667.966 412.935 667.88 412.892L668.306 411.415C668.714 411.519 669.074 411.557 669.386 411.528C669.699 411.5 669.975 411.36 670.217 411.109C670.463 410.863 670.688 410.463 670.892 409.909L671.204 409.057L667.17 398.091H668.988L672 406.784H672.113L675.125 398.091H676.943L672.312 410.591C672.104 411.154 671.846 411.621 671.538 411.99C671.23 412.364 670.873 412.641 670.466 412.821C670.063 413.001 669.609 413.091 669.102 413.091ZM687.252 409L683.928 398.091H685.689L688.047 406.443H688.161L690.49 398.091H692.28L694.581 406.415H694.695L697.053 398.091H698.814L695.49 409H693.843L691.456 400.619H691.286L688.9 409H687.252ZM701.03 409V398.091H702.706V409H701.03ZM701.882 396.273C701.556 396.273 701.274 396.161 701.037 395.939C700.805 395.716 700.689 395.449 700.689 395.136C700.689 394.824 700.805 394.556 701.037 394.334C701.274 394.111 701.556 394 701.882 394C702.209 394 702.489 394.111 702.721 394.334C702.957 394.556 703.076 394.824 703.076 395.136C703.076 395.449 702.957 395.716 702.721 395.939C702.489 396.161 702.209 396.273 701.882 396.273ZM710.521 398.091V399.511H704.867V398.091H710.521ZM706.515 395.477H708.191V405.875C708.191 406.348 708.26 406.704 708.397 406.94C708.539 407.172 708.719 407.329 708.937 407.409C709.159 407.485 709.394 407.523 709.64 407.523C709.825 407.523 709.976 407.513 710.094 407.494C710.213 407.471 710.308 407.452 710.379 407.438L710.719 408.943C710.606 408.986 710.447 409.028 710.244 409.071C710.04 409.118 709.782 409.142 709.469 409.142C708.996 409.142 708.532 409.04 708.077 408.837C707.628 408.633 707.254 408.323 706.955 407.906C706.662 407.49 706.515 406.964 706.515 406.33V395.477ZM714.952 402.438V409H713.276V394.455H714.952V399.795H715.094C715.35 399.232 715.734 398.785 716.245 398.453C716.761 398.117 717.448 397.949 718.305 397.949C719.048 397.949 719.699 398.098 720.258 398.396C720.817 398.69 721.25 399.142 721.558 399.753C721.87 400.359 722.026 401.131 722.026 402.068V409H720.35V402.182C720.35 401.315 720.125 400.645 719.675 400.172C719.23 399.694 718.612 399.455 717.822 399.455C717.272 399.455 716.78 399.571 716.344 399.803C715.914 400.035 715.573 400.373 715.322 400.818C715.076 401.263 714.952 401.803 714.952 402.438ZM449.588 439V424.455H454.502C455.639 424.455 456.571 424.649 457.301 425.037C458.03 425.42 458.57 425.948 458.92 426.621C459.27 427.293 459.445 428.058 459.445 428.915C459.445 429.772 459.27 430.532 458.92 431.195C458.57 431.857 458.032 432.378 457.308 432.757C456.583 433.131 455.658 433.318 454.531 433.318H450.553V431.727H454.474C455.25 431.727 455.875 431.614 456.349 431.386C456.827 431.159 457.173 430.837 457.386 430.42C457.604 429.999 457.713 429.497 457.713 428.915C457.713 428.332 457.604 427.823 457.386 427.388C457.168 426.952 456.82 426.616 456.342 426.379C455.864 426.138 455.231 426.017 454.445 426.017H451.349V439H449.588ZM456.434 432.466L460.014 439H457.968L454.445 432.466H456.434ZM462.381 439V424.455H471.159V426.017H464.142V430.932H470.704V432.494H464.142V437.438H471.273V439H462.381ZM474.93 439H473.084L478.425 424.455H480.243L485.584 439H483.737L479.39 426.756H479.277L474.93 439ZM475.612 433.318H483.055V434.881H475.612V433.318ZM492.338 439H487.849V424.455H492.537C493.948 424.455 495.155 424.746 496.159 425.328C497.163 425.906 497.932 426.737 498.467 427.821C499.002 428.901 499.27 430.193 499.27 431.699C499.27 433.214 499 434.518 498.46 435.612C497.92 436.701 497.134 437.539 496.102 438.126C495.07 438.709 493.815 439 492.338 439ZM489.611 437.438H492.224C493.427 437.438 494.424 437.205 495.214 436.741C496.005 436.277 496.595 435.617 496.983 434.76C497.371 433.903 497.565 432.883 497.565 431.699C497.565 430.525 497.373 429.514 496.99 428.666C496.606 427.814 496.033 427.161 495.271 426.706C494.509 426.247 493.559 426.017 492.423 426.017H489.611V437.438ZM510.832 439.256C510.141 439.256 509.514 439.125 508.95 438.865C508.387 438.6 507.939 438.219 507.608 437.722C507.276 437.22 507.111 436.614 507.111 435.903C507.111 435.278 507.234 434.772 507.48 434.384C507.726 433.991 508.055 433.683 508.467 433.46C508.879 433.238 509.334 433.072 509.831 432.963C510.333 432.849 510.837 432.759 511.344 432.693C512.006 432.608 512.544 432.544 512.956 432.501C513.372 432.454 513.675 432.376 513.865 432.267C514.059 432.158 514.156 431.969 514.156 431.699V431.642C514.156 430.941 513.964 430.397 513.581 430.009C513.202 429.62 512.627 429.426 511.855 429.426C511.055 429.426 510.427 429.601 509.973 429.952C509.518 430.302 509.199 430.676 509.014 431.074L507.423 430.506C507.707 429.843 508.086 429.327 508.559 428.957C509.038 428.583 509.559 428.323 510.122 428.176C510.69 428.025 511.249 427.949 511.798 427.949C512.148 427.949 512.551 427.991 513.006 428.077C513.465 428.157 513.907 428.325 514.334 428.581C514.765 428.837 515.122 429.223 515.406 429.739C515.69 430.255 515.832 430.946 515.832 431.812V439H514.156V437.523H514.071C513.957 437.759 513.768 438.013 513.503 438.283C513.238 438.553 512.885 438.782 512.444 438.972C512.004 439.161 511.467 439.256 510.832 439.256ZM511.088 437.75C511.751 437.75 512.309 437.62 512.764 437.359C513.223 437.099 513.569 436.763 513.801 436.351C514.038 435.939 514.156 435.506 514.156 435.051V433.517C514.085 433.602 513.929 433.68 513.687 433.751C513.451 433.818 513.176 433.877 512.863 433.929C512.556 433.976 512.255 434.019 511.961 434.057C511.673 434.09 511.438 434.118 511.258 434.142C510.823 434.199 510.416 434.291 510.037 434.419C509.663 434.542 509.36 434.729 509.128 434.98C508.9 435.226 508.787 435.562 508.787 435.989C508.787 436.571 509.002 437.011 509.433 437.31C509.869 437.603 510.42 437.75 511.088 437.75ZM523.323 439.227C522.301 439.227 521.42 438.986 520.681 438.503C519.943 438.02 519.374 437.355 518.977 436.507C518.579 435.66 518.38 434.691 518.38 433.602C518.38 432.494 518.584 431.517 518.991 430.669C519.403 429.817 519.976 429.152 520.71 428.673C521.448 428.19 522.31 427.949 523.295 427.949C524.062 427.949 524.753 428.091 525.369 428.375C525.984 428.659 526.489 429.057 526.882 429.568C527.275 430.08 527.518 430.676 527.613 431.358H525.937C525.809 430.861 525.525 430.42 525.085 430.037C524.649 429.649 524.062 429.455 523.323 429.455C522.67 429.455 522.097 429.625 521.605 429.966C521.117 430.302 520.736 430.778 520.461 431.393C520.191 432.004 520.056 432.722 520.056 433.545C520.056 434.388 520.189 435.122 520.454 435.747C520.724 436.372 521.103 436.857 521.59 437.203C522.083 437.549 522.66 437.722 523.323 437.722C523.759 437.722 524.154 437.646 524.509 437.494C524.865 437.343 525.165 437.125 525.411 436.841C525.658 436.557 525.833 436.216 525.937 435.818H527.613C527.518 436.462 527.284 437.042 526.91 437.558C526.541 438.07 526.051 438.477 525.44 438.78C524.834 439.078 524.128 439.227 523.323 439.227ZM534.495 439.227C533.472 439.227 532.592 438.986 531.853 438.503C531.115 438.02 530.546 437.355 530.149 436.507C529.751 435.66 529.552 434.691 529.552 433.602C529.552 432.494 529.756 431.517 530.163 430.669C530.575 429.817 531.148 429.152 531.882 428.673C532.62 428.19 533.482 427.949 534.467 427.949C535.234 427.949 535.925 428.091 536.541 428.375C537.156 428.659 537.66 429.057 538.053 429.568C538.446 430.08 538.69 430.676 538.785 431.358H537.109C536.981 430.861 536.697 430.42 536.257 430.037C535.821 429.649 535.234 429.455 534.495 429.455C533.842 429.455 533.269 429.625 532.776 429.966C532.289 430.302 531.908 430.778 531.633 431.393C531.363 432.004 531.228 432.722 531.228 433.545C531.228 434.388 531.361 435.122 531.626 435.747C531.896 436.372 532.275 436.857 532.762 437.203C533.255 437.549 533.832 437.722 534.495 437.722C534.931 437.722 535.326 437.646 535.681 437.494C536.036 437.343 536.337 437.125 536.583 436.841C536.829 436.557 537.005 436.216 537.109 435.818H538.785C538.69 436.462 538.456 437.042 538.082 437.558C537.713 438.07 537.222 438.477 536.612 438.78C536.006 439.078 535.3 439.227 534.495 439.227ZM545.809 439.227C544.758 439.227 543.851 438.995 543.089 438.531C542.331 438.062 541.747 437.409 541.335 436.571C540.927 435.728 540.724 434.748 540.724 433.631C540.724 432.513 540.927 431.528 541.335 430.676C541.747 429.819 542.32 429.152 543.053 428.673C543.792 428.19 544.654 427.949 545.639 427.949C546.207 427.949 546.768 428.044 547.322 428.233C547.876 428.422 548.38 428.73 548.835 429.156C549.289 429.578 549.651 430.136 549.921 430.832C550.191 431.528 550.326 432.385 550.326 433.403V434.114H541.917V432.665H548.622C548.622 432.049 548.499 431.5 548.252 431.017C548.011 430.534 547.665 430.153 547.215 429.874C546.77 429.594 546.245 429.455 545.639 429.455C544.971 429.455 544.393 429.62 543.906 429.952C543.423 430.278 543.051 430.705 542.791 431.23C542.53 431.756 542.4 432.319 542.4 432.92V433.886C542.4 434.71 542.542 435.409 542.826 435.982C543.115 436.55 543.515 436.983 544.026 437.281C544.538 437.575 545.132 437.722 545.809 437.722C546.249 437.722 546.647 437.66 547.002 437.537C547.362 437.409 547.672 437.22 547.933 436.969C548.193 436.713 548.394 436.396 548.536 436.017L550.156 436.472C549.985 437.021 549.699 437.504 549.296 437.92C548.894 438.332 548.397 438.654 547.805 438.886C547.213 439.114 546.548 439.227 545.809 439.227ZM560.603 430.534L559.097 430.96C559.003 430.709 558.863 430.465 558.678 430.229C558.499 429.987 558.252 429.788 557.94 429.632C557.627 429.476 557.227 429.398 556.74 429.398C556.072 429.398 555.516 429.552 555.07 429.859C554.63 430.162 554.41 430.548 554.41 431.017C554.41 431.434 554.561 431.763 554.865 432.004C555.168 432.246 555.641 432.447 556.285 432.608L557.904 433.006C558.88 433.242 559.606 433.605 560.085 434.092C560.563 434.575 560.802 435.198 560.802 435.96C560.802 436.585 560.622 437.144 560.262 437.636C559.907 438.129 559.41 438.517 558.771 438.801C558.132 439.085 557.388 439.227 556.541 439.227C555.428 439.227 554.507 438.986 553.778 438.503C553.049 438.02 552.587 437.314 552.393 436.386L553.984 435.989C554.135 436.576 554.422 437.016 554.843 437.31C555.269 437.603 555.826 437.75 556.512 437.75C557.294 437.75 557.914 437.584 558.373 437.253C558.837 436.917 559.069 436.514 559.069 436.045C559.069 435.667 558.936 435.349 558.671 435.094C558.406 434.833 557.999 434.639 557.45 434.511L555.632 434.085C554.633 433.848 553.899 433.482 553.43 432.984C552.966 432.482 552.734 431.855 552.734 431.102C552.734 430.487 552.907 429.942 553.252 429.469C553.603 428.995 554.079 428.624 554.68 428.354C555.286 428.084 555.972 427.949 556.74 427.949C557.819 427.949 558.667 428.186 559.282 428.659C559.902 429.133 560.343 429.758 560.603 430.534ZM571.052 430.534L569.547 430.96C569.452 430.709 569.312 430.465 569.128 430.229C568.948 429.987 568.702 429.788 568.389 429.632C568.077 429.476 567.676 429.398 567.189 429.398C566.521 429.398 565.965 429.552 565.52 429.859C565.079 430.162 564.859 430.548 564.859 431.017C564.859 431.434 565.011 431.763 565.314 432.004C565.617 432.246 566.09 432.447 566.734 432.608L568.354 433.006C569.329 433.242 570.056 433.605 570.534 434.092C571.012 434.575 571.251 435.198 571.251 435.96C571.251 436.585 571.071 437.144 570.711 437.636C570.356 438.129 569.859 438.517 569.22 438.801C568.581 439.085 567.837 439.227 566.99 439.227C565.877 439.227 564.956 438.986 564.227 438.503C563.498 438.02 563.036 437.314 562.842 436.386L564.433 435.989C564.585 436.576 564.871 437.016 565.292 437.31C565.719 437.603 566.275 437.75 566.961 437.75C567.743 437.75 568.363 437.584 568.822 437.253C569.286 436.917 569.518 436.514 569.518 436.045C569.518 435.667 569.386 435.349 569.121 435.094C568.855 434.833 568.448 434.639 567.899 434.511L566.081 434.085C565.082 433.848 564.348 433.482 563.879 432.984C563.415 432.482 563.183 431.855 563.183 431.102C563.183 430.487 563.356 429.942 563.702 429.469C564.052 428.995 564.528 428.624 565.129 428.354C565.735 428.084 566.422 427.949 567.189 427.949C568.268 427.949 569.116 428.186 569.731 428.659C570.352 429.133 570.792 429.758 571.052 430.534ZM584.144 428.091V429.511H578.49V428.091H584.144ZM580.138 425.477H581.814V435.875C581.814 436.348 581.883 436.704 582.02 436.94C582.162 437.172 582.342 437.329 582.56 437.409C582.782 437.485 583.017 437.523 583.263 437.523C583.448 437.523 583.599 437.513 583.718 437.494C583.836 437.471 583.931 437.452 584.002 437.438L584.343 438.943C584.229 438.986 584.07 439.028 583.867 439.071C583.663 439.118 583.405 439.142 583.093 439.142C582.619 439.142 582.155 439.04 581.7 438.837C581.251 438.633 580.877 438.323 580.578 437.906C580.285 437.49 580.138 436.964 580.138 436.33V425.477ZM590.98 439.227C589.995 439.227 589.131 438.993 588.387 438.524C587.649 438.055 587.071 437.4 586.654 436.557C586.242 435.714 586.036 434.729 586.036 433.602C586.036 432.466 586.242 431.474 586.654 430.626C587.071 429.779 587.649 429.121 588.387 428.652C589.131 428.183 589.995 427.949 590.98 427.949C591.964 427.949 592.826 428.183 593.565 428.652C594.308 429.121 594.886 429.779 595.298 430.626C595.714 431.474 595.923 432.466 595.923 433.602C595.923 434.729 595.714 435.714 595.298 436.557C594.886 437.4 594.308 438.055 593.565 438.524C592.826 438.993 591.964 439.227 590.98 439.227ZM590.98 437.722C591.728 437.722 592.343 437.53 592.826 437.146C593.309 436.763 593.667 436.259 593.899 435.634C594.131 435.009 594.247 434.331 594.247 433.602C594.247 432.873 594.131 432.194 593.899 431.564C593.667 430.934 593.309 430.425 592.826 430.037C592.343 429.649 591.728 429.455 590.98 429.455C590.231 429.455 589.616 429.649 589.133 430.037C588.65 430.425 588.293 430.934 588.061 431.564C587.829 432.194 587.713 432.873 587.713 433.602C587.713 434.331 587.829 435.009 588.061 435.634C588.293 436.259 588.65 436.763 589.133 437.146C589.616 437.53 590.231 437.722 590.98 437.722ZM604.93 439H603.084L608.425 424.455H610.243L615.584 439H613.737L609.39 426.756H609.277L604.93 439ZM605.612 433.318H613.055V434.881H605.612V433.318ZM617.622 443.091V428.091H619.241V429.824H619.44C619.563 429.634 619.734 429.393 619.952 429.099C620.174 428.801 620.491 428.536 620.903 428.304C621.32 428.067 621.883 427.949 622.594 427.949C623.512 427.949 624.322 428.179 625.023 428.638C625.723 429.097 626.27 429.748 626.663 430.591C627.056 431.434 627.253 432.428 627.253 433.574C627.253 434.729 627.056 435.731 626.663 436.578C626.27 437.421 625.726 438.074 625.03 438.538C624.334 438.998 623.531 439.227 622.622 439.227C621.921 439.227 621.36 439.111 620.939 438.879C620.517 438.643 620.193 438.375 619.966 438.077C619.738 437.774 619.563 437.523 619.44 437.324H619.298V443.091H617.622ZM619.27 433.545C619.27 434.369 619.39 435.096 619.632 435.726C619.873 436.351 620.226 436.841 620.69 437.196C621.154 437.546 621.722 437.722 622.395 437.722C623.095 437.722 623.68 437.537 624.149 437.168C624.622 436.794 624.978 436.292 625.214 435.662C625.456 435.027 625.577 434.322 625.577 433.545C625.577 432.778 625.458 432.087 625.221 431.472C624.989 430.851 624.637 430.361 624.163 430.001C623.694 429.637 623.105 429.455 622.395 429.455C621.713 429.455 621.14 429.627 620.676 429.973C620.212 430.314 619.862 430.792 619.625 431.408C619.388 432.018 619.27 432.731 619.27 433.545ZM629.809 443.091V428.091H631.429V429.824H631.628C631.751 429.634 631.921 429.393 632.139 429.099C632.362 428.801 632.679 428.536 633.091 428.304C633.507 428.067 634.071 427.949 634.781 427.949C635.7 427.949 636.509 428.179 637.21 428.638C637.911 429.097 638.458 429.748 638.851 430.591C639.244 431.434 639.44 432.428 639.44 433.574C639.44 434.729 639.244 435.731 638.851 436.578C638.458 437.421 637.913 438.074 637.217 438.538C636.521 438.998 635.719 439.227 634.809 439.227C634.109 439.227 633.548 439.111 633.126 438.879C632.705 438.643 632.381 438.375 632.153 438.077C631.926 437.774 631.751 437.523 631.628 437.324H631.486V443.091H629.809ZM631.457 433.545C631.457 434.369 631.578 435.096 631.819 435.726C632.061 436.351 632.414 436.841 632.878 437.196C633.342 437.546 633.91 437.722 634.582 437.722C635.283 437.722 635.868 437.537 636.336 437.168C636.81 436.794 637.165 436.292 637.402 435.662C637.643 435.027 637.764 434.322 637.764 433.545C637.764 432.778 637.646 432.087 637.409 431.472C637.177 430.851 636.824 430.361 636.351 430.001C635.882 429.637 635.292 429.455 634.582 429.455C633.9 429.455 633.327 429.627 632.863 429.973C632.399 430.314 632.049 430.792 631.812 431.408C631.576 432.018 631.457 432.731 631.457 433.545ZM647.082 424.455V439H645.321V426.301H645.236L641.684 428.659V426.869L645.321 424.455H647.082ZM661.777 428.091V429.511H655.896V428.091H661.777ZM657.657 439V426.585C657.657 425.96 657.804 425.439 658.098 425.023C658.391 424.606 658.773 424.294 659.241 424.085C659.71 423.877 660.205 423.773 660.726 423.773C661.138 423.773 661.474 423.806 661.734 423.872C661.995 423.938 662.189 424 662.317 424.057L661.834 425.506C661.748 425.477 661.63 425.442 661.479 425.399C661.332 425.357 661.138 425.335 660.896 425.335C660.342 425.335 659.942 425.475 659.696 425.754C659.454 426.034 659.334 426.443 659.334 426.983V439H657.657ZM664.126 439V428.091H665.802V439H664.126ZM664.978 426.273C664.651 426.273 664.37 426.161 664.133 425.939C663.901 425.716 663.785 425.449 663.785 425.136C663.785 424.824 663.901 424.556 664.133 424.334C664.37 424.111 664.651 424 664.978 424C665.305 424 665.584 424.111 665.816 424.334C666.053 424.556 666.171 424.824 666.171 425.136C666.171 425.449 666.053 425.716 665.816 425.939C665.584 426.161 665.305 426.273 664.978 426.273ZM670.548 424.455V439H668.872V424.455H670.548ZM678.192 439.227C677.141 439.227 676.234 438.995 675.472 438.531C674.714 438.062 674.129 437.409 673.718 436.571C673.31 435.728 673.107 434.748 673.107 433.631C673.107 432.513 673.31 431.528 673.718 430.676C674.129 429.819 674.702 429.152 675.436 428.673C676.175 428.19 677.037 427.949 678.021 427.949C678.59 427.949 679.151 428.044 679.705 428.233C680.259 428.422 680.763 428.73 681.218 429.156C681.672 429.578 682.034 430.136 682.304 430.832C682.574 431.528 682.709 432.385 682.709 433.403V434.114H674.3V432.665H681.004C681.004 432.049 680.881 431.5 680.635 431.017C680.394 430.534 680.048 430.153 679.598 429.874C679.153 429.594 678.628 429.455 678.021 429.455C677.354 429.455 676.776 429.62 676.289 429.952C675.806 430.278 675.434 430.705 675.173 431.23C674.913 431.756 674.783 432.319 674.783 432.92V433.886C674.783 434.71 674.925 435.409 675.209 435.982C675.498 436.55 675.898 436.983 676.409 437.281C676.921 437.575 677.515 437.722 678.192 437.722C678.632 437.722 679.03 437.66 679.385 437.537C679.745 437.409 680.055 437.22 680.316 436.969C680.576 436.713 680.777 436.396 680.919 436.017L682.539 436.472C682.368 437.021 682.082 437.504 681.679 437.92C681.277 438.332 680.78 438.654 680.188 438.886C679.596 439.114 678.931 439.227 678.192 439.227ZM692.986 430.534L691.48 430.96C691.386 430.709 691.246 430.465 691.061 430.229C690.881 429.987 690.635 429.788 690.323 429.632C690.01 429.476 689.61 429.398 689.122 429.398C688.455 429.398 687.898 429.552 687.453 429.859C687.013 430.162 686.793 430.548 686.793 431.017C686.793 431.434 686.944 431.763 687.247 432.004C687.55 432.246 688.024 432.447 688.668 432.608L690.287 433.006C691.262 433.242 691.989 433.605 692.468 434.092C692.946 434.575 693.185 435.198 693.185 435.96C693.185 436.585 693.005 437.144 692.645 437.636C692.29 438.129 691.793 438.517 691.154 438.801C690.514 439.085 689.771 439.227 688.923 439.227C687.811 439.227 686.89 438.986 686.161 438.503C685.432 438.02 684.97 437.314 684.776 436.386L686.367 435.989C686.518 436.576 686.805 437.016 687.226 437.31C687.652 437.603 688.209 437.75 688.895 437.75C689.676 437.75 690.297 437.584 690.756 437.253C691.22 436.917 691.452 436.514 691.452 436.045C691.452 435.667 691.319 435.349 691.054 435.094C690.789 434.833 690.382 434.639 689.833 434.511L688.014 434.085C687.015 433.848 686.281 433.482 685.813 432.984C685.349 432.482 685.117 431.855 685.117 431.102C685.117 430.487 685.289 429.942 685.635 429.469C685.985 428.995 686.461 428.624 687.063 428.354C687.669 428.084 688.355 427.949 689.122 427.949C690.202 427.949 691.049 428.186 691.665 428.659C692.285 429.133 692.726 429.758 692.986 430.534Z" fill="black"/>
<path d="M738.005 320.5L728.005 314.726V326.274L738.005 320.5ZM387.992 320.5V321.5H729.005V320.5V319.5H387.992V320.5Z" fill="#090D13"/>
<path d="M1088 487L1078 481.226V492.774L1088 487ZM744 487V488H1079V487V486H744V487Z" fill="#090D13"/>
<rect x="230" y="129" width="314" height="93" rx="10" fill="#D9D9D9"/>
<path d="M325.373 164.182H328.015V178.628C328.015 180.119 327.664 181.451 326.961 182.623C326.265 183.788 325.281 184.707 324.01 185.382C322.738 186.05 321.247 186.384 319.535 186.384C317.824 186.384 316.332 186.05 315.061 185.382C313.79 184.707 312.802 183.788 312.099 182.623C311.403 181.451 311.055 180.119 311.055 178.628V164.182H313.697V178.415C313.697 179.48 313.932 180.428 314.4 181.259C314.869 182.083 315.537 182.733 316.403 183.209C317.277 183.678 318.321 183.912 319.535 183.912C320.75 183.912 321.794 183.678 322.667 183.209C323.541 182.733 324.209 182.083 324.67 181.259C325.139 180.428 325.373 179.48 325.373 178.415V164.182ZM344.541 173.301L342.283 173.94C342.141 173.564 341.931 173.198 341.654 172.843C341.384 172.481 341.015 172.183 340.546 171.948C340.078 171.714 339.478 171.597 338.746 171.597C337.745 171.597 336.91 171.827 336.242 172.289C335.582 172.744 335.252 173.322 335.252 174.026C335.252 174.651 335.479 175.144 335.934 175.506C336.388 175.869 337.098 176.17 338.064 176.412L340.493 177.009C341.956 177.364 343.046 177.907 343.764 178.638C344.481 179.363 344.84 180.297 344.84 181.44C344.84 182.378 344.57 183.216 344.03 183.955C343.497 184.693 342.752 185.276 341.793 185.702C340.834 186.128 339.719 186.341 338.448 186.341C336.779 186.341 335.397 185.979 334.304 185.254C333.21 184.53 332.517 183.472 332.226 182.08L334.612 181.483C334.84 182.364 335.269 183.024 335.902 183.464C336.541 183.905 337.375 184.125 338.405 184.125C339.577 184.125 340.507 183.876 341.196 183.379C341.892 182.875 342.24 182.271 342.24 181.568C342.24 181 342.041 180.524 341.644 180.141C341.246 179.75 340.635 179.459 339.811 179.267L337.084 178.628C335.585 178.273 334.485 177.722 333.782 176.977C333.085 176.224 332.737 175.283 332.737 174.153C332.737 173.23 332.997 172.413 333.515 171.703C334.041 170.993 334.755 170.435 335.657 170.031C336.566 169.626 337.595 169.423 338.746 169.423C340.365 169.423 341.637 169.778 342.56 170.489C343.49 171.199 344.151 172.136 344.541 173.301ZM355.485 186.341C353.908 186.341 352.548 185.993 351.405 185.297C350.269 184.594 349.391 183.614 348.774 182.357C348.163 181.092 347.857 179.622 347.857 177.946C347.857 176.27 348.163 174.793 348.774 173.514C349.391 172.229 350.251 171.227 351.352 170.51C352.46 169.786 353.752 169.423 355.229 169.423C356.082 169.423 356.923 169.565 357.754 169.849C358.585 170.134 359.342 170.595 360.024 171.234C360.705 171.866 361.249 172.705 361.653 173.749C362.058 174.793 362.261 176.078 362.261 177.605V178.67H349.647V176.497H359.704C359.704 175.574 359.519 174.75 359.15 174.026C358.788 173.301 358.269 172.729 357.595 172.31C356.927 171.891 356.139 171.682 355.229 171.682C354.228 171.682 353.362 171.93 352.63 172.428C351.906 172.918 351.348 173.557 350.957 174.345C350.567 175.134 350.372 175.979 350.372 176.881V178.33C350.372 179.565 350.585 180.613 351.011 181.472C351.444 182.325 352.044 182.974 352.811 183.422C353.578 183.862 354.47 184.082 355.485 184.082C356.146 184.082 356.742 183.99 357.275 183.805C357.815 183.614 358.28 183.33 358.671 182.953C359.061 182.57 359.363 182.094 359.576 181.526L362.005 182.207C361.749 183.031 361.32 183.756 360.716 184.381C360.112 184.999 359.367 185.482 358.479 185.83C357.591 186.17 356.593 186.341 355.485 186.341ZM366.085 186V169.636H368.514V172.108H368.685C368.983 171.298 369.523 170.641 370.304 170.137C371.085 169.633 371.966 169.381 372.946 169.381C373.131 169.381 373.362 169.384 373.639 169.391C373.916 169.398 374.125 169.409 374.267 169.423V171.98C374.182 171.959 373.987 171.927 373.681 171.884C373.383 171.835 373.067 171.81 372.733 171.81C371.938 171.81 371.227 171.977 370.602 172.31C369.984 172.637 369.494 173.092 369.132 173.674C368.777 174.249 368.6 174.906 368.6 175.645V186H366.085ZM383.935 163.159L376.904 189.281H374.603L381.634 163.159H383.935ZM404.813 171H402.171C402.015 170.24 401.741 169.572 401.351 168.997C400.967 168.422 400.498 167.939 399.945 167.548C399.398 167.151 398.79 166.852 398.123 166.653C397.455 166.455 396.759 166.355 396.035 166.355C394.714 166.355 393.517 166.689 392.445 167.357C391.379 168.024 390.53 169.008 389.898 170.308C389.273 171.607 388.961 173.202 388.961 175.091C388.961 176.98 389.273 178.575 389.898 179.874C390.53 181.174 391.379 182.158 392.445 182.825C393.517 183.493 394.714 183.827 396.035 183.827C396.759 183.827 397.455 183.727 398.123 183.528C398.79 183.33 399.398 183.035 399.945 182.644C400.498 182.246 400.967 181.76 401.351 181.185C401.741 180.602 402.015 179.935 402.171 179.182H404.813C404.614 180.297 404.252 181.295 403.726 182.175C403.201 183.056 402.547 183.805 401.766 184.423C400.985 185.034 400.108 185.499 399.135 185.819C398.169 186.138 397.136 186.298 396.035 186.298C394.174 186.298 392.519 185.844 391.07 184.935C389.621 184.026 388.481 182.733 387.65 181.057C386.82 179.381 386.404 177.392 386.404 175.091C386.404 172.79 386.82 170.801 387.65 169.125C388.481 167.449 389.621 166.156 391.07 165.247C392.519 164.338 394.174 163.884 396.035 163.884C397.136 163.884 398.169 164.043 399.135 164.363C400.108 164.683 400.985 165.151 401.766 165.769C402.547 166.38 403.201 167.126 403.726 168.006C404.252 168.88 404.614 169.878 404.813 171ZM411.256 164.182V186H408.742V164.182H411.256ZM415.861 186V169.636H418.375V186H415.861ZM417.139 166.909C416.649 166.909 416.226 166.742 415.871 166.408C415.523 166.075 415.349 165.673 415.349 165.205C415.349 164.736 415.523 164.335 415.871 164.001C416.226 163.667 416.649 163.5 417.139 163.5C417.629 163.5 418.048 163.667 418.396 164.001C418.751 164.335 418.929 164.736 418.929 165.205C418.929 165.673 418.751 166.075 418.396 166.408C418.048 166.742 417.629 166.909 417.139 166.909ZM429.841 186.341C428.264 186.341 426.904 185.993 425.76 185.297C424.624 184.594 423.747 183.614 423.129 182.357C422.518 181.092 422.213 179.622 422.213 177.946C422.213 176.27 422.518 174.793 423.129 173.514C423.747 172.229 424.606 171.227 425.707 170.51C426.815 169.786 428.108 169.423 429.585 169.423C430.437 169.423 431.279 169.565 432.11 169.849C432.941 170.134 433.697 170.595 434.379 171.234C435.061 171.866 435.604 172.705 436.009 173.749C436.414 174.793 436.616 176.078 436.616 177.605V178.67H424.003V176.497H434.059C434.059 175.574 433.875 174.75 433.505 174.026C433.143 173.301 432.625 172.729 431.95 172.31C431.282 171.891 430.494 171.682 429.585 171.682C428.584 171.682 427.717 171.93 426.986 172.428C426.261 172.918 425.704 173.557 425.313 174.345C424.922 175.134 424.727 175.979 424.727 176.881V178.33C424.727 179.565 424.94 180.613 425.366 181.472C425.799 182.325 426.4 182.974 427.167 183.422C427.934 183.862 428.825 184.082 429.841 184.082C430.501 184.082 431.098 183.99 431.63 183.805C432.17 183.614 432.635 183.33 433.026 182.953C433.417 182.57 433.718 182.094 433.932 181.526L436.361 182.207C436.105 183.031 435.675 183.756 435.071 184.381C434.468 184.999 433.722 185.482 432.834 185.83C431.946 186.17 430.949 186.341 429.841 186.341ZM442.955 176.156V186H440.441V169.636H442.87V172.193H443.083C443.466 171.362 444.049 170.695 444.83 170.19C445.611 169.679 446.62 169.423 447.856 169.423C448.964 169.423 449.933 169.651 450.764 170.105C451.595 170.553 452.241 171.234 452.703 172.151C453.165 173.06 453.395 174.21 453.395 175.602V186H450.881V175.773C450.881 174.487 450.547 173.486 449.88 172.768C449.212 172.044 448.296 171.682 447.131 171.682C446.329 171.682 445.611 171.856 444.979 172.204C444.354 172.552 443.861 173.06 443.498 173.727C443.136 174.395 442.955 175.205 442.955 176.156ZM465.106 169.636V171.767H456.626V169.636H465.106ZM459.098 165.716H461.612V181.312C461.612 182.023 461.715 182.555 461.921 182.911C462.134 183.259 462.404 183.493 462.73 183.614C463.064 183.727 463.416 183.784 463.785 183.784C464.062 183.784 464.289 183.77 464.467 183.741C464.644 183.706 464.786 183.678 464.893 183.656L465.404 185.915C465.234 185.979 464.996 186.043 464.691 186.107C464.385 186.178 463.998 186.213 463.529 186.213C462.819 186.213 462.123 186.06 461.441 185.755C460.767 185.45 460.206 184.984 459.758 184.359C459.318 183.734 459.098 182.946 459.098 181.994V165.716Z" fill="black"/>
<line x1="389.5" y1="222" x2="389.5" y2="662" stroke="#D9D9D9" stroke-width="5"/>
<rect x="580" y="129" width="314" height="93" rx="10" fill="#D9D9D9"/>
<path d="M675.405 186H668.672V164.182H675.704C677.82 164.182 679.631 164.619 681.137 165.492C682.642 166.359 683.797 167.605 684.599 169.232C685.402 170.851 685.803 172.79 685.803 175.048C685.803 177.321 685.398 179.278 684.589 180.918C683.779 182.552 682.6 183.809 681.052 184.69C679.503 185.563 677.621 186 675.405 186ZM671.314 183.656H675.235C677.039 183.656 678.534 183.308 679.72 182.612C680.906 181.916 681.79 180.925 682.373 179.64C682.955 178.354 683.246 176.824 683.246 175.048C683.246 173.287 682.959 171.771 682.383 170.499C681.808 169.221 680.949 168.241 679.805 167.559C678.662 166.87 677.238 166.526 675.533 166.526H671.314V183.656ZM692.877 164.182V186H690.235V164.182H692.877ZM699.069 186H696.299L704.311 164.182H707.038L715.049 186H712.279L705.759 167.634H705.589L699.069 186ZM700.092 177.477H711.257V179.821H700.092V177.477ZM718.448 186V164.182H721.09V183.656H731.232V186H718.448ZM761.317 171H758.675C758.519 170.24 758.245 169.572 757.855 168.997C757.471 168.422 757.002 167.939 756.448 167.548C755.902 167.151 755.294 166.852 754.627 166.653C753.959 166.455 753.263 166.355 752.539 166.355C751.218 166.355 750.021 166.689 748.948 167.357C747.883 168.024 747.034 169.008 746.402 170.308C745.777 171.607 745.465 173.202 745.465 175.091C745.465 176.98 745.777 178.575 746.402 179.874C747.034 181.174 747.883 182.158 748.948 182.825C750.021 183.493 751.218 183.827 752.539 183.827C753.263 183.827 753.959 183.727 754.627 183.528C755.294 183.33 755.902 183.035 756.448 182.644C757.002 182.246 757.471 181.76 757.855 181.185C758.245 180.602 758.519 179.935 758.675 179.182H761.317C761.118 180.297 760.756 181.295 760.23 182.175C759.705 183.056 759.051 183.805 758.27 184.423C757.489 185.034 756.612 185.499 755.639 185.819C754.673 186.138 753.639 186.298 752.539 186.298C750.678 186.298 749.023 185.844 747.574 184.935C746.125 184.026 744.985 182.733 744.154 181.057C743.323 179.381 742.908 177.392 742.908 175.091C742.908 172.79 743.323 170.801 744.154 169.125C744.985 167.449 746.125 166.156 747.574 165.247C749.023 164.338 750.678 163.884 752.539 163.884C753.639 163.884 754.673 164.043 755.639 164.363C756.612 164.683 757.489 165.151 758.27 165.769C759.051 166.38 759.705 167.126 760.23 168.006C760.756 168.88 761.118 169.878 761.317 171ZM771.893 186.341C770.416 186.341 769.12 185.989 768.005 185.286C766.897 184.583 766.03 183.599 765.405 182.335C764.787 181.071 764.478 179.594 764.478 177.903C764.478 176.199 764.787 174.711 765.405 173.44C766.03 172.168 766.897 171.181 768.005 170.478C769.12 169.775 770.416 169.423 771.893 169.423C773.37 169.423 774.663 169.775 775.771 170.478C776.886 171.181 777.753 172.168 778.37 173.44C778.995 174.711 779.308 176.199 779.308 177.903C779.308 179.594 778.995 181.071 778.37 182.335C777.753 183.599 776.886 184.583 775.771 185.286C774.663 185.989 773.37 186.341 771.893 186.341ZM771.893 184.082C773.015 184.082 773.939 183.795 774.663 183.219C775.388 182.644 775.924 181.888 776.272 180.95C776.62 180.013 776.794 178.997 776.794 177.903C776.794 176.81 776.62 175.79 776.272 174.846C775.924 173.901 775.388 173.138 774.663 172.555C773.939 171.973 773.015 171.682 771.893 171.682C770.771 171.682 769.848 171.973 769.123 172.555C768.399 173.138 767.863 173.901 767.515 174.846C767.167 175.79 766.993 176.81 766.993 177.903C766.993 178.997 767.167 180.013 767.515 180.95C767.863 181.888 768.399 182.644 769.123 183.219C769.848 183.795 770.771 184.082 771.893 184.082ZM783.146 186V169.636H785.575V172.108H785.745C786.044 171.298 786.583 170.641 787.365 170.137C788.146 169.633 789.027 169.381 790.007 169.381C790.191 169.381 790.422 169.384 790.699 169.391C790.976 169.398 791.186 169.409 791.328 169.423V171.98C791.242 171.959 791.047 171.927 790.742 171.884C790.443 171.835 790.127 171.81 789.794 171.81C788.998 171.81 788.288 171.977 787.663 172.31C787.045 172.637 786.555 173.092 786.193 173.674C785.838 174.249 785.66 174.906 785.66 175.645V186H783.146ZM800.671 186.341C799.094 186.341 797.734 185.993 796.59 185.297C795.454 184.594 794.577 183.614 793.959 182.357C793.348 181.092 793.043 179.622 793.043 177.946C793.043 176.27 793.348 174.793 793.959 173.514C794.577 172.229 795.436 171.227 796.537 170.51C797.645 169.786 798.938 169.423 800.415 169.423C801.267 169.423 802.109 169.565 802.94 169.849C803.771 170.134 804.527 170.595 805.209 171.234C805.891 171.866 806.434 172.705 806.839 173.749C807.244 174.793 807.446 176.078 807.446 177.605V178.67H794.833V176.497H804.889C804.889 175.574 804.705 174.75 804.335 174.026C803.973 173.301 803.455 172.729 802.78 172.31C802.112 171.891 801.324 171.682 800.415 171.682C799.414 171.682 798.547 171.93 797.816 172.428C797.091 172.918 796.534 173.557 796.143 174.345C795.752 175.134 795.557 175.979 795.557 176.881V178.33C795.557 179.565 795.77 180.613 796.196 181.472C796.63 182.325 797.23 182.974 797.997 183.422C798.764 183.862 799.655 184.082 800.671 184.082C801.331 184.082 801.928 183.99 802.46 183.805C803 183.614 803.465 183.33 803.856 182.953C804.247 182.57 804.549 182.094 804.762 181.526L807.191 182.207C806.935 183.031 806.505 183.756 805.902 184.381C805.298 184.999 804.552 185.482 803.664 185.83C802.777 186.17 801.779 186.341 800.671 186.341Z" fill="black"/>
<line x1="739.5" y1="222" x2="739.5" y2="662" stroke="#D9D9D9" stroke-width="5"/>
<rect x="931" y="129" width="314" height="93" rx="10" fill="#D9D9D9"/>
<path d="M1056.65 186H1053.88L1061.89 164.182H1064.62L1072.63 186H1069.86L1063.34 167.634H1063.17L1056.65 186ZM1057.67 177.477H1068.83V179.821H1057.67V177.477ZM1075.68 192.136V169.636H1078.11V172.236H1078.41C1078.6 171.952 1078.85 171.589 1079.18 171.149C1079.51 170.702 1079.99 170.304 1080.61 169.956C1081.23 169.601 1082.08 169.423 1083.14 169.423C1084.52 169.423 1085.73 169.768 1086.78 170.457C1087.84 171.146 1088.66 172.122 1089.25 173.386C1089.84 174.651 1090.13 176.142 1090.13 177.861C1090.13 179.594 1089.84 181.096 1089.25 182.367C1088.66 183.631 1087.84 184.612 1086.8 185.308C1085.75 185.996 1084.55 186.341 1083.18 186.341C1082.13 186.341 1081.29 186.167 1080.66 185.819C1080.03 185.464 1079.54 185.062 1079.2 184.615C1078.86 184.161 1078.6 183.784 1078.41 183.486H1078.2V192.136H1075.68ZM1078.16 177.818C1078.16 179.054 1078.34 180.144 1078.7 181.089C1079.06 182.026 1079.59 182.761 1080.29 183.294C1080.98 183.82 1081.83 184.082 1082.84 184.082C1083.89 184.082 1084.77 183.805 1085.47 183.251C1086.18 182.69 1086.72 181.937 1087.07 180.993C1087.43 180.041 1087.62 178.983 1087.62 177.818C1087.62 176.668 1087.44 175.631 1087.08 174.707C1086.74 173.777 1086.21 173.042 1085.5 172.502C1084.79 171.955 1083.91 171.682 1082.84 171.682C1081.82 171.682 1080.96 171.941 1080.26 172.46C1079.57 172.971 1079.04 173.688 1078.69 174.612C1078.33 175.528 1078.16 176.597 1078.16 177.818ZM1093.97 192.136V169.636H1096.39V172.236H1096.69C1096.88 171.952 1097.13 171.589 1097.46 171.149C1097.79 170.702 1098.27 170.304 1098.89 169.956C1099.51 169.601 1100.36 169.423 1101.42 169.423C1102.8 169.423 1104.01 169.768 1105.07 170.457C1106.12 171.146 1106.94 172.122 1107.53 173.386C1108.12 174.651 1108.41 176.142 1108.41 177.861C1108.41 179.594 1108.12 181.096 1107.53 182.367C1106.94 183.631 1106.12 184.612 1105.08 185.308C1104.03 185.996 1102.83 186.341 1101.47 186.341C1100.41 186.341 1099.57 186.167 1098.94 185.819C1098.31 185.464 1097.82 185.062 1097.48 184.615C1097.14 184.161 1096.88 183.784 1096.69 183.486H1096.48V192.136H1093.97ZM1096.44 177.818C1096.44 179.054 1096.62 180.144 1096.98 181.089C1097.34 182.026 1097.87 182.761 1098.57 183.294C1099.26 183.82 1100.12 184.082 1101.12 184.082C1102.18 184.082 1103.05 183.805 1103.76 183.251C1104.47 182.69 1105 181.937 1105.35 180.993C1105.72 180.041 1105.9 178.983 1105.9 177.818C1105.9 176.668 1105.72 175.631 1105.36 174.707C1105.02 173.777 1104.49 173.042 1103.78 172.502C1103.07 171.955 1102.19 171.682 1101.12 171.682C1100.1 171.682 1099.24 171.941 1098.55 172.46C1097.85 172.971 1097.32 173.688 1096.97 174.612C1096.61 175.528 1096.44 176.597 1096.44 177.818ZM1119.87 164.182V186H1117.23V166.952H1117.1L1111.78 170.489V167.804L1117.23 164.182H1119.87Z" fill="black"/>
<line x1="1090.5" y1="222" x2="1090.5" y2="662" stroke="#D9D9D9" stroke-width="5"/>
<rect x="733" y="357" width="13" height="119" rx="2" fill="#D9D9D9"/>
</svg>
