<svg width="1920" height="1080" viewBox="0 0 1920 1080" fill="none" xmlns="http://www.w3.org/2000/svg">
<g clip-path="url(#clip0_23186_122749)">
<rect width="1920" height="1080" fill="white"/>
<rect width="65" height="1080" fill="#00C0C3"/>
<path d="M22.1364 621.197H42.5V624.916L29.6832 633.776V633.925H42.5V638.23H22.1364V634.452L34.9432 625.662V625.483H22.1364V621.197ZM42.7884 613.365C42.7884 614.339 42.6193 615.208 42.2812 615.97C41.9366 616.732 41.4295 617.335 40.7599 617.779C40.0838 618.217 39.242 618.436 38.2344 618.436C37.3859 618.436 36.6733 618.28 36.0966 617.968C35.5199 617.657 35.0559 617.233 34.7045 616.696C34.3532 616.159 34.0881 615.549 33.9091 614.866C33.7301 614.177 33.6042 613.454 33.5312 612.699C33.4384 611.81 33.3523 611.094 33.2727 610.551C33.1866 610.007 33.0606 609.613 32.8949 609.368C32.7292 609.122 32.4839 609 32.1591 609H32.0994C31.4697 609 30.9825 609.199 30.6378 609.596C30.2931 609.987 30.1207 610.544 30.1207 611.267C30.1207 612.029 30.2898 612.636 30.6278 613.086C30.9593 613.537 31.3769 613.835 31.8807 613.981L31.5625 617.899C30.6345 617.7 29.8324 617.309 29.1562 616.725C28.4735 616.142 27.9498 615.39 27.5852 614.468C27.214 613.54 27.0284 612.467 27.0284 611.247C27.0284 610.398 27.1278 609.586 27.3267 608.811C27.5256 608.029 27.8338 607.336 28.2514 606.733C28.669 606.123 29.206 605.642 29.8622 605.291C30.5118 604.94 31.2907 604.764 32.1989 604.764H42.5V608.781H40.3821V608.9C40.8594 609.145 41.2803 609.474 41.6449 609.885C42.0028 610.296 42.2846 610.789 42.4901 611.366C42.6889 611.943 42.7884 612.609 42.7884 613.365ZM39.8651 612.152C39.8651 611.529 39.7424 610.978 39.4972 610.501C39.2453 610.024 38.9072 609.649 38.483 609.377C38.0587 609.106 37.5781 608.97 37.0412 608.97H35.4205C35.5066 609.102 35.5862 609.285 35.6591 609.517C35.7254 609.742 35.7884 609.997 35.848 610.282C35.901 610.567 35.9508 610.852 35.9972 611.137C36.0369 611.422 36.0734 611.681 36.1065 611.913C36.1795 612.41 36.2955 612.844 36.4545 613.216C36.6136 613.587 36.8291 613.875 37.1009 614.081C37.366 614.286 37.6974 614.389 38.0952 614.389C38.6719 614.389 39.1127 614.18 39.4176 613.762C39.7159 613.338 39.8651 612.801 39.8651 612.152ZM27.2273 587.786L42.5 593.125V597.898L27.2273 603.238V598.763L38.1548 595.591V595.432L27.2273 592.27V587.786ZM42.5 585.618H27.2273V581.382H42.5V585.618ZM25.2585 583.49C25.2585 584.12 25.0497 584.66 24.6321 585.111C24.2079 585.555 23.7008 585.777 23.1108 585.777C22.5275 585.777 22.027 585.555 21.6094 585.111C21.1851 584.66 20.973 584.12 20.973 583.49C20.973 582.861 21.1851 582.324 21.6094 581.88C22.027 581.429 22.5275 581.203 23.1108 581.203C23.7008 581.203 24.2079 581.429 24.6321 581.88C25.0497 582.324 25.2585 582.861 25.2585 583.49ZM48.5455 571.109C48.5455 572.481 48.3565 573.657 47.9787 574.638C47.6075 575.613 47.1004 576.388 46.4574 576.965C45.8144 577.542 45.0919 577.916 44.2898 578.089L43.7628 574.171C44.0677 574.052 44.3527 573.863 44.6179 573.604C44.883 573.346 45.0952 573.004 45.2543 572.58C45.42 572.149 45.5028 571.626 45.5028 571.009C45.5028 570.088 45.2775 569.329 44.8267 568.732C44.3826 568.129 43.6368 567.827 42.5895 567.827H39.7955V568.006C40.2197 568.192 40.6207 568.47 40.9986 568.842C41.3764 569.213 41.6847 569.69 41.9233 570.273C42.1619 570.857 42.2812 571.553 42.2812 572.362C42.2812 573.508 42.0161 574.552 41.4858 575.494C40.9489 576.428 40.1302 577.174 39.0298 577.731C37.9228 578.281 36.5241 578.556 34.8338 578.556C33.1037 578.556 31.6586 578.274 30.4986 577.711C29.3385 577.147 28.4702 576.398 27.8935 575.464C27.3168 574.522 27.0284 573.492 27.0284 572.371C27.0284 571.516 27.1742 570.8 27.4659 570.224C27.7509 569.647 28.1089 569.183 28.5398 568.832C28.964 568.474 29.3816 568.199 29.7926 568.006V567.847H27.2273V563.641H42.6491C43.9484 563.641 45.0355 563.96 45.9105 564.596C46.7855 565.232 47.4418 566.114 47.8793 567.241C48.3234 568.361 48.5455 569.65 48.5455 571.109ZM39.0994 571.019C39.0994 570.336 38.9304 569.76 38.5923 569.289C38.2476 568.812 37.7571 568.447 37.1207 568.195C36.4777 567.937 35.7088 567.808 34.8139 567.808C33.919 567.808 33.1435 567.933 32.4872 568.185C31.8243 568.437 31.3106 568.802 30.946 569.279C30.5814 569.756 30.3991 570.336 30.3991 571.019C30.3991 571.715 30.5881 572.302 30.9659 572.779C31.3371 573.256 31.8542 573.618 32.517 573.863C33.1799 574.108 33.9455 574.231 34.8139 574.231C35.6955 574.231 36.4579 574.108 37.1009 573.863C37.7372 573.611 38.2311 573.25 38.5824 572.779C38.9271 572.302 39.0994 571.715 39.0994 571.019ZM42.7884 555.915C42.7884 556.89 42.6193 557.758 42.2812 558.521C41.9366 559.283 41.4295 559.886 40.7599 560.33C40.0838 560.768 39.242 560.987 38.2344 560.987C37.3859 560.987 36.6733 560.831 36.0966 560.519C35.5199 560.208 35.0559 559.783 34.7045 559.246C34.3532 558.71 34.0881 558.1 33.9091 557.417C33.7301 556.728 33.6042 556.005 33.5313 555.249C33.4384 554.361 33.3523 553.645 33.2727 553.102C33.1866 552.558 33.0606 552.164 32.8949 551.918C32.7292 551.673 32.4839 551.55 32.1591 551.55H32.0994C31.4697 551.55 30.9825 551.749 30.6378 552.147C30.2931 552.538 30.1207 553.095 30.1207 553.817C30.1207 554.58 30.2898 555.186 30.6278 555.637C30.9593 556.088 31.3769 556.386 31.8807 556.532L31.5625 560.45C30.6345 560.251 29.8324 559.86 29.1563 559.276C28.4735 558.693 27.9498 557.941 27.5852 557.019C27.214 556.091 27.0284 555.017 27.0284 553.798C27.0284 552.949 27.1278 552.137 27.3267 551.362C27.5256 550.579 27.8338 549.887 28.2514 549.283C28.669 548.674 29.206 548.193 29.8622 547.842C30.5118 547.49 31.2907 547.315 32.1989 547.315H42.5V551.332H40.3821V551.451C40.8594 551.696 41.2803 552.024 41.6449 552.435C42.0028 552.846 42.2846 553.34 42.4901 553.917C42.6889 554.494 42.7884 555.16 42.7884 555.915ZM39.8651 554.702C39.8651 554.079 39.7424 553.529 39.4972 553.052C39.2453 552.575 38.9072 552.2 38.483 551.928C38.0587 551.656 37.5781 551.521 37.0412 551.521H35.4205C35.5066 551.653 35.5862 551.835 35.6591 552.067C35.7254 552.293 35.7884 552.548 35.848 552.833C35.901 553.118 35.9508 553.403 35.9972 553.688C36.0369 553.973 36.0734 554.232 36.1065 554.464C36.1795 554.961 36.2955 555.395 36.4545 555.766C36.6136 556.138 36.8291 556.426 37.1009 556.631C37.366 556.837 37.6974 556.94 38.0952 556.94C38.6719 556.94 39.1127 556.731 39.4176 556.313C39.7159 555.889 39.8651 555.352 39.8651 554.702ZM27.2273 535.905H30.4091V545.102H27.2273V535.905ZM23.5682 543.014V538.778H37.8068C38.1979 538.778 38.5028 538.719 38.7216 538.599C38.9337 538.48 39.0829 538.314 39.169 538.102C39.2552 537.884 39.2983 537.632 39.2983 537.347C39.2983 537.148 39.2817 536.949 39.2486 536.75C39.2088 536.551 39.179 536.399 39.1591 536.293L42.3111 535.626C42.3774 535.839 42.4536 536.137 42.5398 536.521C42.6326 536.906 42.6889 537.373 42.7088 537.923C42.7486 538.944 42.6127 539.839 42.3011 540.608C41.9896 541.37 41.5057 541.964 40.8494 542.388C40.1932 542.812 39.3646 543.021 38.3636 543.014H23.5682ZM42.5 533.146H27.2273V528.91H42.5V533.146ZM25.2585 531.018C25.2585 531.647 25.0497 532.188 24.6321 532.638C24.2079 533.083 23.7008 533.305 23.1108 533.305C22.5275 533.305 22.027 533.083 21.6094 532.638C21.1851 532.188 20.973 531.647 20.973 531.018C20.973 530.388 21.1851 529.851 21.6094 529.407C22.027 528.956 22.5275 528.731 23.1108 528.731C23.7008 528.731 24.2079 528.956 24.6321 529.407C25.0497 529.851 25.2585 530.388 25.2585 531.018ZM42.7983 518.616C42.7983 520.161 42.4702 521.496 41.8139 522.623C41.151 523.743 40.2296 524.609 39.0497 525.218C37.8632 525.828 36.4877 526.133 34.9233 526.133C33.3456 526.133 31.9669 525.828 30.7869 525.218C29.6004 524.609 28.679 523.743 28.0227 522.623C27.3598 521.496 27.0284 520.161 27.0284 518.616C27.0284 517.072 27.3598 515.739 28.0227 514.619C28.679 513.492 29.6004 512.624 30.7869 512.014C31.9669 511.404 33.3456 511.099 34.9233 511.099C36.4877 511.099 37.8632 511.404 39.0497 512.014C40.2296 512.624 41.151 513.492 41.8139 514.619C42.4702 515.739 42.7983 517.072 42.7983 518.616ZM39.517 518.596C39.517 517.894 39.3182 517.307 38.9205 516.836C38.5161 516.366 37.9659 516.011 37.2699 515.772C36.5739 515.527 35.7817 515.404 34.8935 515.404C34.0052 515.404 33.2131 515.527 32.517 515.772C31.821 516.011 31.2708 516.366 30.8665 516.836C30.4621 517.307 30.2599 517.894 30.2599 518.596C30.2599 519.306 30.4621 519.902 30.8665 520.386C31.2708 520.863 31.821 521.225 32.517 521.47C33.2131 521.708 34.0052 521.828 34.8935 521.828C35.7817 521.828 36.5739 521.708 37.2699 521.47C37.9659 521.225 38.5161 520.863 38.9205 520.386C39.3182 519.902 39.517 519.306 39.517 518.596ZM33.6705 504.109H42.5V508.345H27.2273V504.308H29.9219V504.129C29.0336 503.791 28.331 503.224 27.8139 502.429C27.2902 501.633 27.0284 500.669 27.0284 499.535C27.0284 498.475 27.2604 497.55 27.7244 496.761C28.1884 495.972 28.8513 495.359 29.7131 494.922C30.5682 494.484 31.589 494.265 32.7756 494.265H42.5L42.5 498.501H33.5313C32.5966 498.494 31.8674 498.733 31.3438 499.217C30.8134 499.701 30.5483 500.367 30.5483 501.216C30.5483 501.786 30.6709 502.289 30.9162 502.727C31.1615 503.158 31.5194 503.496 31.9901 503.741C32.4541 503.98 33.0142 504.102 33.6705 504.109ZM42.5 484.367H22.1364V480.131H29.7926V480.002C29.3816 479.816 28.964 479.548 28.5398 479.196C28.1089 478.838 27.7509 478.374 27.4659 477.804C27.1742 477.228 27.0284 476.512 27.0284 475.657C27.0284 474.543 27.3201 473.516 27.9034 472.574C28.4801 471.633 29.3518 470.881 30.5185 470.317C31.6785 469.754 33.1335 469.472 34.8835 469.472C36.5871 469.472 38.0256 469.747 39.1989 470.297C40.3655 470.841 41.2505 471.583 41.8537 472.525C42.4503 473.459 42.7486 474.507 42.7486 475.667C42.7486 476.489 42.6127 477.188 42.3409 477.765C42.0691 478.335 41.7277 478.802 41.3168 479.167C40.8991 479.531 40.4782 479.81 40.054 480.002V480.191H42.5V484.367ZM34.8636 480.221C35.7718 480.221 36.5639 480.095 37.2401 479.843C37.9162 479.591 38.4432 479.226 38.821 478.749C39.1922 478.272 39.3778 477.692 39.3778 477.009C39.3778 476.319 39.1889 475.736 38.8111 475.259C38.4266 474.782 37.8963 474.42 37.2202 474.175C36.5374 473.923 35.7519 473.797 34.8636 473.797C33.982 473.797 33.2064 473.92 32.5369 474.165C31.8674 474.41 31.3437 474.772 30.9659 475.249C30.5881 475.726 30.3991 476.313 30.3991 477.009C30.3991 477.698 30.5814 478.282 30.946 478.759C31.3106 479.23 31.8277 479.591 32.4972 479.843C33.1667 480.095 33.9555 480.221 34.8636 480.221ZM42.7884 462.29C42.7884 463.265 42.6193 464.133 42.2813 464.896C41.9366 465.658 41.4295 466.261 40.7599 466.705C40.0838 467.143 39.242 467.362 38.2344 467.362C37.3859 467.362 36.6733 467.206 36.0966 466.894C35.5199 466.583 35.0559 466.158 34.7045 465.621C34.3532 465.085 34.0881 464.475 33.9091 463.792C33.7301 463.103 33.6042 462.38 33.5313 461.624C33.4384 460.736 33.3523 460.02 33.2727 459.477C33.1866 458.933 33.0606 458.539 32.8949 458.293C32.7292 458.048 32.4839 457.925 32.1591 457.925H32.0994C31.4697 457.925 30.9825 458.124 30.6378 458.522C30.2931 458.913 30.1207 459.47 30.1207 460.192C30.1207 460.955 30.2898 461.561 30.6278 462.012C30.9593 462.463 31.3769 462.761 31.8807 462.907L31.5625 466.825C30.6345 466.626 29.8324 466.235 29.1563 465.651C28.4735 465.068 27.9498 464.316 27.5852 463.394C27.214 462.466 27.0284 461.392 27.0284 460.173C27.0284 459.324 27.1278 458.512 27.3267 457.737C27.5256 456.954 27.8338 456.262 28.2514 455.658C28.669 455.049 29.206 454.568 29.8622 454.217C30.5118 453.865 31.2907 453.69 32.1989 453.69H42.5V457.707H40.3821V457.826C40.8594 458.071 41.2803 458.399 41.6449 458.81C42.0028 459.221 42.2846 459.715 42.4901 460.292C42.6889 460.869 42.7884 461.535 42.7884 462.29ZM39.8651 461.077C39.8651 460.454 39.7424 459.904 39.4972 459.427C39.2453 458.95 38.9072 458.575 38.483 458.303C38.0587 458.031 37.5781 457.896 37.0412 457.896H35.4205C35.5066 458.028 35.5862 458.21 35.6591 458.442C35.7254 458.668 35.7884 458.923 35.848 459.208C35.901 459.493 35.9508 459.778 35.9972 460.063C36.0369 460.348 36.0734 460.607 36.1065 460.839C36.1795 461.336 36.2955 461.77 36.4545 462.141C36.6136 462.513 36.8291 462.801 37.1009 463.006C37.366 463.212 37.6974 463.315 38.0952 463.315C38.6719 463.315 39.1127 463.106 39.4176 462.688C39.7159 462.264 39.8651 461.727 39.8651 461.077ZM42.5 450.403H27.2273V446.297H29.892V446.138C28.9441 445.859 28.2282 445.392 27.7443 444.736C27.2538 444.08 27.0085 443.324 27.0085 442.469C27.0085 442.257 27.0218 442.028 27.0483 441.783C27.0748 441.537 27.1113 441.322 27.1577 441.136H30.9162C30.8565 441.335 30.8035 441.61 30.7571 441.962C30.7107 442.313 30.6875 442.634 30.6875 442.926C30.6875 443.549 30.8234 444.106 31.0952 444.597C31.3603 445.08 31.7315 445.465 32.2088 445.75C32.6861 446.028 33.2363 446.168 33.8594 446.168H42.5V450.403Z" fill="white"/>
<rect width="1851" height="65" transform="translate(69)" fill="#4B7EDE"/>
<path d="M946.27 42.5V22.1364H950.575V30.5384H959.315V22.1364H963.611V42.5H959.315V34.0881H950.575V42.5H946.27ZM974.041 42.7983C972.47 42.7983 971.118 42.4801 969.984 41.8438C968.857 41.2008 967.989 40.2926 967.379 39.1193C966.769 37.9394 966.464 36.544 966.464 34.9332C966.464 33.3622 966.769 31.9834 967.379 30.7969C967.989 29.6103 968.848 28.6856 969.955 28.0227C971.068 27.3598 972.374 27.0284 973.872 27.0284C974.88 27.0284 975.818 27.1908 976.686 27.5156C977.561 27.8338 978.323 28.3144 978.973 28.9574C979.629 29.6004 980.14 30.4091 980.504 31.3835C980.869 32.3513 981.051 33.4848 981.051 34.7841V35.9474H968.155V33.3224H977.064C977.064 32.7126 976.931 32.1723 976.666 31.7017C976.401 31.2311 976.033 30.8632 975.562 30.598C975.098 30.3262 974.558 30.1903 973.942 30.1903C973.299 30.1903 972.729 30.3395 972.232 30.6378C971.741 30.9295 971.357 31.3239 971.078 31.821C970.8 32.3116 970.657 32.8584 970.651 33.4616V35.9574C970.651 36.7131 970.79 37.366 971.068 37.9162C971.353 38.4664 971.754 38.8906 972.271 39.1889C972.788 39.4872 973.402 39.6364 974.111 39.6364C974.581 39.6364 975.012 39.5701 975.403 39.4375C975.795 39.3049 976.129 39.1061 976.408 38.8409C976.686 38.5758 976.898 38.2509 977.044 37.8665L980.962 38.125C980.763 39.0663 980.355 39.8883 979.739 40.5909C979.129 41.2869 978.34 41.8305 977.372 42.2216C976.411 42.6061 975.301 42.7983 974.041 42.7983ZM988.17 42.7884C987.196 42.7884 986.328 42.6193 985.565 42.2812C984.803 41.9366 984.2 41.4295 983.756 40.7599C983.318 40.0838 983.099 39.242 983.099 38.2344C983.099 37.3859 983.255 36.6733 983.567 36.0966C983.878 35.5199 984.303 35.0559 984.839 34.7045C985.376 34.3532 985.986 34.0881 986.669 33.9091C987.358 33.7301 988.081 33.6042 988.837 33.5312C989.725 33.4384 990.441 33.3523 990.984 33.2727C991.528 33.1866 991.922 33.0606 992.168 32.8949C992.413 32.7292 992.536 32.4839 992.536 32.1591V32.0994C992.536 31.4697 992.337 30.9825 991.939 30.6378C991.548 30.2931 990.991 30.1207 990.268 30.1207C989.506 30.1207 988.9 30.2898 988.449 30.6278C987.998 30.9593 987.7 31.3769 987.554 31.8807L983.636 31.5625C983.835 30.6345 984.226 29.8324 984.81 29.1562C985.393 28.4735 986.145 27.9498 987.067 27.5852C987.995 27.214 989.069 27.0284 990.288 27.0284C991.137 27.0284 991.949 27.1278 992.724 27.3267C993.507 27.5256 994.199 27.8338 994.803 28.2514C995.412 28.669 995.893 29.206 996.244 29.8622C996.596 30.5118 996.771 31.2907 996.771 32.1989V42.5H992.754V40.3821H992.635C992.39 40.8594 992.062 41.2803 991.651 41.6449C991.24 42.0028 990.746 42.2846 990.169 42.4901C989.592 42.6889 988.926 42.7884 988.17 42.7884ZM989.384 39.8651C990.007 39.8651 990.557 39.7424 991.034 39.4972C991.511 39.2453 991.886 38.9072 992.158 38.483C992.429 38.0587 992.565 37.5781 992.565 37.0412V35.4205C992.433 35.5066 992.25 35.5862 992.018 35.6591C991.793 35.7254 991.538 35.7884 991.253 35.848C990.968 35.901 990.683 35.9508 990.398 35.9972C990.113 36.0369 989.854 36.0734 989.622 36.1065C989.125 36.1795 988.691 36.2955 988.32 36.4545C987.948 36.6136 987.66 36.8291 987.455 37.1009C987.249 37.366 987.146 37.6974 987.146 38.0952C987.146 38.6719 987.355 39.1127 987.773 39.4176C988.197 39.7159 988.734 39.8651 989.384 39.8651ZM1005.69 42.7486C1004.53 42.7486 1003.47 42.4503 1002.53 41.8537C1001.6 41.2505 1000.86 40.3655 1000.31 39.1989C999.763 38.0256 999.491 36.5871 999.491 34.8835C999.491 33.1335 999.772 31.6785 1000.34 30.5185C1000.9 29.3518 1001.65 28.4801 1002.58 27.9034C1003.52 27.3201 1004.56 27.0284 1005.68 27.0284C1006.53 27.0284 1007.24 27.1742 1007.81 27.4659C1008.39 27.7509 1008.85 28.1089 1009.21 28.5398C1009.56 28.964 1009.83 29.3816 1010.02 29.7926H1010.15V22.1364H1014.38V42.5H1010.2V40.054H1010.02C1009.82 40.4782 1009.54 40.8991 1009.18 41.3168C1008.82 41.7277 1008.35 42.0691 1007.77 42.3409C1007.2 42.6127 1006.51 42.7486 1005.69 42.7486ZM1007.03 39.3778C1007.71 39.3778 1008.29 39.1922 1008.76 38.821C1009.24 38.4432 1009.6 37.9162 1009.85 37.2401C1010.11 36.5639 1010.24 35.7718 1010.24 34.8636C1010.24 33.9555 1010.11 33.1667 1009.86 32.4972C1009.61 31.8277 1009.25 31.3106 1008.77 30.946C1008.29 30.5814 1007.71 30.3991 1007.03 30.3991C1006.33 30.3991 1005.75 30.5881 1005.27 30.9659C1004.79 31.3437 1004.43 31.8674 1004.18 32.5369C1003.94 33.2064 1003.82 33.982 1003.82 34.8636C1003.82 35.7519 1003.94 36.5374 1004.18 37.2202C1004.44 37.8963 1004.8 38.4266 1005.27 38.8111C1005.75 39.1889 1006.33 39.3778 1007.03 39.3778ZM1024.82 42.7983C1023.25 42.7983 1021.9 42.4801 1020.76 41.8438C1019.63 41.2008 1018.77 40.2926 1018.16 39.1193C1017.55 37.9394 1017.24 36.544 1017.24 34.9332C1017.24 33.3622 1017.55 31.9834 1018.16 30.7969C1018.77 29.6103 1019.62 28.6856 1020.73 28.0227C1021.85 27.3598 1023.15 27.0284 1024.65 27.0284C1025.66 27.0284 1026.6 27.1908 1027.46 27.5156C1028.34 27.8338 1029.1 28.3144 1029.75 28.9574C1030.41 29.6004 1030.92 30.4091 1031.28 31.3835C1031.65 32.3513 1031.83 33.4848 1031.83 34.7841V35.9474H1018.93V33.3224H1027.84C1027.84 32.7126 1027.71 32.1723 1027.44 31.7017C1027.18 31.2311 1026.81 30.8632 1026.34 30.598C1025.88 30.3262 1025.34 30.1903 1024.72 30.1903C1024.08 30.1903 1023.51 30.3395 1023.01 30.6378C1022.52 30.9295 1022.13 31.3239 1021.86 31.821C1021.58 32.3116 1021.43 32.8584 1021.43 33.4616V35.9574C1021.43 36.7131 1021.57 37.366 1021.85 37.9162C1022.13 38.4664 1022.53 38.8906 1023.05 39.1889C1023.57 39.4872 1024.18 39.6364 1024.89 39.6364C1025.36 39.6364 1025.79 39.5701 1026.18 39.4375C1026.57 39.3049 1026.91 39.1061 1027.19 38.8409C1027.46 38.5758 1027.68 38.2509 1027.82 37.8665L1031.74 38.125C1031.54 39.0663 1031.13 39.8883 1030.52 40.5909C1029.91 41.2869 1029.12 41.8305 1028.15 42.2216C1027.19 42.6061 1026.08 42.7983 1024.82 42.7983ZM1034.59 42.5V27.2273H1038.7V29.892H1038.86C1039.14 28.9441 1039.6 28.2282 1040.26 27.7443C1040.92 27.2538 1041.67 27.0085 1042.53 27.0085C1042.74 27.0085 1042.97 27.0218 1043.21 27.0483C1043.46 27.0748 1043.67 27.1113 1043.86 27.1577V30.9162C1043.66 30.8565 1043.39 30.8035 1043.03 30.7571C1042.68 30.7107 1042.36 30.6875 1042.07 30.6875C1041.45 30.6875 1040.89 30.8234 1040.4 31.0952C1039.92 31.3603 1039.53 31.7315 1039.25 32.2088C1038.97 32.6861 1038.83 33.2363 1038.83 33.8594V42.5H1034.59Z" fill="white"/>
<rect width="1851" height="827" transform="translate(69 69)" fill="#7366D9"/>
<path d="M947.737 479.266H943.382C943.303 478.702 943.14 478.202 942.895 477.764C942.65 477.32 942.335 476.942 941.95 476.631C941.566 476.319 941.122 476.08 940.618 475.915C940.121 475.749 939.58 475.666 938.997 475.666C937.943 475.666 937.025 475.928 936.243 476.452C935.461 476.969 934.854 477.724 934.423 478.719C933.992 479.706 933.777 480.906 933.777 482.318C933.777 483.77 933.992 484.99 934.423 485.977C934.861 486.965 935.471 487.711 936.253 488.214C937.035 488.718 937.94 488.97 938.967 488.97C939.544 488.97 940.078 488.894 940.568 488.741C941.065 488.589 941.506 488.367 941.891 488.075C942.275 487.777 942.593 487.416 942.845 486.991C943.104 486.567 943.283 486.083 943.382 485.54L947.737 485.56C947.625 486.494 947.343 487.396 946.892 488.264C946.448 489.126 945.848 489.898 945.092 490.581C944.343 491.257 943.448 491.794 942.408 492.192C941.374 492.583 940.204 492.778 938.898 492.778C937.081 492.778 935.457 492.367 934.026 491.545C932.6 490.723 931.473 489.534 930.645 487.976C929.823 486.418 929.412 484.532 929.412 482.318C929.412 480.098 929.83 478.208 930.665 476.651C931.5 475.093 932.634 473.906 934.065 473.091C935.497 472.269 937.108 471.858 938.898 471.858C940.078 471.858 941.171 472.024 942.179 472.355C943.193 472.687 944.091 473.17 944.874 473.807C945.656 474.437 946.292 475.209 946.783 476.124C947.28 477.038 947.598 478.086 947.737 479.266ZM954.981 483.67V492.5H950.745V472.136H954.862V479.922H955.04C955.385 479.02 955.942 478.314 956.711 477.804C957.48 477.287 958.444 477.028 959.604 477.028C960.665 477.028 961.59 477.26 962.379 477.724C963.174 478.182 963.79 478.841 964.228 479.703C964.672 480.558 964.891 481.582 964.884 482.776V492.5H960.648V483.531C960.655 482.59 960.416 481.857 959.933 481.334C959.455 480.81 958.786 480.548 957.924 480.548C957.347 480.548 956.837 480.671 956.393 480.916C955.955 481.161 955.611 481.519 955.359 481.99C955.113 482.454 954.987 483.014 954.981 483.67ZM972.573 492.788C971.598 492.788 970.73 492.619 969.968 492.281C969.205 491.937 968.602 491.429 968.158 490.76C967.721 490.084 967.502 489.242 967.502 488.234C967.502 487.386 967.658 486.673 967.969 486.097C968.281 485.52 968.705 485.056 969.242 484.705C969.779 484.353 970.389 484.088 971.071 483.909C971.761 483.73 972.483 483.604 973.239 483.531C974.127 483.438 974.843 483.352 975.387 483.273C975.93 483.187 976.325 483.061 976.57 482.895C976.815 482.729 976.938 482.484 976.938 482.159V482.099C976.938 481.47 976.739 480.982 976.341 480.638C975.95 480.293 975.393 480.121 974.671 480.121C973.908 480.121 973.302 480.29 972.851 480.628C972.4 480.959 972.102 481.377 971.956 481.881L968.039 481.562C968.238 480.634 968.629 479.832 969.212 479.156C969.795 478.473 970.548 477.95 971.469 477.585C972.397 477.214 973.471 477.028 974.691 477.028C975.539 477.028 976.351 477.128 977.127 477.327C977.909 477.526 978.602 477.834 979.205 478.251C979.815 478.669 980.295 479.206 980.647 479.862C980.998 480.512 981.174 481.291 981.174 482.199V492.5H977.157V490.382H977.037C976.792 490.859 976.464 491.28 976.053 491.645C975.642 492.003 975.148 492.285 974.571 492.49C973.995 492.689 973.328 492.788 972.573 492.788ZM973.786 489.865C974.409 489.865 974.959 489.742 975.436 489.497C975.914 489.245 976.288 488.907 976.56 488.483C976.832 488.059 976.968 487.578 976.968 487.041V485.42C976.835 485.507 976.653 485.586 976.421 485.659C976.195 485.725 975.94 485.788 975.655 485.848C975.37 485.901 975.085 485.951 974.8 485.997C974.515 486.037 974.257 486.073 974.025 486.107C973.527 486.179 973.093 486.295 972.722 486.455C972.351 486.614 972.062 486.829 971.857 487.101C971.651 487.366 971.549 487.697 971.549 488.095C971.549 488.672 971.757 489.113 972.175 489.418C972.599 489.716 973.136 489.865 973.786 489.865ZM992.583 477.227V480.409H983.386V477.227H992.583ZM985.474 473.568H989.71V487.807C989.71 488.198 989.77 488.503 989.889 488.722C990.008 488.934 990.174 489.083 990.386 489.169C990.605 489.255 990.857 489.298 991.142 489.298C991.341 489.298 991.539 489.282 991.738 489.249C991.937 489.209 992.09 489.179 992.196 489.159L992.862 492.311C992.65 492.377 992.351 492.454 991.967 492.54C991.583 492.633 991.115 492.689 990.565 492.709C989.544 492.749 988.649 492.613 987.88 492.301C987.118 491.99 986.525 491.506 986.1 490.849C985.676 490.193 985.467 489.365 985.474 488.364V473.568ZM1006.18 492.788C1005.2 492.788 1004.34 492.619 1003.57 492.281C1002.81 491.937 1002.21 491.429 1001.76 490.76C1001.33 490.084 1001.11 489.242 1001.11 488.234C1001.11 487.386 1001.26 486.673 1001.57 486.097C1001.89 485.52 1002.31 485.056 1002.85 484.705C1003.38 484.353 1003.99 484.088 1004.68 483.909C1005.37 483.73 1006.09 483.604 1006.84 483.531C1007.73 483.438 1008.45 483.352 1008.99 483.273C1009.54 483.187 1009.93 483.061 1010.18 482.895C1010.42 482.729 1010.54 482.484 1010.54 482.159V482.099C1010.54 481.47 1010.34 480.982 1009.95 480.638C1009.56 480.293 1009 480.121 1008.28 480.121C1007.51 480.121 1006.91 480.29 1006.46 480.628C1006.01 480.959 1005.71 481.377 1005.56 481.881L1001.64 481.562C1001.84 480.634 1002.23 479.832 1002.82 479.156C1003.4 478.473 1004.15 477.95 1005.07 477.585C1006 477.214 1007.08 477.028 1008.3 477.028C1009.14 477.028 1009.96 477.128 1010.73 477.327C1011.51 477.526 1012.21 477.834 1012.81 478.251C1013.42 478.669 1013.9 479.206 1014.25 479.862C1014.6 480.512 1014.78 481.291 1014.78 482.199V492.5H1010.76V490.382H1010.64C1010.4 490.859 1010.07 491.28 1009.66 491.645C1009.25 492.003 1008.75 492.285 1008.18 492.49C1007.6 492.689 1006.93 492.788 1006.18 492.788ZM1007.39 489.865C1008.01 489.865 1008.56 489.742 1009.04 489.497C1009.52 489.245 1009.89 488.907 1010.17 488.483C1010.44 488.059 1010.57 487.578 1010.57 487.041V485.42C1010.44 485.507 1010.26 485.586 1010.03 485.659C1009.8 485.725 1009.55 485.788 1009.26 485.848C1008.98 485.901 1008.69 485.951 1008.41 485.997C1008.12 486.037 1007.86 486.073 1007.63 486.107C1007.13 486.179 1006.7 486.295 1006.33 486.455C1005.96 486.614 1005.67 486.829 1005.46 487.101C1005.26 487.366 1005.15 487.697 1005.15 488.095C1005.15 488.672 1005.36 489.113 1005.78 489.418C1006.2 489.716 1006.74 489.865 1007.39 489.865ZM1018.07 492.5V477.227H1022.17V479.892H1022.33C1022.61 478.944 1023.08 478.228 1023.73 477.744C1024.39 477.254 1025.14 477.009 1026 477.009C1026.21 477.009 1026.44 477.022 1026.69 477.048C1026.93 477.075 1027.15 477.111 1027.33 477.158V480.916C1027.13 480.857 1026.86 480.804 1026.51 480.757C1026.16 480.711 1025.83 480.688 1025.54 480.688C1024.92 480.688 1024.36 480.823 1023.87 481.095C1023.39 481.36 1023 481.732 1022.72 482.209C1022.44 482.686 1022.3 483.236 1022.3 483.859V492.5H1018.07ZM1035.77 492.798C1034.2 492.798 1032.85 492.48 1031.71 491.844C1030.59 491.201 1029.72 490.293 1029.11 489.119C1028.5 487.939 1028.19 486.544 1028.19 484.933C1028.19 483.362 1028.5 481.983 1029.11 480.797C1029.72 479.61 1030.58 478.686 1031.69 478.023C1032.8 477.36 1034.1 477.028 1035.6 477.028C1036.61 477.028 1037.55 477.191 1038.42 477.516C1039.29 477.834 1040.05 478.314 1040.7 478.957C1041.36 479.6 1041.87 480.409 1042.23 481.384C1042.6 482.351 1042.78 483.485 1042.78 484.784V485.947H1029.89V483.322H1038.79C1038.79 482.713 1038.66 482.172 1038.4 481.702C1038.13 481.231 1037.76 480.863 1037.29 480.598C1036.83 480.326 1036.29 480.19 1035.67 480.19C1035.03 480.19 1034.46 480.339 1033.96 480.638C1033.47 480.929 1033.09 481.324 1032.81 481.821C1032.53 482.312 1032.39 482.858 1032.38 483.462V485.957C1032.38 486.713 1032.52 487.366 1032.8 487.916C1033.08 488.466 1033.48 488.891 1034 489.189C1034.52 489.487 1035.13 489.636 1035.84 489.636C1036.31 489.636 1036.74 489.57 1037.13 489.438C1037.52 489.305 1037.86 489.106 1038.14 488.841C1038.42 488.576 1038.63 488.251 1038.77 487.866L1042.69 488.125C1042.49 489.066 1042.09 489.888 1041.47 490.591C1040.86 491.287 1040.07 491.83 1039.1 492.222C1038.14 492.606 1037.03 492.798 1035.77 492.798ZM1049.9 492.788C1048.93 492.788 1048.06 492.619 1047.3 492.281C1046.53 491.937 1045.93 491.429 1045.49 490.76C1045.05 490.084 1044.83 489.242 1044.83 488.234C1044.83 487.386 1044.99 486.673 1045.3 486.097C1045.61 485.52 1046.03 485.056 1046.57 484.705C1047.11 484.353 1047.72 484.088 1048.4 483.909C1049.09 483.73 1049.81 483.604 1050.57 483.531C1051.46 483.438 1052.17 483.352 1052.71 483.273C1053.26 483.187 1053.65 483.061 1053.9 482.895C1054.14 482.729 1054.27 482.484 1054.27 482.159V482.099C1054.27 481.47 1054.07 480.982 1053.67 480.638C1053.28 480.293 1052.72 480.121 1052 480.121C1051.24 480.121 1050.63 480.29 1050.18 480.628C1049.73 480.959 1049.43 481.377 1049.28 481.881L1045.37 481.562C1045.57 480.634 1045.96 479.832 1046.54 479.156C1047.12 478.473 1047.88 477.95 1048.8 477.585C1049.73 477.214 1050.8 477.028 1052.02 477.028C1052.87 477.028 1053.68 477.128 1054.45 477.327C1055.24 477.526 1055.93 477.834 1056.53 478.251C1057.14 478.669 1057.62 479.206 1057.97 479.862C1058.33 480.512 1058.5 481.291 1058.5 482.199V492.5H1054.48V490.382H1054.37C1054.12 490.859 1053.79 491.28 1053.38 491.645C1052.97 492.003 1052.48 492.285 1051.9 492.49C1051.32 492.689 1050.66 492.788 1049.9 492.788ZM1051.11 489.865C1051.74 489.865 1052.29 489.742 1052.76 489.497C1053.24 489.245 1053.62 488.907 1053.89 488.483C1054.16 488.059 1054.3 487.578 1054.3 487.041V485.42C1054.16 485.507 1053.98 485.586 1053.75 485.659C1053.52 485.725 1053.27 485.788 1052.98 485.848C1052.7 485.901 1052.41 485.951 1052.13 485.997C1051.84 486.037 1051.58 486.073 1051.35 486.107C1050.86 486.179 1050.42 486.295 1050.05 486.455C1049.68 486.614 1049.39 486.829 1049.19 487.101C1048.98 487.366 1048.88 487.697 1048.88 488.095C1048.88 488.672 1049.09 489.113 1049.5 489.418C1049.93 489.716 1050.46 489.865 1051.11 489.865Z" fill="white"/>
<rect width="1851" height="180" transform="translate(69 900)" fill="#8656C8"/>
<path d="M952.737 986.766H948.382C948.303 986.202 948.14 985.702 947.895 985.264C947.65 984.82 947.335 984.442 946.95 984.131C946.566 983.819 946.122 983.58 945.618 983.415C945.121 983.249 944.58 983.166 943.997 983.166C942.943 983.166 942.025 983.428 941.243 983.952C940.461 984.469 939.854 985.224 939.423 986.219C938.992 987.206 938.777 988.406 938.777 989.818C938.777 991.27 938.992 992.49 939.423 993.477C939.861 994.465 940.471 995.211 941.253 995.714C942.035 996.218 942.94 996.47 943.967 996.47C944.544 996.47 945.078 996.394 945.568 996.241C946.065 996.089 946.506 995.867 946.891 995.575C947.275 995.277 947.593 994.916 947.845 994.491C948.104 994.067 948.283 993.583 948.382 993.04L952.737 993.06C952.625 993.994 952.343 994.896 951.892 995.764C951.448 996.626 950.848 997.398 950.092 998.081C949.343 998.757 948.448 999.294 947.408 999.692C946.374 1000.08 945.204 1000.28 943.898 1000.28C942.081 1000.28 940.457 999.867 939.026 999.045C937.6 998.223 936.473 997.034 935.645 995.476C934.823 993.918 934.412 992.032 934.412 989.818C934.412 987.598 934.83 985.708 935.665 984.151C936.5 982.593 937.634 981.406 939.065 980.591C940.497 979.769 942.108 979.358 943.898 979.358C945.078 979.358 946.171 979.524 947.179 979.855C948.193 980.187 949.091 980.67 949.874 981.307C950.656 981.937 951.292 982.709 951.783 983.624C952.28 984.538 952.598 985.586 952.737 986.766ZM959.981 991.17V1000H955.745V979.636H959.862V987.422H960.04C960.385 986.52 960.942 985.814 961.711 985.304C962.48 984.787 963.444 984.528 964.604 984.528C965.665 984.528 966.59 984.76 967.379 985.224C968.174 985.682 968.79 986.341 969.228 987.203C969.672 988.058 969.891 989.082 969.884 990.276V1000H965.648V991.031C965.655 990.09 965.416 989.357 964.933 988.834C964.455 988.31 963.786 988.048 962.924 988.048C962.347 988.048 961.837 988.171 961.393 988.416C960.955 988.661 960.611 989.019 960.359 989.49C960.113 989.954 959.987 990.514 959.981 991.17ZM977.573 1000.29C976.598 1000.29 975.73 1000.12 974.968 999.781C974.205 999.437 973.602 998.929 973.158 998.26C972.721 997.584 972.502 996.742 972.502 995.734C972.502 994.886 972.658 994.173 972.969 993.597C973.281 993.02 973.705 992.556 974.242 992.205C974.779 991.853 975.389 991.588 976.071 991.409C976.761 991.23 977.483 991.104 978.239 991.031C979.127 990.938 979.843 990.852 980.387 990.773C980.93 990.687 981.325 990.561 981.57 990.395C981.815 990.229 981.938 989.984 981.938 989.659V989.599C981.938 988.97 981.739 988.482 981.341 988.138C980.95 987.793 980.393 987.621 979.671 987.621C978.908 987.621 978.302 987.79 977.851 988.128C977.4 988.459 977.102 988.877 976.956 989.381L973.039 989.062C973.238 988.134 973.629 987.332 974.212 986.656C974.795 985.973 975.548 985.45 976.469 985.085C977.397 984.714 978.471 984.528 979.691 984.528C980.539 984.528 981.351 984.628 982.127 984.827C982.909 985.026 983.602 985.334 984.205 985.751C984.815 986.169 985.295 986.706 985.647 987.362C985.998 988.012 986.174 988.791 986.174 989.699V1000H982.157V997.882H982.037C981.792 998.359 981.464 998.78 981.053 999.145C980.642 999.503 980.148 999.785 979.571 999.99C978.995 1000.19 978.328 1000.29 977.573 1000.29ZM978.786 997.365C979.409 997.365 979.959 997.242 980.436 996.997C980.914 996.745 981.288 996.407 981.56 995.983C981.832 995.559 981.968 995.078 981.968 994.541V992.92C981.835 993.007 981.653 993.086 981.421 993.159C981.195 993.225 980.94 993.288 980.655 993.348C980.37 993.401 980.085 993.451 979.8 993.497C979.515 993.537 979.257 993.573 979.025 993.607C978.527 993.679 978.093 993.795 977.722 993.955C977.351 994.114 977.062 994.329 976.857 994.601C976.651 994.866 976.549 995.197 976.549 995.595C976.549 996.172 976.757 996.613 977.175 996.918C977.599 997.216 978.136 997.365 978.786 997.365ZM997.583 984.727V987.909H988.386V984.727H997.583ZM990.474 981.068H994.71V995.307C994.71 995.698 994.77 996.003 994.889 996.222C995.008 996.434 995.174 996.583 995.386 996.669C995.605 996.755 995.857 996.798 996.142 996.798C996.341 996.798 996.539 996.782 996.738 996.749C996.937 996.709 997.09 996.679 997.196 996.659L997.862 999.811C997.65 999.877 997.351 999.954 996.967 1000.04C996.583 1000.13 996.115 1000.19 995.565 1000.21C994.544 1000.25 993.649 1000.11 992.88 999.801C992.118 999.49 991.525 999.006 991.1 998.349C990.676 997.693 990.467 996.865 990.474 995.864V981.068ZM1006.9 1000V979.636H1011.14V987.293H1011.27C1011.45 986.882 1011.72 986.464 1012.07 986.04C1012.43 985.609 1012.9 985.251 1013.47 984.966C1014.04 984.674 1014.76 984.528 1015.61 984.528C1016.73 984.528 1017.75 984.82 1018.7 985.403C1019.64 985.98 1020.39 986.852 1020.95 988.018C1021.52 989.179 1021.8 990.634 1021.8 992.384C1021.8 994.087 1021.52 995.526 1020.97 996.699C1020.43 997.866 1019.69 998.75 1018.75 999.354C1017.81 999.95 1016.76 1000.25 1015.6 1000.25C1014.78 1000.25 1014.08 1000.11 1013.5 999.841C1012.93 999.569 1012.47 999.228 1012.1 998.817C1011.74 998.399 1011.46 997.978 1011.27 997.554H1011.08V1000H1006.9ZM1011.05 992.364C1011.05 993.272 1011.17 994.064 1011.43 994.74C1011.68 995.416 1012.04 995.943 1012.52 996.321C1013 996.692 1013.58 996.878 1014.26 996.878C1014.95 996.878 1015.53 996.689 1016.01 996.311C1016.49 995.927 1016.85 995.396 1017.09 994.72C1017.35 994.037 1017.47 993.252 1017.47 992.364C1017.47 991.482 1017.35 990.706 1017.1 990.037C1016.86 989.367 1016.5 988.844 1016.02 988.466C1015.54 988.088 1014.96 987.899 1014.26 987.899C1013.57 987.899 1012.99 988.081 1012.51 988.446C1012.04 988.811 1011.68 989.328 1011.43 989.997C1011.17 990.667 1011.05 991.455 1011.05 992.364ZM1031.52 1000.3C1029.98 1000.3 1028.64 999.97 1027.52 999.314C1026.4 998.651 1025.53 997.73 1024.92 996.55C1024.31 995.363 1024.01 993.988 1024.01 992.423C1024.01 990.846 1024.31 989.467 1024.92 988.287C1025.53 987.1 1026.4 986.179 1027.52 985.523C1028.64 984.86 1029.98 984.528 1031.52 984.528C1033.07 984.528 1034.4 984.86 1035.52 985.523C1036.65 986.179 1037.52 987.1 1038.13 988.287C1038.74 989.467 1039.04 990.846 1039.04 992.423C1039.04 993.988 1038.74 995.363 1038.13 996.55C1037.52 997.73 1036.65 998.651 1035.52 999.314C1034.4 999.97 1033.07 1000.3 1031.52 1000.3ZM1031.54 997.017C1032.25 997.017 1032.83 996.818 1033.3 996.42C1033.77 996.016 1034.13 995.466 1034.37 994.77C1034.61 994.074 1034.74 993.282 1034.74 992.393C1034.74 991.505 1034.61 990.713 1034.37 990.017C1034.13 989.321 1033.77 988.771 1033.3 988.366C1032.83 987.962 1032.25 987.76 1031.54 987.76C1030.84 987.76 1030.24 987.962 1029.75 988.366C1029.28 988.771 1028.92 989.321 1028.67 990.017C1028.43 990.713 1028.31 991.505 1028.31 992.393C1028.31 993.282 1028.43 994.074 1028.67 994.77C1028.92 995.466 1029.28 996.016 1029.75 996.42C1030.24 996.818 1030.84 997.017 1031.54 997.017ZM1044.79 984.727L1047.59 990.067L1050.47 984.727H1054.81L1050.39 992.364L1054.93 1000H1050.61L1047.59 994.72L1044.63 1000H1040.25L1044.79 992.364L1040.41 984.727H1044.79Z" fill="white"/>
</g>
<defs>
<clipPath id="clip0_23186_122749">
<rect width="1920" height="1080" fill="white"/>
</clipPath>
</defs>
</svg>
