<svg width="1352" height="282" viewBox="0 0 1352 282" fill="none" xmlns="http://www.w3.org/2000/svg">
<rect width="1352" height="282" rx="20" fill="#D9D9D9" fill-opacity="0.3"/>
<rect x="46" y="49" width="314" height="185" rx="10" fill="#D9D9D9"/>
<rect x="522" y="49" width="314" height="185" rx="10" fill="#D9D9D9"/>
<rect x="993" y="49" width="314" height="185" rx="10" fill="#D9D9D9"/>
<path d="M171.511 85.1818H174.665L182.079 103.293H182.335L189.75 85.1818H192.903V107H190.432V90.4233H190.219L183.4 107H181.014L174.196 90.4233H173.983V107H171.511V85.1818ZM202.675 107.384C201.638 107.384 200.697 107.188 199.852 106.798C199.007 106.4 198.336 105.828 197.838 105.082C197.341 104.33 197.093 103.42 197.093 102.355C197.093 101.418 197.277 100.658 197.647 100.075C198.016 99.4858 198.51 99.0241 199.127 98.6903C199.745 98.3565 200.427 98.108 201.173 97.9446C201.926 97.7741 202.682 97.6392 203.442 97.5398C204.436 97.4119 205.243 97.3161 205.86 97.2521C206.485 97.1811 206.94 97.0639 207.224 96.9006C207.515 96.7372 207.661 96.4531 207.661 96.0483V95.9631C207.661 94.9119 207.373 94.0952 206.798 93.5128C206.23 92.9304 205.367 92.6392 204.209 92.6392C203.009 92.6392 202.068 92.902 201.386 93.4276C200.704 93.9531 200.225 94.5142 199.948 95.1108L197.561 94.2585C197.988 93.2642 198.556 92.4901 199.266 91.9361C199.983 91.375 200.765 90.9844 201.61 90.7642C202.462 90.5369 203.3 90.4233 204.124 90.4233C204.65 90.4233 205.253 90.4872 205.935 90.6151C206.624 90.7358 207.288 90.9879 207.927 91.3714C208.574 91.755 209.11 92.3338 209.536 93.108C209.962 93.8821 210.175 94.919 210.175 96.2188V107H207.661V104.784H207.533C207.363 105.139 207.078 105.519 206.681 105.924C206.283 106.329 205.754 106.673 205.093 106.957C204.433 107.241 203.627 107.384 202.675 107.384ZM203.059 105.125C204.053 105.125 204.891 104.93 205.573 104.539C206.262 104.148 206.78 103.644 207.128 103.026C207.483 102.408 207.661 101.759 207.661 101.077V98.7756C207.554 98.9034 207.32 99.0206 206.958 99.1271C206.603 99.2266 206.191 99.3153 205.722 99.3935C205.26 99.4645 204.809 99.5284 204.369 99.5852C203.936 99.6349 203.584 99.6776 203.314 99.7131C202.661 99.7983 202.05 99.9368 201.482 100.129C200.921 100.313 200.466 100.594 200.118 100.97C199.777 101.339 199.607 101.844 199.607 102.483C199.607 103.357 199.93 104.017 200.576 104.464C201.23 104.905 202.057 105.125 203.059 105.125ZM214.764 107V90.6364H217.278V107H214.764ZM216.042 87.9091C215.552 87.9091 215.13 87.7422 214.775 87.4084C214.427 87.0746 214.253 86.6733 214.253 86.2045C214.253 85.7358 214.427 85.3345 214.775 85.0007C215.13 84.6669 215.552 84.5 216.042 84.5C216.532 84.5 216.952 84.6669 217.3 85.0007C217.655 85.3345 217.832 85.7358 217.832 86.2045C217.832 86.6733 217.655 87.0746 217.3 87.4084C216.952 87.7422 216.532 87.9091 216.042 87.9091ZM224.397 97.1562V107H221.883V90.6364H224.312V93.1932H224.525C224.909 92.3622 225.491 91.6946 226.272 91.1903C227.054 90.679 228.062 90.4233 229.298 90.4233C230.406 90.4233 231.375 90.6506 232.206 91.1051C233.037 91.5526 233.684 92.2344 234.145 93.1506C234.607 94.0597 234.838 95.2102 234.838 96.6023V107H232.324V96.7727C232.324 95.4872 231.99 94.4858 231.322 93.7685C230.654 93.044 229.738 92.6818 228.574 92.6818C227.771 92.6818 227.054 92.8558 226.422 93.2038C225.797 93.5518 225.303 94.0597 224.941 94.7273C224.578 95.3949 224.397 96.2045 224.397 97.1562ZM169.665 130.182H172.819L180.234 148.293H180.489L187.904 130.182H191.058V152H188.586V135.423H188.373L181.555 152H179.168L172.35 135.423H172.137V152H169.665V130.182ZM202.875 152.341C201.298 152.341 199.938 151.993 198.795 151.297C197.658 150.594 196.781 149.614 196.163 148.357C195.552 147.092 195.247 145.622 195.247 143.946C195.247 142.27 195.552 140.793 196.163 139.514C196.781 138.229 197.64 137.227 198.741 136.51C199.849 135.786 201.142 135.423 202.619 135.423C203.471 135.423 204.313 135.565 205.144 135.849C205.975 136.134 206.731 136.595 207.413 137.234C208.095 137.866 208.638 138.705 209.043 139.749C209.448 140.793 209.65 142.078 209.65 143.605V144.67H197.037V142.497H207.094C207.094 141.574 206.909 140.75 206.54 140.026C206.177 139.301 205.659 138.729 204.984 138.31C204.317 137.891 203.528 137.682 202.619 137.682C201.618 137.682 200.751 137.93 200.02 138.428C199.295 138.918 198.738 139.557 198.347 140.345C197.956 141.134 197.761 141.979 197.761 142.881V144.33C197.761 145.565 197.974 146.613 198.4 147.472C198.834 148.325 199.434 148.974 200.201 149.422C200.968 149.862 201.859 150.082 202.875 150.082C203.535 150.082 204.132 149.99 204.665 149.805C205.204 149.614 205.67 149.33 206.06 148.953C206.451 148.57 206.753 148.094 206.966 147.526L209.395 148.207C209.139 149.031 208.709 149.756 208.106 150.381C207.502 150.999 206.756 151.482 205.868 151.83C204.981 152.17 203.983 152.341 202.875 152.341ZM220.591 135.636V137.767H212.111V135.636H220.591ZM214.583 131.716H217.097V147.312C217.097 148.023 217.2 148.555 217.406 148.911C217.619 149.259 217.889 149.493 218.216 149.614C218.55 149.727 218.901 149.784 219.27 149.784C219.547 149.784 219.775 149.77 219.952 149.741C220.13 149.706 220.272 149.678 220.378 149.656L220.89 151.915C220.719 151.979 220.481 152.043 220.176 152.107C219.871 152.178 219.483 152.213 219.015 152.213C218.305 152.213 217.608 152.06 216.927 151.755C216.252 151.45 215.691 150.984 215.243 150.359C214.803 149.734 214.583 148.946 214.583 147.994V131.716ZM229.189 152.384C228.152 152.384 227.211 152.188 226.366 151.798C225.52 151.4 224.849 150.828 224.352 150.082C223.855 149.33 223.606 148.42 223.606 147.355C223.606 146.418 223.791 145.658 224.16 145.075C224.53 144.486 225.023 144.024 225.641 143.69C226.259 143.357 226.941 143.108 227.687 142.945C228.439 142.774 229.196 142.639 229.956 142.54C230.95 142.412 231.756 142.316 232.374 142.252C232.999 142.181 233.454 142.064 233.738 141.901C234.029 141.737 234.175 141.453 234.175 141.048V140.963C234.175 139.912 233.887 139.095 233.312 138.513C232.743 137.93 231.881 137.639 230.723 137.639C229.523 137.639 228.581 137.902 227.9 138.428C227.218 138.953 226.738 139.514 226.461 140.111L224.075 139.259C224.501 138.264 225.069 137.49 225.78 136.936C226.497 136.375 227.278 135.984 228.123 135.764C228.976 135.537 229.814 135.423 230.638 135.423C231.163 135.423 231.767 135.487 232.449 135.615C233.138 135.736 233.802 135.988 234.441 136.371C235.087 136.755 235.623 137.334 236.05 138.108C236.476 138.882 236.689 139.919 236.689 141.219V152H234.175V149.784H234.047C233.876 150.139 233.592 150.519 233.194 150.924C232.797 151.329 232.268 151.673 231.607 151.957C230.947 152.241 230.14 152.384 229.189 152.384ZM229.572 150.125C230.567 150.125 231.405 149.93 232.086 149.539C232.775 149.148 233.294 148.644 233.642 148.026C233.997 147.408 234.175 146.759 234.175 146.077V143.776C234.068 143.903 233.834 144.021 233.471 144.127C233.116 144.227 232.704 144.315 232.236 144.393C231.774 144.464 231.323 144.528 230.883 144.585C230.449 144.635 230.098 144.678 229.828 144.713C229.175 144.798 228.564 144.937 227.996 145.129C227.434 145.313 226.98 145.594 226.632 145.97C226.291 146.339 226.121 146.844 226.121 147.483C226.121 148.357 226.444 149.017 227.09 149.464C227.743 149.905 228.571 150.125 229.572 150.125ZM160.547 180.636C160.42 179.557 159.901 178.719 158.992 178.122C158.083 177.526 156.968 177.227 155.647 177.227C154.681 177.227 153.836 177.384 153.111 177.696C152.394 178.009 151.833 178.438 151.428 178.985C151.03 179.532 150.832 180.153 150.832 180.849C150.832 181.432 150.97 181.933 151.247 182.352C151.531 182.763 151.893 183.108 152.334 183.385C152.774 183.655 153.236 183.879 153.719 184.056C154.202 184.227 154.646 184.365 155.05 184.472L157.266 185.068C157.834 185.217 158.467 185.423 159.163 185.686C159.866 185.949 160.537 186.308 161.176 186.762C161.822 187.21 162.355 187.785 162.774 188.488C163.193 189.191 163.403 190.054 163.403 191.077C163.403 192.256 163.094 193.321 162.476 194.273C161.865 195.224 160.97 195.981 159.791 196.542C158.619 197.103 157.195 197.384 155.519 197.384C153.957 197.384 152.604 197.131 151.46 196.627C150.324 196.123 149.429 195.42 148.775 194.518C148.129 193.616 147.763 192.568 147.678 191.375H150.405C150.476 192.199 150.753 192.881 151.236 193.42C151.726 193.953 152.344 194.351 153.09 194.614C153.843 194.869 154.653 194.997 155.519 194.997C156.528 194.997 157.433 194.834 158.236 194.507C159.038 194.173 159.674 193.712 160.143 193.122C160.611 192.526 160.846 191.83 160.846 191.034C160.846 190.31 160.643 189.72 160.239 189.266C159.834 188.811 159.301 188.442 158.641 188.158C157.98 187.874 157.266 187.625 156.499 187.412L153.815 186.645C152.11 186.155 150.761 185.455 149.766 184.546C148.772 183.637 148.275 182.447 148.275 180.977C148.275 179.756 148.605 178.69 149.266 177.781C149.933 176.865 150.828 176.155 151.95 175.651C153.079 175.139 154.34 174.884 155.732 174.884C157.138 174.884 158.388 175.136 159.482 175.64C160.576 176.137 161.442 176.819 162.082 177.685C162.728 178.552 163.069 179.536 163.104 180.636H160.547ZM174.053 197.341C172.519 197.341 171.198 196.979 170.09 196.254C168.982 195.53 168.13 194.532 167.533 193.261C166.937 191.989 166.639 190.537 166.639 188.903C166.639 187.241 166.944 185.775 167.555 184.504C168.173 183.225 169.032 182.227 170.133 181.51C171.241 180.786 172.533 180.423 174.011 180.423C175.161 180.423 176.198 180.636 177.122 181.062C178.045 181.489 178.801 182.085 179.391 182.852C179.98 183.619 180.346 184.514 180.488 185.537H177.974C177.782 184.791 177.356 184.131 176.695 183.555C176.042 182.973 175.161 182.682 174.053 182.682C173.073 182.682 172.214 182.937 171.475 183.449C170.744 183.953 170.172 184.667 169.76 185.59C169.355 186.506 169.153 187.582 169.153 188.818C169.153 190.082 169.352 191.183 169.749 192.121C170.154 193.058 170.722 193.786 171.454 194.305C172.193 194.823 173.059 195.082 174.053 195.082C174.707 195.082 175.3 194.969 175.832 194.741C176.365 194.514 176.816 194.188 177.185 193.761C177.555 193.335 177.818 192.824 177.974 192.227H180.488C180.346 193.193 179.994 194.063 179.433 194.837C178.879 195.604 178.144 196.215 177.228 196.67C176.319 197.117 175.261 197.341 174.053 197.341ZM186.678 187.156V197H184.163V175.182H186.678V183.193H186.891C187.274 182.348 187.85 181.677 188.617 181.18C189.391 180.675 190.421 180.423 191.706 180.423C192.821 180.423 193.798 180.647 194.636 181.094C195.474 181.535 196.124 182.213 196.585 183.129C197.054 184.038 197.288 185.196 197.288 186.602V197H194.774V186.773C194.774 185.473 194.437 184.468 193.762 183.758C193.095 183.04 192.168 182.682 190.982 182.682C190.158 182.682 189.419 182.856 188.766 183.204C188.119 183.552 187.608 184.06 187.232 184.727C186.862 185.395 186.678 186.205 186.678 187.156ZM208.749 197.341C207.172 197.341 205.812 196.993 204.669 196.297C203.532 195.594 202.655 194.614 202.037 193.357C201.426 192.092 201.121 190.622 201.121 188.946C201.121 187.27 201.426 185.793 202.037 184.514C202.655 183.229 203.514 182.227 204.615 181.51C205.723 180.786 207.016 180.423 208.493 180.423C209.345 180.423 210.187 180.565 211.018 180.849C211.849 181.134 212.605 181.595 213.287 182.234C213.969 182.866 214.512 183.705 214.917 184.749C215.322 185.793 215.524 187.078 215.524 188.605V189.67H202.911V187.497H212.968C212.968 186.574 212.783 185.75 212.414 185.026C212.051 184.301 211.533 183.729 210.858 183.31C210.191 182.891 209.402 182.682 208.493 182.682C207.492 182.682 206.625 182.93 205.894 183.428C205.169 183.918 204.612 184.557 204.221 185.345C203.831 186.134 203.635 186.979 203.635 187.881V189.33C203.635 190.565 203.848 191.613 204.274 192.472C204.708 193.325 205.308 193.974 206.075 194.422C206.842 194.862 207.733 195.082 208.749 195.082C209.409 195.082 210.006 194.99 210.539 194.805C211.078 194.614 211.544 194.33 211.934 193.953C212.325 193.57 212.627 193.094 212.84 192.526L215.269 193.207C215.013 194.031 214.583 194.756 213.98 195.381C213.376 195.999 212.63 196.482 211.742 196.83C210.855 197.17 209.857 197.341 208.749 197.341ZM219.349 197V180.636H221.778V183.193H221.991C222.332 182.32 222.882 181.641 223.642 181.158C224.402 180.668 225.315 180.423 226.38 180.423C227.46 180.423 228.358 180.668 229.076 181.158C229.8 181.641 230.365 182.32 230.769 183.193H230.94C231.359 182.348 231.987 181.677 232.826 181.18C233.664 180.675 234.669 180.423 235.84 180.423C237.304 180.423 238.5 180.881 239.431 181.798C240.361 182.707 240.826 184.124 240.826 186.048V197H238.312V186.048C238.312 184.841 237.982 183.978 237.321 183.46C236.661 182.941 235.883 182.682 234.988 182.682C233.838 182.682 232.946 183.03 232.314 183.726C231.682 184.415 231.366 185.288 231.366 186.347V197H228.809V185.793C228.809 184.862 228.507 184.113 227.904 183.545C227.3 182.969 226.522 182.682 225.571 182.682C224.917 182.682 224.306 182.856 223.738 183.204C223.177 183.552 222.723 184.035 222.375 184.653C222.034 185.263 221.863 185.97 221.863 186.773V197H219.349ZM250.239 197.384C249.202 197.384 248.261 197.188 247.415 196.798C246.57 196.4 245.899 195.828 245.402 195.082C244.905 194.33 244.656 193.42 244.656 192.355C244.656 191.418 244.841 190.658 245.21 190.075C245.579 189.486 246.073 189.024 246.691 188.69C247.309 188.357 247.991 188.108 248.736 187.945C249.489 187.774 250.246 187.639 251.006 187.54C252 187.412 252.806 187.316 253.424 187.252C254.049 187.181 254.503 187.064 254.788 186.901C255.079 186.737 255.224 186.453 255.224 186.048V185.963C255.224 184.912 254.937 184.095 254.361 183.513C253.793 182.93 252.93 182.639 251.773 182.639C250.572 182.639 249.631 182.902 248.949 183.428C248.268 183.953 247.788 184.514 247.511 185.111L245.125 184.259C245.551 183.264 246.119 182.49 246.829 181.936C247.547 181.375 248.328 180.984 249.173 180.764C250.025 180.537 250.864 180.423 251.687 180.423C252.213 180.423 252.817 180.487 253.498 180.615C254.187 180.736 254.851 180.988 255.491 181.371C256.137 181.755 256.673 182.334 257.099 183.108C257.525 183.882 257.739 184.919 257.739 186.219V197H255.224V194.784H255.097C254.926 195.139 254.642 195.519 254.244 195.924C253.847 196.329 253.317 196.673 252.657 196.957C251.996 197.241 251.19 197.384 250.239 197.384ZM250.622 195.125C251.616 195.125 252.454 194.93 253.136 194.539C253.825 194.148 254.344 193.644 254.692 193.026C255.047 192.408 255.224 191.759 255.224 191.077V188.776C255.118 188.903 254.883 189.021 254.521 189.127C254.166 189.227 253.754 189.315 253.285 189.393C252.824 189.464 252.373 189.528 251.932 189.585C251.499 189.635 251.148 189.678 250.878 189.713C250.224 189.798 249.614 189.937 249.045 190.129C248.484 190.313 248.03 190.594 247.682 190.97C247.341 191.339 247.17 191.844 247.17 192.483C247.17 193.357 247.494 194.017 248.14 194.464C248.793 194.905 249.621 195.125 250.622 195.125Z" fill="black"/>
<path d="M587.82 85.1818H590.462V100.778C590.462 102.17 590.206 103.353 589.695 104.326C589.183 105.299 588.462 106.038 587.532 106.542C586.601 107.046 585.504 107.298 584.24 107.298C583.047 107.298 581.985 107.082 581.055 106.648C580.124 106.208 579.393 105.583 578.86 104.773C578.327 103.964 578.061 103.001 578.061 101.886H580.66C580.66 102.504 580.813 103.044 581.119 103.506C581.431 103.96 581.857 104.315 582.397 104.571C582.937 104.827 583.551 104.955 584.24 104.955C585 104.955 585.646 104.795 586.179 104.475C586.712 104.156 587.116 103.687 587.393 103.069C587.677 102.444 587.82 101.68 587.82 100.778V85.1818ZM607.688 90.6364C607.56 89.5568 607.042 88.7188 606.133 88.1222C605.224 87.5256 604.109 87.2273 602.788 87.2273C601.822 87.2273 600.976 87.3835 600.252 87.696C599.535 88.0085 598.974 88.4382 598.569 88.9851C598.171 89.532 597.972 90.1534 597.972 90.8494C597.972 91.4318 598.111 91.9325 598.388 92.3516C598.672 92.7635 599.034 93.108 599.474 93.3849C599.915 93.6548 600.376 93.8786 600.859 94.0561C601.342 94.2266 601.786 94.3651 602.191 94.4716L604.407 95.0682C604.975 95.2173 605.607 95.4233 606.303 95.6861C607.006 95.9489 607.677 96.3075 608.317 96.7621C608.963 97.2095 609.496 97.7848 609.915 98.4879C610.334 99.1911 610.543 100.054 610.543 101.077C610.543 102.256 610.234 103.321 609.616 104.273C609.006 105.224 608.111 105.981 606.932 106.542C605.76 107.103 604.336 107.384 602.66 107.384C601.097 107.384 599.744 107.131 598.601 106.627C597.464 106.123 596.57 105.42 595.916 104.518C595.27 103.616 594.904 102.568 594.819 101.375H597.546C597.617 102.199 597.894 102.881 598.377 103.42C598.867 103.953 599.485 104.351 600.231 104.614C600.984 104.869 601.793 104.997 602.66 104.997C603.668 104.997 604.574 104.834 605.376 104.507C606.179 104.173 606.815 103.712 607.283 103.122C607.752 102.526 607.986 101.83 607.986 101.034C607.986 100.31 607.784 99.7202 607.379 99.2656C606.974 98.8111 606.442 98.4418 605.781 98.1577C605.121 97.8736 604.407 97.625 603.64 97.4119L600.955 96.6449C599.251 96.1548 597.901 95.4553 596.907 94.5462C595.913 93.6371 595.415 92.4474 595.415 90.9773C595.415 89.7557 595.746 88.6903 596.406 87.7812C597.074 86.8651 597.969 86.1548 599.091 85.6506C600.22 85.1392 601.481 84.8835 602.873 84.8835C604.279 84.8835 605.529 85.1357 606.623 85.6399C607.717 86.1371 608.583 86.8189 609.222 87.6854C609.869 88.5518 610.209 89.5355 610.245 90.6364H607.688ZM633.296 96.0909C633.296 98.392 632.881 100.381 632.05 102.057C631.219 103.733 630.079 105.026 628.63 105.935C627.181 106.844 625.526 107.298 623.666 107.298C621.805 107.298 620.15 106.844 618.701 105.935C617.252 105.026 616.112 103.733 615.281 102.057C614.45 100.381 614.035 98.392 614.035 96.0909C614.035 93.7898 614.45 91.8011 615.281 90.125C616.112 88.4489 617.252 87.1562 618.701 86.2472C620.15 85.3381 621.805 84.8835 623.666 84.8835C625.526 84.8835 627.181 85.3381 628.63 86.2472C630.079 87.1562 631.219 88.4489 632.05 90.125C632.881 91.8011 633.296 93.7898 633.296 96.0909ZM630.739 96.0909C630.739 94.2017 630.423 92.6072 629.791 91.3075C629.166 90.0078 628.318 89.0241 627.245 88.3565C626.18 87.6889 624.987 87.3551 623.666 87.3551C622.345 87.3551 621.148 87.6889 620.075 88.3565C619.01 89.0241 618.161 90.0078 617.529 91.3075C616.904 92.6072 616.592 94.2017 616.592 96.0909C616.592 97.9801 616.904 99.5746 617.529 100.874C618.161 102.174 619.01 103.158 620.075 103.825C621.148 104.493 622.345 104.827 623.666 104.827C624.987 104.827 626.18 104.493 627.245 103.825C628.318 103.158 629.166 102.174 629.791 100.874C630.423 99.5746 630.739 97.9801 630.739 96.0909ZM655.04 85.1818V107H652.483L640.594 89.8693H640.381V107H637.739V85.1818H640.296L652.227 102.355H652.44V85.1818H655.04ZM680.696 90.6364C680.568 89.5568 680.05 88.7188 679.141 88.1222C678.231 87.5256 677.116 87.2273 675.795 87.2273C674.829 87.2273 673.984 87.3835 673.26 87.696C672.543 88.0085 671.981 88.4382 671.577 88.9851C671.179 89.532 670.98 90.1534 670.98 90.8494C670.98 91.4318 671.119 91.9325 671.396 92.3516C671.68 92.7635 672.042 93.108 672.482 93.3849C672.922 93.6548 673.384 93.8786 673.867 94.0561C674.35 94.2266 674.794 94.3651 675.199 94.4716L677.415 95.0682C677.983 95.2173 678.615 95.4233 679.311 95.6861C680.014 95.9489 680.685 96.3075 681.324 96.7621C681.971 97.2095 682.503 97.7848 682.922 98.4879C683.342 99.1911 683.551 100.054 683.551 101.077C683.551 102.256 683.242 103.321 682.624 104.273C682.013 105.224 681.119 105.981 679.94 106.542C678.768 107.103 677.344 107.384 675.668 107.384C674.105 107.384 672.752 107.131 671.609 106.627C670.472 106.123 669.577 105.42 668.924 104.518C668.278 103.616 667.912 102.568 667.827 101.375H670.554C670.625 102.199 670.902 102.881 671.385 103.42C671.875 103.953 672.493 104.351 673.239 104.614C673.991 104.869 674.801 104.997 675.668 104.997C676.676 104.997 677.582 104.834 678.384 104.507C679.187 104.173 679.822 103.712 680.291 103.122C680.76 102.526 680.994 101.83 680.994 101.034C680.994 100.31 680.792 99.7202 680.387 99.2656C679.982 98.8111 679.449 98.4418 678.789 98.1577C678.128 97.8736 677.415 97.625 676.648 97.4119L673.963 96.6449C672.258 96.1548 670.909 95.4553 669.915 94.5462C668.92 93.6371 668.423 92.4474 668.423 90.9773C668.423 89.7557 668.753 88.6903 669.414 87.7812C670.082 86.8651 670.976 86.1548 672.099 85.6506C673.228 85.1392 674.489 84.8835 675.881 84.8835C677.287 84.8835 678.537 85.1357 679.631 85.6399C680.724 86.1371 681.591 86.8189 682.23 87.6854C682.876 88.5518 683.217 89.5355 683.253 90.6364H680.696ZM694.202 107.341C692.668 107.341 691.347 106.979 690.239 106.254C689.131 105.53 688.278 104.532 687.682 103.261C687.085 101.989 686.787 100.537 686.787 98.9034C686.787 97.2415 687.092 95.7749 687.703 94.5036C688.321 93.2251 689.18 92.2273 690.281 91.5099C691.389 90.7855 692.682 90.4233 694.159 90.4233C695.31 90.4233 696.347 90.6364 697.27 91.0625C698.193 91.4886 698.95 92.0852 699.539 92.8523C700.129 93.6193 700.494 94.5142 700.636 95.5369H698.122C697.93 94.7912 697.504 94.1307 696.844 93.5554C696.19 92.973 695.31 92.6818 694.202 92.6818C693.222 92.6818 692.362 92.9375 691.624 93.4489C690.892 93.9531 690.32 94.6669 689.908 95.5902C689.504 96.5064 689.301 97.5824 689.301 98.8182C689.301 100.082 689.5 101.183 689.898 102.121C690.303 103.058 690.871 103.786 691.602 104.305C692.341 104.823 693.207 105.082 694.202 105.082C694.855 105.082 695.448 104.969 695.981 104.741C696.514 104.514 696.965 104.188 697.334 103.761C697.703 103.335 697.966 102.824 698.122 102.227H700.636C700.494 103.193 700.143 104.063 699.582 104.837C699.028 105.604 698.293 106.215 697.377 106.67C696.467 107.117 695.409 107.341 694.202 107.341ZM706.826 97.1562V107H704.312V85.1818H706.826V93.1932H707.039C707.423 92.348 707.998 91.6768 708.765 91.1797C709.539 90.6754 710.569 90.4233 711.854 90.4233C712.97 90.4233 713.946 90.647 714.784 91.0945C715.622 91.5348 716.272 92.2131 716.734 93.1293C717.203 94.0384 717.437 95.196 717.437 96.6023V107H714.923V96.7727C714.923 95.473 714.585 94.468 713.911 93.7578C713.243 93.0405 712.316 92.6818 711.13 92.6818C710.306 92.6818 709.568 92.8558 708.914 93.2038C708.268 93.5518 707.756 94.0597 707.38 94.7273C707.011 95.3949 706.826 96.2045 706.826 97.1562ZM728.897 107.341C727.321 107.341 725.96 106.993 724.817 106.297C723.681 105.594 722.804 104.614 722.186 103.357C721.575 102.092 721.269 100.622 721.269 98.946C721.269 97.2699 721.575 95.7926 722.186 94.5142C722.804 93.2287 723.663 92.2273 724.764 91.5099C725.872 90.7855 727.164 90.4233 728.642 90.4233C729.494 90.4233 730.335 90.5653 731.166 90.8494C731.997 91.1335 732.754 91.5952 733.436 92.2344C734.117 92.8665 734.661 93.7045 735.066 94.7486C735.47 95.7926 735.673 97.0781 735.673 98.6051V99.6705H723.059V97.4972H733.116C733.116 96.5739 732.931 95.75 732.562 95.0256C732.2 94.3011 731.681 93.7294 731.007 93.3104C730.339 92.8913 729.551 92.6818 728.642 92.6818C727.64 92.6818 726.774 92.9304 726.042 93.4276C725.318 93.9176 724.76 94.5568 724.37 95.3452C723.979 96.1335 723.784 96.9787 723.784 97.8807V99.3295C723.784 100.565 723.997 101.613 724.423 102.472C724.856 103.325 725.456 103.974 726.223 104.422C726.99 104.862 727.882 105.082 728.897 105.082C729.558 105.082 730.154 104.99 730.687 104.805C731.227 104.614 731.692 104.33 732.083 103.953C732.473 103.57 732.775 103.094 732.988 102.526L735.417 103.207C735.161 104.031 734.732 104.756 734.128 105.381C733.524 105.999 732.779 106.482 731.891 106.83C731.003 107.17 730.005 107.341 728.897 107.341ZM739.497 107V90.6364H741.926V93.1932H742.139C742.48 92.3196 743.031 91.6413 743.791 91.1584C744.551 90.6683 745.463 90.4233 746.529 90.4233C747.608 90.4233 748.507 90.6683 749.224 91.1584C749.948 91.6413 750.513 92.3196 750.918 93.1932H751.088C751.507 92.348 752.136 91.6768 752.974 91.1797C753.812 90.6754 754.817 90.4233 755.989 90.4233C757.452 90.4233 758.649 90.8814 759.579 91.7976C760.51 92.7067 760.975 94.1236 760.975 96.0483V107H758.46V96.0483C758.46 94.8409 758.13 93.978 757.47 93.4595C756.809 92.9411 756.032 92.6818 755.137 92.6818C753.986 92.6818 753.095 93.0298 752.463 93.7259C751.831 94.4148 751.514 95.2884 751.514 96.3466V107H748.958V95.7926C748.958 94.8622 748.656 94.1129 748.052 93.5447C747.448 92.9695 746.671 92.6818 745.719 92.6818C745.066 92.6818 744.455 92.8558 743.887 93.2038C743.326 93.5518 742.871 94.0348 742.523 94.6527C742.182 95.2635 742.012 95.9702 742.012 96.7727V107H739.497ZM770.387 107.384C769.35 107.384 768.409 107.188 767.564 106.798C766.719 106.4 766.047 105.828 765.55 105.082C765.053 104.33 764.805 103.42 764.805 102.355C764.805 101.418 764.989 100.658 765.359 100.075C765.728 99.4858 766.222 99.0241 766.839 98.6903C767.457 98.3565 768.139 98.108 768.885 97.9446C769.638 97.7741 770.394 97.6392 771.154 97.5398C772.148 97.4119 772.954 97.3161 773.572 97.2521C774.197 97.1811 774.652 97.0639 774.936 96.9006C775.227 96.7372 775.373 96.4531 775.373 96.0483V95.9631C775.373 94.9119 775.085 94.0952 774.51 93.5128C773.942 92.9304 773.079 92.6392 771.921 92.6392C770.721 92.6392 769.78 92.902 769.098 93.4276C768.416 93.9531 767.937 94.5142 767.66 95.1108L765.273 94.2585C765.699 93.2642 766.268 92.4901 766.978 91.9361C767.695 91.375 768.476 90.9844 769.322 90.7642C770.174 90.5369 771.012 90.4233 771.836 90.4233C772.361 90.4233 772.965 90.4872 773.647 90.6151C774.336 90.7358 775 90.9879 775.639 91.3714C776.285 91.755 776.822 92.3338 777.248 93.108C777.674 93.8821 777.887 94.919 777.887 96.2188V107H775.373V104.784H775.245C775.074 105.139 774.79 105.519 774.393 105.924C773.995 106.329 773.466 106.673 772.805 106.957C772.145 107.241 771.339 107.384 770.387 107.384ZM770.771 105.125C771.765 105.125 772.603 104.93 773.285 104.539C773.974 104.148 774.492 103.644 774.84 103.026C775.195 102.408 775.373 101.759 775.373 101.077V98.7756C775.266 98.9034 775.032 99.0206 774.67 99.1271C774.315 99.2266 773.903 99.3153 773.434 99.3935C772.972 99.4645 772.521 99.5284 772.081 99.5852C771.648 99.6349 771.296 99.6776 771.026 99.7131C770.373 99.7983 769.762 99.9368 769.194 100.129C768.633 100.313 768.178 100.594 767.83 100.97C767.489 101.339 767.319 101.844 767.319 102.483C767.319 103.357 767.642 104.017 768.288 104.464C768.942 104.905 769.769 105.125 770.771 105.125ZM589.773 152.341C588.296 152.341 587 151.989 585.885 151.286C584.777 150.583 583.91 149.599 583.285 148.335C582.667 147.071 582.358 145.594 582.358 143.903C582.358 142.199 582.667 140.711 583.285 139.44C583.91 138.168 584.777 137.181 585.885 136.478C587 135.775 588.296 135.423 589.773 135.423C591.25 135.423 592.543 135.775 593.651 136.478C594.766 137.181 595.632 138.168 596.25 139.44C596.875 140.711 597.188 142.199 597.188 143.903C597.188 145.594 596.875 147.071 596.25 148.335C595.632 149.599 594.766 150.583 593.651 151.286C592.543 151.989 591.25 152.341 589.773 152.341ZM589.773 150.082C590.895 150.082 591.819 149.795 592.543 149.219C593.267 148.644 593.804 147.888 594.152 146.95C594.5 146.013 594.674 144.997 594.674 143.903C594.674 142.81 594.5 141.79 594.152 140.846C593.804 139.901 593.267 139.138 592.543 138.555C591.819 137.973 590.895 137.682 589.773 137.682C588.651 137.682 587.728 137.973 587.003 138.555C586.279 139.138 585.743 139.901 585.395 140.846C585.047 141.79 584.873 142.81 584.873 143.903C584.873 144.997 585.047 146.013 585.395 146.95C585.743 147.888 586.279 148.644 587.003 149.219C587.728 149.795 588.651 150.082 589.773 150.082ZM608.313 135.636V137.767H599.492V135.636H608.313ZM602.134 152V133.378C602.134 132.44 602.354 131.659 602.794 131.034C603.235 130.409 603.806 129.94 604.509 129.628C605.213 129.315 605.955 129.159 606.736 129.159C607.354 129.159 607.858 129.209 608.249 129.308C608.639 129.408 608.931 129.5 609.122 129.585L608.398 131.759C608.27 131.716 608.093 131.663 607.865 131.599C607.645 131.535 607.354 131.503 606.992 131.503C606.161 131.503 605.561 131.712 605.191 132.131C604.829 132.55 604.648 133.165 604.648 133.974V152H602.134ZM621.51 152H618.74L626.751 130.182H629.478L637.49 152H634.72L628.2 133.634H628.029L621.51 152ZM622.532 143.477H633.697V145.821H622.532V143.477ZM640.547 158.136V135.636H642.976V138.236H643.275C643.459 137.952 643.715 137.589 644.042 137.149C644.375 136.702 644.851 136.304 645.469 135.956C646.094 135.601 646.939 135.423 648.005 135.423C649.382 135.423 650.597 135.768 651.648 136.457C652.699 137.146 653.52 138.122 654.109 139.386C654.699 140.651 654.993 142.142 654.993 143.861C654.993 145.594 654.699 147.096 654.109 148.367C653.52 149.631 652.703 150.612 651.659 151.308C650.615 151.996 649.411 152.341 648.047 152.341C646.996 152.341 646.154 152.167 645.522 151.819C644.89 151.464 644.404 151.062 644.063 150.615C643.722 150.161 643.459 149.784 643.275 149.486H643.061V158.136H640.547ZM643.019 143.818C643.019 145.054 643.2 146.144 643.562 147.089C643.924 148.026 644.453 148.761 645.15 149.294C645.846 149.82 646.698 150.082 647.706 150.082C648.757 150.082 649.635 149.805 650.338 149.251C651.048 148.69 651.581 147.937 651.936 146.993C652.298 146.041 652.479 144.983 652.479 143.818C652.479 142.668 652.301 141.631 651.946 140.707C651.598 139.777 651.069 139.042 650.359 138.502C649.656 137.955 648.772 137.682 647.706 137.682C646.684 137.682 645.824 137.941 645.128 138.46C644.432 138.971 643.907 139.688 643.551 140.612C643.196 141.528 643.019 142.597 643.019 143.818ZM658.828 158.136V135.636H661.257V138.236H661.556C661.74 137.952 661.996 137.589 662.323 137.149C662.657 136.702 663.132 136.304 663.75 135.956C664.375 135.601 665.221 135.423 666.286 135.423C667.664 135.423 668.878 135.768 669.929 136.457C670.98 137.146 671.801 138.122 672.39 139.386C672.98 140.651 673.275 142.142 673.275 143.861C673.275 145.594 672.98 147.096 672.39 148.367C671.801 149.631 670.984 150.612 669.94 151.308C668.896 151.996 667.692 152.341 666.328 152.341C665.277 152.341 664.436 152.167 663.804 151.819C663.172 151.464 662.685 151.062 662.344 150.615C662.003 150.161 661.74 149.784 661.556 149.486H661.343V158.136H658.828ZM661.3 143.818C661.3 145.054 661.481 146.144 661.843 147.089C662.206 148.026 662.735 148.761 663.431 149.294C664.127 149.82 664.979 150.082 665.988 150.082C667.039 150.082 667.916 149.805 668.619 149.251C669.329 148.69 669.862 147.937 670.217 146.993C670.579 146.041 670.76 144.983 670.76 143.818C670.76 142.668 670.583 141.631 670.228 140.707C669.88 139.777 669.35 139.042 668.64 138.502C667.937 137.955 667.053 137.682 665.988 137.682C664.965 137.682 664.105 137.941 663.409 138.46C662.713 138.971 662.188 139.688 661.833 140.612C661.478 141.528 661.3 142.597 661.3 143.818ZM679.624 130.182V152H677.11V130.182H679.624ZM684.229 152V135.636H686.743V152H684.229ZM685.507 132.909C685.017 132.909 684.595 132.742 684.24 132.408C683.892 132.075 683.718 131.673 683.718 131.205C683.718 130.736 683.892 130.335 684.24 130.001C684.595 129.667 685.017 129.5 685.507 129.5C685.997 129.5 686.416 129.667 686.764 130.001C687.119 130.335 687.297 130.736 687.297 131.205C687.297 131.673 687.119 132.075 686.764 132.408C686.416 132.742 685.997 132.909 685.507 132.909ZM697.996 152.341C696.462 152.341 695.141 151.979 694.033 151.254C692.925 150.53 692.072 149.532 691.476 148.261C690.879 146.989 690.581 145.537 690.581 143.903C690.581 142.241 690.886 140.775 691.497 139.504C692.115 138.225 692.974 137.227 694.075 136.51C695.183 135.786 696.476 135.423 697.953 135.423C699.104 135.423 700.141 135.636 701.064 136.062C701.987 136.489 702.744 137.085 703.333 137.852C703.923 138.619 704.288 139.514 704.43 140.537H701.916C701.724 139.791 701.298 139.131 700.638 138.555C699.984 137.973 699.104 137.682 697.996 137.682C697.016 137.682 696.156 137.937 695.418 138.449C694.686 138.953 694.114 139.667 693.702 140.59C693.298 141.506 693.095 142.582 693.095 143.818C693.095 145.082 693.294 146.183 693.692 147.121C694.097 148.058 694.665 148.786 695.396 149.305C696.135 149.823 697.001 150.082 697.996 150.082C698.649 150.082 699.242 149.969 699.775 149.741C700.308 149.514 700.759 149.188 701.128 148.761C701.497 148.335 701.76 147.824 701.916 147.227H704.43C704.288 148.193 703.937 149.063 703.376 149.837C702.822 150.604 702.087 151.215 701.17 151.67C700.261 152.117 699.203 152.341 697.996 152.341ZM712.921 152.384C711.884 152.384 710.943 152.188 710.098 151.798C709.253 151.4 708.582 150.828 708.085 150.082C707.587 149.33 707.339 148.42 707.339 147.355C707.339 146.418 707.523 145.658 707.893 145.075C708.262 144.486 708.756 144.024 709.374 143.69C709.991 143.357 710.673 143.108 711.419 142.945C712.172 142.774 712.928 142.639 713.688 142.54C714.683 142.412 715.489 142.316 716.107 142.252C716.732 142.181 717.186 142.064 717.47 141.901C717.761 141.737 717.907 141.453 717.907 141.048V140.963C717.907 139.912 717.619 139.095 717.044 138.513C716.476 137.93 715.613 137.639 714.455 137.639C713.255 137.639 712.314 137.902 711.632 138.428C710.95 138.953 710.471 139.514 710.194 140.111L707.808 139.259C708.234 138.264 708.802 137.49 709.512 136.936C710.229 136.375 711.011 135.984 711.856 135.764C712.708 135.537 713.546 135.423 714.37 135.423C714.896 135.423 715.499 135.487 716.181 135.615C716.87 135.736 717.534 135.988 718.173 136.371C718.82 136.755 719.356 137.334 719.782 138.108C720.208 138.882 720.421 139.919 720.421 141.219V152H717.907V149.784H717.779C717.609 150.139 717.325 150.519 716.927 150.924C716.529 151.329 716 151.673 715.339 151.957C714.679 152.241 713.873 152.384 712.921 152.384ZM713.305 150.125C714.299 150.125 715.137 149.93 715.819 149.539C716.508 149.148 717.026 148.644 717.374 148.026C717.729 147.408 717.907 146.759 717.907 146.077V143.776C717.8 143.903 717.566 144.021 717.204 144.127C716.849 144.227 716.437 144.315 715.968 144.393C715.506 144.464 715.055 144.528 714.615 144.585C714.182 144.635 713.83 144.678 713.56 144.713C712.907 144.798 712.296 144.937 711.728 145.129C711.167 145.313 710.712 145.594 710.364 145.97C710.023 146.339 709.853 146.844 709.853 147.483C709.853 148.357 710.176 149.017 710.822 149.464C711.476 149.905 712.303 150.125 713.305 150.125ZM732.127 135.636V137.767H723.646V135.636H732.127ZM726.118 131.716H728.632V147.312C728.632 148.023 728.735 148.555 728.941 148.911C729.154 149.259 729.424 149.493 729.751 149.614C730.085 149.727 730.436 149.784 730.806 149.784C731.083 149.784 731.31 149.77 731.487 149.741C731.665 149.706 731.807 149.678 731.914 149.656L732.425 151.915C732.254 151.979 732.017 152.043 731.711 152.107C731.406 152.178 731.019 152.213 730.55 152.213C729.84 152.213 729.144 152.06 728.462 151.755C727.787 151.45 727.226 150.984 726.779 150.359C726.338 149.734 726.118 148.946 726.118 147.994V131.716ZM735.909 152V135.636H738.423V152H735.909ZM737.187 132.909C736.697 132.909 736.274 132.742 735.919 132.408C735.571 132.075 735.397 131.673 735.397 131.205C735.397 130.736 735.571 130.335 735.919 130.001C736.274 129.667 736.697 129.5 737.187 129.5C737.677 129.5 738.096 129.667 738.444 130.001C738.799 130.335 738.977 130.736 738.977 131.205C738.977 131.673 738.799 132.075 738.444 132.408C738.096 132.742 737.677 132.909 737.187 132.909ZM749.675 152.341C748.198 152.341 746.902 151.989 745.787 151.286C744.679 150.583 743.812 149.599 743.188 148.335C742.57 147.071 742.261 145.594 742.261 143.903C742.261 142.199 742.57 140.711 743.188 139.44C743.812 138.168 744.679 137.181 745.787 136.478C746.902 135.775 748.198 135.423 749.675 135.423C751.153 135.423 752.445 135.775 753.553 136.478C754.668 137.181 755.535 138.168 756.153 139.44C756.778 140.711 757.09 142.199 757.09 143.903C757.09 145.594 756.778 147.071 756.153 148.335C755.535 149.599 754.668 150.583 753.553 151.286C752.445 151.989 751.153 152.341 749.675 152.341ZM749.675 150.082C750.798 150.082 751.721 149.795 752.445 149.219C753.17 148.644 753.706 147.888 754.054 146.95C754.402 146.013 754.576 144.997 754.576 143.903C754.576 142.81 754.402 141.79 754.054 140.846C753.706 139.901 753.17 139.138 752.445 138.555C751.721 137.973 750.798 137.682 749.675 137.682C748.553 137.682 747.63 137.973 746.906 138.555C746.181 139.138 745.645 139.901 745.297 140.846C744.949 141.79 744.775 142.81 744.775 143.903C744.775 144.997 744.949 146.013 745.297 146.95C745.645 147.888 746.181 148.644 746.906 149.219C747.63 149.795 748.553 150.082 749.675 150.082ZM763.442 142.156V152H760.928V135.636H763.357V138.193H763.57C763.954 137.362 764.536 136.695 765.317 136.19C766.099 135.679 767.107 135.423 768.343 135.423C769.451 135.423 770.42 135.651 771.251 136.105C772.082 136.553 772.729 137.234 773.19 138.151C773.652 139.06 773.883 140.21 773.883 141.602V152H771.368V141.773C771.368 140.487 771.035 139.486 770.367 138.768C769.699 138.044 768.783 137.682 767.618 137.682C766.816 137.682 766.099 137.856 765.466 138.204C764.841 138.552 764.348 139.06 763.986 139.727C763.623 140.395 763.442 141.205 763.442 142.156ZM645.042 177.526V175.182H661.405V177.526H654.544V197H651.902V177.526H645.042ZM664.886 203.136C664.46 203.136 664.08 203.101 663.746 203.03C663.413 202.966 663.182 202.902 663.054 202.838L663.693 200.622C664.304 200.778 664.844 200.835 665.312 200.793C665.781 200.75 666.197 200.54 666.559 200.164C666.928 199.795 667.266 199.195 667.571 198.364L668.04 197.085L661.989 180.636H664.716L669.233 193.676H669.403L673.92 180.636H676.648L669.702 199.386C669.389 200.232 669.002 200.931 668.54 201.485C668.079 202.046 667.543 202.462 666.932 202.732C666.328 203.001 665.646 203.136 664.886 203.136ZM679.966 203.136V180.636H682.395V183.236H682.693C682.878 182.952 683.134 182.589 683.46 182.149C683.794 181.702 684.27 181.304 684.888 180.956C685.513 180.601 686.358 180.423 687.424 180.423C688.801 180.423 690.016 180.768 691.067 181.457C692.118 182.146 692.938 183.122 693.528 184.386C694.117 185.651 694.412 187.142 694.412 188.861C694.412 190.594 694.117 192.096 693.528 193.367C692.938 194.631 692.122 195.612 691.078 196.308C690.034 196.996 688.83 197.341 687.466 197.341C686.415 197.341 685.573 197.167 684.941 196.819C684.309 196.464 683.823 196.062 683.482 195.615C683.141 195.161 682.878 194.784 682.693 194.486H682.48V203.136H679.966ZM682.438 188.818C682.438 190.054 682.619 191.144 682.981 192.089C683.343 193.026 683.872 193.761 684.568 194.294C685.264 194.82 686.117 195.082 687.125 195.082C688.176 195.082 689.054 194.805 689.757 194.251C690.467 193.69 691 192.937 691.355 191.993C691.717 191.041 691.898 189.983 691.898 188.818C691.898 187.668 691.72 186.631 691.365 185.707C691.017 184.777 690.488 184.042 689.778 183.502C689.075 182.955 688.191 182.682 687.125 182.682C686.103 182.682 685.243 182.941 684.547 183.46C683.851 183.971 683.326 184.688 682.97 185.612C682.615 186.528 682.438 187.597 682.438 188.818ZM705.108 197.341C703.532 197.341 702.171 196.993 701.028 196.297C699.892 195.594 699.014 194.614 698.397 193.357C697.786 192.092 697.48 190.622 697.48 188.946C697.48 187.27 697.786 185.793 698.397 184.514C699.014 183.229 699.874 182.227 700.975 181.51C702.083 180.786 703.375 180.423 704.853 180.423C705.705 180.423 706.546 180.565 707.377 180.849C708.208 181.134 708.965 181.595 709.647 182.234C710.328 182.866 710.872 183.705 711.277 184.749C711.681 185.793 711.884 187.078 711.884 188.605V189.67H699.27V187.497H709.327C709.327 186.574 709.142 185.75 708.773 185.026C708.411 184.301 707.892 183.729 707.218 183.31C706.55 182.891 705.762 182.682 704.853 182.682C703.851 182.682 702.985 182.93 702.253 183.428C701.529 183.918 700.971 184.557 700.581 185.345C700.19 186.134 699.995 186.979 699.995 187.881V189.33C699.995 190.565 700.208 191.613 700.634 192.472C701.067 193.325 701.667 193.974 702.434 194.422C703.201 194.862 704.093 195.082 705.108 195.082C705.769 195.082 706.365 194.99 706.898 194.805C707.438 194.614 707.903 194.33 708.294 193.953C708.684 193.57 708.986 193.094 709.199 192.526L711.628 193.207C711.372 194.031 710.943 194.756 710.339 195.381C709.735 195.999 708.99 196.482 708.102 196.83C707.214 197.17 706.216 197.341 705.108 197.341Z" fill="black"/>
<path d="M392.168 122H387.679V107.455H392.367C393.778 107.455 394.985 107.746 395.989 108.328C396.993 108.906 397.762 109.737 398.297 110.821C398.832 111.901 399.1 113.193 399.1 114.699C399.1 116.214 398.83 117.518 398.29 118.612C397.75 119.701 396.964 120.539 395.932 121.126C394.9 121.709 393.645 122 392.168 122ZM389.441 120.438H392.054C393.257 120.438 394.254 120.205 395.044 119.741C395.835 119.277 396.425 118.617 396.813 117.76C397.201 116.903 397.395 115.883 397.395 114.699C397.395 113.525 397.203 112.514 396.82 111.666C396.436 110.814 395.864 110.161 395.101 109.706C394.339 109.247 393.39 109.017 392.253 109.017H389.441V120.438ZM406.401 122.227C405.35 122.227 404.443 121.995 403.681 121.531C402.923 121.062 402.338 120.409 401.926 119.571C401.519 118.728 401.316 117.748 401.316 116.631C401.316 115.513 401.519 114.528 401.926 113.676C402.338 112.819 402.911 112.152 403.645 111.673C404.384 111.19 405.246 110.949 406.23 110.949C406.799 110.949 407.36 111.044 407.914 111.233C408.468 111.422 408.972 111.73 409.426 112.156C409.881 112.578 410.243 113.136 410.513 113.832C410.783 114.528 410.918 115.385 410.918 116.403V117.114H402.509V115.665H409.213C409.213 115.049 409.09 114.5 408.844 114.017C408.603 113.534 408.257 113.153 407.807 112.874C407.362 112.594 406.837 112.455 406.23 112.455C405.563 112.455 404.985 112.62 404.498 112.952C404.015 113.278 403.643 113.705 403.382 114.23C403.122 114.756 402.992 115.319 402.992 115.92V116.886C402.992 117.71 403.134 118.409 403.418 118.982C403.707 119.55 404.107 119.983 404.618 120.281C405.13 120.575 405.724 120.722 406.401 120.722C406.841 120.722 407.239 120.66 407.594 120.537C407.954 120.409 408.264 120.22 408.525 119.969C408.785 119.713 408.986 119.396 409.128 119.017L410.748 119.472C410.577 120.021 410.291 120.504 409.888 120.92C409.486 121.332 408.989 121.654 408.397 121.886C407.805 122.114 407.14 122.227 406.401 122.227ZM418.212 111.091V112.511H412.559V111.091H418.212ZM414.206 108.477H415.882V118.875C415.882 119.348 415.951 119.704 416.088 119.94C416.23 120.172 416.41 120.329 416.628 120.409C416.851 120.485 417.085 120.523 417.331 120.523C417.516 120.523 417.667 120.513 417.786 120.494C417.904 120.471 417.999 120.452 418.07 120.438L418.411 121.943C418.297 121.986 418.139 122.028 417.935 122.071C417.731 122.118 417.473 122.142 417.161 122.142C416.687 122.142 416.223 122.04 415.769 121.837C415.319 121.633 414.945 121.323 414.647 120.906C414.353 120.49 414.206 119.964 414.206 119.33V108.477ZM425.19 122.227C424.139 122.227 423.232 121.995 422.47 121.531C421.712 121.062 421.127 120.409 420.716 119.571C420.308 118.728 420.105 117.748 420.105 116.631C420.105 115.513 420.308 114.528 420.716 113.676C421.127 112.819 421.7 112.152 422.434 111.673C423.173 111.19 424.035 110.949 425.02 110.949C425.588 110.949 426.149 111.044 426.703 111.233C427.257 111.422 427.761 111.73 428.216 112.156C428.67 112.578 429.032 113.136 429.302 113.832C429.572 114.528 429.707 115.385 429.707 116.403V117.114H421.298V115.665H428.002C428.002 115.049 427.879 114.5 427.633 114.017C427.392 113.534 427.046 113.153 426.596 112.874C426.151 112.594 425.626 112.455 425.02 112.455C424.352 112.455 423.774 112.62 423.287 112.952C422.804 113.278 422.432 113.705 422.172 114.23C421.911 114.756 421.781 115.319 421.781 115.92V116.886C421.781 117.71 421.923 118.409 422.207 118.982C422.496 119.55 422.896 119.983 423.407 120.281C423.919 120.575 424.513 120.722 425.19 120.722C425.63 120.722 426.028 120.66 426.383 120.537C426.743 120.409 427.053 120.22 427.314 119.969C427.574 119.713 427.775 119.396 427.917 119.017L429.537 119.472C429.366 120.021 429.08 120.504 428.677 120.92C428.275 121.332 427.778 121.654 427.186 121.886C426.594 122.114 425.929 122.227 425.19 122.227ZM432.257 122V111.091H433.876V112.739H433.99C434.189 112.199 434.548 111.761 435.069 111.425C435.59 111.089 436.177 110.92 436.831 110.92C436.954 110.92 437.108 110.923 437.292 110.928C437.477 110.932 437.617 110.939 437.711 110.949V112.653C437.654 112.639 437.524 112.618 437.321 112.589C437.122 112.556 436.911 112.54 436.689 112.54C436.158 112.54 435.685 112.651 435.268 112.874C434.856 113.091 434.529 113.394 434.288 113.783C434.051 114.166 433.933 114.604 433.933 115.097V122H432.257ZM439.698 122V111.091H441.317V112.795H441.46C441.687 112.213 442.054 111.761 442.56 111.439C443.067 111.112 443.675 110.949 444.386 110.949C445.105 110.949 445.704 111.112 446.183 111.439C446.665 111.761 447.042 112.213 447.312 112.795H447.425C447.705 112.232 448.124 111.785 448.683 111.453C449.241 111.117 449.911 110.949 450.692 110.949C451.668 110.949 452.466 111.254 453.086 111.865C453.706 112.471 454.016 113.416 454.016 114.699V122H452.34V114.699C452.34 113.894 452.12 113.319 451.68 112.973C451.239 112.627 450.721 112.455 450.124 112.455C449.357 112.455 448.763 112.687 448.342 113.151C447.92 113.61 447.71 114.192 447.71 114.898V122H446.005V114.528C446.005 113.908 445.804 113.409 445.401 113.03C444.999 112.646 444.48 112.455 443.846 112.455C443.41 112.455 443.003 112.571 442.624 112.803C442.25 113.035 441.947 113.357 441.715 113.768C441.488 114.176 441.374 114.647 441.374 115.182V122H439.698ZM457.081 122V111.091H458.757V122H457.081ZM457.933 109.273C457.607 109.273 457.325 109.161 457.088 108.939C456.856 108.716 456.74 108.449 456.74 108.136C456.74 107.824 456.856 107.556 457.088 107.334C457.325 107.111 457.607 107 457.933 107C458.26 107 458.539 107.111 458.771 107.334C459.008 107.556 459.126 107.824 459.126 108.136C459.126 108.449 459.008 108.716 458.771 108.939C458.539 109.161 458.26 109.273 457.933 109.273ZM463.503 115.438V122H461.827V111.091H463.446V112.795H463.588C463.844 112.241 464.232 111.796 464.753 111.46C465.274 111.119 465.946 110.949 466.77 110.949C467.509 110.949 468.155 111.1 468.709 111.403C469.263 111.702 469.694 112.156 470.002 112.767C470.31 113.373 470.463 114.14 470.463 115.068V122H468.787V115.182C468.787 114.325 468.565 113.657 468.12 113.179C467.675 112.696 467.064 112.455 466.287 112.455C465.752 112.455 465.274 112.571 464.853 112.803C464.436 113.035 464.107 113.373 463.865 113.818C463.624 114.263 463.503 114.803 463.503 115.438ZM478.1 122.227C477.049 122.227 476.142 121.995 475.38 121.531C474.622 121.062 474.038 120.409 473.626 119.571C473.219 118.728 473.015 117.748 473.015 116.631C473.015 115.513 473.219 114.528 473.626 113.676C474.038 112.819 474.611 112.152 475.344 111.673C476.083 111.19 476.945 110.949 477.93 110.949C478.498 110.949 479.059 111.044 479.613 111.233C480.167 111.422 480.671 111.73 481.126 112.156C481.58 112.578 481.942 113.136 482.212 113.832C482.482 114.528 482.617 115.385 482.617 116.403V117.114H474.208V115.665H480.913C480.913 115.049 480.79 114.5 480.543 114.017C480.302 113.534 479.956 113.153 479.506 112.874C479.061 112.594 478.536 112.455 477.93 112.455C477.262 112.455 476.684 112.62 476.197 112.952C475.714 113.278 475.342 113.705 475.082 114.23C474.821 114.756 474.691 115.319 474.691 115.92V116.886C474.691 117.71 474.833 118.409 475.117 118.982C475.406 119.55 475.806 119.983 476.317 120.281C476.829 120.575 477.423 120.722 478.1 120.722C478.54 120.722 478.938 120.66 479.293 120.537C479.653 120.409 479.963 120.22 480.224 119.969C480.484 119.713 480.685 119.396 480.827 119.017L482.447 119.472C482.276 120.021 481.99 120.504 481.587 120.92C481.185 121.332 480.688 121.654 480.096 121.886C479.504 122.114 478.839 122.227 478.1 122.227ZM492.894 113.534L491.388 113.96C491.294 113.709 491.154 113.465 490.969 113.229C490.79 112.987 490.543 112.788 490.231 112.632C489.918 112.476 489.518 112.398 489.031 112.398C488.363 112.398 487.807 112.552 487.362 112.859C486.921 113.162 486.701 113.548 486.701 114.017C486.701 114.434 486.853 114.763 487.156 115.004C487.459 115.246 487.932 115.447 488.576 115.608L490.195 116.006C491.171 116.242 491.897 116.605 492.376 117.092C492.854 117.575 493.093 118.198 493.093 118.96C493.093 119.585 492.913 120.144 492.553 120.636C492.198 121.129 491.701 121.517 491.062 121.801C490.423 122.085 489.679 122.227 488.832 122.227C487.719 122.227 486.798 121.986 486.069 121.503C485.34 121.02 484.878 120.314 484.684 119.386L486.275 118.989C486.426 119.576 486.713 120.016 487.134 120.31C487.56 120.603 488.117 120.75 488.803 120.75C489.585 120.75 490.205 120.584 490.664 120.253C491.128 119.917 491.36 119.514 491.36 119.045C491.36 118.667 491.228 118.349 490.962 118.094C490.697 117.833 490.29 117.639 489.741 117.511L487.923 117.085C486.924 116.848 486.19 116.482 485.721 115.984C485.257 115.482 485.025 114.855 485.025 114.102C485.025 113.487 485.198 112.942 485.543 112.469C485.894 111.995 486.37 111.624 486.971 111.354C487.577 111.084 488.263 110.949 489.031 110.949C490.11 110.949 490.958 111.186 491.573 111.659C492.193 112.133 492.634 112.758 492.894 113.534Z" fill="black"/>
<path d="M863.168 122H858.679V107.455H863.367C864.778 107.455 865.985 107.746 866.989 108.328C867.993 108.906 868.762 109.737 869.297 110.821C869.832 111.901 870.1 113.193 870.1 114.699C870.1 116.214 869.83 117.518 869.29 118.612C868.75 119.701 867.964 120.539 866.932 121.126C865.9 121.709 864.645 122 863.168 122ZM860.441 120.438H863.054C864.257 120.438 865.254 120.205 866.044 119.741C866.835 119.277 867.425 118.617 867.813 117.76C868.201 116.903 868.395 115.883 868.395 114.699C868.395 113.525 868.203 112.514 867.82 111.666C867.436 110.814 866.864 110.161 866.101 109.706C865.339 109.247 864.39 109.017 863.253 109.017H860.441V120.438ZM877.401 122.227C876.35 122.227 875.443 121.995 874.681 121.531C873.923 121.062 873.338 120.409 872.926 119.571C872.519 118.728 872.316 117.748 872.316 116.631C872.316 115.513 872.519 114.528 872.926 113.676C873.338 112.819 873.911 112.152 874.645 111.673C875.384 111.19 876.246 110.949 877.23 110.949C877.799 110.949 878.36 111.044 878.914 111.233C879.468 111.422 879.972 111.73 880.426 112.156C880.881 112.578 881.243 113.136 881.513 113.832C881.783 114.528 881.918 115.385 881.918 116.403V117.114H873.509V115.665H880.213C880.213 115.049 880.09 114.5 879.844 114.017C879.603 113.534 879.257 113.153 878.807 112.874C878.362 112.594 877.837 112.455 877.23 112.455C876.563 112.455 875.985 112.62 875.498 112.952C875.015 113.278 874.643 113.705 874.382 114.23C874.122 114.756 873.992 115.319 873.992 115.92V116.886C873.992 117.71 874.134 118.409 874.418 118.982C874.707 119.55 875.107 119.983 875.618 120.281C876.13 120.575 876.724 120.722 877.401 120.722C877.841 120.722 878.239 120.66 878.594 120.537C878.954 120.409 879.264 120.22 879.525 119.969C879.785 119.713 879.986 119.396 880.128 119.017L881.748 119.472C881.577 120.021 881.291 120.504 880.888 120.92C880.486 121.332 879.989 121.654 879.397 121.886C878.805 122.114 878.14 122.227 877.401 122.227ZM889.212 111.091V112.511H883.559V111.091H889.212ZM885.206 108.477H886.882V118.875C886.882 119.348 886.951 119.704 887.088 119.94C887.23 120.172 887.41 120.329 887.628 120.409C887.851 120.485 888.085 120.523 888.331 120.523C888.516 120.523 888.667 120.513 888.786 120.494C888.904 120.471 888.999 120.452 889.07 120.438L889.411 121.943C889.297 121.986 889.139 122.028 888.935 122.071C888.731 122.118 888.473 122.142 888.161 122.142C887.687 122.142 887.223 122.04 886.769 121.837C886.319 121.633 885.945 121.323 885.647 120.906C885.353 120.49 885.206 119.964 885.206 119.33V108.477ZM896.19 122.227C895.139 122.227 894.232 121.995 893.47 121.531C892.712 121.062 892.127 120.409 891.716 119.571C891.308 118.728 891.105 117.748 891.105 116.631C891.105 115.513 891.308 114.528 891.716 113.676C892.127 112.819 892.7 112.152 893.434 111.673C894.173 111.19 895.035 110.949 896.02 110.949C896.588 110.949 897.149 111.044 897.703 111.233C898.257 111.422 898.761 111.73 899.216 112.156C899.67 112.578 900.032 113.136 900.302 113.832C900.572 114.528 900.707 115.385 900.707 116.403V117.114H892.298V115.665H899.002C899.002 115.049 898.879 114.5 898.633 114.017C898.392 113.534 898.046 113.153 897.596 112.874C897.151 112.594 896.626 112.455 896.02 112.455C895.352 112.455 894.774 112.62 894.287 112.952C893.804 113.278 893.432 113.705 893.172 114.23C892.911 114.756 892.781 115.319 892.781 115.92V116.886C892.781 117.71 892.923 118.409 893.207 118.982C893.496 119.55 893.896 119.983 894.407 120.281C894.919 120.575 895.513 120.722 896.19 120.722C896.63 120.722 897.028 120.66 897.383 120.537C897.743 120.409 898.053 120.22 898.314 119.969C898.574 119.713 898.775 119.396 898.917 119.017L900.537 119.472C900.366 120.021 900.08 120.504 899.677 120.92C899.275 121.332 898.778 121.654 898.186 121.886C897.594 122.114 896.929 122.227 896.19 122.227ZM903.257 122V111.091H904.876V112.739H904.99C905.189 112.199 905.548 111.761 906.069 111.425C906.59 111.089 907.177 110.92 907.831 110.92C907.954 110.92 908.108 110.923 908.292 110.928C908.477 110.932 908.617 110.939 908.711 110.949V112.653C908.654 112.639 908.524 112.618 908.321 112.589C908.122 112.556 907.911 112.54 907.689 112.54C907.158 112.54 906.685 112.651 906.268 112.874C905.856 113.091 905.529 113.394 905.288 113.783C905.051 114.166 904.933 114.604 904.933 115.097V122H903.257ZM910.698 122V111.091H912.317V112.795H912.46C912.687 112.213 913.054 111.761 913.56 111.439C914.067 111.112 914.675 110.949 915.386 110.949C916.105 110.949 916.704 111.112 917.183 111.439C917.665 111.761 918.042 112.213 918.312 112.795H918.425C918.705 112.232 919.124 111.785 919.683 111.453C920.241 111.117 920.911 110.949 921.692 110.949C922.668 110.949 923.466 111.254 924.086 111.865C924.706 112.471 925.016 113.416 925.016 114.699V122H923.34V114.699C923.34 113.894 923.12 113.319 922.68 112.973C922.239 112.627 921.721 112.455 921.124 112.455C920.357 112.455 919.763 112.687 919.342 113.151C918.92 113.61 918.71 114.192 918.71 114.898V122H917.005V114.528C917.005 113.908 916.804 113.409 916.401 113.03C915.999 112.646 915.48 112.455 914.846 112.455C914.41 112.455 914.003 112.571 913.624 112.803C913.25 113.035 912.947 113.357 912.715 113.768C912.488 114.176 912.374 114.647 912.374 115.182V122H910.698ZM928.081 122V111.091H929.757V122H928.081ZM928.933 109.273C928.607 109.273 928.325 109.161 928.088 108.939C927.856 108.716 927.74 108.449 927.74 108.136C927.74 107.824 927.856 107.556 928.088 107.334C928.325 107.111 928.607 107 928.933 107C929.26 107 929.539 107.111 929.771 107.334C930.008 107.556 930.126 107.824 930.126 108.136C930.126 108.449 930.008 108.716 929.771 108.939C929.539 109.161 929.26 109.273 928.933 109.273ZM934.503 115.438V122H932.827V111.091H934.446V112.795H934.588C934.844 112.241 935.232 111.796 935.753 111.46C936.274 111.119 936.946 110.949 937.77 110.949C938.509 110.949 939.155 111.1 939.709 111.403C940.263 111.702 940.694 112.156 941.002 112.767C941.31 113.373 941.463 114.14 941.463 115.068V122H939.787V115.182C939.787 114.325 939.565 113.657 939.12 113.179C938.675 112.696 938.064 112.455 937.287 112.455C936.752 112.455 936.274 112.571 935.853 112.803C935.436 113.035 935.107 113.373 934.865 113.818C934.624 114.263 934.503 114.803 934.503 115.438ZM949.1 122.227C948.049 122.227 947.142 121.995 946.38 121.531C945.622 121.062 945.038 120.409 944.626 119.571C944.219 118.728 944.015 117.748 944.015 116.631C944.015 115.513 944.219 114.528 944.626 113.676C945.038 112.819 945.611 112.152 946.344 111.673C947.083 111.19 947.945 110.949 948.93 110.949C949.498 110.949 950.059 111.044 950.613 111.233C951.167 111.422 951.671 111.73 952.126 112.156C952.58 112.578 952.942 113.136 953.212 113.832C953.482 114.528 953.617 115.385 953.617 116.403V117.114H945.208V115.665H951.913C951.913 115.049 951.79 114.5 951.543 114.017C951.302 113.534 950.956 113.153 950.506 112.874C950.061 112.594 949.536 112.455 948.93 112.455C948.262 112.455 947.684 112.62 947.197 112.952C946.714 113.278 946.342 113.705 946.082 114.23C945.821 114.756 945.691 115.319 945.691 115.92V116.886C945.691 117.71 945.833 118.409 946.117 118.982C946.406 119.55 946.806 119.983 947.317 120.281C947.829 120.575 948.423 120.722 949.1 120.722C949.54 120.722 949.938 120.66 950.293 120.537C950.653 120.409 950.963 120.22 951.224 119.969C951.484 119.713 951.685 119.396 951.827 119.017L953.447 119.472C953.276 120.021 952.99 120.504 952.587 120.92C952.185 121.332 951.688 121.654 951.096 121.886C950.504 122.114 949.839 122.227 949.1 122.227ZM963.894 113.534L962.388 113.96C962.294 113.709 962.154 113.465 961.969 113.229C961.79 112.987 961.543 112.788 961.231 112.632C960.918 112.476 960.518 112.398 960.031 112.398C959.363 112.398 958.807 112.552 958.362 112.859C957.921 113.162 957.701 113.548 957.701 114.017C957.701 114.434 957.853 114.763 958.156 115.004C958.459 115.246 958.932 115.447 959.576 115.608L961.195 116.006C962.171 116.242 962.897 116.605 963.376 117.092C963.854 117.575 964.093 118.198 964.093 118.96C964.093 119.585 963.913 120.144 963.553 120.636C963.198 121.129 962.701 121.517 962.062 121.801C961.423 122.085 960.679 122.227 959.832 122.227C958.719 122.227 957.798 121.986 957.069 121.503C956.34 121.02 955.878 120.314 955.684 119.386L957.275 118.989C957.426 119.576 957.713 120.016 958.134 120.31C958.56 120.603 959.117 120.75 959.803 120.75C960.585 120.75 961.205 120.584 961.664 120.253C962.128 119.917 962.36 119.514 962.36 119.045C962.36 118.667 962.228 118.349 961.962 118.094C961.697 117.833 961.29 117.639 960.741 117.511L958.923 117.085C957.924 116.848 957.19 116.482 956.721 115.984C956.257 115.482 956.025 114.855 956.025 114.102C956.025 113.487 956.198 112.942 956.543 112.469C956.894 111.995 957.37 111.624 957.971 111.354C958.577 111.084 959.263 110.949 960.031 110.949C961.11 110.949 961.958 111.186 962.573 111.659C963.193 112.133 963.634 112.758 963.894 113.534Z" fill="black"/>
<path d="M1073.94 107H1071.17L1079.18 85.1818H1081.9L1089.92 107H1087.15L1080.63 88.6335H1080.46L1073.94 107ZM1074.96 98.4773H1086.12V100.821H1074.96V98.4773ZM1092.97 113.136V90.6364H1095.4V93.2358H1095.7C1095.88 92.9517 1096.14 92.5895 1096.47 92.1491C1096.8 91.7017 1097.28 91.304 1097.89 90.956C1098.52 90.6009 1099.37 90.4233 1100.43 90.4233C1101.81 90.4233 1103.02 90.7678 1104.07 91.4567C1105.13 92.1456 1105.95 93.1222 1106.53 94.3864C1107.12 95.6506 1107.42 97.142 1107.42 98.8608C1107.42 100.594 1107.12 102.096 1106.53 103.367C1105.95 104.631 1105.13 105.612 1104.08 106.308C1103.04 106.996 1101.84 107.341 1100.47 107.341C1099.42 107.341 1098.58 107.167 1097.95 106.819C1097.32 106.464 1096.83 106.062 1096.49 105.615C1096.15 105.161 1095.88 104.784 1095.7 104.486H1095.49V113.136H1092.97ZM1095.44 98.8182C1095.44 100.054 1095.63 101.144 1095.99 102.089C1096.35 103.026 1096.88 103.761 1097.58 104.294C1098.27 104.82 1099.12 105.082 1100.13 105.082C1101.18 105.082 1102.06 104.805 1102.76 104.251C1103.47 103.69 1104.01 102.937 1104.36 101.993C1104.72 101.041 1104.9 99.983 1104.9 98.8182C1104.9 97.6676 1104.73 96.6307 1104.37 95.7074C1104.02 94.777 1103.5 94.0419 1102.78 93.5021C1102.08 92.9553 1101.2 92.6818 1100.13 92.6818C1099.11 92.6818 1098.25 92.9411 1097.55 93.4595C1096.86 93.9709 1096.33 94.6882 1095.98 95.6115C1095.62 96.5277 1095.44 97.5966 1095.44 98.8182ZM1111.25 113.136V90.6364H1113.68V93.2358H1113.98C1114.17 92.9517 1114.42 92.5895 1114.75 92.1491C1115.08 91.7017 1115.56 91.304 1116.18 90.956C1116.8 90.6009 1117.65 90.4233 1118.71 90.4233C1120.09 90.4233 1121.3 90.7678 1122.36 91.4567C1123.41 92.1456 1124.23 93.1222 1124.82 94.3864C1125.41 95.6506 1125.7 97.142 1125.7 98.8608C1125.7 100.594 1125.41 102.096 1124.82 103.367C1124.23 104.631 1123.41 105.612 1122.37 106.308C1121.32 106.996 1120.12 107.341 1118.75 107.341C1117.7 107.341 1116.86 107.167 1116.23 106.819C1115.6 106.464 1115.11 106.062 1114.77 105.615C1114.43 105.161 1114.17 104.784 1113.98 104.486H1113.77V113.136H1111.25ZM1113.73 98.8182C1113.73 100.054 1113.91 101.144 1114.27 102.089C1114.63 103.026 1115.16 103.761 1115.86 104.294C1116.55 104.82 1117.4 105.082 1118.41 105.082C1119.46 105.082 1120.34 104.805 1121.04 104.251C1121.75 103.69 1122.29 102.937 1122.64 101.993C1123 101.041 1123.19 99.983 1123.19 98.8182C1123.19 97.6676 1123.01 96.6307 1122.65 95.7074C1122.31 94.777 1121.78 94.0419 1121.07 93.5021C1120.36 92.9553 1119.48 92.6818 1118.41 92.6818C1117.39 92.6818 1116.53 92.9411 1115.84 93.4595C1115.14 93.9709 1114.61 94.6882 1114.26 95.6115C1113.9 96.5277 1113.73 97.5966 1113.73 98.8182ZM1132.05 85.1818V107H1129.54V85.1818H1132.05ZM1136.65 107V90.6364H1139.17V107H1136.65ZM1137.93 87.9091C1137.44 87.9091 1137.02 87.7422 1136.67 87.4084C1136.32 87.0746 1136.14 86.6733 1136.14 86.2045C1136.14 85.7358 1136.32 85.3345 1136.67 85.0007C1137.02 84.6669 1137.44 84.5 1137.93 84.5C1138.42 84.5 1138.84 84.6669 1139.19 85.0007C1139.55 85.3345 1139.72 85.7358 1139.72 86.2045C1139.72 86.6733 1139.55 87.0746 1139.19 87.4084C1138.84 87.7422 1138.42 87.9091 1137.93 87.9091ZM1150.42 107.341C1148.89 107.341 1147.57 106.979 1146.46 106.254C1145.35 105.53 1144.5 104.532 1143.9 103.261C1143.31 101.989 1143.01 100.537 1143.01 98.9034C1143.01 97.2415 1143.31 95.7749 1143.92 94.5036C1144.54 93.2251 1145.4 92.2273 1146.5 91.5099C1147.61 90.7855 1148.9 90.4233 1150.38 90.4233C1151.53 90.4233 1152.57 90.6364 1153.49 91.0625C1154.41 91.4886 1155.17 92.0852 1155.76 92.8523C1156.35 93.6193 1156.71 94.5142 1156.86 95.5369H1154.34C1154.15 94.7912 1153.72 94.1307 1153.06 93.5554C1152.41 92.973 1151.53 92.6818 1150.42 92.6818C1149.44 92.6818 1148.58 92.9375 1147.84 93.4489C1147.11 93.9531 1146.54 94.6669 1146.13 95.5902C1145.72 96.5064 1145.52 97.5824 1145.52 98.8182C1145.52 100.082 1145.72 101.183 1146.12 102.121C1146.52 103.058 1147.09 103.786 1147.82 104.305C1148.56 104.823 1149.43 105.082 1150.42 105.082C1151.07 105.082 1151.67 104.969 1152.2 104.741C1152.73 104.514 1153.18 104.188 1153.55 103.761C1153.92 103.335 1154.19 102.824 1154.34 102.227H1156.86C1156.71 103.193 1156.36 104.063 1155.8 104.837C1155.25 105.604 1154.51 106.215 1153.6 106.67C1152.69 107.117 1151.63 107.341 1150.42 107.341ZM1165.35 107.384C1164.31 107.384 1163.37 107.188 1162.52 106.798C1161.68 106.4 1161.01 105.828 1160.51 105.082C1160.01 104.33 1159.76 103.42 1159.76 102.355C1159.76 101.418 1159.95 100.658 1160.32 100.075C1160.69 99.4858 1161.18 99.0241 1161.8 98.6903C1162.42 98.3565 1163.1 98.108 1163.84 97.9446C1164.6 97.7741 1165.35 97.6392 1166.11 97.5398C1167.11 97.4119 1167.91 97.3161 1168.53 97.2521C1169.16 97.1811 1169.61 97.0639 1169.9 96.9006C1170.19 96.7372 1170.33 96.4531 1170.33 96.0483V95.9631C1170.33 94.9119 1170.05 94.0952 1169.47 93.5128C1168.9 92.9304 1168.04 92.6392 1166.88 92.6392C1165.68 92.6392 1164.74 92.902 1164.06 93.4276C1163.38 93.9531 1162.9 94.5142 1162.62 95.1108L1160.23 94.2585C1160.66 93.2642 1161.23 92.4901 1161.94 91.9361C1162.66 91.375 1163.44 90.9844 1164.28 90.7642C1165.13 90.5369 1165.97 90.4233 1166.8 90.4233C1167.32 90.4233 1167.93 90.4872 1168.61 90.6151C1169.3 90.7358 1169.96 90.9879 1170.6 91.3714C1171.25 91.755 1171.78 92.3338 1172.21 93.108C1172.63 93.8821 1172.85 94.919 1172.85 96.2188V107H1170.33V104.784H1170.2C1170.03 105.139 1169.75 105.519 1169.35 105.924C1168.95 106.329 1168.43 106.673 1167.77 106.957C1167.1 107.241 1166.3 107.384 1165.35 107.384ZM1165.73 105.125C1166.72 105.125 1167.56 104.93 1168.24 104.539C1168.93 104.148 1169.45 103.644 1169.8 103.026C1170.16 102.408 1170.33 101.759 1170.33 101.077V98.7756C1170.23 98.9034 1169.99 99.0206 1169.63 99.1271C1169.27 99.2266 1168.86 99.3153 1168.39 99.3935C1167.93 99.4645 1167.48 99.5284 1167.04 99.5852C1166.61 99.6349 1166.26 99.6776 1165.99 99.7131C1165.33 99.7983 1164.72 99.9368 1164.15 100.129C1163.59 100.313 1163.14 100.594 1162.79 100.97C1162.45 101.339 1162.28 101.844 1162.28 102.483C1162.28 103.357 1162.6 104.017 1163.25 104.464C1163.9 104.905 1164.73 105.125 1165.73 105.125ZM1184.55 90.6364V92.767H1176.07V90.6364H1184.55ZM1178.54 86.7159H1181.06V102.312C1181.06 103.023 1181.16 103.555 1181.37 103.911C1181.58 104.259 1181.85 104.493 1182.18 104.614C1182.51 104.727 1182.86 104.784 1183.23 104.784C1183.51 104.784 1183.74 104.77 1183.91 104.741C1184.09 104.706 1184.23 104.678 1184.34 104.656L1184.85 106.915C1184.68 106.979 1184.44 107.043 1184.14 107.107C1183.83 107.178 1183.44 107.213 1182.98 107.213C1182.27 107.213 1181.57 107.06 1180.89 106.755C1180.21 106.45 1179.65 105.984 1179.2 105.359C1178.76 104.734 1178.54 103.946 1178.54 102.994V86.7159ZM1188.33 107V90.6364H1190.85V107H1188.33ZM1189.61 87.9091C1189.12 87.9091 1188.7 87.7422 1188.34 87.4084C1188 87.0746 1187.82 86.6733 1187.82 86.2045C1187.82 85.7358 1188 85.3345 1188.34 85.0007C1188.7 84.6669 1189.12 84.5 1189.61 84.5C1190.1 84.5 1190.52 84.6669 1190.87 85.0007C1191.22 85.3345 1191.4 85.7358 1191.4 86.2045C1191.4 86.6733 1191.22 87.0746 1190.87 87.4084C1190.52 87.7422 1190.1 87.9091 1189.61 87.9091ZM1202.1 107.341C1200.62 107.341 1199.33 106.989 1198.21 106.286C1197.1 105.583 1196.24 104.599 1195.61 103.335C1195 102.071 1194.69 100.594 1194.69 98.9034C1194.69 97.1989 1195 95.7109 1195.61 94.4396C1196.24 93.1683 1197.1 92.1811 1198.21 91.478C1199.33 90.7749 1200.62 90.4233 1202.1 90.4233C1203.58 90.4233 1204.87 90.7749 1205.98 91.478C1207.09 92.1811 1207.96 93.1683 1208.58 94.4396C1209.2 95.7109 1209.52 97.1989 1209.52 98.9034C1209.52 100.594 1209.2 102.071 1208.58 103.335C1207.96 104.599 1207.09 105.583 1205.98 106.286C1204.87 106.989 1203.58 107.341 1202.1 107.341ZM1202.1 105.082C1203.22 105.082 1204.15 104.795 1204.87 104.219C1205.6 103.644 1206.13 102.888 1206.48 101.95C1206.83 101.013 1207 99.9972 1207 98.9034C1207 97.8097 1206.83 96.7905 1206.48 95.8459C1206.13 94.9013 1205.6 94.1378 1204.87 93.5554C1204.15 92.973 1203.22 92.6818 1202.1 92.6818C1200.98 92.6818 1200.06 92.973 1199.33 93.5554C1198.61 94.1378 1198.07 94.9013 1197.72 95.8459C1197.37 96.7905 1197.2 97.8097 1197.2 98.9034C1197.2 99.9972 1197.37 101.013 1197.72 101.95C1198.07 102.888 1198.61 103.644 1199.33 104.219C1200.06 104.795 1200.98 105.082 1202.1 105.082ZM1215.87 97.1562V107H1213.35V90.6364H1215.78V93.1932H1216C1216.38 92.3622 1216.96 91.6946 1217.74 91.1903C1218.52 90.679 1219.53 90.4233 1220.77 90.4233C1221.88 90.4233 1222.85 90.6506 1223.68 91.1051C1224.51 91.5526 1225.15 92.2344 1225.62 93.1506C1226.08 94.0597 1226.31 95.2102 1226.31 96.6023V107H1223.79V96.7727C1223.79 95.4872 1223.46 94.4858 1222.79 93.7685C1222.13 93.044 1221.21 92.6818 1220.04 92.6818C1219.24 92.6818 1218.52 92.8558 1217.89 93.2038C1217.27 93.5518 1216.77 94.0597 1216.41 94.7273C1216.05 95.3949 1215.87 96.2045 1215.87 97.1562ZM1078.8 152V130.182H1086.17C1087.88 130.182 1089.28 130.491 1090.37 131.109C1091.46 131.719 1092.27 132.547 1092.8 133.591C1093.32 134.635 1093.58 135.8 1093.58 137.085C1093.58 138.371 1093.32 139.539 1092.8 140.59C1092.28 141.641 1091.47 142.479 1090.39 143.104C1089.3 143.722 1087.91 144.031 1086.21 144.031H1080.93V141.688H1086.13C1087.3 141.688 1088.24 141.485 1088.95 141.08C1089.66 140.675 1090.18 140.129 1090.49 139.44C1090.82 138.744 1090.98 137.959 1090.98 137.085C1090.98 136.212 1090.82 135.43 1090.49 134.741C1090.18 134.053 1089.66 133.513 1088.94 133.122C1088.22 132.724 1087.27 132.526 1086.08 132.526H1081.44V152H1078.8ZM1097.5 152V135.636H1099.93V138.108H1100.1C1100.4 137.298 1100.94 136.641 1101.72 136.137C1102.5 135.633 1103.38 135.381 1104.36 135.381C1104.54 135.381 1104.78 135.384 1105.05 135.391C1105.33 135.398 1105.54 135.409 1105.68 135.423V137.98C1105.6 137.959 1105.4 137.927 1105.1 137.884C1104.8 137.835 1104.48 137.81 1104.15 137.81C1103.35 137.81 1102.64 137.977 1102.02 138.31C1101.4 138.637 1100.91 139.092 1100.55 139.674C1100.19 140.249 1100.01 140.906 1100.01 141.645V152H1097.5ZM1114.81 152.341C1113.33 152.341 1112.04 151.989 1110.92 151.286C1109.81 150.583 1108.95 149.599 1108.32 148.335C1107.71 147.071 1107.4 145.594 1107.4 143.903C1107.4 142.199 1107.71 140.711 1108.32 139.44C1108.95 138.168 1109.81 137.181 1110.92 136.478C1112.04 135.775 1113.33 135.423 1114.81 135.423C1116.29 135.423 1117.58 135.775 1118.69 136.478C1119.8 137.181 1120.67 138.168 1121.29 139.44C1121.91 140.711 1122.23 142.199 1122.23 143.903C1122.23 145.594 1121.91 147.071 1121.29 148.335C1120.67 149.599 1119.8 150.583 1118.69 151.286C1117.58 151.989 1116.29 152.341 1114.81 152.341ZM1114.81 150.082C1115.93 150.082 1116.86 149.795 1117.58 149.219C1118.31 148.644 1118.84 147.888 1119.19 146.95C1119.54 146.013 1119.71 144.997 1119.71 143.903C1119.71 142.81 1119.54 141.79 1119.19 140.846C1118.84 139.901 1118.31 139.138 1117.58 138.555C1116.86 137.973 1115.93 137.682 1114.81 137.682C1113.69 137.682 1112.77 137.973 1112.04 138.555C1111.32 139.138 1110.78 139.901 1110.43 140.846C1110.08 141.79 1109.91 142.81 1109.91 143.903C1109.91 144.997 1110.08 146.013 1110.43 146.95C1110.78 147.888 1111.32 148.644 1112.04 149.219C1112.77 149.795 1113.69 150.082 1114.81 150.082ZM1126.06 158.136V135.636H1128.49V138.236H1128.79C1128.98 137.952 1129.23 137.589 1129.56 137.149C1129.89 136.702 1130.37 136.304 1130.99 135.956C1131.61 135.601 1132.46 135.423 1133.52 135.423C1134.9 135.423 1136.11 135.768 1137.16 136.457C1138.22 137.146 1139.04 138.122 1139.63 139.386C1140.22 140.651 1140.51 142.142 1140.51 143.861C1140.51 145.594 1140.22 147.096 1139.63 148.367C1139.04 149.631 1138.22 150.612 1137.18 151.308C1136.13 151.996 1134.93 152.341 1133.56 152.341C1132.51 152.341 1131.67 152.167 1131.04 151.819C1130.41 151.464 1129.92 151.062 1129.58 150.615C1129.24 150.161 1128.98 149.784 1128.79 149.486H1128.58V158.136H1126.06ZM1128.54 143.818C1128.54 145.054 1128.72 146.144 1129.08 147.089C1129.44 148.026 1129.97 148.761 1130.67 149.294C1131.36 149.82 1132.21 150.082 1133.22 150.082C1134.27 150.082 1135.15 149.805 1135.85 149.251C1136.56 148.69 1137.1 147.937 1137.45 146.993C1137.81 146.041 1138 144.983 1138 143.818C1138 142.668 1137.82 141.631 1137.46 140.707C1137.11 139.777 1136.59 139.042 1135.88 138.502C1135.17 137.955 1134.29 137.682 1133.22 137.682C1132.2 137.682 1131.34 137.941 1130.64 138.46C1129.95 138.971 1129.42 139.688 1129.07 140.612C1128.71 141.528 1128.54 142.597 1128.54 143.818ZM1151.21 152.341C1149.63 152.341 1148.27 151.993 1147.13 151.297C1145.99 150.594 1145.11 149.614 1144.49 148.357C1143.88 147.092 1143.58 145.622 1143.58 143.946C1143.58 142.27 1143.88 140.793 1144.49 139.514C1145.11 138.229 1145.97 137.227 1147.07 136.51C1148.18 135.786 1149.47 135.423 1150.95 135.423C1151.8 135.423 1152.64 135.565 1153.48 135.849C1154.31 136.134 1155.06 136.595 1155.74 137.234C1156.43 137.866 1156.97 138.705 1157.37 139.749C1157.78 140.793 1157.98 142.078 1157.98 143.605V144.67H1145.37V142.497H1155.42C1155.42 141.574 1155.24 140.75 1154.87 140.026C1154.51 139.301 1153.99 138.729 1153.32 138.31C1152.65 137.891 1151.86 137.682 1150.95 137.682C1149.95 137.682 1149.08 137.93 1148.35 138.428C1147.63 138.918 1147.07 139.557 1146.68 140.345C1146.29 141.134 1146.09 141.979 1146.09 142.881V144.33C1146.09 145.565 1146.31 146.613 1146.73 147.472C1147.16 148.325 1147.76 148.974 1148.53 149.422C1149.3 149.862 1150.19 150.082 1151.21 150.082C1151.87 150.082 1152.46 149.99 1153 149.805C1153.54 149.614 1154 149.33 1154.39 148.953C1154.78 148.57 1155.08 148.094 1155.3 147.526L1157.73 148.207C1157.47 149.031 1157.04 149.756 1156.44 150.381C1155.83 150.999 1155.09 151.482 1154.2 151.83C1153.31 152.17 1152.31 152.341 1151.21 152.341ZM1161.81 152V135.636H1164.23V138.108H1164.41C1164.7 137.298 1165.24 136.641 1166.02 136.137C1166.81 135.633 1167.69 135.381 1168.67 135.381C1168.85 135.381 1169.08 135.384 1169.36 135.391C1169.64 135.398 1169.85 135.409 1169.99 135.423V137.98C1169.9 137.959 1169.71 137.927 1169.4 137.884C1169.1 137.835 1168.79 137.81 1168.45 137.81C1167.66 137.81 1166.95 137.977 1166.32 138.31C1165.71 138.637 1165.22 139.092 1164.85 139.674C1164.5 140.249 1164.32 140.906 1164.32 141.645V152H1161.81ZM1181.11 135.636V137.767H1172.63V135.636H1181.11ZM1175.1 131.716H1177.62V147.312C1177.62 148.023 1177.72 148.555 1177.92 148.911C1178.14 149.259 1178.41 149.493 1178.73 149.614C1179.07 149.727 1179.42 149.784 1179.79 149.784C1180.07 149.784 1180.29 149.77 1180.47 149.741C1180.65 149.706 1180.79 149.678 1180.9 149.656L1181.41 151.915C1181.24 151.979 1181 152.043 1180.69 152.107C1180.39 152.178 1180 152.213 1179.53 152.213C1178.82 152.213 1178.13 152.06 1177.45 151.755C1176.77 151.45 1176.21 150.984 1175.76 150.359C1175.32 149.734 1175.1 148.946 1175.1 147.994V131.716ZM1184.89 152V135.636H1187.41V152H1184.89ZM1186.17 132.909C1185.68 132.909 1185.26 132.742 1184.9 132.408C1184.55 132.075 1184.38 131.673 1184.38 131.205C1184.38 130.736 1184.55 130.335 1184.9 130.001C1185.26 129.667 1185.68 129.5 1186.17 129.5C1186.66 129.5 1187.08 129.667 1187.43 130.001C1187.78 130.335 1187.96 130.736 1187.96 131.205C1187.96 131.673 1187.78 132.075 1187.43 132.408C1187.08 132.742 1186.66 132.909 1186.17 132.909ZM1198.87 152.341C1197.3 152.341 1195.94 151.993 1194.79 151.297C1193.66 150.594 1192.78 149.614 1192.16 148.357C1191.55 147.092 1191.24 145.622 1191.24 143.946C1191.24 142.27 1191.55 140.793 1192.16 139.514C1192.78 138.229 1193.64 137.227 1194.74 136.51C1195.85 135.786 1197.14 135.423 1198.62 135.423C1199.47 135.423 1200.31 135.565 1201.14 135.849C1201.97 136.134 1202.73 136.595 1203.41 137.234C1204.09 137.866 1204.64 138.705 1205.04 139.749C1205.45 140.793 1205.65 142.078 1205.65 143.605V144.67H1193.03V142.497H1203.09C1203.09 141.574 1202.91 140.75 1202.54 140.026C1202.17 139.301 1201.66 138.729 1200.98 138.31C1200.31 137.891 1199.53 137.682 1198.62 137.682C1197.61 137.682 1196.75 137.93 1196.02 138.428C1195.29 138.918 1194.73 139.557 1194.34 140.345C1193.95 141.134 1193.76 141.979 1193.76 142.881V144.33C1193.76 145.565 1193.97 146.613 1194.4 147.472C1194.83 148.325 1195.43 148.974 1196.2 149.422C1196.96 149.862 1197.86 150.082 1198.87 150.082C1199.53 150.082 1200.13 149.99 1200.66 149.805C1201.2 149.614 1201.67 149.33 1202.06 148.953C1202.45 148.57 1202.75 148.094 1202.96 147.526L1205.39 148.207C1205.14 149.031 1204.71 149.756 1204.1 150.381C1203.5 150.999 1202.75 151.482 1201.87 151.83C1200.98 152.17 1199.98 152.341 1198.87 152.341ZM1221.06 139.301L1218.8 139.94C1218.66 139.564 1218.45 139.198 1218.18 138.843C1217.91 138.481 1217.54 138.183 1217.07 137.948C1216.6 137.714 1216 137.597 1215.27 137.597C1214.27 137.597 1213.43 137.827 1212.76 138.289C1212.1 138.744 1211.77 139.322 1211.77 140.026C1211.77 140.651 1212 141.144 1212.45 141.506C1212.91 141.869 1213.62 142.17 1214.59 142.412L1217.01 143.009C1218.48 143.364 1219.57 143.907 1220.29 144.638C1221 145.363 1221.36 146.297 1221.36 147.44C1221.36 148.378 1221.09 149.216 1220.55 149.955C1220.02 150.693 1219.27 151.276 1218.31 151.702C1217.36 152.128 1216.24 152.341 1214.97 152.341C1213.3 152.341 1211.92 151.979 1210.83 151.254C1209.73 150.53 1209.04 149.472 1208.75 148.08L1211.13 147.483C1211.36 148.364 1211.79 149.024 1212.42 149.464C1213.06 149.905 1213.9 150.125 1214.93 150.125C1216.1 150.125 1217.03 149.876 1217.72 149.379C1218.41 148.875 1218.76 148.271 1218.76 147.568C1218.76 147 1218.56 146.524 1218.17 146.141C1217.77 145.75 1217.16 145.459 1216.33 145.267L1213.61 144.628C1212.11 144.273 1211.01 143.722 1210.3 142.977C1209.61 142.224 1209.26 141.283 1209.26 140.153C1209.26 139.23 1209.52 138.413 1210.04 137.703C1210.56 136.993 1211.28 136.435 1212.18 136.031C1213.09 135.626 1214.12 135.423 1215.27 135.423C1216.89 135.423 1218.16 135.778 1219.08 136.489C1220.01 137.199 1220.67 138.136 1221.06 139.301ZM1098.16 180.636C1098.03 179.557 1097.51 178.719 1096.6 178.122C1095.69 177.526 1094.58 177.227 1093.26 177.227C1092.29 177.227 1091.44 177.384 1090.72 177.696C1090 178.009 1089.44 178.438 1089.04 178.985C1088.64 179.532 1088.44 180.153 1088.44 180.849C1088.44 181.432 1088.58 181.933 1088.86 182.352C1089.14 182.763 1089.5 183.108 1089.94 183.385C1090.38 183.655 1090.84 183.879 1091.33 184.056C1091.81 184.227 1092.25 184.365 1092.66 184.472L1094.87 185.068C1095.44 185.217 1096.07 185.423 1096.77 185.686C1097.47 185.949 1098.15 186.308 1098.78 186.762C1099.43 187.21 1099.96 187.785 1100.38 188.488C1100.8 189.191 1101.01 190.054 1101.01 191.077C1101.01 192.256 1100.7 193.321 1100.08 194.273C1099.47 195.224 1098.58 195.981 1097.4 196.542C1096.23 197.103 1094.8 197.384 1093.13 197.384C1091.56 197.384 1090.21 197.131 1089.07 196.627C1087.93 196.123 1087.04 195.42 1086.38 194.518C1085.74 193.616 1085.37 192.568 1085.29 191.375H1088.01C1088.08 192.199 1088.36 192.881 1088.84 193.42C1089.33 193.953 1089.95 194.351 1090.7 194.614C1091.45 194.869 1092.26 194.997 1093.13 194.997C1094.14 194.997 1095.04 194.834 1095.84 194.507C1096.65 194.173 1097.28 193.712 1097.75 193.122C1098.22 192.526 1098.45 191.83 1098.45 191.034C1098.45 190.31 1098.25 189.72 1097.85 189.266C1097.44 188.811 1096.91 188.442 1096.25 188.158C1095.59 187.874 1094.87 187.625 1094.11 187.412L1091.42 186.645C1089.72 186.155 1088.37 185.455 1087.37 184.546C1086.38 183.637 1085.88 182.447 1085.88 180.977C1085.88 179.756 1086.21 178.69 1086.87 177.781C1087.54 176.865 1088.44 176.155 1089.56 175.651C1090.69 175.139 1091.95 174.884 1093.34 174.884C1094.75 174.884 1096 175.136 1097.09 175.64C1098.18 176.137 1099.05 176.819 1099.69 177.685C1100.34 178.552 1100.68 179.536 1100.71 180.636H1098.16ZM1112.13 180.636V182.767H1103.65V180.636H1112.13ZM1106.12 176.716H1108.64V192.312C1108.64 193.023 1108.74 193.555 1108.95 193.911C1109.16 194.259 1109.43 194.493 1109.75 194.614C1110.09 194.727 1110.44 194.784 1110.81 194.784C1111.09 194.784 1111.31 194.77 1111.49 194.741C1111.67 194.706 1111.81 194.678 1111.92 194.656L1112.43 196.915C1112.26 196.979 1112.02 197.043 1111.72 197.107C1111.41 197.178 1111.02 197.213 1110.55 197.213C1109.84 197.213 1109.15 197.06 1108.47 196.755C1107.79 196.45 1107.23 195.984 1106.78 195.359C1106.34 194.734 1106.12 193.946 1106.12 192.994V176.716ZM1115.91 197V180.636H1118.34V183.108H1118.51C1118.81 182.298 1119.35 181.641 1120.13 181.137C1120.91 180.633 1121.79 180.381 1122.77 180.381C1122.96 180.381 1123.19 180.384 1123.47 180.391C1123.74 180.398 1123.95 180.409 1124.09 180.423V182.98C1124.01 182.959 1123.81 182.927 1123.51 182.884C1123.21 182.835 1122.89 182.81 1122.56 182.81C1121.76 182.81 1121.05 182.977 1120.43 183.31C1119.81 183.637 1119.32 184.092 1118.96 184.674C1118.6 185.249 1118.43 185.906 1118.43 186.645V197H1115.91ZM1137.39 190.31V180.636H1139.9V197H1137.39V194.23H1137.22C1136.83 195.061 1136.24 195.768 1135.43 196.35C1134.62 196.925 1133.59 197.213 1132.36 197.213C1131.34 197.213 1130.43 196.989 1129.63 196.542C1128.84 196.087 1128.21 195.406 1127.76 194.496C1127.3 193.58 1127.07 192.426 1127.07 191.034V180.636H1129.59V190.864C1129.59 192.057 1129.92 193.009 1130.59 193.719C1131.26 194.429 1132.12 194.784 1133.17 194.784C1133.79 194.784 1134.43 194.624 1135.08 194.305C1135.73 193.985 1136.28 193.495 1136.72 192.835C1137.16 192.174 1137.39 191.332 1137.39 190.31ZM1151.15 197.341C1149.62 197.341 1148.3 196.979 1147.19 196.254C1146.08 195.53 1145.23 194.532 1144.63 193.261C1144.04 191.989 1143.74 190.537 1143.74 188.903C1143.74 187.241 1144.04 185.775 1144.66 184.504C1145.27 183.225 1146.13 182.227 1147.23 181.51C1148.34 180.786 1149.63 180.423 1151.11 180.423C1152.26 180.423 1153.3 180.636 1154.22 181.062C1155.15 181.489 1155.9 182.085 1156.49 182.852C1157.08 183.619 1157.45 184.514 1157.59 185.537H1155.07C1154.88 184.791 1154.46 184.131 1153.8 183.555C1153.14 182.973 1152.26 182.682 1151.15 182.682C1150.17 182.682 1149.31 182.937 1148.58 183.449C1147.84 183.953 1147.27 184.667 1146.86 185.59C1146.46 186.506 1146.25 187.582 1146.25 188.818C1146.25 190.082 1146.45 191.183 1146.85 192.121C1147.25 193.058 1147.82 193.786 1148.55 194.305C1149.29 194.823 1150.16 195.082 1151.15 195.082C1151.81 195.082 1152.4 194.969 1152.93 194.741C1153.47 194.514 1153.92 194.188 1154.29 193.761C1154.66 193.335 1154.92 192.824 1155.07 192.227H1157.59C1157.45 193.193 1157.09 194.063 1156.53 194.837C1155.98 195.604 1155.24 196.215 1154.33 196.67C1153.42 197.117 1152.36 197.341 1151.15 197.341ZM1168.38 180.636V182.767H1159.9V180.636H1168.38ZM1162.37 176.716H1164.89V192.312C1164.89 193.023 1164.99 193.555 1165.2 193.911C1165.41 194.259 1165.68 194.493 1166 194.614C1166.34 194.727 1166.69 194.784 1167.06 194.784C1167.34 194.784 1167.56 194.77 1167.74 194.741C1167.92 194.706 1168.06 194.678 1168.17 194.656L1168.68 196.915C1168.51 196.979 1168.27 197.043 1167.97 197.107C1167.66 197.178 1167.27 197.213 1166.8 197.213C1166.09 197.213 1165.4 197.06 1164.72 196.755C1164.04 196.45 1163.48 195.984 1163.03 195.359C1162.59 194.734 1162.37 193.946 1162.37 192.994V176.716ZM1182.47 190.31V180.636H1184.99V197H1182.47V194.23H1182.3C1181.92 195.061 1181.32 195.768 1180.51 196.35C1179.71 196.925 1178.68 197.213 1177.45 197.213C1176.42 197.213 1175.51 196.989 1174.72 196.542C1173.92 196.087 1173.3 195.406 1172.84 194.496C1172.39 193.58 1172.16 192.426 1172.16 191.034V180.636H1174.68V190.864C1174.68 192.057 1175.01 193.009 1175.68 193.719C1176.35 194.429 1177.21 194.784 1178.26 194.784C1178.88 194.784 1179.52 194.624 1180.16 194.305C1180.82 193.985 1181.36 193.495 1181.8 192.835C1182.25 192.174 1182.47 191.332 1182.47 190.31ZM1189.59 197V180.636H1192.02V183.108H1192.19C1192.49 182.298 1193.03 181.641 1193.81 181.137C1194.59 180.633 1195.47 180.381 1196.45 180.381C1196.64 180.381 1196.87 180.384 1197.15 180.391C1197.42 180.398 1197.63 180.409 1197.78 180.423V182.98C1197.69 182.959 1197.5 182.927 1197.19 182.884C1196.89 182.835 1196.58 182.81 1196.24 182.81C1195.45 182.81 1194.74 182.977 1194.11 183.31C1193.49 183.637 1193 184.092 1192.64 184.674C1192.29 185.249 1192.11 185.906 1192.11 186.645V197H1189.59ZM1207.12 197.341C1205.54 197.341 1204.18 196.993 1203.04 196.297C1201.9 195.594 1201.03 194.614 1200.41 193.357C1199.8 192.092 1199.49 190.622 1199.49 188.946C1199.49 187.27 1199.8 185.793 1200.41 184.514C1201.03 183.229 1201.88 182.227 1202.99 181.51C1204.09 180.786 1205.39 180.423 1206.86 180.423C1207.72 180.423 1208.56 180.565 1209.39 180.849C1210.22 181.134 1210.98 181.595 1211.66 182.234C1212.34 182.866 1212.88 183.705 1213.29 184.749C1213.69 185.793 1213.89 187.078 1213.89 188.605V189.67H1201.28V187.497H1211.34C1211.34 186.574 1211.15 185.75 1210.78 185.026C1210.42 184.301 1209.9 183.729 1209.23 183.31C1208.56 182.891 1207.77 182.682 1206.86 182.682C1205.86 182.682 1205 182.93 1204.26 183.428C1203.54 183.918 1202.98 184.557 1202.59 185.345C1202.2 186.134 1202.01 186.979 1202.01 187.881V189.33C1202.01 190.565 1202.22 191.613 1202.64 192.472C1203.08 193.325 1203.68 193.974 1204.44 194.422C1205.21 194.862 1206.1 195.082 1207.12 195.082C1207.78 195.082 1208.38 194.99 1208.91 194.805C1209.45 194.614 1209.91 194.33 1210.3 193.953C1210.69 193.57 1211 193.094 1211.21 192.526L1213.64 193.207C1213.38 194.031 1212.95 194.756 1212.35 195.381C1211.75 195.999 1211 196.482 1210.11 196.83C1209.22 197.17 1208.23 197.341 1207.12 197.341Z" fill="black"/>
<path d="M495 142L485 136.226V147.774L495 142ZM387 142V143H486V142V141H387V142Z" fill="#090D13"/>
<path d="M966 142L956 136.226V147.774L966 142ZM857 142V143H957V142V141H857V142Z" fill="#090D13"/>
</svg>
