<svg width="32" height="32" viewBox="0 0 32 32" fill="none"
    xmlns="http://www.w3.org/2000/svg">
    <rect width="32" height="32" rx="16" fill="currentColor" />
    <path d="M18.1654 9.47852L18.2545 9.48286C19.7139 9.63794 20.8103 9.96983 21.8531 10.6952C21.9775 10.782 22.0716 10.9057 22.1219 11.0488C23.4814 14.9003 23.8415 18.2859 23.1734 19.9475C22.4466 21.4004 21.285 22.5222 19.9893 22.5222C19.4589 22.5222 18.7625 21.8207 18.3023 21.0403C18.816 20.9468 19.3246 20.8276 19.8263 20.683C19.9178 20.6569 20.0033 20.6129 20.0779 20.5537C20.1524 20.4945 20.2146 20.4212 20.2608 20.3379C20.3071 20.2547 20.3364 20.1632 20.3473 20.0686C20.3581 19.974 20.3503 19.8782 20.3241 19.7866C20.2979 19.6951 20.254 19.6096 20.1948 19.535C20.1356 19.4605 20.0622 19.3983 19.979 19.3521C19.8958 19.3059 19.8042 19.2765 19.7096 19.2656C19.6151 19.2548 19.5192 19.2626 19.4277 19.2888C17.0219 19.9772 14.9856 19.9772 12.5798 19.2888C12.3949 19.236 12.1966 19.2587 12.0285 19.3521C11.8604 19.4454 11.7362 19.6018 11.6834 19.7866C11.6305 19.9715 11.6533 20.1698 11.7466 20.3379C11.84 20.5061 11.9963 20.6302 12.1812 20.683C12.7008 20.8309 13.2073 20.9512 13.7052 21.041C13.245 21.82 12.5486 22.5222 12.0182 22.5222C10.7225 22.5222 9.56088 21.4004 8.80942 19.8924C8.16594 18.2859 8.52681 14.8996 9.88553 11.0488C9.93591 10.9057 10.0299 10.782 10.1544 10.6952C11.1971 9.96983 12.2935 9.63794 13.753 9.48286C13.8839 9.4689 14.0161 9.49086 14.1355 9.5464C14.2549 9.60194 14.3569 9.68895 14.4305 9.79809L14.4762 9.87562L14.9479 10.8068L15.0472 10.7952C15.684 10.73 16.3257 10.73 16.9624 10.7952L17.0596 10.8068L17.5306 9.87635C17.5833 9.77185 17.6605 9.68167 17.7557 9.61352C17.8508 9.54538 17.9611 9.50129 18.077 9.48504L18.1654 9.47852ZM13.8298 14.5511C13.4835 14.551 13.1486 14.6751 12.8858 14.9006C12.623 15.1262 12.4496 15.4384 12.3972 15.7808L12.3841 15.8924L12.3805 16.0004L12.3841 16.1091C12.4053 16.3903 12.508 16.6592 12.6797 16.8829C12.8514 17.1065 13.0846 17.2753 13.3508 17.3684C13.617 17.4615 13.9046 17.4749 14.1783 17.407C14.452 17.3391 14.6999 17.1929 14.8917 16.9862C15.0835 16.7794 15.2109 16.5213 15.2581 16.2433C15.3054 15.9653 15.2705 15.6795 15.1578 15.421C15.0451 15.1625 14.8594 14.9426 14.6235 14.788C14.3876 14.6335 14.1118 14.5511 13.8298 14.5511ZM18.1777 14.5511C17.8313 14.551 17.4965 14.6751 17.2337 14.9006C16.9709 15.1262 16.7975 15.4384 16.7451 15.7808L16.732 15.8924L16.7284 16.0004L16.732 16.1091C16.7532 16.3903 16.8559 16.6592 17.0276 16.8829C17.1993 17.1065 17.4325 17.2753 17.6987 17.3684C17.9649 17.4615 18.2525 17.4749 18.5262 17.407C18.7999 17.3391 19.0478 17.1929 19.2396 16.9862C19.4314 16.7794 19.5588 16.5213 19.606 16.2433C19.6533 15.9653 19.6184 15.6795 19.5057 15.421C19.393 15.1625 19.2073 14.9426 18.9714 14.788C18.7355 14.6335 18.4597 14.5511 18.1777 14.5511Z" class="icon-bg" />
</svg>
