<svg width="32" height="32" viewBox="0 0 32 32" fill="none" xmlns="http://www.w3.org/2000/svg">
<path d="M32 16C32 7.16344 24.8366 0 16 0C7.16344 0 0 7.16344 0 16C0 24.8366 7.16344 32 16 32C24.8366 32 32 24.8366 32 16Z" fill="#606770"/>
<path d="M18.6654 9L18.7545 9.00434C20.2139 9.15942 21.3103 9.49131 22.3531 10.2167C22.4775 10.3035 22.5716 10.4272 22.6219 10.5703C23.9814 14.4218 24.3415 17.8074 23.6734 19.469C22.9466 20.9219 21.785 22.0437 20.4893 22.0437C19.9589 22.0437 19.2625 21.3422 18.8023 20.5618C19.316 20.4683 19.8246 20.3491 20.3263 20.2045C20.4178 20.1784 20.5033 20.1344 20.5779 20.0752C20.6524 20.016 20.7146 19.9427 20.7608 19.8594C20.8071 19.7762 20.8364 19.6847 20.8473 19.5901C20.8581 19.4955 20.8503 19.3997 20.8241 19.3081C20.7979 19.2166 20.754 19.1311 20.6948 19.0565C20.6356 18.982 20.5622 18.9198 20.479 18.8736C20.3958 18.8274 20.3042 18.798 20.2096 18.7871C20.1151 18.7763 20.0192 18.7841 19.9277 18.8103C17.5219 19.4987 15.4856 19.4987 13.0798 18.8103C12.8949 18.7575 12.6966 18.7802 12.5285 18.8736C12.3604 18.9669 12.2362 19.1233 12.1834 19.3081C12.1305 19.493 12.1533 19.6913 12.2466 19.8594C12.34 20.0276 12.4963 20.1517 12.6812 20.2045C13.2008 20.3524 13.7073 20.4727 14.2052 20.5625C13.745 21.3415 13.0486 22.0437 12.5182 22.0437C11.2225 22.0437 10.0609 20.9219 9.30942 19.4139C8.66594 17.8074 9.02681 14.4211 10.3855 10.5703C10.4359 10.4272 10.5299 10.3035 10.6544 10.2167C11.6971 9.49131 12.7935 9.15942 14.253 9.00434C14.3839 8.99038 14.5161 9.01234 14.6355 9.06788C14.7549 9.12342 14.8569 9.21043 14.9305 9.31957L14.9762 9.3971L15.4479 10.3283L15.5472 10.3167C16.184 10.2515 16.8257 10.2515 17.4624 10.3167L17.5596 10.3283L18.0306 9.39783C18.0833 9.29333 18.1605 9.20315 18.2557 9.135C18.3508 9.06686 18.4611 9.02277 18.577 9.00652L18.6654 9ZM14.3298 14.0726C13.9835 14.0725 13.6486 14.1966 13.3858 14.4221C13.123 14.6477 12.9496 14.9599 12.8972 15.3023L12.8841 15.4139L12.8805 15.5219L12.8841 15.6306C12.9053 15.9118 13.008 16.1807 13.1797 16.4044C13.3514 16.628 13.5846 16.7968 13.8508 16.8899C14.117 16.983 14.4046 16.9964 14.6783 16.9285C14.952 16.8606 15.1999 16.7144 15.3917 16.5077C15.5835 16.3009 15.7109 16.0428 15.7581 15.7648C15.8054 15.4868 15.7705 15.201 15.6578 14.9425C15.5451 14.684 15.3594 14.4641 15.1235 14.3095C14.8876 14.155 14.6118 14.0726 14.3298 14.0726ZM18.6777 14.0726C18.3313 14.0725 17.9965 14.1966 17.7337 14.4221C17.4709 14.6477 17.2975 14.9599 17.2451 15.3023L17.232 15.4139L17.2284 15.5219L17.232 15.6306C17.2532 15.9118 17.3559 16.1807 17.5276 16.4044C17.6993 16.628 17.9325 16.7968 18.1987 16.8899C18.4649 16.983 18.7525 16.9964 19.0262 16.9285C19.2999 16.8606 19.5478 16.7144 19.7396 16.5077C19.9314 16.3009 20.0588 16.0428 20.106 15.7648C20.1533 15.4868 20.1184 15.201 20.0057 14.9425C19.893 14.684 19.7073 14.4641 19.4714 14.3095C19.2355 14.155 18.9597 14.0726 18.6777 14.0726Z" fill="white"/>
</svg>
