<svg width="32" height="31" viewBox="0 0 32 31" fill="none"
    xmlns="http://www.w3.org/2000/svg">
    <g>
        <path d="M16 0C13.8988 0 11.8183 0.410453 9.87707 1.20791C7.93585 2.00536 6.17203 3.17421 4.68629 4.64772C1.68571 7.62357 0 11.6597 0 15.8682C0 22.8821 4.592 28.8326 10.944 30.9432C11.744 31.0701 12 30.5782 12 30.1497V27.468C7.568 28.4201 6.624 25.3417 6.624 25.3417C5.888 23.5009 4.848 23.009 4.848 23.009C3.392 22.0252 4.96 22.0569 4.96 22.0569C6.56 22.168 7.408 23.6913 7.408 23.6913C8.8 26.1033 11.152 25.3893 12.064 25.0084C12.208 23.977 12.624 23.2788 13.072 22.8821C9.52 22.4853 5.792 21.1206 5.792 15.0749C5.792 13.3134 6.4 11.9012 7.44 10.7746C7.28 10.3778 6.72 8.72757 7.6 6.58535C7.6 6.58535 8.944 6.15691 12 8.20397C13.264 7.85477 14.64 7.68024 16 7.68024C17.36 7.68024 18.736 7.85477 20 8.20397C23.056 6.15691 24.4 6.58535 24.4 6.58535C25.28 8.72757 24.72 10.3778 24.56 10.7746C25.6 11.9012 26.208 13.3134 26.208 15.0749C26.208 21.1365 22.464 22.4694 18.896 22.8662C19.472 23.3581 20 24.3261 20 25.8018V30.1497C20 30.5782 20.256 31.086 21.072 30.9432C27.424 28.8168 32 22.8821 32 15.8682C32 13.7845 31.5861 11.721 30.7821 9.79571C29.978 7.87051 28.7995 6.12123 27.3137 4.64772C25.828 3.17421 24.0641 2.00536 22.1229 1.20791C20.1817 0.410453 18.1012 1.33333e-05 16 0Z" fill="currentColor"/>
    </g>
</svg>
