<svg width="32" height="32" viewBox="0 0 32 32" fill="none"
    xmlns="http://www.w3.org/2000/svg">
    <g>
        <path d="M32 16C32 7.16344 24.8366 0 16 0C7.16344 0 0 7.16344 0 16C0 24.8366 7.16344 32 16 32C24.8366 32 32 24.8366 32 16Z" fill="currentColor"/>
        <path d="M8 12.7996C8 11.9509 8.33714 11.137 8.93726 10.5369C9.53737 9.93675 10.3513 9.59961 11.2 9.59961H20.8C21.6487 9.59961 22.4626 9.93675 23.0627 10.5369C23.6629 11.137 24 11.9509 24 12.7996V19.1996C24 20.0483 23.6629 20.8622 23.0627 21.4624C22.4626 22.0625 21.6487 22.3996 20.8 22.3996H11.2C10.3513 22.3996 9.53737 22.0625 8.93726 21.4624C8.33714 20.8622 8 20.0483 8 19.1996V12.7996Z" class="icon-stroke" />
        <path d="M14.4004 13.5996L18.4004 15.9996L14.4004 18.3996V13.5996Z" stroke="white" class="icon-stroke"/>
    </g>
</svg>
