<svg width="40" height="40" viewBox="0 0 40 40" fill="none" xmlns="http://www.w3.org/2000/svg">
<path d="M29.9982 22.6909C29.9982 28.3121 28.4144 32.6021 25.2471 35.5608C22.0798 38.5192 17.661 39.9986 11.9907 39.9986H2.43806C2.09472 39.9986 1.81641 39.7157 1.81641 39.3667V6.08505C1.81641 5.73604 2.09472 5.45312 2.43806 5.45312H11.3184C14.1768 5.45312 16.7339 5.79569 18.9897 6.48085C21.2455 7.15042 23.2 8.17815 24.8532 9.56401C26.5219 10.9343 27.7965 12.7328 28.6772 14.9596C29.5579 17.1708 29.9982 19.7478 29.9982 22.6909Z" fill="url(#paint0_linear_1695_19749)" fill-opacity="0.18"/>
<path d="M29.9982 22.6909C29.9982 28.3121 28.4144 32.6021 25.2471 35.5608C22.0798 38.5192 17.661 39.9986 11.9907 39.9986H2.43806C2.09472 39.9986 1.81641 39.7157 1.81641 39.3667V6.08505C1.81641 5.73604 2.09472 5.45312 2.43806 5.45312H11.3184C14.1768 5.45312 16.7339 5.79569 18.9897 6.48085C21.2455 7.15042 23.2 8.17815 24.8532 9.56401C26.5219 10.9343 27.7965 12.7328 28.6772 14.9596C29.5579 17.1708 29.9982 19.7478 29.9982 22.6909Z" fill="#7799FF" fill-opacity="0.22"/>
<path d="M38.3903 17.4646C38.3903 23.1598 36.7877 27.5062 33.5829 30.5038C30.3781 33.5012 25.9071 35 20.1696 35H10.504C10.1566 35 9.875 34.7134 9.875 34.3598V0.640244C9.875 0.286637 10.1566 0 10.504 0H19.4895C22.3817 0 24.969 0.347077 27.2515 1.04125C29.534 1.71963 31.5116 2.76088 33.1843 4.16498C34.8728 5.5533 36.1625 7.37548 37.0536 9.63151C37.9447 11.8718 38.3903 14.4827 38.3903 17.4646Z" fill="url(#paint1_linear_1695_19749)"/>
<defs>
<linearGradient id="paint0_linear_1695_19749" x1="1.81641" y1="2.68949" x2="1.81641" y2="39.9986" gradientUnits="userSpaceOnUse">
<stop stop-color="#00DBDE"/>
<stop offset="1" stop-color="#FC00FF"/>
</linearGradient>
<linearGradient id="paint1_linear_1695_19749" x1="9.875" y1="17.5" x2="38.3903" y2="17.5" gradientUnits="userSpaceOnUse">
<stop stop-color="#00DBDE"/>
<stop offset="1" stop-color="#FC00FF"/>
</linearGradient>
</defs>
</svg>
