<svg width="1342" height="709" viewBox="0 0 1342 709" fill="none" xmlns="http://www.w3.org/2000/svg">
<rect y="4" width="1342" height="39" fill="#3F99DA"/>
<path d="M636.6 30V15.4545H639.675V21.456H645.918V15.4545H648.987V30H645.918V23.9915H639.675V30H636.6ZM656.437 30.2131C655.315 30.2131 654.349 29.9858 653.539 29.5312C652.734 29.072 652.114 28.4233 651.678 27.5852C651.243 26.7424 651.025 25.7457 651.025 24.5952C651.025 23.473 651.243 22.4882 651.678 21.6406C652.114 20.7931 652.727 20.1326 653.518 19.6591C654.313 19.1856 655.246 18.9489 656.316 18.9489C657.036 18.9489 657.706 19.0649 658.326 19.2969C658.951 19.5241 659.496 19.8674 659.96 20.3267C660.428 20.786 660.793 21.3636 661.053 22.0597C661.314 22.7509 661.444 23.5606 661.444 24.4886V25.3196H652.232V23.4446H658.596C658.596 23.009 658.501 22.6231 658.312 22.2869C658.122 21.9508 657.86 21.688 657.523 21.4986C657.192 21.3045 656.806 21.2074 656.366 21.2074C655.906 21.2074 655.499 21.3139 655.144 21.527C654.794 21.7353 654.519 22.017 654.32 22.3722C654.121 22.7225 654.02 23.1132 654.015 23.544V25.3267C654.015 25.8665 654.114 26.3329 654.313 26.7259C654.517 27.1188 654.803 27.4219 655.173 27.6349C655.542 27.848 655.98 27.9545 656.487 27.9545C656.823 27.9545 657.13 27.9072 657.41 27.8125C657.689 27.7178 657.928 27.5758 658.127 27.3864C658.326 27.197 658.478 26.965 658.582 26.6903L661.38 26.875C661.238 27.5473 660.947 28.1345 660.506 28.6364C660.071 29.1335 659.507 29.5218 658.816 29.8011C658.129 30.0758 657.336 30.2131 656.437 30.2131ZM666.529 30.206C665.833 30.206 665.213 30.0852 664.668 29.8438C664.124 29.5975 663.693 29.2353 663.376 28.7571C663.063 28.2741 662.907 27.6728 662.907 26.9531C662.907 26.3471 663.018 25.8381 663.241 25.4261C663.463 25.0142 663.766 24.6828 664.15 24.4318C664.533 24.1809 664.969 23.9915 665.457 23.8636C665.949 23.7358 666.465 23.6458 667.005 23.5938C667.639 23.5275 668.151 23.4659 668.539 23.4091C668.927 23.3475 669.209 23.2576 669.384 23.1392C669.559 23.0208 669.647 22.8456 669.647 22.6136V22.571C669.647 22.1212 669.505 21.7732 669.221 21.527C668.942 21.2808 668.544 21.1577 668.028 21.1577C667.483 21.1577 667.05 21.2784 666.728 21.5199C666.406 21.7566 666.193 22.0549 666.089 22.4148L663.29 22.1875C663.433 21.5246 663.712 20.9517 664.129 20.4688C664.545 19.9811 665.083 19.607 665.741 19.3466C666.404 19.0814 667.171 18.9489 668.042 18.9489C668.648 18.9489 669.228 19.0199 669.782 19.1619C670.341 19.304 670.835 19.5241 671.266 19.8224C671.702 20.1207 672.045 20.5043 672.296 20.973C672.547 21.437 672.673 21.9934 672.673 22.642V30H669.803V28.4872H669.718C669.543 28.8281 669.308 29.1288 669.015 29.3892C668.721 29.6449 668.369 29.8461 667.957 29.9929C667.545 30.1349 667.069 30.206 666.529 30.206ZM667.396 28.1179C667.841 28.1179 668.234 28.0303 668.575 27.8551C668.915 27.6752 669.183 27.4337 669.377 27.1307C669.571 26.8277 669.668 26.4844 669.668 26.1009V24.9432C669.574 25.0047 669.443 25.0616 669.278 25.1136C669.117 25.161 668.934 25.206 668.731 25.2486C668.527 25.2865 668.324 25.322 668.12 25.3551C667.916 25.3835 667.732 25.4096 667.566 25.4332C667.211 25.4853 666.901 25.5682 666.636 25.6818C666.371 25.7955 666.165 25.9493 666.018 26.1435C665.871 26.3329 665.798 26.5696 665.798 26.8537C665.798 27.2656 665.947 27.5805 666.245 27.7983C666.548 28.0114 666.932 28.1179 667.396 28.1179ZM679.04 30.1776C678.211 30.1776 677.461 29.9645 676.788 29.5384C676.121 29.1075 675.59 28.4754 675.197 27.642C674.809 26.804 674.615 25.7765 674.615 24.5597C674.615 23.3097 674.816 22.2704 675.219 21.4418C675.621 20.6084 676.156 19.9858 676.824 19.5739C677.496 19.1572 678.232 18.9489 679.033 18.9489C679.643 18.9489 680.152 19.053 680.56 19.2614C680.972 19.465 681.303 19.7206 681.554 20.0284C681.81 20.3314 682.004 20.6297 682.136 20.9233H682.229V15.4545H685.247V30H682.264V28.2528H682.136C681.994 28.5559 681.793 28.8565 681.533 29.1548C681.277 29.4484 680.943 29.6922 680.531 29.8864C680.124 30.0805 679.627 30.1776 679.04 30.1776ZM679.999 27.7699C680.486 27.7699 680.898 27.6373 681.234 27.3722C681.575 27.1023 681.836 26.7259 682.016 26.2429C682.2 25.7599 682.293 25.1941 682.293 24.5455C682.293 23.8968 682.203 23.3333 682.023 22.8551C681.843 22.3769 681.582 22.0076 681.241 21.7472C680.901 21.4867 680.486 21.3565 679.999 21.3565C679.501 21.3565 679.082 21.4915 678.741 21.7614C678.401 22.0312 678.143 22.4053 677.967 22.8835C677.792 23.3617 677.705 23.9157 677.705 24.5455C677.705 25.1799 677.792 25.741 677.967 26.2287C678.147 26.7116 678.405 27.0904 678.741 27.3651C679.082 27.6349 679.501 27.7699 679.999 27.7699ZM692.706 30.2131C691.584 30.2131 690.618 29.9858 689.809 29.5312C689.004 29.072 688.383 28.4233 687.948 27.5852C687.512 26.7424 687.294 25.7457 687.294 24.5952C687.294 23.473 687.512 22.4882 687.948 21.6406C688.383 20.7931 688.997 20.1326 689.787 19.6591C690.583 19.1856 691.516 18.9489 692.586 18.9489C693.305 18.9489 693.975 19.0649 694.596 19.2969C695.221 19.5241 695.765 19.8674 696.229 20.3267C696.698 20.786 697.062 21.3636 697.323 22.0597C697.583 22.7509 697.713 23.5606 697.713 24.4886V25.3196H688.502V23.4446H694.865C694.865 23.009 694.771 22.6231 694.581 22.2869C694.392 21.9508 694.129 21.688 693.793 21.4986C693.462 21.3045 693.076 21.2074 692.635 21.2074C692.176 21.2074 691.769 21.3139 691.414 21.527C691.063 21.7353 690.789 22.017 690.59 22.3722C690.391 22.7225 690.289 23.1132 690.284 23.544V25.3267C690.284 25.8665 690.384 26.3329 690.583 26.7259C690.786 27.1188 691.073 27.4219 691.442 27.6349C691.811 27.848 692.249 27.9545 692.756 27.9545C693.092 27.9545 693.4 27.9072 693.679 27.8125C693.959 27.7178 694.198 27.5758 694.397 27.3864C694.596 27.197 694.747 26.965 694.851 26.6903L697.65 26.875C697.507 27.5473 697.216 28.1345 696.776 28.6364C696.34 29.1335 695.777 29.5218 695.086 29.8011C694.399 30.0758 693.606 30.2131 692.706 30.2131ZM699.688 30V19.0909H702.621V20.9943H702.735C702.934 20.3172 703.267 19.8059 703.736 19.4602C704.205 19.1098 704.745 18.9347 705.355 18.9347C705.507 18.9347 705.67 18.9441 705.846 18.9631C706.021 18.982 706.175 19.008 706.307 19.0412V21.7259C706.165 21.6832 705.969 21.6454 705.718 21.6122C705.467 21.5791 705.237 21.5625 705.029 21.5625C704.584 21.5625 704.186 21.6596 703.836 21.8537C703.49 22.0431 703.215 22.3082 703.012 22.6491C702.813 22.9901 702.713 23.383 702.713 23.8281V30H699.688Z" fill="white"/>
<rect y="53" width="183" height="656" fill="#3F6ADA"/>
<path d="M32.1722 373.547H29.0614C29.0046 373.144 28.8886 372.787 28.7134 372.474C28.5382 372.157 28.3133 371.887 28.0387 371.665C27.7641 371.442 27.4469 371.272 27.087 371.153C26.7319 371.035 26.346 370.976 25.9293 370.976C25.1765 370.976 24.5207 371.163 23.962 371.537C23.4033 371.906 22.9701 372.446 22.6623 373.156C22.3545 373.862 22.2006 374.719 22.2006 375.727C22.2006 376.764 22.3545 377.635 22.6623 378.341C22.9748 379.046 23.4104 379.579 23.9691 379.939C24.5278 380.299 25.1741 380.479 25.908 380.479C26.32 380.479 26.7011 380.424 27.0515 380.315C27.4066 380.206 27.7215 380.048 27.9961 379.839C28.2707 379.626 28.498 379.368 28.6779 379.065C28.8626 378.762 28.9904 378.417 29.0614 378.028L32.1722 378.043C32.0917 378.71 31.8905 379.354 31.5685 379.974C31.2513 380.59 30.8228 381.142 30.283 381.629C29.748 382.112 29.1088 382.496 28.3654 382.78C27.6268 383.059 26.7911 383.199 25.8583 383.199C24.561 383.199 23.4009 382.905 22.3782 382.318C21.3602 381.731 20.5553 380.881 19.9634 379.768C19.3763 378.656 19.0827 377.309 19.0827 375.727C19.0827 374.141 19.381 372.792 19.9776 371.679C20.5742 370.566 21.3839 369.719 22.4066 369.136C23.4293 368.549 24.5799 368.256 25.8583 368.256C26.7011 368.256 27.4824 368.374 28.2021 368.611C28.9265 368.848 29.5681 369.193 30.1268 369.648C30.6855 370.098 31.14 370.649 31.4904 371.303C31.8455 371.956 32.0728 372.704 32.1722 373.547ZM39.2496 383.213C38.1464 383.213 37.1924 382.979 36.3874 382.51C35.5872 382.036 34.9693 381.378 34.5337 380.536C34.0981 379.688 33.8803 378.705 33.8803 377.588C33.8803 376.461 34.0981 375.476 34.5337 374.634C34.9693 373.786 35.5872 373.128 36.3874 372.659C37.1924 372.186 38.1464 371.949 39.2496 371.949C40.3529 371.949 41.3046 372.186 42.1048 372.659C42.9097 373.128 43.5299 373.786 43.9656 374.634C44.4012 375.476 44.619 376.461 44.619 377.588C44.619 378.705 44.4012 379.688 43.9656 380.536C43.5299 381.378 42.9097 382.036 42.1048 382.51C41.3046 382.979 40.3529 383.213 39.2496 383.213ZM39.2638 380.869C39.7657 380.869 40.1848 380.727 40.521 380.443C40.8571 380.154 41.1104 379.761 41.2809 379.264C41.4561 378.767 41.5437 378.201 41.5437 377.567C41.5437 376.932 41.4561 376.366 41.2809 375.869C41.1104 375.372 40.8571 374.979 40.521 374.69C40.1848 374.402 39.7657 374.257 39.2638 374.257C38.7572 374.257 38.3311 374.402 37.9854 374.69C37.6445 374.979 37.3865 375.372 37.2113 375.869C37.0408 376.366 36.9556 376.932 36.9556 377.567C36.9556 378.201 37.0408 378.767 37.2113 379.264C37.3865 379.761 37.6445 380.154 37.9854 380.443C38.3311 380.727 38.7572 380.869 39.2638 380.869ZM49.6119 376.693V383H46.5863V372.091H49.4698V374.016H49.5977C49.8391 373.381 50.244 372.879 50.8121 372.51C51.3803 372.136 52.0692 371.949 52.8789 371.949C53.6365 371.949 54.297 372.115 54.8604 372.446C55.4239 372.777 55.8619 373.251 56.1744 373.866C56.4869 374.477 56.6431 375.206 56.6431 376.054V383H53.6175V376.594C53.6223 375.926 53.4518 375.405 53.1062 375.031C52.7605 374.652 52.2847 374.463 51.6786 374.463C51.2714 374.463 50.9116 374.551 50.5991 374.726C50.2913 374.901 50.0498 375.157 49.8746 375.493C49.7042 375.824 49.6166 376.224 49.6119 376.693ZM68.8075 372.091L64.9936 383H61.5845L57.7706 372.091H60.9666L63.2322 379.896H63.3459L65.6044 372.091H68.8075ZM74.9759 383.213C73.8537 383.213 72.8878 382.986 72.0781 382.531C71.2732 382.072 70.6529 381.423 70.2173 380.585C69.7817 379.742 69.5639 378.746 69.5639 377.595C69.5639 376.473 69.7817 375.488 70.2173 374.641C70.6529 373.793 71.2661 373.133 72.0568 372.659C72.8523 372.186 73.785 371.949 74.8551 371.949C75.5748 371.949 76.2448 372.065 76.8651 372.297C77.4901 372.524 78.0346 372.867 78.4986 373.327C78.9673 373.786 79.3319 374.364 79.5923 375.06C79.8527 375.751 79.983 376.561 79.983 377.489V378.32H70.7713V376.445H77.1349C77.1349 376.009 77.0402 375.623 76.8509 375.287C76.6615 374.951 76.3987 374.688 76.0625 374.499C75.7311 374.304 75.3452 374.207 74.9048 374.207C74.4455 374.207 74.0384 374.314 73.6832 374.527C73.3329 374.735 73.0582 375.017 72.8594 375.372C72.6605 375.723 72.5587 376.113 72.554 376.544V378.327C72.554 378.866 72.6534 379.333 72.8523 379.726C73.0559 380.119 73.3423 380.422 73.7116 380.635C74.081 380.848 74.5189 380.955 75.0256 380.955C75.3617 380.955 75.6695 380.907 75.9489 380.812C76.2282 380.718 76.4673 380.576 76.6662 380.386C76.8651 380.197 77.0166 379.965 77.1207 379.69L79.919 379.875C79.777 380.547 79.4858 381.134 79.0455 381.636C78.6098 382.134 78.0464 382.522 77.3551 382.801C76.6686 383.076 75.8755 383.213 74.9759 383.213ZM81.9574 383V372.091H84.8906V373.994H85.0043C85.2031 373.317 85.5369 372.806 86.0057 372.46C86.4744 372.11 87.0142 371.935 87.625 371.935C87.7765 371.935 87.9399 371.944 88.1151 371.963C88.2902 371.982 88.4441 372.008 88.5767 372.041V374.726C88.4347 374.683 88.2382 374.645 87.9872 374.612C87.7363 374.579 87.5066 374.562 87.2983 374.562C86.8532 374.562 86.4555 374.66 86.1051 374.854C85.7595 375.043 85.4848 375.308 85.2812 375.649C85.0824 375.99 84.983 376.383 84.983 376.828V383H81.9574ZM99.2177 375.202L96.4478 375.372C96.4004 375.135 96.2987 374.922 96.1424 374.733C95.9862 374.539 95.7802 374.385 95.5245 374.271C95.2736 374.153 94.9729 374.094 94.6225 374.094C94.1538 374.094 93.7584 374.193 93.4364 374.392C93.1145 374.586 92.9535 374.847 92.9535 375.173C92.9535 375.434 93.0576 375.654 93.266 375.834C93.4743 376.014 93.8318 376.158 94.3384 376.267L96.3129 376.665C97.3735 376.883 98.1642 377.233 98.685 377.716C99.2058 378.199 99.4663 378.833 99.4663 379.619C99.4663 380.334 99.2556 380.962 98.8342 381.501C98.4175 382.041 97.8446 382.463 97.1154 382.766C96.391 383.064 95.5553 383.213 94.6083 383.213C93.1642 383.213 92.0136 382.912 91.1566 382.311C90.3043 381.705 89.8048 380.881 89.658 379.839L92.6339 379.683C92.7238 380.124 92.9416 380.46 93.2873 380.692C93.6329 380.919 94.0756 381.033 94.6154 381.033C95.1457 381.033 95.5719 380.931 95.8938 380.727C96.2205 380.519 96.3862 380.251 96.391 379.925C96.3862 379.65 96.2702 379.425 96.043 379.25C95.8157 379.07 95.4653 378.933 94.9918 378.838L93.1026 378.462C92.0373 378.249 91.2442 377.879 90.7234 377.354C90.2073 376.828 89.9492 376.158 89.9492 375.344C89.9492 374.643 90.1386 374.039 90.5174 373.533C90.9009 373.026 91.4383 372.635 92.1296 372.361C92.8256 372.086 93.64 371.949 94.5728 371.949C95.9506 371.949 97.0349 372.24 97.8256 372.822C98.6211 373.405 99.0851 374.198 99.2177 375.202ZM104.482 383.206C103.786 383.206 103.166 383.085 102.621 382.844C102.077 382.598 101.646 382.235 101.329 381.757C101.016 381.274 100.86 380.673 100.86 379.953C100.86 379.347 100.971 378.838 101.194 378.426C101.416 378.014 101.719 377.683 102.103 377.432C102.487 377.181 102.922 376.991 103.41 376.864C103.902 376.736 104.418 376.646 104.958 376.594C105.593 376.527 106.104 376.466 106.492 376.409C106.88 376.348 107.162 376.258 107.337 376.139C107.513 376.021 107.6 375.846 107.6 375.614V375.571C107.6 375.121 107.458 374.773 107.174 374.527C106.895 374.281 106.497 374.158 105.981 374.158C105.436 374.158 105.003 374.278 104.681 374.52C104.359 374.757 104.146 375.055 104.042 375.415L101.244 375.188C101.386 374.525 101.665 373.952 102.082 373.469C102.498 372.981 103.036 372.607 103.694 372.347C104.357 372.081 105.124 371.949 105.995 371.949C106.601 371.949 107.181 372.02 107.735 372.162C108.294 372.304 108.789 372.524 109.219 372.822C109.655 373.121 109.998 373.504 110.249 373.973C110.5 374.437 110.626 374.993 110.626 375.642V383H107.756V381.487H107.671C107.496 381.828 107.262 382.129 106.968 382.389C106.674 382.645 106.322 382.846 105.91 382.993C105.498 383.135 105.022 383.206 104.482 383.206ZM105.349 381.118C105.794 381.118 106.187 381.03 106.528 380.855C106.869 380.675 107.136 380.434 107.33 380.131C107.524 379.828 107.621 379.484 107.621 379.101V377.943C107.527 378.005 107.397 378.062 107.231 378.114C107.07 378.161 106.888 378.206 106.684 378.249C106.48 378.286 106.277 378.322 106.073 378.355C105.87 378.384 105.685 378.41 105.519 378.433C105.164 378.485 104.854 378.568 104.589 378.682C104.324 378.795 104.118 378.949 103.971 379.143C103.824 379.333 103.751 379.57 103.751 379.854C103.751 380.266 103.9 380.58 104.198 380.798C104.501 381.011 104.885 381.118 105.349 381.118ZM118.776 372.091V374.364H112.206V372.091H118.776ZM113.697 369.477H116.723V379.648C116.723 379.927 116.766 380.145 116.851 380.301C116.936 380.453 117.054 380.559 117.206 380.621C117.362 380.682 117.542 380.713 117.746 380.713C117.888 380.713 118.03 380.701 118.172 380.678C118.314 380.649 118.423 380.628 118.499 380.614L118.974 382.865C118.823 382.912 118.61 382.967 118.335 383.028C118.061 383.095 117.727 383.135 117.334 383.149C116.605 383.178 115.965 383.08 115.416 382.858C114.872 382.635 114.448 382.29 114.145 381.821C113.842 381.352 113.693 380.76 113.697 380.045V369.477ZM120.746 383V372.091H123.772V383H120.746ZM122.266 370.685C121.817 370.685 121.431 370.536 121.109 370.237C120.791 369.934 120.633 369.572 120.633 369.151C120.633 368.734 120.791 368.376 121.109 368.078C121.431 367.775 121.817 367.624 122.266 367.624C122.716 367.624 123.1 367.775 123.417 368.078C123.739 368.376 123.9 368.734 123.9 369.151C123.9 369.572 123.739 369.934 123.417 370.237C123.1 370.536 122.716 370.685 122.266 370.685ZM131.125 383.213C130.021 383.213 129.067 382.979 128.262 382.51C127.462 382.036 126.844 381.378 126.409 380.536C125.973 379.688 125.755 378.705 125.755 377.588C125.755 376.461 125.973 375.476 126.409 374.634C126.844 373.786 127.462 373.128 128.262 372.659C129.067 372.186 130.021 371.949 131.125 371.949C132.228 371.949 133.18 372.186 133.98 372.659C134.785 373.128 135.405 373.786 135.841 374.634C136.276 375.476 136.494 376.461 136.494 377.588C136.494 378.705 136.276 379.688 135.841 380.536C135.405 381.378 134.785 382.036 133.98 382.51C133.18 382.979 132.228 383.213 131.125 383.213ZM131.139 380.869C131.641 380.869 132.06 380.727 132.396 380.443C132.732 380.154 132.985 379.761 133.156 379.264C133.331 378.767 133.419 378.201 133.419 377.567C133.419 376.932 133.331 376.366 133.156 375.869C132.985 375.372 132.732 374.979 132.396 374.69C132.06 374.402 131.641 374.257 131.139 374.257C130.632 374.257 130.206 374.402 129.86 374.69C129.52 374.979 129.261 375.372 129.086 375.869C128.916 376.366 128.831 376.932 128.831 377.567C128.831 378.201 128.916 378.767 129.086 379.264C129.261 379.761 129.52 380.154 129.86 380.443C130.206 380.727 130.632 380.869 131.139 380.869ZM141.487 376.693V383H138.461V372.091H141.345V374.016H141.473C141.714 373.381 142.119 372.879 142.687 372.51C143.255 372.136 143.944 371.949 144.754 371.949C145.511 371.949 146.172 372.115 146.735 372.446C147.299 372.777 147.737 373.251 148.049 373.866C148.362 374.477 148.518 375.206 148.518 376.054V383H145.493V376.594C145.497 375.926 145.327 375.405 144.981 375.031C144.636 374.652 144.16 374.463 143.554 374.463C143.146 374.463 142.787 374.551 142.474 374.726C142.166 374.901 141.925 375.157 141.75 375.493C141.579 375.824 141.492 376.224 141.487 376.693ZM159.979 375.202L157.21 375.372C157.162 375.135 157.06 374.922 156.904 374.733C156.748 374.539 156.542 374.385 156.286 374.271C156.035 374.153 155.735 374.094 155.384 374.094C154.915 374.094 154.52 374.193 154.198 374.392C153.876 374.586 153.715 374.847 153.715 375.173C153.715 375.434 153.819 375.654 154.028 375.834C154.236 376.014 154.594 376.158 155.1 376.267L157.075 376.665C158.135 376.883 158.926 377.233 159.447 377.716C159.968 378.199 160.228 378.833 160.228 379.619C160.228 380.334 160.017 380.962 159.596 381.501C159.179 382.041 158.606 382.463 157.877 382.766C157.153 383.064 156.317 383.213 155.37 383.213C153.926 383.213 152.775 382.912 151.918 382.311C151.066 381.705 150.567 380.881 150.42 379.839L153.396 379.683C153.486 380.124 153.703 380.46 154.049 380.692C154.395 380.919 154.837 381.033 155.377 381.033C155.907 381.033 156.334 380.931 156.656 380.727C156.982 380.519 157.148 380.251 157.153 379.925C157.148 379.65 157.032 379.425 156.805 379.25C156.577 379.07 156.227 378.933 155.754 378.838L153.864 378.462C152.799 378.249 152.006 377.879 151.485 377.354C150.969 376.828 150.711 376.158 150.711 375.344C150.711 374.643 150.9 374.039 151.279 373.533C151.663 373.026 152.2 372.635 152.891 372.361C153.587 372.086 154.402 371.949 155.335 371.949C156.712 371.949 157.797 372.24 158.587 372.822C159.383 373.405 159.847 374.198 159.979 375.202Z" fill="white"/>
<rect x="1159" y="53" width="183" height="656" fill="#7D58E9"/>
<path d="M1210.44 383V368.455H1216.17C1217.28 368.455 1218.22 368.665 1218.99 369.087C1219.77 369.503 1220.36 370.083 1220.77 370.827C1221.18 371.565 1221.39 372.418 1221.39 373.384C1221.39 374.349 1221.18 375.202 1220.76 375.94C1220.35 376.679 1219.74 377.254 1218.95 377.666C1218.17 378.078 1217.21 378.284 1216.1 378.284H1212.44V375.82H1215.6C1216.19 375.82 1216.68 375.718 1217.06 375.514C1217.45 375.306 1217.74 375.019 1217.93 374.655C1218.12 374.286 1218.22 373.862 1218.22 373.384C1218.22 372.901 1218.12 372.479 1217.93 372.119C1217.74 371.755 1217.45 371.473 1217.06 371.274C1216.67 371.071 1216.18 370.969 1215.59 370.969H1213.51V383H1210.44ZM1223.33 383V372.091H1226.26V373.994H1226.38C1226.57 373.317 1226.91 372.806 1227.38 372.46C1227.85 372.11 1228.39 371.935 1229 371.935C1229.15 371.935 1229.31 371.944 1229.49 371.963C1229.66 371.982 1229.82 372.008 1229.95 372.041V374.726C1229.81 374.683 1229.61 374.645 1229.36 374.612C1229.11 374.579 1228.88 374.562 1228.67 374.562C1228.22 374.562 1227.83 374.66 1227.48 374.854C1227.13 375.043 1226.86 375.308 1226.65 375.649C1226.45 375.99 1226.35 376.383 1226.35 376.828V383H1223.33ZM1235.93 383.213C1234.83 383.213 1233.88 382.979 1233.07 382.51C1232.27 382.036 1231.65 381.378 1231.22 380.536C1230.78 379.688 1230.56 378.705 1230.56 377.588C1230.56 376.461 1230.78 375.476 1231.22 374.634C1231.65 373.786 1232.27 373.128 1233.07 372.659C1233.88 372.186 1234.83 371.949 1235.93 371.949C1237.04 371.949 1237.99 372.186 1238.79 372.659C1239.59 373.128 1240.21 373.786 1240.65 374.634C1241.08 375.476 1241.3 376.461 1241.3 377.588C1241.3 378.705 1241.08 379.688 1240.65 380.536C1240.21 381.378 1239.59 382.036 1238.79 382.51C1237.99 382.979 1237.04 383.213 1235.93 383.213ZM1235.95 380.869C1236.45 380.869 1236.87 380.727 1237.2 380.443C1237.54 380.154 1237.79 379.761 1237.96 379.264C1238.14 378.767 1238.23 378.201 1238.23 377.567C1238.23 376.932 1238.14 376.366 1237.96 375.869C1237.79 375.372 1237.54 374.979 1237.2 374.69C1236.87 374.402 1236.45 374.257 1235.95 374.257C1235.44 374.257 1235.01 374.402 1234.67 374.69C1234.33 374.979 1234.07 375.372 1233.89 375.869C1233.72 376.366 1233.64 376.932 1233.64 377.567C1233.64 378.201 1233.72 378.767 1233.89 379.264C1234.07 379.761 1234.33 380.154 1234.67 380.443C1235.01 380.727 1235.44 380.869 1235.95 380.869ZM1243.27 383V372.091H1246.15V374.016H1246.28C1246.51 373.376 1246.89 372.872 1247.42 372.503C1247.95 372.134 1248.58 371.949 1249.32 371.949C1250.07 371.949 1250.71 372.136 1251.23 372.51C1251.76 372.879 1252.11 373.381 1252.28 374.016H1252.4C1252.62 373.391 1253.02 372.891 1253.6 372.517C1254.19 372.138 1254.88 371.949 1255.68 371.949C1256.7 371.949 1257.53 372.273 1258.16 372.922C1258.8 373.566 1259.12 374.48 1259.12 375.663V383H1256.1V376.26C1256.1 375.654 1255.94 375.199 1255.62 374.896C1255.3 374.593 1254.9 374.442 1254.41 374.442C1253.86 374.442 1253.44 374.617 1253.13 374.967C1252.82 375.313 1252.67 375.77 1252.67 376.338V383H1249.73V376.196C1249.73 375.661 1249.58 375.235 1249.27 374.918C1248.97 374.6 1248.57 374.442 1248.07 374.442C1247.73 374.442 1247.43 374.527 1247.16 374.697C1246.9 374.863 1246.69 375.098 1246.53 375.401C1246.37 375.699 1246.3 376.049 1246.3 376.452V383H1243.27ZM1261.51 387.091V372.091H1264.5V373.923H1264.63C1264.76 373.63 1264.95 373.331 1265.21 373.028C1265.46 372.721 1265.79 372.465 1266.2 372.261C1266.61 372.053 1267.12 371.949 1267.73 371.949C1268.53 371.949 1269.26 372.157 1269.94 372.574C1270.61 372.986 1271.15 373.608 1271.55 374.442C1271.95 375.27 1272.15 376.31 1272.15 377.56C1272.15 378.777 1271.95 379.804 1271.56 380.642C1271.17 381.475 1270.64 382.107 1269.97 382.538C1269.3 382.964 1268.56 383.178 1267.73 383.178C1267.14 383.178 1266.64 383.08 1266.23 382.886C1265.82 382.692 1265.49 382.448 1265.23 382.155C1264.97 381.857 1264.77 381.556 1264.63 381.253H1264.54V387.091H1261.51ZM1264.47 377.545C1264.47 378.194 1264.56 378.76 1264.74 379.243C1264.92 379.726 1265.18 380.102 1265.52 380.372C1265.87 380.637 1266.28 380.77 1266.77 380.77C1267.26 380.77 1267.68 380.635 1268.02 380.365C1268.36 380.09 1268.62 379.712 1268.79 379.229C1268.97 378.741 1269.06 378.18 1269.06 377.545C1269.06 376.916 1268.97 376.362 1268.8 375.884C1268.62 375.405 1268.37 375.031 1268.02 374.761C1267.68 374.491 1267.26 374.357 1266.77 374.357C1266.28 374.357 1265.86 374.487 1265.52 374.747C1265.18 375.008 1264.92 375.377 1264.74 375.855C1264.56 376.333 1264.47 376.897 1264.47 377.545ZM1279.97 372.091V374.364H1273.4V372.091H1279.97ZM1274.89 369.477H1277.92V379.648C1277.92 379.927 1277.96 380.145 1278.05 380.301C1278.13 380.453 1278.25 380.559 1278.4 380.621C1278.56 380.682 1278.74 380.713 1278.94 380.713C1279.08 380.713 1279.23 380.701 1279.37 380.678C1279.51 380.649 1279.62 380.628 1279.69 380.614L1280.17 382.865C1280.02 382.912 1279.81 382.967 1279.53 383.028C1279.26 383.095 1278.92 383.135 1278.53 383.149C1277.8 383.178 1277.16 383.08 1276.61 382.858C1276.07 382.635 1275.64 382.29 1275.34 381.821C1275.04 381.352 1274.89 380.76 1274.89 380.045V369.477ZM1290.88 375.202L1288.11 375.372C1288.06 375.135 1287.96 374.922 1287.81 374.733C1287.65 374.539 1287.44 374.385 1287.19 374.271C1286.94 374.153 1286.64 374.094 1286.29 374.094C1285.82 374.094 1285.42 374.193 1285.1 374.392C1284.78 374.586 1284.62 374.847 1284.62 375.173C1284.62 375.434 1284.72 375.654 1284.93 375.834C1285.14 376.014 1285.5 376.158 1286 376.267L1287.98 376.665C1289.04 376.883 1289.83 377.233 1290.35 377.716C1290.87 378.199 1291.13 378.833 1291.13 379.619C1291.13 380.334 1290.92 380.962 1290.5 381.501C1290.08 382.041 1289.51 382.463 1288.78 382.766C1288.06 383.064 1287.22 383.213 1286.27 383.213C1284.83 383.213 1283.68 382.912 1282.82 382.311C1281.97 381.705 1281.47 380.881 1281.32 379.839L1284.3 379.683C1284.39 380.124 1284.61 380.46 1284.95 380.692C1285.3 380.919 1285.74 381.033 1286.28 381.033C1286.81 381.033 1287.24 380.931 1287.56 380.727C1287.88 380.519 1288.05 380.251 1288.06 379.925C1288.05 379.65 1287.93 379.425 1287.71 379.25C1287.48 379.07 1287.13 378.933 1286.66 378.838L1284.77 378.462C1283.7 378.249 1282.91 377.879 1282.39 377.354C1281.87 376.828 1281.61 376.158 1281.61 375.344C1281.61 374.643 1281.8 374.039 1282.18 373.533C1282.56 373.026 1283.1 372.635 1283.79 372.361C1284.49 372.086 1285.3 371.949 1286.24 371.949C1287.61 371.949 1288.7 372.24 1289.49 372.822C1290.29 373.405 1290.75 374.198 1290.88 375.202Z" fill="white"/>
<rect x="193" y="561" width="956" height="148" fill="#6086E9"/>
<path d="M641.299 632.547H638.188C638.132 632.144 638.016 631.787 637.84 631.474C637.665 631.157 637.44 630.887 637.166 630.665C636.891 630.442 636.574 630.272 636.214 630.153C635.859 630.035 635.473 629.976 635.056 629.976C634.303 629.976 633.648 630.163 633.089 630.537C632.53 630.906 632.097 631.446 631.789 632.156C631.481 632.862 631.328 633.719 631.328 634.727C631.328 635.764 631.481 636.635 631.789 637.341C632.102 638.046 632.537 638.579 633.096 638.939C633.655 639.299 634.301 639.479 635.035 639.479C635.447 639.479 635.828 639.424 636.178 639.315C636.534 639.206 636.848 639.048 637.123 638.839C637.398 638.626 637.625 638.368 637.805 638.065C637.99 637.762 638.117 637.417 638.188 637.028L641.299 637.043C641.219 637.71 641.017 638.354 640.695 638.974C640.378 639.59 639.95 640.142 639.41 640.629C638.875 641.112 638.236 641.496 637.492 641.78C636.754 642.059 635.918 642.199 634.985 642.199C633.688 642.199 632.528 641.905 631.505 641.318C630.487 640.731 629.682 639.881 629.09 638.768C628.503 637.656 628.21 636.309 628.21 634.727C628.21 633.141 628.508 631.792 629.105 630.679C629.701 629.566 630.511 628.719 631.534 628.136C632.556 627.549 633.707 627.256 634.985 627.256C635.828 627.256 636.609 627.374 637.329 627.611C638.053 627.848 638.695 628.193 639.254 628.648C639.812 629.098 640.267 629.649 640.617 630.303C640.972 630.956 641.2 631.704 641.299 632.547ZM646.473 635.693V642H643.448V627.455H646.388V633.016H646.516C646.762 632.372 647.16 631.867 647.709 631.503C648.258 631.134 648.947 630.949 649.776 630.949C650.533 630.949 651.194 631.115 651.757 631.446C652.325 631.773 652.766 632.244 653.078 632.859C653.396 633.47 653.552 634.202 653.547 635.054V642H650.521V635.594C650.526 634.921 650.356 634.398 650.01 634.024C649.669 633.65 649.191 633.463 648.575 633.463C648.164 633.463 647.799 633.551 647.482 633.726C647.169 633.901 646.923 634.157 646.743 634.493C646.568 634.824 646.478 635.224 646.473 635.693ZM659.039 642.206C658.343 642.206 657.723 642.085 657.178 641.844C656.634 641.598 656.203 641.235 655.885 640.757C655.573 640.274 655.417 639.673 655.417 638.953C655.417 638.347 655.528 637.838 655.751 637.426C655.973 637.014 656.276 636.683 656.66 636.432C657.043 636.181 657.479 635.991 657.966 635.864C658.459 635.736 658.975 635.646 659.515 635.594C660.149 635.527 660.661 635.466 661.049 635.409C661.437 635.348 661.719 635.258 661.894 635.139C662.069 635.021 662.157 634.846 662.157 634.614V634.571C662.157 634.121 662.015 633.773 661.731 633.527C661.451 633.281 661.054 633.158 660.537 633.158C659.993 633.158 659.56 633.278 659.238 633.52C658.916 633.757 658.703 634.055 658.599 634.415L655.8 634.188C655.942 633.525 656.222 632.952 656.638 632.469C657.055 631.981 657.592 631.607 658.251 631.347C658.913 631.081 659.68 630.949 660.552 630.949C661.158 630.949 661.738 631.02 662.292 631.162C662.85 631.304 663.345 631.524 663.776 631.822C664.212 632.121 664.555 632.504 664.806 632.973C665.057 633.437 665.182 633.993 665.182 634.642V642H662.313V640.487H662.228C662.053 640.828 661.818 641.129 661.525 641.389C661.231 641.645 660.878 641.846 660.466 641.993C660.055 642.135 659.579 642.206 659.039 642.206ZM659.905 640.118C660.35 640.118 660.743 640.03 661.084 639.855C661.425 639.675 661.693 639.434 661.887 639.131C662.081 638.828 662.178 638.484 662.178 638.101V636.943C662.083 637.005 661.953 637.062 661.787 637.114C661.626 637.161 661.444 637.206 661.241 637.249C661.037 637.286 660.833 637.322 660.63 637.355C660.426 637.384 660.242 637.41 660.076 637.433C659.721 637.485 659.411 637.568 659.145 637.682C658.88 637.795 658.674 637.949 658.528 638.143C658.381 638.333 658.307 638.57 658.307 638.854C658.307 639.266 658.456 639.58 658.755 639.798C659.058 640.011 659.441 640.118 659.905 640.118ZM673.332 631.091V633.364H666.763V631.091H673.332ZM668.254 628.477H671.28V638.648C671.28 638.927 671.322 639.145 671.407 639.301C671.493 639.453 671.611 639.559 671.763 639.621C671.919 639.682 672.099 639.713 672.302 639.713C672.444 639.713 672.586 639.701 672.729 639.678C672.871 639.649 672.979 639.628 673.055 639.614L673.531 641.865C673.38 641.912 673.166 641.967 672.892 642.028C672.617 642.095 672.283 642.135 671.89 642.149C671.161 642.178 670.522 642.08 669.973 641.858C669.428 641.635 669.005 641.29 668.702 640.821C668.398 640.352 668.249 639.76 668.254 639.045V628.477ZM679.989 642V627.455H683.014V632.923H683.107C683.239 632.63 683.431 632.331 683.682 632.028C683.938 631.721 684.269 631.465 684.676 631.261C685.088 631.053 685.6 630.949 686.21 630.949C687.006 630.949 687.74 631.157 688.412 631.574C689.084 631.986 689.622 632.608 690.024 633.442C690.427 634.27 690.628 635.31 690.628 636.56C690.628 637.777 690.432 638.804 690.039 639.642C689.65 640.475 689.12 641.107 688.448 641.538C687.78 641.964 687.032 642.178 686.203 642.178C685.616 642.178 685.117 642.08 684.705 641.886C684.298 641.692 683.964 641.448 683.703 641.155C683.443 640.857 683.244 640.556 683.107 640.253H682.972V642H679.989ZM682.95 636.545C682.95 637.194 683.04 637.76 683.22 638.243C683.4 638.726 683.661 639.102 684.002 639.372C684.343 639.637 684.757 639.77 685.244 639.77C685.737 639.77 686.154 639.635 686.494 639.365C686.835 639.09 687.093 638.712 687.269 638.229C687.449 637.741 687.539 637.18 687.539 636.545C687.539 635.916 687.451 635.362 687.276 634.884C687.101 634.405 686.843 634.031 686.502 633.761C686.161 633.491 685.742 633.357 685.244 633.357C684.752 633.357 684.335 633.487 683.994 633.747C683.658 634.008 683.4 634.377 683.22 634.855C683.04 635.333 682.95 635.897 682.95 636.545ZM697.576 642.213C696.473 642.213 695.519 641.979 694.714 641.51C693.913 641.036 693.296 640.378 692.86 639.536C692.424 638.688 692.206 637.705 692.206 636.588C692.206 635.461 692.424 634.476 692.86 633.634C693.296 632.786 693.913 632.128 694.714 631.659C695.519 631.186 696.473 630.949 697.576 630.949C698.679 630.949 699.631 631.186 700.431 631.659C701.236 632.128 701.856 632.786 702.292 633.634C702.727 634.476 702.945 635.461 702.945 636.588C702.945 637.705 702.727 638.688 702.292 639.536C701.856 640.378 701.236 641.036 700.431 641.51C699.631 641.979 698.679 642.213 697.576 642.213ZM697.59 639.869C698.092 639.869 698.511 639.727 698.847 639.443C699.183 639.154 699.437 638.761 699.607 638.264C699.782 637.767 699.87 637.201 699.87 636.567C699.87 635.932 699.782 635.366 699.607 634.869C699.437 634.372 699.183 633.979 698.847 633.69C698.511 633.402 698.092 633.257 697.59 633.257C697.083 633.257 696.657 633.402 696.312 633.69C695.971 633.979 695.713 634.372 695.537 634.869C695.367 635.366 695.282 635.932 695.282 636.567C695.282 637.201 695.367 637.767 695.537 638.264C695.713 638.761 695.971 639.154 696.312 639.443C696.657 639.727 697.083 639.869 697.59 639.869ZM707.05 631.091L709.053 634.905L711.106 631.091H714.209L711.049 636.545L714.295 642H711.205L709.053 638.229L706.937 642H703.812L707.05 636.545L703.925 631.091H707.05Z" fill="white"/>
<rect x="193" y="53" width="956" height="498" fill="#30B5BE"/>
<path d="M638.42 299.547H635.309C635.253 299.144 635.137 298.787 634.961 298.474C634.786 298.157 634.561 297.887 634.287 297.665C634.012 297.442 633.695 297.272 633.335 297.153C632.98 297.035 632.594 296.976 632.177 296.976C631.425 296.976 630.769 297.163 630.21 297.537C629.651 297.906 629.218 298.446 628.91 299.156C628.603 299.862 628.449 300.719 628.449 301.727C628.449 302.764 628.603 303.635 628.91 304.341C629.223 305.046 629.658 305.579 630.217 305.939C630.776 306.299 631.422 306.479 632.156 306.479C632.568 306.479 632.949 306.424 633.3 306.315C633.655 306.206 633.97 306.048 634.244 305.839C634.519 305.626 634.746 305.368 634.926 305.065C635.111 304.762 635.238 304.417 635.309 304.028L638.42 304.043C638.34 304.71 638.139 305.354 637.817 305.974C637.499 306.59 637.071 307.142 636.531 307.629C635.996 308.112 635.357 308.496 634.613 308.78C633.875 309.059 633.039 309.199 632.106 309.199C630.809 309.199 629.649 308.905 628.626 308.318C627.608 307.731 626.803 306.881 626.211 305.768C625.624 304.656 625.331 303.309 625.331 301.727C625.331 300.141 625.629 298.792 626.226 297.679C626.822 296.566 627.632 295.719 628.655 295.136C629.677 294.549 630.828 294.256 632.106 294.256C632.949 294.256 633.73 294.374 634.45 294.611C635.175 294.848 635.816 295.193 636.375 295.648C636.934 296.098 637.388 296.649 637.738 297.303C638.094 297.956 638.321 298.704 638.42 299.547ZM643.594 302.693V309H640.569V294.455H643.509V300.016H643.637C643.883 299.372 644.281 298.867 644.83 298.503C645.379 298.134 646.068 297.949 646.897 297.949C647.654 297.949 648.315 298.115 648.878 298.446C649.447 298.773 649.887 299.244 650.199 299.859C650.517 300.47 650.673 301.202 650.668 302.054V309H647.643V302.594C647.647 301.921 647.477 301.398 647.131 301.024C646.79 300.65 646.312 300.463 645.697 300.463C645.285 300.463 644.92 300.551 644.603 300.726C644.29 300.901 644.044 301.157 643.864 301.493C643.689 301.824 643.599 302.224 643.594 302.693ZM656.16 309.206C655.464 309.206 654.844 309.085 654.299 308.844C653.755 308.598 653.324 308.235 653.007 307.757C652.694 307.274 652.538 306.673 652.538 305.953C652.538 305.347 652.649 304.838 652.872 304.426C653.094 304.014 653.397 303.683 653.781 303.432C654.164 303.181 654.6 302.991 655.088 302.864C655.58 302.736 656.096 302.646 656.636 302.594C657.27 302.527 657.782 302.466 658.17 302.409C658.558 302.348 658.84 302.258 659.015 302.139C659.19 302.021 659.278 301.846 659.278 301.614V301.571C659.278 301.121 659.136 300.773 658.852 300.527C658.572 300.281 658.175 300.158 657.659 300.158C657.114 300.158 656.681 300.278 656.359 300.52C656.037 300.757 655.824 301.055 655.72 301.415L652.921 301.188C653.063 300.525 653.343 299.952 653.759 299.469C654.176 298.981 654.713 298.607 655.372 298.347C656.035 298.081 656.802 297.949 657.673 297.949C658.279 297.949 658.859 298.02 659.413 298.162C659.972 298.304 660.466 298.524 660.897 298.822C661.333 299.121 661.676 299.504 661.927 299.973C662.178 300.437 662.303 300.993 662.303 301.642V309H659.434V307.487H659.349C659.174 307.828 658.939 308.129 658.646 308.389C658.352 308.645 657.999 308.846 657.588 308.993C657.176 309.135 656.7 309.206 656.16 309.206ZM657.026 307.118C657.472 307.118 657.865 307.03 658.205 306.855C658.546 306.675 658.814 306.434 659.008 306.131C659.202 305.828 659.299 305.484 659.299 305.101V303.943C659.204 304.005 659.074 304.062 658.909 304.114C658.748 304.161 658.565 304.206 658.362 304.249C658.158 304.286 657.954 304.322 657.751 304.355C657.547 304.384 657.363 304.41 657.197 304.433C656.842 304.485 656.532 304.568 656.267 304.682C656.001 304.795 655.795 304.949 655.649 305.143C655.502 305.333 655.428 305.57 655.428 305.854C655.428 306.266 655.578 306.58 655.876 306.798C656.179 307.011 656.562 307.118 657.026 307.118ZM670.453 298.091V300.364H663.884V298.091H670.453ZM665.375 295.477H668.401V305.648C668.401 305.927 668.443 306.145 668.529 306.301C668.614 306.453 668.732 306.559 668.884 306.621C669.04 306.682 669.22 306.713 669.423 306.713C669.566 306.713 669.708 306.701 669.85 306.678C669.992 306.649 670.101 306.628 670.176 306.614L670.652 308.865C670.501 308.912 670.288 308.967 670.013 309.028C669.738 309.095 669.405 309.135 669.012 309.149C668.282 309.178 667.643 309.08 667.094 308.858C666.549 308.635 666.126 308.29 665.823 307.821C665.52 307.352 665.37 306.76 665.375 306.045V295.477ZM680.164 309.206C679.468 309.206 678.848 309.085 678.303 308.844C677.759 308.598 677.328 308.235 677.01 307.757C676.698 307.274 676.542 306.673 676.542 305.953C676.542 305.347 676.653 304.838 676.876 304.426C677.098 304.014 677.401 303.683 677.785 303.432C678.168 303.181 678.604 302.991 679.091 302.864C679.584 302.736 680.1 302.646 680.64 302.594C681.274 302.527 681.786 302.466 682.174 302.409C682.562 302.348 682.844 302.258 683.019 302.139C683.194 302.021 683.282 301.846 683.282 301.614V301.571C683.282 301.121 683.14 300.773 682.856 300.527C682.576 300.281 682.179 300.158 681.662 300.158C681.118 300.158 680.685 300.278 680.363 300.52C680.041 300.757 679.828 301.055 679.724 301.415L676.925 301.188C677.067 300.525 677.347 299.952 677.763 299.469C678.18 298.981 678.717 298.607 679.376 298.347C680.038 298.081 680.805 297.949 681.677 297.949C682.283 297.949 682.863 298.02 683.417 298.162C683.975 298.304 684.47 298.524 684.901 298.822C685.337 299.121 685.68 299.504 685.931 299.973C686.182 300.437 686.307 300.993 686.307 301.642V309H683.438V307.487H683.353C683.178 307.828 682.943 308.129 682.65 308.389C682.356 308.645 682.003 308.846 681.591 308.993C681.18 309.135 680.704 309.206 680.164 309.206ZM681.03 307.118C681.475 307.118 681.868 307.03 682.209 306.855C682.55 306.675 682.818 306.434 683.012 306.131C683.206 305.828 683.303 305.484 683.303 305.101V303.943C683.208 304.005 683.078 304.062 682.912 304.114C682.751 304.161 682.569 304.206 682.366 304.249C682.162 304.286 681.958 304.322 681.755 304.355C681.551 304.384 681.367 304.41 681.201 304.433C680.846 304.485 680.536 304.568 680.27 304.682C680.005 304.795 679.799 304.949 679.653 305.143C679.506 305.333 679.432 305.57 679.432 305.854C679.432 306.266 679.581 306.58 679.88 306.798C680.183 307.011 680.566 307.118 681.03 307.118ZM688.655 309V298.091H691.588V299.994H691.702C691.9 299.317 692.234 298.806 692.703 298.46C693.172 298.11 693.711 297.935 694.322 297.935C694.474 297.935 694.637 297.944 694.812 297.963C694.988 297.982 695.141 298.008 695.274 298.041V300.726C695.132 300.683 694.935 300.645 694.684 300.612C694.434 300.579 694.204 300.562 693.996 300.562C693.55 300.562 693.153 300.66 692.802 300.854C692.457 301.043 692.182 301.308 691.979 301.649C691.78 301.99 691.68 302.383 691.68 302.828V309H688.655ZM701.302 309.213C700.18 309.213 699.214 308.986 698.404 308.531C697.599 308.072 696.979 307.423 696.544 306.585C696.108 305.742 695.89 304.746 695.89 303.595C695.89 302.473 696.108 301.488 696.544 300.641C696.979 299.793 697.592 299.133 698.383 298.659C699.178 298.186 700.111 297.949 701.181 297.949C701.901 297.949 702.571 298.065 703.191 298.297C703.816 298.524 704.361 298.867 704.825 299.327C705.294 299.786 705.658 300.364 705.919 301.06C706.179 301.751 706.309 302.561 706.309 303.489V304.32H697.097V302.445H703.461C703.461 302.009 703.366 301.623 703.177 301.287C702.988 300.951 702.725 300.688 702.389 300.499C702.057 300.304 701.671 300.207 701.231 300.207C700.772 300.207 700.365 300.314 700.009 300.527C699.659 300.735 699.384 301.017 699.186 301.372C698.987 301.723 698.885 302.113 698.88 302.544V304.327C698.88 304.866 698.98 305.333 699.178 305.726C699.382 306.119 699.669 306.422 700.038 306.635C700.407 306.848 700.845 306.955 701.352 306.955C701.688 306.955 701.996 306.907 702.275 306.812C702.554 306.718 702.794 306.576 702.992 306.386C703.191 306.197 703.343 305.965 703.447 305.69L706.245 305.875C706.103 306.547 705.812 307.134 705.372 307.636C704.936 308.134 704.373 308.522 703.681 308.801C702.995 309.076 702.202 309.213 701.302 309.213ZM711.394 309.206C710.698 309.206 710.078 309.085 709.534 308.844C708.989 308.598 708.558 308.235 708.241 307.757C707.928 307.274 707.772 306.673 707.772 305.953C707.772 305.347 707.883 304.838 708.106 304.426C708.329 304.014 708.632 303.683 709.015 303.432C709.399 303.181 709.834 302.991 710.322 302.864C710.814 302.736 711.33 302.646 711.87 302.594C712.505 302.527 713.016 302.466 713.404 302.409C713.793 302.348 714.074 302.258 714.249 302.139C714.425 302.021 714.512 301.846 714.512 301.614V301.571C714.512 301.121 714.37 300.773 714.086 300.527C713.807 300.281 713.409 300.158 712.893 300.158C712.348 300.158 711.915 300.278 711.593 300.52C711.271 300.757 711.058 301.055 710.954 301.415L708.156 301.188C708.298 300.525 708.577 299.952 708.994 299.469C709.41 298.981 709.948 298.607 710.606 298.347C711.269 298.081 712.036 297.949 712.907 297.949C713.513 297.949 714.093 298.02 714.647 298.162C715.206 298.304 715.701 298.524 716.132 298.822C716.567 299.121 716.91 299.504 717.161 299.973C717.412 300.437 717.538 300.993 717.538 301.642V309H714.669V307.487H714.583C714.408 307.828 714.174 308.129 713.88 308.389C713.587 308.645 713.234 308.846 712.822 308.993C712.41 309.135 711.934 309.206 711.394 309.206ZM712.261 307.118C712.706 307.118 713.099 307.03 713.44 306.855C713.781 306.675 714.048 306.434 714.242 306.131C714.436 305.828 714.534 305.484 714.534 305.101V303.943C714.439 304.005 714.309 304.062 714.143 304.114C713.982 304.161 713.8 304.206 713.596 304.249C713.392 304.286 713.189 304.322 712.985 304.355C712.782 304.384 712.597 304.41 712.431 304.433C712.076 304.485 711.766 304.568 711.501 304.682C711.236 304.795 711.03 304.949 710.883 305.143C710.736 305.333 710.663 305.57 710.663 305.854C710.663 306.266 710.812 306.58 711.11 306.798C711.413 307.011 711.797 307.118 712.261 307.118Z" fill="white"/>
</svg>
