<svg width="1276" height="654" viewBox="0 0 1276 654" fill="none" xmlns="http://www.w3.org/2000/svg">
<rect width="1276" height="654" fill="#1B1B1D"/>
<path d="M573.457 399H130.543C130.245 399 130 399.459 130 400.021V591.979C130 592.541 130.245 593 130.543 593H573.457C573.755 593 574 592.541 574 591.979V400.021C574 399.459 573.755 399 573.457 399Z" stroke="#353940" stroke-width="2"/>
<path d="M269.376 452.25L278.736 431.25H283.536L292.926 452.25H287.826L280.146 433.71H282.066L274.356 452.25H269.376ZM274.056 447.75L275.346 444.06H286.146L287.466 447.75H274.056ZM295.105 452.25V431.25H304.195C306.075 431.25 307.695 431.56 309.055 432.18C310.415 432.78 311.465 433.65 312.205 434.79C312.945 435.93 313.315 437.29 313.315 438.87C313.315 440.43 312.945 441.78 312.205 442.92C311.465 444.06 310.415 444.94 309.055 445.56C307.695 446.16 306.075 446.46 304.195 446.46H297.805L299.965 444.27V452.25H295.105ZM299.965 444.81L297.805 442.5H303.925C305.425 442.5 306.545 442.18 307.285 441.54C308.025 440.9 308.395 440.01 308.395 438.87C308.395 437.71 308.025 436.81 307.285 436.17C306.545 435.53 305.425 435.21 303.925 435.21H297.805L299.965 432.9V444.81ZM316.785 452.25V431.25H321.645V452.25H316.785ZM345.174 452.61C343.554 452.61 342.044 452.35 340.644 451.83C339.264 451.29 338.064 450.53 337.044 449.55C336.024 448.57 335.224 447.42 334.644 446.1C334.084 444.78 333.804 443.33 333.804 441.75C333.804 440.17 334.084 438.72 334.644 437.4C335.224 436.08 336.024 434.93 337.044 433.95C338.084 432.97 339.294 432.22 340.674 431.7C342.054 431.16 343.564 430.89 345.204 430.89C347.024 430.89 348.664 431.21 350.124 431.85C351.604 432.47 352.844 433.39 353.844 434.61L350.724 437.49C350.004 436.67 349.204 436.06 348.324 435.66C347.444 435.24 346.484 435.03 345.444 435.03C344.464 435.03 343.564 435.19 342.744 435.51C341.924 435.83 341.214 436.29 340.614 436.89C340.014 437.49 339.544 438.2 339.204 439.02C338.884 439.84 338.724 440.75 338.724 441.75C338.724 442.75 338.884 443.66 339.204 444.48C339.544 445.3 340.014 446.01 340.614 446.61C341.214 447.21 341.924 447.67 342.744 447.99C343.564 448.31 344.464 448.47 345.444 448.47C346.484 448.47 347.444 448.27 348.324 447.87C349.204 447.45 350.004 446.82 350.724 445.98L353.844 448.86C352.844 450.08 351.604 451.01 350.124 451.65C348.664 452.29 347.014 452.61 345.174 452.61ZM356.796 452.25V429.99H361.476V452.25H356.796ZM365.82 452.25V436.11H370.5V452.25H365.82ZM368.16 433.86C367.3 433.86 366.6 433.61 366.06 433.11C365.52 432.61 365.25 431.99 365.25 431.25C365.25 430.51 365.52 429.89 366.06 429.39C366.6 428.89 367.3 428.64 368.16 428.64C369.02 428.64 369.72 428.88 370.26 429.36C370.8 429.82 371.07 430.42 371.07 431.16C371.07 431.94 370.8 432.59 370.26 433.11C369.74 433.61 369.04 433.86 368.16 433.86ZM382.853 452.49C381.013 452.49 379.393 452.13 377.993 451.41C376.613 450.69 375.543 449.71 374.783 448.47C374.023 447.21 373.643 445.78 373.643 444.18C373.643 442.56 374.013 441.13 374.753 439.89C375.513 438.63 376.543 437.65 377.843 436.95C379.143 436.23 380.613 435.87 382.253 435.87C383.833 435.87 385.253 436.21 386.513 436.89C387.793 437.55 388.803 438.51 389.543 439.77C390.283 441.01 390.653 442.5 390.653 444.24C390.653 444.42 390.643 444.63 390.623 444.87C390.603 445.09 390.583 445.3 390.563 445.5H377.453V442.77H388.103L386.303 443.58C386.303 442.74 386.133 442.01 385.793 441.39C385.453 440.77 384.983 440.29 384.383 439.95C383.783 439.59 383.083 439.41 382.283 439.41C381.483 439.41 380.773 439.59 380.153 439.95C379.553 440.29 379.083 440.78 378.743 441.42C378.403 442.04 378.233 442.78 378.233 443.64V444.36C378.233 445.24 378.423 446.02 378.803 446.7C379.203 447.36 379.753 447.87 380.453 448.23C381.173 448.57 382.013 448.74 382.973 448.74C383.833 448.74 384.583 448.61 385.223 448.35C385.883 448.09 386.483 447.7 387.023 447.18L389.513 449.88C388.773 450.72 387.843 451.37 386.723 451.83C385.603 452.27 384.313 452.49 382.853 452.49ZM403.579 435.87C404.859 435.87 405.999 436.13 406.999 436.65C408.019 437.15 408.819 437.93 409.399 438.99C409.979 440.03 410.269 441.37 410.269 443.01V452.25H405.589V443.73C405.589 442.43 405.299 441.47 404.719 440.85C404.159 440.23 403.359 439.92 402.319 439.92C401.579 439.92 400.909 440.08 400.309 440.4C399.729 440.7 399.269 441.17 398.929 441.81C398.609 442.45 398.449 443.27 398.449 444.27V452.25H393.769V436.11H398.239V440.58L397.399 439.23C397.979 438.15 398.809 437.32 399.889 436.74C400.969 436.16 402.199 435.87 403.579 435.87ZM421.111 452.49C419.211 452.49 417.731 452.01 416.671 451.05C415.611 450.07 415.081 448.62 415.081 446.7V432.54H419.761V446.64C419.761 447.32 419.941 447.85 420.301 448.23C420.661 448.59 421.151 448.77 421.771 448.77C422.511 448.77 423.141 448.57 423.661 448.17L424.921 451.47C424.441 451.81 423.861 452.07 423.181 452.25C422.521 452.41 421.831 452.49 421.111 452.49ZM412.591 440.07V436.47H423.781V440.07H412.591ZM432.978 452.49C431.598 452.49 430.268 452.33 428.988 452.01C427.728 451.67 426.728 451.25 425.988 450.75L427.548 447.39C428.288 447.85 429.158 448.23 430.158 448.53C431.178 448.81 432.178 448.95 433.158 448.95C434.238 448.95 434.998 448.82 435.438 448.56C435.898 448.3 436.128 447.94 436.128 447.48C436.128 447.1 435.948 446.82 435.588 446.64C435.248 446.44 434.788 446.29 434.208 446.19C433.628 446.09 432.988 445.99 432.288 445.89C431.608 445.79 430.918 445.66 430.218 445.5C429.518 445.32 428.878 445.06 428.298 444.72C427.718 444.38 427.248 443.92 426.888 443.34C426.548 442.76 426.378 442.01 426.378 441.09C426.378 440.07 426.668 439.17 427.248 438.39C427.848 437.61 428.708 437 429.828 436.56C430.948 436.1 432.288 435.87 433.848 435.87C434.948 435.87 436.068 435.99 437.208 436.23C438.348 436.47 439.298 436.82 440.058 437.28L438.498 440.61C437.718 440.15 436.928 439.84 436.128 439.68C435.348 439.5 434.588 439.41 433.848 439.41C432.808 439.41 432.048 439.55 431.568 439.83C431.088 440.11 430.848 440.47 430.848 440.91C430.848 441.31 431.018 441.61 431.358 441.81C431.718 442.01 432.188 442.17 432.768 442.29C433.348 442.41 433.978 442.52 434.658 442.62C435.358 442.7 436.058 442.83 436.758 443.01C437.458 443.19 438.088 443.45 438.648 443.79C439.228 444.11 439.698 444.56 440.058 445.14C440.418 445.7 440.598 446.44 440.598 447.36C440.598 448.36 440.298 449.25 439.698 450.03C439.098 450.79 438.228 451.39 437.088 451.83C435.968 452.27 434.598 452.49 432.978 452.49Z" fill="#E4E7EB"/>
<path d="M401 483L368.012 498.199L401 513.398L433.988 498.199L401 483ZM366 500.464V542.059L399.548 557.516V515.921L366 500.464ZM436 500.464L402.452 515.921V557.516L436 542.059V500.464Z" fill="#6742A3"/>
<path d="M308 481L275.012 496.199L308 511.398L340.988 496.199L308 481ZM273 498.464V540.059L306.548 555.516V513.921L273 498.464ZM343 498.464L309.452 513.921V555.516L343 540.059V498.464Z" fill="#0A999C"/>
<path d="M214 481L181.012 496.199L214 511.398L246.988 496.199L214 481ZM179 498.464V540.059L212.548 555.516V513.921L179 498.464ZM249 498.464L215.452 513.921V555.516L249 540.059V498.464Z" fill="#4363A0"/>
<path d="M494 483L461.012 498.199L494 513.398L526.988 498.199L494 483ZM459 500.464V542.059L492.548 557.516V515.921L459 500.464ZM529 500.464L495.452 515.921V557.516L529 542.059V500.464Z" fill="#3A3A3C"/>
<path d="M253 360L255.887 355H250.113L253 360ZM353 315L350.113 320H355.887L353 315ZM253 333.947V333.447H252.5V333.947H253ZM456 360L458.887 355H453.113L456 360ZM456 333.947H456.5V333.447H456V333.947ZM253.5 355.5V333.947H252.5V355.5H253.5ZM253 334.447H353V333.447H253V334.447ZM353.5 333.947V319.5H352.5V333.947H353.5ZM353 334.447L456 334.447V333.447L353 333.447V334.447ZM455.5 333.947V355.5H456.5V333.947H455.5Z" fill="#9CA5B3"/>
<path d="M770.012 211L765.012 208.113V213.887L770.012 211ZM601 211L606 213.887V208.113L601 211ZM765.512 210.5L719.673 210.5V211.5L765.512 211.5V210.5ZM719.673 210.5H691.428V211.5H719.673V210.5ZM691.428 210.5L605.5 210.5V211.5L691.428 211.5V210.5Z" fill="#9CA5B3"/>
<path d="M654.032 242.716V229.612H656.594V230.438H655.026V241.89H656.594V242.716H654.032ZM662.073 240.07C661.438 240.07 660.864 239.925 660.351 239.636C659.837 239.337 659.427 238.913 659.119 238.362C658.82 237.802 658.671 237.121 658.671 236.318C658.671 235.515 658.82 234.839 659.119 234.288C659.417 233.728 659.823 233.303 660.337 233.014C660.85 232.725 661.429 232.58 662.073 232.58C662.773 232.58 663.398 232.739 663.949 233.056C664.509 233.364 664.947 233.803 665.265 234.372C665.582 234.932 665.741 235.581 665.741 236.318C665.741 237.065 665.582 237.718 665.265 238.278C664.947 238.838 664.509 239.277 663.949 239.594C663.398 239.911 662.773 240.07 662.073 240.07ZM658.279 242.716V232.65H659.231V234.862L659.133 236.332L659.273 237.816V242.716H658.279ZM662.003 239.188C662.525 239.188 662.992 239.071 663.403 238.838C663.813 238.595 664.14 238.259 664.383 237.83C664.625 237.391 664.747 236.887 664.747 236.318C664.747 235.749 664.625 235.249 664.383 234.82C664.14 234.391 663.813 234.055 663.403 233.812C662.992 233.569 662.525 233.448 662.003 233.448C661.48 233.448 661.009 233.569 660.589 233.812C660.178 234.055 659.851 234.391 659.609 234.82C659.375 235.249 659.259 235.749 659.259 236.318C659.259 236.887 659.375 237.391 659.609 237.83C659.851 238.259 660.178 238.595 660.589 238.838C661.009 239.071 661.48 239.188 662.003 239.188ZM667.767 240V232.65H668.719V234.652L668.621 234.302C668.826 233.742 669.172 233.317 669.657 233.028C670.142 232.729 670.744 232.58 671.463 232.58V233.546C671.426 233.546 671.388 233.546 671.351 233.546C671.314 233.537 671.276 233.532 671.239 233.532C670.464 233.532 669.858 233.77 669.419 234.246C668.98 234.713 668.761 235.38 668.761 236.248V240H667.767ZM676.204 240.07C675.495 240.07 674.856 239.911 674.286 239.594C673.726 239.267 673.283 238.824 672.956 238.264C672.63 237.695 672.466 237.046 672.466 236.318C672.466 235.581 672.63 234.932 672.956 234.372C673.283 233.812 673.726 233.373 674.286 233.056C674.846 232.739 675.486 232.58 676.204 232.58C676.932 232.58 677.576 232.739 678.136 233.056C678.706 233.373 679.149 233.812 679.466 234.372C679.793 234.932 679.956 235.581 679.956 236.318C679.956 237.046 679.793 237.695 679.466 238.264C679.149 238.824 678.706 239.267 678.136 239.594C677.567 239.911 676.923 240.07 676.204 240.07ZM676.204 239.188C676.736 239.188 677.208 239.071 677.618 238.838C678.029 238.595 678.351 238.259 678.584 237.83C678.827 237.391 678.948 236.887 678.948 236.318C678.948 235.739 678.827 235.235 678.584 234.806C678.351 234.377 678.029 234.045 677.618 233.812C677.208 233.569 676.741 233.448 676.218 233.448C675.696 233.448 675.229 233.569 674.818 233.812C674.408 234.045 674.081 234.377 673.838 234.806C673.596 235.235 673.474 235.739 673.474 236.318C673.474 236.887 673.596 237.391 673.838 237.83C674.081 238.259 674.408 238.595 674.818 238.838C675.229 239.071 675.691 239.188 676.204 239.188ZM684.31 240.07C683.619 240.07 683.087 239.883 682.714 239.51C682.34 239.137 682.154 238.609 682.154 237.928V231.026H683.148V237.872C683.148 238.301 683.255 238.633 683.47 238.866C683.694 239.099 684.011 239.216 684.422 239.216C684.86 239.216 685.224 239.09 685.514 238.838L685.864 239.552C685.668 239.729 685.43 239.86 685.15 239.944C684.879 240.028 684.599 240.07 684.31 240.07ZM680.838 233.476V232.65H685.388V233.476H680.838ZM690.409 240.07C689.7 240.07 689.061 239.911 688.491 239.594C687.931 239.267 687.488 238.824 687.161 238.264C686.835 237.695 686.671 237.046 686.671 236.318C686.671 235.581 686.835 234.932 687.161 234.372C687.488 233.812 687.931 233.373 688.491 233.056C689.051 232.739 689.691 232.58 690.409 232.58C691.137 232.58 691.781 232.739 692.341 233.056C692.911 233.373 693.354 233.812 693.671 234.372C693.998 234.932 694.161 235.581 694.161 236.318C694.161 237.046 693.998 237.695 693.671 238.264C693.354 238.824 692.911 239.267 692.341 239.594C691.772 239.911 691.128 240.07 690.409 240.07ZM690.409 239.188C690.941 239.188 691.413 239.071 691.823 238.838C692.234 238.595 692.556 238.259 692.789 237.83C693.032 237.391 693.153 236.887 693.153 236.318C693.153 235.739 693.032 235.235 692.789 234.806C692.556 234.377 692.234 234.045 691.823 233.812C691.413 233.569 690.946 233.448 690.423 233.448C689.901 233.448 689.434 233.569 689.023 233.812C688.613 234.045 688.286 234.377 688.043 234.806C687.801 235.235 687.679 235.739 687.679 236.318C687.679 236.887 687.801 237.391 688.043 237.83C688.286 238.259 688.613 238.595 689.023 238.838C689.434 239.071 689.896 239.188 690.409 239.188ZM699.243 240.07C698.515 240.07 697.861 239.911 697.283 239.594C696.713 239.267 696.265 238.824 695.939 238.264C695.612 237.695 695.449 237.046 695.449 236.318C695.449 235.581 695.612 234.932 695.939 234.372C696.265 233.812 696.713 233.373 697.283 233.056C697.861 232.739 698.515 232.58 699.243 232.58C699.868 232.58 700.433 232.701 700.937 232.944C701.441 233.187 701.837 233.551 702.127 234.036L701.385 234.54C701.133 234.167 700.82 233.891 700.447 233.714C700.073 233.537 699.667 233.448 699.229 233.448C698.706 233.448 698.235 233.569 697.815 233.812C697.395 234.045 697.063 234.377 696.821 234.806C696.578 235.235 696.457 235.739 696.457 236.318C696.457 236.897 696.578 237.401 696.821 237.83C697.063 238.259 697.395 238.595 697.815 238.838C698.235 239.071 698.706 239.188 699.229 239.188C699.667 239.188 700.073 239.099 700.447 238.922C700.82 238.745 701.133 238.474 701.385 238.11L702.127 238.614C701.837 239.09 701.441 239.454 700.937 239.706C700.433 239.949 699.868 240.07 699.243 240.07ZM706.952 240.07C706.243 240.07 705.604 239.911 705.034 239.594C704.474 239.267 704.031 238.824 703.704 238.264C703.378 237.695 703.214 237.046 703.214 236.318C703.214 235.581 703.378 234.932 703.704 234.372C704.031 233.812 704.474 233.373 705.034 233.056C705.594 232.739 706.234 232.58 706.952 232.58C707.68 232.58 708.324 232.739 708.884 233.056C709.454 233.373 709.897 233.812 710.214 234.372C710.541 234.932 710.704 235.581 710.704 236.318C710.704 237.046 710.541 237.695 710.214 238.264C709.897 238.824 709.454 239.267 708.884 239.594C708.315 239.911 707.671 240.07 706.952 240.07ZM706.952 239.188C707.484 239.188 707.956 239.071 708.366 238.838C708.777 238.595 709.099 238.259 709.332 237.83C709.575 237.391 709.696 236.887 709.696 236.318C709.696 235.739 709.575 235.235 709.332 234.806C709.099 234.377 708.777 234.045 708.366 233.812C707.956 233.569 707.489 233.448 706.966 233.448C706.444 233.448 705.977 233.569 705.566 233.812C705.156 234.045 704.829 234.377 704.586 234.806C704.344 235.235 704.222 235.739 704.222 236.318C704.222 236.887 704.344 237.391 704.586 237.83C704.829 238.259 705.156 238.595 705.566 238.838C705.977 239.071 706.439 239.188 706.952 239.188ZM712.734 240V229.612H713.728V240H712.734ZM717.963 242.716H715.401V241.89H716.969V230.438H715.401V229.612H717.963V242.716Z" fill="#E4E7EB"/>
<path d="M664.911 190.14C663.567 190.14 662.512 189.762 661.747 189.006C660.991 188.25 660.613 187.158 660.613 185.73V180.2H662.433V185.66C662.433 186.668 662.648 187.401 663.077 187.858C663.516 188.315 664.132 188.544 664.925 188.544C665.718 188.544 666.33 188.315 666.759 187.858C667.188 187.401 667.403 186.668 667.403 185.66V180.2H669.195V185.73C669.195 187.158 668.812 188.25 668.047 189.006C667.291 189.762 666.246 190.14 664.911 190.14ZM675.818 182.44C676.415 182.44 676.947 182.557 677.414 182.79C677.89 183.023 678.263 183.383 678.534 183.868C678.804 184.344 678.94 184.96 678.94 185.716V190H677.19V185.94C677.19 185.277 677.031 184.783 676.714 184.456C676.406 184.129 675.972 183.966 675.412 183.966C675.001 183.966 674.637 184.05 674.32 184.218C674.002 184.386 673.755 184.638 673.578 184.974C673.41 185.301 673.326 185.716 673.326 186.22V190H671.576V182.524H673.242V184.54L672.948 183.924C673.209 183.448 673.587 183.084 674.082 182.832C674.586 182.571 675.164 182.44 675.818 182.44ZM681.16 190V182.524H682.91V190H681.16ZM682.042 181.292C681.715 181.292 681.444 181.189 681.23 180.984C681.024 180.779 680.922 180.531 680.922 180.242C680.922 179.943 681.024 179.696 681.23 179.5C681.444 179.295 681.715 179.192 682.042 179.192C682.368 179.192 682.634 179.29 682.84 179.486C683.054 179.673 683.162 179.911 683.162 180.2C683.162 180.508 683.059 180.769 682.854 180.984C682.648 181.189 682.378 181.292 682.042 181.292ZM685.445 190V182.104C685.445 181.32 685.673 180.695 686.131 180.228C686.597 179.752 687.26 179.514 688.119 179.514C688.427 179.514 688.716 179.547 688.987 179.612C689.267 179.677 689.5 179.78 689.687 179.92L689.211 181.236C689.08 181.133 688.931 181.059 688.763 181.012C688.595 180.956 688.422 180.928 688.245 180.928C687.881 180.928 687.605 181.031 687.419 181.236C687.232 181.432 687.139 181.731 687.139 182.132V182.972L687.195 183.756V190H685.445ZM684.213 183.98V182.58H689.197V183.98H684.213ZM690.429 190V182.524H692.179V190H690.429ZM691.311 181.292C690.984 181.292 690.713 181.189 690.499 180.984C690.293 180.779 690.191 180.531 690.191 180.242C690.191 179.943 690.293 179.696 690.499 179.5C690.713 179.295 690.984 179.192 691.311 179.192C691.637 179.192 691.903 179.29 692.109 179.486C692.323 179.673 692.431 179.911 692.431 180.2C692.431 180.508 692.328 180.769 692.123 180.984C691.917 181.189 691.647 181.292 691.311 181.292ZM697.99 190.098C697.16 190.098 696.432 189.935 695.806 189.608C695.19 189.272 694.71 188.815 694.364 188.236C694.028 187.657 693.86 186.999 693.86 186.262C693.86 185.515 694.024 184.857 694.35 184.288C694.686 183.709 695.144 183.257 695.722 182.93C696.31 182.603 696.978 182.44 697.724 182.44C698.452 182.44 699.101 182.599 699.67 182.916C700.24 183.233 700.688 183.681 701.014 184.26C701.341 184.839 701.504 185.52 701.504 186.304C701.504 186.379 701.5 186.463 701.49 186.556C701.49 186.649 701.486 186.738 701.476 186.822H695.246V185.66H700.552L699.866 186.024C699.876 185.595 699.787 185.217 699.6 184.89C699.414 184.563 699.157 184.307 698.83 184.12C698.513 183.933 698.144 183.84 697.724 183.84C697.295 183.84 696.917 183.933 696.59 184.12C696.273 184.307 696.021 184.568 695.834 184.904C695.657 185.231 695.568 185.618 695.568 186.066V186.346C695.568 186.794 695.671 187.191 695.876 187.536C696.082 187.881 696.371 188.147 696.744 188.334C697.118 188.521 697.547 188.614 698.032 188.614C698.452 188.614 698.83 188.549 699.166 188.418C699.502 188.287 699.801 188.082 700.062 187.802L701 188.88C700.664 189.272 700.24 189.575 699.726 189.79C699.222 189.995 698.644 190.098 697.99 190.098ZM706.349 190.098C705.631 190.098 704.982 189.939 704.403 189.622C703.834 189.295 703.386 188.847 703.059 188.278C702.732 187.709 702.569 187.037 702.569 186.262C702.569 185.487 702.732 184.815 703.059 184.246C703.386 183.677 703.834 183.233 704.403 182.916C704.982 182.599 705.631 182.44 706.349 182.44C706.975 182.44 707.535 182.58 708.029 182.86C708.524 183.131 708.916 183.546 709.205 184.106C709.495 184.666 709.639 185.385 709.639 186.262C709.639 187.13 709.499 187.849 709.219 188.418C708.939 188.978 708.552 189.398 708.057 189.678C707.562 189.958 706.993 190.098 706.349 190.098ZM706.559 188.6C706.979 188.6 707.353 188.507 707.679 188.32C708.015 188.133 708.281 187.863 708.477 187.508C708.683 187.153 708.785 186.738 708.785 186.262C708.785 185.777 708.683 185.361 708.477 185.016C708.281 184.661 708.015 184.391 707.679 184.204C707.353 184.017 706.979 183.924 706.559 183.924C706.139 183.924 705.761 184.017 705.425 184.204C705.099 184.391 704.833 184.661 704.627 185.016C704.431 185.361 704.333 185.777 704.333 186.262C704.333 186.738 704.431 187.153 704.627 187.508C704.833 187.863 705.099 188.133 705.425 188.32C705.761 188.507 706.139 188.6 706.559 188.6ZM708.827 190V188.236L708.897 186.248L708.757 184.26V179.612H710.493V190H708.827Z" fill="#E4E7EB"/>
<rect x="807.5" y="75.5" width="323" height="49" rx="19.5" fill="#583A8C"/>
<rect x="807.5" y="75.5" width="323" height="49" rx="19.5" stroke="url(#paint0_linear_974_2109)"/>
<path d="M920.684 106L925.676 94.8H928.236L933.244 106H930.524L926.428 96.112H927.452L923.34 106H920.684ZM923.18 103.6L923.868 101.632H929.628L930.332 103.6H923.18ZM939.318 106.128C938.593 106.128 937.958 105.968 937.414 105.648C936.87 105.328 936.443 104.843 936.134 104.192C935.835 103.531 935.686 102.699 935.686 101.696C935.686 100.683 935.83 99.8507 936.118 99.2C936.406 98.5493 936.822 98.064 937.366 97.744C937.91 97.424 938.561 97.264 939.318 97.264C940.129 97.264 940.854 97.4507 941.494 97.824C942.145 98.1867 942.657 98.6987 943.03 99.36C943.414 100.021 943.606 100.8 943.606 101.696C943.606 102.603 943.414 103.387 943.03 104.048C942.657 104.709 942.145 105.221 941.494 105.584C940.854 105.947 940.129 106.128 939.318 106.128ZM934.23 109.104V97.392H936.614V99.152L936.566 101.712L936.726 104.256V109.104H934.23ZM938.886 104.08C939.302 104.08 939.67 103.984 939.99 103.792C940.321 103.6 940.582 103.328 940.774 102.976C940.977 102.613 941.078 102.187 941.078 101.696C941.078 101.195 940.977 100.768 940.774 100.416C940.582 100.064 940.321 99.792 939.99 99.6C939.67 99.408 939.302 99.312 938.886 99.312C938.47 99.312 938.097 99.408 937.766 99.6C937.435 99.792 937.174 100.064 936.982 100.416C936.79 100.768 936.694 101.195 936.694 101.696C936.694 102.187 936.79 102.613 936.982 102.976C937.174 103.328 937.435 103.6 937.766 103.792C938.097 103.984 938.47 104.08 938.886 104.08ZM950.365 106.128C949.64 106.128 949.005 105.968 948.461 105.648C947.917 105.328 947.49 104.843 947.181 104.192C946.882 103.531 946.733 102.699 946.733 101.696C946.733 100.683 946.877 99.8507 947.165 99.2C947.453 98.5493 947.869 98.064 948.413 97.744C948.957 97.424 949.608 97.264 950.365 97.264C951.176 97.264 951.901 97.4507 952.541 97.824C953.192 98.1867 953.704 98.6987 954.077 99.36C954.461 100.021 954.653 100.8 954.653 101.696C954.653 102.603 954.461 103.387 954.077 104.048C953.704 104.709 953.192 105.221 952.541 105.584C951.901 105.947 951.176 106.128 950.365 106.128ZM945.277 109.104V97.392H947.661V99.152L947.613 101.712L947.773 104.256V109.104H945.277ZM949.933 104.08C950.349 104.08 950.717 103.984 951.037 103.792C951.368 103.6 951.629 103.328 951.821 102.976C952.024 102.613 952.125 102.187 952.125 101.696C952.125 101.195 952.024 100.768 951.821 100.416C951.629 100.064 951.368 99.792 951.037 99.6C950.717 99.408 950.349 99.312 949.933 99.312C949.517 99.312 949.144 99.408 948.813 99.6C948.482 99.792 948.221 100.064 948.029 100.416C947.837 100.768 947.741 101.195 947.741 101.696C947.741 102.187 947.837 102.613 948.029 102.976C948.221 103.328 948.482 103.6 948.813 103.792C949.144 103.984 949.517 104.08 949.933 104.08ZM956.324 106V94.128H958.82V106H956.324ZM961.136 106V97.392H963.632V106H961.136ZM962.384 96.192C961.926 96.192 961.552 96.0587 961.264 95.792C960.976 95.5253 960.832 95.1947 960.832 94.8C960.832 94.4053 960.976 94.0747 961.264 93.808C961.552 93.5413 961.926 93.408 962.384 93.408C962.843 93.408 963.216 93.536 963.504 93.792C963.792 94.0373 963.936 94.3573 963.936 94.752C963.936 95.168 963.792 95.5147 963.504 95.792C963.227 96.0587 962.854 96.192 962.384 96.192ZM970.109 106.128C969.181 106.128 968.354 105.941 967.629 105.568C966.904 105.184 966.333 104.656 965.917 103.984C965.512 103.312 965.309 102.549 965.309 101.696C965.309 100.832 965.512 100.069 965.917 99.408C966.333 98.736 966.904 98.2133 967.629 97.84C968.354 97.456 969.181 97.264 970.109 97.264C971.016 97.264 971.805 97.456 972.477 97.84C973.149 98.2133 973.645 98.752 973.965 99.456L972.029 100.496C971.805 100.091 971.522 99.792 971.181 99.6C970.85 99.408 970.488 99.312 970.093 99.312C969.666 99.312 969.282 99.408 968.941 99.6C968.6 99.792 968.328 100.064 968.125 100.416C967.933 100.768 967.837 101.195 967.837 101.696C967.837 102.197 967.933 102.624 968.125 102.976C968.328 103.328 968.6 103.6 968.941 103.792C969.282 103.984 969.666 104.08 970.093 104.08C970.488 104.08 970.85 103.989 971.181 103.808C971.522 103.616 971.805 103.312 972.029 102.896L973.965 103.952C973.645 104.645 973.149 105.184 972.477 105.568C971.805 105.941 971.016 106.128 970.109 106.128ZM980.682 106V104.32L980.522 103.952V100.944C980.522 100.411 980.357 99.9947 980.026 99.696C979.706 99.3973 979.21 99.248 978.538 99.248C978.079 99.248 977.626 99.3227 977.178 99.472C976.741 99.6107 976.367 99.8027 976.058 100.048L975.162 98.304C975.631 97.9733 976.197 97.7173 976.858 97.536C977.519 97.3547 978.191 97.264 978.874 97.264C980.186 97.264 981.205 97.5733 981.93 98.192C982.655 98.8107 983.018 99.776 983.018 101.088V106H980.682ZM978.058 106.128C977.386 106.128 976.81 106.016 976.33 105.792C975.85 105.557 975.482 105.243 975.226 104.848C974.97 104.453 974.842 104.011 974.842 103.52C974.842 103.008 974.965 102.56 975.21 102.176C975.466 101.792 975.866 101.493 976.41 101.28C976.954 101.056 977.663 100.944 978.538 100.944H980.826V102.4H978.81C978.223 102.4 977.818 102.496 977.594 102.688C977.381 102.88 977.274 103.12 977.274 103.408C977.274 103.728 977.397 103.984 977.642 104.176C977.898 104.357 978.245 104.448 978.682 104.448C979.098 104.448 979.471 104.352 979.802 104.16C980.133 103.957 980.373 103.664 980.522 103.28L980.906 104.432C980.725 104.987 980.394 105.408 979.914 105.696C979.434 105.984 978.815 106.128 978.058 106.128ZM985.277 106V97.392H987.773V106H985.277ZM986.525 96.192C986.066 96.192 985.693 96.0587 985.405 95.792C985.117 95.5253 984.973 95.1947 984.973 94.8C984.973 94.4053 985.117 94.0747 985.405 93.808C985.693 93.5413 986.066 93.408 986.525 93.408C986.984 93.408 987.357 93.536 987.645 93.792C987.933 94.0373 988.077 94.3573 988.077 94.752C988.077 95.168 987.933 95.5147 987.645 95.792C987.368 96.0587 986.994 96.192 986.525 96.192ZM993.61 106.128C992.596 106.128 991.807 105.872 991.242 105.36C990.676 104.837 990.394 104.064 990.394 103.04V95.488H992.89V103.008C992.89 103.371 992.986 103.653 993.178 103.856C993.37 104.048 993.631 104.144 993.962 104.144C994.356 104.144 994.692 104.037 994.97 103.824L995.642 105.584C995.386 105.765 995.076 105.904 994.714 106C994.362 106.085 993.994 106.128 993.61 106.128ZM989.066 99.504V97.584H995.034V99.504H989.066ZM1000.87 106.128C999.956 106.128 999.14 105.936 998.425 105.552C997.721 105.168 997.161 104.645 996.745 103.984C996.34 103.312 996.137 102.549 996.137 101.696C996.137 100.832 996.34 100.069 996.745 99.408C997.161 98.736 997.721 98.2133 998.425 97.84C999.14 97.456 999.956 97.264 1000.87 97.264C1001.78 97.264 1002.59 97.456 1003.31 97.84C1004.02 98.2133 1004.58 98.7307 1004.99 99.392C1005.39 100.053 1005.59 100.821 1005.59 101.696C1005.59 102.549 1005.39 103.312 1004.99 103.984C1004.58 104.645 1004.02 105.168 1003.31 105.552C1002.59 105.936 1001.78 106.128 1000.87 106.128ZM1000.87 104.08C1001.29 104.08 1001.66 103.984 1001.99 103.792C1002.32 103.6 1002.59 103.328 1002.78 102.976C1002.97 102.613 1003.07 102.187 1003.07 101.696C1003.07 101.195 1002.97 100.768 1002.78 100.416C1002.59 100.064 1002.32 99.792 1001.99 99.6C1001.66 99.408 1001.29 99.312 1000.87 99.312C1000.46 99.312 1000.08 99.408 999.753 99.6C999.422 99.792 999.156 100.064 998.953 100.416C998.761 100.768 998.665 101.195 998.665 101.696C998.665 102.187 998.761 102.613 998.953 102.976C999.156 103.328 999.422 103.6 999.753 103.792C1000.08 103.984 1000.46 104.08 1000.87 104.08ZM1012.49 97.264C1013.18 97.264 1013.78 97.4027 1014.32 97.68C1014.86 97.9467 1015.29 98.3627 1015.6 98.928C1015.91 99.4827 1016.06 100.197 1016.06 101.072V106H1013.57V101.456C1013.57 100.763 1013.41 100.251 1013.1 99.92C1012.8 99.5893 1012.38 99.424 1011.82 99.424C1011.43 99.424 1011.07 99.5093 1010.75 99.68C1010.44 99.84 1010.19 100.091 1010.01 100.432C1009.84 100.773 1009.76 101.211 1009.76 101.744V106H1007.26V97.392H1009.65V99.776L1009.2 99.056C1009.51 98.48 1009.95 98.0373 1010.53 97.728C1011.1 97.4187 1011.76 97.264 1012.49 97.264Z" fill="#E4E7EB"/>
<rect x="807.5" y="142.5" width="323" height="49" rx="19.5" fill="#583A8C"/>
<rect x="807.5" y="142.5" width="323" height="49" rx="19.5" stroke="url(#paint1_linear_974_2109)"/>
<path d="M930.192 173L935.184 161.8H937.744L942.752 173H940.032L935.936 163.112H936.96L932.848 173H930.192ZM932.688 170.6L933.376 168.632H939.136L939.84 170.6H932.688ZM946.556 173.128C945.82 173.128 945.11 173.043 944.428 172.872C943.756 172.691 943.222 172.467 942.828 172.2L943.66 170.408C944.054 170.653 944.518 170.856 945.052 171.016C945.596 171.165 946.129 171.24 946.652 171.24C947.228 171.24 947.633 171.171 947.868 171.032C948.113 170.893 948.236 170.701 948.236 170.456C948.236 170.253 948.14 170.104 947.948 170.008C947.766 169.901 947.521 169.821 947.212 169.768C946.902 169.715 946.561 169.661 946.188 169.608C945.825 169.555 945.457 169.485 945.084 169.4C944.71 169.304 944.369 169.165 944.06 168.984C943.75 168.803 943.5 168.557 943.308 168.248C943.126 167.939 943.036 167.539 943.036 167.048C943.036 166.504 943.19 166.024 943.5 165.608C943.82 165.192 944.278 164.867 944.876 164.632C945.473 164.387 946.188 164.264 947.02 164.264C947.606 164.264 948.204 164.328 948.812 164.456C949.42 164.584 949.926 164.771 950.332 165.016L949.5 166.792C949.084 166.547 948.662 166.381 948.236 166.296C947.82 166.2 947.414 166.152 947.02 166.152C946.465 166.152 946.06 166.227 945.804 166.376C945.548 166.525 945.42 166.717 945.42 166.952C945.42 167.165 945.51 167.325 945.692 167.432C945.884 167.539 946.134 167.624 946.444 167.688C946.753 167.752 947.089 167.811 947.452 167.864C947.825 167.907 948.198 167.976 948.572 168.072C948.945 168.168 949.281 168.307 949.58 168.488C949.889 168.659 950.14 168.899 950.332 169.208C950.524 169.507 950.62 169.901 950.62 170.392C950.62 170.925 950.46 171.4 950.14 171.816C949.82 172.221 949.356 172.541 948.748 172.776C948.15 173.011 947.42 173.128 946.556 173.128ZM955.056 173.128C954.32 173.128 953.61 173.043 952.928 172.872C952.256 172.691 951.722 172.467 951.328 172.2L952.16 170.408C952.554 170.653 953.018 170.856 953.552 171.016C954.096 171.165 954.629 171.24 955.152 171.24C955.728 171.24 956.133 171.171 956.368 171.032C956.613 170.893 956.736 170.701 956.736 170.456C956.736 170.253 956.64 170.104 956.448 170.008C956.266 169.901 956.021 169.821 955.712 169.768C955.402 169.715 955.061 169.661 954.688 169.608C954.325 169.555 953.957 169.485 953.584 169.4C953.21 169.304 952.869 169.165 952.56 168.984C952.25 168.803 952 168.557 951.808 168.248C951.626 167.939 951.536 167.539 951.536 167.048C951.536 166.504 951.69 166.024 952 165.608C952.32 165.192 952.778 164.867 953.376 164.632C953.973 164.387 954.688 164.264 955.52 164.264C956.106 164.264 956.704 164.328 957.312 164.456C957.92 164.584 958.426 164.771 958.832 165.016L958 166.792C957.584 166.547 957.162 166.381 956.736 166.296C956.32 166.2 955.914 166.152 955.52 166.152C954.965 166.152 954.56 166.227 954.304 166.376C954.048 166.525 953.92 166.717 953.92 166.952C953.92 167.165 954.01 167.325 954.192 167.432C954.384 167.539 954.634 167.624 954.944 167.688C955.253 167.752 955.589 167.811 955.952 167.864C956.325 167.907 956.698 167.976 957.072 168.072C957.445 168.168 957.781 168.307 958.08 168.488C958.389 168.659 958.64 168.899 958.832 169.208C959.024 169.507 959.12 169.901 959.12 170.392C959.12 170.925 958.96 171.4 958.64 171.816C958.32 172.221 957.856 172.541 957.248 172.776C956.65 173.011 955.92 173.128 955.056 173.128ZM960.66 173V164.392H963.156V173H960.66ZM961.908 163.192C961.449 163.192 961.076 163.059 960.788 162.792C960.5 162.525 960.356 162.195 960.356 161.8C960.356 161.405 960.5 161.075 960.788 160.808C961.076 160.541 961.449 160.408 961.908 160.408C962.366 160.408 962.74 160.536 963.028 160.792C963.316 161.037 963.46 161.357 963.46 161.752C963.46 162.168 963.316 162.515 963.028 162.792C962.75 163.059 962.377 163.192 961.908 163.192ZM968.368 173.128C967.632 173.128 966.923 173.043 966.24 172.872C965.568 172.691 965.035 172.467 964.64 172.2L965.472 170.408C965.867 170.653 966.331 170.856 966.864 171.016C967.408 171.165 967.942 171.24 968.464 171.24C969.04 171.24 969.446 171.171 969.68 171.032C969.926 170.893 970.048 170.701 970.048 170.456C970.048 170.253 969.952 170.104 969.76 170.008C969.579 169.901 969.334 169.821 969.024 169.768C968.715 169.715 968.374 169.661 968 169.608C967.638 169.555 967.27 169.485 966.896 169.4C966.523 169.304 966.182 169.165 965.872 168.984C965.563 168.803 965.312 168.557 965.12 168.248C964.939 167.939 964.848 167.539 964.848 167.048C964.848 166.504 965.003 166.024 965.312 165.608C965.632 165.192 966.091 164.867 966.688 164.632C967.286 164.387 968 164.264 968.832 164.264C969.419 164.264 970.016 164.328 970.624 164.456C971.232 164.584 971.739 164.771 972.144 165.016L971.312 166.792C970.896 166.547 970.475 166.381 970.048 166.296C969.632 166.2 969.227 166.152 968.832 166.152C968.278 166.152 967.872 166.227 967.616 166.376C967.36 166.525 967.232 166.717 967.232 166.952C967.232 167.165 967.323 167.325 967.504 167.432C967.696 167.539 967.947 167.624 968.256 167.688C968.566 167.752 968.902 167.811 969.264 167.864C969.638 167.907 970.011 167.976 970.384 168.072C970.758 168.168 971.094 168.307 971.392 168.488C971.702 168.659 971.952 168.899 972.144 169.208C972.336 169.507 972.432 169.901 972.432 170.392C972.432 170.925 972.272 171.4 971.952 171.816C971.632 172.221 971.168 172.541 970.56 172.776C969.963 173.011 969.232 173.128 968.368 173.128ZM977.492 173.128C976.479 173.128 975.69 172.872 975.124 172.36C974.559 171.837 974.276 171.064 974.276 170.04V162.488H976.772V170.008C976.772 170.371 976.868 170.653 977.06 170.856C977.252 171.048 977.514 171.144 977.844 171.144C978.239 171.144 978.575 171.037 978.852 170.824L979.524 172.584C979.268 172.765 978.959 172.904 978.596 173C978.244 173.085 977.876 173.128 977.492 173.128ZM972.948 166.504V164.584H978.916V166.504H972.948ZM986.205 173V171.32L986.045 170.952V167.944C986.045 167.411 985.88 166.995 985.549 166.696C985.229 166.397 984.733 166.248 984.061 166.248C983.603 166.248 983.149 166.323 982.701 166.472C982.264 166.611 981.891 166.803 981.581 167.048L980.685 165.304C981.155 164.973 981.72 164.717 982.381 164.536C983.043 164.355 983.715 164.264 984.397 164.264C985.709 164.264 986.728 164.573 987.453 165.192C988.179 165.811 988.541 166.776 988.541 168.088V173H986.205ZM983.581 173.128C982.909 173.128 982.333 173.016 981.853 172.792C981.373 172.557 981.005 172.243 980.749 171.848C980.493 171.453 980.365 171.011 980.365 170.52C980.365 170.008 980.488 169.56 980.733 169.176C980.989 168.792 981.389 168.493 981.933 168.28C982.477 168.056 983.187 167.944 984.061 167.944H986.349V169.4H984.333C983.747 169.4 983.341 169.496 983.117 169.688C982.904 169.88 982.797 170.12 982.797 170.408C982.797 170.728 982.92 170.984 983.165 171.176C983.421 171.357 983.768 171.448 984.205 171.448C984.621 171.448 984.995 171.352 985.325 171.16C985.656 170.957 985.896 170.664 986.045 170.28L986.429 171.432C986.248 171.987 985.917 172.408 985.437 172.696C984.957 172.984 984.339 173.128 983.581 173.128ZM996.032 164.264C996.715 164.264 997.323 164.403 997.856 164.68C998.4 164.947 998.827 165.363 999.136 165.928C999.446 166.483 999.6 167.197 999.6 168.072V173H997.104V168.456C997.104 167.763 996.95 167.251 996.64 166.92C996.342 166.589 995.915 166.424 995.36 166.424C994.966 166.424 994.608 166.509 994.288 166.68C993.979 166.84 993.734 167.091 993.552 167.432C993.382 167.773 993.296 168.211 993.296 168.744V173H990.8V164.392H993.184V166.776L992.736 166.056C993.046 165.48 993.488 165.037 994.064 164.728C994.64 164.419 995.296 164.264 996.032 164.264ZM1005.38 173.128C1004.37 173.128 1003.58 172.872 1003.01 172.36C1002.45 171.837 1002.17 171.064 1002.17 170.04V162.488H1004.66V170.008C1004.66 170.371 1004.76 170.653 1004.95 170.856C1005.14 171.048 1005.4 171.144 1005.73 171.144C1006.13 171.144 1006.47 171.037 1006.74 170.824L1007.41 172.584C1007.16 172.765 1006.85 172.904 1006.49 173C1006.13 173.085 1005.77 173.128 1005.38 173.128ZM1000.84 166.504V164.584H1006.81V166.504H1000.84Z" fill="#E4E7EB"/>
<rect x="807.5" y="209.5" width="323" height="49" rx="19.5" fill="#583A8C"/>
<rect x="807.5" y="209.5" width="323" height="49" rx="19.5" stroke="url(#paint2_linear_974_2109)"/>
<path d="M940.918 240L945.911 228.8H948.471L953.479 240H950.759L946.663 230.112H947.687L943.575 240H940.918ZM943.414 237.6L944.103 235.632H949.863L950.567 237.6H943.414ZM958.082 240.128C957.272 240.128 956.541 239.947 955.89 239.584C955.24 239.211 954.722 238.693 954.338 238.032C953.965 237.371 953.778 236.592 953.778 235.696C953.778 234.789 953.965 234.005 954.338 233.344C954.722 232.683 955.24 232.171 955.89 231.808C956.541 231.445 957.272 231.264 958.082 231.264C958.808 231.264 959.442 231.424 959.986 231.744C960.53 232.064 960.952 232.549 961.25 233.2C961.549 233.851 961.698 234.683 961.698 235.696C961.698 236.699 961.554 237.531 961.266 238.192C960.978 238.843 960.562 239.328 960.018 239.648C959.485 239.968 958.84 240.128 958.082 240.128ZM958.514 238.08C958.92 238.08 959.288 237.984 959.618 237.792C959.949 237.6 960.21 237.328 960.402 236.976C960.605 236.613 960.706 236.187 960.706 235.696C960.706 235.195 960.605 234.768 960.402 234.416C960.21 234.064 959.949 233.792 959.618 233.6C959.288 233.408 958.92 233.312 958.514 233.312C958.098 233.312 957.725 233.408 957.394 233.6C957.064 233.792 956.797 234.064 956.594 234.416C956.402 234.768 956.306 235.195 956.306 235.696C956.306 236.187 956.402 236.613 956.594 236.976C956.797 237.328 957.064 237.6 957.394 237.792C957.725 237.984 958.098 238.08 958.514 238.08ZM960.77 240V238.24L960.818 235.68L960.658 233.136V228.128H963.154V240H960.77ZM969.161 240.128C968.35 240.128 967.619 239.947 966.969 239.584C966.318 239.211 965.801 238.693 965.417 238.032C965.043 237.371 964.857 236.592 964.857 235.696C964.857 234.789 965.043 234.005 965.417 233.344C965.801 232.683 966.318 232.171 966.969 231.808C967.619 231.445 968.35 231.264 969.161 231.264C969.886 231.264 970.521 231.424 971.065 231.744C971.609 232.064 972.03 232.549 972.329 233.2C972.627 233.851 972.777 234.683 972.777 235.696C972.777 236.699 972.633 237.531 972.345 238.192C972.057 238.843 971.641 239.328 971.097 239.648C970.563 239.968 969.918 240.128 969.161 240.128ZM969.593 238.08C969.998 238.08 970.366 237.984 970.697 237.792C971.027 237.6 971.289 237.328 971.481 236.976C971.683 236.613 971.785 236.187 971.785 235.696C971.785 235.195 971.683 234.768 971.481 234.416C971.289 234.064 971.027 233.792 970.697 233.6C970.366 233.408 969.998 233.312 969.593 233.312C969.177 233.312 968.803 233.408 968.473 233.6C968.142 233.792 967.875 234.064 967.673 234.416C967.481 234.768 967.385 235.195 967.385 235.696C967.385 236.187 967.481 236.613 967.673 236.976C967.875 237.328 968.142 237.6 968.473 237.792C968.803 237.984 969.177 238.08 969.593 238.08ZM971.849 240V238.24L971.897 235.68L971.737 233.136V228.128H974.233V240H971.849ZM980.639 240.128C979.721 240.128 978.905 239.936 978.191 239.552C977.487 239.168 976.927 238.645 976.511 237.984C976.105 237.312 975.903 236.549 975.903 235.696C975.903 234.832 976.105 234.069 976.511 233.408C976.927 232.736 977.487 232.213 978.191 231.84C978.905 231.456 979.721 231.264 980.639 231.264C981.545 231.264 982.356 231.456 983.071 231.84C983.785 232.213 984.345 232.731 984.751 233.392C985.156 234.053 985.359 234.821 985.359 235.696C985.359 236.549 985.156 237.312 984.751 237.984C984.345 238.645 983.785 239.168 983.071 239.552C982.356 239.936 981.545 240.128 980.639 240.128ZM980.639 238.08C981.055 238.08 981.428 237.984 981.759 237.792C982.089 237.6 982.351 237.328 982.543 236.976C982.735 236.613 982.831 236.187 982.831 235.696C982.831 235.195 982.735 234.768 982.543 234.416C982.351 234.064 982.089 233.792 981.759 233.6C981.428 233.408 981.055 233.312 980.639 233.312C980.223 233.312 979.849 233.408 979.519 233.6C979.188 233.792 978.921 234.064 978.719 234.416C978.527 234.768 978.431 235.195 978.431 235.696C978.431 236.187 978.527 236.613 978.719 236.976C978.921 237.328 979.188 237.6 979.519 237.792C979.849 237.984 980.223 238.08 980.639 238.08ZM992.259 231.264C992.942 231.264 993.55 231.403 994.083 231.68C994.627 231.947 995.054 232.363 995.363 232.928C995.672 233.483 995.827 234.197 995.827 235.072V240H993.331V235.456C993.331 234.763 993.176 234.251 992.867 233.92C992.568 233.589 992.142 233.424 991.587 233.424C991.192 233.424 990.835 233.509 990.515 233.68C990.206 233.84 989.96 234.091 989.779 234.432C989.608 234.773 989.523 235.211 989.523 235.744V240H987.027V231.392H989.411V233.776L988.963 233.056C989.272 232.48 989.715 232.037 990.291 231.728C990.867 231.419 991.523 231.264 992.259 231.264Z" fill="#E4E7EB"/>
<rect x="807.5" y="276.5" width="323" height="49" rx="19.5" fill="#5A8CE9" fill-opacity="0.7"/>
<rect x="807.5" y="276.5" width="323" height="49" rx="19.5" stroke="url(#paint3_linear_974_2109)"/>
<path d="M934.934 307L939.926 295.8H942.486L947.494 307H944.774L940.678 297.112H941.702L937.59 307H934.934ZM937.43 304.6L938.118 302.632H943.878L944.582 304.6H937.43ZM952.098 307.128C951.287 307.128 950.557 306.947 949.906 306.584C949.255 306.211 948.738 305.693 948.354 305.032C947.981 304.371 947.794 303.592 947.794 302.696C947.794 301.789 947.981 301.005 948.354 300.344C948.738 299.683 949.255 299.171 949.906 298.808C950.557 298.445 951.287 298.264 952.098 298.264C952.823 298.264 953.458 298.424 954.002 298.744C954.546 299.064 954.967 299.549 955.266 300.2C955.565 300.851 955.714 301.683 955.714 302.696C955.714 303.699 955.57 304.531 955.282 305.192C954.994 305.843 954.578 306.328 954.034 306.648C953.501 306.968 952.855 307.128 952.098 307.128ZM952.53 305.08C952.935 305.08 953.303 304.984 953.634 304.792C953.965 304.6 954.226 304.328 954.418 303.976C954.621 303.613 954.722 303.187 954.722 302.696C954.722 302.195 954.621 301.768 954.418 301.416C954.226 301.064 953.965 300.792 953.634 300.6C953.303 300.408 952.935 300.312 952.53 300.312C952.114 300.312 951.741 300.408 951.41 300.6C951.079 300.792 950.813 301.064 950.61 301.416C950.418 301.768 950.322 302.195 950.322 302.696C950.322 303.187 950.418 303.613 950.61 303.976C950.813 304.328 951.079 304.6 951.41 304.792C951.741 304.984 952.114 305.08 952.53 305.08ZM954.786 307V305.24L954.834 302.68L954.674 300.136V295.128H957.17V307H954.786ZM964.76 307V305.32L964.6 304.952V301.944C964.6 301.411 964.435 300.995 964.104 300.696C963.784 300.397 963.288 300.248 962.616 300.248C962.157 300.248 961.704 300.323 961.256 300.472C960.819 300.611 960.445 300.803 960.136 301.048L959.24 299.304C959.709 298.973 960.275 298.717 960.936 298.536C961.597 298.355 962.269 298.264 962.952 298.264C964.264 298.264 965.283 298.573 966.008 299.192C966.733 299.811 967.096 300.776 967.096 302.088V307H964.76ZM962.136 307.128C961.464 307.128 960.888 307.016 960.408 306.792C959.928 306.557 959.56 306.243 959.304 305.848C959.048 305.453 958.92 305.011 958.92 304.52C958.92 304.008 959.043 303.56 959.288 303.176C959.544 302.792 959.944 302.493 960.488 302.28C961.032 302.056 961.741 301.944 962.616 301.944H964.904V303.4H962.888C962.301 303.4 961.896 303.496 961.672 303.688C961.459 303.88 961.352 304.12 961.352 304.408C961.352 304.728 961.475 304.984 961.72 305.176C961.976 305.357 962.323 305.448 962.76 305.448C963.176 305.448 963.549 305.352 963.88 305.16C964.211 304.957 964.451 304.664 964.6 304.28L964.984 305.432C964.803 305.987 964.472 306.408 963.992 306.696C963.512 306.984 962.893 307.128 962.136 307.128ZM974.443 307.128C973.718 307.128 973.083 306.968 972.539 306.648C971.995 306.328 971.568 305.843 971.259 305.192C970.96 304.531 970.811 303.699 970.811 302.696C970.811 301.683 970.955 300.851 971.243 300.2C971.531 299.549 971.947 299.064 972.491 298.744C973.035 298.424 973.686 298.264 974.443 298.264C975.254 298.264 975.979 298.451 976.619 298.824C977.27 299.187 977.782 299.699 978.155 300.36C978.539 301.021 978.731 301.8 978.731 302.696C978.731 303.603 978.539 304.387 978.155 305.048C977.782 305.709 977.27 306.221 976.619 306.584C975.979 306.947 975.254 307.128 974.443 307.128ZM969.355 310.104V298.392H971.739V300.152L971.691 302.712L971.851 305.256V310.104H969.355ZM974.011 305.08C974.427 305.08 974.795 304.984 975.115 304.792C975.446 304.6 975.707 304.328 975.899 303.976C976.102 303.613 976.203 303.187 976.203 302.696C976.203 302.195 976.102 301.768 975.899 301.416C975.707 301.064 975.446 300.792 975.115 300.6C974.795 300.408 974.427 300.312 974.011 300.312C973.595 300.312 973.222 300.408 972.891 300.6C972.56 300.792 972.299 301.064 972.107 301.416C971.915 301.768 971.819 302.195 971.819 302.696C971.819 303.187 971.915 303.613 972.107 303.976C972.299 304.328 972.56 304.6 972.891 304.792C973.222 304.984 973.595 305.08 974.011 305.08ZM983.922 307.128C982.909 307.128 982.119 306.872 981.554 306.36C980.989 305.837 980.706 305.064 980.706 304.04V296.488H983.202V304.008C983.202 304.371 983.298 304.653 983.49 304.856C983.682 305.048 983.943 305.144 984.274 305.144C984.669 305.144 985.005 305.037 985.282 304.824L985.954 306.584C985.698 306.765 985.389 306.904 985.026 307C984.674 307.085 984.306 307.128 983.922 307.128ZM979.378 300.504V298.584H985.346V300.504H979.378ZM991.362 307.128C990.38 307.128 989.516 306.936 988.77 306.552C988.034 306.168 987.463 305.645 987.058 304.984C986.652 304.312 986.45 303.549 986.45 302.696C986.45 301.832 986.647 301.069 987.042 300.408C987.447 299.736 987.996 299.213 988.69 298.84C989.383 298.456 990.167 298.264 991.042 298.264C991.884 298.264 992.642 298.445 993.314 298.808C993.996 299.16 994.535 299.672 994.93 300.344C995.324 301.005 995.522 301.8 995.522 302.728C995.522 302.824 995.516 302.936 995.506 303.064C995.495 303.181 995.484 303.293 995.474 303.4H988.482V301.944H994.161L993.202 302.376C993.202 301.928 993.111 301.539 992.93 301.208C992.748 300.877 992.498 300.621 992.178 300.44C991.858 300.248 991.484 300.152 991.058 300.152C990.631 300.152 990.252 300.248 989.922 300.44C989.602 300.621 989.351 300.883 989.17 301.224C988.988 301.555 988.898 301.949 988.898 302.408V302.792C988.898 303.261 988.999 303.677 989.202 304.04C989.415 304.392 989.708 304.664 990.082 304.856C990.466 305.037 990.914 305.128 991.426 305.128C991.884 305.128 992.284 305.059 992.626 304.92C992.978 304.781 993.298 304.573 993.586 304.296L994.914 305.736C994.519 306.184 994.023 306.531 993.426 306.776C992.828 307.011 992.14 307.128 991.362 307.128ZM997.183 307V298.392H999.567V300.824L999.231 300.12C999.487 299.512 999.898 299.053 1000.46 298.744C1001.03 298.424 1001.72 298.264 1002.53 298.264V300.568C1002.42 300.557 1002.32 300.552 1002.24 300.552C1002.15 300.541 1002.06 300.536 1001.97 300.536C1001.28 300.536 1000.73 300.733 1000.3 301.128C999.887 301.512 999.679 302.115 999.679 302.936V307H997.183Z" fill="#E4E7EB"/>
<path d="M319.532 388.716V375.612H322.094V376.438H320.526V387.89H322.094V388.716H319.532ZM327.573 386.07C326.938 386.07 326.364 385.925 325.851 385.636C325.337 385.337 324.927 384.913 324.619 384.362C324.32 383.802 324.171 383.121 324.171 382.318C324.171 381.515 324.32 380.839 324.619 380.288C324.917 379.728 325.323 379.303 325.837 379.014C326.35 378.725 326.929 378.58 327.573 378.58C328.273 378.58 328.898 378.739 329.449 379.056C330.009 379.364 330.447 379.803 330.765 380.372C331.082 380.932 331.241 381.581 331.241 382.318C331.241 383.065 331.082 383.718 330.765 384.278C330.447 384.838 330.009 385.277 329.449 385.594C328.898 385.911 328.273 386.07 327.573 386.07ZM323.779 388.716V378.65H324.731V380.862L324.633 382.332L324.773 383.816V388.716H323.779ZM327.503 385.188C328.025 385.188 328.492 385.071 328.903 384.838C329.313 384.595 329.64 384.259 329.883 383.83C330.125 383.391 330.247 382.887 330.247 382.318C330.247 381.749 330.125 381.249 329.883 380.82C329.64 380.391 329.313 380.055 328.903 379.812C328.492 379.569 328.025 379.448 327.503 379.448C326.98 379.448 326.509 379.569 326.089 379.812C325.678 380.055 325.351 380.391 325.109 380.82C324.875 381.249 324.759 381.749 324.759 382.318C324.759 382.887 324.875 383.391 325.109 383.83C325.351 384.259 325.678 384.595 326.089 384.838C326.509 385.071 326.98 385.188 327.503 385.188ZM333.267 386V378.65H334.219V380.652L334.121 380.302C334.326 379.742 334.672 379.317 335.157 379.028C335.642 378.729 336.244 378.58 336.963 378.58V379.546C336.926 379.546 336.888 379.546 336.851 379.546C336.814 379.537 336.776 379.532 336.739 379.532C335.964 379.532 335.358 379.77 334.919 380.246C334.48 380.713 334.261 381.38 334.261 382.248V386H333.267ZM341.704 386.07C340.995 386.07 340.356 385.911 339.786 385.594C339.226 385.267 338.783 384.824 338.456 384.264C338.13 383.695 337.966 383.046 337.966 382.318C337.966 381.581 338.13 380.932 338.456 380.372C338.783 379.812 339.226 379.373 339.786 379.056C340.346 378.739 340.986 378.58 341.704 378.58C342.432 378.58 343.076 378.739 343.636 379.056C344.206 379.373 344.649 379.812 344.966 380.372C345.293 380.932 345.456 381.581 345.456 382.318C345.456 383.046 345.293 383.695 344.966 384.264C344.649 384.824 344.206 385.267 343.636 385.594C343.067 385.911 342.423 386.07 341.704 386.07ZM341.704 385.188C342.236 385.188 342.708 385.071 343.118 384.838C343.529 384.595 343.851 384.259 344.084 383.83C344.327 383.391 344.448 382.887 344.448 382.318C344.448 381.739 344.327 381.235 344.084 380.806C343.851 380.377 343.529 380.045 343.118 379.812C342.708 379.569 342.241 379.448 341.718 379.448C341.196 379.448 340.729 379.569 340.318 379.812C339.908 380.045 339.581 380.377 339.338 380.806C339.096 381.235 338.974 381.739 338.974 382.318C338.974 382.887 339.096 383.391 339.338 383.83C339.581 384.259 339.908 384.595 340.318 384.838C340.729 385.071 341.191 385.188 341.704 385.188ZM349.81 386.07C349.119 386.07 348.587 385.883 348.214 385.51C347.84 385.137 347.654 384.609 347.654 383.928V377.026H348.648V383.872C348.648 384.301 348.755 384.633 348.97 384.866C349.194 385.099 349.511 385.216 349.922 385.216C350.36 385.216 350.724 385.09 351.014 384.838L351.364 385.552C351.168 385.729 350.93 385.86 350.65 385.944C350.379 386.028 350.099 386.07 349.81 386.07ZM346.338 379.476V378.65H350.888V379.476H346.338ZM355.909 386.07C355.2 386.07 354.561 385.911 353.991 385.594C353.431 385.267 352.988 384.824 352.661 384.264C352.335 383.695 352.171 383.046 352.171 382.318C352.171 381.581 352.335 380.932 352.661 380.372C352.988 379.812 353.431 379.373 353.991 379.056C354.551 378.739 355.191 378.58 355.909 378.58C356.637 378.58 357.281 378.739 357.841 379.056C358.411 379.373 358.854 379.812 359.171 380.372C359.498 380.932 359.661 381.581 359.661 382.318C359.661 383.046 359.498 383.695 359.171 384.264C358.854 384.824 358.411 385.267 357.841 385.594C357.272 385.911 356.628 386.07 355.909 386.07ZM355.909 385.188C356.441 385.188 356.913 385.071 357.323 384.838C357.734 384.595 358.056 384.259 358.289 383.83C358.532 383.391 358.653 382.887 358.653 382.318C358.653 381.739 358.532 381.235 358.289 380.806C358.056 380.377 357.734 380.045 357.323 379.812C356.913 379.569 356.446 379.448 355.923 379.448C355.401 379.448 354.934 379.569 354.523 379.812C354.113 380.045 353.786 380.377 353.543 380.806C353.301 381.235 353.179 381.739 353.179 382.318C353.179 382.887 353.301 383.391 353.543 383.83C353.786 384.259 354.113 384.595 354.523 384.838C354.934 385.071 355.396 385.188 355.909 385.188ZM364.743 386.07C364.015 386.07 363.361 385.911 362.783 385.594C362.213 385.267 361.765 384.824 361.439 384.264C361.112 383.695 360.949 383.046 360.949 382.318C360.949 381.581 361.112 380.932 361.439 380.372C361.765 379.812 362.213 379.373 362.783 379.056C363.361 378.739 364.015 378.58 364.743 378.58C365.368 378.58 365.933 378.701 366.437 378.944C366.941 379.187 367.337 379.551 367.627 380.036L366.885 380.54C366.633 380.167 366.32 379.891 365.947 379.714C365.573 379.537 365.167 379.448 364.729 379.448C364.206 379.448 363.735 379.569 363.315 379.812C362.895 380.045 362.563 380.377 362.321 380.806C362.078 381.235 361.957 381.739 361.957 382.318C361.957 382.897 362.078 383.401 362.321 383.83C362.563 384.259 362.895 384.595 363.315 384.838C363.735 385.071 364.206 385.188 364.729 385.188C365.167 385.188 365.573 385.099 365.947 384.922C366.32 384.745 366.633 384.474 366.885 384.11L367.627 384.614C367.337 385.09 366.941 385.454 366.437 385.706C365.933 385.949 365.368 386.07 364.743 386.07ZM372.452 386.07C371.743 386.07 371.104 385.911 370.534 385.594C369.974 385.267 369.531 384.824 369.204 384.264C368.878 383.695 368.714 383.046 368.714 382.318C368.714 381.581 368.878 380.932 369.204 380.372C369.531 379.812 369.974 379.373 370.534 379.056C371.094 378.739 371.734 378.58 372.452 378.58C373.18 378.58 373.824 378.739 374.384 379.056C374.954 379.373 375.397 379.812 375.714 380.372C376.041 380.932 376.204 381.581 376.204 382.318C376.204 383.046 376.041 383.695 375.714 384.264C375.397 384.824 374.954 385.267 374.384 385.594C373.815 385.911 373.171 386.07 372.452 386.07ZM372.452 385.188C372.984 385.188 373.456 385.071 373.866 384.838C374.277 384.595 374.599 384.259 374.832 383.83C375.075 383.391 375.196 382.887 375.196 382.318C375.196 381.739 375.075 381.235 374.832 380.806C374.599 380.377 374.277 380.045 373.866 379.812C373.456 379.569 372.989 379.448 372.466 379.448C371.944 379.448 371.477 379.569 371.066 379.812C370.656 380.045 370.329 380.377 370.086 380.806C369.844 381.235 369.722 381.739 369.722 382.318C369.722 382.887 369.844 383.391 370.086 383.83C370.329 384.259 370.656 384.595 371.066 384.838C371.477 385.071 371.939 385.188 372.452 385.188ZM378.234 386V375.612H379.228V386H378.234ZM383.463 388.716H380.901V387.89H382.469V376.438H380.901V375.612H383.463V388.716Z" fill="#E4E7EB"/>
<path d="M331.396 365.14C330.052 365.14 328.998 364.762 328.232 364.006C327.476 363.25 327.098 362.158 327.098 360.73V355.2H328.918V360.66C328.918 361.668 329.133 362.401 329.562 362.858C330.001 363.315 330.617 363.544 331.41 363.544C332.204 363.544 332.815 363.315 333.244 362.858C333.674 362.401 333.888 361.668 333.888 360.66V355.2H335.68V360.73C335.68 362.158 335.298 363.25 334.532 364.006C333.776 364.762 332.731 365.14 331.396 365.14ZM342.303 357.44C342.9 357.44 343.432 357.557 343.899 357.79C344.375 358.023 344.748 358.383 345.019 358.868C345.29 359.344 345.425 359.96 345.425 360.716V365H343.675V360.94C343.675 360.277 343.516 359.783 343.199 359.456C342.891 359.129 342.457 358.966 341.897 358.966C341.486 358.966 341.122 359.05 340.805 359.218C340.488 359.386 340.24 359.638 340.063 359.974C339.895 360.301 339.811 360.716 339.811 361.22V365H338.061V357.524H339.727V359.54L339.433 358.924C339.694 358.448 340.072 358.084 340.567 357.832C341.071 357.571 341.65 357.44 342.303 357.44ZM347.645 365V357.524H349.395V365H347.645ZM348.527 356.292C348.2 356.292 347.93 356.189 347.715 355.984C347.51 355.779 347.407 355.531 347.407 355.242C347.407 354.943 347.51 354.696 347.715 354.5C347.93 354.295 348.2 354.192 348.527 354.192C348.854 354.192 349.12 354.29 349.325 354.486C349.54 354.673 349.647 354.911 349.647 355.2C349.647 355.508 349.544 355.769 349.339 355.984C349.134 356.189 348.863 356.292 348.527 356.292ZM351.93 365V357.104C351.93 356.32 352.159 355.695 352.616 355.228C353.083 354.752 353.745 354.514 354.604 354.514C354.912 354.514 355.201 354.547 355.472 354.612C355.752 354.677 355.985 354.78 356.172 354.92L355.696 356.236C355.565 356.133 355.416 356.059 355.248 356.012C355.08 355.956 354.907 355.928 354.73 355.928C354.366 355.928 354.091 356.031 353.904 356.236C353.717 356.432 353.624 356.731 353.624 357.132V357.972L353.68 358.756V365H351.93ZM350.698 358.98V357.58H355.682V358.98H350.698ZM356.914 365V357.524H358.664V365H356.914ZM357.796 356.292C357.469 356.292 357.199 356.189 356.984 355.984C356.779 355.779 356.676 355.531 356.676 355.242C356.676 354.943 356.779 354.696 356.984 354.5C357.199 354.295 357.469 354.192 357.796 354.192C358.123 354.192 358.389 354.29 358.594 354.486C358.809 354.673 358.916 354.911 358.916 355.2C358.916 355.508 358.813 355.769 358.608 355.984C358.403 356.189 358.132 356.292 357.796 356.292ZM364.475 365.098C363.645 365.098 362.917 364.935 362.291 364.608C361.675 364.272 361.195 363.815 360.849 363.236C360.513 362.657 360.345 361.999 360.345 361.262C360.345 360.515 360.509 359.857 360.835 359.288C361.171 358.709 361.629 358.257 362.207 357.93C362.795 357.603 363.463 357.44 364.209 357.44C364.937 357.44 365.586 357.599 366.155 357.916C366.725 358.233 367.173 358.681 367.499 359.26C367.826 359.839 367.989 360.52 367.989 361.304C367.989 361.379 367.985 361.463 367.975 361.556C367.975 361.649 367.971 361.738 367.961 361.822H361.731V360.66H367.037L366.351 361.024C366.361 360.595 366.272 360.217 366.085 359.89C365.899 359.563 365.642 359.307 365.315 359.12C364.998 358.933 364.629 358.84 364.209 358.84C363.78 358.84 363.402 358.933 363.075 359.12C362.758 359.307 362.506 359.568 362.319 359.904C362.142 360.231 362.053 360.618 362.053 361.066V361.346C362.053 361.794 362.156 362.191 362.361 362.536C362.567 362.881 362.856 363.147 363.229 363.334C363.603 363.521 364.032 363.614 364.517 363.614C364.937 363.614 365.315 363.549 365.651 363.418C365.987 363.287 366.286 363.082 366.547 362.802L367.485 363.88C367.149 364.272 366.725 364.575 366.211 364.79C365.707 364.995 365.129 365.098 364.475 365.098ZM372.834 365.098C372.116 365.098 371.467 364.939 370.888 364.622C370.319 364.295 369.871 363.847 369.544 363.278C369.218 362.709 369.054 362.037 369.054 361.262C369.054 360.487 369.218 359.815 369.544 359.246C369.871 358.677 370.319 358.233 370.888 357.916C371.467 357.599 372.116 357.44 372.834 357.44C373.46 357.44 374.02 357.58 374.514 357.86C375.009 358.131 375.401 358.546 375.69 359.106C375.98 359.666 376.124 360.385 376.124 361.262C376.124 362.13 375.984 362.849 375.704 363.418C375.424 363.978 375.037 364.398 374.542 364.678C374.048 364.958 373.478 365.098 372.834 365.098ZM373.044 363.6C373.464 363.6 373.838 363.507 374.164 363.32C374.5 363.133 374.766 362.863 374.962 362.508C375.168 362.153 375.27 361.738 375.27 361.262C375.27 360.777 375.168 360.361 374.962 360.016C374.766 359.661 374.5 359.391 374.164 359.204C373.838 359.017 373.464 358.924 373.044 358.924C372.624 358.924 372.246 359.017 371.91 359.204C371.584 359.391 371.318 359.661 371.112 360.016C370.916 360.361 370.818 360.777 370.818 361.262C370.818 361.738 370.916 362.153 371.112 362.508C371.318 362.863 371.584 363.133 371.91 363.32C372.246 363.507 372.624 363.6 373.044 363.6ZM375.312 365V363.236L375.382 361.248L375.242 359.26V354.612H376.978V365H375.312Z" fill="#E4E7EB"/>
<path d="M150 76H556C566.493 76 575 84.5066 575 95V272C575 282.493 566.493 291 556 291H150C139.507 291 131 282.493 131 272V95C131 84.5066 139.507 76 150 76Z" fill="url(#paint4_linear_974_2109)" fill-opacity="0.5" stroke="url(#paint5_linear_974_2109)" stroke-width="2"/>
<path d="M255.04 173L270.64 138H278.64L294.29 173H285.79L272.99 142.1H276.19L263.34 173H255.04ZM262.84 165.5L264.99 159.35H282.99L285.19 165.5H262.84ZM297.921 173V138H306.021V173H297.921ZM328.488 173V138H344.388C348.188 138 351.538 138.733 354.438 140.2C357.338 141.633 359.605 143.65 361.238 146.25C362.871 148.85 363.688 151.933 363.688 155.5C363.688 159.033 362.871 162.117 361.238 164.75C359.605 167.35 357.338 169.383 354.438 170.85C351.538 172.283 348.188 173 344.388 173H328.488ZM336.588 166.35H343.988C346.321 166.35 348.338 165.917 350.038 165.05C351.771 164.15 353.105 162.883 354.038 161.25C355.005 159.617 355.488 157.7 355.488 155.5C355.488 153.267 355.005 151.35 354.038 149.75C353.105 148.117 351.771 146.867 350.038 146C348.338 145.1 346.321 144.65 343.988 144.65H336.588V166.35ZM369.796 173V138H377.896V173H369.796ZM381.603 173L397.203 138H405.203L420.853 173H412.353L399.553 142.1H402.753L389.903 173H381.603ZM389.403 165.5L391.553 159.35H409.553L411.753 165.5H389.403ZM424.484 173V138H432.584V166.4H450.134V173H424.484ZM313.304 234.6C310.604 234.6 308.088 234.167 305.754 233.3C303.454 232.4 301.454 231.133 299.754 229.5C298.054 227.867 296.721 225.95 295.754 223.75C294.821 221.55 294.354 219.133 294.354 216.5C294.354 213.867 294.821 211.45 295.754 209.25C296.721 207.05 298.054 205.133 299.754 203.5C301.488 201.867 303.504 200.617 305.804 199.75C308.104 198.85 310.621 198.4 313.354 198.4C316.388 198.4 319.121 198.933 321.554 200C324.021 201.033 326.088 202.567 327.754 204.6L322.554 209.4C321.354 208.033 320.021 207.017 318.554 206.35C317.088 205.65 315.488 205.3 313.754 205.3C312.121 205.3 310.621 205.567 309.254 206.1C307.888 206.633 306.704 207.4 305.704 208.4C304.704 209.4 303.921 210.583 303.354 211.95C302.821 213.317 302.554 214.833 302.554 216.5C302.554 218.167 302.821 219.683 303.354 221.05C303.921 222.417 304.704 223.6 305.704 224.6C306.704 225.6 307.888 226.367 309.254 226.9C310.621 227.433 312.121 227.7 313.754 227.7C315.488 227.7 317.088 227.367 318.554 226.7C320.021 226 321.354 224.95 322.554 223.55L327.754 228.35C326.088 230.383 324.021 231.933 321.554 233C319.121 234.067 316.371 234.6 313.304 234.6ZM344.546 234.4C341.68 234.4 339.13 233.8 336.896 232.6C334.696 231.4 332.946 229.767 331.646 227.7C330.38 225.6 329.746 223.217 329.746 220.55C329.746 217.85 330.38 215.467 331.646 213.4C332.946 211.3 334.696 209.667 336.896 208.5C339.13 207.3 341.68 206.7 344.546 206.7C347.38 206.7 349.913 207.3 352.146 208.5C354.38 209.667 356.13 211.283 357.396 213.35C358.663 215.417 359.296 217.817 359.296 220.55C359.296 223.217 358.663 225.6 357.396 227.7C356.13 229.767 354.38 231.4 352.146 232.6C349.913 233.8 347.38 234.4 344.546 234.4ZM344.546 228C345.846 228 347.013 227.7 348.046 227.1C349.08 226.5 349.896 225.65 350.496 224.55C351.096 223.417 351.396 222.083 351.396 220.55C351.396 218.983 351.096 217.65 350.496 216.55C349.896 215.45 349.08 214.6 348.046 214C347.013 213.4 345.846 213.1 344.546 213.1C343.246 213.1 342.08 213.4 341.046 214C340.013 214.6 339.18 215.45 338.546 216.55C337.946 217.65 337.646 218.983 337.646 220.55C337.646 222.083 337.946 223.417 338.546 224.55C339.18 225.65 340.013 226.5 341.046 227.1C342.08 227.7 343.246 228 344.546 228ZM364.51 234V207.1H371.96V214.7L370.91 212.5C371.71 210.6 372.993 209.167 374.76 208.2C376.527 207.2 378.677 206.7 381.21 206.7V213.9C380.877 213.867 380.577 213.85 380.31 213.85C380.043 213.817 379.76 213.8 379.46 213.8C377.327 213.8 375.593 214.417 374.26 215.65C372.96 216.85 372.31 218.733 372.31 221.3V234H364.51ZM399.003 234.4C395.936 234.4 393.236 233.8 390.903 232.6C388.603 231.4 386.819 229.767 385.553 227.7C384.286 225.6 383.653 223.217 383.653 220.55C383.653 217.85 384.269 215.467 385.503 213.4C386.769 211.3 388.486 209.667 390.653 208.5C392.819 207.3 395.269 206.7 398.003 206.7C400.636 206.7 403.003 207.267 405.103 208.4C407.236 209.5 408.919 211.1 410.153 213.2C411.386 215.267 412.003 217.75 412.003 220.65C412.003 220.95 411.986 221.3 411.953 221.7C411.919 222.067 411.886 222.417 411.853 222.75H390.003V218.2H407.753L404.753 219.55C404.753 218.15 404.469 216.933 403.903 215.9C403.336 214.867 402.553 214.067 401.553 213.5C400.553 212.9 399.386 212.6 398.053 212.6C396.719 212.6 395.536 212.9 394.503 213.5C393.503 214.067 392.719 214.883 392.153 215.95C391.586 216.983 391.303 218.217 391.303 219.65V220.85C391.303 222.317 391.619 223.617 392.253 224.75C392.919 225.85 393.836 226.7 395.003 227.3C396.203 227.867 397.603 228.15 399.203 228.15C400.636 228.15 401.886 227.933 402.953 227.5C404.053 227.067 405.053 226.417 405.953 225.55L410.103 230.05C408.869 231.45 407.319 232.533 405.453 233.3C403.586 234.033 401.436 234.4 399.003 234.4Z" fill="#E4E7EB"/>
<defs>
<linearGradient id="paint0_linear_974_2109" x1="805.155" y1="79.6607" x2="831.181" y2="190.804" gradientUnits="userSpaceOnUse">
<stop stop-color="white" stop-opacity="0.15"/>
<stop offset="1" stop-color="white" stop-opacity="0"/>
</linearGradient>
<linearGradient id="paint1_linear_974_2109" x1="805.155" y1="146.661" x2="831.181" y2="257.804" gradientUnits="userSpaceOnUse">
<stop stop-color="white" stop-opacity="0.15"/>
<stop offset="1" stop-color="white" stop-opacity="0"/>
</linearGradient>
<linearGradient id="paint2_linear_974_2109" x1="805.155" y1="213.661" x2="831.181" y2="324.804" gradientUnits="userSpaceOnUse">
<stop stop-color="white" stop-opacity="0.15"/>
<stop offset="1" stop-color="white" stop-opacity="0"/>
</linearGradient>
<linearGradient id="paint3_linear_974_2109" x1="805.155" y1="280.661" x2="831.181" y2="391.804" gradientUnits="userSpaceOnUse">
<stop stop-color="white" stop-opacity="0.15"/>
<stop offset="1" stop-color="white" stop-opacity="0"/>
</linearGradient>
<linearGradient id="paint4_linear_974_2109" x1="166.5" y1="628" x2="612.5" y2="628" gradientUnits="userSpaceOnUse">
<stop stop-color="#00DBDE"/>
<stop offset="0.9999" stop-color="#FC00FF" stop-opacity="0.22"/>
<stop offset="1" stop-color="#FC00FF"/>
</linearGradient>
<linearGradient id="paint5_linear_974_2109" x1="166.5" y1="628" x2="612.5" y2="628" gradientUnits="userSpaceOnUse">
<stop offset="0.0001" stop-color="#BDEFF3"/>
<stop offset="0.286458" stop-color="#00DBDE"/>
<stop offset="1" stop-color="#FC00FF"/>
</linearGradient>
</defs>
</svg>
