<svg width="1230" height="277" viewBox="0 0 1230 277" fill="none" xmlns="http://www.w3.org/2000/svg">
<rect width="1230" height="277" fill="#1B1B1D"/>
<path d="M51 26H457C467.493 26 476 34.5066 476 45V222C476 232.493 467.493 241 457 241H51C40.5066 241 32 232.493 32 222V45C32 34.5066 40.5066 26 51 26Z" fill="url(#paint0_linear_1237_3362)" fill-opacity="0.5" stroke="url(#paint1_linear_1237_3362)" stroke-width="2"/>
<path d="M156.04 123L171.64 88H179.64L195.29 123H186.79L173.99 92.1H177.19L164.34 123H156.04ZM163.84 115.5L165.99 109.35H183.99L186.19 115.5H163.84ZM198.921 123V88H207.021V123H198.921ZM229.488 123V88H245.388C249.188 88 252.538 88.7333 255.438 90.2C258.338 91.6333 260.605 93.65 262.238 96.25C263.871 98.85 264.688 101.933 264.688 105.5C264.688 109.033 263.871 112.117 262.238 114.75C260.605 117.35 258.338 119.383 255.438 120.85C252.538 122.283 249.188 123 245.388 123H229.488ZM237.588 116.35H244.988C247.321 116.35 249.338 115.917 251.038 115.05C252.771 114.15 254.105 112.883 255.038 111.25C256.005 109.617 256.488 107.7 256.488 105.5C256.488 103.267 256.005 101.35 255.038 99.75C254.105 98.1167 252.771 96.8667 251.038 96C249.338 95.1 247.321 94.65 244.988 94.65H237.588V116.35ZM270.796 123V88H278.896V123H270.796ZM282.603 123L298.203 88H306.203L321.853 123H313.353L300.553 92.1H303.753L290.903 123H282.603ZM290.403 115.5L292.553 109.35H310.553L312.753 115.5H290.403ZM325.484 123V88H333.584V116.4H351.134V123H325.484ZM214.304 184.6C211.604 184.6 209.088 184.167 206.754 183.3C204.454 182.4 202.454 181.133 200.754 179.5C199.054 177.867 197.721 175.95 196.754 173.75C195.821 171.55 195.354 169.133 195.354 166.5C195.354 163.867 195.821 161.45 196.754 159.25C197.721 157.05 199.054 155.133 200.754 153.5C202.488 151.867 204.504 150.617 206.804 149.75C209.104 148.85 211.621 148.4 214.354 148.4C217.388 148.4 220.121 148.933 222.554 150C225.021 151.033 227.088 152.567 228.754 154.6L223.554 159.4C222.354 158.033 221.021 157.017 219.554 156.35C218.088 155.65 216.488 155.3 214.754 155.3C213.121 155.3 211.621 155.567 210.254 156.1C208.888 156.633 207.704 157.4 206.704 158.4C205.704 159.4 204.921 160.583 204.354 161.95C203.821 163.317 203.554 164.833 203.554 166.5C203.554 168.167 203.821 169.683 204.354 171.05C204.921 172.417 205.704 173.6 206.704 174.6C207.704 175.6 208.888 176.367 210.254 176.9C211.621 177.433 213.121 177.7 214.754 177.7C216.488 177.7 218.088 177.367 219.554 176.7C221.021 176 222.354 174.95 223.554 173.55L228.754 178.35C227.088 180.383 225.021 181.933 222.554 183C220.121 184.067 217.371 184.6 214.304 184.6ZM245.546 184.4C242.68 184.4 240.13 183.8 237.896 182.6C235.696 181.4 233.946 179.767 232.646 177.7C231.38 175.6 230.746 173.217 230.746 170.55C230.746 167.85 231.38 165.467 232.646 163.4C233.946 161.3 235.696 159.667 237.896 158.5C240.13 157.3 242.68 156.7 245.546 156.7C248.38 156.7 250.913 157.3 253.146 158.5C255.38 159.667 257.13 161.283 258.396 163.35C259.663 165.417 260.296 167.817 260.296 170.55C260.296 173.217 259.663 175.6 258.396 177.7C257.13 179.767 255.38 181.4 253.146 182.6C250.913 183.8 248.38 184.4 245.546 184.4ZM245.546 178C246.846 178 248.013 177.7 249.046 177.1C250.08 176.5 250.896 175.65 251.496 174.55C252.096 173.417 252.396 172.083 252.396 170.55C252.396 168.983 252.096 167.65 251.496 166.55C250.896 165.45 250.08 164.6 249.046 164C248.013 163.4 246.846 163.1 245.546 163.1C244.246 163.1 243.08 163.4 242.046 164C241.013 164.6 240.18 165.45 239.546 166.55C238.946 167.65 238.646 168.983 238.646 170.55C238.646 172.083 238.946 173.417 239.546 174.55C240.18 175.65 241.013 176.5 242.046 177.1C243.08 177.7 244.246 178 245.546 178ZM265.51 184V157.1H272.96V164.7L271.91 162.5C272.71 160.6 273.993 159.167 275.76 158.2C277.527 157.2 279.677 156.7 282.21 156.7V163.9C281.877 163.867 281.577 163.85 281.31 163.85C281.043 163.817 280.76 163.8 280.46 163.8C278.327 163.8 276.593 164.417 275.26 165.65C273.96 166.85 273.31 168.733 273.31 171.3V184H265.51ZM300.003 184.4C296.936 184.4 294.236 183.8 291.903 182.6C289.603 181.4 287.819 179.767 286.553 177.7C285.286 175.6 284.653 173.217 284.653 170.55C284.653 167.85 285.269 165.467 286.503 163.4C287.769 161.3 289.486 159.667 291.653 158.5C293.819 157.3 296.269 156.7 299.003 156.7C301.636 156.7 304.003 157.267 306.103 158.4C308.236 159.5 309.919 161.1 311.153 163.2C312.386 165.267 313.003 167.75 313.003 170.65C313.003 170.95 312.986 171.3 312.953 171.7C312.919 172.067 312.886 172.417 312.853 172.75H291.003V168.2H308.753L305.753 169.55C305.753 168.15 305.469 166.933 304.903 165.9C304.336 164.867 303.553 164.067 302.553 163.5C301.553 162.9 300.386 162.6 299.053 162.6C297.719 162.6 296.536 162.9 295.503 163.5C294.503 164.067 293.719 164.883 293.153 165.95C292.586 166.983 292.303 168.217 292.303 169.65V170.85C292.303 172.317 292.619 173.617 293.253 174.75C293.919 175.85 294.836 176.7 296.003 177.3C297.203 177.867 298.603 178.15 300.203 178.15C301.636 178.15 302.886 177.933 303.953 177.5C305.053 177.067 306.053 176.417 306.953 175.55L311.103 180.05C309.869 181.45 308.319 182.533 306.453 183.3C304.586 184.033 302.436 184.4 300.003 184.4Z" fill="#E4E7EB"/>
<path d="M816.352 101.192C815.488 101.192 814.683 101.053 813.936 100.776C813.2 100.488 812.56 100.083 812.016 99.56C811.472 99.0373 811.045 98.424 810.736 97.72C810.437 97.016 810.288 96.2427 810.288 95.4C810.288 94.5573 810.437 93.784 810.736 93.08C811.045 92.376 811.472 91.7627 812.016 91.24C812.571 90.7173 813.216 90.3173 813.952 90.04C814.688 89.752 815.493 89.608 816.368 89.608C817.339 89.608 818.213 89.7787 818.992 90.12C819.781 90.4507 820.443 90.9413 820.976 91.592L819.312 93.128C818.928 92.6907 818.501 92.3653 818.032 92.152C817.563 91.928 817.051 91.816 816.496 91.816C815.973 91.816 815.493 91.9013 815.056 92.072C814.619 92.2427 814.24 92.488 813.92 92.808C813.6 93.128 813.349 93.5067 813.168 93.944C812.997 94.3813 812.912 94.8667 812.912 95.4C812.912 95.9333 812.997 96.4187 813.168 96.856C813.349 97.2933 813.6 97.672 813.92 97.992C814.24 98.312 814.619 98.5573 815.056 98.728C815.493 98.8987 815.973 98.984 816.496 98.984C817.051 98.984 817.563 98.8773 818.032 98.664C818.501 98.44 818.928 98.104 819.312 97.656L820.976 99.192C820.443 99.8427 819.781 100.339 818.992 100.68C818.213 101.021 817.333 101.192 816.352 101.192ZM826.35 101.128C825.432 101.128 824.616 100.936 823.902 100.552C823.198 100.168 822.638 99.6453 822.222 98.984C821.816 98.312 821.614 97.5493 821.614 96.696C821.614 95.832 821.816 95.0693 822.222 94.408C822.638 93.736 823.198 93.2133 823.902 92.84C824.616 92.456 825.432 92.264 826.35 92.264C827.256 92.264 828.067 92.456 828.782 92.84C829.496 93.2133 830.056 93.7307 830.462 94.392C830.867 95.0533 831.07 95.8213 831.07 96.696C831.07 97.5493 830.867 98.312 830.462 98.984C830.056 99.6453 829.496 100.168 828.782 100.552C828.067 100.936 827.256 101.128 826.35 101.128ZM826.35 99.08C826.766 99.08 827.139 98.984 827.47 98.792C827.8 98.6 828.062 98.328 828.254 97.976C828.446 97.6133 828.542 97.1867 828.542 96.696C828.542 96.1947 828.446 95.768 828.254 95.416C828.062 95.064 827.8 94.792 827.47 94.6C827.139 94.408 826.766 94.312 826.35 94.312C825.934 94.312 825.56 94.408 825.23 94.6C824.899 94.792 824.632 95.064 824.43 95.416C824.238 95.768 824.142 96.1947 824.142 96.696C824.142 97.1867 824.238 97.6133 824.43 97.976C824.632 98.328 824.899 98.6 825.23 98.792C825.56 98.984 825.934 99.08 826.35 99.08ZM837.97 92.264C838.653 92.264 839.261 92.4027 839.794 92.68C840.338 92.9467 840.765 93.3627 841.074 93.928C841.383 94.4827 841.538 95.1973 841.538 96.072V101H839.042V96.456C839.042 95.7627 838.887 95.2507 838.578 94.92C838.279 94.5893 837.853 94.424 837.298 94.424C836.903 94.424 836.546 94.5093 836.226 94.68C835.917 94.84 835.671 95.0907 835.49 95.432C835.319 95.7733 835.234 96.2107 835.234 96.744V101H832.738V92.392H835.122V94.776L834.674 94.056C834.983 93.48 835.426 93.0373 836.002 92.728C836.578 92.4187 837.234 92.264 837.97 92.264ZM845.98 101L842.364 92.392H844.94L847.948 99.8H846.668L849.788 92.392H852.188L848.556 101H845.98ZM857.244 101.128C856.263 101.128 855.399 100.936 854.652 100.552C853.916 100.168 853.346 99.6453 852.94 98.984C852.535 98.312 852.332 97.5493 852.332 96.696C852.332 95.832 852.53 95.0693 852.924 94.408C853.33 93.736 853.879 93.2133 854.572 92.84C855.266 92.456 856.05 92.264 856.924 92.264C857.767 92.264 858.524 92.4453 859.196 92.808C859.879 93.16 860.418 93.672 860.812 94.344C861.207 95.0053 861.404 95.8 861.404 96.728C861.404 96.824 861.399 96.936 861.388 97.064C861.378 97.1813 861.367 97.2933 861.356 97.4H854.364V95.944H860.044L859.084 96.376C859.084 95.928 858.994 95.5387 858.812 95.208C858.631 94.8773 858.38 94.6213 858.06 94.44C857.74 94.248 857.367 94.152 856.94 94.152C856.514 94.152 856.135 94.248 855.804 94.44C855.484 94.6213 855.234 94.8827 855.052 95.224C854.871 95.5547 854.78 95.9493 854.78 96.408V96.792C854.78 97.2613 854.882 97.6773 855.084 98.04C855.298 98.392 855.591 98.664 855.964 98.856C856.348 99.0373 856.796 99.128 857.308 99.128C857.767 99.128 858.167 99.0587 858.508 98.92C858.86 98.7813 859.18 98.5733 859.468 98.296L860.796 99.736C860.402 100.184 859.906 100.531 859.308 100.776C858.711 101.011 858.023 101.128 857.244 101.128ZM863.066 101V92.392H865.45V94.824L865.114 94.12C865.37 93.512 865.781 93.0533 866.346 92.744C866.911 92.424 867.599 92.264 868.41 92.264V94.568C868.303 94.5573 868.207 94.552 868.122 94.552C868.037 94.5413 867.946 94.536 867.85 94.536C867.167 94.536 866.613 94.7333 866.186 95.128C865.77 95.512 865.562 96.1147 865.562 96.936V101H863.066ZM872.853 101.128C872.117 101.128 871.407 101.043 870.725 100.872C870.053 100.691 869.519 100.467 869.125 100.2L869.957 98.408C870.351 98.6533 870.815 98.856 871.349 99.016C871.893 99.1653 872.426 99.24 872.949 99.24C873.525 99.24 873.93 99.1707 874.165 99.032C874.41 98.8933 874.533 98.7013 874.533 98.456C874.533 98.2533 874.437 98.104 874.245 98.008C874.063 97.9013 873.818 97.8213 873.509 97.768C873.199 97.7147 872.858 97.6613 872.485 97.608C872.122 97.5547 871.754 97.4853 871.381 97.4C871.007 97.304 870.666 97.1653 870.357 96.984C870.047 96.8027 869.797 96.5573 869.605 96.248C869.423 95.9387 869.333 95.5387 869.333 95.048C869.333 94.504 869.487 94.024 869.797 93.608C870.117 93.192 870.575 92.8667 871.173 92.632C871.77 92.3867 872.485 92.264 873.317 92.264C873.903 92.264 874.501 92.328 875.109 92.456C875.717 92.584 876.223 92.7707 876.629 93.016L875.797 94.792C875.381 94.5467 874.959 94.3813 874.533 94.296C874.117 94.2 873.711 94.152 873.317 94.152C872.762 94.152 872.357 94.2267 872.101 94.376C871.845 94.5253 871.717 94.7173 871.717 94.952C871.717 95.1653 871.807 95.3253 871.989 95.432C872.181 95.5387 872.431 95.624 872.741 95.688C873.05 95.752 873.386 95.8107 873.749 95.864C874.122 95.9067 874.495 95.976 874.869 96.072C875.242 96.168 875.578 96.3067 875.877 96.488C876.186 96.6587 876.437 96.8987 876.629 97.208C876.821 97.5067 876.917 97.9013 876.917 98.392C876.917 98.9253 876.757 99.4 876.437 99.816C876.117 100.221 875.653 100.541 875.045 100.776C874.447 101.011 873.717 101.128 872.853 101.128ZM883.737 101V99.32L883.577 98.952V95.944C883.577 95.4107 883.411 94.9947 883.081 94.696C882.761 94.3973 882.265 94.248 881.593 94.248C881.134 94.248 880.681 94.3227 880.233 94.472C879.795 94.6107 879.422 94.8027 879.113 95.048L878.217 93.304C878.686 92.9733 879.251 92.7173 879.913 92.536C880.574 92.3547 881.246 92.264 881.929 92.264C883.241 92.264 884.259 92.5733 884.985 93.192C885.71 93.8107 886.073 94.776 886.073 96.088V101H883.737ZM881.113 101.128C880.441 101.128 879.865 101.016 879.385 100.792C878.905 100.557 878.537 100.243 878.281 99.848C878.025 99.4533 877.897 99.0107 877.897 98.52C877.897 98.008 878.019 97.56 878.265 97.176C878.521 96.792 878.921 96.4933 879.465 96.28C880.009 96.056 880.718 95.944 881.593 95.944H883.881V97.4H881.865C881.278 97.4 880.873 97.496 880.649 97.688C880.435 97.88 880.329 98.12 880.329 98.408C880.329 98.728 880.451 98.984 880.697 99.176C880.953 99.3573 881.299 99.448 881.737 99.448C882.153 99.448 882.526 99.352 882.857 99.16C883.187 98.9573 883.427 98.664 883.577 98.28L883.961 99.432C883.779 99.9867 883.449 100.408 882.969 100.696C882.489 100.984 881.87 101.128 881.113 101.128ZM891.852 101.128C890.838 101.128 890.049 100.872 889.484 100.36C888.918 99.8373 888.636 99.064 888.636 98.04V90.488H891.132V98.008C891.132 98.3707 891.228 98.6533 891.42 98.856C891.612 99.048 891.873 99.144 892.204 99.144C892.598 99.144 892.934 99.0373 893.212 98.824L893.884 100.584C893.628 100.765 893.318 100.904 892.956 101C892.604 101.085 892.236 101.128 891.852 101.128ZM887.308 94.504V92.584H893.276V94.504H887.308ZM895.285 101V92.392H897.781V101H895.285ZM896.533 91.192C896.074 91.192 895.701 91.0587 895.413 90.792C895.125 90.5253 894.981 90.1947 894.981 89.8C894.981 89.4053 895.125 89.0747 895.413 88.808C895.701 88.5413 896.074 88.408 896.533 88.408C896.991 88.408 897.365 88.536 897.653 88.792C897.941 89.0373 898.085 89.3573 898.085 89.752C898.085 90.168 897.941 90.5147 897.653 90.792C897.375 91.0587 897.002 91.192 896.533 91.192ZM904.193 101.128C903.276 101.128 902.46 100.936 901.745 100.552C901.041 100.168 900.481 99.6453 900.065 98.984C899.66 98.312 899.457 97.5493 899.457 96.696C899.457 95.832 899.66 95.0693 900.065 94.408C900.481 93.736 901.041 93.2133 901.745 92.84C902.46 92.456 903.276 92.264 904.193 92.264C905.1 92.264 905.911 92.456 906.625 92.84C907.34 93.2133 907.9 93.7307 908.305 94.392C908.711 95.0533 908.913 95.8213 908.913 96.696C908.913 97.5493 908.711 98.312 908.305 98.984C907.9 99.6453 907.34 100.168 906.625 100.552C905.911 100.936 905.1 101.128 904.193 101.128ZM904.193 99.08C904.609 99.08 904.983 98.984 905.313 98.792C905.644 98.6 905.905 98.328 906.097 97.976C906.289 97.6133 906.385 97.1867 906.385 96.696C906.385 96.1947 906.289 95.768 906.097 95.416C905.905 95.064 905.644 94.792 905.313 94.6C904.983 94.408 904.609 94.312 904.193 94.312C903.777 94.312 903.404 94.408 903.073 94.6C902.743 94.792 902.476 95.064 902.273 95.416C902.081 95.768 901.985 96.1947 901.985 96.696C901.985 97.1867 902.081 97.6133 902.273 97.976C902.476 98.328 902.743 98.6 903.073 98.792C903.404 98.984 903.777 99.08 904.193 99.08ZM915.814 92.264C916.496 92.264 917.104 92.4027 917.638 92.68C918.182 92.9467 918.608 93.3627 918.918 93.928C919.227 94.4827 919.382 95.1973 919.382 96.072V101H916.886V96.456C916.886 95.7627 916.731 95.2507 916.422 94.92C916.123 94.5893 915.696 94.424 915.142 94.424C914.747 94.424 914.39 94.5093 914.07 94.68C913.76 94.84 913.515 95.0907 913.334 95.432C913.163 95.7733 913.078 96.2107 913.078 96.744V101H910.582V92.392H912.966V94.776L912.518 94.056C912.827 93.48 913.27 93.0373 913.846 92.728C914.422 92.4187 915.078 92.264 915.814 92.264ZM924.54 101.128C923.804 101.128 923.095 101.043 922.412 100.872C921.74 100.691 921.207 100.467 920.812 100.2L921.644 98.408C922.039 98.6533 922.503 98.856 923.036 99.016C923.58 99.1653 924.114 99.24 924.636 99.24C925.212 99.24 925.618 99.1707 925.852 99.032C926.098 98.8933 926.22 98.7013 926.22 98.456C926.22 98.2533 926.124 98.104 925.932 98.008C925.751 97.9013 925.506 97.8213 925.196 97.768C924.887 97.7147 924.546 97.6613 924.172 97.608C923.81 97.5547 923.442 97.4853 923.068 97.4C922.695 97.304 922.354 97.1653 922.044 96.984C921.735 96.8027 921.484 96.5573 921.292 96.248C921.111 95.9387 921.02 95.5387 921.02 95.048C921.02 94.504 921.175 94.024 921.484 93.608C921.804 93.192 922.263 92.8667 922.86 92.632C923.458 92.3867 924.172 92.264 925.004 92.264C925.591 92.264 926.188 92.328 926.796 92.456C927.404 92.584 927.911 92.7707 928.316 93.016L927.484 94.792C927.068 94.5467 926.647 94.3813 926.22 94.296C925.804 94.2 925.399 94.152 925.004 94.152C924.45 94.152 924.044 94.2267 923.788 94.376C923.532 94.5253 923.404 94.7173 923.404 94.952C923.404 95.1653 923.495 95.3253 923.676 95.432C923.868 95.5387 924.119 95.624 924.428 95.688C924.738 95.752 925.074 95.8107 925.436 95.864C925.81 95.9067 926.183 95.976 926.556 96.072C926.93 96.168 927.266 96.3067 927.564 96.488C927.874 96.6587 928.124 96.8987 928.316 97.208C928.508 97.5067 928.604 97.9013 928.604 98.392C928.604 98.9253 928.444 99.4 928.124 99.816C927.804 100.221 927.34 100.541 926.732 100.776C926.135 101.011 925.404 101.128 924.54 101.128ZM929.712 103.464L930.768 99.624L931.12 101.064C930.662 101.064 930.283 100.931 929.984 100.664C929.696 100.397 929.552 100.029 929.552 99.56C929.552 99.0907 929.702 98.7173 930 98.44C930.299 98.1627 930.667 98.024 931.104 98.024C931.552 98.024 931.92 98.168 932.208 98.456C932.496 98.7333 932.64 99.1013 932.64 99.56C932.64 99.6987 932.63 99.8373 932.608 99.976C932.587 100.104 932.544 100.264 932.48 100.456C932.427 100.637 932.336 100.872 932.208 101.16L931.296 103.464H929.712ZM939.039 101V89.8H943.887C944.89 89.8 945.754 89.9653 946.479 90.296C947.204 90.616 947.764 91.08 948.159 91.688C948.554 92.296 948.751 93.0213 948.751 93.864C948.751 94.696 948.554 95.416 948.159 96.024C947.764 96.632 947.204 97.1013 946.479 97.432C945.754 97.752 944.89 97.912 943.887 97.912H940.479L941.631 96.744V101H939.039ZM941.631 97.032L940.479 95.8H943.743C944.543 95.8 945.14 95.6293 945.535 95.288C945.93 94.9467 946.127 94.472 946.127 93.864C946.127 93.2453 945.93 92.7653 945.535 92.424C945.14 92.0827 944.543 91.912 943.743 91.912H940.479L941.631 90.68V97.032ZM950.41 101V92.392H952.794V94.824L952.458 94.12C952.714 93.512 953.124 93.0533 953.69 92.744C954.255 92.424 954.943 92.264 955.754 92.264V94.568C955.647 94.5573 955.551 94.552 955.466 94.552C955.38 94.5413 955.29 94.536 955.194 94.536C954.511 94.536 953.956 94.7333 953.53 95.128C953.114 95.512 952.906 96.1147 952.906 96.936V101H950.41ZM961.271 101.128C960.354 101.128 959.538 100.936 958.823 100.552C958.119 100.168 957.559 99.6453 957.143 98.984C956.738 98.312 956.535 97.5493 956.535 96.696C956.535 95.832 956.738 95.0693 957.143 94.408C957.559 93.736 958.119 93.2133 958.823 92.84C959.538 92.456 960.354 92.264 961.271 92.264C962.178 92.264 962.989 92.456 963.703 92.84C964.418 93.2133 964.978 93.7307 965.383 94.392C965.789 95.0533 965.991 95.8213 965.991 96.696C965.991 97.5493 965.789 98.312 965.383 98.984C964.978 99.6453 964.418 100.168 963.703 100.552C962.989 100.936 962.178 101.128 961.271 101.128ZM961.271 99.08C961.687 99.08 962.061 98.984 962.391 98.792C962.722 98.6 962.983 98.328 963.175 97.976C963.367 97.6133 963.463 97.1867 963.463 96.696C963.463 96.1947 963.367 95.768 963.175 95.416C962.983 95.064 962.722 94.792 962.391 94.6C962.061 94.408 961.687 94.312 961.271 94.312C960.855 94.312 960.482 94.408 960.151 94.6C959.821 94.792 959.554 95.064 959.351 95.416C959.159 95.768 959.063 96.1947 959.063 96.696C959.063 97.1867 959.159 97.6133 959.351 97.976C959.554 98.328 959.821 98.6 960.151 98.792C960.482 98.984 960.855 99.08 961.271 99.08ZM978.684 92.264C979.366 92.264 979.969 92.4027 980.492 92.68C981.025 92.9467 981.441 93.3627 981.74 93.928C982.049 94.4827 982.204 95.1973 982.204 96.072V101H979.708V96.456C979.708 95.7627 979.564 95.2507 979.276 94.92C978.988 94.5893 978.582 94.424 978.06 94.424C977.697 94.424 977.372 94.5093 977.084 94.68C976.796 94.84 976.572 95.0853 976.412 95.416C976.252 95.7467 976.172 96.168 976.172 96.68V101H973.676V96.456C973.676 95.7627 973.532 95.2507 973.244 94.92C972.966 94.5893 972.566 94.424 972.044 94.424C971.681 94.424 971.356 94.5093 971.068 94.68C970.78 94.84 970.556 95.0853 970.396 95.416C970.236 95.7467 970.156 96.168 970.156 96.68V101H967.66V92.392H970.044V94.744L969.596 94.056C969.894 93.4693 970.316 93.0267 970.86 92.728C971.414 92.4187 972.044 92.264 972.748 92.264C973.537 92.264 974.225 92.4667 974.812 92.872C975.409 93.2667 975.804 93.8747 975.996 94.696L975.116 94.456C975.404 93.784 975.862 93.2507 976.492 92.856C977.132 92.4613 977.862 92.264 978.684 92.264ZM989.529 101.128C988.804 101.128 988.169 100.968 987.625 100.648C987.081 100.328 986.654 99.8427 986.345 99.192C986.046 98.5307 985.897 97.6987 985.897 96.696C985.897 95.6827 986.041 94.8507 986.329 94.2C986.617 93.5493 987.033 93.064 987.577 92.744C988.121 92.424 988.772 92.264 989.529 92.264C990.34 92.264 991.065 92.4507 991.705 92.824C992.356 93.1867 992.868 93.6987 993.241 94.36C993.625 95.0213 993.817 95.8 993.817 96.696C993.817 97.6027 993.625 98.3867 993.241 99.048C992.868 99.7093 992.356 100.221 991.705 100.584C991.065 100.947 990.34 101.128 989.529 101.128ZM984.441 104.104V92.392H986.825V94.152L986.777 96.712L986.937 99.256V104.104H984.441ZM989.097 99.08C989.513 99.08 989.881 98.984 990.201 98.792C990.532 98.6 990.793 98.328 990.985 97.976C991.188 97.6133 991.289 97.1867 991.289 96.696C991.289 96.1947 991.188 95.768 990.985 95.416C990.793 95.064 990.532 94.792 990.201 94.6C989.881 94.408 989.513 94.312 989.097 94.312C988.681 94.312 988.308 94.408 987.977 94.6C987.646 94.792 987.385 95.064 987.193 95.416C987.001 95.768 986.905 96.1947 986.905 96.696C986.905 97.1867 987.001 97.6133 987.193 97.976C987.385 98.328 987.646 98.6 987.977 98.792C988.308 98.984 988.681 99.08 989.097 99.08ZM999.008 101.128C997.995 101.128 997.205 100.872 996.64 100.36C996.075 99.8373 995.792 99.064 995.792 98.04V90.488H998.288V98.008C998.288 98.3707 998.384 98.6533 998.576 98.856C998.768 99.048 999.029 99.144 999.36 99.144C999.755 99.144 1000.09 99.0373 1000.37 98.824L1001.04 100.584C1000.78 100.765 1000.47 100.904 1000.11 101C999.76 101.085 999.392 101.128 999.008 101.128ZM994.464 94.504V92.584H1000.43V94.504H994.464ZM1005.34 101.128C1004.6 101.128 1003.89 101.043 1003.21 100.872C1002.54 100.691 1002 100.467 1001.61 100.2L1002.44 98.408C1002.84 98.6533 1003.3 98.856 1003.83 99.016C1004.38 99.1653 1004.91 99.24 1005.43 99.24C1006.01 99.24 1006.41 99.1707 1006.65 99.032C1006.89 98.8933 1007.02 98.7013 1007.02 98.456C1007.02 98.2533 1006.92 98.104 1006.73 98.008C1006.55 97.9013 1006.3 97.8213 1005.99 97.768C1005.68 97.7147 1005.34 97.6613 1004.97 97.608C1004.61 97.5547 1004.24 97.4853 1003.87 97.4C1003.49 97.304 1003.15 97.1653 1002.84 96.984C1002.53 96.8027 1002.28 96.5573 1002.09 96.248C1001.91 95.9387 1001.82 95.5387 1001.82 95.048C1001.82 94.504 1001.97 94.024 1002.28 93.608C1002.6 93.192 1003.06 92.8667 1003.66 92.632C1004.25 92.3867 1004.97 92.264 1005.8 92.264C1006.39 92.264 1006.99 92.328 1007.59 92.456C1008.2 92.584 1008.71 92.7707 1009.11 93.016L1008.28 94.792C1007.87 94.5467 1007.44 94.3813 1007.02 94.296C1006.6 94.2 1006.2 94.152 1005.8 94.152C1005.25 94.152 1004.84 94.2267 1004.59 94.376C1004.33 94.5253 1004.2 94.7173 1004.2 94.952C1004.2 95.1653 1004.29 95.3253 1004.47 95.432C1004.67 95.5387 1004.92 95.624 1005.23 95.688C1005.53 95.752 1005.87 95.8107 1006.23 95.864C1006.61 95.9067 1006.98 95.976 1007.35 96.072C1007.73 96.168 1008.06 96.3067 1008.36 96.488C1008.67 96.6587 1008.92 96.8987 1009.11 97.208C1009.31 97.5067 1009.4 97.9013 1009.4 98.392C1009.4 98.9253 1009.24 99.4 1008.92 99.816C1008.6 100.221 1008.14 100.541 1007.53 100.776C1006.93 101.011 1006.2 101.128 1005.34 101.128ZM1019.17 101.192C1018.35 101.192 1017.62 101.059 1016.98 100.792C1016.34 100.525 1015.83 100.163 1015.46 99.704C1015.08 99.2453 1014.9 98.7173 1014.9 98.12C1014.9 97.5653 1015.02 97.0693 1015.26 96.632C1015.51 96.184 1015.9 95.768 1016.43 95.384C1016.97 94.9893 1017.64 94.6053 1018.46 94.232C1019.06 93.9547 1019.53 93.7093 1019.87 93.496C1020.21 93.2827 1020.45 93.08 1020.59 92.888C1020.73 92.6853 1020.8 92.4827 1020.8 92.28C1020.8 92.0027 1020.7 91.7787 1020.51 91.608C1020.33 91.4373 1020.06 91.352 1019.7 91.352C1019.31 91.352 1019.01 91.448 1018.8 91.64C1018.59 91.832 1018.48 92.0773 1018.48 92.376C1018.48 92.536 1018.51 92.696 1018.58 92.856C1018.64 93.0053 1018.76 93.1813 1018.94 93.384C1019.13 93.576 1019.38 93.8267 1019.71 94.136L1025.62 99.608L1024.26 101.192L1017.74 95.144C1017.37 94.8027 1017.07 94.4827 1016.85 94.184C1016.62 93.8853 1016.46 93.592 1016.35 93.304C1016.26 93.016 1016.21 92.7173 1016.21 92.408C1016.21 91.864 1016.35 91.384 1016.64 90.968C1016.93 90.552 1017.33 90.232 1017.86 90.008C1018.38 89.7733 1018.99 89.656 1019.7 89.656C1020.35 89.656 1020.91 89.7627 1021.38 89.976C1021.86 90.1787 1022.23 90.472 1022.5 90.856C1022.77 91.24 1022.91 91.6987 1022.91 92.232C1022.91 92.7013 1022.79 93.1333 1022.56 93.528C1022.33 93.912 1021.96 94.2747 1021.46 94.616C1020.97 94.9573 1020.32 95.304 1019.52 95.656C1018.98 95.9013 1018.54 96.1413 1018.22 96.376C1017.91 96.6 1017.69 96.8293 1017.55 97.064C1017.41 97.2987 1017.34 97.56 1017.34 97.848C1017.34 98.1147 1017.42 98.3547 1017.58 98.568C1017.75 98.7813 1017.99 98.9467 1018.29 99.064C1018.59 99.1813 1018.94 99.24 1019.34 99.24C1019.99 99.24 1020.59 99.0907 1021.14 98.792C1021.68 98.4827 1022.14 98.0293 1022.51 97.432C1022.9 96.824 1023.17 96.088 1023.33 95.224L1025.33 95.848C1025.1 96.936 1024.7 97.88 1024.13 98.68C1023.55 99.48 1022.84 100.099 1022 100.536C1021.16 100.973 1020.21 101.192 1019.17 101.192ZM1034.22 94.84H1039.6V96.92H1034.22V94.84ZM1034.41 101H1031.82V89.8H1040.28V91.88H1034.41V101ZM1041.86 101V92.392H1044.36V101H1041.86ZM1043.11 91.192C1042.65 91.192 1042.28 91.0587 1041.99 90.792C1041.7 90.5253 1041.56 90.1947 1041.56 89.8C1041.56 89.4053 1041.7 89.0747 1041.99 88.808C1042.28 88.5413 1042.65 88.408 1043.11 88.408C1043.57 88.408 1043.94 88.536 1044.23 88.792C1044.52 89.0373 1044.66 89.3573 1044.66 89.752C1044.66 90.168 1044.52 90.5147 1044.23 90.792C1043.95 91.0587 1043.58 91.192 1043.11 91.192ZM1046.68 101V89.128H1049.17V101H1046.68ZM1055.76 101.128C1054.78 101.128 1053.91 100.936 1053.17 100.552C1052.43 100.168 1051.86 99.6453 1051.46 98.984C1051.05 98.312 1050.85 97.5493 1050.85 96.696C1050.85 95.832 1051.05 95.0693 1051.44 94.408C1051.85 93.736 1052.39 93.2133 1053.09 92.84C1053.78 92.456 1054.57 92.264 1055.44 92.264C1056.28 92.264 1057.04 92.4453 1057.71 92.808C1058.39 93.16 1058.93 93.672 1059.33 94.344C1059.72 95.0053 1059.92 95.8 1059.92 96.728C1059.92 96.824 1059.91 96.936 1059.9 97.064C1059.89 97.1813 1059.88 97.2933 1059.87 97.4H1052.88V95.944H1058.56L1057.6 96.376C1057.6 95.928 1057.51 95.5387 1057.33 95.208C1057.15 94.8773 1056.9 94.6213 1056.58 94.44C1056.26 94.248 1055.88 94.152 1055.46 94.152C1055.03 94.152 1054.65 94.248 1054.32 94.44C1054 94.6213 1053.75 94.8827 1053.57 95.224C1053.39 95.5547 1053.3 95.9493 1053.3 96.408V96.792C1053.3 97.2613 1053.4 97.6773 1053.6 98.04C1053.81 98.392 1054.11 98.664 1054.48 98.856C1054.86 99.0373 1055.31 99.128 1055.82 99.128C1056.28 99.128 1056.68 99.0587 1057.02 98.92C1057.38 98.7813 1057.7 98.5733 1057.98 98.296L1059.31 99.736C1058.92 100.184 1058.42 100.531 1057.82 100.776C1057.23 101.011 1056.54 101.128 1055.76 101.128ZM1064.48 101.128C1063.74 101.128 1063.03 101.043 1062.35 100.872C1061.68 100.691 1061.14 100.467 1060.75 100.2L1061.58 98.408C1061.98 98.6533 1062.44 98.856 1062.97 99.016C1063.52 99.1653 1064.05 99.24 1064.57 99.24C1065.15 99.24 1065.56 99.1707 1065.79 99.032C1066.04 98.8933 1066.16 98.7013 1066.16 98.456C1066.16 98.2533 1066.06 98.104 1065.87 98.008C1065.69 97.9013 1065.44 97.8213 1065.13 97.768C1064.82 97.7147 1064.48 97.6613 1064.11 97.608C1063.75 97.5547 1063.38 97.4853 1063.01 97.4C1062.63 97.304 1062.29 97.1653 1061.98 96.984C1061.67 96.8027 1061.42 96.5573 1061.23 96.248C1061.05 95.9387 1060.96 95.5387 1060.96 95.048C1060.96 94.504 1061.11 94.024 1061.42 93.608C1061.74 93.192 1062.2 92.8667 1062.8 92.632C1063.4 92.3867 1064.11 92.264 1064.94 92.264C1065.53 92.264 1066.13 92.328 1066.73 92.456C1067.34 92.584 1067.85 92.7707 1068.25 93.016L1067.42 94.792C1067.01 94.5467 1066.58 94.3813 1066.16 94.296C1065.74 94.2 1065.34 94.152 1064.94 94.152C1064.39 94.152 1063.98 94.2267 1063.73 94.376C1063.47 94.5253 1063.34 94.7173 1063.34 94.952C1063.34 95.1653 1063.43 95.3253 1063.61 95.432C1063.81 95.5387 1064.06 95.624 1064.37 95.688C1064.68 95.752 1065.01 95.8107 1065.37 95.864C1065.75 95.9067 1066.12 95.976 1066.49 96.072C1066.87 96.168 1067.2 96.3067 1067.5 96.488C1067.81 96.6587 1068.06 96.8987 1068.25 97.208C1068.45 97.5067 1068.54 97.9013 1068.54 98.392C1068.54 98.9253 1068.38 99.4 1068.06 99.816C1067.74 100.221 1067.28 100.541 1066.67 100.776C1066.07 101.011 1065.34 101.128 1064.48 101.128ZM1078.47 101.192C1077.57 101.192 1076.71 101.075 1075.89 100.84C1075.07 100.595 1074.41 100.28 1073.91 99.896L1074.79 97.944C1075.27 98.2853 1075.83 98.568 1076.48 98.792C1077.15 99.0053 1077.81 99.112 1078.48 99.112C1079 99.112 1079.41 99.064 1079.72 98.968C1080.04 98.8613 1080.27 98.7173 1080.42 98.536C1080.57 98.3547 1080.64 98.1467 1080.64 97.912C1080.64 97.6133 1080.53 97.3787 1080.29 97.208C1080.06 97.0267 1079.75 96.8827 1079.36 96.776C1078.98 96.6587 1078.55 96.552 1078.08 96.456C1077.63 96.3493 1077.16 96.2213 1076.69 96.072C1076.23 95.9227 1075.81 95.7307 1075.43 95.496C1075.04 95.2613 1074.73 94.952 1074.48 94.568C1074.25 94.184 1074.13 93.6933 1074.13 93.096C1074.13 92.456 1074.3 91.8747 1074.64 91.352C1075 90.8187 1075.52 90.3973 1076.21 90.088C1076.92 89.768 1077.8 89.608 1078.85 89.608C1079.56 89.608 1080.25 89.6933 1080.93 89.864C1081.62 90.024 1082.22 90.2693 1082.74 90.6L1081.94 92.568C1081.42 92.2693 1080.9 92.0507 1080.37 91.912C1079.85 91.7627 1079.34 91.688 1078.84 91.688C1078.34 91.688 1077.92 91.7467 1077.6 91.864C1077.28 91.9813 1077.06 92.136 1076.92 92.328C1076.78 92.5093 1076.71 92.7227 1076.71 92.968C1076.71 93.256 1076.83 93.4907 1077.06 93.672C1077.3 93.8427 1077.6 93.9813 1077.99 94.088C1078.37 94.1947 1078.79 94.3013 1079.25 94.408C1079.72 94.5147 1080.19 94.6373 1080.64 94.776C1081.11 94.9147 1081.54 95.1013 1081.92 95.336C1082.31 95.5707 1082.62 95.88 1082.85 96.264C1083.1 96.648 1083.22 97.1333 1083.22 97.72C1083.22 98.3493 1083.04 98.9253 1082.69 99.448C1082.34 99.9707 1081.81 100.392 1081.11 100.712C1080.42 101.032 1079.54 101.192 1078.47 101.192ZM1088.34 101.128C1087.32 101.128 1086.53 100.872 1085.97 100.36C1085.4 99.8373 1085.12 99.064 1085.12 98.04V90.488H1087.62V98.008C1087.62 98.3707 1087.71 98.6533 1087.9 98.856C1088.1 99.048 1088.36 99.144 1088.69 99.144C1089.08 99.144 1089.42 99.0373 1089.7 98.824L1090.37 100.584C1090.11 100.765 1089.8 100.904 1089.44 101C1089.09 101.085 1088.72 101.128 1088.34 101.128ZM1083.79 94.504V92.584H1089.76V94.504H1083.79ZM1095.6 101.128C1094.68 101.128 1093.87 100.936 1093.15 100.552C1092.45 100.168 1091.89 99.6453 1091.47 98.984C1091.07 98.312 1090.86 97.5493 1090.86 96.696C1090.86 95.832 1091.07 95.0693 1091.47 94.408C1091.89 93.736 1092.45 93.2133 1093.15 92.84C1093.87 92.456 1094.68 92.264 1095.6 92.264C1096.51 92.264 1097.32 92.456 1098.03 92.84C1098.75 93.2133 1099.31 93.7307 1099.71 94.392C1100.12 95.0533 1100.32 95.8213 1100.32 96.696C1100.32 97.5493 1100.12 98.312 1099.71 98.984C1099.31 99.6453 1098.75 100.168 1098.03 100.552C1097.32 100.936 1096.51 101.128 1095.6 101.128ZM1095.6 99.08C1096.02 99.08 1096.39 98.984 1096.72 98.792C1097.05 98.6 1097.31 98.328 1097.5 97.976C1097.7 97.6133 1097.79 97.1867 1097.79 96.696C1097.79 96.1947 1097.7 95.768 1097.5 95.416C1097.31 95.064 1097.05 94.792 1096.72 94.6C1096.39 94.408 1096.02 94.312 1095.6 94.312C1095.18 94.312 1094.81 94.408 1094.48 94.6C1094.15 94.792 1093.88 95.064 1093.68 95.416C1093.49 95.768 1093.39 96.1947 1093.39 96.696C1093.39 97.1867 1093.49 97.6133 1093.68 97.976C1093.88 98.328 1094.15 98.6 1094.48 98.792C1094.81 98.984 1095.18 99.08 1095.6 99.08ZM1101.99 101V92.392H1104.37V94.824L1104.04 94.12C1104.29 93.512 1104.7 93.0533 1105.27 92.744C1105.83 92.424 1106.52 92.264 1107.33 92.264V94.568C1107.23 94.5573 1107.13 94.552 1107.04 94.552C1106.96 94.5413 1106.87 94.536 1106.77 94.536C1106.09 94.536 1105.53 94.7333 1105.11 95.128C1104.69 95.512 1104.48 96.1147 1104.48 96.936V101H1101.99ZM1113.53 101V99.32L1113.37 98.952V95.944C1113.37 95.4107 1113.21 94.9947 1112.88 94.696C1112.56 94.3973 1112.06 94.248 1111.39 94.248C1110.93 94.248 1110.48 94.3227 1110.03 94.472C1109.59 94.6107 1109.22 94.8027 1108.91 95.048L1108.01 93.304C1108.48 92.9733 1109.05 92.7173 1109.71 92.536C1110.37 92.3547 1111.04 92.264 1111.73 92.264C1113.04 92.264 1114.06 92.5733 1114.78 93.192C1115.51 93.8107 1115.87 94.776 1115.87 96.088V101H1113.53ZM1110.91 101.128C1110.24 101.128 1109.66 101.016 1109.18 100.792C1108.7 100.557 1108.33 100.243 1108.08 99.848C1107.82 99.4533 1107.69 99.0107 1107.69 98.52C1107.69 98.008 1107.82 97.56 1108.06 97.176C1108.32 96.792 1108.72 96.4933 1109.26 96.28C1109.81 96.056 1110.51 95.944 1111.39 95.944H1113.68V97.4H1111.66C1111.07 97.4 1110.67 97.496 1110.45 97.688C1110.23 97.88 1110.13 98.12 1110.13 98.408C1110.13 98.728 1110.25 98.984 1110.49 99.176C1110.75 99.3573 1111.1 99.448 1111.53 99.448C1111.95 99.448 1112.32 99.352 1112.65 99.16C1112.98 98.9573 1113.22 98.664 1113.37 98.28L1113.76 99.432C1113.58 99.9867 1113.25 100.408 1112.77 100.696C1112.29 100.984 1111.67 101.128 1110.91 101.128ZM1122.24 104.232C1121.43 104.232 1120.64 104.131 1119.89 103.928C1119.14 103.736 1118.52 103.443 1118.02 103.048L1119.01 101.256C1119.37 101.555 1119.83 101.789 1120.38 101.96C1120.95 102.141 1121.5 102.232 1122.05 102.232C1122.93 102.232 1123.57 102.035 1123.97 101.64C1124.37 101.245 1124.58 100.659 1124.58 99.88V98.584L1124.74 96.424L1124.7 94.248V92.392H1127.07V99.56C1127.07 101.16 1126.66 102.339 1125.82 103.096C1124.99 103.853 1123.8 104.232 1122.24 104.232ZM1121.86 100.584C1121.06 100.584 1120.33 100.413 1119.68 100.072C1119.04 99.72 1118.52 99.2347 1118.13 98.616C1117.74 97.9867 1117.55 97.256 1117.55 96.424C1117.55 95.5813 1117.74 94.8507 1118.13 94.232C1118.52 93.6027 1119.04 93.1173 1119.68 92.776C1120.33 92.4347 1121.06 92.264 1121.86 92.264C1122.58 92.264 1123.22 92.4133 1123.78 92.712C1124.33 93 1124.76 93.4533 1125.07 94.072C1125.38 94.68 1125.54 95.464 1125.54 96.424C1125.54 97.3733 1125.38 98.1573 1125.07 98.776C1124.76 99.384 1124.33 99.8373 1123.78 100.136C1123.22 100.435 1122.58 100.584 1121.86 100.584ZM1122.35 98.536C1122.79 98.536 1123.18 98.4507 1123.52 98.28C1123.86 98.0987 1124.13 97.848 1124.32 97.528C1124.51 97.208 1124.61 96.84 1124.61 96.424C1124.61 95.9973 1124.51 95.6293 1124.32 95.32C1124.13 95 1123.86 94.7547 1123.52 94.584C1123.18 94.4027 1122.79 94.312 1122.35 94.312C1121.91 94.312 1121.52 94.4027 1121.18 94.584C1120.84 94.7547 1120.57 95 1120.37 95.32C1120.18 95.6293 1120.08 95.9973 1120.08 96.424C1120.08 96.84 1120.18 97.208 1120.37 97.528C1120.57 97.848 1120.84 98.0987 1121.18 98.28C1121.52 98.4507 1121.91 98.536 1122.35 98.536ZM1133.67 101.128C1132.68 101.128 1131.82 100.936 1131.07 100.552C1130.34 100.168 1129.77 99.6453 1129.36 98.984C1128.96 98.312 1128.75 97.5493 1128.75 96.696C1128.75 95.832 1128.95 95.0693 1129.35 94.408C1129.75 93.736 1130.3 93.2133 1130.99 92.84C1131.69 92.456 1132.47 92.264 1133.35 92.264C1134.19 92.264 1134.95 92.4453 1135.62 92.808C1136.3 93.16 1136.84 93.672 1137.23 94.344C1137.63 95.0053 1137.83 95.8 1137.83 96.728C1137.83 96.824 1137.82 96.936 1137.81 97.064C1137.8 97.1813 1137.79 97.2933 1137.78 97.4H1130.79V95.944H1136.47L1135.51 96.376C1135.51 95.928 1135.42 95.5387 1135.23 95.208C1135.05 94.8773 1134.8 94.6213 1134.48 94.44C1134.16 94.248 1133.79 94.152 1133.36 94.152C1132.94 94.152 1132.56 94.248 1132.23 94.44C1131.91 94.6213 1131.66 94.8827 1131.47 95.224C1131.29 95.5547 1131.2 95.9493 1131.2 96.408V96.792C1131.2 97.2613 1131.3 97.6773 1131.51 98.04C1131.72 98.392 1132.01 98.664 1132.39 98.856C1132.77 99.0373 1133.22 99.128 1133.73 99.128C1134.19 99.128 1134.59 99.0587 1134.93 98.92C1135.28 98.7813 1135.6 98.5733 1135.89 98.296L1137.22 99.736C1136.82 100.184 1136.33 100.531 1135.73 100.776C1135.13 101.011 1134.44 101.128 1133.67 101.128Z" fill="#E4E7EB"/>
<path d="M815.01 139.12C814.354 139.12 813.726 139.028 813.126 138.844C812.526 138.652 812.05 138.408 811.698 138.112L812.238 136.9C812.574 137.164 812.99 137.384 813.486 137.56C813.982 137.736 814.49 137.824 815.01 137.824C815.45 137.824 815.806 137.776 816.078 137.68C816.35 137.584 816.55 137.456 816.678 137.296C816.806 137.128 816.87 136.94 816.87 136.732C816.87 136.476 816.778 136.272 816.594 136.12C816.41 135.96 816.17 135.836 815.874 135.748C815.586 135.652 815.262 135.564 814.902 135.484C814.55 135.404 814.194 135.312 813.834 135.208C813.482 135.096 813.158 134.956 812.862 134.788C812.574 134.612 812.338 134.38 812.154 134.092C811.97 133.804 811.878 133.436 811.878 132.988C811.878 132.532 811.998 132.116 812.238 131.74C812.486 131.356 812.858 131.052 813.354 130.828C813.858 130.596 814.494 130.48 815.262 130.48C815.766 130.48 816.266 130.544 816.762 130.672C817.258 130.8 817.69 130.984 818.058 131.224L817.566 132.436C817.19 132.212 816.802 132.048 816.402 131.944C816.002 131.832 815.618 131.776 815.25 131.776C814.818 131.776 814.466 131.828 814.194 131.932C813.93 132.036 813.734 132.172 813.606 132.34C813.486 132.508 813.426 132.7 813.426 132.916C813.426 133.172 813.514 133.38 813.69 133.54C813.874 133.692 814.11 133.812 814.398 133.9C814.694 133.988 815.022 134.076 815.382 134.164C815.742 134.244 816.098 134.336 816.45 134.44C816.81 134.544 817.134 134.68 817.422 134.848C817.718 135.016 817.954 135.244 818.13 135.532C818.314 135.82 818.406 136.184 818.406 136.624C818.406 137.072 818.282 137.488 818.034 137.872C817.794 138.248 817.422 138.552 816.918 138.784C816.414 139.008 815.778 139.12 815.01 139.12ZM821.935 139.12C821.343 139.12 820.763 139.036 820.195 138.868C819.635 138.692 819.163 138.452 818.779 138.148L819.451 136.936C819.755 137.184 820.123 137.384 820.555 137.536C820.987 137.688 821.439 137.764 821.911 137.764C822.471 137.764 822.907 137.652 823.219 137.428C823.531 137.196 823.687 136.884 823.687 136.492C823.687 136.108 823.543 135.804 823.255 135.58C822.967 135.356 822.503 135.244 821.863 135.244H821.095V134.176L823.495 131.32L823.699 131.908H819.187V130.6H824.911V131.644L822.511 134.5L821.695 134.02H822.163C823.195 134.02 823.967 134.252 824.479 134.716C824.999 135.172 825.259 135.76 825.259 136.48C825.259 136.952 825.139 137.388 824.899 137.788C824.659 138.188 824.291 138.512 823.795 138.76C823.307 139 822.687 139.12 821.935 139.12Z" fill="#E4E7EB"/>
<path d="M800.027 151.348V175.461C800.027 179.624 808.312 183 818.527 183C828.743 183 837.022 179.624 837.022 175.461V151.348" fill="url(#paint2_linear_1237_3362)"/>
<path d="M818.523 156.666C828.75 156.666 837.041 154.279 837.041 151.336C837.041 148.388 828.75 146 818.523 146C808.296 146 800 148.388 800 151.336C800 154.279 808.296 156.666 818.523 156.666Z" fill="#106B6D"/>
<path d="M883.228 139.12C882.572 139.12 881.968 139.016 881.416 138.808C880.872 138.592 880.396 138.292 879.988 137.908C879.58 137.516 879.264 137.056 879.04 136.528C878.816 136 878.704 135.424 878.704 134.8C878.704 134.176 878.816 133.6 879.04 133.072C879.264 132.544 879.58 132.088 879.988 131.704C880.404 131.312 880.888 131.012 881.44 130.804C881.992 130.588 882.596 130.48 883.252 130.48C883.964 130.48 884.604 130.596 885.172 130.828C885.748 131.06 886.232 131.4 886.624 131.848L885.64 132.808C885.312 132.48 884.956 132.24 884.572 132.088C884.196 131.928 883.78 131.848 883.324 131.848C882.884 131.848 882.476 131.92 882.1 132.064C881.724 132.208 881.4 132.412 881.128 132.676C880.856 132.94 880.644 133.252 880.492 133.612C880.348 133.972 880.276 134.368 880.276 134.8C880.276 135.224 880.348 135.616 880.492 135.976C880.644 136.336 880.856 136.652 881.128 136.924C881.4 137.188 881.72 137.392 882.088 137.536C882.456 137.68 882.864 137.752 883.312 137.752C883.728 137.752 884.128 137.688 884.512 137.56C884.904 137.424 885.276 137.2 885.628 136.888L886.516 138.052C886.076 138.404 885.564 138.672 884.98 138.856C884.404 139.032 883.82 139.12 883.228 139.12ZM885.04 137.848V134.704H886.516V138.052L885.04 137.848ZM891.309 139.084C890.653 139.084 890.069 138.944 889.557 138.664C889.045 138.376 888.641 137.984 888.345 137.488C888.049 136.992 887.901 136.428 887.901 135.796C887.901 135.156 888.049 134.592 888.345 134.104C888.641 133.608 889.045 133.22 889.557 132.94C890.069 132.66 890.653 132.52 891.309 132.52C891.973 132.52 892.561 132.66 893.073 132.94C893.593 133.22 893.997 133.604 894.285 134.092C894.581 134.58 894.729 135.148 894.729 135.796C894.729 136.428 894.581 136.992 894.285 137.488C893.997 137.984 893.593 138.376 893.073 138.664C892.561 138.944 891.973 139.084 891.309 139.084ZM891.309 137.8C891.677 137.8 892.005 137.72 892.293 137.56C892.581 137.4 892.805 137.168 892.965 136.864C893.133 136.56 893.217 136.204 893.217 135.796C893.217 135.38 893.133 135.024 892.965 134.728C892.805 134.424 892.581 134.192 892.293 134.032C892.005 133.872 891.681 133.792 891.321 133.792C890.953 133.792 890.625 133.872 890.337 134.032C890.057 134.192 889.833 134.424 889.665 134.728C889.497 135.024 889.413 135.38 889.413 135.796C889.413 136.204 889.497 136.56 889.665 136.864C889.833 137.168 890.057 137.4 890.337 137.56C890.625 137.72 890.949 137.8 891.309 137.8ZM899.044 139.084C898.388 139.084 897.804 138.944 897.292 138.664C896.78 138.376 896.376 137.984 896.08 137.488C895.784 136.992 895.636 136.428 895.636 135.796C895.636 135.156 895.784 134.592 896.08 134.104C896.376 133.608 896.78 133.22 897.292 132.94C897.804 132.66 898.388 132.52 899.044 132.52C899.708 132.52 900.296 132.66 900.808 132.94C901.328 133.22 901.732 133.604 902.02 134.092C902.316 134.58 902.464 135.148 902.464 135.796C902.464 136.428 902.316 136.992 902.02 137.488C901.732 137.984 901.328 138.376 900.808 138.664C900.296 138.944 899.708 139.084 899.044 139.084ZM899.044 137.8C899.412 137.8 899.74 137.72 900.028 137.56C900.316 137.4 900.54 137.168 900.7 136.864C900.868 136.56 900.952 136.204 900.952 135.796C900.952 135.38 900.868 135.024 900.7 134.728C900.54 134.424 900.316 134.192 900.028 134.032C899.74 133.872 899.416 133.792 899.056 133.792C898.688 133.792 898.36 133.872 898.072 134.032C897.792 134.192 897.568 134.424 897.4 134.728C897.232 135.024 897.148 135.38 897.148 135.796C897.148 136.204 897.232 136.56 897.4 136.864C897.568 137.168 897.792 137.4 898.072 137.56C898.36 137.72 898.684 137.8 899.044 137.8ZM906.802 141.412C906.21 141.412 905.63 141.332 905.062 141.172C904.502 141.02 904.042 140.796 903.682 140.5L904.354 139.372C904.634 139.604 904.986 139.788 905.41 139.924C905.842 140.068 906.278 140.14 906.718 140.14C907.422 140.14 907.938 139.976 908.266 139.648C908.594 139.328 908.758 138.844 908.758 138.196V137.056L908.878 135.604L908.83 134.152V132.592H910.258V138.028C910.258 139.188 909.962 140.04 909.37 140.584C908.778 141.136 907.922 141.412 906.802 141.412ZM906.61 138.712C906.002 138.712 905.45 138.584 904.954 138.328C904.466 138.064 904.078 137.7 903.79 137.236C903.51 136.772 903.37 136.228 903.37 135.604C903.37 134.988 903.51 134.448 903.79 133.984C904.078 133.52 904.466 133.16 904.954 132.904C905.45 132.648 906.002 132.52 906.61 132.52C907.154 132.52 907.642 132.628 908.074 132.844C908.506 133.06 908.85 133.396 909.106 133.852C909.37 134.308 909.502 134.892 909.502 135.604C909.502 136.316 909.37 136.904 909.106 137.368C908.85 137.824 908.506 138.164 908.074 138.388C907.642 138.604 907.154 138.712 906.61 138.712ZM906.838 137.44C907.214 137.44 907.55 137.364 907.846 137.212C908.142 137.052 908.37 136.836 908.53 136.564C908.698 136.284 908.782 135.964 908.782 135.604C908.782 135.244 908.698 134.928 908.53 134.656C908.37 134.376 908.142 134.164 907.846 134.02C907.55 133.868 907.214 133.792 906.838 133.792C906.462 133.792 906.122 133.868 905.818 134.02C905.522 134.164 905.29 134.376 905.122 134.656C904.962 134.928 904.882 135.244 904.882 135.604C904.882 135.964 904.962 136.284 905.122 136.564C905.29 136.836 905.522 137.052 905.818 137.212C906.122 137.364 906.462 137.44 906.838 137.44ZM912.23 139V130.096H913.73V139H912.23ZM918.711 139.084C917.999 139.084 917.375 138.944 916.839 138.664C916.311 138.376 915.899 137.984 915.603 137.488C915.315 136.992 915.171 136.428 915.171 135.796C915.171 135.156 915.311 134.592 915.591 134.104C915.879 133.608 916.271 133.22 916.767 132.94C917.271 132.66 917.843 132.52 918.483 132.52C919.107 132.52 919.663 132.656 920.151 132.928C920.639 133.2 921.023 133.584 921.303 134.08C921.583 134.576 921.723 135.16 921.723 135.832C921.723 135.896 921.719 135.968 921.711 136.048C921.711 136.128 921.707 136.204 921.699 136.276H916.359V135.28H920.907L920.319 135.592C920.327 135.224 920.251 134.9 920.091 134.62C919.931 134.34 919.711 134.12 919.431 133.96C919.159 133.8 918.843 133.72 918.483 133.72C918.115 133.72 917.791 133.8 917.511 133.96C917.239 134.12 917.023 134.344 916.863 134.632C916.711 134.912 916.635 135.244 916.635 135.628V135.868C916.635 136.252 916.723 136.592 916.899 136.888C917.075 137.184 917.323 137.412 917.643 137.572C917.963 137.732 918.331 137.812 918.747 137.812C919.107 137.812 919.431 137.756 919.719 137.644C920.007 137.532 920.263 137.356 920.487 137.116L921.291 138.04C921.003 138.376 920.639 138.636 920.199 138.82C919.767 138.996 919.271 139.084 918.711 139.084ZM930.512 139.12C929.872 139.12 929.276 139.016 928.724 138.808C928.18 138.592 927.704 138.292 927.296 137.908C926.896 137.516 926.584 137.056 926.36 136.528C926.136 136 926.024 135.424 926.024 134.8C926.024 134.176 926.136 133.6 926.36 133.072C926.584 132.544 926.9 132.088 927.308 131.704C927.716 131.312 928.192 131.012 928.736 130.804C929.28 130.588 929.876 130.48 930.524 130.48C931.212 130.48 931.84 130.6 932.408 130.84C932.976 131.072 933.456 131.42 933.848 131.884L932.84 132.832C932.536 132.504 932.196 132.26 931.82 132.1C931.444 131.932 931.036 131.848 930.596 131.848C930.156 131.848 929.752 131.92 929.384 132.064C929.024 132.208 928.708 132.412 928.436 132.676C928.172 132.94 927.964 133.252 927.812 133.612C927.668 133.972 927.596 134.368 927.596 134.8C927.596 135.232 927.668 135.628 927.812 135.988C927.964 136.348 928.172 136.66 928.436 136.924C928.708 137.188 929.024 137.392 929.384 137.536C929.752 137.68 930.156 137.752 930.596 137.752C931.036 137.752 931.444 137.672 931.82 137.512C932.196 137.344 932.536 137.092 932.84 136.756L933.848 137.716C933.456 138.172 932.976 138.52 932.408 138.76C931.84 139 931.208 139.12 930.512 139.12ZM935.199 139V130.096H936.699V139H935.199ZM941.548 139.084C940.892 139.084 940.308 138.944 939.796 138.664C939.284 138.376 938.88 137.984 938.584 137.488C938.288 136.992 938.14 136.428 938.14 135.796C938.14 135.156 938.288 134.592 938.584 134.104C938.88 133.608 939.284 133.22 939.796 132.94C940.308 132.66 940.892 132.52 941.548 132.52C942.212 132.52 942.8 132.66 943.312 132.94C943.832 133.22 944.236 133.604 944.524 134.092C944.82 134.58 944.968 135.148 944.968 135.796C944.968 136.428 944.82 136.992 944.524 137.488C944.236 137.984 943.832 138.376 943.312 138.664C942.8 138.944 942.212 139.084 941.548 139.084ZM941.548 137.8C941.916 137.8 942.244 137.72 942.532 137.56C942.82 137.4 943.044 137.168 943.204 136.864C943.372 136.56 943.456 136.204 943.456 135.796C943.456 135.38 943.372 135.024 943.204 134.728C943.044 134.424 942.82 134.192 942.532 134.032C942.244 133.872 941.92 133.792 941.56 133.792C941.192 133.792 940.864 133.872 940.576 134.032C940.296 134.192 940.072 134.424 939.904 134.728C939.736 135.024 939.652 135.38 939.652 135.796C939.652 136.204 939.736 136.56 939.904 136.864C940.072 137.168 940.296 137.4 940.576 137.56C940.864 137.72 941.188 137.8 941.548 137.8ZM949.114 139.084C948.57 139.084 948.09 138.984 947.674 138.784C947.258 138.576 946.934 138.264 946.702 137.848C946.47 137.424 946.354 136.892 946.354 136.252V132.592H947.854V136.048C947.854 136.624 947.982 137.056 948.238 137.344C948.502 137.624 948.874 137.764 949.354 137.764C949.706 137.764 950.01 137.692 950.266 137.548C950.53 137.404 950.734 137.188 950.878 136.9C951.03 136.612 951.106 136.256 951.106 135.832V132.592H952.606V139H951.178V137.272L951.43 137.8C951.214 138.216 950.898 138.536 950.482 138.76C950.066 138.976 949.61 139.084 949.114 139.084ZM957.282 139.084C956.666 139.084 956.11 138.948 955.614 138.676C955.126 138.396 954.742 138.012 954.462 137.524C954.182 137.036 954.042 136.46 954.042 135.796C954.042 135.132 954.182 134.556 954.462 134.068C954.742 133.58 955.126 133.2 955.614 132.928C956.11 132.656 956.666 132.52 957.282 132.52C957.818 132.52 958.298 132.64 958.722 132.88C959.146 133.112 959.482 133.468 959.73 133.948C959.978 134.428 960.102 135.044 960.102 135.796C960.102 136.54 959.982 137.156 959.742 137.644C959.502 138.124 959.17 138.484 958.746 138.724C958.322 138.964 957.834 139.084 957.282 139.084ZM957.462 137.8C957.822 137.8 958.142 137.72 958.422 137.56C958.71 137.4 958.938 137.168 959.106 136.864C959.282 136.56 959.37 136.204 959.37 135.796C959.37 135.38 959.282 135.024 959.106 134.728C958.938 134.424 958.71 134.192 958.422 134.032C958.142 133.872 957.822 133.792 957.462 133.792C957.102 133.792 956.778 133.872 956.49 134.032C956.21 134.192 955.982 134.424 955.806 134.728C955.638 135.024 955.554 135.38 955.554 135.796C955.554 136.204 955.638 136.56 955.806 136.864C955.982 137.168 956.21 137.4 956.49 137.56C956.778 137.72 957.102 137.8 957.462 137.8ZM959.406 139V137.488L959.466 135.784L959.346 134.08V130.096H960.834V139H959.406Z" fill="#E4E7EB"/>
<path d="M901.027 151.348V175.461C901.027 179.624 909.312 183 919.527 183C929.743 183 938.022 179.624 938.022 175.461V151.348" fill="url(#paint3_linear_1237_3362)"/>
<path d="M919.523 156.666C929.75 156.666 938.041 154.279 938.041 151.336C938.041 148.388 929.75 146 919.523 146C909.296 146 901 148.388 901 151.336C901 154.279 909.296 156.666 919.523 156.666Z" fill="#106B6D"/>
<path d="M1003.5 139L1007.28 130.6H1008.81L1012.6 139H1010.97L1007.72 131.428H1008.34L1005.1 139H1003.5ZM1005.24 137.056L1005.66 135.832H1010.19L1010.61 137.056H1005.24ZM1012.99 139V138.052L1016.94 133.276L1017.21 133.792H1013.06V132.592H1018.41V133.54L1014.46 138.316L1014.16 137.8H1018.52V139H1012.99ZM1022.62 139.084C1022.07 139.084 1021.59 138.984 1021.18 138.784C1020.76 138.576 1020.44 138.264 1020.2 137.848C1019.97 137.424 1019.86 136.892 1019.86 136.252V132.592H1021.36V136.048C1021.36 136.624 1021.48 137.056 1021.74 137.344C1022 137.624 1022.38 137.764 1022.86 137.764C1023.21 137.764 1023.51 137.692 1023.77 137.548C1024.03 137.404 1024.24 137.188 1024.38 136.9C1024.53 136.612 1024.61 136.256 1024.61 135.832V132.592H1026.11V139H1024.68V137.272L1024.93 137.8C1024.72 138.216 1024.4 138.536 1023.98 138.76C1023.57 138.976 1023.11 139.084 1022.62 139.084ZM1028.07 139V132.592H1029.5V134.356L1029.33 133.84C1029.52 133.408 1029.82 133.08 1030.23 132.856C1030.65 132.632 1031.16 132.52 1031.78 132.52V133.948C1031.71 133.932 1031.65 133.924 1031.6 133.924C1031.54 133.916 1031.49 133.912 1031.43 133.912C1030.86 133.912 1030.41 134.08 1030.07 134.416C1029.74 134.744 1029.57 135.236 1029.57 135.892V139H1028.07ZM1036 139.084C1035.29 139.084 1034.67 138.944 1034.13 138.664C1033.6 138.376 1033.19 137.984 1032.9 137.488C1032.61 136.992 1032.46 136.428 1032.46 135.796C1032.46 135.156 1032.6 134.592 1032.88 134.104C1033.17 133.608 1033.56 133.22 1034.06 132.94C1034.56 132.66 1035.14 132.52 1035.78 132.52C1036.4 132.52 1036.96 132.656 1037.44 132.928C1037.93 133.2 1038.32 133.584 1038.6 134.08C1038.88 134.576 1039.02 135.16 1039.02 135.832C1039.02 135.896 1039.01 135.968 1039 136.048C1039 136.128 1039 136.204 1038.99 136.276H1033.65V135.28H1038.2L1037.61 135.592C1037.62 135.224 1037.54 134.9 1037.38 134.62C1037.22 134.34 1037 134.12 1036.72 133.96C1036.45 133.8 1036.14 133.72 1035.78 133.72C1035.41 133.72 1035.08 133.8 1034.8 133.96C1034.53 134.12 1034.32 134.344 1034.16 134.632C1034 134.912 1033.93 135.244 1033.93 135.628V135.868C1033.93 136.252 1034.02 136.592 1034.19 136.888C1034.37 137.184 1034.62 137.412 1034.94 137.572C1035.26 137.732 1035.62 137.812 1036.04 137.812C1036.4 137.812 1036.72 137.756 1037.01 137.644C1037.3 137.532 1037.56 137.356 1037.78 137.116L1038.58 138.04C1038.3 138.376 1037.93 138.636 1037.49 138.82C1037.06 138.996 1036.56 139.084 1036 139.084Z" fill="#E4E7EB"/>
<path d="M1003.03 151.348V175.461C1003.03 179.624 1011.31 183 1021.53 183C1031.74 183 1040.02 179.624 1040.02 175.461V151.348" fill="url(#paint4_linear_1237_3362)"/>
<path d="M1021.52 156.666C1031.75 156.666 1040.04 154.279 1040.04 151.336C1040.04 148.388 1031.75 146 1021.52 146C1011.3 146 1003 148.388 1003 151.336C1003 154.279 1011.3 156.666 1021.52 156.666Z" fill="#106B6D"/>
<path d="M1075.11 139V130.6H1076.67V137.68H1081.06V139H1075.11ZM1084.97 139.084C1084.31 139.084 1083.73 138.944 1083.22 138.664C1082.7 138.376 1082.3 137.984 1082 137.488C1081.71 136.992 1081.56 136.428 1081.56 135.796C1081.56 135.156 1081.71 134.592 1082 134.104C1082.3 133.608 1082.7 133.22 1083.22 132.94C1083.73 132.66 1084.31 132.52 1084.97 132.52C1085.63 132.52 1086.22 132.66 1086.73 132.94C1087.25 133.22 1087.66 133.604 1087.94 134.092C1088.24 134.58 1088.39 135.148 1088.39 135.796C1088.39 136.428 1088.24 136.992 1087.94 137.488C1087.66 137.984 1087.25 138.376 1086.73 138.664C1086.22 138.944 1085.63 139.084 1084.97 139.084ZM1084.97 137.8C1085.34 137.8 1085.66 137.72 1085.95 137.56C1086.24 137.4 1086.46 137.168 1086.62 136.864C1086.79 136.56 1086.88 136.204 1086.88 135.796C1086.88 135.38 1086.79 135.024 1086.62 134.728C1086.46 134.424 1086.24 134.192 1085.95 134.032C1085.66 133.872 1085.34 133.792 1084.98 133.792C1084.61 133.792 1084.28 133.872 1084 134.032C1083.72 134.192 1083.49 134.424 1083.32 134.728C1083.16 135.024 1083.07 135.38 1083.07 135.796C1083.07 136.204 1083.16 136.56 1083.32 136.864C1083.49 137.168 1083.72 137.4 1084 137.56C1084.28 137.72 1084.61 137.8 1084.97 137.8ZM1092.76 139.084C1092.09 139.084 1091.49 138.944 1090.96 138.664C1090.44 138.376 1090.03 137.984 1089.74 137.488C1089.44 136.992 1089.29 136.428 1089.29 135.796C1089.29 135.156 1089.44 134.592 1089.74 134.104C1090.03 133.608 1090.44 133.22 1090.96 132.94C1091.49 132.66 1092.09 132.52 1092.76 132.52C1093.39 132.52 1093.93 132.648 1094.41 132.904C1094.89 133.152 1095.25 133.52 1095.5 134.008L1094.35 134.68C1094.15 134.376 1093.92 134.152 1093.64 134.008C1093.37 133.864 1093.07 133.792 1092.75 133.792C1092.38 133.792 1092.05 133.872 1091.75 134.032C1091.46 134.192 1091.23 134.424 1091.06 134.728C1090.89 135.024 1090.81 135.38 1090.81 135.796C1090.81 136.212 1090.89 136.572 1091.06 136.876C1091.23 137.172 1091.46 137.4 1091.75 137.56C1092.05 137.72 1092.38 137.8 1092.75 137.8C1093.07 137.8 1093.37 137.728 1093.64 137.584C1093.92 137.44 1094.15 137.216 1094.35 136.912L1095.5 137.584C1095.25 138.064 1094.89 138.436 1094.41 138.7C1093.93 138.956 1093.39 139.084 1092.76 139.084ZM1100.74 139V137.704L1100.66 137.428V135.16C1100.66 134.72 1100.53 134.38 1100.26 134.14C1100 133.892 1099.6 133.768 1099.06 133.768C1098.7 133.768 1098.35 133.824 1097.99 133.936C1097.65 134.048 1097.36 134.204 1097.12 134.404L1096.53 133.312C1096.87 133.048 1097.28 132.852 1097.75 132.724C1098.23 132.588 1098.73 132.52 1099.24 132.52C1100.17 132.52 1100.89 132.744 1101.39 133.192C1101.9 133.632 1102.16 134.316 1102.16 135.244V139H1100.74ZM1098.73 139.084C1098.25 139.084 1097.83 139.004 1097.47 138.844C1097.11 138.676 1096.83 138.448 1096.63 138.16C1096.43 137.864 1096.34 137.532 1096.34 137.164C1096.34 136.804 1096.42 136.48 1096.59 136.192C1096.77 135.904 1097.05 135.676 1097.44 135.508C1097.83 135.34 1098.35 135.256 1099 135.256H1100.86V136.252H1099.11C1098.6 136.252 1098.25 136.336 1098.08 136.504C1097.9 136.664 1097.81 136.864 1097.81 137.104C1097.81 137.376 1097.92 137.592 1098.14 137.752C1098.35 137.912 1098.65 137.992 1099.04 137.992C1099.41 137.992 1099.73 137.908 1100.02 137.74C1100.32 137.572 1100.53 137.324 1100.66 136.996L1100.91 137.896C1100.77 138.272 1100.51 138.564 1100.13 138.772C1099.76 138.98 1099.29 139.084 1098.73 139.084ZM1104.08 139V130.096H1105.58V139H1104.08ZM1112.44 134.464H1116.63V135.784H1112.44V134.464ZM1112.57 139H1111.01V130.6H1117.14V131.908H1112.57V139ZM1118.51 139V132.592H1120.01V139H1118.51ZM1119.27 131.536C1118.99 131.536 1118.75 131.448 1118.57 131.272C1118.39 131.096 1118.31 130.884 1118.31 130.636C1118.31 130.38 1118.39 130.168 1118.57 130C1118.75 129.824 1118.99 129.736 1119.27 129.736C1119.55 129.736 1119.77 129.82 1119.95 129.988C1120.13 130.148 1120.23 130.352 1120.23 130.6C1120.23 130.864 1120.14 131.088 1119.96 131.272C1119.79 131.448 1119.55 131.536 1119.27 131.536ZM1121.98 139V130.096H1123.48V139H1121.98ZM1128.46 139.084C1127.75 139.084 1127.12 138.944 1126.59 138.664C1126.06 138.376 1125.65 137.984 1125.35 137.488C1125.06 136.992 1124.92 136.428 1124.92 135.796C1124.92 135.156 1125.06 134.592 1125.34 134.104C1125.63 133.608 1126.02 133.22 1126.51 132.94C1127.02 132.66 1127.59 132.52 1128.23 132.52C1128.85 132.52 1129.41 132.656 1129.9 132.928C1130.39 133.2 1130.77 133.584 1131.05 134.08C1131.33 134.576 1131.47 135.16 1131.47 135.832C1131.47 135.896 1131.47 135.968 1131.46 136.048C1131.46 136.128 1131.45 136.204 1131.45 136.276H1126.11V135.28H1130.65L1130.07 135.592C1130.07 135.224 1130 134.9 1129.84 134.62C1129.68 134.34 1129.46 134.12 1129.18 133.96C1128.91 133.8 1128.59 133.72 1128.23 133.72C1127.86 133.72 1127.54 133.8 1127.26 133.96C1126.99 134.12 1126.77 134.344 1126.61 134.632C1126.46 134.912 1126.38 135.244 1126.38 135.628V135.868C1126.38 136.252 1126.47 136.592 1126.65 136.888C1126.82 137.184 1127.07 137.412 1127.39 137.572C1127.71 137.732 1128.08 137.812 1128.49 137.812C1128.85 137.812 1129.18 137.756 1129.47 137.644C1129.75 137.532 1130.01 137.356 1130.23 137.116L1131.04 138.04C1130.75 138.376 1130.39 138.636 1129.95 138.82C1129.51 138.996 1129.02 139.084 1128.46 139.084ZM1138.98 139.12C1138.32 139.12 1137.69 139.028 1137.09 138.844C1136.49 138.652 1136.02 138.408 1135.66 138.112L1136.2 136.9C1136.54 137.164 1136.96 137.384 1137.45 137.56C1137.95 137.736 1138.46 137.824 1138.98 137.824C1139.42 137.824 1139.77 137.776 1140.04 137.68C1140.32 137.584 1140.52 137.456 1140.64 137.296C1140.77 137.128 1140.84 136.94 1140.84 136.732C1140.84 136.476 1140.74 136.272 1140.56 136.12C1140.38 135.96 1140.14 135.836 1139.84 135.748C1139.55 135.652 1139.23 135.564 1138.87 135.484C1138.52 135.404 1138.16 135.312 1137.8 135.208C1137.45 135.096 1137.12 134.956 1136.83 134.788C1136.54 134.612 1136.3 134.38 1136.12 134.092C1135.94 133.804 1135.84 133.436 1135.84 132.988C1135.84 132.532 1135.96 132.116 1136.2 131.74C1136.45 131.356 1136.82 131.052 1137.32 130.828C1137.82 130.596 1138.46 130.48 1139.23 130.48C1139.73 130.48 1140.23 130.544 1140.73 130.672C1141.22 130.8 1141.66 130.984 1142.02 131.224L1141.53 132.436C1141.16 132.212 1140.77 132.048 1140.37 131.944C1139.97 131.832 1139.58 131.776 1139.22 131.776C1138.78 131.776 1138.43 131.828 1138.16 131.932C1137.9 132.036 1137.7 132.172 1137.57 132.34C1137.45 132.508 1137.39 132.7 1137.39 132.916C1137.39 133.172 1137.48 133.38 1137.66 133.54C1137.84 133.692 1138.08 133.812 1138.36 133.9C1138.66 133.988 1138.99 134.076 1139.35 134.164C1139.71 134.244 1140.06 134.336 1140.42 134.44C1140.78 134.544 1141.1 134.68 1141.39 134.848C1141.68 135.016 1141.92 135.244 1142.1 135.532C1142.28 135.82 1142.37 136.184 1142.37 136.624C1142.37 137.072 1142.25 137.488 1142 137.872C1141.76 138.248 1141.39 138.552 1140.88 138.784C1140.38 139.008 1139.74 139.12 1138.98 139.12ZM1146.19 139.084C1145.48 139.084 1144.94 138.904 1144.56 138.544C1144.17 138.176 1143.98 137.636 1143.98 136.924V131.176H1145.48V136.888C1145.48 137.192 1145.56 137.428 1145.71 137.596C1145.87 137.764 1146.09 137.848 1146.37 137.848C1146.7 137.848 1146.98 137.76 1147.21 137.584L1147.63 138.652C1147.45 138.796 1147.24 138.904 1146.98 138.976C1146.72 139.048 1146.46 139.084 1146.19 139.084ZM1142.92 133.84V132.64H1147.2V133.84H1142.92ZM1151.53 139.084C1150.87 139.084 1150.29 138.944 1149.78 138.664C1149.27 138.376 1148.86 137.984 1148.57 137.488C1148.27 136.992 1148.12 136.428 1148.12 135.796C1148.12 135.156 1148.27 134.592 1148.57 134.104C1148.86 133.608 1149.27 133.22 1149.78 132.94C1150.29 132.66 1150.87 132.52 1151.53 132.52C1152.19 132.52 1152.78 132.66 1153.29 132.94C1153.81 133.22 1154.22 133.604 1154.51 134.092C1154.8 134.58 1154.95 135.148 1154.95 135.796C1154.95 136.428 1154.8 136.992 1154.51 137.488C1154.22 137.984 1153.81 138.376 1153.29 138.664C1152.78 138.944 1152.19 139.084 1151.53 139.084ZM1151.53 137.8C1151.9 137.8 1152.23 137.72 1152.51 137.56C1152.8 137.4 1153.03 137.168 1153.19 136.864C1153.35 136.56 1153.44 136.204 1153.44 135.796C1153.44 135.38 1153.35 135.024 1153.19 134.728C1153.03 134.424 1152.8 134.192 1152.51 134.032C1152.23 133.872 1151.9 133.792 1151.54 133.792C1151.17 133.792 1150.85 133.872 1150.56 134.032C1150.28 134.192 1150.05 134.424 1149.89 134.728C1149.72 135.024 1149.63 135.38 1149.63 135.796C1149.63 136.204 1149.72 136.56 1149.89 136.864C1150.05 137.168 1150.28 137.4 1150.56 137.56C1150.85 137.72 1151.17 137.8 1151.53 137.8ZM1156.38 139V132.592H1157.81V134.356L1157.64 133.84C1157.84 133.408 1158.14 133.08 1158.54 132.856C1158.96 132.632 1159.48 132.52 1160.09 132.52V133.948C1160.03 133.932 1159.97 133.924 1159.91 133.924C1159.86 133.916 1159.8 133.912 1159.74 133.912C1159.18 133.912 1158.72 134.08 1158.39 134.416C1158.05 134.744 1157.88 135.236 1157.88 135.892V139H1156.38ZM1164.86 139V137.704L1164.77 137.428V135.16C1164.77 134.72 1164.64 134.38 1164.38 134.14C1164.11 133.892 1163.71 133.768 1163.18 133.768C1162.82 133.768 1162.46 133.824 1162.11 133.936C1161.76 134.048 1161.47 134.204 1161.23 134.404L1160.64 133.312C1160.99 133.048 1161.4 132.852 1161.87 132.724C1162.35 132.588 1162.84 132.52 1163.36 132.52C1164.28 132.52 1165 132.744 1165.5 133.192C1166.02 133.632 1166.27 134.316 1166.27 135.244V139H1164.86ZM1162.84 139.084C1162.36 139.084 1161.94 139.004 1161.58 138.844C1161.22 138.676 1160.94 138.448 1160.74 138.16C1160.55 137.864 1160.45 137.532 1160.45 137.164C1160.45 136.804 1160.54 136.48 1160.7 136.192C1160.88 135.904 1161.16 135.676 1161.56 135.508C1161.95 135.34 1162.47 135.256 1163.12 135.256H1164.98V136.252H1163.22C1162.71 136.252 1162.37 136.336 1162.19 136.504C1162.02 136.664 1161.93 136.864 1161.93 137.104C1161.93 137.376 1162.04 137.592 1162.25 137.752C1162.47 137.912 1162.77 137.992 1163.15 137.992C1163.52 137.992 1163.85 137.908 1164.14 137.74C1164.43 137.572 1164.64 137.324 1164.77 136.996L1165.02 137.896C1164.88 138.272 1164.62 138.564 1164.24 138.772C1163.88 138.98 1163.41 139.084 1162.84 139.084ZM1171.11 141.412C1170.52 141.412 1169.94 141.332 1169.37 141.172C1168.81 141.02 1168.35 140.796 1167.99 140.5L1168.66 139.372C1168.94 139.604 1169.3 139.788 1169.72 139.924C1170.15 140.068 1170.59 140.14 1171.03 140.14C1171.73 140.14 1172.25 139.976 1172.58 139.648C1172.9 139.328 1173.07 138.844 1173.07 138.196V137.056L1173.19 135.604L1173.14 134.152V132.592H1174.57V138.028C1174.57 139.188 1174.27 140.04 1173.68 140.584C1173.09 141.136 1172.23 141.412 1171.11 141.412ZM1170.92 138.712C1170.31 138.712 1169.76 138.584 1169.26 138.328C1168.78 138.064 1168.39 137.7 1168.1 137.236C1167.82 136.772 1167.68 136.228 1167.68 135.604C1167.68 134.988 1167.82 134.448 1168.1 133.984C1168.39 133.52 1168.78 133.16 1169.26 132.904C1169.76 132.648 1170.31 132.52 1170.92 132.52C1171.46 132.52 1171.95 132.628 1172.38 132.844C1172.82 133.06 1173.16 133.396 1173.42 133.852C1173.68 134.308 1173.81 134.892 1173.81 135.604C1173.81 136.316 1173.68 136.904 1173.42 137.368C1173.16 137.824 1172.82 138.164 1172.38 138.388C1171.95 138.604 1171.46 138.712 1170.92 138.712ZM1171.15 137.44C1171.52 137.44 1171.86 137.364 1172.16 137.212C1172.45 137.052 1172.68 136.836 1172.84 136.564C1173.01 136.284 1173.09 135.964 1173.09 135.604C1173.09 135.244 1173.01 134.928 1172.84 134.656C1172.68 134.376 1172.45 134.164 1172.16 134.02C1171.86 133.868 1171.52 133.792 1171.15 133.792C1170.77 133.792 1170.43 133.868 1170.13 134.02C1169.83 134.164 1169.6 134.376 1169.43 134.656C1169.27 134.928 1169.19 135.244 1169.19 135.604C1169.19 135.964 1169.27 136.284 1169.43 136.564C1169.6 136.836 1169.83 137.052 1170.13 137.212C1170.43 137.364 1170.77 137.44 1171.15 137.44ZM1179.55 139.084C1178.84 139.084 1178.22 138.944 1177.68 138.664C1177.15 138.376 1176.74 137.984 1176.44 137.488C1176.16 136.992 1176.01 136.428 1176.01 135.796C1176.01 135.156 1176.15 134.592 1176.43 134.104C1176.72 133.608 1177.11 133.22 1177.61 132.94C1178.11 132.66 1178.68 132.52 1179.32 132.52C1179.95 132.52 1180.5 132.656 1180.99 132.928C1181.48 133.2 1181.86 133.584 1182.14 134.08C1182.42 134.576 1182.56 135.16 1182.56 135.832C1182.56 135.896 1182.56 135.968 1182.55 136.048C1182.55 136.128 1182.55 136.204 1182.54 136.276H1177.2V135.28H1181.75L1181.16 135.592C1181.17 135.224 1181.09 134.9 1180.93 134.62C1180.77 134.34 1180.55 134.12 1180.27 133.96C1180 133.8 1179.68 133.72 1179.32 133.72C1178.96 133.72 1178.63 133.8 1178.35 133.96C1178.08 134.12 1177.86 134.344 1177.7 134.632C1177.55 134.912 1177.48 135.244 1177.48 135.628V135.868C1177.48 136.252 1177.56 136.592 1177.74 136.888C1177.92 137.184 1178.16 137.412 1178.48 137.572C1178.8 137.732 1179.17 137.812 1179.59 137.812C1179.95 137.812 1180.27 137.756 1180.56 137.644C1180.85 137.532 1181.1 137.356 1181.33 137.116L1182.13 138.04C1181.84 138.376 1181.48 138.636 1181.04 138.82C1180.61 138.996 1180.11 139.084 1179.55 139.084Z" fill="#E4E7EB"/>
<path d="M1110.03 151.348V175.461C1110.03 179.624 1118.31 183 1128.53 183C1138.74 183 1147.02 179.624 1147.02 175.461V151.348" fill="url(#paint5_linear_1237_3362)"/>
<path d="M1128.52 156.666C1138.75 156.666 1147.04 154.279 1147.04 151.336C1147.04 148.388 1138.75 146 1128.52 146C1118.3 146 1110 148.388 1110 151.336C1110 154.279 1118.3 156.666 1128.52 156.666Z" fill="#106B6D"/>
<rect x="734" y="72" width="462" height="124" stroke="#353940" stroke-width="2"/>
<path d="M704 134L699 131.113V136.887L704 134ZM513 134L518 136.887V131.113L513 134ZM699.5 133.5H661.915V134.5H699.5V133.5ZM661.915 133.5H592.314V134.5H661.915V133.5ZM592.314 133.5L517.5 133.5V134.5L592.314 134.5V133.5Z" fill="#9CA5B3"/>
<path d="M591.978 194V181.4H597.432C598.56 181.4 599.532 181.586 600.348 181.958C601.164 182.318 601.794 182.84 602.238 183.524C602.682 184.208 602.904 185.024 602.904 185.972C602.904 186.908 602.682 187.718 602.238 188.402C601.794 189.074 601.164 189.59 600.348 189.95C599.532 190.31 598.56 190.49 597.432 190.49H593.598L594.894 189.212V194H591.978ZM599.988 194L596.838 189.428H599.952L603.138 194H599.988ZM594.894 189.536L593.598 188.168H597.27C598.17 188.168 598.842 187.976 599.286 187.592C599.73 187.196 599.952 186.656 599.952 185.972C599.952 185.276 599.73 184.736 599.286 184.352C598.842 183.968 598.17 183.776 597.27 183.776H593.598L594.894 182.39V189.536ZM609.823 194.144C608.719 194.144 607.747 193.928 606.907 193.496C606.079 193.064 605.437 192.476 604.981 191.732C604.525 190.976 604.297 190.118 604.297 189.158C604.297 188.186 604.519 187.328 604.963 186.584C605.419 185.828 606.037 185.24 606.817 184.82C607.597 184.388 608.479 184.172 609.463 184.172C610.411 184.172 611.263 184.376 612.019 184.784C612.787 185.18 613.393 185.756 613.837 186.512C614.281 187.256 614.503 188.15 614.503 189.194C614.503 189.302 614.497 189.428 614.485 189.572C614.473 189.704 614.461 189.83 614.449 189.95H606.583V188.312H612.973L611.893 188.798C611.893 188.294 611.791 187.856 611.587 187.484C611.383 187.112 611.101 186.824 610.741 186.62C610.381 186.404 609.961 186.296 609.481 186.296C609.001 186.296 608.575 186.404 608.203 186.62C607.843 186.824 607.561 187.118 607.357 187.502C607.153 187.874 607.051 188.318 607.051 188.834V189.266C607.051 189.794 607.165 190.262 607.393 190.67C607.633 191.066 607.963 191.372 608.383 191.588C608.815 191.792 609.319 191.894 609.895 191.894C610.411 191.894 610.861 191.816 611.245 191.66C611.641 191.504 612.001 191.27 612.325 190.958L613.819 192.578C613.375 193.082 612.817 193.472 612.145 193.748C611.473 194.012 610.699 194.144 609.823 194.144ZM620.53 194.144C619.618 194.144 618.796 193.94 618.064 193.532C617.332 193.112 616.75 192.53 616.318 191.786C615.898 191.042 615.688 190.166 615.688 189.158C615.688 188.138 615.898 187.256 616.318 186.512C616.75 185.768 617.332 185.192 618.064 184.784C618.796 184.376 619.618 184.172 620.53 184.172C621.346 184.172 622.06 184.352 622.672 184.712C623.284 185.072 623.758 185.618 624.094 186.35C624.43 187.082 624.598 188.018 624.598 189.158C624.598 190.286 624.436 191.222 624.112 191.966C623.788 192.698 623.32 193.244 622.708 193.604C622.108 193.964 621.382 194.144 620.53 194.144ZM621.016 191.84C621.472 191.84 621.886 191.732 622.258 191.516C622.63 191.3 622.924 190.994 623.14 190.598C623.368 190.19 623.482 189.71 623.482 189.158C623.482 188.594 623.368 188.114 623.14 187.718C622.924 187.322 622.63 187.016 622.258 186.8C621.886 186.584 621.472 186.476 621.016 186.476C620.548 186.476 620.128 186.584 619.756 186.8C619.384 187.016 619.084 187.322 618.856 187.718C618.64 188.114 618.532 188.594 618.532 189.158C618.532 189.71 618.64 190.19 618.856 190.598C619.084 190.994 619.384 191.3 619.756 191.516C620.128 191.732 620.548 191.84 621.016 191.84ZM623.554 194V192.02L623.608 189.14L623.428 186.278V180.644H626.236V194H623.554ZM628.835 194V184.316H631.643V194H628.835ZM630.239 182.966C629.723 182.966 629.303 182.816 628.979 182.516C628.655 182.216 628.493 181.844 628.493 181.4C628.493 180.956 628.655 180.584 628.979 180.284C629.303 179.984 629.723 179.834 630.239 179.834C630.755 179.834 631.175 179.978 631.499 180.266C631.823 180.542 631.985 180.902 631.985 181.346C631.985 181.814 631.823 182.204 631.499 182.516C631.187 182.816 630.767 182.966 630.239 182.966ZM637.507 194.144C636.679 194.144 635.881 194.048 635.113 193.856C634.357 193.652 633.757 193.4 633.313 193.1L634.249 191.084C634.693 191.36 635.215 191.588 635.815 191.768C636.427 191.936 637.027 192.02 637.615 192.02C638.263 192.02 638.719 191.942 638.983 191.786C639.259 191.63 639.397 191.414 639.397 191.138C639.397 190.91 639.289 190.742 639.073 190.634C638.869 190.514 638.593 190.424 638.245 190.364C637.897 190.304 637.513 190.244 637.093 190.184C636.685 190.124 636.271 190.046 635.851 189.95C635.431 189.842 635.047 189.686 634.699 189.482C634.351 189.278 634.069 189.002 633.853 188.654C633.649 188.306 633.547 187.856 633.547 187.304C633.547 186.692 633.721 186.152 634.069 185.684C634.429 185.216 634.945 184.85 635.617 184.586C636.289 184.31 637.093 184.172 638.029 184.172C638.689 184.172 639.361 184.244 640.045 184.388C640.729 184.532 641.299 184.742 641.755 185.018L640.819 187.016C640.351 186.74 639.877 186.554 639.397 186.458C638.929 186.35 638.473 186.296 638.029 186.296C637.405 186.296 636.949 186.38 636.661 186.548C636.373 186.716 636.229 186.932 636.229 187.196C636.229 187.436 636.331 187.616 636.535 187.736C636.751 187.856 637.033 187.952 637.381 188.024C637.729 188.096 638.107 188.162 638.515 188.222C638.935 188.27 639.355 188.348 639.775 188.456C640.195 188.564 640.573 188.72 640.909 188.924C641.257 189.116 641.539 189.386 641.755 189.734C641.971 190.07 642.079 190.514 642.079 191.066C642.079 191.666 641.899 192.2 641.539 192.668C641.179 193.124 640.657 193.484 639.973 193.748C639.301 194.012 638.479 194.144 637.507 194.144ZM590.441 216.216C589.469 216.216 588.563 216.06 587.723 215.748C586.895 215.424 586.175 214.968 585.563 214.38C584.951 213.792 584.471 213.102 584.123 212.31C583.787 211.518 583.619 210.648 583.619 209.7C583.619 208.752 583.787 207.882 584.123 207.09C584.471 206.298 584.951 205.608 585.563 205.02C586.187 204.432 586.913 203.982 587.741 203.67C588.569 203.346 589.475 203.184 590.459 203.184C591.551 203.184 592.535 203.376 593.411 203.76C594.299 204.132 595.043 204.684 595.643 205.416L593.771 207.144C593.339 206.652 592.859 206.286 592.331 206.046C591.803 205.794 591.227 205.668 590.603 205.668C590.015 205.668 589.475 205.764 588.983 205.956C588.491 206.148 588.065 206.424 587.705 206.784C587.345 207.144 587.063 207.57 586.859 208.062C586.667 208.554 586.571 209.1 586.571 209.7C586.571 210.3 586.667 210.846 586.859 211.338C587.063 211.83 587.345 212.256 587.705 212.616C588.065 212.976 588.491 213.252 588.983 213.444C589.475 213.636 590.015 213.732 590.603 213.732C591.227 213.732 591.803 213.612 592.331 213.372C592.859 213.12 593.339 212.742 593.771 212.238L595.643 213.966C595.043 214.698 594.299 215.256 593.411 215.64C592.535 216.024 591.545 216.216 590.441 216.216ZM597.414 216V202.644H600.222V216H597.414ZM606.914 216.144C606.11 216.144 605.39 215.988 604.754 215.676C604.13 215.364 603.644 214.89 603.296 214.254C602.948 213.606 602.774 212.784 602.774 211.788V206.316H605.582V211.374C605.582 212.178 605.75 212.772 606.086 213.156C606.434 213.528 606.92 213.714 607.544 213.714C607.976 213.714 608.36 213.624 608.696 213.444C609.032 213.252 609.296 212.964 609.488 212.58C609.68 212.184 609.776 211.692 609.776 211.104V206.316H612.584V216H609.92V213.336L610.406 214.11C610.082 214.782 609.602 215.292 608.966 215.64C608.342 215.976 607.658 216.144 606.914 216.144ZM618.444 216.144C617.616 216.144 616.818 216.048 616.05 215.856C615.294 215.652 614.694 215.4 614.25 215.1L615.186 213.084C615.63 213.36 616.152 213.588 616.752 213.768C617.364 213.936 617.964 214.02 618.552 214.02C619.2 214.02 619.656 213.942 619.92 213.786C620.196 213.63 620.334 213.414 620.334 213.138C620.334 212.91 620.226 212.742 620.01 212.634C619.806 212.514 619.53 212.424 619.182 212.364C618.834 212.304 618.45 212.244 618.03 212.184C617.622 212.124 617.208 212.046 616.788 211.95C616.368 211.842 615.984 211.686 615.636 211.482C615.288 211.278 615.006 211.002 614.79 210.654C614.586 210.306 614.484 209.856 614.484 209.304C614.484 208.692 614.658 208.152 615.006 207.684C615.366 207.216 615.882 206.85 616.554 206.586C617.226 206.31 618.03 206.172 618.966 206.172C619.626 206.172 620.298 206.244 620.982 206.388C621.666 206.532 622.236 206.742 622.692 207.018L621.756 209.016C621.288 208.74 620.814 208.554 620.334 208.458C619.866 208.35 619.41 208.296 618.966 208.296C618.342 208.296 617.886 208.38 617.598 208.548C617.31 208.716 617.166 208.932 617.166 209.196C617.166 209.436 617.268 209.616 617.472 209.736C617.688 209.856 617.97 209.952 618.318 210.024C618.666 210.096 619.044 210.162 619.452 210.222C619.872 210.27 620.292 210.348 620.712 210.456C621.132 210.564 621.51 210.72 621.846 210.924C622.194 211.116 622.476 211.386 622.692 211.734C622.908 212.07 623.016 212.514 623.016 213.066C623.016 213.666 622.836 214.2 622.476 214.668C622.116 215.124 621.594 215.484 620.91 215.748C620.238 216.012 619.416 216.144 618.444 216.144ZM628.708 216.144C627.568 216.144 626.68 215.856 626.044 215.28C625.408 214.692 625.09 213.822 625.09 212.67V204.174H627.898V212.634C627.898 213.042 628.006 213.36 628.222 213.588C628.438 213.804 628.732 213.912 629.104 213.912C629.548 213.912 629.926 213.792 630.238 213.552L630.994 215.532C630.706 215.736 630.358 215.892 629.95 216C629.554 216.096 629.14 216.144 628.708 216.144ZM623.596 208.692V206.532H630.31V208.692H623.596ZM637.078 216.144C635.974 216.144 635.002 215.928 634.162 215.496C633.334 215.064 632.692 214.476 632.236 213.732C631.78 212.976 631.552 212.118 631.552 211.158C631.552 210.186 631.774 209.328 632.218 208.584C632.674 207.828 633.292 207.24 634.072 206.82C634.852 206.388 635.734 206.172 636.718 206.172C637.666 206.172 638.518 206.376 639.274 206.784C640.042 207.18 640.648 207.756 641.092 208.512C641.536 209.256 641.758 210.15 641.758 211.194C641.758 211.302 641.752 211.428 641.74 211.572C641.728 211.704 641.716 211.83 641.704 211.95H633.838V210.312H640.228L639.148 210.798C639.148 210.294 639.046 209.856 638.842 209.484C638.638 209.112 638.356 208.824 637.996 208.62C637.636 208.404 637.216 208.296 636.736 208.296C636.256 208.296 635.83 208.404 635.458 208.62C635.098 208.824 634.816 209.118 634.612 209.502C634.408 209.874 634.306 210.318 634.306 210.834V211.266C634.306 211.794 634.42 212.262 634.648 212.67C634.888 213.066 635.218 213.372 635.638 213.588C636.07 213.792 636.574 213.894 637.15 213.894C637.666 213.894 638.116 213.816 638.5 213.66C638.896 213.504 639.256 213.27 639.58 212.958L641.074 214.578C640.63 215.082 640.072 215.472 639.4 215.748C638.728 216.012 637.954 216.144 637.078 216.144ZM643.627 216V206.316H646.309V209.052L645.931 208.26C646.219 207.576 646.681 207.06 647.317 206.712C647.953 206.352 648.727 206.172 649.639 206.172V208.764C649.519 208.752 649.411 208.746 649.315 208.746C649.219 208.734 649.117 208.728 649.009 208.728C648.241 208.728 647.617 208.95 647.137 209.394C646.669 209.826 646.435 210.504 646.435 211.428V216H643.627Z" fill="#E4E7EB"/>
<g clip-path="url(#clip0_1237_3362)">
<path d="M650.14 149.379C646.244 151.418 626.064 159.751 621.768 162C617.472 164.25 615.085 164.228 611.691 162.599C608.298 160.969 586.822 152.258 582.954 150.4C581.021 149.473 580.004 148.689 580.004 147.949V140.539C580.004 140.539 607.962 134.427 612.475 132.801C616.989 131.174 618.555 131.116 622.395 132.529C626.237 133.942 649.204 138.103 653 139.5L652.998 146.805C652.999 147.537 652.123 148.341 650.14 149.379Z" fill="#912626"/>
<path d="M650.138 142.013C646.243 144.051 626.064 152.385 621.768 154.634C617.472 156.884 615.085 156.862 611.691 155.232C608.297 153.604 586.823 144.891 582.955 143.035C579.087 141.178 579.006 139.9 582.805 138.405C586.605 136.911 607.962 128.496 612.476 126.87C616.989 125.244 618.555 125.185 622.395 126.598C626.237 128.011 646.296 136.03 650.091 137.426C653.888 138.823 654.034 139.974 650.138 142.013Z" fill="#C6302B"/>
<path d="M650.14 137.389C646.244 139.429 626.064 147.761 621.768 150.012C617.472 152.26 615.085 152.239 611.691 150.609C608.297 148.981 586.822 140.268 582.954 138.411C581.021 137.483 580.004 136.701 580.004 135.961V128.55C580.004 128.55 607.962 122.438 612.475 120.811C616.989 119.185 618.555 119.126 622.395 120.539C626.237 121.953 649.204 126.113 653 127.51L652.998 134.816C652.999 135.548 652.123 136.352 650.14 137.389Z" fill="#912626"/>
<path d="M650.138 130.024C646.243 132.063 626.064 140.395 621.768 142.645C617.472 144.894 615.085 144.872 611.691 143.243C608.297 141.615 586.823 132.902 582.955 131.045C579.087 129.189 579.006 127.911 582.805 126.416C586.605 124.922 607.962 116.506 612.476 114.881C616.989 113.255 618.555 113.196 622.395 114.609C626.237 116.022 646.296 124.04 650.091 125.436C653.888 126.834 654.034 127.985 650.138 130.024Z" fill="#C6302B"/>
<path d="M650.14 124.955C646.244 126.994 626.064 135.327 621.768 137.577C617.472 139.827 615.085 139.805 611.691 138.175C608.297 136.547 586.822 127.834 582.954 125.977C581.021 125.049 580.004 124.266 580.004 123.527V116.116C580.004 116.116 607.962 110.004 612.475 108.378C616.989 106.751 618.555 106.693 622.395 108.106C626.237 109.519 649.204 113.68 653 115.076L652.998 122.382C652.999 123.114 652.123 123.917 650.14 124.955Z" fill="#912626"/>
<path d="M650.138 117.589C646.243 119.628 626.064 127.961 621.767 130.21C617.471 132.459 615.085 132.437 611.691 130.808C608.297 129.179 586.823 120.467 582.955 118.61C579.086 116.754 579.006 115.475 582.805 113.981C586.605 112.487 607.962 104.072 612.476 102.446C616.989 100.82 618.554 100.761 622.395 102.174C626.236 103.588 646.295 111.606 650.091 113.002C653.888 114.398 654.034 115.55 650.138 117.589Z" fill="#C6302B"/>
<path d="M625.421 110.38L619.145 111.035L617.74 114.43L615.471 110.641L608.224 109.987L613.632 108.029L612.009 105.022L617.072 107.011L621.845 105.442L620.555 108.55L625.421 110.38ZM617.366 126.851L605.653 121.973L622.436 119.385L617.366 126.851ZM601.127 112.267C606.081 112.267 610.097 113.831 610.097 115.759C610.097 117.688 606.081 119.252 601.127 119.252C596.172 119.252 592.156 117.688 592.156 115.759C592.156 113.831 596.172 112.267 601.127 112.267Z" fill="white"/>
<path d="M632.836 111.309L642.769 115.251L632.844 119.189L632.836 111.309Z" fill="#621B1C"/>
<path d="M621.848 115.674L632.837 111.309L632.846 119.189L631.768 119.612L621.848 115.674Z" fill="#9A2928"/>
</g>
<defs>
<linearGradient id="paint0_linear_1237_3362" x1="67.4999" y1="578" x2="513.5" y2="578" gradientUnits="userSpaceOnUse">
<stop stop-color="#00DBDE"/>
<stop offset="0.9999" stop-color="#FC00FF" stop-opacity="0.22"/>
<stop offset="1" stop-color="#FC00FF"/>
</linearGradient>
<linearGradient id="paint1_linear_1237_3362" x1="67.4999" y1="578" x2="513.5" y2="578" gradientUnits="userSpaceOnUse">
<stop offset="0.0001" stop-color="#BDEFF3"/>
<stop offset="0.286458" stop-color="#00DBDE"/>
<stop offset="1" stop-color="#FC00FF"/>
</linearGradient>
<linearGradient id="paint2_linear_1237_3362" x1="801.345" y1="152.481" x2="831.992" y2="183.567" gradientUnits="userSpaceOnUse">
<stop stop-color="#00DBDE" stop-opacity="0.7"/>
<stop offset="1" stop-color="#00DBDE" stop-opacity="0.4"/>
</linearGradient>
<linearGradient id="paint3_linear_1237_3362" x1="902.345" y1="152.481" x2="932.992" y2="183.567" gradientUnits="userSpaceOnUse">
<stop stop-color="#00DBDE" stop-opacity="0.7"/>
<stop offset="1" stop-color="#00DBDE" stop-opacity="0.4"/>
</linearGradient>
<linearGradient id="paint4_linear_1237_3362" x1="1004.35" y1="152.481" x2="1034.99" y2="183.567" gradientUnits="userSpaceOnUse">
<stop stop-color="#00DBDE" stop-opacity="0.7"/>
<stop offset="1" stop-color="#00DBDE" stop-opacity="0.4"/>
</linearGradient>
<linearGradient id="paint5_linear_1237_3362" x1="1111.35" y1="152.481" x2="1141.99" y2="183.567" gradientUnits="userSpaceOnUse">
<stop stop-color="#00DBDE" stop-opacity="0.7"/>
<stop offset="1" stop-color="#00DBDE" stop-opacity="0.4"/>
</linearGradient>
<clipPath id="clip0_1237_3362">
<rect width="73" height="63" fill="white" transform="translate(580 101)"/>
</clipPath>
</defs>
</svg>
