<svg width="2094" height="1070" viewBox="0 0 2094 1070" fill="none" xmlns="http://www.w3.org/2000/svg">
<rect width="2094" height="1070" fill="#1B1B1D"/>
<rect x="70" y="86.4082" width="840.697" height="375.864" fill="#D9D9D9"/>
<rect x="127" y="224" width="174.071" height="174.071" fill="white"/>
<path d="M173.293 353L204.193 283H223.693L254.693 353H234.093L209.893 292.7H217.693L193.493 353H173.293ZM190.193 339.4L195.293 324.8H229.493L234.593 339.4H190.193Z" fill="black"/>
<path d="M144.878 142.481H161.028V150.131H144.878V142.481ZM145.578 162.131H135.678V127.131H163.128V134.781H145.578V162.131ZM180.322 162.581C177.356 162.581 174.722 161.981 172.422 160.781C170.122 159.581 168.306 157.931 166.972 155.831C165.672 153.698 165.022 151.264 165.022 148.531C165.022 145.798 165.672 143.381 166.972 141.281C168.306 139.181 170.122 137.548 172.422 136.381C174.722 135.181 177.356 134.581 180.322 134.581C183.289 134.581 185.922 135.181 188.222 136.381C190.556 137.548 192.372 139.181 193.672 141.281C194.972 143.381 195.622 145.798 195.622 148.531C195.622 151.264 194.972 153.698 193.672 155.831C192.372 157.931 190.556 159.581 188.222 160.781C185.922 161.981 183.289 162.581 180.322 162.581ZM180.322 155.031C181.422 155.031 182.389 154.781 183.222 154.281C184.089 153.781 184.772 153.048 185.272 152.081C185.772 151.081 186.022 149.898 186.022 148.531C186.022 147.164 185.772 146.014 185.272 145.081C184.772 144.114 184.089 143.381 183.222 142.881C182.389 142.381 181.422 142.131 180.322 142.131C179.256 142.131 178.289 142.381 177.422 142.881C176.589 143.381 175.906 144.114 175.372 145.081C174.872 146.014 174.622 147.164 174.622 148.531C174.622 149.898 174.872 151.081 175.372 152.081C175.906 153.048 176.589 153.781 177.422 154.281C178.289 154.781 179.256 155.031 180.322 155.031ZM200.023 162.131V125.031H209.523V162.131H200.023ZM227.497 162.581C225.03 162.581 222.78 162.014 220.747 160.881C218.747 159.714 217.147 158.098 215.947 156.031C214.747 153.931 214.147 151.431 214.147 148.531C214.147 145.664 214.747 143.198 215.947 141.131C217.147 139.031 218.747 137.414 220.747 136.281C222.78 135.148 225.03 134.581 227.497 134.581C229.83 134.581 231.797 135.081 233.397 136.081C235.03 137.081 236.264 138.614 237.097 140.681C237.93 142.748 238.347 145.364 238.347 148.531C238.347 151.764 237.947 154.414 237.147 156.481C236.347 158.548 235.147 160.081 233.547 161.081C231.947 162.081 229.93 162.581 227.497 162.581ZM229.497 155.031C230.564 155.031 231.514 154.781 232.347 154.281C233.214 153.781 233.897 153.048 234.397 152.081C234.897 151.081 235.147 149.898 235.147 148.531C235.147 147.164 234.897 146.014 234.397 145.081C233.897 144.114 233.214 143.381 232.347 142.881C231.514 142.381 230.564 142.131 229.497 142.131C228.397 142.131 227.414 142.381 226.547 142.881C225.714 143.381 225.047 144.114 224.547 145.081C224.047 146.014 223.797 147.164 223.797 148.531C223.797 149.898 224.047 151.081 224.547 152.081C225.047 153.048 225.714 153.781 226.547 154.281C227.414 154.781 228.397 155.031 229.497 155.031ZM235.447 162.131V157.481L235.497 148.531L234.997 139.581V125.031H244.497V162.131H235.447ZM264.809 162.581C261.609 162.581 258.809 161.981 256.409 160.781C254.042 159.548 252.192 157.881 250.859 155.781C249.559 153.648 248.909 151.231 248.909 148.531C248.909 145.831 249.542 143.431 250.809 141.331C252.109 139.198 253.892 137.548 256.159 136.381C258.426 135.181 260.976 134.581 263.809 134.581C266.476 134.581 268.909 135.131 271.109 136.231C273.309 137.298 275.059 138.881 276.359 140.981C277.659 143.081 278.309 145.631 278.309 148.631C278.309 148.964 278.292 149.348 278.259 149.781C278.226 150.214 278.192 150.614 278.159 150.981H256.709V145.981H273.109L269.509 147.381C269.542 146.148 269.309 145.081 268.809 144.181C268.342 143.281 267.676 142.581 266.809 142.081C265.976 141.581 264.992 141.331 263.859 141.331C262.726 141.331 261.726 141.581 260.859 142.081C260.026 142.581 259.376 143.298 258.909 144.231C258.442 145.131 258.209 146.198 258.209 147.431V148.881C258.209 150.214 258.476 151.364 259.009 152.331C259.576 153.298 260.376 154.048 261.409 154.581C262.442 155.081 263.676 155.331 265.109 155.331C266.442 155.331 267.576 155.148 268.509 154.781C269.476 154.381 270.426 153.781 271.359 152.981L276.359 158.181C275.059 159.614 273.459 160.714 271.559 161.481C269.659 162.214 267.409 162.581 264.809 162.581ZM282.689 162.131V135.031H291.739V142.931L290.389 140.681C291.189 138.648 292.489 137.131 294.289 136.131C296.089 135.098 298.272 134.581 300.839 134.581V143.131C300.406 143.064 300.022 143.031 299.689 143.031C299.389 142.998 299.056 142.981 298.689 142.981C296.756 142.981 295.189 143.514 293.989 144.581C292.789 145.614 292.189 147.314 292.189 149.681V162.131H282.689ZM323.158 162.131V130.681L327.408 134.781H316.658V127.131H333.058V162.131H323.158Z" fill="black"/>
<path d="M333.562 327.876C330.762 327.876 328.178 327.426 325.812 326.526C323.445 325.626 321.378 324.359 319.612 322.726C317.878 321.059 316.528 319.126 315.562 316.926C314.595 314.726 314.112 312.309 314.112 309.676C314.112 307.042 314.595 304.626 315.562 302.426C316.528 300.226 317.878 298.309 319.612 296.676C321.378 295.009 323.445 293.726 325.812 292.826C328.178 291.926 330.762 291.476 333.562 291.476C336.395 291.476 338.978 291.926 341.312 292.826C343.678 293.726 345.728 295.009 347.462 296.676C349.195 298.309 350.545 300.226 351.512 302.426C352.512 304.626 353.012 307.042 353.012 309.676C353.012 312.309 352.512 314.742 351.512 316.976C350.545 319.176 349.195 321.092 347.462 322.726C345.728 324.359 343.678 325.626 341.312 326.526C338.978 327.426 336.395 327.876 333.562 327.876ZM333.562 319.676C334.895 319.676 336.128 319.442 337.262 318.976C338.428 318.509 339.428 317.842 340.262 316.976C341.128 316.076 341.795 315.009 342.262 313.776C342.762 312.542 343.012 311.176 343.012 309.676C343.012 308.142 342.762 306.776 342.262 305.576C341.795 304.342 341.128 303.292 340.262 302.426C339.428 301.526 338.428 300.842 337.262 300.376C336.128 299.909 334.895 299.676 333.562 299.676C332.228 299.676 330.978 299.909 329.812 300.376C328.678 300.842 327.678 301.526 326.812 302.426C325.978 303.292 325.312 304.342 324.812 305.576C324.345 306.776 324.112 308.142 324.112 309.676C324.112 311.176 324.345 312.542 324.812 313.776C325.312 315.009 325.978 316.076 326.812 316.976C327.678 317.842 328.678 318.509 329.812 318.976C330.978 319.442 332.228 319.676 333.562 319.676ZM358.197 327.176V292.176H374.197C377.397 292.176 380.147 292.692 382.447 293.726C384.78 294.759 386.58 296.259 387.847 298.226C389.113 300.159 389.747 302.459 389.747 305.126C389.747 307.759 389.113 310.042 387.847 311.976C386.58 313.876 384.78 315.342 382.447 316.376C380.147 317.376 377.397 317.876 374.197 317.876H363.697L368.097 313.726V327.176H358.197ZM379.847 327.176L371.147 314.426H381.697L390.447 327.176H379.847ZM368.097 314.776L363.697 310.226H373.597C375.663 310.226 377.197 309.776 378.197 308.876C379.23 307.976 379.747 306.726 379.747 305.126C379.747 303.492 379.23 302.226 378.197 301.326C377.197 300.426 375.663 299.976 373.597 299.976H363.697L368.097 295.426V314.776Z" fill="black"/>
<path d="M613.362 327.876C610.562 327.876 607.979 327.426 605.612 326.526C603.246 325.626 601.179 324.359 599.412 322.726C597.679 321.059 596.329 319.126 595.362 316.926C594.396 314.726 593.912 312.309 593.912 309.676C593.912 307.042 594.396 304.626 595.362 302.426C596.329 300.226 597.679 298.309 599.412 296.676C601.179 295.009 603.246 293.726 605.612 292.826C607.979 291.926 610.562 291.476 613.362 291.476C616.196 291.476 618.779 291.926 621.112 292.826C623.479 293.726 625.529 295.009 627.262 296.676C628.996 298.309 630.346 300.226 631.312 302.426C632.312 304.626 632.812 307.042 632.812 309.676C632.812 312.309 632.312 314.742 631.312 316.976C630.346 319.176 628.996 321.092 627.262 322.726C625.529 324.359 623.479 325.626 621.112 326.526C618.779 327.426 616.196 327.876 613.362 327.876ZM613.362 319.676C614.696 319.676 615.929 319.442 617.062 318.976C618.229 318.509 619.229 317.842 620.062 316.976C620.929 316.076 621.596 315.009 622.062 313.776C622.562 312.542 622.812 311.176 622.812 309.676C622.812 308.142 622.562 306.776 622.062 305.576C621.596 304.342 620.929 303.292 620.062 302.426C619.229 301.526 618.229 300.842 617.062 300.376C615.929 299.909 614.696 299.676 613.362 299.676C612.029 299.676 610.779 299.909 609.612 300.376C608.479 300.842 607.479 301.526 606.612 302.426C605.779 303.292 605.112 304.342 604.612 305.576C604.146 306.776 603.912 308.142 603.912 309.676C603.912 311.176 604.146 312.542 604.612 313.776C605.112 315.009 605.779 316.076 606.612 316.976C607.479 317.842 608.479 318.509 609.612 318.976C610.779 319.442 612.029 319.676 613.362 319.676ZM637.997 327.176V292.176H653.997C657.197 292.176 659.947 292.692 662.247 293.726C664.581 294.759 666.381 296.259 667.647 298.226C668.914 300.159 669.547 302.459 669.547 305.126C669.547 307.759 668.914 310.042 667.647 311.976C666.381 313.876 664.581 315.342 662.247 316.376C659.947 317.376 657.197 317.876 653.997 317.876H643.497L647.897 313.726V327.176H637.997ZM659.647 327.176L650.947 314.426H661.497L670.247 327.176H659.647ZM647.897 314.776L643.497 310.226H653.397C655.464 310.226 656.997 309.776 657.997 308.876C659.031 307.976 659.547 306.726 659.547 305.126C659.547 303.492 659.031 302.226 657.997 301.326C656.997 300.426 655.464 299.976 653.397 299.976H643.497L647.897 295.426V314.776Z" fill="black"/>
<rect x="404" y="224" width="174.071" height="174.071" fill="white"/>
<path d="M459.572 353V283H495.372C504.572 283 511.439 284.7 515.972 288.1C520.506 291.433 522.772 295.833 522.772 301.3C522.772 304.9 521.806 308.067 519.872 310.8C518.006 313.467 515.339 315.6 511.872 317.2C508.472 318.733 504.406 319.5 499.672 319.5L501.672 314.7C506.606 314.7 510.906 315.467 514.572 317C518.239 318.467 521.072 320.633 523.072 323.5C525.139 326.3 526.172 329.733 526.172 333.8C526.172 339.867 523.706 344.6 518.772 348C513.906 351.333 506.772 353 497.372 353H459.572ZM479.172 338.7H495.772C499.172 338.7 501.739 338.133 503.472 337C505.272 335.8 506.172 334 506.172 331.6C506.172 329.2 505.272 327.433 503.472 326.3C501.739 325.1 499.172 324.5 495.772 324.5H477.772V310.8H492.772C496.106 310.8 498.606 310.233 500.272 309.1C501.939 307.967 502.772 306.267 502.772 304C502.772 301.733 501.939 300.067 500.272 299C498.606 297.867 496.106 297.3 492.772 297.3H479.172V338.7Z" fill="black"/>
<rect x="681" y="224" width="174.071" height="174.071" fill="white"/>
<path d="M773.486 361.4C767.953 361.4 762.819 360.533 758.086 358.8C753.419 357 749.353 354.467 745.886 351.2C742.486 347.933 739.819 344.1 737.886 339.7C735.953 335.233 734.986 330.333 734.986 325C734.986 319.667 735.953 314.8 737.886 310.4C739.819 305.933 742.486 302.067 745.886 298.8C749.353 295.533 753.419 293.033 758.086 291.3C762.819 289.5 767.953 288.6 773.486 288.6C779.953 288.6 785.719 289.733 790.786 292C795.919 294.267 800.186 297.533 803.586 301.8L790.986 313.2C788.719 310.533 786.219 308.5 783.486 307.1C780.819 305.7 777.819 305 774.486 305C771.619 305 768.986 305.467 766.586 306.4C764.186 307.333 762.119 308.7 760.386 310.5C758.719 312.233 757.386 314.333 756.386 316.8C755.453 319.267 754.986 322 754.986 325C754.986 328 755.453 330.733 756.386 333.2C757.386 335.667 758.719 337.8 760.386 339.6C762.119 341.333 764.186 342.667 766.586 343.6C768.986 344.533 771.619 345 774.486 345C777.819 345 780.819 344.3 783.486 342.9C786.219 341.5 788.719 339.467 790.986 336.8L803.586 348.2C800.186 352.4 795.919 355.667 790.786 358C785.719 360.267 779.953 361.4 773.486 361.4Z" fill="black"/>
<rect x="1196.3" y="86.4082" width="840.697" height="375.864" fill="#D9D9D9"/>
<rect x="1254" y="224" width="174.071" height="174.071" fill="white"/>
<path d="M1300.29 353L1331.19 283H1350.69L1381.69 353H1361.09L1336.89 292.7H1344.69L1320.49 353H1300.29ZM1317.19 339.4L1322.29 324.8H1356.49L1361.59 339.4H1317.19Z" fill="black"/>
<path d="M1266.67 142.481H1282.82V150.131H1266.67V142.481ZM1267.37 162.131H1257.47V127.131H1284.92V134.781H1267.37V162.131ZM1302.12 162.581C1299.15 162.581 1296.52 161.981 1294.22 160.781C1291.92 159.581 1290.1 157.931 1288.77 155.831C1287.47 153.698 1286.82 151.264 1286.82 148.531C1286.82 145.798 1287.47 143.381 1288.77 141.281C1290.1 139.181 1291.92 137.548 1294.22 136.381C1296.52 135.181 1299.15 134.581 1302.12 134.581C1305.08 134.581 1307.72 135.181 1310.02 136.381C1312.35 137.548 1314.17 139.181 1315.47 141.281C1316.77 143.381 1317.42 145.798 1317.42 148.531C1317.42 151.264 1316.77 153.698 1315.47 155.831C1314.17 157.931 1312.35 159.581 1310.02 160.781C1307.72 161.981 1305.08 162.581 1302.12 162.581ZM1302.12 155.031C1303.22 155.031 1304.18 154.781 1305.02 154.281C1305.88 153.781 1306.57 153.048 1307.07 152.081C1307.57 151.081 1307.82 149.898 1307.82 148.531C1307.82 147.164 1307.57 146.014 1307.07 145.081C1306.57 144.114 1305.88 143.381 1305.02 142.881C1304.18 142.381 1303.22 142.131 1302.12 142.131C1301.05 142.131 1300.08 142.381 1299.22 142.881C1298.38 143.381 1297.7 144.114 1297.17 145.081C1296.67 146.014 1296.42 147.164 1296.42 148.531C1296.42 149.898 1296.67 151.081 1297.17 152.081C1297.7 153.048 1298.38 153.781 1299.22 154.281C1300.08 154.781 1301.05 155.031 1302.12 155.031ZM1321.82 162.131V125.031H1331.32V162.131H1321.82ZM1349.29 162.581C1346.82 162.581 1344.57 162.014 1342.54 160.881C1340.54 159.714 1338.94 158.098 1337.74 156.031C1336.54 153.931 1335.94 151.431 1335.94 148.531C1335.94 145.664 1336.54 143.198 1337.74 141.131C1338.94 139.031 1340.54 137.414 1342.54 136.281C1344.57 135.148 1346.82 134.581 1349.29 134.581C1351.62 134.581 1353.59 135.081 1355.19 136.081C1356.82 137.081 1358.06 138.614 1358.89 140.681C1359.72 142.748 1360.14 145.364 1360.14 148.531C1360.14 151.764 1359.74 154.414 1358.94 156.481C1358.14 158.548 1356.94 160.081 1355.34 161.081C1353.74 162.081 1351.72 162.581 1349.29 162.581ZM1351.29 155.031C1352.36 155.031 1353.31 154.781 1354.14 154.281C1355.01 153.781 1355.69 153.048 1356.19 152.081C1356.69 151.081 1356.94 149.898 1356.94 148.531C1356.94 147.164 1356.69 146.014 1356.19 145.081C1355.69 144.114 1355.01 143.381 1354.14 142.881C1353.31 142.381 1352.36 142.131 1351.29 142.131C1350.19 142.131 1349.21 142.381 1348.34 142.881C1347.51 143.381 1346.84 144.114 1346.34 145.081C1345.84 146.014 1345.59 147.164 1345.59 148.531C1345.59 149.898 1345.84 151.081 1346.34 152.081C1346.84 153.048 1347.51 153.781 1348.34 154.281C1349.21 154.781 1350.19 155.031 1351.29 155.031ZM1357.24 162.131V157.481L1357.29 148.531L1356.79 139.581V125.031H1366.29V162.131H1357.24ZM1386.6 162.581C1383.4 162.581 1380.6 161.981 1378.2 160.781C1375.84 159.548 1373.99 157.881 1372.65 155.781C1371.35 153.648 1370.7 151.231 1370.7 148.531C1370.7 145.831 1371.34 143.431 1372.6 141.331C1373.9 139.198 1375.69 137.548 1377.95 136.381C1380.22 135.181 1382.77 134.581 1385.6 134.581C1388.27 134.581 1390.7 135.131 1392.9 136.231C1395.1 137.298 1396.85 138.881 1398.15 140.981C1399.45 143.081 1400.1 145.631 1400.1 148.631C1400.1 148.964 1400.09 149.348 1400.05 149.781C1400.02 150.214 1399.99 150.614 1399.95 150.981H1378.5V145.981H1394.9L1391.3 147.381C1391.34 146.148 1391.1 145.081 1390.6 144.181C1390.14 143.281 1389.47 142.581 1388.6 142.081C1387.77 141.581 1386.79 141.331 1385.65 141.331C1384.52 141.331 1383.52 141.581 1382.65 142.081C1381.82 142.581 1381.17 143.298 1380.7 144.231C1380.24 145.131 1380 146.198 1380 147.431V148.881C1380 150.214 1380.27 151.364 1380.8 152.331C1381.37 153.298 1382.17 154.048 1383.2 154.581C1384.24 155.081 1385.47 155.331 1386.9 155.331C1388.24 155.331 1389.37 155.148 1390.3 154.781C1391.27 154.381 1392.22 153.781 1393.15 152.981L1398.15 158.181C1396.85 159.614 1395.25 160.714 1393.35 161.481C1391.45 162.214 1389.2 162.581 1386.6 162.581ZM1404.48 162.131V135.031H1413.53V142.931L1412.18 140.681C1412.98 138.648 1414.28 137.131 1416.08 136.131C1417.88 135.098 1420.07 134.581 1422.63 134.581V143.131C1422.2 143.064 1421.82 143.031 1421.48 143.031C1421.18 142.998 1420.85 142.981 1420.48 142.981C1418.55 142.981 1416.98 143.514 1415.78 144.581C1414.58 145.614 1413.98 147.314 1413.98 149.681V162.131H1404.48ZM1439.65 162.131V155.931L1452.75 143.681C1453.69 142.814 1454.37 142.048 1454.8 141.381C1455.27 140.714 1455.57 140.114 1455.7 139.581C1455.87 139.014 1455.95 138.498 1455.95 138.031C1455.95 136.898 1455.57 136.014 1454.8 135.381C1454.07 134.748 1452.95 134.431 1451.45 134.431C1450.19 134.431 1449 134.714 1447.9 135.281C1446.8 135.848 1445.9 136.698 1445.2 137.831L1437.85 133.731C1439.15 131.531 1441.04 129.764 1443.5 128.431C1445.97 127.098 1448.92 126.431 1452.35 126.431C1455.05 126.431 1457.42 126.864 1459.45 127.731C1461.49 128.598 1463.07 129.831 1464.2 131.431C1465.37 133.031 1465.95 134.914 1465.95 137.081C1465.95 138.214 1465.8 139.348 1465.5 140.481C1465.2 141.581 1464.62 142.764 1463.75 144.031C1462.92 145.264 1461.67 146.648 1460 148.181L1449.6 157.781L1447.95 154.281H1466.9V162.131H1439.65Z" fill="black"/>
<path d="M1459.87 327.876C1457.07 327.876 1454.48 327.426 1452.12 326.526C1449.75 325.626 1447.68 324.359 1445.92 322.726C1444.18 321.059 1442.83 319.126 1441.87 316.926C1440.9 314.726 1440.42 312.309 1440.42 309.676C1440.42 307.042 1440.9 304.626 1441.87 302.426C1442.83 300.226 1444.18 298.309 1445.92 296.676C1447.68 295.009 1449.75 293.726 1452.12 292.826C1454.48 291.926 1457.07 291.476 1459.87 291.476C1462.7 291.476 1465.28 291.926 1467.62 292.826C1469.98 293.726 1472.03 295.009 1473.77 296.676C1475.5 298.309 1476.85 300.226 1477.82 302.426C1478.82 304.626 1479.32 307.042 1479.32 309.676C1479.32 312.309 1478.82 314.742 1477.82 316.976C1476.85 319.176 1475.5 321.092 1473.77 322.726C1472.03 324.359 1469.98 325.626 1467.62 326.526C1465.28 327.426 1462.7 327.876 1459.87 327.876ZM1459.87 319.676C1461.2 319.676 1462.43 319.442 1463.57 318.976C1464.73 318.509 1465.73 317.842 1466.57 316.976C1467.43 316.076 1468.1 315.009 1468.57 313.776C1469.07 312.542 1469.32 311.176 1469.32 309.676C1469.32 308.142 1469.07 306.776 1468.57 305.576C1468.1 304.342 1467.43 303.292 1466.57 302.426C1465.73 301.526 1464.73 300.842 1463.57 300.376C1462.43 299.909 1461.2 299.676 1459.87 299.676C1458.53 299.676 1457.28 299.909 1456.12 300.376C1454.98 300.842 1453.98 301.526 1453.12 302.426C1452.28 303.292 1451.62 304.342 1451.12 305.576C1450.65 306.776 1450.42 308.142 1450.42 309.676C1450.42 311.176 1450.65 312.542 1451.12 313.776C1451.62 315.009 1452.28 316.076 1453.12 316.976C1453.98 317.842 1454.98 318.509 1456.12 318.976C1457.28 319.442 1458.53 319.676 1459.87 319.676ZM1484.5 327.176V292.176H1500.5C1503.7 292.176 1506.45 292.692 1508.75 293.726C1511.08 294.759 1512.88 296.259 1514.15 298.226C1515.42 300.159 1516.05 302.459 1516.05 305.126C1516.05 307.759 1515.42 310.042 1514.15 311.976C1512.88 313.876 1511.08 315.342 1508.75 316.376C1506.45 317.376 1503.7 317.876 1500.5 317.876H1490L1494.4 313.726V327.176H1484.5ZM1506.15 327.176L1497.45 314.426H1508L1516.75 327.176H1506.15ZM1494.4 314.776L1490 310.226H1499.9C1501.97 310.226 1503.5 309.776 1504.5 308.876C1505.53 307.976 1506.05 306.726 1506.05 305.126C1506.05 303.492 1505.53 302.226 1504.5 301.326C1503.5 300.426 1501.97 299.976 1499.9 299.976H1490L1494.4 295.426V314.776Z" fill="black"/>
<path d="M1739.67 327.876C1736.87 327.876 1734.28 327.426 1731.92 326.526C1729.55 325.626 1727.48 324.359 1725.72 322.726C1723.98 321.059 1722.63 319.126 1721.67 316.926C1720.7 314.726 1720.22 312.309 1720.22 309.676C1720.22 307.042 1720.7 304.626 1721.67 302.426C1722.63 300.226 1723.98 298.309 1725.72 296.676C1727.48 295.009 1729.55 293.726 1731.92 292.826C1734.28 291.926 1736.87 291.476 1739.67 291.476C1742.5 291.476 1745.08 291.926 1747.42 292.826C1749.78 293.726 1751.83 295.009 1753.57 296.676C1755.3 298.309 1756.65 300.226 1757.62 302.426C1758.62 304.626 1759.12 307.042 1759.12 309.676C1759.12 312.309 1758.62 314.742 1757.62 316.976C1756.65 319.176 1755.3 321.092 1753.57 322.726C1751.83 324.359 1749.78 325.626 1747.42 326.526C1745.08 327.426 1742.5 327.876 1739.67 327.876ZM1739.67 319.676C1741 319.676 1742.23 319.442 1743.37 318.976C1744.53 318.509 1745.53 317.842 1746.37 316.976C1747.23 316.076 1747.9 315.009 1748.37 313.776C1748.87 312.542 1749.12 311.176 1749.12 309.676C1749.12 308.142 1748.87 306.776 1748.37 305.576C1747.9 304.342 1747.23 303.292 1746.37 302.426C1745.53 301.526 1744.53 300.842 1743.37 300.376C1742.23 299.909 1741 299.676 1739.67 299.676C1738.33 299.676 1737.08 299.909 1735.92 300.376C1734.78 300.842 1733.78 301.526 1732.92 302.426C1732.08 303.292 1731.42 304.342 1730.92 305.576C1730.45 306.776 1730.22 308.142 1730.22 309.676C1730.22 311.176 1730.45 312.542 1730.92 313.776C1731.42 315.009 1732.08 316.076 1732.92 316.976C1733.78 317.842 1734.78 318.509 1735.92 318.976C1737.08 319.442 1738.33 319.676 1739.67 319.676ZM1764.3 327.176V292.176H1780.3C1783.5 292.176 1786.25 292.692 1788.55 293.726C1790.89 294.759 1792.69 296.259 1793.95 298.226C1795.22 300.159 1795.85 302.459 1795.85 305.126C1795.85 307.759 1795.22 310.042 1793.95 311.976C1792.69 313.876 1790.89 315.342 1788.55 316.376C1786.25 317.376 1783.5 317.876 1780.3 317.876H1769.8L1774.2 313.726V327.176H1764.3ZM1785.95 327.176L1777.25 314.426H1787.8L1796.55 327.176H1785.95ZM1774.2 314.776L1769.8 310.226H1779.7C1781.77 310.226 1783.3 309.776 1784.3 308.876C1785.34 307.976 1785.85 306.726 1785.85 305.126C1785.85 303.492 1785.34 302.226 1784.3 301.326C1783.3 300.426 1781.77 299.976 1779.7 299.976H1769.8L1774.2 295.426V314.776Z" fill="black"/>
<rect x="1530.26" y="223.73" width="174.071" height="174.071" fill="white"/>
<path d="M1584.19 353V283H1617.29C1625.02 283 1631.82 284.433 1637.69 287.3C1643.56 290.167 1648.12 294.2 1651.39 299.4C1654.72 304.6 1656.39 310.8 1656.39 318C1656.39 325.133 1654.72 331.333 1651.39 336.6C1648.12 341.8 1643.56 345.833 1637.69 348.7C1631.82 351.567 1625.02 353 1617.29 353H1584.19ZM1603.99 337.2H1616.49C1620.49 337.2 1623.96 336.467 1626.89 335C1629.89 333.467 1632.22 331.267 1633.89 328.4C1635.56 325.467 1636.39 322 1636.39 318C1636.39 313.933 1635.56 310.467 1633.89 307.6C1632.22 304.733 1629.89 302.567 1626.89 301.1C1623.96 299.567 1620.49 298.8 1616.49 298.8H1603.99V337.2Z" fill="black"/>
<rect x="1807.49" y="223.73" width="174.071" height="174.071" fill="white"/>
<path d="M1900.49 354.4C1894.95 354.4 1889.82 353.533 1885.09 351.8C1880.42 350 1876.35 347.467 1872.89 344.2C1869.49 340.933 1866.82 337.1 1864.89 332.7C1862.95 328.233 1861.99 323.333 1861.99 318C1861.99 312.667 1862.95 307.8 1864.89 303.4C1866.82 298.933 1869.49 295.067 1872.89 291.8C1876.35 288.533 1880.42 286.033 1885.09 284.3C1889.82 282.5 1894.95 281.6 1900.49 281.6C1906.95 281.6 1912.72 282.733 1917.79 285C1922.92 287.267 1927.19 290.533 1930.59 294.8L1917.99 306.2C1915.72 303.533 1913.22 301.5 1910.49 300.1C1907.82 298.7 1904.82 298 1901.49 298C1898.62 298 1895.99 298.467 1893.59 299.4C1891.19 300.333 1889.12 301.7 1887.39 303.5C1885.72 305.233 1884.39 307.333 1883.39 309.8C1882.45 312.267 1881.99 315 1881.99 318C1881.99 321 1882.45 323.733 1883.39 326.2C1884.39 328.667 1885.72 330.8 1887.39 332.6C1889.12 334.333 1891.19 335.667 1893.59 336.6C1895.99 337.533 1898.62 338 1901.49 338C1904.82 338 1907.82 337.3 1910.49 335.9C1913.22 334.5 1915.72 332.467 1917.99 329.8L1930.59 341.2C1927.19 345.4 1922.92 348.667 1917.79 351C1912.72 353.267 1906.95 354.4 1900.49 354.4Z" fill="black"/>
<rect x="610.906" y="593.146" width="840.697" height="386.179" fill="#D9D9D9"/>
<rect x="668" y="741" width="174.071" height="174.071" fill="white"/>
<path d="M714.293 870L745.193 800H764.693L795.693 870H775.093L750.893 809.7H758.693L734.493 870H714.293ZM731.193 856.4L736.293 841.8H770.493L775.593 856.4H731.193Z" fill="black"/>
<path d="M694.668 662.892H710.918V670.292H694.668V662.892ZM695.368 676.692H713.668V684.342H685.568V649.342H713.018V656.992H695.368V676.692ZM719.811 684.342V657.542C719.811 654.275 720.778 651.675 722.711 649.742C724.678 647.775 727.478 646.792 731.111 646.792C732.278 646.792 733.428 646.908 734.561 647.142C735.695 647.375 736.645 647.725 737.411 648.192L735.061 654.892C734.661 654.658 734.211 654.475 733.711 654.342C733.211 654.175 732.711 654.092 732.211 654.092C731.211 654.092 730.428 654.392 729.861 654.992C729.328 655.558 729.061 656.442 729.061 657.642V659.592L729.311 663.542V684.342H719.811ZM715.861 665.342V658.242H735.511V665.342H715.861ZM740.808 684.342V657.542C740.808 654.275 741.774 651.675 743.708 649.742C745.674 647.775 748.474 646.792 752.108 646.792C753.274 646.792 754.424 646.908 755.558 647.142C756.691 647.375 757.641 647.725 758.408 648.192L756.058 654.892C755.658 654.658 755.208 654.475 754.708 654.342C754.208 654.175 753.708 654.092 753.208 654.092C752.208 654.092 751.424 654.392 750.858 654.992C750.324 655.558 750.058 656.442 750.058 657.642V659.592L750.308 663.542V684.342H740.808ZM736.858 665.342V658.242H756.508V665.342H736.858ZM773.927 684.792C770.727 684.792 767.927 684.192 765.527 682.992C763.16 681.758 761.31 680.092 759.977 677.992C758.677 675.858 758.027 673.442 758.027 670.742C758.027 668.042 758.66 665.642 759.927 663.542C761.227 661.408 763.01 659.758 765.277 658.592C767.544 657.392 770.094 656.792 772.927 656.792C775.594 656.792 778.027 657.342 780.227 658.442C782.427 659.508 784.177 661.092 785.477 663.192C786.777 665.292 787.427 667.842 787.427 670.842C787.427 671.175 787.41 671.558 787.377 671.992C787.344 672.425 787.31 672.825 787.277 673.192H765.827V668.192H782.227L778.627 669.592C778.66 668.358 778.427 667.292 777.927 666.392C777.46 665.492 776.794 664.792 775.927 664.292C775.094 663.792 774.11 663.542 772.977 663.542C771.844 663.542 770.844 663.792 769.977 664.292C769.144 664.792 768.494 665.508 768.027 666.442C767.56 667.342 767.327 668.408 767.327 669.642V671.092C767.327 672.425 767.594 673.575 768.127 674.542C768.694 675.508 769.494 676.258 770.527 676.792C771.56 677.292 772.794 677.542 774.227 677.542C775.56 677.542 776.694 677.358 777.627 676.992C778.594 676.592 779.544 675.992 780.477 675.192L785.477 680.392C784.177 681.825 782.577 682.925 780.677 683.692C778.777 684.425 776.527 684.792 773.927 684.792ZM805.657 684.792C802.657 684.792 799.974 684.192 797.607 682.992C795.274 681.792 793.44 680.142 792.107 678.042C790.774 675.908 790.107 673.475 790.107 670.742C790.107 668.008 790.774 665.592 792.107 663.492C793.44 661.392 795.274 659.758 797.607 658.592C799.974 657.392 802.657 656.792 805.657 656.792C808.724 656.792 811.374 657.442 813.607 658.742C815.84 660.042 817.424 661.875 818.357 664.242L811.007 667.992C810.374 666.725 809.59 665.808 808.657 665.242C807.724 664.642 806.707 664.342 805.607 664.342C804.507 664.342 803.507 664.592 802.607 665.092C801.707 665.592 800.99 666.325 800.457 667.292C799.957 668.225 799.707 669.375 799.707 670.742C799.707 672.142 799.957 673.325 800.457 674.292C800.99 675.258 801.707 675.992 802.607 676.492C803.507 676.992 804.507 677.242 805.607 677.242C806.707 677.242 807.724 676.958 808.657 676.392C809.59 675.792 810.374 674.858 811.007 673.592L818.357 677.342C817.424 679.708 815.84 681.542 813.607 682.842C811.374 684.142 808.724 684.792 805.657 684.792ZM834.474 684.792C831.007 684.792 828.307 683.942 826.374 682.242C824.44 680.508 823.474 677.908 823.474 674.442V651.192H832.974V674.342C832.974 675.308 833.24 676.075 833.774 676.642C834.307 677.175 834.99 677.442 835.824 677.442C836.957 677.442 837.924 677.158 838.724 676.592L841.074 683.242C840.274 683.775 839.29 684.158 838.124 684.392C836.957 684.658 835.74 684.792 834.474 684.792ZM819.524 665.342V658.242H839.174V665.342H819.524ZM844.737 684.342V657.242H854.237V684.342H844.737ZM849.487 654.242C847.753 654.242 846.353 653.758 845.287 652.792C844.22 651.825 843.687 650.625 843.687 649.192C843.687 647.758 844.22 646.558 845.287 645.592C846.353 644.625 847.753 644.142 849.487 644.142C851.22 644.142 852.62 644.608 853.687 645.542C854.753 646.442 855.287 647.608 855.287 649.042C855.287 650.542 854.753 651.792 853.687 652.792C852.653 653.758 851.253 654.242 849.487 654.242ZM867.961 684.342L856.811 657.242H866.561L875.461 679.892H870.561L879.911 657.242H888.961L877.761 684.342H867.961ZM904.884 684.792C901.684 684.792 898.884 684.192 896.484 682.992C894.117 681.758 892.267 680.092 890.934 677.992C889.634 675.858 888.984 673.442 888.984 670.742C888.984 668.042 889.617 665.642 890.884 663.542C892.184 661.408 893.967 659.758 896.234 658.592C898.501 657.392 901.051 656.792 903.884 656.792C906.551 656.792 908.984 657.342 911.184 658.442C913.384 659.508 915.134 661.092 916.434 663.192C917.734 665.292 918.384 667.842 918.384 670.842C918.384 671.175 918.367 671.558 918.334 671.992C918.301 672.425 918.267 672.825 918.234 673.192H896.784V668.192H913.184L909.584 669.592C909.617 668.358 909.384 667.292 908.884 666.392C908.417 665.492 907.751 664.792 906.884 664.292C906.051 663.792 905.067 663.542 903.934 663.542C902.801 663.542 901.801 663.792 900.934 664.292C900.101 664.792 899.451 665.508 898.984 666.442C898.517 667.342 898.284 668.408 898.284 669.642V671.092C898.284 672.425 898.551 673.575 899.084 674.542C899.651 675.508 900.451 676.258 901.484 676.792C902.517 677.292 903.751 677.542 905.184 677.542C906.517 677.542 907.651 677.358 908.584 676.992C909.551 676.592 910.501 675.992 911.434 675.192L916.434 680.392C915.134 681.825 913.534 682.925 911.634 683.692C909.734 684.425 907.484 684.792 904.884 684.792ZM937.315 684.342V657.242H946.365V665.142L945.015 662.892C945.815 660.858 947.115 659.342 948.915 658.342C950.715 657.308 952.898 656.792 955.465 656.792V665.342C955.032 665.275 954.648 665.242 954.315 665.242C954.015 665.208 953.682 665.192 953.315 665.192C951.382 665.192 949.815 665.725 948.615 666.792C947.415 667.825 946.815 669.525 946.815 671.892V684.342H937.315ZM970.883 684.792C968.683 684.792 966.7 684.358 964.933 683.492C963.2 682.625 961.833 681.275 960.833 679.442C959.866 677.575 959.383 675.225 959.383 672.392V657.242H968.883V670.842C968.883 672.942 969.266 674.442 970.033 675.342C970.833 676.242 971.95 676.692 973.383 676.692C974.316 676.692 975.166 676.475 975.933 676.042C976.7 675.608 977.316 674.925 977.783 673.992C978.25 673.025 978.483 671.792 978.483 670.292V657.242H987.983V684.342H978.933V676.692L980.683 678.842C979.75 680.842 978.4 682.342 976.633 683.342C974.866 684.308 972.95 684.792 970.883 684.792ZM994.102 684.342V647.242H1003.6V684.342H994.102ZM1023.98 684.792C1020.78 684.792 1017.98 684.192 1015.58 682.992C1013.21 681.758 1011.36 680.092 1010.03 677.992C1008.73 675.858 1008.08 673.442 1008.08 670.742C1008.08 668.042 1008.71 665.642 1009.98 663.542C1011.28 661.408 1013.06 659.758 1015.33 658.592C1017.59 657.392 1020.14 656.792 1022.98 656.792C1025.64 656.792 1028.08 657.342 1030.28 658.442C1032.48 659.508 1034.23 661.092 1035.53 663.192C1036.83 665.292 1037.48 667.842 1037.48 670.842C1037.48 671.175 1037.46 671.558 1037.43 671.992C1037.39 672.425 1037.36 672.825 1037.33 673.192H1015.88V668.192H1032.28L1028.68 669.592C1028.71 668.358 1028.48 667.292 1027.98 666.392C1027.51 665.492 1026.84 664.792 1025.98 664.292C1025.14 663.792 1024.16 663.542 1023.03 663.542C1021.89 663.542 1020.89 663.792 1020.03 664.292C1019.19 664.792 1018.54 665.508 1018.08 666.442C1017.61 667.342 1017.38 668.408 1017.38 669.642V671.092C1017.38 672.425 1017.64 673.575 1018.18 674.542C1018.74 675.508 1019.54 676.258 1020.58 676.792C1021.61 677.292 1022.84 677.542 1024.28 677.542C1025.61 677.542 1026.74 677.358 1027.68 676.992C1028.64 676.592 1029.59 675.992 1030.53 675.192L1035.53 680.392C1034.23 681.825 1032.63 682.925 1030.73 683.692C1028.83 684.425 1026.58 684.792 1023.98 684.792ZM1051.71 684.792C1049.41 684.792 1047.16 684.525 1044.96 683.992C1042.79 683.458 1041.04 682.792 1039.71 681.992L1042.56 675.492C1043.82 676.258 1045.31 676.875 1047.01 677.342C1048.71 677.775 1050.37 677.992 1052.01 677.992C1053.61 677.992 1054.71 677.825 1055.31 677.492C1055.94 677.158 1056.26 676.708 1056.26 676.142C1056.26 675.608 1055.96 675.225 1055.36 674.992C1054.79 674.725 1054.02 674.525 1053.06 674.392C1052.12 674.258 1051.09 674.108 1049.96 673.942C1048.82 673.775 1047.67 673.558 1046.51 673.292C1045.37 672.992 1044.32 672.558 1043.36 671.992C1042.42 671.392 1041.67 670.592 1041.11 669.592C1040.54 668.592 1040.26 667.325 1040.26 665.792C1040.26 664.058 1040.76 662.525 1041.76 661.192C1042.79 659.825 1044.29 658.758 1046.26 657.992C1048.22 657.192 1050.62 656.792 1053.46 656.792C1055.36 656.792 1057.27 656.992 1059.21 657.392C1061.17 657.758 1062.82 658.325 1064.16 659.092L1061.31 665.542C1059.97 664.775 1058.64 664.258 1057.31 663.992C1055.97 663.692 1054.71 663.542 1053.51 663.542C1051.91 663.542 1050.77 663.725 1050.11 664.092C1049.47 664.458 1049.16 664.908 1049.16 665.442C1049.16 665.975 1049.44 666.392 1050.01 666.692C1050.57 666.958 1051.32 667.175 1052.26 667.342C1053.22 667.475 1054.27 667.625 1055.41 667.792C1056.54 667.925 1057.67 668.142 1058.81 668.442C1059.97 668.742 1061.02 669.192 1061.96 669.792C1062.92 670.358 1063.69 671.142 1064.26 672.142C1064.82 673.108 1065.11 674.358 1065.11 675.892C1065.11 677.558 1064.59 679.058 1063.56 680.392C1062.56 681.725 1061.06 682.792 1059.06 683.592C1057.09 684.392 1054.64 684.792 1051.71 684.792ZM1084.85 684.342V657.542C1084.85 654.275 1085.82 651.675 1087.75 649.742C1089.72 647.775 1092.52 646.792 1096.15 646.792C1097.32 646.792 1098.47 646.908 1099.6 647.142C1100.73 647.375 1101.68 647.725 1102.45 648.192L1100.1 654.892C1099.7 654.658 1099.25 654.475 1098.75 654.342C1098.25 654.175 1097.75 654.092 1097.25 654.092C1096.25 654.092 1095.47 654.392 1094.9 654.992C1094.37 655.558 1094.1 656.442 1094.1 657.642V659.592L1094.35 663.542V684.342H1084.85ZM1080.9 665.342V658.242H1100.55V665.342H1080.9ZM1117.37 684.792C1114.4 684.792 1111.77 684.192 1109.47 682.992C1107.17 681.792 1105.35 680.142 1104.02 678.042C1102.72 675.908 1102.07 673.475 1102.07 670.742C1102.07 668.008 1102.72 665.592 1104.02 663.492C1105.35 661.392 1107.17 659.758 1109.47 658.592C1111.77 657.392 1114.4 656.792 1117.37 656.792C1120.34 656.792 1122.97 657.392 1125.27 658.592C1127.6 659.758 1129.42 661.392 1130.72 663.492C1132.02 665.592 1132.67 668.008 1132.67 670.742C1132.67 673.475 1132.02 675.908 1130.72 678.042C1129.42 680.142 1127.6 681.792 1125.27 682.992C1122.97 684.192 1120.34 684.792 1117.37 684.792ZM1117.37 677.242C1118.47 677.242 1119.44 676.992 1120.27 676.492C1121.14 675.992 1121.82 675.258 1122.32 674.292C1122.82 673.292 1123.07 672.108 1123.07 670.742C1123.07 669.375 1122.82 668.225 1122.32 667.292C1121.82 666.325 1121.14 665.592 1120.27 665.092C1119.44 664.592 1118.47 664.342 1117.37 664.342C1116.3 664.342 1115.34 664.592 1114.47 665.092C1113.64 665.592 1112.95 666.325 1112.42 667.292C1111.92 668.225 1111.67 669.375 1111.67 670.742C1111.67 672.108 1111.92 673.292 1112.42 674.292C1112.95 675.258 1113.64 675.992 1114.47 676.492C1115.34 676.992 1116.3 677.242 1117.37 677.242ZM1137.07 684.342V657.242H1146.12V665.142L1144.77 662.892C1145.57 660.858 1146.87 659.342 1148.67 658.342C1150.47 657.308 1152.65 656.792 1155.22 656.792V665.342C1154.79 665.275 1154.4 665.242 1154.07 665.242C1153.77 665.208 1153.44 665.192 1153.07 665.192C1151.14 665.192 1149.57 665.725 1148.37 666.792C1147.17 667.825 1146.57 669.525 1146.57 671.892V684.342H1137.07ZM1190.84 684.792C1188.41 684.792 1186.37 684.292 1184.74 683.292C1183.14 682.292 1181.94 680.758 1181.14 678.692C1180.34 676.625 1179.94 673.975 1179.94 670.742C1179.94 667.575 1180.36 664.958 1181.19 662.892C1182.06 660.825 1183.31 659.292 1184.94 658.292C1186.57 657.292 1188.54 656.792 1190.84 656.792C1193.31 656.792 1195.54 657.358 1197.54 658.492C1199.57 659.625 1201.17 661.242 1202.34 663.342C1203.54 665.408 1204.14 667.875 1204.14 670.742C1204.14 673.642 1203.54 676.142 1202.34 678.242C1201.17 680.308 1199.57 681.925 1197.54 683.092C1195.54 684.225 1193.31 684.792 1190.84 684.792ZM1173.79 684.342V647.242H1183.29V661.792L1182.79 670.742L1182.84 679.692V684.342H1173.79ZM1188.84 677.242C1189.91 677.242 1190.86 676.992 1191.69 676.492C1192.56 675.992 1193.24 675.258 1193.74 674.292C1194.27 673.292 1194.54 672.108 1194.54 670.742C1194.54 669.375 1194.27 668.225 1193.74 667.292C1193.24 666.325 1192.56 665.592 1191.69 665.092C1190.86 664.592 1189.91 664.342 1188.84 664.342C1187.77 664.342 1186.81 664.592 1185.94 665.092C1185.11 665.592 1184.42 666.325 1183.89 667.292C1183.39 668.225 1183.14 669.375 1183.14 670.742C1183.14 672.108 1183.39 673.292 1183.89 674.292C1184.42 675.258 1185.11 675.992 1185.94 676.492C1186.81 676.992 1187.77 677.242 1188.84 677.242ZM1222.16 684.792C1219.19 684.792 1216.56 684.192 1214.26 682.992C1211.96 681.792 1210.14 680.142 1208.81 678.042C1207.51 675.908 1206.86 673.475 1206.86 670.742C1206.86 668.008 1207.51 665.592 1208.81 663.492C1210.14 661.392 1211.96 659.758 1214.26 658.592C1216.56 657.392 1219.19 656.792 1222.16 656.792C1225.12 656.792 1227.76 657.392 1230.06 658.592C1232.39 659.758 1234.21 661.392 1235.51 663.492C1236.81 665.592 1237.46 668.008 1237.46 670.742C1237.46 673.475 1236.81 675.908 1235.51 678.042C1234.21 680.142 1232.39 681.792 1230.06 682.992C1227.76 684.192 1225.12 684.792 1222.16 684.792ZM1222.16 677.242C1223.26 677.242 1224.22 676.992 1225.06 676.492C1225.92 675.992 1226.61 675.258 1227.11 674.292C1227.61 673.292 1227.86 672.108 1227.86 670.742C1227.86 669.375 1227.61 668.225 1227.11 667.292C1226.61 666.325 1225.92 665.592 1225.06 665.092C1224.22 664.592 1223.26 664.342 1222.16 664.342C1221.09 664.342 1220.12 664.592 1219.26 665.092C1218.42 665.592 1217.74 666.325 1217.21 667.292C1216.71 668.225 1216.46 669.375 1216.46 670.742C1216.46 672.108 1216.71 673.292 1217.21 674.292C1217.74 675.258 1218.42 675.992 1219.26 676.492C1220.12 676.992 1221.09 677.242 1222.16 677.242ZM1253.96 684.792C1250.49 684.792 1247.79 683.942 1245.86 682.242C1243.92 680.508 1242.96 677.908 1242.96 674.442V651.192H1252.46V674.342C1252.46 675.308 1252.72 676.075 1253.26 676.642C1253.79 677.175 1254.47 677.442 1255.31 677.442C1256.44 677.442 1257.41 677.158 1258.21 676.592L1260.56 683.242C1259.76 683.775 1258.77 684.158 1257.61 684.392C1256.44 684.658 1255.22 684.792 1253.96 684.792ZM1239.01 665.342V658.242H1258.66V665.342H1239.01ZM1281.87 656.792C1283.97 656.792 1285.87 657.225 1287.57 658.092C1289.27 658.925 1290.6 660.225 1291.57 661.992C1292.57 663.758 1293.07 666.042 1293.07 668.842V684.342H1283.57V670.392C1283.57 668.458 1283.17 667.058 1282.37 666.192C1281.6 665.292 1280.52 664.842 1279.12 664.842C1278.12 664.842 1277.2 665.075 1276.37 665.542C1275.54 665.975 1274.89 666.658 1274.42 667.592C1273.95 668.525 1273.72 669.742 1273.72 671.242V684.342H1264.22V647.242H1273.72V664.942L1271.52 662.692C1272.55 660.725 1273.97 659.258 1275.77 658.292C1277.57 657.292 1279.6 656.792 1281.87 656.792Z" fill="black"/>
<path d="M1013.4 844.7C1010.6 844.7 1008.02 844.25 1005.65 843.35C1003.28 842.45 1001.22 841.183 999.451 839.55C997.718 837.883 996.368 835.95 995.401 833.75C994.435 831.55 993.951 829.133 993.951 826.5C993.951 823.867 994.435 821.45 995.401 819.25C996.368 817.05 997.718 815.133 999.451 813.5C1001.22 811.833 1003.28 810.55 1005.65 809.65C1008.02 808.75 1010.6 808.3 1013.4 808.3C1016.23 808.3 1018.82 808.75 1021.15 809.65C1023.52 810.55 1025.57 811.833 1027.3 813.5C1029.03 815.133 1030.38 817.05 1031.35 819.25C1032.35 821.45 1032.85 823.867 1032.85 826.5C1032.85 829.133 1032.35 831.567 1031.35 833.8C1030.38 836 1029.03 837.917 1027.3 839.55C1025.57 841.183 1023.52 842.45 1021.15 843.35C1018.82 844.25 1016.23 844.7 1013.4 844.7ZM1013.4 836.5C1014.73 836.5 1015.97 836.267 1017.1 835.8C1018.27 835.333 1019.27 834.667 1020.1 833.8C1020.97 832.9 1021.63 831.833 1022.1 830.6C1022.6 829.367 1022.85 828 1022.85 826.5C1022.85 824.967 1022.6 823.6 1022.1 822.4C1021.63 821.167 1020.97 820.117 1020.1 819.25C1019.27 818.35 1018.27 817.667 1017.1 817.2C1015.97 816.733 1014.73 816.5 1013.4 816.5C1012.07 816.5 1010.82 816.733 1009.65 817.2C1008.52 817.667 1007.52 818.35 1006.65 819.25C1005.82 820.117 1005.15 821.167 1004.65 822.4C1004.18 823.6 1003.95 824.967 1003.95 826.5C1003.95 828 1004.18 829.367 1004.65 830.6C1005.15 831.833 1005.82 832.9 1006.65 833.8C1007.52 834.667 1008.52 835.333 1009.65 835.8C1010.82 836.267 1012.07 836.5 1013.4 836.5ZM1038.04 844V809H1054.04C1057.24 809 1059.99 809.517 1062.29 810.55C1064.62 811.583 1066.42 813.083 1067.69 815.05C1068.95 816.983 1069.59 819.283 1069.59 821.95C1069.59 824.583 1068.95 826.867 1067.69 828.8C1066.42 830.7 1064.62 832.167 1062.29 833.2C1059.99 834.2 1057.24 834.7 1054.04 834.7H1043.54L1047.94 830.55V844H1038.04ZM1059.69 844L1050.99 831.25H1061.54L1070.29 844H1059.69ZM1047.94 831.6L1043.54 827.05H1053.44C1055.5 827.05 1057.04 826.6 1058.04 825.7C1059.07 824.8 1059.59 823.55 1059.59 821.95C1059.59 820.317 1059.07 819.05 1058.04 818.15C1057.04 817.25 1055.5 816.8 1053.44 816.8H1043.54L1047.94 812.25V831.6Z" fill="black"/>
<rect x="1222" y="741" width="174.071" height="174.071" fill="white"/>
<path d="M1313.99 871.4C1308.45 871.4 1303.32 870.533 1298.59 868.8C1293.92 867 1289.85 864.467 1286.39 861.2C1282.99 857.933 1280.32 854.1 1278.39 849.7C1276.45 845.233 1275.49 840.333 1275.49 835C1275.49 829.667 1276.45 824.8 1278.39 820.4C1280.32 815.933 1282.99 812.067 1286.39 808.8C1289.85 805.533 1293.92 803.033 1298.59 801.3C1303.32 799.5 1308.45 798.6 1313.99 798.6C1320.45 798.6 1326.22 799.733 1331.29 802C1336.42 804.267 1340.69 807.533 1344.09 811.8L1331.49 823.2C1329.22 820.533 1326.72 818.5 1323.99 817.1C1321.32 815.7 1318.32 815 1314.99 815C1312.12 815 1309.49 815.467 1307.09 816.4C1304.69 817.333 1302.62 818.7 1300.89 820.5C1299.22 822.233 1297.89 824.333 1296.89 826.8C1295.95 829.267 1295.49 832 1295.49 835C1295.49 838 1295.95 840.733 1296.89 843.2C1297.89 845.667 1299.22 847.8 1300.89 849.6C1302.62 851.333 1304.69 852.667 1307.09 853.6C1309.49 854.533 1312.12 855 1314.99 855C1318.32 855 1321.32 854.3 1323.99 852.9C1326.72 851.5 1329.22 849.467 1331.49 846.8L1344.09 858.2C1340.69 862.4 1336.42 865.667 1331.29 868C1326.22 870.267 1320.45 871.4 1313.99 871.4Z" fill="black"/>
<path d="M1100.3 71.2852L1001.66 491.634" stroke="#D9D9D9" stroke-width="20" stroke-linecap="round"/>
</svg>
