<svg width="1920" height="1080" viewBox="0 0 1920 1080" fill="none" xmlns="http://www.w3.org/2000/svg">
<g clip-path="url(#clip0_23186_122734)">
<rect width="1920" height="1080" fill="white"/>
<rect width="65" height="1080" fill="#00C0C3"/>
<path d="M22.1364 621.197H42.5V624.916L29.6832 633.776V633.925H42.5V638.23H22.1364V634.452L34.9432 625.662V625.483H22.1364V621.197ZM42.7884 613.365C42.7884 614.339 42.6193 615.208 42.2812 615.97C41.9366 616.732 41.4295 617.335 40.7599 617.779C40.0838 618.217 39.242 618.436 38.2344 618.436C37.3859 618.436 36.6733 618.28 36.0966 617.968C35.5199 617.657 35.0559 617.233 34.7045 616.696C34.3532 616.159 34.0881 615.549 33.9091 614.866C33.7301 614.177 33.6042 613.454 33.5312 612.699C33.4384 611.81 33.3523 611.094 33.2727 610.551C33.1866 610.007 33.0606 609.613 32.8949 609.368C32.7292 609.122 32.4839 609 32.1591 609H32.0994C31.4697 609 30.9825 609.199 30.6378 609.596C30.2931 609.987 30.1207 610.544 30.1207 611.267C30.1207 612.029 30.2898 612.636 30.6278 613.086C30.9593 613.537 31.3769 613.835 31.8807 613.981L31.5625 617.899C30.6345 617.7 29.8324 617.309 29.1562 616.725C28.4735 616.142 27.9498 615.39 27.5852 614.468C27.214 613.54 27.0284 612.467 27.0284 611.247C27.0284 610.398 27.1278 609.586 27.3267 608.811C27.5256 608.029 27.8338 607.336 28.2514 606.733C28.669 606.123 29.206 605.642 29.8622 605.291C30.5118 604.94 31.2907 604.764 32.1989 604.764H42.5V608.781H40.3821V608.9C40.8594 609.145 41.2803 609.474 41.6449 609.885C42.0028 610.296 42.2846 610.789 42.4901 611.366C42.6889 611.943 42.7884 612.609 42.7884 613.365ZM39.8651 612.152C39.8651 611.529 39.7424 610.978 39.4972 610.501C39.2453 610.024 38.9072 609.649 38.483 609.377C38.0587 609.106 37.5781 608.97 37.0412 608.97H35.4205C35.5066 609.102 35.5862 609.285 35.6591 609.517C35.7254 609.742 35.7884 609.997 35.848 610.282C35.901 610.567 35.9508 610.852 35.9972 611.137C36.0369 611.422 36.0734 611.681 36.1065 611.913C36.1795 612.41 36.2955 612.844 36.4545 613.216C36.6136 613.587 36.8291 613.875 37.1009 614.081C37.366 614.286 37.6974 614.389 38.0952 614.389C38.6719 614.389 39.1127 614.18 39.4176 613.762C39.7159 613.338 39.8651 612.801 39.8651 612.152ZM27.2273 587.786L42.5 593.125V597.898L27.2273 603.238V598.763L38.1548 595.591V595.432L27.2273 592.27V587.786ZM42.5 585.618H27.2273V581.382H42.5V585.618ZM25.2585 583.49C25.2585 584.12 25.0497 584.66 24.6321 585.111C24.2079 585.555 23.7008 585.777 23.1108 585.777C22.5275 585.777 22.027 585.555 21.6094 585.111C21.1851 584.66 20.973 584.12 20.973 583.49C20.973 582.861 21.1851 582.324 21.6094 581.88C22.027 581.429 22.5275 581.203 23.1108 581.203C23.7008 581.203 24.2079 581.429 24.6321 581.88C25.0497 582.324 25.2585 582.861 25.2585 583.49ZM48.5455 571.109C48.5455 572.481 48.3565 573.657 47.9787 574.638C47.6075 575.613 47.1004 576.388 46.4574 576.965C45.8144 577.542 45.0919 577.916 44.2898 578.089L43.7628 574.171C44.0677 574.052 44.3527 573.863 44.6179 573.604C44.883 573.346 45.0952 573.004 45.2543 572.58C45.42 572.149 45.5028 571.626 45.5028 571.009C45.5028 570.088 45.2775 569.329 44.8267 568.732C44.3826 568.129 43.6368 567.827 42.5895 567.827H39.7955V568.006C40.2197 568.192 40.6207 568.47 40.9986 568.842C41.3764 569.213 41.6847 569.69 41.9233 570.273C42.1619 570.857 42.2812 571.553 42.2812 572.362C42.2812 573.508 42.0161 574.552 41.4858 575.494C40.9489 576.428 40.1302 577.174 39.0298 577.731C37.9228 578.281 36.5241 578.556 34.8338 578.556C33.1037 578.556 31.6586 578.274 30.4986 577.711C29.3385 577.147 28.4702 576.398 27.8935 575.464C27.3168 574.522 27.0284 573.492 27.0284 572.371C27.0284 571.516 27.1742 570.8 27.4659 570.224C27.7509 569.647 28.1089 569.183 28.5398 568.832C28.964 568.474 29.3816 568.199 29.7926 568.006V567.847H27.2273V563.641H42.6491C43.9484 563.641 45.0355 563.96 45.9105 564.596C46.7855 565.232 47.4418 566.114 47.8793 567.241C48.3234 568.361 48.5455 569.65 48.5455 571.109ZM39.0994 571.019C39.0994 570.336 38.9304 569.76 38.5923 569.289C38.2476 568.812 37.7571 568.447 37.1207 568.195C36.4777 567.937 35.7088 567.808 34.8139 567.808C33.919 567.808 33.1435 567.933 32.4872 568.185C31.8243 568.437 31.3106 568.802 30.946 569.279C30.5814 569.756 30.3991 570.336 30.3991 571.019C30.3991 571.715 30.5881 572.302 30.9659 572.779C31.3371 573.256 31.8542 573.618 32.517 573.863C33.1799 574.108 33.9455 574.231 34.8139 574.231C35.6955 574.231 36.4579 574.108 37.1009 573.863C37.7372 573.611 38.2311 573.25 38.5824 572.779C38.9271 572.302 39.0994 571.715 39.0994 571.019ZM42.7884 555.915C42.7884 556.89 42.6193 557.758 42.2812 558.521C41.9366 559.283 41.4295 559.886 40.7599 560.33C40.0838 560.768 39.242 560.987 38.2344 560.987C37.3859 560.987 36.6733 560.831 36.0966 560.519C35.5199 560.208 35.0559 559.783 34.7045 559.246C34.3532 558.71 34.0881 558.1 33.9091 557.417C33.7301 556.728 33.6042 556.005 33.5313 555.249C33.4384 554.361 33.3523 553.645 33.2727 553.102C33.1866 552.558 33.0606 552.164 32.8949 551.918C32.7292 551.673 32.4839 551.55 32.1591 551.55H32.0994C31.4697 551.55 30.9825 551.749 30.6378 552.147C30.2931 552.538 30.1207 553.095 30.1207 553.817C30.1207 554.58 30.2898 555.186 30.6278 555.637C30.9593 556.088 31.3769 556.386 31.8807 556.532L31.5625 560.45C30.6345 560.251 29.8324 559.86 29.1563 559.276C28.4735 558.693 27.9498 557.941 27.5852 557.019C27.214 556.091 27.0284 555.017 27.0284 553.798C27.0284 552.949 27.1278 552.137 27.3267 551.362C27.5256 550.579 27.8338 549.887 28.2514 549.283C28.669 548.674 29.206 548.193 29.8622 547.842C30.5118 547.49 31.2907 547.315 32.1989 547.315H42.5V551.332H40.3821V551.451C40.8594 551.696 41.2803 552.024 41.6449 552.435C42.0028 552.846 42.2846 553.34 42.4901 553.917C42.6889 554.494 42.7884 555.16 42.7884 555.915ZM39.8651 554.702C39.8651 554.079 39.7424 553.529 39.4972 553.052C39.2453 552.575 38.9072 552.2 38.483 551.928C38.0587 551.656 37.5781 551.521 37.0412 551.521H35.4205C35.5066 551.653 35.5862 551.835 35.6591 552.067C35.7254 552.293 35.7884 552.548 35.848 552.833C35.901 553.118 35.9508 553.403 35.9972 553.688C36.0369 553.973 36.0734 554.232 36.1065 554.464C36.1795 554.961 36.2955 555.395 36.4545 555.766C36.6136 556.138 36.8291 556.426 37.1009 556.631C37.366 556.837 37.6974 556.94 38.0952 556.94C38.6719 556.94 39.1127 556.731 39.4176 556.313C39.7159 555.889 39.8651 555.352 39.8651 554.702ZM27.2273 535.905H30.4091V545.102H27.2273V535.905ZM23.5682 543.014V538.778H37.8068C38.1979 538.778 38.5028 538.719 38.7216 538.599C38.9337 538.48 39.0829 538.314 39.169 538.102C39.2552 537.884 39.2983 537.632 39.2983 537.347C39.2983 537.148 39.2817 536.949 39.2486 536.75C39.2088 536.551 39.179 536.399 39.1591 536.293L42.3111 535.626C42.3774 535.839 42.4536 536.137 42.5398 536.521C42.6326 536.906 42.6889 537.373 42.7088 537.923C42.7486 538.944 42.6127 539.839 42.3011 540.608C41.9896 541.37 41.5057 541.964 40.8494 542.388C40.1932 542.812 39.3646 543.021 38.3636 543.014H23.5682ZM42.5 533.146H27.2273V528.91H42.5V533.146ZM25.2585 531.018C25.2585 531.647 25.0497 532.188 24.6321 532.638C24.2079 533.083 23.7008 533.305 23.1108 533.305C22.5275 533.305 22.027 533.083 21.6094 532.638C21.1851 532.188 20.973 531.647 20.973 531.018C20.973 530.388 21.1851 529.851 21.6094 529.407C22.027 528.956 22.5275 528.731 23.1108 528.731C23.7008 528.731 24.2079 528.956 24.6321 529.407C25.0497 529.851 25.2585 530.388 25.2585 531.018ZM42.7983 518.616C42.7983 520.161 42.4702 521.496 41.8139 522.623C41.151 523.743 40.2296 524.609 39.0497 525.218C37.8632 525.828 36.4877 526.133 34.9233 526.133C33.3456 526.133 31.9669 525.828 30.7869 525.218C29.6004 524.609 28.679 523.743 28.0227 522.623C27.3598 521.496 27.0284 520.161 27.0284 518.616C27.0284 517.072 27.3598 515.739 28.0227 514.619C28.679 513.492 29.6004 512.624 30.7869 512.014C31.9669 511.404 33.3456 511.099 34.9233 511.099C36.4877 511.099 37.8632 511.404 39.0497 512.014C40.2296 512.624 41.151 513.492 41.8139 514.619C42.4702 515.739 42.7983 517.072 42.7983 518.616ZM39.517 518.596C39.517 517.894 39.3182 517.307 38.9205 516.836C38.5161 516.366 37.9659 516.011 37.2699 515.772C36.5739 515.527 35.7817 515.404 34.8935 515.404C34.0052 515.404 33.2131 515.527 32.517 515.772C31.821 516.011 31.2708 516.366 30.8665 516.836C30.4621 517.307 30.2599 517.894 30.2599 518.596C30.2599 519.306 30.4621 519.902 30.8665 520.386C31.2708 520.863 31.821 521.225 32.517 521.47C33.2131 521.708 34.0052 521.828 34.8935 521.828C35.7817 521.828 36.5739 521.708 37.2699 521.47C37.9659 521.225 38.5161 520.863 38.9205 520.386C39.3182 519.902 39.517 519.306 39.517 518.596ZM33.6705 504.109H42.5V508.345H27.2273V504.308H29.9219V504.129C29.0336 503.791 28.331 503.224 27.8139 502.429C27.2902 501.633 27.0284 500.669 27.0284 499.535C27.0284 498.475 27.2604 497.55 27.7244 496.761C28.1884 495.972 28.8513 495.359 29.7131 494.922C30.5682 494.484 31.589 494.265 32.7756 494.265H42.5L42.5 498.501H33.5313C32.5966 498.494 31.8674 498.733 31.3438 499.217C30.8134 499.701 30.5483 500.367 30.5483 501.216C30.5483 501.786 30.6709 502.289 30.9162 502.727C31.1615 503.158 31.5194 503.496 31.9901 503.741C32.4541 503.98 33.0142 504.102 33.6705 504.109ZM42.5 484.367H22.1364V480.131H29.7926V480.002C29.3816 479.816 28.964 479.548 28.5398 479.196C28.1089 478.838 27.7509 478.374 27.4659 477.804C27.1742 477.228 27.0284 476.512 27.0284 475.657C27.0284 474.543 27.3201 473.516 27.9034 472.574C28.4801 471.633 29.3518 470.881 30.5185 470.317C31.6785 469.754 33.1335 469.472 34.8835 469.472C36.5871 469.472 38.0256 469.747 39.1989 470.297C40.3655 470.841 41.2505 471.583 41.8537 472.525C42.4503 473.459 42.7486 474.507 42.7486 475.667C42.7486 476.489 42.6127 477.188 42.3409 477.765C42.0691 478.335 41.7277 478.802 41.3168 479.167C40.8991 479.531 40.4782 479.81 40.054 480.002V480.191H42.5V484.367ZM34.8636 480.221C35.7718 480.221 36.5639 480.095 37.2401 479.843C37.9162 479.591 38.4432 479.226 38.821 478.749C39.1922 478.272 39.3778 477.692 39.3778 477.009C39.3778 476.319 39.1889 475.736 38.8111 475.259C38.4266 474.782 37.8963 474.42 37.2202 474.175C36.5374 473.923 35.7519 473.797 34.8636 473.797C33.982 473.797 33.2064 473.92 32.5369 474.165C31.8674 474.41 31.3437 474.772 30.9659 475.249C30.5881 475.726 30.3991 476.313 30.3991 477.009C30.3991 477.698 30.5814 478.282 30.946 478.759C31.3106 479.23 31.8277 479.591 32.4972 479.843C33.1667 480.095 33.9555 480.221 34.8636 480.221ZM42.7884 462.29C42.7884 463.265 42.6193 464.133 42.2813 464.896C41.9366 465.658 41.4295 466.261 40.7599 466.705C40.0838 467.143 39.242 467.362 38.2344 467.362C37.3859 467.362 36.6733 467.206 36.0966 466.894C35.5199 466.583 35.0559 466.158 34.7045 465.621C34.3532 465.085 34.0881 464.475 33.9091 463.792C33.7301 463.103 33.6042 462.38 33.5313 461.624C33.4384 460.736 33.3523 460.02 33.2727 459.477C33.1866 458.933 33.0606 458.539 32.8949 458.293C32.7292 458.048 32.4839 457.925 32.1591 457.925H32.0994C31.4697 457.925 30.9825 458.124 30.6378 458.522C30.2931 458.913 30.1207 459.47 30.1207 460.192C30.1207 460.955 30.2898 461.561 30.6278 462.012C30.9593 462.463 31.3769 462.761 31.8807 462.907L31.5625 466.825C30.6345 466.626 29.8324 466.235 29.1563 465.651C28.4735 465.068 27.9498 464.316 27.5852 463.394C27.214 462.466 27.0284 461.392 27.0284 460.173C27.0284 459.324 27.1278 458.512 27.3267 457.737C27.5256 456.954 27.8338 456.262 28.2514 455.658C28.669 455.049 29.206 454.568 29.8622 454.217C30.5118 453.865 31.2907 453.69 32.1989 453.69H42.5V457.707H40.3821V457.826C40.8594 458.071 41.2803 458.399 41.6449 458.81C42.0028 459.221 42.2846 459.715 42.4901 460.292C42.6889 460.869 42.7884 461.535 42.7884 462.29ZM39.8651 461.077C39.8651 460.454 39.7424 459.904 39.4972 459.427C39.2453 458.95 38.9072 458.575 38.483 458.303C38.0587 458.031 37.5781 457.896 37.0412 457.896H35.4205C35.5066 458.028 35.5862 458.21 35.6591 458.442C35.7254 458.668 35.7884 458.923 35.848 459.208C35.901 459.493 35.9508 459.778 35.9972 460.063C36.0369 460.348 36.0734 460.607 36.1065 460.839C36.1795 461.336 36.2955 461.77 36.4545 462.141C36.6136 462.513 36.8291 462.801 37.1009 463.006C37.366 463.212 37.6974 463.315 38.0952 463.315C38.6719 463.315 39.1127 463.106 39.4176 462.688C39.7159 462.264 39.8651 461.727 39.8651 461.077ZM42.5 450.403H27.2273V446.297H29.892V446.138C28.9441 445.859 28.2282 445.392 27.7443 444.736C27.2538 444.08 27.0085 443.324 27.0085 442.469C27.0085 442.257 27.0218 442.028 27.0483 441.783C27.0748 441.537 27.1113 441.322 27.1577 441.136H30.9162C30.8565 441.335 30.8035 441.61 30.7571 441.962C30.7107 442.313 30.6875 442.634 30.6875 442.926C30.6875 443.549 30.8234 444.106 31.0952 444.597C31.3603 445.08 31.7315 445.465 32.2088 445.75C32.6861 446.028 33.2363 446.168 33.8594 446.168H42.5V450.403Z" fill="white"/>
<rect width="260" height="1080" transform="translate(69)" fill="#38A4D4"/>
<path d="M119.939 536.507H116.22C116.114 535.897 115.919 535.357 115.634 534.886C115.348 534.409 114.994 534.005 114.57 533.673C114.145 533.342 113.661 533.093 113.118 532.928C112.581 532.755 112.001 532.669 111.378 532.669C110.271 532.669 109.29 532.947 108.435 533.504C107.58 534.054 106.91 534.863 106.426 535.93C105.942 536.991 105.7 538.287 105.7 539.818C105.7 541.376 105.942 542.688 106.426 543.756C106.917 544.816 107.586 545.618 108.435 546.162C109.29 546.699 110.268 546.967 111.368 546.967C111.978 546.967 112.548 546.888 113.078 546.729C113.615 546.563 114.096 546.321 114.52 546.003C114.951 545.685 115.312 545.294 115.604 544.83C115.902 544.366 116.107 543.835 116.22 543.239L119.939 543.259C119.8 544.226 119.498 545.134 119.034 545.983C118.577 546.831 117.977 547.58 117.234 548.23C116.492 548.873 115.624 549.377 114.629 549.741C113.635 550.099 112.531 550.278 111.318 550.278C109.528 550.278 107.931 549.864 106.526 549.036C105.12 548.207 104.013 547.01 103.205 545.446C102.396 543.882 101.991 542.006 101.991 539.818C101.991 537.624 102.399 535.748 103.214 534.19C104.03 532.626 105.14 531.429 106.545 530.601C107.951 529.772 109.542 529.358 111.318 529.358C112.452 529.358 113.506 529.517 114.48 529.835C115.455 530.153 116.323 530.621 117.085 531.237C117.848 531.847 118.474 532.596 118.964 533.484C119.462 534.366 119.786 535.374 119.939 536.507ZM129.82 550.298C128.328 550.298 127.036 549.97 125.942 549.314C124.848 548.658 124 547.74 123.397 546.56C122.8 545.38 122.502 544.001 122.502 542.423C122.502 540.846 122.8 539.464 123.397 538.277C124 537.09 124.848 536.169 125.942 535.513C127.036 534.857 128.328 534.528 129.82 534.528C131.311 534.528 132.604 534.857 133.698 535.513C134.792 536.169 135.637 537.09 136.233 538.277C136.837 539.464 137.138 540.846 137.138 542.423C137.138 544.001 136.837 545.38 136.233 546.56C135.637 547.74 134.792 548.658 133.698 549.314C132.604 549.97 131.311 550.298 129.82 550.298ZM129.84 547.415C130.649 547.415 131.325 547.193 131.868 546.749C132.412 546.298 132.816 545.695 133.081 544.939C133.353 544.183 133.489 543.341 133.489 542.413C133.489 541.479 133.353 540.634 133.081 539.878C132.816 539.116 132.412 538.509 131.868 538.058C131.325 537.607 130.649 537.382 129.84 537.382C129.011 537.382 128.322 537.607 127.772 538.058C127.228 538.509 126.82 539.116 126.549 539.878C126.283 540.634 126.151 541.479 126.151 542.413C126.151 543.341 126.283 544.183 126.549 544.939C126.82 545.695 127.228 546.298 127.772 546.749C128.322 547.193 129.011 547.415 129.84 547.415ZM143.793 541.051V550H140.193V534.727H143.634V537.322H143.812C144.164 536.467 144.724 535.788 145.493 535.284C146.268 534.78 147.226 534.528 148.366 534.528C149.42 534.528 150.339 534.754 151.121 535.205C151.91 535.655 152.519 536.308 152.95 537.163C153.388 538.018 153.603 539.056 153.597 540.276V550H149.997V540.832C149.997 539.812 149.732 539.013 149.202 538.436C148.678 537.859 147.952 537.571 147.024 537.571C146.394 537.571 145.834 537.71 145.344 537.989C144.86 538.26 144.479 538.655 144.2 539.172C143.929 539.689 143.793 540.315 143.793 541.051ZM170.351 534.727L164.912 550H160.935L155.496 534.727H159.334L162.844 546.072H163.003L166.523 534.727H170.351ZM179.083 550.298C177.552 550.298 176.23 549.98 175.116 549.344C174.009 548.701 173.157 547.793 172.561 546.619C171.964 545.439 171.666 544.051 171.666 542.453C171.666 540.882 171.964 539.503 172.561 538.317C173.164 537.124 174.006 536.196 175.086 535.533C176.167 534.863 177.436 534.528 178.895 534.528C179.836 534.528 180.724 534.681 181.559 534.986C182.401 535.284 183.144 535.748 183.787 536.378C184.436 537.008 184.947 537.81 185.318 538.784C185.689 539.752 185.875 540.905 185.875 542.244V543.348H173.356V540.922H182.424C182.418 540.232 182.269 539.619 181.977 539.082C181.685 538.539 181.278 538.111 180.754 537.8C180.237 537.488 179.634 537.332 178.944 537.332C178.208 537.332 177.562 537.511 177.005 537.869C176.449 538.221 176.014 538.685 175.703 539.261C175.398 539.831 175.242 540.458 175.235 541.141V543.259C175.235 544.147 175.398 544.909 175.723 545.545C176.047 546.175 176.502 546.659 177.085 546.997C177.668 547.329 178.351 547.494 179.133 547.494C179.657 547.494 180.131 547.421 180.555 547.276C180.979 547.123 181.347 546.901 181.659 546.609C181.97 546.318 182.206 545.956 182.365 545.526L185.725 545.903C185.513 546.792 185.109 547.567 184.512 548.23C183.922 548.886 183.167 549.397 182.245 549.761C181.324 550.119 180.27 550.298 179.083 550.298ZM188.92 550V534.727H192.41V537.273H192.569C192.847 536.391 193.325 535.712 194.001 535.234C194.683 534.75 195.462 534.509 196.337 534.509C196.536 534.509 196.758 534.518 197.004 534.538C197.255 534.552 197.464 534.575 197.63 534.608V537.919C197.478 537.866 197.236 537.82 196.904 537.78C196.579 537.733 196.264 537.71 195.96 537.71C195.303 537.71 194.713 537.853 194.19 538.138C193.673 538.416 193.265 538.804 192.967 539.301C192.668 539.798 192.519 540.372 192.519 541.021V550H188.92ZM212.092 538.764L208.811 539.122C208.718 538.791 208.556 538.479 208.324 538.188C208.098 537.896 207.794 537.661 207.409 537.482C207.025 537.303 206.554 537.213 205.997 537.213C205.248 537.213 204.618 537.375 204.108 537.7C203.604 538.025 203.356 538.446 203.362 538.963C203.356 539.407 203.518 539.768 203.849 540.047C204.188 540.325 204.744 540.554 205.52 540.733L208.125 541.29C209.57 541.601 210.644 542.095 211.347 542.771C212.056 543.447 212.414 544.332 212.42 545.426C212.414 546.387 212.132 547.236 211.575 547.972C211.025 548.701 210.259 549.271 209.278 549.682C208.297 550.093 207.17 550.298 205.898 550.298C204.028 550.298 202.524 549.907 201.384 549.125C200.243 548.336 199.564 547.239 199.345 545.834L202.855 545.496C203.014 546.185 203.352 546.705 203.869 547.057C204.386 547.408 205.059 547.584 205.888 547.584C206.743 547.584 207.429 547.408 207.946 547.057C208.47 546.705 208.732 546.271 208.732 545.754C208.732 545.317 208.563 544.955 208.224 544.67C207.893 544.385 207.376 544.167 206.673 544.014L204.068 543.467C202.603 543.162 201.519 542.649 200.817 541.926C200.114 541.197 199.766 540.276 199.773 539.162C199.766 538.221 200.021 537.405 200.538 536.716C201.062 536.02 201.788 535.483 202.716 535.105C203.651 534.721 204.728 534.528 205.947 534.528C207.737 534.528 209.146 534.91 210.173 535.672C211.207 536.434 211.847 537.465 212.092 538.764ZM219.783 550.308C218.816 550.308 217.944 550.136 217.168 549.791C216.399 549.44 215.79 548.923 215.339 548.24C214.895 547.557 214.673 546.715 214.673 545.714C214.673 544.853 214.832 544.14 215.15 543.577C215.468 543.013 215.902 542.562 216.452 542.224C217.003 541.886 217.622 541.631 218.312 541.459C219.008 541.28 219.727 541.151 220.469 541.071C221.364 540.978 222.09 540.895 222.647 540.822C223.204 540.743 223.608 540.624 223.86 540.464C224.119 540.299 224.248 540.044 224.248 539.699V539.639C224.248 538.89 224.026 538.31 223.582 537.899C223.138 537.488 222.498 537.283 221.663 537.283C220.781 537.283 220.082 537.475 219.565 537.859C219.054 538.244 218.71 538.698 218.531 539.222L215.17 538.744C215.435 537.816 215.872 537.041 216.482 536.418C217.092 535.788 217.838 535.317 218.719 535.006C219.601 534.688 220.576 534.528 221.643 534.528C222.379 534.528 223.111 534.615 223.84 534.787C224.569 534.959 225.236 535.244 225.839 535.642C226.442 536.033 226.926 536.567 227.29 537.243C227.662 537.919 227.847 538.764 227.847 539.778V550H224.387V547.902H224.268C224.049 548.326 223.741 548.724 223.343 549.095C222.952 549.46 222.458 549.755 221.862 549.98C221.272 550.199 220.579 550.308 219.783 550.308ZM220.718 547.663C221.441 547.663 222.067 547.521 222.597 547.236C223.128 546.944 223.535 546.56 223.82 546.082C224.112 545.605 224.258 545.085 224.258 544.521V542.722C224.145 542.814 223.953 542.901 223.681 542.98C223.416 543.06 223.118 543.129 222.786 543.189C222.455 543.249 222.127 543.302 221.802 543.348C221.477 543.394 221.195 543.434 220.957 543.467C220.42 543.54 219.939 543.66 219.515 543.825C219.091 543.991 218.756 544.223 218.511 544.521C218.265 544.813 218.143 545.191 218.143 545.655C218.143 546.318 218.385 546.818 218.869 547.156C219.353 547.494 219.969 547.663 220.718 547.663ZM239.093 534.727V537.511H230.313V534.727H239.093ZM232.481 531.068H236.08V545.406C236.08 545.89 236.153 546.261 236.299 546.52C236.451 546.772 236.65 546.944 236.896 547.037C237.141 547.13 237.413 547.176 237.711 547.176C237.936 547.176 238.142 547.16 238.327 547.126C238.52 547.093 238.665 547.063 238.765 547.037L239.371 549.851C239.179 549.917 238.904 549.99 238.546 550.07C238.195 550.149 237.764 550.196 237.254 550.209C236.352 550.235 235.54 550.099 234.817 549.801C234.095 549.496 233.522 549.026 233.097 548.389C232.68 547.753 232.474 546.957 232.481 546.003V531.068ZM242.103 550V534.727H245.703V550H242.103ZM243.913 532.56C243.343 532.56 242.852 532.371 242.441 531.993C242.03 531.608 241.825 531.148 241.825 530.611C241.825 530.067 242.03 529.607 242.441 529.229C242.852 528.844 243.343 528.652 243.913 528.652C244.49 528.652 244.98 528.844 245.385 529.229C245.796 529.607 246.001 530.067 246.001 530.611C246.001 531.148 245.796 531.608 245.385 531.993C244.98 532.371 244.49 532.56 243.913 532.56ZM256.066 550.298C254.575 550.298 253.282 549.97 252.188 549.314C251.094 548.658 250.246 547.74 249.643 546.56C249.046 545.38 248.748 544.001 248.748 542.423C248.748 540.846 249.046 539.464 249.643 538.277C250.246 537.09 251.094 536.169 252.188 535.513C253.282 534.857 254.575 534.528 256.066 534.528C257.558 534.528 258.85 534.857 259.944 535.513C261.038 536.169 261.883 537.09 262.479 538.277C263.083 539.464 263.384 540.846 263.384 542.423C263.384 544.001 263.083 545.38 262.479 546.56C261.883 547.74 261.038 548.658 259.944 549.314C258.85 549.97 257.558 550.298 256.066 550.298ZM256.086 547.415C256.895 547.415 257.571 547.193 258.114 546.749C258.658 546.298 259.062 545.695 259.327 544.939C259.599 544.183 259.735 543.341 259.735 542.413C259.735 541.479 259.599 540.634 259.327 539.878C259.062 539.116 258.658 538.509 258.114 538.058C257.571 537.607 256.895 537.382 256.086 537.382C255.257 537.382 254.568 537.607 254.018 538.058C253.474 538.509 253.067 539.116 252.795 539.878C252.53 540.634 252.397 541.479 252.397 542.413C252.397 543.341 252.53 544.183 252.795 544.939C253.067 545.695 253.474 546.298 254.018 546.749C254.568 547.193 255.257 547.415 256.086 547.415ZM270.039 541.051V550H266.439V534.727H269.88V537.322H270.059C270.41 536.467 270.97 535.788 271.739 535.284C272.515 534.78 273.472 534.528 274.613 534.528C275.667 534.528 276.585 534.754 277.367 535.205C278.156 535.655 278.766 536.308 279.196 537.163C279.634 538.018 279.849 539.056 279.843 540.276V550H276.243V540.832C276.243 539.812 275.978 539.013 275.448 538.436C274.924 537.859 274.198 537.571 273.27 537.571C272.641 537.571 272.08 537.71 271.59 537.989C271.106 538.26 270.725 538.655 270.446 539.172C270.175 539.689 270.039 540.315 270.039 541.051ZM295.573 538.764L292.292 539.122C292.199 538.791 292.036 538.479 291.804 538.188C291.579 537.896 291.274 537.661 290.89 537.482C290.505 537.303 290.034 537.213 289.478 537.213C288.729 537.213 288.099 537.375 287.588 537.7C287.085 538.025 286.836 538.446 286.843 538.963C286.836 539.407 286.998 539.768 287.33 540.047C287.668 540.325 288.225 540.554 289 540.733L291.605 541.29C293.051 541.601 294.124 542.095 294.827 542.771C295.536 543.447 295.894 544.332 295.901 545.426C295.894 546.387 295.613 547.236 295.056 547.972C294.506 548.701 293.74 549.271 292.759 549.682C291.778 550.093 290.651 550.298 289.378 550.298C287.509 550.298 286.004 549.907 284.864 549.125C283.724 548.336 283.044 547.239 282.826 545.834L286.336 545.496C286.495 546.185 286.833 546.705 287.35 547.057C287.867 547.408 288.54 547.584 289.368 547.584C290.223 547.584 290.909 547.408 291.426 547.057C291.95 546.705 292.212 546.271 292.212 545.754C292.212 545.317 292.043 544.955 291.705 544.67C291.373 544.385 290.856 544.167 290.154 544.014L287.549 543.467C286.084 543.162 285 542.649 284.297 541.926C283.595 541.197 283.247 540.276 283.253 539.162C283.247 538.221 283.502 537.405 284.019 536.716C284.542 536.02 285.268 535.483 286.196 535.105C287.131 534.721 288.208 534.528 289.428 534.528C291.218 534.528 292.626 534.91 293.654 535.672C294.688 536.434 295.328 537.465 295.573 538.764Z" fill="white"/>
<rect width="1587" height="65" transform="translate(333)" fill="#4B7EDE"/>
<path d="M1078.27 42.5V22.1364H1082.58V30.5384H1091.32V22.1364H1095.61V42.5H1091.32V34.0881H1082.58V42.5H1078.27ZM1106.04 42.7983C1104.47 42.7983 1103.12 42.4801 1101.98 41.8438C1100.86 41.2008 1099.99 40.2926 1099.38 39.1193C1098.77 37.9394 1098.46 36.544 1098.46 34.9332C1098.46 33.3622 1098.77 31.9834 1099.38 30.7969C1099.99 29.6103 1100.85 28.6856 1101.95 28.0227C1103.07 27.3598 1104.37 27.0284 1105.87 27.0284C1106.88 27.0284 1107.82 27.1908 1108.69 27.5156C1109.56 27.8338 1110.32 28.3144 1110.97 28.9574C1111.63 29.6004 1112.14 30.4091 1112.5 31.3835C1112.87 32.3513 1113.05 33.4848 1113.05 34.7841V35.9474H1100.15V33.3224H1109.06C1109.06 32.7126 1108.93 32.1723 1108.67 31.7017C1108.4 31.2311 1108.03 30.8632 1107.56 30.598C1107.1 30.3262 1106.56 30.1903 1105.94 30.1903C1105.3 30.1903 1104.73 30.3395 1104.23 30.6378C1103.74 30.9295 1103.36 31.3239 1103.08 31.821C1102.8 32.3116 1102.66 32.8584 1102.65 33.4616V35.9574C1102.65 36.7131 1102.79 37.366 1103.07 37.9162C1103.35 38.4664 1103.75 38.8906 1104.27 39.1889C1104.79 39.4872 1105.4 39.6364 1106.11 39.6364C1106.58 39.6364 1107.01 39.5701 1107.4 39.4375C1107.79 39.3049 1108.13 39.1061 1108.41 38.8409C1108.69 38.5758 1108.9 38.2509 1109.04 37.8665L1112.96 38.125C1112.76 39.0663 1112.36 39.8883 1111.74 40.5909C1111.13 41.2869 1110.34 41.8305 1109.37 42.2216C1108.41 42.6061 1107.3 42.7983 1106.04 42.7983ZM1120.17 42.7884C1119.2 42.7884 1118.33 42.6193 1117.57 42.2812C1116.8 41.9366 1116.2 41.4295 1115.76 40.7599C1115.32 40.0838 1115.1 39.242 1115.1 38.2344C1115.1 37.3859 1115.26 36.6733 1115.57 36.0966C1115.88 35.5199 1116.3 35.0559 1116.84 34.7045C1117.38 34.3532 1117.99 34.0881 1118.67 33.9091C1119.36 33.7301 1120.08 33.6042 1120.84 33.5312C1121.72 33.4384 1122.44 33.3523 1122.98 33.2727C1123.53 33.1866 1123.92 33.0606 1124.17 32.8949C1124.41 32.7292 1124.54 32.4839 1124.54 32.1591V32.0994C1124.54 31.4697 1124.34 30.9825 1123.94 30.6378C1123.55 30.2931 1122.99 30.1207 1122.27 30.1207C1121.51 30.1207 1120.9 30.2898 1120.45 30.6278C1120 30.9593 1119.7 31.3769 1119.55 31.8807L1115.64 31.5625C1115.84 30.6345 1116.23 29.8324 1116.81 29.1562C1117.39 28.4735 1118.15 27.9498 1119.07 27.5852C1119.99 27.214 1121.07 27.0284 1122.29 27.0284C1123.14 27.0284 1123.95 27.1278 1124.72 27.3267C1125.51 27.5256 1126.2 27.8338 1126.8 28.2514C1127.41 28.669 1127.89 29.206 1128.24 29.8622C1128.6 30.5118 1128.77 31.2907 1128.77 32.1989V42.5H1124.75V40.3821H1124.63C1124.39 40.8594 1124.06 41.2803 1123.65 41.6449C1123.24 42.0028 1122.75 42.2846 1122.17 42.4901C1121.59 42.6889 1120.93 42.7884 1120.17 42.7884ZM1121.38 39.8651C1122.01 39.8651 1122.56 39.7424 1123.03 39.4972C1123.51 39.2453 1123.89 38.9072 1124.16 38.483C1124.43 38.0587 1124.57 37.5781 1124.57 37.0412V35.4205C1124.43 35.5066 1124.25 35.5862 1124.02 35.6591C1123.79 35.7254 1123.54 35.7884 1123.25 35.848C1122.97 35.901 1122.68 35.9508 1122.4 35.9972C1122.11 36.0369 1121.85 36.0734 1121.62 36.1065C1121.13 36.1795 1120.69 36.2955 1120.32 36.4545C1119.95 36.6136 1119.66 36.8291 1119.45 37.1009C1119.25 37.366 1119.15 37.6974 1119.15 38.0952C1119.15 38.6719 1119.36 39.1127 1119.77 39.4176C1120.2 39.7159 1120.73 39.8651 1121.38 39.8651ZM1137.69 42.7486C1136.53 42.7486 1135.47 42.4503 1134.53 41.8537C1133.6 41.2505 1132.86 40.3655 1132.31 39.1989C1131.76 38.0256 1131.49 36.5871 1131.49 34.8835C1131.49 33.1335 1131.77 31.6785 1132.34 30.5185C1132.9 29.3518 1133.65 28.4801 1134.58 27.9034C1135.52 27.3201 1136.56 27.0284 1137.68 27.0284C1138.53 27.0284 1139.24 27.1742 1139.81 27.4659C1140.39 27.7509 1140.85 28.1089 1141.21 28.5398C1141.56 28.964 1141.83 29.3816 1142.02 29.7926H1142.15V22.1364H1146.38V42.5H1142.2V40.054H1142.02C1141.82 40.4782 1141.54 40.8991 1141.18 41.3168C1140.82 41.7277 1140.35 42.0691 1139.77 42.3409C1139.2 42.6127 1138.51 42.7486 1137.69 42.7486ZM1139.03 39.3778C1139.71 39.3778 1140.29 39.1922 1140.76 38.821C1141.24 38.4432 1141.6 37.9162 1141.85 37.2401C1142.11 36.5639 1142.24 35.7718 1142.24 34.8636C1142.24 33.9555 1142.11 33.1667 1141.86 32.4972C1141.61 31.8277 1141.25 31.3106 1140.77 30.946C1140.29 30.5814 1139.71 30.3991 1139.03 30.3991C1138.33 30.3991 1137.75 30.5881 1137.27 30.9659C1136.79 31.3437 1136.43 31.8674 1136.18 32.5369C1135.94 33.2064 1135.82 33.982 1135.82 34.8636C1135.82 35.7519 1135.94 36.5374 1136.18 37.2202C1136.44 37.8963 1136.8 38.4266 1137.27 38.8111C1137.75 39.1889 1138.33 39.3778 1139.03 39.3778ZM1156.82 42.7983C1155.25 42.7983 1153.9 42.4801 1152.76 41.8438C1151.63 41.2008 1150.77 40.2926 1150.16 39.1193C1149.55 37.9394 1149.24 36.544 1149.24 34.9332C1149.24 33.3622 1149.55 31.9834 1150.16 30.7969C1150.77 29.6103 1151.62 28.6856 1152.73 28.0227C1153.85 27.3598 1155.15 27.0284 1156.65 27.0284C1157.66 27.0284 1158.6 27.1908 1159.46 27.5156C1160.34 27.8338 1161.1 28.3144 1161.75 28.9574C1162.41 29.6004 1162.92 30.4091 1163.28 31.3835C1163.65 32.3513 1163.83 33.4848 1163.83 34.7841V35.9474H1150.93V33.3224H1159.84C1159.84 32.7126 1159.71 32.1723 1159.44 31.7017C1159.18 31.2311 1158.81 30.8632 1158.34 30.598C1157.88 30.3262 1157.34 30.1903 1156.72 30.1903C1156.08 30.1903 1155.51 30.3395 1155.01 30.6378C1154.52 30.9295 1154.13 31.3239 1153.86 31.821C1153.58 32.3116 1153.43 32.8584 1153.43 33.4616V35.9574C1153.43 36.7131 1153.57 37.366 1153.85 37.9162C1154.13 38.4664 1154.53 38.8906 1155.05 39.1889C1155.57 39.4872 1156.18 39.6364 1156.89 39.6364C1157.36 39.6364 1157.79 39.5701 1158.18 39.4375C1158.57 39.3049 1158.91 39.1061 1159.19 38.8409C1159.46 38.5758 1159.68 38.2509 1159.82 37.8665L1163.74 38.125C1163.54 39.0663 1163.13 39.8883 1162.52 40.5909C1161.91 41.2869 1161.12 41.8305 1160.15 42.2216C1159.19 42.6061 1158.08 42.7983 1156.82 42.7983ZM1166.59 42.5V27.2273H1170.7V29.892H1170.86C1171.14 28.9441 1171.6 28.2282 1172.26 27.7443C1172.92 27.2538 1173.67 27.0085 1174.53 27.0085C1174.74 27.0085 1174.97 27.0218 1175.21 27.0483C1175.46 27.0748 1175.67 27.1113 1175.86 27.1577V30.9162C1175.66 30.8565 1175.39 30.8035 1175.03 30.7571C1174.68 30.7107 1174.36 30.6875 1174.07 30.6875C1173.45 30.6875 1172.89 30.8234 1172.4 31.0952C1171.92 31.3603 1171.53 31.7315 1171.25 32.2088C1170.97 32.6861 1170.83 33.2363 1170.83 33.8594V42.5H1166.59Z" fill="white"/>
<rect width="1587" height="827" transform="translate(333 69)" fill="#7366D9"/>
<path d="M1079.74 479.266H1075.38C1075.3 478.702 1075.14 478.202 1074.89 477.764C1074.65 477.32 1074.33 476.942 1073.95 476.631C1073.57 476.319 1073.12 476.08 1072.62 475.915C1072.12 475.749 1071.58 475.666 1071 475.666C1069.94 475.666 1069.03 475.928 1068.24 476.452C1067.46 476.969 1066.85 477.724 1066.42 478.719C1065.99 479.706 1065.78 480.906 1065.78 482.318C1065.78 483.77 1065.99 484.99 1066.42 485.977C1066.86 486.965 1067.47 487.711 1068.25 488.214C1069.04 488.718 1069.94 488.97 1070.97 488.97C1071.54 488.97 1072.08 488.894 1072.57 488.741C1073.07 488.589 1073.51 488.367 1073.89 488.075C1074.28 487.777 1074.59 487.416 1074.85 486.991C1075.1 486.567 1075.28 486.083 1075.38 485.54L1079.74 485.56C1079.62 486.494 1079.34 487.396 1078.89 488.264C1078.45 489.126 1077.85 489.898 1077.09 490.581C1076.34 491.257 1075.45 491.794 1074.41 492.192C1073.37 492.583 1072.2 492.778 1070.9 492.778C1069.08 492.778 1067.46 492.367 1066.03 491.545C1064.6 490.723 1063.47 489.534 1062.64 487.976C1061.82 486.418 1061.41 484.532 1061.41 482.318C1061.41 480.098 1061.83 478.208 1062.66 476.651C1063.5 475.093 1064.63 473.906 1066.07 473.091C1067.5 472.269 1069.11 471.858 1070.9 471.858C1072.08 471.858 1073.17 472.024 1074.18 472.355C1075.19 472.687 1076.09 473.17 1076.87 473.807C1077.66 474.437 1078.29 475.209 1078.78 476.124C1079.28 477.038 1079.6 478.086 1079.74 479.266ZM1086.98 483.67V492.5H1082.75V472.136H1086.86V479.922H1087.04C1087.39 479.02 1087.94 478.314 1088.71 477.804C1089.48 477.287 1090.44 477.028 1091.6 477.028C1092.67 477.028 1093.59 477.26 1094.38 477.724C1095.17 478.182 1095.79 478.841 1096.23 479.703C1096.67 480.558 1096.89 481.582 1096.88 482.776V492.5H1092.65V483.531C1092.66 482.59 1092.42 481.857 1091.93 481.334C1091.46 480.81 1090.79 480.548 1089.92 480.548C1089.35 480.548 1088.84 480.671 1088.39 480.916C1087.96 481.161 1087.61 481.519 1087.36 481.99C1087.11 482.454 1086.99 483.014 1086.98 483.67ZM1104.57 492.788C1103.6 492.788 1102.73 492.619 1101.97 492.281C1101.21 491.937 1100.6 491.429 1100.16 490.76C1099.72 490.084 1099.5 489.242 1099.5 488.234C1099.5 487.386 1099.66 486.673 1099.97 486.097C1100.28 485.52 1100.7 485.056 1101.24 484.705C1101.78 484.353 1102.39 484.088 1103.07 483.909C1103.76 483.73 1104.48 483.604 1105.24 483.531C1106.13 483.438 1106.84 483.352 1107.39 483.273C1107.93 483.187 1108.32 483.061 1108.57 482.895C1108.82 482.729 1108.94 482.484 1108.94 482.159V482.099C1108.94 481.47 1108.74 480.982 1108.34 480.638C1107.95 480.293 1107.39 480.121 1106.67 480.121C1105.91 480.121 1105.3 480.29 1104.85 480.628C1104.4 480.959 1104.1 481.377 1103.96 481.881L1100.04 481.562C1100.24 480.634 1100.63 479.832 1101.21 479.156C1101.8 478.473 1102.55 477.95 1103.47 477.585C1104.4 477.214 1105.47 477.028 1106.69 477.028C1107.54 477.028 1108.35 477.128 1109.13 477.327C1109.91 477.526 1110.6 477.834 1111.2 478.251C1111.81 478.669 1112.3 479.206 1112.65 479.862C1113 480.512 1113.17 481.291 1113.17 482.199V492.5H1109.16V490.382H1109.04C1108.79 490.859 1108.46 491.28 1108.05 491.645C1107.64 492.003 1107.15 492.285 1106.57 492.49C1105.99 492.689 1105.33 492.788 1104.57 492.788ZM1105.79 489.865C1106.41 489.865 1106.96 489.742 1107.44 489.497C1107.91 489.245 1108.29 488.907 1108.56 488.483C1108.83 488.059 1108.97 487.578 1108.97 487.041V485.42C1108.84 485.507 1108.65 485.586 1108.42 485.659C1108.2 485.725 1107.94 485.788 1107.66 485.848C1107.37 485.901 1107.09 485.951 1106.8 485.997C1106.52 486.037 1106.26 486.073 1106.02 486.107C1105.53 486.179 1105.09 486.295 1104.72 486.455C1104.35 486.614 1104.06 486.829 1103.86 487.101C1103.65 487.366 1103.55 487.697 1103.55 488.095C1103.55 488.672 1103.76 489.113 1104.18 489.418C1104.6 489.716 1105.14 489.865 1105.79 489.865ZM1124.58 477.227V480.409H1115.39V477.227H1124.58ZM1117.47 473.568H1121.71V487.807C1121.71 488.198 1121.77 488.503 1121.89 488.722C1122.01 488.934 1122.17 489.083 1122.39 489.169C1122.6 489.255 1122.86 489.298 1123.14 489.298C1123.34 489.298 1123.54 489.282 1123.74 489.249C1123.94 489.209 1124.09 489.179 1124.2 489.159L1124.86 492.311C1124.65 492.377 1124.35 492.454 1123.97 492.54C1123.58 492.633 1123.12 492.689 1122.56 492.709C1121.54 492.749 1120.65 492.613 1119.88 492.301C1119.12 491.99 1118.52 491.506 1118.1 490.849C1117.68 490.193 1117.47 489.365 1117.47 488.364V473.568ZM1138.18 492.788C1137.2 492.788 1136.34 492.619 1135.57 492.281C1134.81 491.937 1134.21 491.429 1133.76 490.76C1133.33 490.084 1133.11 489.242 1133.11 488.234C1133.11 487.386 1133.26 486.673 1133.57 486.097C1133.89 485.52 1134.31 485.056 1134.85 484.705C1135.38 484.353 1135.99 484.088 1136.68 483.909C1137.37 483.73 1138.09 483.604 1138.84 483.531C1139.73 483.438 1140.45 483.352 1140.99 483.273C1141.54 483.187 1141.93 483.061 1142.18 482.895C1142.42 482.729 1142.54 482.484 1142.54 482.159V482.099C1142.54 481.47 1142.34 480.982 1141.95 480.638C1141.56 480.293 1141 480.121 1140.28 480.121C1139.51 480.121 1138.91 480.29 1138.46 480.628C1138.01 480.959 1137.71 481.377 1137.56 481.881L1133.64 481.562C1133.84 480.634 1134.23 479.832 1134.82 479.156C1135.4 478.473 1136.15 477.95 1137.07 477.585C1138 477.214 1139.08 477.028 1140.3 477.028C1141.14 477.028 1141.96 477.128 1142.73 477.327C1143.51 477.526 1144.21 477.834 1144.81 478.251C1145.42 478.669 1145.9 479.206 1146.25 479.862C1146.6 480.512 1146.78 481.291 1146.78 482.199V492.5H1142.76V490.382H1142.64C1142.4 490.859 1142.07 491.28 1141.66 491.645C1141.25 492.003 1140.75 492.285 1140.18 492.49C1139.6 492.689 1138.93 492.788 1138.18 492.788ZM1139.39 489.865C1140.01 489.865 1140.56 489.742 1141.04 489.497C1141.52 489.245 1141.89 488.907 1142.17 488.483C1142.44 488.059 1142.57 487.578 1142.57 487.041V485.42C1142.44 485.507 1142.26 485.586 1142.03 485.659C1141.8 485.725 1141.55 485.788 1141.26 485.848C1140.98 485.901 1140.69 485.951 1140.41 485.997C1140.12 486.037 1139.86 486.073 1139.63 486.107C1139.13 486.179 1138.7 486.295 1138.33 486.455C1137.96 486.614 1137.67 486.829 1137.46 487.101C1137.26 487.366 1137.15 487.697 1137.15 488.095C1137.15 488.672 1137.36 489.113 1137.78 489.418C1138.2 489.716 1138.74 489.865 1139.39 489.865ZM1150.07 492.5V477.227H1154.17V479.892H1154.33C1154.61 478.944 1155.08 478.228 1155.73 477.744C1156.39 477.254 1157.14 477.009 1158 477.009C1158.21 477.009 1158.44 477.022 1158.69 477.048C1158.93 477.075 1159.15 477.111 1159.33 477.158V480.916C1159.13 480.857 1158.86 480.804 1158.51 480.757C1158.16 480.711 1157.83 480.688 1157.54 480.688C1156.92 480.688 1156.36 480.823 1155.87 481.095C1155.39 481.36 1155 481.732 1154.72 482.209C1154.44 482.686 1154.3 483.236 1154.3 483.859V492.5H1150.07ZM1167.77 492.798C1166.2 492.798 1164.85 492.48 1163.71 491.844C1162.59 491.201 1161.72 490.293 1161.11 489.119C1160.5 487.939 1160.19 486.544 1160.19 484.933C1160.19 483.362 1160.5 481.983 1161.11 480.797C1161.72 479.61 1162.58 478.686 1163.69 478.023C1164.8 477.36 1166.1 477.028 1167.6 477.028C1168.61 477.028 1169.55 477.191 1170.42 477.516C1171.29 477.834 1172.05 478.314 1172.7 478.957C1173.36 479.6 1173.87 480.409 1174.23 481.384C1174.6 482.351 1174.78 483.485 1174.78 484.784V485.947H1161.89V483.322H1170.79C1170.79 482.713 1170.66 482.172 1170.4 481.702C1170.13 481.231 1169.76 480.863 1169.29 480.598C1168.83 480.326 1168.29 480.19 1167.67 480.19C1167.03 480.19 1166.46 480.339 1165.96 480.638C1165.47 480.929 1165.09 481.324 1164.81 481.821C1164.53 482.312 1164.39 482.858 1164.38 483.462V485.957C1164.38 486.713 1164.52 487.366 1164.8 487.916C1165.08 488.466 1165.48 488.891 1166 489.189C1166.52 489.487 1167.13 489.636 1167.84 489.636C1168.31 489.636 1168.74 489.57 1169.13 489.438C1169.52 489.305 1169.86 489.106 1170.14 488.841C1170.42 488.576 1170.63 488.251 1170.77 487.866L1174.69 488.125C1174.49 489.066 1174.09 489.888 1173.47 490.591C1172.86 491.287 1172.07 491.83 1171.1 492.222C1170.14 492.606 1169.03 492.798 1167.77 492.798ZM1181.9 492.788C1180.93 492.788 1180.06 492.619 1179.3 492.281C1178.53 491.937 1177.93 491.429 1177.49 490.76C1177.05 490.084 1176.83 489.242 1176.83 488.234C1176.83 487.386 1176.99 486.673 1177.3 486.097C1177.61 485.52 1178.03 485.056 1178.57 484.705C1179.11 484.353 1179.72 484.088 1180.4 483.909C1181.09 483.73 1181.81 483.604 1182.57 483.531C1183.46 483.438 1184.17 483.352 1184.71 483.273C1185.26 483.187 1185.65 483.061 1185.9 482.895C1186.14 482.729 1186.27 482.484 1186.27 482.159V482.099C1186.27 481.47 1186.07 480.982 1185.67 480.638C1185.28 480.293 1184.72 480.121 1184 480.121C1183.24 480.121 1182.63 480.29 1182.18 480.628C1181.73 480.959 1181.43 481.377 1181.28 481.881L1177.37 481.562C1177.57 480.634 1177.96 479.832 1178.54 479.156C1179.12 478.473 1179.88 477.95 1180.8 477.585C1181.73 477.214 1182.8 477.028 1184.02 477.028C1184.87 477.028 1185.68 477.128 1186.45 477.327C1187.24 477.526 1187.93 477.834 1188.53 478.251C1189.14 478.669 1189.62 479.206 1189.97 479.862C1190.33 480.512 1190.5 481.291 1190.5 482.199V492.5H1186.48V490.382H1186.37C1186.12 490.859 1185.79 491.28 1185.38 491.645C1184.97 492.003 1184.48 492.285 1183.9 492.49C1183.32 492.689 1182.66 492.788 1181.9 492.788ZM1183.11 489.865C1183.74 489.865 1184.29 489.742 1184.76 489.497C1185.24 489.245 1185.62 488.907 1185.89 488.483C1186.16 488.059 1186.3 487.578 1186.3 487.041V485.42C1186.16 485.507 1185.98 485.586 1185.75 485.659C1185.52 485.725 1185.27 485.788 1184.98 485.848C1184.7 485.901 1184.41 485.951 1184.13 485.997C1183.84 486.037 1183.58 486.073 1183.35 486.107C1182.86 486.179 1182.42 486.295 1182.05 486.455C1181.68 486.614 1181.39 486.829 1181.19 487.101C1180.98 487.366 1180.88 487.697 1180.88 488.095C1180.88 488.672 1181.09 489.113 1181.5 489.418C1181.93 489.716 1182.46 489.865 1183.11 489.865Z" fill="white"/>
<rect width="1587" height="180" transform="translate(333 900)" fill="#8656C8"/>
<path d="M1084.74 986.766H1080.38C1080.3 986.202 1080.14 985.702 1079.89 985.264C1079.65 984.82 1079.33 984.442 1078.95 984.131C1078.57 983.819 1078.12 983.58 1077.62 983.415C1077.12 983.249 1076.58 983.166 1076 983.166C1074.94 983.166 1074.03 983.428 1073.24 983.952C1072.46 984.469 1071.85 985.224 1071.42 986.219C1070.99 987.206 1070.78 988.406 1070.78 989.818C1070.78 991.27 1070.99 992.49 1071.42 993.477C1071.86 994.465 1072.47 995.211 1073.25 995.714C1074.04 996.218 1074.94 996.47 1075.97 996.47C1076.54 996.47 1077.08 996.394 1077.57 996.241C1078.07 996.089 1078.51 995.867 1078.89 995.575C1079.28 995.277 1079.59 994.916 1079.85 994.491C1080.1 994.067 1080.28 993.583 1080.38 993.04L1084.74 993.06C1084.62 993.994 1084.34 994.896 1083.89 995.764C1083.45 996.626 1082.85 997.398 1082.09 998.081C1081.34 998.757 1080.45 999.294 1079.41 999.692C1078.37 1000.08 1077.2 1000.28 1075.9 1000.28C1074.08 1000.28 1072.46 999.867 1071.03 999.045C1069.6 998.223 1068.47 997.034 1067.64 995.476C1066.82 993.918 1066.41 992.032 1066.41 989.818C1066.41 987.598 1066.83 985.708 1067.66 984.151C1068.5 982.593 1069.63 981.406 1071.07 980.591C1072.5 979.769 1074.11 979.358 1075.9 979.358C1077.08 979.358 1078.17 979.524 1079.18 979.855C1080.19 980.187 1081.09 980.67 1081.87 981.307C1082.66 981.937 1083.29 982.709 1083.78 983.624C1084.28 984.538 1084.6 985.586 1084.74 986.766ZM1091.98 991.17V1000H1087.75V979.636H1091.86V987.422H1092.04C1092.39 986.52 1092.94 985.814 1093.71 985.304C1094.48 984.787 1095.44 984.528 1096.6 984.528C1097.67 984.528 1098.59 984.76 1099.38 985.224C1100.17 985.682 1100.79 986.341 1101.23 987.203C1101.67 988.058 1101.89 989.082 1101.88 990.276V1000H1097.65V991.031C1097.66 990.09 1097.42 989.357 1096.93 988.834C1096.46 988.31 1095.79 988.048 1094.92 988.048C1094.35 988.048 1093.84 988.171 1093.39 988.416C1092.96 988.661 1092.61 989.019 1092.36 989.49C1092.11 989.954 1091.99 990.514 1091.98 991.17ZM1109.57 1000.29C1108.6 1000.29 1107.73 1000.12 1106.97 999.781C1106.21 999.437 1105.6 998.929 1105.16 998.26C1104.72 997.584 1104.5 996.742 1104.5 995.734C1104.5 994.886 1104.66 994.173 1104.97 993.597C1105.28 993.02 1105.7 992.556 1106.24 992.205C1106.78 991.853 1107.39 991.588 1108.07 991.409C1108.76 991.23 1109.48 991.104 1110.24 991.031C1111.13 990.938 1111.84 990.852 1112.39 990.773C1112.93 990.687 1113.32 990.561 1113.57 990.395C1113.82 990.229 1113.94 989.984 1113.94 989.659V989.599C1113.94 988.97 1113.74 988.482 1113.34 988.138C1112.95 987.793 1112.39 987.621 1111.67 987.621C1110.91 987.621 1110.3 987.79 1109.85 988.128C1109.4 988.459 1109.1 988.877 1108.96 989.381L1105.04 989.062C1105.24 988.134 1105.63 987.332 1106.21 986.656C1106.8 985.973 1107.55 985.45 1108.47 985.085C1109.4 984.714 1110.47 984.528 1111.69 984.528C1112.54 984.528 1113.35 984.628 1114.13 984.827C1114.91 985.026 1115.6 985.334 1116.2 985.751C1116.81 986.169 1117.3 986.706 1117.65 987.362C1118 988.012 1118.17 988.791 1118.17 989.699V1000H1114.16V997.882H1114.04C1113.79 998.359 1113.46 998.78 1113.05 999.145C1112.64 999.503 1112.15 999.785 1111.57 999.99C1110.99 1000.19 1110.33 1000.29 1109.57 1000.29ZM1110.79 997.365C1111.41 997.365 1111.96 997.242 1112.44 996.997C1112.91 996.745 1113.29 996.407 1113.56 995.983C1113.83 995.559 1113.97 995.078 1113.97 994.541V992.92C1113.84 993.007 1113.65 993.086 1113.42 993.159C1113.2 993.225 1112.94 993.288 1112.66 993.348C1112.37 993.401 1112.09 993.451 1111.8 993.497C1111.52 993.537 1111.26 993.573 1111.02 993.607C1110.53 993.679 1110.09 993.795 1109.72 993.955C1109.35 994.114 1109.06 994.329 1108.86 994.601C1108.65 994.866 1108.55 995.197 1108.55 995.595C1108.55 996.172 1108.76 996.613 1109.18 996.918C1109.6 997.216 1110.14 997.365 1110.79 997.365ZM1129.58 984.727V987.909H1120.39V984.727H1129.58ZM1122.47 981.068H1126.71V995.307C1126.71 995.698 1126.77 996.003 1126.89 996.222C1127.01 996.434 1127.17 996.583 1127.39 996.669C1127.6 996.755 1127.86 996.798 1128.14 996.798C1128.34 996.798 1128.54 996.782 1128.74 996.749C1128.94 996.709 1129.09 996.679 1129.2 996.659L1129.86 999.811C1129.65 999.877 1129.35 999.954 1128.97 1000.04C1128.58 1000.13 1128.12 1000.19 1127.56 1000.21C1126.54 1000.25 1125.65 1000.11 1124.88 999.801C1124.12 999.49 1123.52 999.006 1123.1 998.349C1122.68 997.693 1122.47 996.865 1122.47 995.864V981.068ZM1138.9 1000V979.636H1143.14V987.293H1143.27C1143.45 986.882 1143.72 986.464 1144.07 986.04C1144.43 985.609 1144.9 985.251 1145.47 984.966C1146.04 984.674 1146.76 984.528 1147.61 984.528C1148.73 984.528 1149.75 984.82 1150.7 985.403C1151.64 985.98 1152.39 986.852 1152.95 988.018C1153.52 989.179 1153.8 990.634 1153.8 992.384C1153.8 994.087 1153.52 995.526 1152.97 996.699C1152.43 997.866 1151.69 998.75 1150.75 999.354C1149.81 999.95 1148.76 1000.25 1147.6 1000.25C1146.78 1000.25 1146.08 1000.11 1145.5 999.841C1144.93 999.569 1144.47 999.228 1144.1 998.817C1143.74 998.399 1143.46 997.978 1143.27 997.554H1143.08V1000H1138.9ZM1143.05 992.364C1143.05 993.272 1143.17 994.064 1143.43 994.74C1143.68 995.416 1144.04 995.943 1144.52 996.321C1145 996.692 1145.58 996.878 1146.26 996.878C1146.95 996.878 1147.53 996.689 1148.01 996.311C1148.49 995.927 1148.85 995.396 1149.09 994.72C1149.35 994.037 1149.47 993.252 1149.47 992.364C1149.47 991.482 1149.35 990.706 1149.1 990.037C1148.86 989.367 1148.5 988.844 1148.02 988.466C1147.54 988.088 1146.96 987.899 1146.26 987.899C1145.57 987.899 1144.99 988.081 1144.51 988.446C1144.04 988.811 1143.68 989.328 1143.43 989.997C1143.17 990.667 1143.05 991.455 1143.05 992.364ZM1163.52 1000.3C1161.98 1000.3 1160.64 999.97 1159.52 999.314C1158.4 998.651 1157.53 997.73 1156.92 996.55C1156.31 995.363 1156.01 993.988 1156.01 992.423C1156.01 990.846 1156.31 989.467 1156.92 988.287C1157.53 987.1 1158.4 986.179 1159.52 985.523C1160.64 984.86 1161.98 984.528 1163.52 984.528C1165.07 984.528 1166.4 984.86 1167.52 985.523C1168.65 986.179 1169.52 987.1 1170.13 988.287C1170.74 989.467 1171.04 990.846 1171.04 992.423C1171.04 993.988 1170.74 995.363 1170.13 996.55C1169.52 997.73 1168.65 998.651 1167.52 999.314C1166.4 999.97 1165.07 1000.3 1163.52 1000.3ZM1163.54 997.017C1164.25 997.017 1164.83 996.818 1165.3 996.42C1165.77 996.016 1166.13 995.466 1166.37 994.77C1166.61 994.074 1166.74 993.282 1166.74 992.393C1166.74 991.505 1166.61 990.713 1166.37 990.017C1166.13 989.321 1165.77 988.771 1165.3 988.366C1164.83 987.962 1164.25 987.76 1163.54 987.76C1162.84 987.76 1162.24 987.962 1161.75 988.366C1161.28 988.771 1160.92 989.321 1160.67 990.017C1160.43 990.713 1160.31 991.505 1160.31 992.393C1160.31 993.282 1160.43 994.074 1160.67 994.77C1160.92 995.466 1161.28 996.016 1161.75 996.42C1162.24 996.818 1162.84 997.017 1163.54 997.017ZM1176.79 984.727L1179.59 990.067L1182.47 984.727H1186.81L1182.39 992.364L1186.93 1000H1182.61L1179.59 994.72L1176.63 1000H1172.25L1176.79 992.364L1172.41 984.727H1176.79Z" fill="white"/>
</g>
<defs>
<clipPath id="clip0_23186_122734">
<rect width="1920" height="1080" fill="white"/>
</clipPath>
</defs>
</svg>
