<svg width="1342" height="709" viewBox="0 0 1342 709" fill="none" xmlns="http://www.w3.org/2000/svg">
<rect y="4" width="1342" height="39" fill="#3F99DA"/>
<path d="M636.6 30V15.4545H639.675V21.456H645.918V15.4545H648.987V30H645.918V23.9915H639.675V30H636.6ZM656.437 30.2131C655.315 30.2131 654.349 29.9858 653.539 29.5312C652.734 29.072 652.114 28.4233 651.678 27.5852C651.243 26.7424 651.025 25.7457 651.025 24.5952C651.025 23.473 651.243 22.4882 651.678 21.6406C652.114 20.7931 652.727 20.1326 653.518 19.6591C654.313 19.1856 655.246 18.9489 656.316 18.9489C657.036 18.9489 657.706 19.0649 658.326 19.2969C658.951 19.5241 659.496 19.8674 659.96 20.3267C660.428 20.786 660.793 21.3636 661.053 22.0597C661.314 22.7509 661.444 23.5606 661.444 24.4886V25.3196H652.232V23.4446H658.596C658.596 23.009 658.501 22.6231 658.312 22.2869C658.122 21.9508 657.86 21.688 657.523 21.4986C657.192 21.3045 656.806 21.2074 656.366 21.2074C655.906 21.2074 655.499 21.3139 655.144 21.527C654.794 21.7353 654.519 22.017 654.32 22.3722C654.121 22.7225 654.02 23.1132 654.015 23.544V25.3267C654.015 25.8665 654.114 26.3329 654.313 26.7259C654.517 27.1188 654.803 27.4219 655.173 27.6349C655.542 27.848 655.98 27.9545 656.487 27.9545C656.823 27.9545 657.13 27.9072 657.41 27.8125C657.689 27.7178 657.928 27.5758 658.127 27.3864C658.326 27.197 658.478 26.965 658.582 26.6903L661.38 26.875C661.238 27.5473 660.947 28.1345 660.506 28.6364C660.071 29.1335 659.507 29.5218 658.816 29.8011C658.129 30.0758 657.336 30.2131 656.437 30.2131ZM666.529 30.206C665.833 30.206 665.213 30.0852 664.668 29.8438C664.124 29.5975 663.693 29.2353 663.376 28.7571C663.063 28.2741 662.907 27.6728 662.907 26.9531C662.907 26.3471 663.018 25.8381 663.241 25.4261C663.463 25.0142 663.766 24.6828 664.15 24.4318C664.533 24.1809 664.969 23.9915 665.457 23.8636C665.949 23.7358 666.465 23.6458 667.005 23.5938C667.639 23.5275 668.151 23.4659 668.539 23.4091C668.927 23.3475 669.209 23.2576 669.384 23.1392C669.559 23.0208 669.647 22.8456 669.647 22.6136V22.571C669.647 22.1212 669.505 21.7732 669.221 21.527C668.942 21.2808 668.544 21.1577 668.028 21.1577C667.483 21.1577 667.05 21.2784 666.728 21.5199C666.406 21.7566 666.193 22.0549 666.089 22.4148L663.29 22.1875C663.433 21.5246 663.712 20.9517 664.129 20.4688C664.545 19.9811 665.083 19.607 665.741 19.3466C666.404 19.0814 667.171 18.9489 668.042 18.9489C668.648 18.9489 669.228 19.0199 669.782 19.1619C670.341 19.304 670.835 19.5241 671.266 19.8224C671.702 20.1207 672.045 20.5043 672.296 20.973C672.547 21.437 672.673 21.9934 672.673 22.642V30H669.803V28.4872H669.718C669.543 28.8281 669.308 29.1288 669.015 29.3892C668.721 29.6449 668.369 29.8461 667.957 29.9929C667.545 30.1349 667.069 30.206 666.529 30.206ZM667.396 28.1179C667.841 28.1179 668.234 28.0303 668.575 27.8551C668.915 27.6752 669.183 27.4337 669.377 27.1307C669.571 26.8277 669.668 26.4844 669.668 26.1009V24.9432C669.574 25.0047 669.443 25.0616 669.278 25.1136C669.117 25.161 668.934 25.206 668.731 25.2486C668.527 25.2865 668.324 25.322 668.12 25.3551C667.916 25.3835 667.732 25.4096 667.566 25.4332C667.211 25.4853 666.901 25.5682 666.636 25.6818C666.371 25.7955 666.165 25.9493 666.018 26.1435C665.871 26.3329 665.798 26.5696 665.798 26.8537C665.798 27.2656 665.947 27.5805 666.245 27.7983C666.548 28.0114 666.932 28.1179 667.396 28.1179ZM679.04 30.1776C678.211 30.1776 677.461 29.9645 676.788 29.5384C676.121 29.1075 675.59 28.4754 675.197 27.642C674.809 26.804 674.615 25.7765 674.615 24.5597C674.615 23.3097 674.816 22.2704 675.219 21.4418C675.621 20.6084 676.156 19.9858 676.824 19.5739C677.496 19.1572 678.232 18.9489 679.033 18.9489C679.643 18.9489 680.152 19.053 680.56 19.2614C680.972 19.465 681.303 19.7206 681.554 20.0284C681.81 20.3314 682.004 20.6297 682.136 20.9233H682.229V15.4545H685.247V30H682.264V28.2528H682.136C681.994 28.5559 681.793 28.8565 681.533 29.1548C681.277 29.4484 680.943 29.6922 680.531 29.8864C680.124 30.0805 679.627 30.1776 679.04 30.1776ZM679.999 27.7699C680.486 27.7699 680.898 27.6373 681.234 27.3722C681.575 27.1023 681.836 26.7259 682.016 26.2429C682.2 25.7599 682.293 25.1941 682.293 24.5455C682.293 23.8968 682.203 23.3333 682.023 22.8551C681.843 22.3769 681.582 22.0076 681.241 21.7472C680.901 21.4867 680.486 21.3565 679.999 21.3565C679.501 21.3565 679.082 21.4915 678.741 21.7614C678.401 22.0312 678.143 22.4053 677.967 22.8835C677.792 23.3617 677.705 23.9157 677.705 24.5455C677.705 25.1799 677.792 25.741 677.967 26.2287C678.147 26.7116 678.405 27.0904 678.741 27.3651C679.082 27.6349 679.501 27.7699 679.999 27.7699ZM692.706 30.2131C691.584 30.2131 690.618 29.9858 689.809 29.5312C689.004 29.072 688.383 28.4233 687.948 27.5852C687.512 26.7424 687.294 25.7457 687.294 24.5952C687.294 23.473 687.512 22.4882 687.948 21.6406C688.383 20.7931 688.997 20.1326 689.787 19.6591C690.583 19.1856 691.516 18.9489 692.586 18.9489C693.305 18.9489 693.975 19.0649 694.596 19.2969C695.221 19.5241 695.765 19.8674 696.229 20.3267C696.698 20.786 697.062 21.3636 697.323 22.0597C697.583 22.7509 697.713 23.5606 697.713 24.4886V25.3196H688.502V23.4446H694.865C694.865 23.009 694.771 22.6231 694.581 22.2869C694.392 21.9508 694.129 21.688 693.793 21.4986C693.462 21.3045 693.076 21.2074 692.635 21.2074C692.176 21.2074 691.769 21.3139 691.414 21.527C691.063 21.7353 690.789 22.017 690.59 22.3722C690.391 22.7225 690.289 23.1132 690.284 23.544V25.3267C690.284 25.8665 690.384 26.3329 690.583 26.7259C690.786 27.1188 691.073 27.4219 691.442 27.6349C691.811 27.848 692.249 27.9545 692.756 27.9545C693.092 27.9545 693.4 27.9072 693.679 27.8125C693.959 27.7178 694.198 27.5758 694.397 27.3864C694.596 27.197 694.747 26.965 694.851 26.6903L697.65 26.875C697.507 27.5473 697.216 28.1345 696.776 28.6364C696.34 29.1335 695.777 29.5218 695.086 29.8011C694.399 30.0758 693.606 30.2131 692.706 30.2131ZM699.688 30V19.0909H702.621V20.9943H702.735C702.934 20.3172 703.267 19.8059 703.736 19.4602C704.205 19.1098 704.745 18.9347 705.355 18.9347C705.507 18.9347 705.67 18.9441 705.846 18.9631C706.021 18.982 706.175 19.008 706.307 19.0412V21.7259C706.165 21.6832 705.969 21.6454 705.718 21.6122C705.467 21.5791 705.237 21.5625 705.029 21.5625C704.584 21.5625 704.186 21.6596 703.836 21.8537C703.49 22.0431 703.215 22.3082 703.012 22.6491C702.813 22.9901 702.713 23.383 702.713 23.8281V30H699.688Z" fill="white"/>
<rect x="193" y="561" width="1149" height="148" fill="#6086E9"/>
<path d="M737.299 632.547H734.188C734.132 632.144 734.016 631.787 733.84 631.474C733.665 631.157 733.44 630.887 733.166 630.665C732.891 630.442 732.574 630.272 732.214 630.153C731.859 630.035 731.473 629.976 731.056 629.976C730.303 629.976 729.648 630.163 729.089 630.537C728.53 630.906 728.097 631.446 727.789 632.156C727.481 632.862 727.328 633.719 727.328 634.727C727.328 635.764 727.481 636.635 727.789 637.341C728.102 638.046 728.537 638.579 729.096 638.939C729.655 639.299 730.301 639.479 731.035 639.479C731.447 639.479 731.828 639.424 732.178 639.315C732.534 639.206 732.848 639.048 733.123 638.839C733.398 638.626 733.625 638.368 733.805 638.065C733.99 637.762 734.117 637.417 734.188 637.028L737.299 637.043C737.219 637.71 737.017 638.354 736.695 638.974C736.378 639.59 735.95 640.142 735.41 640.629C734.875 641.112 734.236 641.496 733.492 641.78C732.754 642.059 731.918 642.199 730.985 642.199C729.688 642.199 728.528 641.905 727.505 641.318C726.487 640.731 725.682 639.881 725.09 638.768C724.503 637.656 724.21 636.309 724.21 634.727C724.21 633.141 724.508 631.792 725.105 630.679C725.701 629.566 726.511 628.719 727.534 628.136C728.556 627.549 729.707 627.256 730.985 627.256C731.828 627.256 732.609 627.374 733.329 627.611C734.053 627.848 734.695 628.193 735.254 628.648C735.812 629.098 736.267 629.649 736.617 630.303C736.972 630.956 737.2 631.704 737.299 632.547ZM742.473 635.693V642H739.448V627.455H742.388V633.016H742.516C742.762 632.372 743.16 631.867 743.709 631.503C744.258 631.134 744.947 630.949 745.776 630.949C746.533 630.949 747.194 631.115 747.757 631.446C748.325 631.773 748.766 632.244 749.078 632.859C749.396 633.47 749.552 634.202 749.547 635.054V642H746.521V635.594C746.526 634.921 746.356 634.398 746.01 634.024C745.669 633.65 745.191 633.463 744.575 633.463C744.164 633.463 743.799 633.551 743.482 633.726C743.169 633.901 742.923 634.157 742.743 634.493C742.568 634.824 742.478 635.224 742.473 635.693ZM755.039 642.206C754.343 642.206 753.723 642.085 753.178 641.844C752.634 641.598 752.203 641.235 751.885 640.757C751.573 640.274 751.417 639.673 751.417 638.953C751.417 638.347 751.528 637.838 751.751 637.426C751.973 637.014 752.276 636.683 752.66 636.432C753.043 636.181 753.479 635.991 753.966 635.864C754.459 635.736 754.975 635.646 755.515 635.594C756.149 635.527 756.661 635.466 757.049 635.409C757.437 635.348 757.719 635.258 757.894 635.139C758.069 635.021 758.157 634.846 758.157 634.614V634.571C758.157 634.121 758.015 633.773 757.731 633.527C757.451 633.281 757.054 633.158 756.537 633.158C755.993 633.158 755.56 633.278 755.238 633.52C754.916 633.757 754.703 634.055 754.599 634.415L751.8 634.188C751.942 633.525 752.222 632.952 752.638 632.469C753.055 631.981 753.592 631.607 754.251 631.347C754.913 631.081 755.68 630.949 756.552 630.949C757.158 630.949 757.738 631.02 758.292 631.162C758.85 631.304 759.345 631.524 759.776 631.822C760.212 632.121 760.555 632.504 760.806 632.973C761.057 633.437 761.182 633.993 761.182 634.642V642H758.313V640.487H758.228C758.053 640.828 757.818 641.129 757.525 641.389C757.231 641.645 756.878 641.846 756.466 641.993C756.055 642.135 755.579 642.206 755.039 642.206ZM755.905 640.118C756.35 640.118 756.743 640.03 757.084 639.855C757.425 639.675 757.693 639.434 757.887 639.131C758.081 638.828 758.178 638.484 758.178 638.101V636.943C758.083 637.005 757.953 637.062 757.787 637.114C757.626 637.161 757.444 637.206 757.241 637.249C757.037 637.286 756.833 637.322 756.63 637.355C756.426 637.384 756.242 637.41 756.076 637.433C755.721 637.485 755.411 637.568 755.145 637.682C754.88 637.795 754.674 637.949 754.528 638.143C754.381 638.333 754.307 638.57 754.307 638.854C754.307 639.266 754.456 639.58 754.755 639.798C755.058 640.011 755.441 640.118 755.905 640.118ZM769.332 631.091V633.364H762.763V631.091H769.332ZM764.254 628.477H767.28V638.648C767.28 638.927 767.322 639.145 767.407 639.301C767.493 639.453 767.611 639.559 767.763 639.621C767.919 639.682 768.099 639.713 768.302 639.713C768.444 639.713 768.586 639.701 768.729 639.678C768.871 639.649 768.979 639.628 769.055 639.614L769.531 641.865C769.38 641.912 769.166 641.967 768.892 642.028C768.617 642.095 768.283 642.135 767.89 642.149C767.161 642.178 766.522 642.08 765.973 641.858C765.428 641.635 765.005 641.29 764.702 640.821C764.398 640.352 764.249 639.76 764.254 639.045V628.477ZM775.989 642V627.455H779.014V632.923H779.107C779.239 632.63 779.431 632.331 779.682 632.028C779.938 631.721 780.269 631.465 780.676 631.261C781.088 631.053 781.6 630.949 782.21 630.949C783.006 630.949 783.74 631.157 784.412 631.574C785.084 631.986 785.622 632.608 786.024 633.442C786.427 634.27 786.628 635.31 786.628 636.56C786.628 637.777 786.432 638.804 786.039 639.642C785.65 640.475 785.12 641.107 784.448 641.538C783.78 641.964 783.032 642.178 782.203 642.178C781.616 642.178 781.117 642.08 780.705 641.886C780.298 641.692 779.964 641.448 779.703 641.155C779.443 640.857 779.244 640.556 779.107 640.253H778.972V642H775.989ZM778.95 636.545C778.95 637.194 779.04 637.76 779.22 638.243C779.4 638.726 779.661 639.102 780.002 639.372C780.343 639.637 780.757 639.77 781.244 639.77C781.737 639.77 782.154 639.635 782.494 639.365C782.835 639.09 783.093 638.712 783.269 638.229C783.449 637.741 783.539 637.18 783.539 636.545C783.539 635.916 783.451 635.362 783.276 634.884C783.101 634.405 782.843 634.031 782.502 633.761C782.161 633.491 781.742 633.357 781.244 633.357C780.752 633.357 780.335 633.487 779.994 633.747C779.658 634.008 779.4 634.377 779.22 634.855C779.04 635.333 778.95 635.897 778.95 636.545ZM793.576 642.213C792.473 642.213 791.519 641.979 790.714 641.51C789.913 641.036 789.296 640.378 788.86 639.536C788.424 638.688 788.206 637.705 788.206 636.588C788.206 635.461 788.424 634.476 788.86 633.634C789.296 632.786 789.913 632.128 790.714 631.659C791.519 631.186 792.473 630.949 793.576 630.949C794.679 630.949 795.631 631.186 796.431 631.659C797.236 632.128 797.856 632.786 798.292 633.634C798.727 634.476 798.945 635.461 798.945 636.588C798.945 637.705 798.727 638.688 798.292 639.536C797.856 640.378 797.236 641.036 796.431 641.51C795.631 641.979 794.679 642.213 793.576 642.213ZM793.59 639.869C794.092 639.869 794.511 639.727 794.847 639.443C795.183 639.154 795.437 638.761 795.607 638.264C795.782 637.767 795.87 637.201 795.87 636.567C795.87 635.932 795.782 635.366 795.607 634.869C795.437 634.372 795.183 633.979 794.847 633.69C794.511 633.402 794.092 633.257 793.59 633.257C793.083 633.257 792.657 633.402 792.312 633.69C791.971 633.979 791.713 634.372 791.537 634.869C791.367 635.366 791.282 635.932 791.282 636.567C791.282 637.201 791.367 637.767 791.537 638.264C791.713 638.761 791.971 639.154 792.312 639.443C792.657 639.727 793.083 639.869 793.59 639.869ZM803.05 631.091L805.053 634.905L807.106 631.091H810.209L807.049 636.545L810.295 642H807.205L805.053 638.229L802.937 642H799.812L803.05 636.545L799.925 631.091H803.05Z" fill="white"/>
<rect x="193" y="53" width="1149" height="498" fill="#30B5BE"/>
<path d="M733.92 299.547H730.809C730.753 299.144 730.637 298.787 730.461 298.474C730.286 298.157 730.061 297.887 729.787 297.665C729.512 297.442 729.195 297.272 728.835 297.153C728.48 297.035 728.094 296.976 727.677 296.976C726.925 296.976 726.269 297.163 725.71 297.537C725.151 297.906 724.718 298.446 724.41 299.156C724.103 299.862 723.949 300.719 723.949 301.727C723.949 302.764 724.103 303.635 724.41 304.341C724.723 305.046 725.158 305.579 725.717 305.939C726.276 306.299 726.922 306.479 727.656 306.479C728.068 306.479 728.449 306.424 728.8 306.315C729.155 306.206 729.47 306.048 729.744 305.839C730.019 305.626 730.246 305.368 730.426 305.065C730.611 304.762 730.738 304.417 730.809 304.028L733.92 304.043C733.84 304.71 733.639 305.354 733.317 305.974C732.999 306.59 732.571 307.142 732.031 307.629C731.496 308.112 730.857 308.496 730.113 308.78C729.375 309.059 728.539 309.199 727.606 309.199C726.309 309.199 725.149 308.905 724.126 308.318C723.108 307.731 722.303 306.881 721.711 305.768C721.124 304.656 720.831 303.309 720.831 301.727C720.831 300.141 721.129 298.792 721.726 297.679C722.322 296.566 723.132 295.719 724.155 295.136C725.177 294.549 726.328 294.256 727.606 294.256C728.449 294.256 729.23 294.374 729.95 294.611C730.675 294.848 731.316 295.193 731.875 295.648C732.434 296.098 732.888 296.649 733.238 297.303C733.594 297.956 733.821 298.704 733.92 299.547ZM739.094 302.693V309H736.069V294.455H739.009V300.016H739.137C739.383 299.372 739.781 298.867 740.33 298.503C740.879 298.134 741.568 297.949 742.397 297.949C743.154 297.949 743.815 298.115 744.378 298.446C744.947 298.773 745.387 299.244 745.699 299.859C746.017 300.47 746.173 301.202 746.168 302.054V309H743.143V302.594C743.147 301.921 742.977 301.398 742.631 301.024C742.29 300.65 741.812 300.463 741.197 300.463C740.785 300.463 740.42 300.551 740.103 300.726C739.79 300.901 739.544 301.157 739.364 301.493C739.189 301.824 739.099 302.224 739.094 302.693ZM751.66 309.206C750.964 309.206 750.344 309.085 749.799 308.844C749.255 308.598 748.824 308.235 748.507 307.757C748.194 307.274 748.038 306.673 748.038 305.953C748.038 305.347 748.149 304.838 748.372 304.426C748.594 304.014 748.897 303.683 749.281 303.432C749.664 303.181 750.1 302.991 750.588 302.864C751.08 302.736 751.596 302.646 752.136 302.594C752.77 302.527 753.282 302.466 753.67 302.409C754.058 302.348 754.34 302.258 754.515 302.139C754.69 302.021 754.778 301.846 754.778 301.614V301.571C754.778 301.121 754.636 300.773 754.352 300.527C754.072 300.281 753.675 300.158 753.159 300.158C752.614 300.158 752.181 300.278 751.859 300.52C751.537 300.757 751.324 301.055 751.22 301.415L748.421 301.188C748.563 300.525 748.843 299.952 749.259 299.469C749.676 298.981 750.213 298.607 750.872 298.347C751.535 298.081 752.302 297.949 753.173 297.949C753.779 297.949 754.359 298.02 754.913 298.162C755.472 298.304 755.966 298.524 756.397 298.822C756.833 299.121 757.176 299.504 757.427 299.973C757.678 300.437 757.803 300.993 757.803 301.642V309H754.934V307.487H754.849C754.674 307.828 754.439 308.129 754.146 308.389C753.852 308.645 753.499 308.846 753.088 308.993C752.676 309.135 752.2 309.206 751.66 309.206ZM752.526 307.118C752.972 307.118 753.365 307.03 753.705 306.855C754.046 306.675 754.314 306.434 754.508 306.131C754.702 305.828 754.799 305.484 754.799 305.101V303.943C754.704 304.005 754.574 304.062 754.409 304.114C754.248 304.161 754.065 304.206 753.862 304.249C753.658 304.286 753.454 304.322 753.251 304.355C753.047 304.384 752.863 304.41 752.697 304.433C752.342 304.485 752.032 304.568 751.767 304.682C751.501 304.795 751.295 304.949 751.149 305.143C751.002 305.333 750.928 305.57 750.928 305.854C750.928 306.266 751.078 306.58 751.376 306.798C751.679 307.011 752.062 307.118 752.526 307.118ZM765.953 298.091V300.364H759.384V298.091H765.953ZM760.875 295.477H763.901V305.648C763.901 305.927 763.943 306.145 764.029 306.301C764.114 306.453 764.232 306.559 764.384 306.621C764.54 306.682 764.72 306.713 764.923 306.713C765.066 306.713 765.208 306.701 765.35 306.678C765.492 306.649 765.601 306.628 765.676 306.614L766.152 308.865C766.001 308.912 765.788 308.967 765.513 309.028C765.238 309.095 764.905 309.135 764.512 309.149C763.782 309.178 763.143 309.08 762.594 308.858C762.049 308.635 761.626 308.29 761.323 307.821C761.02 307.352 760.87 306.76 760.875 306.045V295.477ZM775.664 309.206C774.968 309.206 774.348 309.085 773.803 308.844C773.259 308.598 772.828 308.235 772.51 307.757C772.198 307.274 772.042 306.673 772.042 305.953C772.042 305.347 772.153 304.838 772.376 304.426C772.598 304.014 772.901 303.683 773.285 303.432C773.668 303.181 774.104 302.991 774.591 302.864C775.084 302.736 775.6 302.646 776.14 302.594C776.774 302.527 777.286 302.466 777.674 302.409C778.062 302.348 778.344 302.258 778.519 302.139C778.694 302.021 778.782 301.846 778.782 301.614V301.571C778.782 301.121 778.64 300.773 778.356 300.527C778.076 300.281 777.679 300.158 777.162 300.158C776.618 300.158 776.185 300.278 775.863 300.52C775.541 300.757 775.328 301.055 775.224 301.415L772.425 301.188C772.567 300.525 772.847 299.952 773.263 299.469C773.68 298.981 774.217 298.607 774.876 298.347C775.538 298.081 776.305 297.949 777.177 297.949C777.783 297.949 778.363 298.02 778.917 298.162C779.475 298.304 779.97 298.524 780.401 298.822C780.837 299.121 781.18 299.504 781.431 299.973C781.682 300.437 781.807 300.993 781.807 301.642V309H778.938V307.487H778.853C778.678 307.828 778.443 308.129 778.15 308.389C777.856 308.645 777.503 308.846 777.091 308.993C776.68 309.135 776.204 309.206 775.664 309.206ZM776.53 307.118C776.975 307.118 777.368 307.03 777.709 306.855C778.05 306.675 778.318 306.434 778.512 306.131C778.706 305.828 778.803 305.484 778.803 305.101V303.943C778.708 304.005 778.578 304.062 778.412 304.114C778.251 304.161 778.069 304.206 777.866 304.249C777.662 304.286 777.458 304.322 777.255 304.355C777.051 304.384 776.867 304.41 776.701 304.433C776.346 304.485 776.036 304.568 775.77 304.682C775.505 304.795 775.299 304.949 775.153 305.143C775.006 305.333 774.932 305.57 774.932 305.854C774.932 306.266 775.081 306.58 775.38 306.798C775.683 307.011 776.066 307.118 776.53 307.118ZM784.155 309V298.091H787.088V299.994H787.202C787.4 299.317 787.734 298.806 788.203 298.46C788.672 298.11 789.211 297.935 789.822 297.935C789.974 297.935 790.137 297.944 790.312 297.963C790.488 297.982 790.641 298.008 790.774 298.041V300.726C790.632 300.683 790.435 300.645 790.184 300.612C789.934 300.579 789.704 300.562 789.496 300.562C789.05 300.562 788.653 300.66 788.302 300.854C787.957 301.043 787.682 301.308 787.479 301.649C787.28 301.99 787.18 302.383 787.18 302.828V309H784.155ZM796.802 309.213C795.68 309.213 794.714 308.986 793.904 308.531C793.099 308.072 792.479 307.423 792.044 306.585C791.608 305.742 791.39 304.746 791.39 303.595C791.39 302.473 791.608 301.488 792.044 300.641C792.479 299.793 793.092 299.133 793.883 298.659C794.678 298.186 795.611 297.949 796.681 297.949C797.401 297.949 798.071 298.065 798.691 298.297C799.316 298.524 799.861 298.867 800.325 299.327C800.794 299.786 801.158 300.364 801.419 301.06C801.679 301.751 801.809 302.561 801.809 303.489V304.32H792.597V302.445H798.961C798.961 302.009 798.866 301.623 798.677 301.287C798.488 300.951 798.225 300.688 797.889 300.499C797.557 300.304 797.171 300.207 796.731 300.207C796.272 300.207 795.865 300.314 795.509 300.527C795.159 300.735 794.884 301.017 794.686 301.372C794.487 301.723 794.385 302.113 794.38 302.544V304.327C794.38 304.866 794.48 305.333 794.678 305.726C794.882 306.119 795.169 306.422 795.538 306.635C795.907 306.848 796.345 306.955 796.852 306.955C797.188 306.955 797.496 306.907 797.775 306.812C798.054 306.718 798.294 306.576 798.492 306.386C798.691 306.197 798.843 305.965 798.947 305.69L801.745 305.875C801.603 306.547 801.312 307.134 800.872 307.636C800.436 308.134 799.873 308.522 799.181 308.801C798.495 309.076 797.702 309.213 796.802 309.213ZM806.894 309.206C806.198 309.206 805.578 309.085 805.034 308.844C804.489 308.598 804.058 308.235 803.741 307.757C803.428 307.274 803.272 306.673 803.272 305.953C803.272 305.347 803.383 304.838 803.606 304.426C803.829 304.014 804.132 303.683 804.515 303.432C804.899 303.181 805.334 302.991 805.822 302.864C806.314 302.736 806.83 302.646 807.37 302.594C808.005 302.527 808.516 302.466 808.904 302.409C809.293 302.348 809.574 302.258 809.749 302.139C809.925 302.021 810.012 301.846 810.012 301.614V301.571C810.012 301.121 809.87 300.773 809.586 300.527C809.307 300.281 808.909 300.158 808.393 300.158C807.848 300.158 807.415 300.278 807.093 300.52C806.771 300.757 806.558 301.055 806.454 301.415L803.656 301.188C803.798 300.525 804.077 299.952 804.494 299.469C804.91 298.981 805.448 298.607 806.106 298.347C806.769 298.081 807.536 297.949 808.407 297.949C809.013 297.949 809.593 298.02 810.147 298.162C810.706 298.304 811.201 298.524 811.632 298.822C812.067 299.121 812.41 299.504 812.661 299.973C812.912 300.437 813.038 300.993 813.038 301.642V309H810.169V307.487H810.083C809.908 307.828 809.674 308.129 809.38 308.389C809.087 308.645 808.734 308.846 808.322 308.993C807.91 309.135 807.434 309.206 806.894 309.206ZM807.761 307.118C808.206 307.118 808.599 307.03 808.94 306.855C809.281 306.675 809.548 306.434 809.742 306.131C809.936 305.828 810.034 305.484 810.034 305.101V303.943C809.939 304.005 809.809 304.062 809.643 304.114C809.482 304.161 809.3 304.206 809.096 304.249C808.892 304.286 808.689 304.322 808.485 304.355C808.282 304.384 808.097 304.41 807.931 304.433C807.576 304.485 807.266 304.568 807.001 304.682C806.736 304.795 806.53 304.949 806.383 305.143C806.236 305.333 806.163 305.57 806.163 305.854C806.163 306.266 806.312 306.58 806.61 306.798C806.913 307.011 807.297 307.118 807.761 307.118ZM647.322 359.169C647.322 357.408 647.557 355.786 648.025 354.304C648.499 352.822 649.221 351.449 650.192 350.185H653.082C652.713 350.653 652.37 351.226 652.052 351.903C651.735 352.576 651.458 353.314 651.221 354.119C650.985 354.924 650.8 355.758 650.667 356.619C650.535 357.476 650.469 358.326 650.469 359.169C650.469 360.291 650.582 361.425 650.809 362.571C651.041 363.712 651.354 364.773 651.747 365.753C652.145 366.733 652.59 367.536 653.082 368.161H650.192C649.221 366.896 648.499 365.523 648.025 364.041C647.557 362.559 647.322 360.935 647.322 359.169ZM654.838 365V354.091H657.864V365H654.838ZM656.358 352.685C655.908 352.685 655.522 352.536 655.2 352.237C654.883 351.934 654.725 351.572 654.725 351.151C654.725 350.734 654.883 350.376 655.2 350.078C655.522 349.775 655.908 349.624 656.358 349.624C656.808 349.624 657.191 349.775 657.509 350.078C657.831 350.376 657.992 350.734 657.992 351.151C657.992 351.572 657.831 351.934 657.509 352.237C657.191 352.536 656.808 352.685 656.358 352.685ZM663.313 358.693V365H660.287V354.091H663.171V356.016H663.299C663.54 355.381 663.945 354.879 664.513 354.51C665.081 354.136 665.77 353.949 666.58 353.949C667.338 353.949 667.998 354.115 668.562 354.446C669.125 354.777 669.563 355.251 669.876 355.866C670.188 356.477 670.344 357.206 670.344 358.054V365H667.319V358.594C667.323 357.926 667.153 357.405 666.807 357.031C666.462 356.652 665.986 356.463 665.38 356.463C664.973 356.463 664.613 356.551 664.3 356.726C663.992 356.901 663.751 357.157 663.576 357.493C663.405 357.824 663.318 358.224 663.313 358.693ZM677.658 365.213C676.54 365.213 675.579 364.976 674.774 364.503C673.974 364.025 673.359 363.362 672.928 362.514C672.502 361.667 672.289 360.691 672.289 359.588C672.289 358.471 672.504 357.491 672.935 356.648C673.37 355.8 673.988 355.14 674.789 354.666C675.589 354.188 676.54 353.949 677.644 353.949C678.595 353.949 679.429 354.122 680.144 354.467C680.859 354.813 681.424 355.298 681.841 355.923C682.258 356.548 682.487 357.282 682.53 358.125H679.675C679.594 357.58 679.381 357.143 679.036 356.811C678.695 356.475 678.247 356.307 677.693 356.307C677.225 356.307 676.815 356.435 676.465 356.69C676.119 356.941 675.849 357.308 675.655 357.791C675.461 358.274 675.364 358.859 675.364 359.545C675.364 360.241 675.459 360.833 675.648 361.321C675.842 361.809 676.114 362.18 676.465 362.436C676.815 362.692 677.225 362.82 677.693 362.82C678.039 362.82 678.349 362.749 678.624 362.607C678.903 362.464 679.133 362.259 679.313 361.989C679.497 361.714 679.618 361.385 679.675 361.001H682.53C682.483 361.835 682.255 362.569 681.848 363.203C681.446 363.833 680.889 364.325 680.179 364.68C679.469 365.036 678.628 365.213 677.658 365.213ZM687.493 350.455V365H684.467V350.455H687.493ZM691.685 365.185C691.216 365.185 690.814 365.019 690.477 364.688C690.146 364.351 689.98 363.949 689.98 363.48C689.98 363.016 690.146 362.618 690.477 362.287C690.814 361.955 691.216 361.79 691.685 361.79C692.139 361.79 692.537 361.955 692.878 362.287C693.219 362.618 693.389 363.016 693.389 363.48C693.389 363.793 693.309 364.079 693.148 364.339C692.992 364.595 692.786 364.801 692.53 364.957C692.274 365.109 691.993 365.185 691.685 365.185ZM707.766 354.638C707.709 354.065 707.465 353.62 707.035 353.303C706.604 352.985 706.019 352.827 705.28 352.827C704.778 352.827 704.355 352.898 704.009 353.04C703.663 353.177 703.398 353.369 703.214 353.615C703.034 353.861 702.944 354.141 702.944 354.453C702.934 354.714 702.989 354.941 703.107 355.135C703.23 355.329 703.398 355.497 703.611 355.639C703.824 355.777 704.071 355.897 704.35 356.001C704.629 356.101 704.928 356.186 705.245 356.257L706.552 356.57C707.186 356.712 707.769 356.901 708.299 357.138C708.829 357.375 709.288 357.666 709.677 358.011C710.065 358.357 710.366 358.764 710.579 359.233C710.796 359.702 710.908 360.239 710.912 360.845C710.908 361.735 710.68 362.507 710.231 363.161C709.786 363.809 709.142 364.313 708.299 364.673C707.461 365.028 706.45 365.206 705.266 365.206C704.092 365.206 703.069 365.026 702.198 364.666C701.331 364.306 700.654 363.774 700.167 363.068C699.684 362.358 699.43 361.48 699.407 360.433H702.383C702.416 360.921 702.555 361.328 702.802 361.655C703.053 361.977 703.386 362.221 703.803 362.386C704.224 362.547 704.7 362.628 705.231 362.628C705.751 362.628 706.204 362.552 706.587 362.401C706.975 362.249 707.276 362.038 707.489 361.768C707.702 361.499 707.809 361.188 707.809 360.838C707.809 360.511 707.712 360.237 707.518 360.014C707.328 359.792 707.049 359.602 706.68 359.446C706.315 359.29 705.867 359.148 705.337 359.02L703.753 358.622C702.527 358.324 701.559 357.857 700.849 357.223C700.138 356.589 699.786 355.734 699.79 354.659C699.786 353.778 700.02 353.009 700.493 352.351C700.972 351.693 701.627 351.179 702.461 350.81C703.294 350.44 704.241 350.256 705.302 350.256C706.381 350.256 707.323 350.44 708.128 350.81C708.938 351.179 709.568 351.693 710.018 352.351C710.467 353.009 710.699 353.771 710.714 354.638H707.766ZM718.727 354.091V356.364H712.157V354.091H718.727ZM713.649 351.477H716.674V361.648C716.674 361.927 716.717 362.145 716.802 362.301C716.887 362.453 717.006 362.559 717.157 362.621C717.313 362.682 717.493 362.713 717.697 362.713C717.839 362.713 717.981 362.701 718.123 362.678C718.265 362.649 718.374 362.628 718.45 362.614L718.926 364.865C718.774 364.912 718.561 364.967 718.286 365.028C718.012 365.095 717.678 365.135 717.285 365.149C716.556 365.178 715.917 365.08 715.367 364.858C714.823 364.635 714.399 364.29 714.096 363.821C713.793 363.352 713.644 362.76 713.649 362.045V351.477ZM723.808 365.206C723.112 365.206 722.492 365.085 721.948 364.844C721.403 364.598 720.972 364.235 720.655 363.757C720.343 363.274 720.186 362.673 720.186 361.953C720.186 361.347 720.298 360.838 720.52 360.426C720.743 360.014 721.046 359.683 721.429 359.432C721.813 359.181 722.248 358.991 722.736 358.864C723.228 358.736 723.744 358.646 724.284 358.594C724.919 358.527 725.43 358.466 725.818 358.409C726.207 358.348 726.488 358.258 726.664 358.139C726.839 358.021 726.926 357.846 726.926 357.614V357.571C726.926 357.121 726.784 356.773 726.5 356.527C726.221 356.281 725.823 356.158 725.307 356.158C724.762 356.158 724.329 356.278 724.007 356.52C723.685 356.757 723.472 357.055 723.368 357.415L720.57 357.188C720.712 356.525 720.991 355.952 721.408 355.469C721.825 354.981 722.362 354.607 723.02 354.347C723.683 354.081 724.45 353.949 725.321 353.949C725.927 353.949 726.507 354.02 727.061 354.162C727.62 354.304 728.115 354.524 728.546 354.822C728.981 355.121 729.325 355.504 729.575 355.973C729.826 356.437 729.952 356.993 729.952 357.642V365H727.083V363.487H726.997C726.822 363.828 726.588 364.129 726.294 364.389C726.001 364.645 725.648 364.846 725.236 364.993C724.824 365.135 724.348 365.206 723.808 365.206ZM724.675 363.118C725.12 363.118 725.513 363.03 725.854 362.855C726.195 362.675 726.462 362.434 726.656 362.131C726.851 361.828 726.948 361.484 726.948 361.101V359.943C726.853 360.005 726.723 360.062 726.557 360.114C726.396 360.161 726.214 360.206 726.01 360.249C725.807 360.286 725.603 360.322 725.399 360.355C725.196 360.384 725.011 360.41 724.845 360.433C724.49 360.485 724.18 360.568 723.915 360.682C723.65 360.795 723.444 360.949 723.297 361.143C723.15 361.333 723.077 361.57 723.077 361.854C723.077 362.266 723.226 362.58 723.524 362.798C723.827 363.011 724.211 363.118 724.675 363.118ZM732.299 365V354.091H735.232V355.994H735.346C735.545 355.317 735.879 354.806 736.347 354.46C736.816 354.11 737.356 353.935 737.967 353.935C738.118 353.935 738.282 353.944 738.457 353.963C738.632 353.982 738.786 354.008 738.919 354.041V356.726C738.776 356.683 738.58 356.645 738.329 356.612C738.078 356.579 737.848 356.562 737.64 356.562C737.195 356.562 736.797 356.66 736.447 356.854C736.101 357.043 735.827 357.308 735.623 357.649C735.424 357.99 735.325 358.383 735.325 358.828V365H732.299ZM746.832 354.091V356.364H740.263V354.091H746.832ZM741.754 351.477H744.78V361.648C744.78 361.927 744.822 362.145 744.907 362.301C744.993 362.453 745.111 362.559 745.263 362.621C745.419 362.682 745.599 362.713 745.802 362.713C745.944 362.713 746.086 362.701 746.229 362.678C746.371 362.649 746.479 362.628 746.555 362.614L747.031 364.865C746.88 364.912 746.666 364.967 746.392 365.028C746.117 365.095 745.783 365.135 745.39 365.149C744.661 365.178 744.022 365.08 743.473 364.858C742.928 364.635 742.505 364.29 742.202 363.821C741.898 363.352 741.749 362.76 741.754 362.045V351.477ZM766.323 355.547H763.212C763.155 355.144 763.039 354.787 762.864 354.474C762.689 354.157 762.464 353.887 762.189 353.665C761.914 353.442 761.597 353.272 761.237 353.153C760.882 353.035 760.496 352.976 760.08 352.976C759.327 352.976 758.671 353.163 758.112 353.537C757.554 353.906 757.12 354.446 756.813 355.156C756.505 355.862 756.351 356.719 756.351 357.727C756.351 358.764 756.505 359.635 756.813 360.341C757.125 361.046 757.561 361.579 758.119 361.939C758.678 362.299 759.325 362.479 760.058 362.479C760.47 362.479 760.852 362.424 761.202 362.315C761.557 362.206 761.872 362.048 762.146 361.839C762.421 361.626 762.648 361.368 762.828 361.065C763.013 360.762 763.141 360.417 763.212 360.028L766.323 360.043C766.242 360.71 766.041 361.354 765.719 361.974C765.402 362.59 764.973 363.142 764.433 363.629C763.898 364.112 763.259 364.496 762.516 364.78C761.777 365.059 760.941 365.199 760.009 365.199C758.711 365.199 757.551 364.905 756.529 364.318C755.511 363.731 754.706 362.881 754.114 361.768C753.527 360.656 753.233 359.309 753.233 357.727C753.233 356.141 753.531 354.792 754.128 353.679C754.725 352.566 755.534 351.719 756.557 351.136C757.58 350.549 758.73 350.256 760.009 350.256C760.852 350.256 761.633 350.374 762.352 350.611C763.077 350.848 763.718 351.193 764.277 351.648C764.836 352.098 765.29 352.649 765.641 353.303C765.996 353.956 766.223 354.704 766.323 355.547ZM771.497 358.693V365H768.471V350.455H771.411V356.016H771.539C771.785 355.372 772.183 354.867 772.732 354.503C773.282 354.134 773.971 353.949 774.799 353.949C775.557 353.949 776.217 354.115 776.781 354.446C777.349 354.773 777.789 355.244 778.102 355.859C778.419 356.47 778.575 357.202 778.57 358.054V365H775.545V358.594C775.55 357.921 775.379 357.398 775.034 357.024C774.693 356.65 774.214 356.463 773.599 356.463C773.187 356.463 772.822 356.551 772.505 356.726C772.193 356.901 771.946 357.157 771.767 357.493C771.591 357.824 771.501 358.224 771.497 358.693ZM784.062 365.206C783.366 365.206 782.746 365.085 782.202 364.844C781.657 364.598 781.226 364.235 780.909 363.757C780.596 363.274 780.44 362.673 780.44 361.953C780.44 361.347 780.551 360.838 780.774 360.426C780.997 360.014 781.3 359.683 781.683 359.432C782.067 359.181 782.502 358.991 782.99 358.864C783.482 358.736 783.998 358.646 784.538 358.594C785.173 358.527 785.684 358.466 786.072 358.409C786.461 358.348 786.742 358.258 786.917 358.139C787.093 358.021 787.18 357.846 787.18 357.614V357.571C787.18 357.121 787.038 356.773 786.754 356.527C786.475 356.281 786.077 356.158 785.561 356.158C785.016 356.158 784.583 356.278 784.261 356.52C783.939 356.757 783.726 357.055 783.622 357.415L780.824 357.188C780.966 356.525 781.245 355.952 781.662 355.469C782.078 354.981 782.616 354.607 783.274 354.347C783.937 354.081 784.704 353.949 785.575 353.949C786.181 353.949 786.761 354.02 787.315 354.162C787.874 354.304 788.369 354.524 788.8 354.822C789.235 355.121 789.578 355.504 789.829 355.973C790.08 356.437 790.206 356.993 790.206 357.642V365H787.336V363.487H787.251C787.076 363.828 786.842 364.129 786.548 364.389C786.255 364.645 785.902 364.846 785.49 364.993C785.078 365.135 784.602 365.206 784.062 365.206ZM784.929 363.118C785.374 363.118 785.767 363.03 786.108 362.855C786.449 362.675 786.716 362.434 786.91 362.131C787.104 361.828 787.202 361.484 787.202 361.101V359.943C787.107 360.005 786.977 360.062 786.811 360.114C786.65 360.161 786.468 360.206 786.264 360.249C786.06 360.286 785.857 360.322 785.653 360.355C785.45 360.384 785.265 360.41 785.099 360.433C784.744 360.485 784.434 360.568 784.169 360.682C783.904 360.795 783.698 360.949 783.551 361.143C783.404 361.333 783.331 361.57 783.331 361.854C783.331 362.266 783.48 362.58 783.778 362.798C784.081 363.011 784.465 363.118 784.929 363.118ZM798.356 354.091V356.364H791.786V354.091H798.356ZM793.278 351.477H796.303V361.648C796.303 361.927 796.346 362.145 796.431 362.301C796.516 362.453 796.635 362.559 796.786 362.621C796.942 362.682 797.122 362.713 797.326 362.713C797.468 362.713 797.61 362.701 797.752 362.678C797.894 362.649 798.003 362.628 798.079 362.614L798.555 364.865C798.403 364.912 798.19 364.967 797.915 365.028C797.641 365.095 797.307 365.135 796.914 365.149C796.185 365.178 795.546 365.08 794.996 364.858C794.452 364.635 794.028 364.29 793.725 363.821C793.422 363.352 793.273 362.76 793.278 362.045V351.477ZM807.107 365L804.139 354.091H807.2L808.89 361.42H808.99L810.751 354.091H813.755L815.545 361.378H815.637L817.299 354.091H820.353L817.392 365H814.188L812.313 358.139H812.178L810.303 365H807.107ZM821.967 365V354.091H824.993V365H821.967ZM823.487 352.685C823.037 352.685 822.651 352.536 822.329 352.237C822.012 351.934 821.854 351.572 821.854 351.151C821.854 350.734 822.012 350.376 822.329 350.078C822.651 349.775 823.037 349.624 823.487 349.624C823.937 349.624 824.32 349.775 824.638 350.078C824.96 350.376 825.121 350.734 825.121 351.151C825.121 351.572 824.96 351.934 824.638 352.237C824.32 352.536 823.937 352.685 823.487 352.685ZM830.442 358.693V365H827.416V354.091H830.3V356.016H830.428C830.669 355.381 831.074 354.879 831.642 354.51C832.21 354.136 832.899 353.949 833.709 353.949C834.467 353.949 835.127 354.115 835.691 354.446C836.254 354.777 836.692 355.251 837.004 355.866C837.317 356.477 837.473 357.206 837.473 358.054V365H834.448V358.594C834.452 357.926 834.282 357.405 833.936 357.031C833.591 356.652 833.115 356.463 832.509 356.463C832.102 356.463 831.742 356.551 831.429 356.726C831.121 356.901 830.88 357.157 830.705 357.493C830.534 357.824 830.447 358.224 830.442 358.693ZM843.878 365.178C843.049 365.178 842.299 364.964 841.626 364.538C840.959 364.107 840.428 363.475 840.035 362.642C839.647 361.804 839.453 360.777 839.453 359.56C839.453 358.31 839.654 357.27 840.057 356.442C840.459 355.608 840.994 354.986 841.662 354.574C842.334 354.157 843.07 353.949 843.871 353.949C844.481 353.949 844.99 354.053 845.398 354.261C845.809 354.465 846.141 354.721 846.392 355.028C846.648 355.331 846.842 355.63 846.974 355.923H847.067V350.455H850.085V365H847.102V363.253H846.974C846.832 363.556 846.631 363.857 846.371 364.155C846.115 364.448 845.781 364.692 845.369 364.886C844.962 365.08 844.465 365.178 843.878 365.178ZM844.836 362.77C845.324 362.77 845.736 362.637 846.072 362.372C846.413 362.102 846.674 361.726 846.854 361.243C847.038 360.76 847.131 360.194 847.131 359.545C847.131 358.897 847.041 358.333 846.861 357.855C846.681 357.377 846.42 357.008 846.079 356.747C845.738 356.487 845.324 356.357 844.836 356.357C844.339 356.357 843.92 356.491 843.579 356.761C843.238 357.031 842.98 357.405 842.805 357.884C842.63 358.362 842.542 358.916 842.542 359.545C842.542 360.18 842.63 360.741 842.805 361.229C842.985 361.712 843.243 362.09 843.579 362.365C843.92 362.635 844.339 362.77 844.836 362.77ZM857.502 365.213C856.398 365.213 855.444 364.979 854.639 364.51C853.839 364.036 853.221 363.378 852.786 362.536C852.35 361.688 852.132 360.705 852.132 359.588C852.132 358.461 852.35 357.476 852.786 356.634C853.221 355.786 853.839 355.128 854.639 354.659C855.444 354.186 856.398 353.949 857.502 353.949C858.605 353.949 859.557 354.186 860.357 354.659C861.162 355.128 861.782 355.786 862.218 356.634C862.653 357.476 862.871 358.461 862.871 359.588C862.871 360.705 862.653 361.688 862.218 362.536C861.782 363.378 861.162 364.036 860.357 364.51C859.557 364.979 858.605 365.213 857.502 365.213ZM857.516 362.869C858.018 362.869 858.437 362.727 858.773 362.443C859.109 362.154 859.362 361.761 859.533 361.264C859.708 360.767 859.796 360.201 859.796 359.567C859.796 358.932 859.708 358.366 859.533 357.869C859.362 357.372 859.109 356.979 858.773 356.69C858.437 356.402 858.018 356.257 857.516 356.257C857.009 356.257 856.583 356.402 856.237 356.69C855.896 356.979 855.638 357.372 855.463 357.869C855.293 358.366 855.208 358.932 855.208 359.567C855.208 360.201 855.293 360.767 855.463 361.264C855.638 361.761 855.896 362.154 856.237 362.443C856.583 362.727 857.009 362.869 857.516 362.869ZM866.717 365L863.748 354.091H866.809L868.499 361.42H868.599L870.36 354.091H873.365L875.154 361.378H875.247L876.909 354.091H879.963L877.001 365H873.798L871.923 358.139H871.788L869.913 365H866.717ZM886.676 359.169C886.676 360.935 886.439 362.559 885.966 364.041C885.497 365.523 884.777 366.896 883.807 368.161H880.916C881.285 367.692 881.629 367.119 881.946 366.442C882.263 365.765 882.54 365.026 882.777 364.226C883.014 363.421 883.198 362.588 883.331 361.726C883.463 360.864 883.53 360.012 883.53 359.169C883.53 358.047 883.414 356.915 883.182 355.774C882.954 354.628 882.642 353.568 882.244 352.592C881.851 351.612 881.408 350.81 880.916 350.185H883.807C884.777 351.449 885.497 352.822 885.966 354.304C886.439 355.786 886.676 357.408 886.676 359.169Z" fill="white"/>
<rect y="53" width="183" height="656" fill="#3F6ADA"/>
<path d="M32.1722 373.547H29.0614C29.0046 373.144 28.8886 372.787 28.7134 372.474C28.5382 372.157 28.3133 371.887 28.0387 371.665C27.7641 371.442 27.4469 371.272 27.087 371.153C26.7319 371.035 26.346 370.976 25.9293 370.976C25.1765 370.976 24.5207 371.163 23.962 371.537C23.4033 371.906 22.9701 372.446 22.6623 373.156C22.3545 373.862 22.2006 374.719 22.2006 375.727C22.2006 376.764 22.3545 377.635 22.6623 378.341C22.9748 379.046 23.4104 379.579 23.9691 379.939C24.5278 380.299 25.1741 380.479 25.908 380.479C26.32 380.479 26.7011 380.424 27.0515 380.315C27.4066 380.206 27.7215 380.048 27.9961 379.839C28.2707 379.626 28.498 379.368 28.6779 379.065C28.8626 378.762 28.9904 378.417 29.0614 378.028L32.1722 378.043C32.0917 378.71 31.8905 379.354 31.5685 379.974C31.2513 380.59 30.8228 381.142 30.283 381.629C29.748 382.112 29.1088 382.496 28.3654 382.78C27.6268 383.059 26.7911 383.199 25.8583 383.199C24.561 383.199 23.4009 382.905 22.3782 382.318C21.3602 381.731 20.5553 380.881 19.9634 379.768C19.3763 378.656 19.0827 377.309 19.0827 375.727C19.0827 374.141 19.381 372.792 19.9776 371.679C20.5742 370.566 21.3839 369.719 22.4066 369.136C23.4293 368.549 24.5799 368.256 25.8583 368.256C26.7011 368.256 27.4824 368.374 28.2021 368.611C28.9265 368.848 29.5681 369.193 30.1268 369.648C30.6855 370.098 31.14 370.649 31.4904 371.303C31.8455 371.956 32.0728 372.704 32.1722 373.547ZM39.2496 383.213C38.1464 383.213 37.1924 382.979 36.3874 382.51C35.5872 382.036 34.9693 381.378 34.5337 380.536C34.0981 379.688 33.8803 378.705 33.8803 377.588C33.8803 376.461 34.0981 375.476 34.5337 374.634C34.9693 373.786 35.5872 373.128 36.3874 372.659C37.1924 372.186 38.1464 371.949 39.2496 371.949C40.3529 371.949 41.3046 372.186 42.1048 372.659C42.9097 373.128 43.5299 373.786 43.9656 374.634C44.4012 375.476 44.619 376.461 44.619 377.588C44.619 378.705 44.4012 379.688 43.9656 380.536C43.5299 381.378 42.9097 382.036 42.1048 382.51C41.3046 382.979 40.3529 383.213 39.2496 383.213ZM39.2638 380.869C39.7657 380.869 40.1848 380.727 40.521 380.443C40.8571 380.154 41.1104 379.761 41.2809 379.264C41.4561 378.767 41.5437 378.201 41.5437 377.567C41.5437 376.932 41.4561 376.366 41.2809 375.869C41.1104 375.372 40.8571 374.979 40.521 374.69C40.1848 374.402 39.7657 374.257 39.2638 374.257C38.7572 374.257 38.3311 374.402 37.9854 374.69C37.6445 374.979 37.3865 375.372 37.2113 375.869C37.0408 376.366 36.9556 376.932 36.9556 377.567C36.9556 378.201 37.0408 378.767 37.2113 379.264C37.3865 379.761 37.6445 380.154 37.9854 380.443C38.3311 380.727 38.7572 380.869 39.2638 380.869ZM49.6119 376.693V383H46.5863V372.091H49.4698V374.016H49.5977C49.8391 373.381 50.244 372.879 50.8121 372.51C51.3803 372.136 52.0692 371.949 52.8789 371.949C53.6365 371.949 54.297 372.115 54.8604 372.446C55.4239 372.777 55.8619 373.251 56.1744 373.866C56.4869 374.477 56.6431 375.206 56.6431 376.054V383H53.6175V376.594C53.6223 375.926 53.4518 375.405 53.1062 375.031C52.7605 374.652 52.2847 374.463 51.6786 374.463C51.2714 374.463 50.9116 374.551 50.5991 374.726C50.2913 374.901 50.0498 375.157 49.8746 375.493C49.7042 375.824 49.6166 376.224 49.6119 376.693ZM68.8075 372.091L64.9936 383H61.5845L57.7706 372.091H60.9666L63.2322 379.896H63.3459L65.6044 372.091H68.8075ZM74.9759 383.213C73.8537 383.213 72.8878 382.986 72.0781 382.531C71.2732 382.072 70.6529 381.423 70.2173 380.585C69.7817 379.742 69.5639 378.746 69.5639 377.595C69.5639 376.473 69.7817 375.488 70.2173 374.641C70.6529 373.793 71.2661 373.133 72.0568 372.659C72.8523 372.186 73.785 371.949 74.8551 371.949C75.5748 371.949 76.2448 372.065 76.8651 372.297C77.4901 372.524 78.0346 372.867 78.4986 373.327C78.9673 373.786 79.3319 374.364 79.5923 375.06C79.8527 375.751 79.983 376.561 79.983 377.489V378.32H70.7713V376.445H77.1349C77.1349 376.009 77.0402 375.623 76.8509 375.287C76.6615 374.951 76.3987 374.688 76.0625 374.499C75.7311 374.304 75.3452 374.207 74.9048 374.207C74.4455 374.207 74.0384 374.314 73.6832 374.527C73.3329 374.735 73.0582 375.017 72.8594 375.372C72.6605 375.723 72.5587 376.113 72.554 376.544V378.327C72.554 378.866 72.6534 379.333 72.8523 379.726C73.0559 380.119 73.3423 380.422 73.7116 380.635C74.081 380.848 74.5189 380.955 75.0256 380.955C75.3617 380.955 75.6695 380.907 75.9489 380.812C76.2282 380.718 76.4673 380.576 76.6662 380.386C76.8651 380.197 77.0166 379.965 77.1207 379.69L79.919 379.875C79.777 380.547 79.4858 381.134 79.0455 381.636C78.6098 382.134 78.0464 382.522 77.3551 382.801C76.6686 383.076 75.8755 383.213 74.9759 383.213ZM81.9574 383V372.091H84.8906V373.994H85.0043C85.2031 373.317 85.5369 372.806 86.0057 372.46C86.4744 372.11 87.0142 371.935 87.625 371.935C87.7765 371.935 87.9399 371.944 88.1151 371.963C88.2902 371.982 88.4441 372.008 88.5767 372.041V374.726C88.4347 374.683 88.2382 374.645 87.9872 374.612C87.7363 374.579 87.5066 374.562 87.2983 374.562C86.8532 374.562 86.4555 374.66 86.1051 374.854C85.7595 375.043 85.4848 375.308 85.2812 375.649C85.0824 375.99 84.983 376.383 84.983 376.828V383H81.9574ZM99.2177 375.202L96.4478 375.372C96.4004 375.135 96.2987 374.922 96.1424 374.733C95.9862 374.539 95.7802 374.385 95.5245 374.271C95.2736 374.153 94.9729 374.094 94.6225 374.094C94.1538 374.094 93.7584 374.193 93.4364 374.392C93.1145 374.586 92.9535 374.847 92.9535 375.173C92.9535 375.434 93.0576 375.654 93.266 375.834C93.4743 376.014 93.8318 376.158 94.3384 376.267L96.3129 376.665C97.3735 376.883 98.1642 377.233 98.685 377.716C99.2058 378.199 99.4663 378.833 99.4663 379.619C99.4663 380.334 99.2556 380.962 98.8342 381.501C98.4175 382.041 97.8446 382.463 97.1154 382.766C96.391 383.064 95.5553 383.213 94.6083 383.213C93.1642 383.213 92.0136 382.912 91.1566 382.311C90.3043 381.705 89.8048 380.881 89.658 379.839L92.6339 379.683C92.7238 380.124 92.9416 380.46 93.2873 380.692C93.6329 380.919 94.0756 381.033 94.6154 381.033C95.1457 381.033 95.5719 380.931 95.8938 380.727C96.2205 380.519 96.3862 380.251 96.391 379.925C96.3862 379.65 96.2702 379.425 96.043 379.25C95.8157 379.07 95.4653 378.933 94.9918 378.838L93.1026 378.462C92.0373 378.249 91.2442 377.879 90.7234 377.354C90.2073 376.828 89.9492 376.158 89.9492 375.344C89.9492 374.643 90.1386 374.039 90.5174 373.533C90.9009 373.026 91.4383 372.635 92.1296 372.361C92.8256 372.086 93.64 371.949 94.5728 371.949C95.9506 371.949 97.0349 372.24 97.8256 372.822C98.6211 373.405 99.0851 374.198 99.2177 375.202ZM104.482 383.206C103.786 383.206 103.166 383.085 102.621 382.844C102.077 382.598 101.646 382.235 101.329 381.757C101.016 381.274 100.86 380.673 100.86 379.953C100.86 379.347 100.971 378.838 101.194 378.426C101.416 378.014 101.719 377.683 102.103 377.432C102.487 377.181 102.922 376.991 103.41 376.864C103.902 376.736 104.418 376.646 104.958 376.594C105.593 376.527 106.104 376.466 106.492 376.409C106.88 376.348 107.162 376.258 107.337 376.139C107.513 376.021 107.6 375.846 107.6 375.614V375.571C107.6 375.121 107.458 374.773 107.174 374.527C106.895 374.281 106.497 374.158 105.981 374.158C105.436 374.158 105.003 374.278 104.681 374.52C104.359 374.757 104.146 375.055 104.042 375.415L101.244 375.188C101.386 374.525 101.665 373.952 102.082 373.469C102.498 372.981 103.036 372.607 103.694 372.347C104.357 372.081 105.124 371.949 105.995 371.949C106.601 371.949 107.181 372.02 107.735 372.162C108.294 372.304 108.789 372.524 109.219 372.822C109.655 373.121 109.998 373.504 110.249 373.973C110.5 374.437 110.626 374.993 110.626 375.642V383H107.756V381.487H107.671C107.496 381.828 107.262 382.129 106.968 382.389C106.674 382.645 106.322 382.846 105.91 382.993C105.498 383.135 105.022 383.206 104.482 383.206ZM105.349 381.118C105.794 381.118 106.187 381.03 106.528 380.855C106.869 380.675 107.136 380.434 107.33 380.131C107.524 379.828 107.621 379.484 107.621 379.101V377.943C107.527 378.005 107.397 378.062 107.231 378.114C107.07 378.161 106.888 378.206 106.684 378.249C106.48 378.286 106.277 378.322 106.073 378.355C105.87 378.384 105.685 378.41 105.519 378.433C105.164 378.485 104.854 378.568 104.589 378.682C104.324 378.795 104.118 378.949 103.971 379.143C103.824 379.333 103.751 379.57 103.751 379.854C103.751 380.266 103.9 380.58 104.198 380.798C104.501 381.011 104.885 381.118 105.349 381.118ZM118.776 372.091V374.364H112.206V372.091H118.776ZM113.697 369.477H116.723V379.648C116.723 379.927 116.766 380.145 116.851 380.301C116.936 380.453 117.054 380.559 117.206 380.621C117.362 380.682 117.542 380.713 117.746 380.713C117.888 380.713 118.03 380.701 118.172 380.678C118.314 380.649 118.423 380.628 118.499 380.614L118.974 382.865C118.823 382.912 118.61 382.967 118.335 383.028C118.061 383.095 117.727 383.135 117.334 383.149C116.605 383.178 115.965 383.08 115.416 382.858C114.872 382.635 114.448 382.29 114.145 381.821C113.842 381.352 113.693 380.76 113.697 380.045V369.477ZM120.746 383V372.091H123.772V383H120.746ZM122.266 370.685C121.817 370.685 121.431 370.536 121.109 370.237C120.791 369.934 120.633 369.572 120.633 369.151C120.633 368.734 120.791 368.376 121.109 368.078C121.431 367.775 121.817 367.624 122.266 367.624C122.716 367.624 123.1 367.775 123.417 368.078C123.739 368.376 123.9 368.734 123.9 369.151C123.9 369.572 123.739 369.934 123.417 370.237C123.1 370.536 122.716 370.685 122.266 370.685ZM131.125 383.213C130.021 383.213 129.067 382.979 128.262 382.51C127.462 382.036 126.844 381.378 126.409 380.536C125.973 379.688 125.755 378.705 125.755 377.588C125.755 376.461 125.973 375.476 126.409 374.634C126.844 373.786 127.462 373.128 128.262 372.659C129.067 372.186 130.021 371.949 131.125 371.949C132.228 371.949 133.18 372.186 133.98 372.659C134.785 373.128 135.405 373.786 135.841 374.634C136.276 375.476 136.494 376.461 136.494 377.588C136.494 378.705 136.276 379.688 135.841 380.536C135.405 381.378 134.785 382.036 133.98 382.51C133.18 382.979 132.228 383.213 131.125 383.213ZM131.139 380.869C131.641 380.869 132.06 380.727 132.396 380.443C132.732 380.154 132.985 379.761 133.156 379.264C133.331 378.767 133.419 378.201 133.419 377.567C133.419 376.932 133.331 376.366 133.156 375.869C132.985 375.372 132.732 374.979 132.396 374.69C132.06 374.402 131.641 374.257 131.139 374.257C130.632 374.257 130.206 374.402 129.86 374.69C129.52 374.979 129.261 375.372 129.086 375.869C128.916 376.366 128.831 376.932 128.831 377.567C128.831 378.201 128.916 378.767 129.086 379.264C129.261 379.761 129.52 380.154 129.86 380.443C130.206 380.727 130.632 380.869 131.139 380.869ZM141.487 376.693V383H138.461V372.091H141.345V374.016H141.473C141.714 373.381 142.119 372.879 142.687 372.51C143.255 372.136 143.944 371.949 144.754 371.949C145.511 371.949 146.172 372.115 146.735 372.446C147.299 372.777 147.737 373.251 148.049 373.866C148.362 374.477 148.518 375.206 148.518 376.054V383H145.493V376.594C145.497 375.926 145.327 375.405 144.981 375.031C144.636 374.652 144.16 374.463 143.554 374.463C143.146 374.463 142.787 374.551 142.474 374.726C142.166 374.901 141.925 375.157 141.75 375.493C141.579 375.824 141.492 376.224 141.487 376.693ZM159.979 375.202L157.21 375.372C157.162 375.135 157.06 374.922 156.904 374.733C156.748 374.539 156.542 374.385 156.286 374.271C156.035 374.153 155.735 374.094 155.384 374.094C154.915 374.094 154.52 374.193 154.198 374.392C153.876 374.586 153.715 374.847 153.715 375.173C153.715 375.434 153.819 375.654 154.028 375.834C154.236 376.014 154.594 376.158 155.1 376.267L157.075 376.665C158.135 376.883 158.926 377.233 159.447 377.716C159.968 378.199 160.228 378.833 160.228 379.619C160.228 380.334 160.017 380.962 159.596 381.501C159.179 382.041 158.606 382.463 157.877 382.766C157.153 383.064 156.317 383.213 155.37 383.213C153.926 383.213 152.775 382.912 151.918 382.311C151.066 381.705 150.567 380.881 150.42 379.839L153.396 379.683C153.486 380.124 153.703 380.46 154.049 380.692C154.395 380.919 154.837 381.033 155.377 381.033C155.907 381.033 156.334 380.931 156.656 380.727C156.982 380.519 157.148 380.251 157.153 379.925C157.148 379.65 157.032 379.425 156.805 379.25C156.577 379.07 156.227 378.933 155.754 378.838L153.864 378.462C152.799 378.249 152.006 377.879 151.485 377.354C150.969 376.828 150.711 376.158 150.711 375.344C150.711 374.643 150.9 374.039 151.279 373.533C151.663 373.026 152.2 372.635 152.891 372.361C153.587 372.086 154.402 371.949 155.335 371.949C156.712 371.949 157.797 372.24 158.587 372.822C159.383 373.405 159.847 374.198 159.979 375.202Z" fill="white"/>
</svg>
