<svg width="111" height="42" viewBox="0 0 111 42" fill="none" xmlns="http://www.w3.org/2000/svg">
<path d="M71.7808 38.6276C71.3797 38.6276 71.0433 38.5275 70.7717 38.3273C70.5001 38.1272 70.2957 37.8549 70.1586 37.5106C70.0215 37.1637 69.953 36.7753 69.953 36.3456C69.953 35.9106 70.0215 35.5209 70.1586 35.1766C70.2957 34.8323 70.4963 34.5614 70.7603 34.3639C71.0268 34.1637 71.3556 34.0636 71.7465 34.0636C72.1349 34.0636 72.4713 34.1637 72.7556 34.3639C73.0425 34.5614 73.2646 34.8323 73.422 35.1766C73.5794 35.5182 73.6581 35.9079 73.6581 36.3456C73.6581 36.778 73.5807 37.1663 73.4258 37.5106C73.271 37.8549 73.0526 38.1272 72.7708 38.3273C72.4891 38.5275 72.159 38.6276 71.7808 38.6276ZM69.7969 38.5075V32.7425H70.7222V35.4729H70.608V38.5075H69.7969ZM71.6399 37.7629C71.8785 37.7629 72.0753 37.7001 72.2301 37.5747C72.385 37.4493 72.4992 37.2798 72.5728 37.0663C72.649 36.8501 72.6871 36.6099 72.6871 36.3456C72.6871 36.0841 72.649 35.8465 72.5728 35.633C72.4967 35.4168 72.3786 35.246 72.2187 35.1206C72.0588 34.9924 71.8557 34.9284 71.6094 34.9284C71.3759 34.9284 71.1855 34.9884 71.0383 35.1085C70.891 35.226 70.7819 35.3915 70.7108 35.605C70.6422 35.8158 70.608 36.0627 70.608 36.3456C70.608 36.6259 70.6422 36.8727 70.7108 37.0863C70.7819 37.2998 70.8923 37.4666 71.0421 37.5867C71.1944 37.7041 71.3937 37.7629 71.6399 37.7629Z" fill="#2B323B"/>
<path d="M74.763 40.4292L75.555 38.1432L75.5703 38.8158L73.7767 34.1837H74.7325L76.0044 37.6107H75.7606L76.9982 34.1837H77.9159L75.6236 40.4292H74.763Z" fill="#2B323B"/>
<path d="M86.3837 36.4689L86.3888 38.3009C86.3888 38.7665 86.6172 38.9967 87.0692 38.9967H87.2673C87.7192 38.9967 87.9477 38.7665 87.9477 38.3009V37.3999H88.9887V38.2559C88.9887 39.4322 88.4098 40.0328 87.2622 40.0328H87.0336C85.886 40.0328 85.3071 39.4372 85.3071 38.3961V33.916C85.3071 32.5996 85.886 32.0039 87.0336 32.0039H87.2622C88.4098 32.0039 88.9887 32.5996 88.9887 33.7759L88.9836 36.4639H86.3837V36.4689ZM87.9122 35.4027V33.7358C87.9122 33.2703 87.6887 33.0351 87.2317 33.0351H87.0591C86.6071 33.0351 86.3786 33.2703 86.3786 33.7358V35.4027H87.9122Z" fill="#2B323B"/>
<path d="M89.6828 32.089H90.7593V32.5995C91.0132 32.3243 91.4499 32.0039 92.0745 32.0039C92.9936 32.0039 93.4456 32.6296 93.4456 33.5606V38.4761C93.4456 39.4071 92.9936 40.0328 92.0745 40.0328C91.4499 40.0328 91.0132 39.7275 90.7593 39.4672V42H89.6828V32.089ZM90.7593 38.5712C91.0538 38.8315 91.394 38.9766 91.7495 38.9766C92.1456 38.9766 92.3741 38.7864 92.3741 38.3359V33.6807C92.3741 33.2302 92.1456 33.04 91.7495 33.04C91.394 33.04 91.0538 33.1852 90.7593 33.4455V38.5712Z" fill="#2B323B"/>
<path d="M94.0976 37.2047C94.0976 36.2286 94.4073 35.8382 95.23 35.5478L96.6721 35.0372V33.7308C96.6721 33.2653 96.4436 33.02 95.9917 33.02H95.819C95.3671 33.02 95.1386 33.2653 95.1386 33.7308V34.842H94.0925V33.7759C94.0925 32.5995 94.6714 32.0039 95.819 32.0039H96.0221C97.1699 32.0039 97.749 32.5995 97.749 33.7759V39.9427H96.6721V39.4472C96.3776 39.7375 95.9765 40.0278 95.3569 40.0278C94.4936 40.0278 94.0976 39.5173 94.0976 38.6463V37.2047ZM96.6721 38.6162V36.0284L95.6971 36.4088C95.3011 36.569 95.1741 36.7742 95.1741 37.2247V38.416C95.1741 38.7964 95.3569 38.9817 95.6971 38.9817C96.0221 38.9817 96.3218 38.8665 96.6721 38.6162Z" fill="#2B323B"/>
<path d="M102.094 39.9438H101.018V33.6168C101.018 33.2263 100.835 33.0512 100.51 33.0512C100.215 33.0512 99.9005 33.1663 99.5198 33.4416V39.9438H98.4435V32.0901H99.5198V32.6007C99.8348 32.2953 100.241 32 100.835 32C101.389 32 101.754 32.2352 101.953 32.6407C102.338 32.3054 102.79 32 103.41 32C104.243 32 104.669 32.5256 104.669 33.3815V39.9388H103.592V33.6168C103.592 33.2263 103.41 33.0512 103.085 33.0512C102.79 33.0512 102.476 33.1663 102.094 33.4416V39.9438Z" fill="#2B323B"/>
<path d="M81.1704 35.5117V36.5729L83.9328 39.2408V37.7642L82.1251 36.0273L83.9328 34.2553V32.8087L81.1704 35.5117Z" fill="#2B323B"/>
<path d="M106.034 34.2553L107.842 36.0273L106.034 37.7692V39.2408L108.797 36.5729V35.5117L106.034 32.8087V34.2553Z" fill="#2B323B"/>
<path d="M50 27.2616V7.10156H56.426C56.594 7.10156 56.9253 7.10623 57.42 7.11556C57.924 7.1249 58.4093 7.15756 58.876 7.21356C60.472 7.4189 61.8207 7.98823 62.922 8.92156C64.0327 9.84556 64.8727 11.0262 65.442 12.4636C66.0113 13.9009 66.296 15.4736 66.296 17.1816C66.296 18.8896 66.0113 20.4622 65.442 21.8996C64.8727 23.3369 64.0327 24.5222 62.922 25.4556C61.8207 26.3796 60.472 26.9442 58.876 27.1496C58.4187 27.2056 57.938 27.2382 57.434 27.2476C56.93 27.2569 56.594 27.2616 56.426 27.2616H50ZM53.43 24.0836H56.426C56.706 24.0836 57.0607 24.0742 57.49 24.0556C57.9287 24.0369 58.316 23.9949 58.652 23.9296C59.604 23.7522 60.3787 23.3276 60.976 22.6556C61.5733 21.9836 62.012 21.1669 62.292 20.2056C62.5813 19.2442 62.726 18.2362 62.726 17.1816C62.726 16.0896 62.5813 15.0629 62.292 14.1016C62.0027 13.1402 61.5547 12.3329 60.948 11.6796C60.3507 11.0262 59.5853 10.6109 58.652 10.4336C58.316 10.3589 57.9287 10.3169 57.49 10.3076C57.0607 10.2889 56.706 10.2796 56.426 10.2796H53.43V24.0836Z" fill="#18212E"/>
<path d="M69.8855 27.2616V7.10156H73.2595V27.2616H69.8855Z" fill="#18212E"/>
<path d="M76.0531 27.2616L82.4091 7.10156H87.3511L93.7071 27.2616H90.2351L84.4671 9.17356H85.2231L79.5251 27.2616H76.0531ZM79.5951 22.8936V19.7436H90.1791V22.8936H79.5951Z" fill="#18212E"/>
<path d="M96.5183 27.2616V7.10156H99.8923V24.0976H108.796V27.2616H96.5183Z" fill="#18212E"/>
<path d="M29.9982 22.6909C29.9982 28.3121 28.4144 32.6021 25.2471 35.5608C22.0798 38.5192 17.661 39.9986 11.9907 39.9986H2.43806C2.09472 39.9986 1.81641 39.7157 1.81641 39.3667V6.08505C1.81641 5.73604 2.09472 5.45312 2.43806 5.45312H11.3184C14.1768 5.45312 16.7339 5.79569 18.9897 6.48085C21.2455 7.15042 23.2 8.17815 24.8532 9.56401C26.5219 10.9343 27.7965 12.7328 28.6772 14.9596C29.5579 17.1708 29.9982 19.7478 29.9982 22.6909Z" fill="url(#paint0_linear_2033_12789)" fill-opacity="0.18"/>
<path d="M29.9982 22.6909C29.9982 28.3121 28.4144 32.6021 25.2471 35.5608C22.0798 38.5192 17.661 39.9986 11.9907 39.9986H2.43806C2.09472 39.9986 1.81641 39.7157 1.81641 39.3667V6.08505C1.81641 5.73604 2.09472 5.45312 2.43806 5.45312H11.3184C14.1768 5.45312 16.7339 5.79569 18.9897 6.48085C21.2455 7.15042 23.2 8.17815 24.8532 9.56401C26.5219 10.9343 27.7965 12.7328 28.6772 14.9596C29.5579 17.1708 29.9982 19.7478 29.9982 22.6909Z" fill="#7799FF" fill-opacity="0.22"/>
<path d="M38.3903 17.4646C38.3903 23.1598 36.7877 27.5062 33.5829 30.5038C30.3781 33.5012 25.9071 35 20.1696 35H10.504C10.1566 35 9.875 34.7134 9.875 34.3598V0.640244C9.875 0.286637 10.1566 0 10.504 0H19.4895C22.3817 0 24.969 0.347077 27.2515 1.04125C29.534 1.71963 31.5116 2.76088 33.1843 4.16498C34.8728 5.5533 36.1625 7.37548 37.0536 9.63151C37.9447 11.8718 38.3903 14.4827 38.3903 17.4646Z" fill="url(#paint1_linear_2033_12789)"/>
<defs>
<linearGradient id="paint0_linear_2033_12789" x1="1.81641" y1="2.68949" x2="1.81641" y2="39.9986" gradientUnits="userSpaceOnUse">
<stop stop-color="#00DBDE"/>
<stop offset="1" stop-color="#FC00FF"/>
</linearGradient>
<linearGradient id="paint1_linear_2033_12789" x1="9.875" y1="17.5" x2="38.3903" y2="17.5" gradientUnits="userSpaceOnUse">
<stop stop-color="#00DBDE"/>
<stop offset="1" stop-color="#FC00FF"/>
</linearGradient>
</defs>
</svg>
