<svg width="119" height="52" viewBox="0 0 119 52" fill="none" xmlns="http://www.w3.org/2000/svg">
<path d="M0.94 45V38H3.82C4.44 38 4.97 38.1 5.41 38.3C5.85667 38.5 6.2 38.7867 6.44 39.16C6.68 39.5333 6.8 39.9767 6.8 40.49C6.8 41.0033 6.68 41.4467 6.44 41.82C6.2 42.1933 5.85667 42.48 5.41 42.68C4.97 42.88 4.44 42.98 3.82 42.98H1.66L2.24 42.37V45H0.94ZM2.24 42.51L1.66 41.88H3.76C4.33333 41.88 4.76333 41.76 5.05 41.52C5.34333 41.2733 5.49 40.93 5.49 40.49C5.49 40.0433 5.34333 39.7 5.05 39.46C4.76333 39.22 4.33333 39.1 3.76 39.1H1.66L2.24 38.46V42.51ZM11.1759 45.1C10.6292 45.1 10.1259 45.01 9.66586 44.83C9.20586 44.65 8.80586 44.4 8.46586 44.08C8.12586 43.7533 7.86253 43.3733 7.67586 42.94C7.48919 42.5 7.39586 42.02 7.39586 41.5C7.39586 40.98 7.48919 40.5033 7.67586 40.07C7.86253 39.63 8.12586 39.25 8.46586 38.93C8.80586 38.6033 9.20586 38.35 9.66586 38.17C10.1259 37.99 10.6259 37.9 11.1659 37.9C11.7125 37.9 12.2125 37.99 12.6659 38.17C13.1259 38.35 13.5259 38.6033 13.8659 38.93C14.2059 39.25 14.4692 39.63 14.6559 40.07C14.8425 40.5033 14.9359 40.98 14.9359 41.5C14.9359 42.02 14.8425 42.5 14.6559 42.94C14.4692 43.38 14.2059 43.76 13.8659 44.08C13.5259 44.4 13.1259 44.65 12.6659 44.83C12.2125 45.01 11.7159 45.1 11.1759 45.1ZM11.1659 43.96C11.5192 43.96 11.8459 43.9 12.1459 43.78C12.4459 43.66 12.7059 43.49 12.9259 43.27C13.1459 43.0433 13.3159 42.7833 13.4359 42.49C13.5625 42.19 13.6259 41.86 13.6259 41.5C13.6259 41.14 13.5625 40.8133 13.4359 40.52C13.3159 40.22 13.1459 39.96 12.9259 39.74C12.7059 39.5133 12.4459 39.34 12.1459 39.22C11.8459 39.1 11.5192 39.04 11.1659 39.04C10.8125 39.04 10.4859 39.1 10.1859 39.22C9.89253 39.34 9.63253 39.5133 9.40586 39.74C9.18586 39.96 9.01253 40.22 8.88586 40.52C8.76586 40.8133 8.70586 41.14 8.70586 41.5C8.70586 41.8533 8.76586 42.18 8.88586 42.48C9.01253 42.78 9.18586 43.0433 9.40586 43.27C9.62586 43.49 9.88586 43.66 10.1859 43.78C10.4859 43.9 10.8125 43.96 11.1659 43.96ZM17.449 45L15.129 38H16.479L18.549 44.33H17.879L20.029 38H21.229L23.319 44.33H22.669L24.789 38H26.029L23.709 45H22.329L20.419 39.29H20.779L18.839 45H17.449ZM27.988 40.91H31.468V41.98H27.988V40.91ZM28.088 43.91H32.038V45H26.788V38H31.898V39.09H28.088V43.91ZM33.1873 45V38H36.0673C36.6873 38 37.2173 38.1 37.6573 38.3C38.1039 38.5 38.4473 38.7867 38.6873 39.16C38.9273 39.5333 39.0473 39.9767 39.0473 40.49C39.0473 41.0033 38.9273 41.4467 38.6873 41.82C38.4473 42.1867 38.1039 42.47 37.6573 42.67C37.2173 42.8633 36.6873 42.96 36.0673 42.96H33.9073L34.4873 42.37V45H33.1873ZM37.7673 45L35.9973 42.46H37.3873L39.1673 45H37.7673ZM34.4873 42.51L33.9073 41.89H36.0073C36.5806 41.89 37.0106 41.7667 37.2973 41.52C37.5906 41.2733 37.7373 40.93 37.7373 40.49C37.7373 40.0433 37.5906 39.7 37.2973 39.46C37.0106 39.22 36.5806 39.1 36.0073 39.1H33.9073L34.4873 38.46V42.51ZM41.4017 40.91H44.8817V41.98H41.4017V40.91ZM41.5017 43.91H45.4517V45H40.2017V38H45.3117V39.09H41.5017V43.91ZM46.6009 45V38H49.6609C50.4209 38 51.0876 38.1467 51.6609 38.44C52.2343 38.7333 52.6809 39.14 53.0009 39.66C53.3209 40.18 53.4809 40.7933 53.4809 41.5C53.4809 42.2 53.3209 42.8133 53.0009 43.34C52.6809 43.86 52.2343 44.2667 51.6609 44.56C51.0876 44.8533 50.4209 45 49.6609 45H46.6009ZM47.9009 43.9H49.6009C50.1276 43.9 50.5809 43.8 50.9609 43.6C51.3476 43.4 51.6443 43.12 51.8509 42.76C52.0643 42.4 52.1709 41.98 52.1709 41.5C52.1709 41.0133 52.0643 40.5933 51.8509 40.24C51.6443 39.88 51.3476 39.6 50.9609 39.4C50.5809 39.2 50.1276 39.1 49.6009 39.1H47.9009V43.9ZM57.0263 45V38H60.3063C61.1463 38 61.7863 38.1667 62.2263 38.5C62.6663 38.8267 62.8863 39.2667 62.8863 39.82C62.8863 40.1933 62.7997 40.5133 62.6263 40.78C62.453 41.04 62.2197 41.2433 61.9263 41.39C61.6397 41.53 61.3263 41.6 60.9863 41.6L61.1663 41.24C61.5597 41.24 61.913 41.3133 62.2263 41.46C62.5397 41.6 62.7863 41.8067 62.9663 42.08C63.153 42.3533 63.2463 42.6933 63.2463 43.1C63.2463 43.7 63.0163 44.1667 62.5563 44.5C62.0963 44.8333 61.413 45 60.5063 45H57.0263ZM58.3263 43.98H60.4263C60.913 43.98 61.2863 43.9 61.5463 43.74C61.8063 43.58 61.9363 43.3233 61.9363 42.97C61.9363 42.6233 61.8063 42.37 61.5463 42.21C61.2863 42.0433 60.913 41.96 60.4263 41.96H58.2263V40.95H60.1663C60.6197 40.95 60.9663 40.87 61.2063 40.71C61.453 40.55 61.5763 40.31 61.5763 39.99C61.5763 39.6633 61.453 39.42 61.2063 39.26C60.9663 39.1 60.6197 39.02 60.1663 39.02H58.3263V43.98ZM65.9073 45V42.23L66.1973 43.03L63.1573 38H64.5473L66.9873 42.05H66.2073L68.6673 38H69.9473L66.9073 43.03L67.2073 42.23V45H65.9073Z" fill="white"/>
<path d="M113.988 0H117.91L109.761 13.9614L119 29H114.99L107.625 16.5714C107.335 16.1295 107.189 15.7429 107.189 15.4114H107.015C107.015 15.7429 106.87 16.1295 106.579 16.5714L99.2139 29H95.2044L104.444 13.9614L96.294 0H100.216L106.492 11.1857C106.841 11.8486 107.015 12.2767 107.015 12.47H107.189C107.189 12.3595 107.218 12.2352 107.277 12.0971C107.335 11.9314 107.407 11.7657 107.494 11.6C107.611 11.4067 107.683 11.2686 107.712 11.1857L113.988 0Z" fill="url(#paint0_linear_1671_17389)"/>
<path d="M93.9246 26.1V29H75.0973V0H78.7582V26.1H93.9246Z" fill="url(#paint1_linear_1671_17389)"/>
<path d="M42.2749 29L52.7345 0H57.8771L68.5546 29H64.8937L62.6275 22.9929H48.1148L45.9357 29H42.2749ZM55.393 2.48571H55.2186C55.2186 2.81714 55.1169 3.21762 54.9136 3.68714L49.03 20.3H61.7123L55.698 3.68714C55.4946 3.21762 55.393 2.81714 55.393 2.48571Z" fill="url(#paint2_linear_1671_17389)"/>
<path d="M32.0689 0H35.7298V29H32.0689V0Z" fill="url(#paint3_linear_1671_17389)"/>
<path d="M1 29V0H17.1252C17.8806 0 18.5779 0.276191 19.2171 0.828573L23.401 4.14286C24.0983 4.69524 24.4469 5.24762 24.4469 5.8V23.2C24.4469 23.7524 24.0983 24.3048 23.401 24.8571L19.2171 28.1714C18.5779 28.7238 17.8806 29 17.1252 29H1ZM20.7861 21.9571V7.04286C20.7861 6.49048 20.4374 5.9381 19.7401 5.38571L17.6482 3.72857C17.009 3.17619 16.3117 2.9 15.5563 2.9H4.66086V26.1H15.5563C16.3117 26.1 17.009 25.8238 17.6482 25.2714L19.7401 23.6143C20.4374 23.0619 20.7861 22.5095 20.7861 21.9571Z" fill="url(#paint4_linear_1671_17389)"/>
<path d="M82.4916 42.1747L82.4999 45.1169C82.4999 45.8646 82.872 46.2344 83.6081 46.2344H83.9307C84.6667 46.2344 85.0389 45.8646 85.0389 45.1169V43.6699H86.7343V45.0446C86.7343 46.9338 85.7915 47.8984 83.9224 47.8984H83.5502C81.6811 47.8984 80.7383 46.9418 80.7383 45.2697V38.0747C80.7383 35.9605 81.6811 35.0038 83.5502 35.0038H83.9224C85.7915 35.0038 86.7343 35.9605 86.7343 37.8497L86.7261 42.1666H82.4916V42.1747ZM82.4916 40.4623H84.981V37.7853C84.981 37.0377 84.6171 36.6599 83.8728 36.6599H83.5916C82.8555 36.6599 82.4833 37.0377 82.4833 37.7853V40.4623H82.4916Z" fill="white"/>
<path d="M87.8672 35.1452H89.6205V35.9652C90.034 35.5231 90.7453 35.0086 91.7625 35.0086C93.2595 35.0086 93.9956 36.0134 93.9956 37.5087V45.403C93.9956 46.8983 93.2595 47.9032 91.7625 47.9032C90.7453 47.9032 90.034 47.4128 89.6205 46.9948V51.0625H87.8672V35.1452ZM89.6205 45.5558C90.1002 45.9738 90.6543 46.2069 91.2332 46.2069C91.8783 46.2069 92.2505 45.9014 92.2505 45.1779V37.7016C92.2505 36.9781 91.8783 36.6726 91.2332 36.6726C90.6543 36.6726 90.1002 36.9058 89.6205 37.3238V45.5558Z" fill="white"/>
<path d="M95.0551 43.3644C95.0551 41.7968 95.5596 41.1698 96.8994 40.7035L99.2482 39.8835V37.7853C99.2482 37.0377 98.8761 36.6438 98.14 36.6438H97.8588C97.1227 36.6438 96.7506 37.0377 96.7506 37.7853V39.57H95.0469V37.8577C95.0469 35.9685 95.9897 35.0119 97.8588 35.0119H98.1896C100.059 35.0119 101.002 35.9685 101.002 37.8577V47.7618H99.2482V46.9659C98.7686 47.4322 98.1152 47.8984 97.1062 47.8984C95.7002 47.8984 95.0551 47.0785 95.0551 45.6797V43.3644ZM99.2482 45.6314V41.4753L97.6603 42.0862C97.0152 42.3435 96.8085 42.6731 96.8085 43.3966V45.3099C96.8085 45.9208 97.1062 46.2183 97.6603 46.2183C98.1896 46.2183 98.6776 46.0334 99.2482 45.6314Z" fill="white"/>
<path d="M108.079 47.7578H106.326V37.5965C106.326 36.9694 106.028 36.6881 105.499 36.6881C105.019 36.6881 104.506 36.873 103.886 37.3151V47.7578H102.133V35.1446H103.886V35.9646C104.399 35.4742 105.061 34.9999 106.028 34.9999C106.93 34.9999 107.525 35.3777 107.848 36.0289C108.476 35.4903 109.212 34.9999 110.221 34.9999C111.578 34.9999 112.272 35.844 112.272 37.2186V47.7498H110.519V37.5965C110.519 36.9694 110.221 36.6881 109.692 36.6881C109.212 36.6881 108.7 36.873 108.079 37.3151V47.7578Z" fill="white"/>
<path d="M74 40.6398V42.3441L78.4991 46.6289V44.2574L75.5549 41.4679L78.4991 38.622V36.2988L74 40.6398Z" fill="#44AFD0"/>
<path d="M114.496 38.622L117.44 41.4679L114.496 44.2654V46.6289L118.995 42.3441V40.6398L114.496 36.2988V38.622Z" fill="#44AFD0"/>
<defs>
<linearGradient id="paint0_linear_1671_17389" x1="1" y1="14.5" x2="119" y2="14.5" gradientUnits="userSpaceOnUse">
<stop stop-color="#00DBDE"/>
<stop offset="1" stop-color="#FC00FF"/>
</linearGradient>
<linearGradient id="paint1_linear_1671_17389" x1="1" y1="14.5" x2="119" y2="14.5" gradientUnits="userSpaceOnUse">
<stop stop-color="#00DBDE"/>
<stop offset="1" stop-color="#FC00FF"/>
</linearGradient>
<linearGradient id="paint2_linear_1671_17389" x1="1" y1="14.5" x2="119" y2="14.5" gradientUnits="userSpaceOnUse">
<stop stop-color="#00DBDE"/>
<stop offset="1" stop-color="#FC00FF"/>
</linearGradient>
<linearGradient id="paint3_linear_1671_17389" x1="1" y1="14.5" x2="119" y2="14.5" gradientUnits="userSpaceOnUse">
<stop stop-color="#00DBDE"/>
<stop offset="1" stop-color="#FC00FF"/>
</linearGradient>
<linearGradient id="paint4_linear_1671_17389" x1="1" y1="14.5" x2="119" y2="14.5" gradientUnits="userSpaceOnUse">
<stop stop-color="#00DBDE"/>
<stop offset="1" stop-color="#FC00FF"/>
</linearGradient>
</defs>
</svg>
